<svg xmlns="http://www.w3.org/2000/svg" xmlns:xlink="http://www.w3.org/1999/xlink" width="176.574" height="259.682" viewBox="0 0 176.574 259.682">
  <defs>
    <clipPath id="clip-path">
      <rect id="Rectángulo_402418" data-name="Rectángulo 402418" width="114.484" height="113.307" fill="#72688d"/>
    </clipPath>
    <clipPath id="clip-path-2">
      <rect id="Rectángulo_402417" data-name="Rectángulo 402417" width="135.04" height="259.491" fill="none"/>
    </clipPath>
  </defs>
  <g id="Grupo_1102411" data-name="Grupo 1102411" transform="translate(-816.96 -21261.43)">
    <g id="Grupo_1102410" data-name="Grupo 1102410" transform="translate(879.051 21261.43)">
      <g id="Grupo_1102409" data-name="Grupo 1102409">
        <g id="Grupo_1102408" data-name="Grupo 1102408" clip-path="url(#clip-path)">
          <path id="Trazado_892873" data-name="Trazado 892873" d="M121.7,64.341a.386.386,0,0,1-.386-.386V.771H33.564a.386.386,0,0,1,0-.771H121.7a.386.386,0,0,1,.386.386V63.956A.386.386,0,0,1,121.7,64.341Z" transform="translate(-7.597 0)" fill="#72688d"/>
          <path id="Trazado_892874" data-name="Trazado 892874" d="M114.1,113.308H.386A.386.386,0,0,1,0,112.922V.385A.386.386,0,0,1,.386,0h22.8a.386.386,0,0,1,0,.771H.771V112.537H113.713V67.849a.386.386,0,0,1,.771,0v45.073A.386.386,0,0,1,114.1,113.308Z" transform="translate(0 0)" fill="#72688d"/>
        </g>
      </g>
      <path id="Rectángulo_402419" data-name="Rectángulo 402419" d="M-.114-.5H18.795a.386.386,0,0,1,.386.386V24.468a.386.386,0,0,1-.386.386H-.114A.386.386,0,0,1-.5,24.468V-.114A.386.386,0,0,1-.114-.5ZM18.409.271H.271V24.082H18.409Z" transform="translate(9.54 10.217)" fill="#72688d"/>
      <path id="Rectángulo_402420" data-name="Rectángulo 402420" d="M.386,0H19.295a.386.386,0,0,1,.386.386V24.967a.386.386,0,0,1-.386.386H.386A.386.386,0,0,1,0,24.967V.386A.386.386,0,0,1,.386,0ZM18.909.771H.771V24.582H18.909Z" transform="matrix(0.958, -0.287, 0.287, 0.958, 32.389, 26.983)" fill="#72688d"/>
      <path id="Trazado_892875" data-name="Trazado 892875" d="M94.4,75.561a.386.386,0,0,1-.369-.275L89.057,58.65a.385.385,0,0,1,.261-.48l28.744-8.45a.386.386,0,0,1,.478.259l4.975,16.636a.386.386,0,0,1-.261.48l-8.025,2.359a.386.386,0,1,1-.217-.74l7.653-2.25-4.754-15.9-28,8.233,4.754,15.9,16.361-4.81a.386.386,0,1,1,.217.74l-16.73,4.918A.386.386,0,0,1,94.4,75.561Z" transform="translate(-20.389 -11.381)" fill="#72688d"/>
      <path id="Rectángulo_402421" data-name="Rectángulo 402421" d="M.386,0H16.343a.386.386,0,0,1,.386.386V12.661a.386.386,0,0,1-.386.386H.386A.386.386,0,0,1,0,12.661V.386A.386.386,0,0,1,.386,0ZM15.958.771H.771v11.5H15.958Z" transform="translate(9.366 60.884) rotate(-81.137)" fill="#72688d"/>
      <path id="Rectángulo_402422" data-name="Rectángulo 402422" d="M.386,0H16.343a.386.386,0,0,1,.386.386V12.661a.386.386,0,0,1-.386.386H.386A.386.386,0,0,1,0,12.661V.386A.386.386,0,0,1,.386,0ZM15.958.771H.771v11.5H15.958Z" transform="matrix(0.154, -0.988, 0.988, 0.154, 61.382, 33.018)" fill="#72688d"/>
      <path id="Rectángulo_402423" data-name="Rectángulo 402423" d="M.386,0H16.343a.386.386,0,0,1,.386.386V12.661a.386.386,0,0,1-.386.386H.386A.386.386,0,0,1,0,12.661V.386A.386.386,0,0,1,.386,0ZM15.958.771H.771v11.5H15.958Z" transform="matrix(0.154, -0.988, 0.988, 0.154, 47.051, 77.338)" fill="#72688d"/>
      <path id="Trazado_892876" data-name="Trazado 892876" d="M114.364,127.051H88.876a.386.386,0,0,1-.386-.386V104.339a.386.386,0,1,1,.771,0V126.28h24.717V93.33H89.262v7.95a.386.386,0,0,1-.771,0V92.944a.386.386,0,0,1,.386-.386h25.488a.386.386,0,0,1,.386.386v33.721A.386.386,0,0,1,114.364,127.051Z" transform="translate(-20.263 -21.194)" fill="#72688d"/>
      <path id="Rectángulo_402424" data-name="Rectángulo 402424" d="M-.114-.5H17.923a.386.386,0,0,1,.386.386V13.61a.386.386,0,0,1-.386.386H-.114A.386.386,0,0,1-.5,13.61V-.114A.386.386,0,0,1-.114-.5ZM17.537.271H.271V13.224H17.537Z" transform="translate(85.589 9.126)" fill="#72688d"/>
    </g>
    <g id="Grupo_1102407" data-name="Grupo 1102407" transform="translate(816.96 21261.621)">
      <g id="Grupo_1102406" data-name="Grupo 1102406" clip-path="url(#clip-path-2)">
        <path id="Trazado_892818" data-name="Trazado 892818" d="M61.607,3.964s6.985-.295,10.625.787,6.886,7.28,5.509,10.33a8.6,8.6,0,0,1-3.64,4.131s-.689,19.775.394,28.038,1.771,9.543,1.771,9.543H59.246l-.295-12.3a11.957,11.957,0,0,0,7.674-3.148c3.541-3.246,4.131-6.1,4.23-6.886s-.1-15.445-.1-15.445L59.05,12.326Z" transform="translate(-13.069 -0.871)" fill="#263238"/>
        <path id="Trazado_892819" data-name="Trazado 892819" d="M61.607,3.964s6.985-.295,10.625.787,6.886,7.28,5.509,10.33a8.6,8.6,0,0,1-3.64,4.131s-.689,19.775.394,28.038,1.771,9.543,1.771,9.543H59.246l-.295-12.3a11.957,11.957,0,0,0,7.674-3.148c3.541-3.246,4.131-6.1,4.23-6.886s-.1-15.445-.1-15.445L59.05,12.326Z" transform="translate(-13.069 -0.871)" fill="none" stroke="#263238" stroke-linecap="round" stroke-linejoin="round" stroke-width="1"/>
        <path id="Trazado_892820" data-name="Trazado 892820" d="M35.748,320.965l-.634,8.884h-1l-.544-5.711Z" transform="translate(-7.443 -71.156)" fill="#263238"/>
        <path id="Trazado_892821" data-name="Trazado 892821" d="M35.748,320.965l-.634,8.884h-1l-.544-5.711Z" transform="translate(-7.443 -71.156)" fill="none" stroke="#263238" stroke-linecap="round" stroke-linejoin="round" stroke-width="1"/>
        <path id="Trazado_892822" data-name="Trazado 892822" d="M20.318,248.8s-1.337,14.328,0,21.588,6.686,30.757,6.5,31.331-6.5,11.462-6.114,12.035,6.877,0,6.877,0,.956,0,2.484-3.439,3.248-5.922,2.866-8.406-.764-3.439-.573-5.158,2.866-28.083,2.1-34.388a107.886,107.886,0,0,1-.382-14.71H19.936Z" transform="translate(-4.373 -54.902)" fill="#fff"/>
        <path id="Trazado_892823" data-name="Trazado 892823" d="M20.318,248.8s-1.337,14.328,0,21.588,6.686,30.757,6.5,31.331-6.5,11.462-6.114,12.035,6.877,0,6.877,0,.956,0,2.484-3.439,3.248-5.922,2.866-8.406-.764-3.439-.573-5.158,2.866-28.083,2.1-34.388a107.886,107.886,0,0,1-.382-14.71H19.936Z" transform="translate(-4.373 -54.902)" fill="none" stroke="#263238" stroke-linecap="round" stroke-linejoin="round" stroke-width="1"/>
        <path id="Trazado_892824" data-name="Trazado 892824" d="M22.051,326.537a7.921,7.921,0,0,0-1.078,2.667c.382.573,6.878,0,6.878,0s.955,0,2.484-3.439,3.248-5.922,2.866-8.406c-.283,2.181-4.559,9.177-4.559,9.177Z" transform="translate(-4.646 -70.357)" fill="#263238"/>
        <path id="Trazado_892825" data-name="Trazado 892825" d="M22.051,326.537a7.921,7.921,0,0,0-1.078,2.667c.382.573,6.878,0,6.878,0s.955,0,2.484-3.439,3.248-5.922,2.866-8.406c-.283,2.181-4.559,9.177-4.559,9.177Z" transform="translate(-4.646 -70.357)" fill="none" stroke="#263238" stroke-linecap="round" stroke-linejoin="round" stroke-width="1"/>
        <path id="Trazado_892826" data-name="Trazado 892826" d="M79.4,247.344s4.407,12.486,9.916,24.788,13.22,26.624,13.22,26.624-2.02,4.223-2.02,5.876.734,7.9.734,7.9h1.469l.734-6.059a2.93,2.93,0,0,1,3.305,1.1c1.469,1.837,4.223,4.407,5.875,4.958s7.161,0,7.161,0,.735-.918-.551-1.836-4.039-2.2-4.774-2.938a60.366,60.366,0,0,1-6.426-10.282c-1.285-3.122-9.915-43.7-11.384-48.475s-1.836-6.059-1.836-6.059Z" transform="translate(-17.602 -53.858)" fill="#fff"/>
        <path id="Trazado_892827" data-name="Trazado 892827" d="M79.4,247.344s4.407,12.486,9.916,24.788,13.22,26.624,13.22,26.624-2.02,4.223-2.02,5.876.734,7.9.734,7.9h1.469l.734-6.059a2.93,2.93,0,0,1,3.305,1.1c1.469,1.837,4.223,4.407,5.875,4.958s7.161,0,7.161,0,.735-.918-.551-1.836-4.039-2.2-4.774-2.938a60.366,60.366,0,0,1-6.426-10.282c-1.285-3.122-9.915-43.7-11.384-48.475s-1.836-6.059-1.836-6.059Z" transform="translate(-17.602 -53.858)" fill="none" stroke="#263238" stroke-linecap="round" stroke-linejoin="round" stroke-width="1"/>
        <path id="Trazado_892828" data-name="Trazado 892828" d="M112.22,320.626a57.92,57.92,0,0,1-4.4-3.886,14.878,14.878,0,0,0-1.3,4.253c0,1.652.734,7.9.734,7.9h1.469l.734-6.059a2.93,2.93,0,0,1,3.305,1.1c1.469,1.837,4.223,4.408,5.875,4.958s7.161,0,7.161,0,.735-.918-.551-1.836-4.039-2.2-4.774-2.938l-.918,1.469s-5.141-3.305-7.345-4.958" transform="translate(-23.617 -70.22)" fill="#263238"/>
        <path id="Trazado_892829" data-name="Trazado 892829" d="M112.22,320.626a57.92,57.92,0,0,1-4.4-3.886,14.878,14.878,0,0,0-1.3,4.253c0,1.652.734,7.9.734,7.9h1.469l.734-6.059a2.93,2.93,0,0,1,3.305,1.1c1.469,1.837,4.223,4.408,5.875,4.958s7.161,0,7.161,0,.735-.918-.551-1.836-4.039-2.2-4.774-2.938l-.918,1.469S114.423,322.278,112.22,320.626Z" transform="translate(-23.617 -70.22)" fill="none" stroke="#263238" stroke-linecap="round" stroke-linejoin="round" stroke-width="1"/>
        <path id="Trazado_892830" data-name="Trazado 892830" d="M19.816,138.6s-3.8,2.613-6.479,13.609-2.146,28.829-2.146,28.829l-1.475,42.91s.671,1.341,6.437,1.877a51.334,51.334,0,0,0,10.593-.135s5.5,2.146,8.582,2.146,10.056-2.146,10.056-2.146,1.475,1.61,7.644,1.341a41.369,41.369,0,0,0,9.252-1.206,19.832,19.832,0,0,0,13.677.4c7.241-2.548,9.386-4.962,9.386-4.962s-13.409-48.139-17.029-57.525a191.557,191.557,0,0,1-6.172-19.63Z" transform="translate(-2.154 -30.726)" fill="#ffedee"/>
        <path id="Trazado_892831" data-name="Trazado 892831" d="M19.816,138.6s-3.8,2.613-6.479,13.609-2.146,28.829-2.146,28.829l-1.475,42.91s.671,1.341,6.437,1.877a51.334,51.334,0,0,0,10.593-.135s5.5,2.146,8.582,2.146,10.056-2.146,10.056-2.146,1.475,1.61,7.644,1.341a41.369,41.369,0,0,0,9.252-1.206,19.832,19.832,0,0,0,13.677.4c7.241-2.548,9.386-4.962,9.386-4.962s-13.409-48.139-17.029-57.525a191.557,191.557,0,0,1-6.172-19.63Z" transform="translate(-2.154 -30.726)" fill="none" stroke="#263238" stroke-linecap="round" stroke-linejoin="round" stroke-width="1"/>
        <path id="Trazado_892832" data-name="Trazado 892832" d="M22.2,146.276a29.73,29.73,0,0,0,17.385,5.54" transform="translate(-4.923 -32.429)" fill="none" stroke="#263238" stroke-linecap="round" stroke-linejoin="round" stroke-width="1"/>
        <path id="Trazado_892833" data-name="Trazado 892833" d="M74.281,152.658s-8.788,3.63-16.239,3.63" transform="translate(-12.868 -33.843)" fill="none" stroke="#263238" stroke-linecap="round" stroke-linejoin="round" stroke-width="1"/>
        <line id="Línea_156" data-name="Línea 156" y1="2.486" x2="0.044" transform="translate(24.881 175.936)" fill="none" stroke="#263238" stroke-linecap="round" stroke-linejoin="round" stroke-width="1"/>
        <line id="Línea_157" data-name="Línea 157" y1="13.873" x2="0.242" transform="translate(24.592 181.089)" fill="#fff"/>
        <line id="Línea_158" data-name="Línea 158" y1="13.873" x2="0.242" transform="translate(24.592 181.089)" fill="none" stroke="#263238" stroke-linecap="round" stroke-linejoin="round" stroke-width="1"/>
        <line id="Línea_159" data-name="Línea 159" x1="1.304" y1="31.252" transform="translate(41.926 163.709)" fill="#fff"/>
        <line id="Línea_160" data-name="Línea 160" x1="1.304" y1="31.252" transform="translate(41.926 163.709)" fill="none" stroke="#263238" stroke-linecap="round" stroke-linejoin="round" stroke-width="1"/>
        <line id="Línea_161" data-name="Línea 161" x1="1.388" y1="11.136" transform="translate(58.739 183.959)" fill="#fff"/>
        <line id="Línea_162" data-name="Línea 162" x1="1.388" y1="11.136" transform="translate(58.739 183.959)" fill="none" stroke="#263238" stroke-linecap="round" stroke-linejoin="round" stroke-width="1"/>
        <path id="Trazado_892834" data-name="Trazado 892834" d="M52.161,54.961l-.125,8.39s16.906,3.757,16.906,4.508-4.508,41.826-5.134,46.96a53,53,0,0,0-.25,9.642s-8.391,5.009-24.545,1.628-17.782-7.138-17.782-7.138,6.637-9.142,7.263-11.521-.251-7.013-.752-8.765-3.13-11.4-3.13-11.4L16.1,63.1l22.165-1.252L40.1,49.984s6.922,5.979,12.057,4.977" transform="translate(-3.568 -11.081)" fill="#ff494f"/>
        <path id="Trazado_892835" data-name="Trazado 892835" d="M52.161,54.961l-.125,8.39s16.906,3.757,16.906,4.508-4.508,41.826-5.134,46.96a53,53,0,0,0-.25,9.642s-8.391,5.009-24.545,1.628-17.782-7.138-17.782-7.138,6.637-9.142,7.263-11.521-.251-7.013-.752-8.765-3.13-11.4-3.13-11.4L16.1,63.1l22.165-1.252L40.1,49.984S47.027,55.963,52.161,54.961Z" transform="translate(-3.568 -11.081)" fill="none" stroke="#263238" stroke-linecap="round" stroke-linejoin="round" stroke-width="1"/>
        <path id="Trazado_892836" data-name="Trazado 892836" d="M34.354,65.862l3.486,73.348h2.816L37.3,65.46Z" transform="translate(-7.616 -14.512)" fill="#fff"/>
        <path id="Trazado_892837" data-name="Trazado 892837" d="M34.354,65.862l3.486,73.348h2.816L37.3,65.46Z" transform="translate(-7.616 -14.512)" fill="none" stroke="#263238" stroke-linecap="round" stroke-linejoin="round" stroke-width="1"/>
        <path id="Trazado_892838" data-name="Trazado 892838" d="M67.129,68.733l-3.486,82.2H66.86l2.951-81.661Z" transform="translate(-14.109 -15.238)" fill="#fff"/>
        <path id="Trazado_892839" data-name="Trazado 892839" d="M67.129,68.733l-3.486,82.2H66.86l2.951-81.661Z" transform="translate(-14.109 -15.238)" fill="none" stroke="#263238" stroke-linecap="round" stroke-linejoin="round" stroke-width="1"/>
        <path id="Trazado_892840" data-name="Trazado 892840" d="M61.437,64.135C59.421,63.668,58,63.352,58,63.352l.125-8.39c-5.134,1-12.058-4.976-12.058-4.976L44.222,61.849l-1.235.07L54.906,80.4Z" transform="translate(-9.53 -11.081)" fill="#fff"/>
        <path id="Trazado_892841" data-name="Trazado 892841" d="M61.437,64.135C59.421,63.668,58,63.352,58,63.352l.125-8.39c-5.134,1-12.058-4.976-12.058-4.976L44.222,61.849l-1.235.07L54.906,80.4Z" transform="translate(-9.53 -11.081)" fill="none" stroke="#263238" stroke-linecap="round" stroke-linejoin="round" stroke-width="1"/>
        <path id="Trazado_892842" data-name="Trazado 892842" d="M57.275,13.58s8.854,4.821,10.527,6.2,1.673,2.558,1.575,4.428.2,10.625-.394,14.363-6.493,8.166-8.362,9.248-5.608.689-6.788-.1-6.1-3.345-7.673-5.8S43.4,25.189,43.4,22.139s3.935-4.624,6.3-6.3,7.575-2.263,7.575-2.263" transform="translate(-9.622 -3.011)" fill="#fff"/>
        <path id="Trazado_892843" data-name="Trazado 892843" d="M57.275,13.58s8.854,4.821,10.527,6.2,1.673,2.558,1.575,4.428.2,10.625-.394,14.363-6.493,8.166-8.362,9.248-5.608.689-6.788-.1-6.1-3.345-7.673-5.8S43.4,25.189,43.4,22.139s3.935-4.624,6.3-6.3S57.275,13.58,57.275,13.58Z" transform="translate(-9.622 -3.011)" fill="none" stroke="#263238" stroke-linecap="round" stroke-linejoin="round" stroke-width="1"/>
        <path id="Trazado_892844" data-name="Trazado 892844" d="M59.795,34c0,.6-.33,1.083-.738,1.083S58.319,34.6,58.319,34s.33-1.081.738-1.081.738.484.738,1.081" transform="translate(-12.929 -7.298)" fill="#263238"/>
        <path id="Trazado_892845" data-name="Trazado 892845" d="M72.182,33.623c0,.6-.331,1.082-.738,1.082s-.738-.484-.738-1.082.33-1.082.738-1.082.738.484.738,1.082" transform="translate(-15.675 -7.214)" fill="#263238"/>
        <path id="Trazado_892846" data-name="Trazado 892846" d="M68.264,39.619s-.1,1.673-1.476,1.968" transform="translate(-14.807 -8.783)" fill="none" stroke="#263238" stroke-linecap="round" stroke-linejoin="round" stroke-width="1"/>
        <path id="Trazado_892847" data-name="Trazado 892847" d="M57.308,43.411s2.263,3.346,4.919,3.149" transform="translate(-12.705 -9.624)" fill="none" stroke="#263238" stroke-linecap="round" stroke-linejoin="round" stroke-width="1"/>
        <circle id="Elipse_11503" data-name="Elipse 11503" cx="5.313" cy="5.313" r="5.313" transform="translate(38.028 24.978) rotate(-31.717)" fill="none" stroke="#263238" stroke-linecap="round" stroke-linejoin="round" stroke-width="1"/>
        <path id="Trazado_892848" data-name="Trazado 892848" d="M78.235,32.8a5.312,5.312,0,1,0-5.313,5.313A5.313,5.313,0,0,0,78.235,32.8Z" transform="translate(-14.989 -6.093)" fill="none" stroke="#263238" stroke-linecap="round" stroke-linejoin="round" stroke-width="1"/>
        <path id="Trazado_892849" data-name="Trazado 892849" d="M55.159,26.546a6.021,6.021,0,0,1,4.821-.2" transform="translate(-12.228 -5.745)" fill="none" stroke="#263238" stroke-linecap="round" stroke-linejoin="round" stroke-width="1"/>
        <path id="Trazado_892850" data-name="Trazado 892850" d="M69.695,26.628s1.181-1.378,3.738-.492" transform="translate(-15.451 -5.728)" fill="none" stroke="#263238" stroke-linecap="round" stroke-linejoin="round" stroke-width="1"/>
        <line id="Línea_163" data-name="Línea 163" x1="3.05" y1="0.295" transform="translate(37.027 26.311)" fill="none" stroke="#263238" stroke-linecap="round" stroke-linejoin="round" stroke-width="1"/>
        <line id="Línea_164" data-name="Línea 164" x2="1.968" transform="translate(50.653 26.704)" fill="none" stroke="#263238" stroke-linecap="round" stroke-linejoin="round" stroke-width="1"/>
        <path id="Trazado_892851" data-name="Trazado 892851" d="M41.35,18.846s8.461-3.05,11.608-8.166,3.444-6.2-.2-8.657S41.35-.83,34.661,7.926s-6.493,18.1-6.493,24.693-4.232,19.189-4.232,19.189L40,50.878s.859-7.732,1.843-17.275-.492-14.757-.492-14.757" transform="translate(-5.306 -0.111)" fill="#263238"/>
        <path id="Trazado_892852" data-name="Trazado 892852" d="M41.35,18.846s8.461-3.05,11.608-8.166,3.444-6.2-.2-8.657S41.35-.83,34.661,7.926s-6.493,18.1-6.493,24.693-4.232,19.189-4.232,19.189L40,50.878s.859-7.732,1.843-17.275S41.35,18.846,41.35,18.846Z" transform="translate(-5.306 -0.111)" fill="none" stroke="#263238" stroke-linecap="round" stroke-linejoin="round" stroke-width="1"/>
        <path id="Trazado_892853" data-name="Trazado 892853" d="M99.737,57.145s1.36-4.351,1.9-4.759,2.175-.679,2.582.136a13.108,13.108,0,0,1,.68,2.855Z" transform="translate(-22.111 -11.527)" fill="#fff"/>
        <path id="Trazado_892854" data-name="Trazado 892854" d="M99.737,57.145s1.36-4.351,1.9-4.759,2.175-.679,2.582.136a13.108,13.108,0,0,1,.68,2.855Z" transform="translate(-22.111 -11.527)" fill="none" stroke="#263238" stroke-linecap="round" stroke-linejoin="round" stroke-width="1"/>
        <path id="Trazado_892855" data-name="Trazado 892855" d="M105.5,52.305s1.5-1.9,2.447-1.087.544,2.99.544,2.99l-2.311.952Z" transform="translate(-23.389 -11.31)" fill="none" stroke="#263238" stroke-linecap="round" stroke-linejoin="round" stroke-width="1"/>
        <path id="Trazado_892856" data-name="Trazado 892856" d="M108.646,51.111s2.039-.952,2.719-.408.679,2.175.679,2.175L109.19,54.1A5.87,5.87,0,0,0,108.646,51.111Z" transform="translate(-24.086 -11.203)" fill="none" stroke="#263238" stroke-linecap="round" stroke-linejoin="round" stroke-width="1"/>
        <path id="Trazado_892857" data-name="Trazado 892857" d="M112.14,50.538s1.223-1.223,1.9-.544a8.042,8.042,0,0,1,1.223,1.768l-2.448.952Z" transform="translate(-24.861 -11.038)" fill="none" stroke="#263238" stroke-linecap="round" stroke-linejoin="round" stroke-width="1"/>
        <line id="Línea_165" data-name="Línea 165" x2="0.272" y2="1.631" transform="translate(79.937 42.491)" fill="none" stroke="#263238" stroke-linecap="round" stroke-linejoin="round" stroke-width="1"/>
        <rect id="Rectángulo_402413" data-name="Rectángulo 402413" width="4.597" height="112.925" transform="translate(98.681 144.011)" fill="#263238"/>
        <rect id="Rectángulo_402414" data-name="Rectángulo 402414" width="4.597" height="112.925" transform="translate(98.681 144.011)" fill="none" stroke="#263238" stroke-linecap="round" stroke-linejoin="round" stroke-width="1"/>
        <rect id="Rectángulo_402415" data-name="Rectángulo 402415" width="46.867" height="2.817" transform="translate(77.546 255.929)" fill="#263238"/>
        <rect id="Rectángulo_402416" data-name="Rectángulo 402416" width="46.867" height="2.817" transform="translate(77.546 255.929)" fill="none" stroke="#263238" stroke-linecap="round" stroke-linejoin="round" stroke-width="1"/>
        <path id="Trazado_892858" data-name="Trazado 892858" d="M132.447,48.807V38.374H113.784v9.645c-6.054,2.256-14.809,5.906-21.68,10.338l9.049,32.613,1.319,12.631h39.213L143,90.97l9.049-32.613a113.813,113.813,0,0,0-19.606-9.55" transform="translate(-20.419 -8.507)" fill="#fffcef"/>
        <path id="Trazado_892859" data-name="Trazado 892859" d="M132.447,48.807V38.374H113.784v9.645c-6.054,2.256-14.809,5.906-21.68,10.338l9.049,32.613,1.319,12.631h39.213L143,90.97l9.049-32.613A113.813,113.813,0,0,0,132.447,48.807Z" transform="translate(-20.419 -8.507)" fill="none" stroke="#263238" stroke-linecap="round" stroke-linejoin="round" stroke-width="1"/>
        <line id="Línea_166" data-name="Línea 166" x2="54.859" transform="translate(74.136 59.086)" fill="none" stroke="#263238" stroke-linecap="round" stroke-linejoin="round" stroke-width="1"/>
        <line id="Línea_167" data-name="Línea 167" x2="41.851" transform="translate(80.734 82.274)" fill="none" stroke="#263238" stroke-linecap="round" stroke-linejoin="round" stroke-width="1"/>
        <path id="Trazado_892860" data-name="Trazado 892860" d="M151.025,138.771c-3.742-11.5-10.514-16.59-10.514-16.59H100.593s-6.772,5.09-10.514,16.59-2.851,38.835-2.851,38.835h66.649s.89-27.336-2.852-38.835" transform="translate(-19.317 -27.087)" fill="#fffcef"/>
        <path id="Trazado_892861" data-name="Trazado 892861" d="M151.025,138.771c-3.742-11.5-10.514-16.59-10.514-16.59H100.593s-6.772,5.09-10.514,16.59-2.851,38.835-2.851,38.835h66.649S154.767,150.27,151.025,138.771Z" transform="translate(-19.317 -27.087)" fill="none" stroke="#263238" stroke-linecap="round" stroke-linejoin="round" stroke-width="1"/>
        <path id="Trazado_892862" data-name="Trazado 892862" d="M123.07,100.555l.157,9.767-5.04-7.089s3.78-5.356,4.883-2.678" transform="translate(-26.201 -22.126)" fill="#263238"/>
        <path id="Trazado_892863" data-name="Trazado 892863" d="M123.07,100.555l.157,9.767-5.04-7.089S121.967,97.877,123.07,100.555Z" transform="translate(-26.201 -22.126)" fill="none" stroke="#263238" stroke-linecap="round" stroke-linejoin="round" stroke-width="1"/>
        <path id="Trazado_892864" data-name="Trazado 892864" d="M56.355,135.272s-.788,4.253,0,5.671,4.1,3.938,4.1,3.938L61.4,128.5s-3.938,4.253-5.041,6.774" transform="translate(-12.416 -28.487)" fill="#263238"/>
        <path id="Trazado_892865" data-name="Trazado 892865" d="M56.355,135.272s-.788,4.253,0,5.671,4.1,3.938,4.1,3.938L61.4,128.5S57.458,132.751,56.355,135.272Z" transform="translate(-12.416 -28.487)" fill="none" stroke="#263238" stroke-linecap="round" stroke-linejoin="round" stroke-width="1"/>
        <path id="Trazado_892866" data-name="Trazado 892866" d="M57.715,91.888l-1.26,26.15a17.8,17.8,0,0,1,11.184-4.883c7.089-.472,5.672,2.993,20.479-3.151s18.273-17.171,18.273-17.171,1.891-4.411,2.993-3.151l-3.5-38.918s-21.859,7.57-23.12,10.248S74.728,78.026,71.42,83.539a8.49,8.49,0,0,1-8.664,4.411Z" transform="translate(-12.516 -11.254)" fill="#ffe260"/>
        <path id="Trazado_892867" data-name="Trazado 892867" d="M57.715,91.888l-1.26,26.15a17.8,17.8,0,0,1,11.184-4.883c7.089-.472,5.672,2.993,20.479-3.151s18.273-17.171,18.273-17.171,1.891-4.411,2.993-3.151l-3.5-38.918s-21.859,7.57-23.12,10.248S74.728,78.026,71.42,83.539a8.49,8.49,0,0,1-8.664,4.411Z" transform="translate(-12.516 -11.254)" fill="none" stroke="#263238" stroke-linecap="round" stroke-linejoin="round" stroke-width="1"/>
        <line id="Línea_168" data-name="Línea 168" x2="0.63" y2="14.335" transform="translate(91.67 39.835)" fill="none" stroke="#263238" stroke-linecap="round" stroke-linejoin="round" stroke-width="1"/>
        <line id="Línea_169" data-name="Línea 169" x2="0.315" y2="23.945" transform="translate(89.622 43.615)" fill="none" stroke="#263238" stroke-linecap="round" stroke-linejoin="round" stroke-width="1"/>
        <path id="Trazado_892868" data-name="Trazado 892868" d="M12.655,66.837.575,114.642l12.935-6.8,5.845-21.08Z" transform="translate(-0.127 -14.817)" fill="#fff"/>
        <path id="Trazado_892869" data-name="Trazado 892869" d="M12.655,66.837.575,114.642l12.935-6.8,5.845-21.08Z" transform="translate(-0.127 -14.817)" fill="none" stroke="#263238" stroke-linecap="round" stroke-linejoin="round" stroke-width="1"/>
        <path id="Trazado_892870" data-name="Trazado 892870" d="M7.169,112.463s20.41-7.953,26.925-10.54a40.084,40.084,0,0,0,12.457-8.241c1.054-1.054,6.132.479,7.09.479s1.15,2.683,1.438,2.97-.479,1.342-1.533,2.108-3.641,3.737-4.6,3.928a13.644,13.644,0,0,1-3.545-.191c-.574-.1-.958,1.054-2.683,1.629a11.647,11.647,0,0,1-4.5.1s-22.038,15.618-25.2,17.63-7.761,4.025-9.87,2.875a4.647,4.647,0,0,1-2.587-4.7c.288-1.437,3.354-7.186,3.354-7.186" transform="translate(-0.111 -20.687)" fill="#fff"/>
        <path id="Trazado_892871" data-name="Trazado 892871" d="M7.169,112.463s20.41-7.953,26.925-10.54a40.084,40.084,0,0,0,12.457-8.241c1.054-1.054,6.132.479,7.09.479s1.15,2.683,1.438,2.97-.479,1.342-1.533,2.108-3.641,3.737-4.6,3.928a13.644,13.644,0,0,1-3.545-.191c-.574-.1-.958,1.054-2.683,1.629a11.647,11.647,0,0,1-4.5.1s-22.038,15.618-25.2,17.63-7.761,4.025-9.87,2.875a4.647,4.647,0,0,1-2.587-4.7c.288-1.437,3.354-7.186,3.354-7.186" transform="translate(-0.111 -20.687)" fill="none" stroke="#263238" stroke-linecap="round" stroke-linejoin="round" stroke-width="1"/>
        <line id="Línea_170" data-name="Línea 170" x2="6.803" y2="2.683" transform="translate(43.757 78.745)" fill="none" stroke="#263238" stroke-linecap="round" stroke-linejoin="round" stroke-width="1"/>
        <line id="Línea_171" data-name="Línea 171" x2="7.09" y2="3.832" transform="translate(45.386 75.583)" fill="none" stroke="#263238" stroke-linecap="round" stroke-linejoin="round" stroke-width="1"/>
        <path id="Trazado_892872" data-name="Trazado 892872" d="M60.9,94.773s5.461,2.2,5.845,2.779a4.025,4.025,0,0,1,.191,2.013" transform="translate(-13.501 -21.011)" fill="none" stroke="#263238" stroke-linecap="round" stroke-linejoin="round" stroke-width="1"/>
        <line id="Línea_172" data-name="Línea 172" x1="2.108" y1="0.383" transform="translate(43.182 81.907)" fill="none" stroke="#263238" stroke-linecap="round" stroke-linejoin="round" stroke-width="1"/>
      </g>
    </g>
  </g>
</svg>
