<svg xmlns="http://www.w3.org/2000/svg" xmlns:xlink="http://www.w3.org/1999/xlink" width="124" height="124" viewBox="0 0 124 124">
  <defs>
    <clipPath id="clip-path">
      <path id="path9129" d="M0-682.665H94v94H0Z" transform="translate(0 682.665)"/>
    </clipPath>
  </defs>
  <g id="Grupo_1102274" data-name="Grupo 1102274" transform="translate(-221.051 -11433)">
    <circle id="Elipse_11501" data-name="Elipse 11501" cx="62" cy="62" r="62" transform="translate(221.051 11433)" fill="#bdadea"/>
    <g id="g9123" transform="translate(236.051 12130.665)">
      <g id="g9125" transform="translate(0 -682.665)">
        <g id="g9127" clip-path="url(#clip-path)">
          <g id="g9133" transform="translate(22.945 14.435)">
            <path id="path9135" d="M-294.118-433.371a90.8,90.8,0,0,1-22.91,2.728,95.133,95.133,0,0,1-22.89-2.743,1.592,1.592,0,0,1-1.151-1.759l8.511-67.428h31.06l8.515,67.446a1.6,1.6,0,0,1-1.135,1.755" transform="translate(341.084 502.572)" fill="#ff9292"/>
          </g>
          <g id="g9137" transform="translate(33.662 14.435)">
            <path id="path9139" d="M-167.114,0a6.366,6.366,0,0,1-4.474,4.459,34.622,34.622,0,0,1-8.873,1.171,35.062,35.062,0,0,1-8.877-1.208A6.346,6.346,0,0,1-193.8,0Z" transform="translate(193.8)" fill="#ff6c6c"/>
          </g>
          <g id="g9141" transform="translate(21.568 13.059)">
            <path id="path9143" d="M-333.887-425.143a96.664,96.664,0,0,1-23.234-2.785,2.973,2.973,0,0,1-2.174-3.266l8.512-67.427a1.377,1.377,0,0,1,1.366-1.2h31.059a1.377,1.377,0,0,1,1.366,1.2l8.515,67.446a2.98,2.98,0,0,1-2.142,3.257A92.376,92.376,0,0,1-333.887-425.143ZM-348.2-497.071l-8.36,66.223a.227.227,0,0,0,.128.254,93.787,93.787,0,0,0,22.548,2.7,89.513,89.513,0,0,0,22.553-2.68.229.229,0,0,0,.125-.253l-8.363-66.242Z" transform="translate(359.319 499.825)"/>
          </g>
          <g id="g9145" transform="translate(50.876 12.77)">
            <path id="path9147" d="M-7.236,64.15A1.377,1.377,0,0,1-8.612,62.8L-10-8.6A1.377,1.377,0,0,1-8.65-10a1.377,1.377,0,0,1,1.4,1.35l1.387,71.4a1.377,1.377,0,0,1-1.35,1.4Z" transform="translate(10 10)"/>
          </g>
          <g id="g9149" transform="translate(38.985 12.77)">
            <path id="path9151" d="M-8.623-454.247H-8.65a1.377,1.377,0,0,1-1.35-1.4l1.387-71.378a1.377,1.377,0,0,1,1.4-1.35,1.377,1.377,0,0,1,1.35,1.4L-7.246-455.6A1.377,1.377,0,0,1-8.623-454.247Z" transform="translate(10 528.379)"/>
          </g>
          <g id="g9153" transform="translate(58.548 72.894)">
            <path id="path9155" d="M-7.843,3.537A1.377,1.377,0,0,1-9.215,2.259L-10-8.524A1.377,1.377,0,0,1-8.723-10,1.377,1.377,0,0,1-7.25-8.723L-6.469,2.06A1.377,1.377,0,0,1-7.743,3.533C-7.776,3.536-7.81,3.537-7.843,3.537Z" transform="translate(10 10)"/>
          </g>
          <g id="g9157" transform="translate(31.918 72.888)">
            <path id="path9159" d="M-8.622-74.7q-.05,0-.1,0A1.377,1.377,0,0,1-10-76.173l.78-10.771a1.377,1.377,0,0,1,1.473-1.274A1.377,1.377,0,0,1-6.47-86.745l-.78,10.771A1.377,1.377,0,0,1-8.622-74.7Z" transform="translate(10 88.222)"/>
          </g>
          <g id="g9161" transform="translate(63.855 71.555)">
            <path id="path9163" d="M-7.463,3.943A1.377,1.377,0,0,1-8.831,2.709L-9.993-8.481A1.377,1.377,0,0,1-8.766-9.993,1.377,1.377,0,0,1-7.254-8.766l1.163,11.19A1.377,1.377,0,0,1-7.319,3.936,1.394,1.394,0,0,1-7.463,3.943Z" transform="translate(10.001 10.001)"/>
          </g>
          <g id="g9165" transform="translate(26.23 71.881)">
            <path id="path9167" d="M-8.622-75.171a1.392,1.392,0,0,1-.144-.007A1.377,1.377,0,0,1-9.993-76.69l1.127-10.846a1.377,1.377,0,0,1,1.512-1.227,1.377,1.377,0,0,1,1.227,1.512L-7.254-76.406A1.377,1.377,0,0,1-8.622-75.171Z" transform="translate(10.001 88.771)"/>
          </g>
          <g id="g9169" transform="translate(45.623 13.258)">
            <path id="path9171" d="M-8.623,64.483A1.377,1.377,0,0,1-10,63.106V-8.623A1.377,1.377,0,0,1-8.623-10,1.377,1.377,0,0,1-7.246-8.623V63.106A1.377,1.377,0,0,1-8.623,64.483Z" transform="translate(10 10)"/>
          </g>
          <g id="g9173" transform="translate(1.752 12.37)">
            <path id="path9175" d="M-218.153,0l-7.067,1.466a17.214,17.214,0,0,0-12.836,11.416l-14.888,44.7a1.534,1.534,0,0,0,1.13,1.852l10.342,2.5a1.642,1.642,0,0,0,1.939-1.063l8.139-23.72V59.084a1.661,1.661,0,0,0,.772,1.4A20.039,20.039,0,0,0-219.8,63.243a1.657,1.657,0,0,0,1.644-1.657Z" transform="translate(252.988)" fill="#d8e477"/>
          </g>
          <g id="g9177" transform="translate(32.125 12.37)">
            <path id="path9179" d="M-27.95,0V61.586A1.658,1.658,0,0,1-29.6,63.244a24.968,24.968,0,0,1-2.818-.134,1.661,1.661,0,0,0,1-1.524V.718Z" transform="translate(32.413)" fill="#abd975"/>
          </g>
          <g id="g9181" transform="translate(0.374 48.149)">
            <path id="path9183" d="M-24.51,16.218A21.3,21.3,0,0,1-35.857,13.24a3.025,3.025,0,0,1-1.409-2.56V-2.993l-5.46,15.912a3.006,3.006,0,0,1-3.566,1.954l-10.342-2.5a2.891,2.891,0,0,1-1.8-1.313,2.892,2.892,0,0,1-.344-2.2l6.716-20.179a1.377,1.377,0,0,1,1.741-.871,1.377,1.377,0,0,1,.871,1.741L-56.133,9.616c.015-.039.076.061.147.078l10.342,2.5a.264.264,0,0,0,.313-.172l8.139-23.72a1.377,1.377,0,0,1,1.529-.911,1.377,1.377,0,0,1,1.15,1.358V10.681a.284.284,0,0,0,.136.238A18.7,18.7,0,0,0-24.3,13.463a.281.281,0,0,0,.279-.28V-4.546a1.377,1.377,0,0,1,1.377-1.377,1.377,1.377,0,0,1,1.377,1.377V13.183a3.043,3.043,0,0,1-3.01,3.034Z" transform="translate(58.86 12.625)"/>
          </g>
          <g id="g9185" transform="translate(9.108 10.993)">
            <path id="path9187" d="M-172.086-242.205a1.377,1.377,0,0,1-1.377-1.377v-35.827l-5.411,1.122a15.887,15.887,0,0,0-11.809,10.5l-6.2,18.611a1.377,1.377,0,0,1-1.741.871,1.377,1.377,0,0,1-.871-1.741l6.2-18.611a18.649,18.649,0,0,1,13.863-12.329l7.067-1.466a1.377,1.377,0,0,1,1.149.28,1.377,1.377,0,0,1,.508,1.068v37.519A1.377,1.377,0,0,1-172.086-242.205Z" transform="translate(199.565 282.478)"/>
          </g>
          <g id="g9189" transform="translate(21.969 30.636)">
            <path id="path9191" d="M-8.623-116.922A1.377,1.377,0,0,1-10-118.3v-17.513a1.377,1.377,0,0,1,1.377-1.377,1.377,1.377,0,0,1,1.377,1.377V-118.3A1.377,1.377,0,0,1-8.623-116.922Z" transform="translate(10 137.189)"/>
          </g>
          <g id="g9193" transform="translate(1.377 62.703)">
            <path id="path9195" d="M-35.981-33.139-40.5-34.348a1.657,1.657,0,0,1-1.172-2.029l.221-.825a1.657,1.657,0,0,1,2.029-1.172l4.517,1.209a1.657,1.657,0,0,1,1.172,2.029l-.221.825a1.657,1.657,0,0,1-2.029,1.172" transform="translate(41.727 38.431)" fill="#ff9292"/>
          </g>
          <g id="g9197" transform="translate(0 61.326)">
            <path id="path9199" d="M-44.174-40.328a3.04,3.04,0,0,1-.786-.1l-4.517-1.209a3.037,3.037,0,0,1-2.146-3.715l.221-.825a3.038,3.038,0,0,1,2.93-2.25,3.039,3.039,0,0,1,.786.1l4.517,1.209A3.038,3.038,0,0,1-41.024-43.4l-.221.825A3.038,3.038,0,0,1-44.174-40.328Zm-4.259-5.34a.284.284,0,0,0-.309.2l-.221.824a.28.28,0,0,0,.2.343l4.517,1.209.073.01a.28.28,0,0,0,.269-.208l.221-.825a.281.281,0,0,0-.2-.343L-48.4-45.667Z" transform="translate(51.726 48.431)"/>
          </g>
          <g id="g9201" transform="translate(57.412 12.37)">
            <path id="path9203" d="M0,0,7.067,1.466A17.214,17.214,0,0,1,19.9,12.882l14.888,44.7a1.534,1.534,0,0,1-1.13,1.852l-10.342,2.5a1.642,1.642,0,0,1-1.939-1.063l-8.139-23.72V59.084a1.661,1.661,0,0,1-.772,1.4A20.039,20.039,0,0,1,1.644,63.243,1.657,1.657,0,0,1,0,61.586Z" fill="#d8e477"/>
          </g>
          <g id="g9205" transform="translate(62.765 13.481)">
            <path id="path9207" d="M-177.29-365.26l-2.86.692a1.6,1.6,0,0,0,.33-1.407l-15.541-46.662A17.974,17.974,0,0,0-205.6-423.586l1.715.356a17.209,17.209,0,0,1,12.835,11.416l14.889,44.7a1.532,1.532,0,0,1-1.129,1.851" transform="translate(205.599 423.586)" fill="#abd975"/>
          </g>
          <g id="g9209" transform="translate(56.035 10.993)">
            <path id="path9211" d="M-88.253,34.925h-.229a3.043,3.043,0,0,1-3.009-3.034V-29.7a1.377,1.377,0,0,1,.508-1.068,1.377,1.377,0,0,1,1.149-.28l7.067,1.466a18.6,18.6,0,0,1,4.486,1.55,1.377,1.377,0,0,1,.621,1.845,1.377,1.377,0,0,1-1.845.621,15.841,15.841,0,0,0-3.821-1.321L-88.738-28V31.89a.281.281,0,0,0,.278.28,18.7,18.7,0,0,0,10.073-2.544.284.284,0,0,0,.136-.238V7.459A1.377,1.377,0,0,1-77.1,6.1a1.377,1.377,0,0,1,1.529.911l8.139,23.72a.264.264,0,0,0,.313.172l10.342-2.5a.176.176,0,0,0,.116-.189L-71.518-16.379a15.739,15.739,0,0,0-3.334-5.676A1.377,1.377,0,0,1-74.764-24a1.377,1.377,0,0,1,1.945.088,18.476,18.476,0,0,1,3.913,6.663l14.888,44.7a2.946,2.946,0,0,1-.313,2.312,2.891,2.891,0,0,1-1.8,1.313l-10.342,2.5a3.006,3.006,0,0,1-3.566-1.954L-75.5,15.714V29.388a3.025,3.025,0,0,1-1.409,2.56A21.3,21.3,0,0,1-88.253,34.925Z" transform="translate(91.492 31.073)"/>
          </g>
          <g id="g9213" transform="translate(69.276 30.636)">
            <path id="path9215" d="M-8.623-116.922A1.377,1.377,0,0,1-10-118.3v-17.513a1.377,1.377,0,0,1,1.377-1.377,1.377,1.377,0,0,1,1.377,1.377V-118.3A1.377,1.377,0,0,1-8.623-116.922Z" transform="translate(10 137.189)"/>
          </g>
          <g id="g9217" transform="translate(84.57 62.703)">
            <path id="path9219" d="M-14.445-33.139l4.517-1.209a1.657,1.657,0,0,0,1.172-2.029l-.221-.825a1.657,1.657,0,0,0-2.029-1.172l-4.517,1.209A1.657,1.657,0,0,0-16.7-35.136l.221.825a1.657,1.657,0,0,0,2.029,1.172" transform="translate(16.752 38.431)" fill="#ff9292"/>
          </g>
          <g id="g9221" transform="translate(83.193 61.326)">
            <path id="path9223" d="M-23.5-40.328a3.038,3.038,0,0,1-2.93-2.25l-.221-.824A3.038,3.038,0,0,1-24.5-47.118l4.517-1.209a3.039,3.039,0,0,1,.786-.1,3.038,3.038,0,0,1,2.93,2.25l.221.825a3.037,3.037,0,0,1-2.146,3.715l-4.517,1.209A3.039,3.039,0,0,1-23.5-40.328Zm4.3-5.348-4.59,1.219a.281.281,0,0,0-.2.343l.221.824a.28.28,0,0,0,.27.208.28.28,0,0,0,.073-.01l4.517-1.209a.28.28,0,0,0,.2-.343l-.221-.825A.28.28,0,0,0-19.2-45.677Z" transform="translate(26.751 48.431)"/>
          </g>
          <g id="g9225" transform="translate(35.63 7.634)">
            <path id="path9227" d="M-142.4-32.1a4.149,4.149,0,0,1-3.069,4.007,32.2,32.2,0,0,1-8.3,1.1,32.637,32.637,0,0,1-8.307-1.132,4.142,4.142,0,0,1-3.063-4.005v-3.5a1.591,1.591,0,0,1,1.591-1.591h19.556a1.591,1.591,0,0,1,1.591,1.591Z" transform="translate(165.137 37.229)" fill="#ffb2b2"/>
          </g>
          <g id="g9229" transform="translate(34.253 6.257)">
            <path id="path9231" d="M-162.391-34.246a34.22,34.22,0,0,1-8.663-1.179,5.525,5.525,0,0,1-4.084-5.335v-3.5a2.971,2.971,0,0,1,2.968-2.968h19.556a2.971,2.971,0,0,1,2.968,2.968v3.535a5.535,5.535,0,0,1-4.088,5.337A33.782,33.782,0,0,1-162.391-34.246Zm-9.778-10.229a.215.215,0,0,0-.214.214v3.5a2.767,2.767,0,0,0,2.042,2.675A31.428,31.428,0,0,0-162.391-37a30.986,30.986,0,0,0,7.942-1.048,2.776,2.776,0,0,0,2.05-2.678v-3.535a.215.215,0,0,0-.214-.214Z" transform="translate(175.137 47.229)"/>
          </g>
          <g id="g9233" transform="translate(45.624 6.977)">
            <path id="path9235" d="M-8.623,1.721A1.377,1.377,0,0,1-10,.344V-8.623A1.377,1.377,0,0,1-8.623-10,1.377,1.377,0,0,1-7.246-8.623V.344A1.377,1.377,0,0,1-8.623,1.721Z" transform="translate(10 10)"/>
          </g>
          <g id="g9237" transform="translate(39.533 6.977)">
            <path id="path9239" d="M-8.623,1.393A1.377,1.377,0,0,1-10,.016V-8.623A1.377,1.377,0,0,1-8.623-10,1.377,1.377,0,0,1-7.246-8.623V.016A1.377,1.377,0,0,1-8.623,1.393Z" transform="translate(10 10)"/>
          </g>
          <g id="g9241" transform="translate(51.712 6.977)">
            <path id="path9243" d="M-8.623,1.393A1.377,1.377,0,0,1-10,.016V-8.623A1.377,1.377,0,0,1-8.623-10,1.377,1.377,0,0,1-7.246-8.623V.016A1.377,1.377,0,0,1-8.623,1.393Z" transform="translate(10 10)"/>
          </g>
          <g id="g9245" transform="translate(27.549 22.655)">
            <path id="path9247" d="M-7.558-6.126a1.377,1.377,0,0,1-1-.428l-1.065-1.12a1.377,1.377,0,0,1,.048-1.947,1.377,1.377,0,0,1,1.947.048l.068.071.068-.071a1.377,1.377,0,0,1,1.947-.049,1.377,1.377,0,0,1,.049,1.947L-6.56-6.554A1.377,1.377,0,0,1-7.558-6.126Z" transform="translate(10 10)"/>
          </g>
          <g id="g9249" transform="translate(27.549 29.02)">
            <path id="path9251" d="M-7.558-6.127a1.377,1.377,0,0,1-1-.428l-1.065-1.12a1.377,1.377,0,0,1,.048-1.947,1.377,1.377,0,0,1,1.947.048l.068.071.068-.071a1.377,1.377,0,0,1,1.947-.048,1.377,1.377,0,0,1,.048,1.947L-6.56-6.554A1.377,1.377,0,0,1-7.558-6.127Z" transform="translate(10 10)"/>
          </g>
          <g id="g9253" transform="translate(27.549 35.385)">
            <path id="path9255" d="M-7.558-6.127a1.377,1.377,0,0,1-1-.428l-1.065-1.12a1.377,1.377,0,0,1,.048-1.947,1.377,1.377,0,0,1,1.947.048l.068.071.068-.071a1.377,1.377,0,0,1,1.947-.048,1.377,1.377,0,0,1,.048,1.947L-6.56-6.554A1.377,1.377,0,0,1-7.558-6.127Z" transform="translate(10 10)"/>
          </g>
          <g id="g9257" transform="translate(61.566 22.655)">
            <path id="path9259" d="M-7.558-6.126a1.377,1.377,0,0,1-1-.428l-1.065-1.12a1.377,1.377,0,0,1,.048-1.947,1.377,1.377,0,0,1,1.947.048l.068.071.068-.071a1.377,1.377,0,0,1,1.947-.049,1.377,1.377,0,0,1,.049,1.947L-6.56-6.554A1.377,1.377,0,0,1-7.558-6.126Z" transform="translate(10 10)"/>
          </g>
          <g id="g9261" transform="translate(61.566 29.02)">
            <path id="path9263" d="M-7.558-6.127a1.377,1.377,0,0,1-1-.428l-1.065-1.12a1.377,1.377,0,0,1,.048-1.947,1.377,1.377,0,0,1,1.947.048l.068.071.068-.071a1.377,1.377,0,0,1,1.947-.048,1.377,1.377,0,0,1,.048,1.947L-6.56-6.554A1.377,1.377,0,0,1-7.558-6.127Z" transform="translate(10 10)"/>
          </g>
          <g id="g9265" transform="translate(61.566 35.385)">
            <path id="path9267" d="M-7.558-6.127a1.377,1.377,0,0,1-1-.428l-1.065-1.12a1.377,1.377,0,0,1,.048-1.947,1.377,1.377,0,0,1,1.947.048l.068.071.068-.071a1.377,1.377,0,0,1,1.947-.048,1.377,1.377,0,0,1,.048,1.947L-6.56-6.554A1.377,1.377,0,0,1-7.558-6.127Z" transform="translate(10 10)"/>
          </g>
        </g>
      </g>
    </g>
  </g>
</svg>
