<svg xmlns="http://www.w3.org/2000/svg" width="85" height="85" viewBox="0 0 85 85">
  <g id="Grupo_1102285" data-name="Grupo 1102285" transform="translate(-221.051 -11432.949)">
    <circle id="Elipse_11501" data-name="Elipse 11501" cx="42.5" cy="42.5" r="42.5" transform="translate(221.051 11432.949)" fill="#bdadea"/>
    <g id="camisa" transform="translate(231.552 11443.444)">
      <g id="Grupo_1102511" data-name="Grupo 1102511" transform="translate(0.937 0.944)">
        <path id="Trazado_893272" data-name="Trazado 893272" d="M66.663,52.26s-.971-4.176-3.571-5.05a34.811,34.811,0,0,1-7.107-2.93H38.05a34.8,34.8,0,0,1-7.107,2.93,7.5,7.5,0,0,0-4.821,5.05l-8.959,31.4,4.617,3.979L31.6,66.594V91.711c.854,3.252,10.554,8.846,15.414,8.846,6.887,0,14.164-6.344,14.164-7.078V62.91l7.8,23,6.3.93Z" transform="translate(-15.956 -39.684)" fill="#eaacde"/>
        <g id="Grupo_1102510" data-name="Grupo 1102510" transform="translate(5.824 7.526)">
          <path id="Trazado_893273" data-name="Trazado 893273" d="M164.628,101.581c-.667,1.493-1.108,4.323-1.108,8.114,0,0,0,33.226,0,33.381,0,1.448-7.346,8.292-15.414,8.292s-15.414-6.844-15.414-8.292v-1.8c1.791,2.293,9.264,7.6,15.414,7.6s12.914-5.594,12.914-6.328v-26.4c0-5.588.369-9.6,2.753-14.941a.469.469,0,1,1,.856.382Z" transform="translate(-122.868 -96.77)" fill="#da8bc1"/>
          <path id="Trazado_893274" data-name="Trazado 893274" d="M389.427,72.769a7.5,7.5,0,0,0-4.821-5.05c1.007,1.006,1.819,3.29,2.321,5.05l9.867,34.578,1.592-3.181Z" transform="translate(-343.294 -67.719)" fill="#da8bc1"/>
          <path id="Trazado_893275" data-name="Trazado 893275" d="M54.1,188.866l3.271-1.728,6.552-19.314v-6.46q0-.72-.021-1.393Z" transform="translate(-54.101 -148.44)" fill="#da8bc1"/>
          <path id="Trazado_893276" data-name="Trazado 893276" d="M431.739,366.17l1.145,3.375,6.986-.891-2.554-4.076Z" transform="translate(-384.536 -327.473)" fill="#da8bc1"/>
        </g>
        <path id="Trazado_893277" data-name="Trazado 893277" d="M448.778,363.277l-1.135-3.976-2.312.66.72,2.522a.937.937,0,0,1-.644,1.159l-4.507,1.286.215.633a1.875,1.875,0,0,0,2.29,1.2l4.085-1.166A1.875,1.875,0,0,0,448.778,363.277Z" transform="translate(-386.727 -315.328)" fill="#d273b3"/>
        <path id="Trazado_893278" data-name="Trazado 893278" d="M9.588,362.619l6.113,3,.274-4.763-5.44-1.552-.947,3.318Z" transform="translate(-9.328 -315.328)" fill="#da8bc1"/>
        <path id="Trazado_893279" data-name="Trazado 893279" d="M13.331,374.148a.938.938,0,0,1-1.145.6l-4.419-1.261-.188.658a1.875,1.875,0,0,0,1.288,2.317l4.085,1.166a1.875,1.875,0,0,0,2.29-1.2l1.36-4.008-2.448-.7Z" transform="translate(-7.506 -326.196)" fill="#d273b3"/>
        <path id="Trazado_893280" data-name="Trazado 893280" d="M199.961,24.52l-1.346-1.37H184.241l-.9,2.62c-.674,2.125.74,4.991,3.115,7.725l5.821-4.065,2.706,3.891c4.87-3.322,5.743-6.4,4.98-8.8Z" transform="translate(-161.213 -21.195)" fill="#da8bc1"/>
        <path id="Trazado_893281" data-name="Trazado 893281" d="M209.437,63.23q.443.51.928,1.013a.938.938,0,0,0,1.443-.118l3.449-4.96-1.581-2.032Z" transform="translate(-184.196 -50.93)" fill="#d273b3"/>
        <path id="Trazado_893282" data-name="Trazado 893282" d="M283.883,25.77l-.9-2.62h-1.695l.471,1.37c.763,2.406-1.15,5.762-4.105,8.8l.744,1.069a.938.938,0,0,0,1.443.118c2.92-3.023,4.8-6.349,4.043-8.738Z" transform="translate(-243.886 -21.195)" fill="#d273b3"/>
        <path id="Trazado_893283" data-name="Trazado 893283" d="M212.41,8.32a20.709,20.709,0,0,0-6.456-.813c-3.259,0-5.846.424-7.15,1.112,0,2.318,7.15,5.748,7.15,5.748s8.864-3.43,6.456-6.048Z" transform="translate(-174.892 -7.507)" fill="#da8bc1"/>
        <path id="Trazado_893284" data-name="Trazado 893284" d="M207.511,15.151c-.153-.443-.707-.832-1.578-1.143-.116,2.044-6.456,4.8-6.456,4.8s-5.03-2.426-7.15-4.5a1.7,1.7,0,0,0-.884.843c-.71,2.064,8.034,6.28,8.034,6.28S208.221,17.214,207.511,15.151Z" transform="translate(-168.415 -13.195)" fill="#d273b3"/>
      </g>
      <g id="Grupo_1102512" data-name="Grupo 1102512" transform="translate(-0.002 0.006)">
        <path id="Trazado_893285" data-name="Trazado 893285" d="M32,64a21.292,21.292,0,0,1-11.251-3.76c-2.456-1.633-5.1-4.042-5.1-5.469v-2.05a.937.937,0,1,1,1.875,0v1.994c.167.483,1.647,2.28,4.544,4.148A19.29,19.29,0,0,0,32,62.129a19.29,19.29,0,0,0,9.932-3.262c2.9-1.868,4.378-3.665,4.544-4.148V42.114a.937.937,0,0,1,1.875,0V54.775c0,.238,0,.963-1.536,2.557a22.057,22.057,0,0,1-3.564,2.912A21.289,21.289,0,0,1,32,64Zm0-8.346a1,1,0,1,1,1-1A1,1,0,0,1,32,55.658ZM6.9,53.386a2.817,2.817,0,0,1-.775-.109L2.04,52.112A2.812,2.812,0,0,1,.108,48.636l9.1-31.9a.937.937,0,1,1,1.8.514L3.3,44.272l6.129,1.749L15.647,27.7V21.394a21.749,21.749,0,0,0-1.027-7.731.937.937,0,0,1,1.712-.765c.768,1.719,1.19,4.736,1.19,8.5v6.438c0,.014,0,.029,0,.044v21.1a.937.937,0,0,1-1.875,0V33.535L9.561,51.476A2.811,2.811,0,0,1,6.9,53.386ZM2.788,46.075,1.911,49.15a.937.937,0,0,0,.644,1.159L6.64,51.474a.936.936,0,0,0,1.145-.6L8.828,47.8ZM57.1,53.386a2.81,2.81,0,0,1-2.661-1.91L48.35,33.535v5.227a.937.937,0,0,1-1.875,0V27.876c0-.015,0-.029,0-.044V21.394c0-3.76.423-6.777,1.19-8.5a.937.937,0,0,1,1.712.765,21.748,21.748,0,0,0-1.027,7.731V27.7l6.216,18.322,6.129-1.749-8.7-30.495a6.56,6.56,0,0,0-4.218-4.419.937.937,0,1,1,.6-1.777A8.434,8.434,0,0,1,53.8,13.263L63.889,48.635a2.812,2.812,0,0,1-1.933,3.476l-4.085,1.166a2.808,2.808,0,0,1-.775.109ZM55.169,47.8l1.043,3.075a.937.937,0,0,0,1.145.6l4.085-1.166a.937.937,0,0,0,.644-1.159l-.877-3.075ZM32,46.283a1,1,0,1,1,1-1A1,1,0,0,1,32,46.283Zm0-9.375a1,1,0,1,1,1-1A1,1,0,0,1,32,36.908Zm0-9.375a1,1,0,1,1,1-1A1,1,0,0,1,32,27.534Zm0-9.375a1,1,0,1,1,1-1A1,1,0,0,1,32,18.159ZM27.776,15.48a1.866,1.866,0,0,1-1.345-.571c-1.682-1.741-4.184-4.786-4.455-7.72a54.872,54.872,0,0,1-5.754,2.17A6.56,6.56,0,0,0,12,13.777a.937.937,0,0,1-1.8-.515,8.434,8.434,0,0,1,5.423-5.682A37.732,37.732,0,0,0,22.282,4.9l.8-2.311C23.881.258,29.584.006,32,.006S40.117.263,40.921,2.6L41.714,4.9a19.418,19.418,0,0,0,3.072,1.418.938.938,0,0,1-.669,1.751c-.807-.308-1.5-.6-2.1-.884-.272,2.933-2.774,5.978-4.455,7.718a1.875,1.875,0,0,1-2.887-.234L32,10.821l-2.68,3.853a1.87,1.87,0,0,1-1.39.8c-.051,0-.1.006-.152.006ZM23.953,5.812c-.567,1.813.863,4.726,3.827,7.794l2.833-4.075c-.847-.439-2.129-1.131-3.395-1.923a17.653,17.653,0,0,1-3.085-2.318Zm9.432,3.718L36.217,13.6c2.964-3.066,4.393-5.978,3.827-7.792l-.18-.523a17.648,17.648,0,0,1-3.085,2.318C35.514,8.4,34.231,9.092,33.385,9.531ZM24.868,3.177c.055.176.482,1.093,3.649,3.03,1.4.858,2.809,1.587,3.481,1.926.672-.339,2.079-1.068,3.481-1.926,3.179-1.944,3.6-2.861,3.649-3.032C38.818,2.712,36.484,1.881,32,1.881c-4.47,0-6.8.825-7.13,1.3Z" transform="translate(0.002 -0.006)"/>
      </g>
    </g>
  </g>
</svg>
