<svg xmlns="http://www.w3.org/2000/svg" width="505" height="364" viewBox="0 0 505 364">
  <g id="Grupo_1102580" data-name="Grupo 1102580" transform="translate(-915.051 -11294)">
    <path id="Trazado_894380" data-name="Trazado 894380" d="M20,0H485a20,20,0,0,1,20,20V344a20,20,0,0,1-20,20H20A20,20,0,0,1,0,344V20A20,20,0,0,1,20,0Z" transform="translate(915.051 11294)" fill="#e4def6" opacity="0.8"/>
    <path id="Imagen_1_upscayl_4x_digital-art-4x" data-name="Imagen 1_upscayl_4x_digital-art-4x" d="M20,0H425a20,20,0,0,1,20,20V293a20,20,0,0,1-20,20H20A20,20,0,0,1,0,293V20A20,20,0,0,1,20,0Z" transform="translate(945.051 11320)" fill="#fff" opacity="0.8"/>
    <path id="Trazado_893483" data-name="Trazado 893483" d="M527.686,86.431a5.974,5.974,0,0,0,2.071.887c0,.226-1.138.728-1.48.888-3.9.55-7.659,1.921-11.471,2.879-5.061,1.272-10.188,2.619-15.159,3.924-.42.11-.81.276-.888.3a44.359,44.359,0,0,0-5.028,1.183c-.173-1.02.176-1.239.886-1.774a4.875,4.875,0,0,0,2.367-.887c.14-.066.5-.12.887-.3a15.49,15.49,0,0,0,3.255-1.183,37.63,37.63,0,0,0,5.327-2.07c4.828-1.608,9.636-3.378,14.36-5.323,1.671.156,3.243.991,4.872,1.477" transform="translate(788.509 11305.743)" fill="#fff" opacity="0.8"/>
    <path id="Trazado_893484" data-name="Trazado 893484" d="M195.075,80.886c8.058-11.059,15.477-30.3,17.142-43.945.065-.534.008-1.075.02-1.607,3.031.484,6.032,1.177,9.047,1.751.7.134,1.594-.111,2.2.465-4.149,6.143-7.7,12.616-11.487,18.984-5.5,9.26-10.77,18.747-17.38,27.291a30.377,30.377,0,0,1-3.088,3.568c.144-.279.165-.861.3-1.183a19.545,19.545,0,0,0,3.255-5.325" transform="translate(896.838 11323.416)" fill="#fff" opacity="0.8"/>
    <path id="Trazado_893485" data-name="Trazado 893485" d="M531.083,89.828c.617-.086,1.411-.29,1.926-.316,1.234-.061,6.507,2.187,7.751,2.92.308.182.52-.053.382.65l-4.862.316c-10.435,1.263-20.9,2.85-31.375,3.834-.362.034-1.248.165-1.34-.3.444.224.838-.286.887-.295,6.375-1.286,12.582-2.933,18.868-4.654,2.552-.7,5.389-1.044,7.761-2.15" transform="translate(785.703 11304.12)" fill="#fff" opacity="0.8"/>
    <path id="Trazado_893486" data-name="Trazado 893486" d="M57.57,195.138c-.057-.046-.118-.272-.3-.428-.409-.347-1.885-.894-1.753-1.465L66,180.055l12.563,8.452-.025.519c-3.11,4.118-6.323,8.114-9.269,12.351-.142.2-.131.5-.175.557-.341.429-3.8-2.273-4.33-2.6-1.287-.8-2.631-1.448-3.941-2.124a18,18,0,0,0-3.255-2.071" transform="translate(945.281 11271.872)" fill="#fff" opacity="0.8"/>
    <path id="Trazado_893487" data-name="Trazado 893487" d="M269.588,21.654a13.767,13.767,0,0,0,2.517-1.472c1.4,2.051,3.157,4.107,4.412,6.23.135.228.668.988.469,1.156-.113.1-1.7.661-2.167.942-.979.583-4.172,3.129-5.034,2.878-.644-.87-5.99-3.816-6.114-4.266-.174-.632,1.937-1.932,2.374-2.354.36-.348.591-.732.881-1.043.8.036,1.055-.726,1.48-1.183a2.433,2.433,0,0,0,.588-.146c.341-.192.408-.534.6-.742" transform="translate(871.147 11328.813)" fill="#fff" opacity="0.8"/>
    <path id="Trazado_893488" data-name="Trazado 893488" d="M32.787,179.027c-.37-.343-1.243-.975-1.167-1.3l9.3-14.669,15.538,10.207L46.08,186.7c-2.04-.274-3.594-2.419-5.6-2.937-.077-.073-.092-.323-.29-.449-.238-.153-.455-.088-.6-.142-.749-.714-.628-.516-1.48-.887a21.668,21.668,0,0,0-5.326-3.254" transform="translate(953.791 11277.927)" fill="#fff" opacity="0.8"/>
    <path id="Trazado_893489" data-name="Trazado 893489" d="M70.66,211.752c.134.1.714.014.887.444.082.2-.416.225-.591.147-.085-.037-.2-.549-.3-.592" transform="translate(939.885 11260.583)" fill="#fff" opacity="0.8"/>
    <path id="Trazado_893490" data-name="Trazado 893490" d="M191.065,116.488c.029-.019.286-.277.3-.3-.1.091-.192.2-.3.3" transform="translate(897.002 11294.617)" fill="#fff" opacity="0.8"/>
    <path id="Trazado_893491" data-name="Trazado 893491" d="M245.368,130.261c0,.033-.236.153-.3.3-1.61,1.4-3.549,3.447-5.03,5.029a3.907,3.907,0,0,1-1.183.294c.492-.794.412-4.265.94-4.68.186-.147,4.041-1.08,4.6-1.169.275-.044,1.019-.254.97.231" transform="translate(879.98 11289.719)" fill="#fff" opacity="0.8"/>
    <path id="Trazado_893492" data-name="Trazado 893492" d="M239.3,123.882c1.637-1.317,4.914-1.533,7.105-2.214,1.326-.413,2.545-1,3.838-1.487l32.4-8.143c3.927.751,7.669,2.81,11.393,4.3,1.289.516,9.432,3.3,9.735,3.725.255.357-1.3,7.512-1.532,8.616-2.868,13.858-7.188,27.784-5.558,42.1.655,5.75,2.308,9.029,6.232,13.145.108.139.252.235.3.3a1.1,1.1,0,0,0,.3.3c.061.044.153.187.3.3,4.665,4.3,8.7,5.507,14.651,7.39.324.1,1.076.179,1.03.6l-97.642-.591a16,16,0,0,1,.328-2.778c3.264-19.538,7.144-38.988,10.393-58.531.171-.811.849-1.1,1.411-1.7a11.466,11.466,0,0,0,5.03-5.029c.136-.117.28-.283.3-.3" transform="translate(886.051 11296.097)" fill="#fff" opacity="0.8"/>
    <path id="Trazado_893493" data-name="Trazado 893493" d="M521.193,79.025c.145.088.247.339.575.461a4.587,4.587,0,0,0,.9.131c0,.322-.865.59-1.186.737-4.232,1.919-8.778,3.285-13.016,5.179a39.9,39.9,0,0,0-5.326,2.071,19.9,19.9,0,0,0-3.255,1.183c-.365.1-.72.25-.888.3a4.811,4.811,0,0,0-2.367.888c-.551.034-.938.223-.9-.451.027-.449.243-.805.288-1.194a44.455,44.455,0,0,1,3.126-11.96,40.136,40.136,0,0,0,2.065-4.443c.393-.592,1.143-.115,1.709.075,5.9,1.983,12.3,5.669,18.268,7.028" transform="translate(788.493 11310.486)" fill="#fff" opacity="0.8"/>
    <path id="Trazado_893494" data-name="Trazado 893494" d="M190.594,116.643c.048-.049.225.046.3,0-.013.012.037.293-.148.293-.108,0-.212-.228-.148-.293" transform="translate(897.177 11294.462)" fill="#fff" opacity="0.8"/>
    <path id="Trazado_893495" data-name="Trazado 893495" d="M210.816,93.025c.066-.114-.064-.455,0-.592.031-.066.221-.155.3-.3.153-.127.436-.175.592-.3-.34.481-.546.737-.888,1.183" transform="translate(889.974 11303.29)" fill="#161615" opacity="0.8"/>
    <path id="Trazado_893496" data-name="Trazado 893496" d="M348.071,223.993c-.043-.061-.188-.156-.3-.3.094.1.2.2.3.3" transform="translate(841.189 11256.329)" fill="#161615" opacity="0.8"/>
    <path id="Trazado_893497" data-name="Trazado 893497" d="M271.948,96.864a2.584,2.584,0,0,1,.155-.591c.111-.218.343-.217.436-.3-.138.288-.016.762-.591.887" transform="translate(868.195 11301.817)" fill="#161615" opacity="0.8"/>
    <path id="Trazado_893498" data-name="Trazado 893498" d="M253.489,25.351c-.014.011.064.16-.178.308-.556.341-4.27,1.554-4.258,1.91s3.773,4.672,3.871,5.745l7.371-1.456a2.072,2.072,0,0,0-.129-.905,60.235,60.235,0,0,0-2.228-6.659c-.511-.386-3.549,1.157-4.449,1.058a.278.278,0,0,1,.172-.312c.617-.33,4.509-1.545,4.843-1.152l2.138,7.475c.365.936.856.2.984.2h10.208l-1.185,28.4c-.514.07-.287-.677-.294-1.033-.029-1.463-.062-2.987-.008-4.446.167-4.6.736-9.295.9-13.886.1-2.8-.079-5.626-.024-8.423a38.99,38.99,0,0,0-10.34-.014c1.926,6.847,4.419,13.566,6.366,20.4A21.914,21.914,0,0,1,268.282,57c-.417.07-.417-.514-.508-.82a12.182,12.182,0,0,0-.9-2.654L260.59,32.154c-1.3.529-6.285.809-7.1,1.481-.218.18,2.832,4.287,3.13,4.708,1.259,1.778,2.676,3.466,3.921,5.249A51.186,51.186,0,0,1,264.2,49.1a1.176,1.176,0,0,1,.206.9c-.145.522-5.908,4.122-6.866,4.7a3.776,3.776,0,0,1-.8.234c-.034.027.263.488.287.742.2,2.2-1.1,3.577-3.338,3.044-.493-.117-.882-.717-1.373-.4-2.071,1.671-4.4,3.107-6.374,4.89-.357.323-3.358,3.339-3.106,3.549.549.456,9.5-3.266,10.894-3.6a2.511,2.511,0,0,1,4.108-1.463l10.43-2.935.016-1.463c.573-.026.681,1.7.587,1.769l-10.649,2.964c2.331,3.815-3.853,6.135-4.439,1.773-2.743.614-5.343,1.884-8.055,2.744-1.244.395-2.529.628-3.789.956-.273.071-1.066.355-.582.737.065.052.894-.043,1.275.057,2.671.7,4.959,3.022,7.9,1.421-.282-.422-.225-1.993-.3-2.067a26.54,26.54,0,0,0-4-.305l-2.8.748c1.369-1.321,3.68-1.173,5.483-1.047.361.025,1.234.392,1.317.306.285-.292.026-1.416,1.393-1.716,2.612-.574,4.016.924,3.643,3.491l2.218-.591h5.178c.069.516-.675.288-1.035.3-.876.017-1.821-.077-2.673-.008-2.64.212-4.877,1.632-7.1,1.5-1.037-.063-2.293-.737-3.1.581l41.715,15.981c-2.026,12.342-5.784,24.346-7.115,36.8-1.158,10.829-1.216,18.544,5.64,27.379-3.924-4.115-5.577-7.4-6.232-13.145-1.631-14.32,2.689-28.246,5.558-42.1.229-1.1,1.787-8.259,1.532-8.616-.3-.424-8.446-3.208-9.735-3.725-3.725-1.492-7.466-3.551-11.393-4.3l-32.4,8.143c-1.293.487-2.512,1.075-3.838,1.487-2.192.681-5.469.9-7.105,2.214.048-.485-.695-.274-.97-.231-.559.089-4.414,1.022-4.6,1.169-.527.415-.447,3.887-.94,4.681a3.914,3.914,0,0,0,1.184-.295c-.562.6-1.24.885-1.411,1.7-3.249,19.543-7.13,38.993-10.393,58.531a16.006,16.006,0,0,0-.329,2.778l97.643.59c.046-.416-.706-.493-1.03-.595-5.947-1.883-9.987-3.094-14.651-7.39a44.97,44.97,0,0,0,17.328,7.671l5.158.314,1.489,11.379c1.24,16.556,3.048,33.1,4.743,49.685.254,2.486.756,5.216.878,7.7.07,1.418-.052,2.865-.024,4.282l-74.123,14.49c-15.523-.359-31.267.684-46.722-.285a15.909,15.909,0,0,0-2.819.008v9.17a.993.993,0,0,1-.3,0V224.423l.592.44-.3,22.041h7.989l.294-65.371-7.692,42.6c-.379,0-.8.12-1.039-.294a31.036,31.036,0,0,1-1.008-4.612c-.733-4.1-1.2-8.311-1.782-12.418-4.044-28.8-7.547-57.645-9.182-86.659-.18-3.188-.538-6.545-.614-9.739-.074-3.143.054-6.3.046-9.446l.46-.428c3.537-1.069,7.246-1.7,10.755-2.855.432-.142.887-.185,1.179-.6l-12.426-7.841c-.122-.459.125-.489.3-.734,1.53-2.157,3.444-4.043,4.732-6.362-.064.066.04.293.148.293.185,0,.135-.281.148-.293.1-.1.2-.2.3-.3a30.5,30.5,0,0,0,3.088-3.569c6.61-8.543,11.878-18.031,17.38-27.291,3.783-6.368,7.338-12.84,11.487-18.983-.6-.577-1.491-.332-2.2-.466-3.014-.574-6.015-1.268-9.047-1.751-.012.533.045,1.073-.02,1.607C207.422,45.038,200,64.283,191.945,75.341c2.143-4.528,4.987-8.74,7.159-13.4a101.335,101.335,0,0,0,9.423-31.4c.154-1.208.469-1.152,1.592-1.024l10.5,2.038,5.352-8.715c.521-.581.935-1.044,1.77-.589l6.408,4.263c.487.112,3.014-2.956,3.953-2.935-.29.311-.521.695-.881,1.043-.437.422-2.548,1.722-2.373,2.355.124.449,5.469,3.395,6.114,4.265.862.251,4.055-2.3,5.034-2.877.472-.281,2.055-.847,2.167-.942.2-.168-.334-.929-.469-1.157-1.254-2.123-3.015-4.179-4.412-6.23a13.768,13.768,0,0,1-2.517,1.472c.6-.661,2.027-2.14,2.964-1.64.808.745,4.72,7.176,5.162,7.211.78.062,3.466-1.91,4.6-1.726m-31.365,6.507c.047.042.71-.026,1.009.024,1.055.176,3.636,1.057,4.419.823a31.562,31.562,0,0,0,3.146-3.072c.429-.406,2.553-1.734,2.375-2.355a47.876,47.876,0,0,0-5.054-3.53c-.282-.157-.679-.53-.988-.458-.541.126-3.881,6.6-4.675,7.468a1.686,1.686,0,0,0-.232,1.1m5.919,1.183c2.615-.211,5.337.908,7.861,1.163a4.65,4.65,0,0,0,1.165.025,17.144,17.144,0,0,0,3.1-2.222c0-.395-5.785-3.8-6.617-4.262-1.853,1.753-3.947,3.254-5.511,5.3m20.031-5.287-6.418,3.956,5,3.265,5.651-1.484c.472-.382.2-.292,0-.6-.485-.747-3.357-5.042-3.747-5.15a.971.971,0,0,0-.486.01M201.118,66.467a2.071,2.071,0,0,0-.3.3c-.282.325-.2.425-.3.592-.108.1-.2.2-.3.3-1,.991-.236,1.02,0,.592-1.34,1.78-2.691,3.736-3.9,5.718l-2.17,2.857c1.789-1.941,3.866-3.651,5.631-5.61,1.7-1.886,3.02-3.774,4.874-5.628-.062.12.018.426-.145.584l-2.515,2.819,1.476-.741c-1.563,1.536-3.045,3.22-4.578,4.741-5.113,5.071-10.312,10.042-14.652,15.817,4.176,2.691,8.261,5.534,12.563,8.021,7.281-1.666,14.486-3.662,21.707-5.556a13.856,13.856,0,0,0,.568-1.948c1.815-8.706,2.844-17.739,4.591-26.468a46.315,46.315,0,0,1,1.39-5.71c1.941-5.712,6.93-10.746,10.662-15.37-.216-.433-.714.062-.976.207-1.067.592-2.107,1.169-3.166,1.716,2.311-1.7,4.9-2.914,6.806-5.177.854-1.011,1.478-2.264,2.366-3.255l-2.813-.464a4.885,4.885,0,0,0-1.625.317c.048-.178.108-.635-.176-.592-2.412.1-7.264-1.891-9.292-.887.069-.222.132-.5-.193-.587-.881-.236-4.32-1.037-4.94-.853a1.049,1.049,0,0,0-.5.4C215.6,41.219,210.783,50.327,205.5,59.167c-1.463,2.45-3.048,4.776-4.385,7.3m40.809-33.4c-.046-.039-1.012-.563-1.07-.582-.534-.168-2.707,1.395-3.05,2.036.986-.268,2.185.519,3.06.256.467-.14,1.465-1.367,1.06-1.71m1.8,31.331c2.44-1.471,5.587-4.467,8.017-6.346.182-.141.476-.124.551-.187.151-.129-1.09-2.427.612-3.665a2.9,2.9,0,0,1,2.2-.444c.72.1,1.425.936,1.75.864.214-.048.52-.521.793-.705.914-.616,6.046-3.616,6.17-4.2.18-.839-7.3-10.754-8.386-12.264-.447-.623-1.894-3.157-2.231-3.388-1.082-.742-4.311,1.033-5.633,1.046-.121.545.17.577.493.838,2.492,2.02,5.971,3.449,8.235,5.374,1.437,1.221.995,1.418-.014,2.943-.809,1.223-5.513,6.417-5.414,7.216.048.389.534.777.568,1.524a2.684,2.684,0,0,1-2.291,2.74c-.516.031-1.518-.589-1.563-.52a2.064,2.064,0,0,1-.174.565c-1.721,2.544-3.535,5.29-5.112,7.917-.262.437-2.28,3.779-2.124,3.939.535.551.6-.5.639-.527.251-.162.753,0,1.3-.343.623-.386,1.156-1.491,1.61-2.087.01-.013.294.039.294-.148,0-.108-.228-.212-.294-.147m-2.96,0c.545-1.074,1.193-2.339,1.829-3.348.948-1.5,3.513-4.695,3.971-6.11.247-.763-.761-2.364.272-3.551.829-.951,2.065-.28,2.968-.878l6.027-7.6c.2-.895-4.45-3.259-5.287-3.817-1.108-.738-6.552-4.876-7.269-4.874-.511,0-1.3.939-1.03,1.19.057.053,1.138-.007,1.563.066.249.042.887.154.8.525-.886.133-2.194-.69-2.969-.156-.115.079-1.558,2.073-1.628,2.244-.37.9.56.173-.582,1.156-3.508,3.019-11.189,13.021-12.925,17.26-.364.889-1.6,4.686-1.4,5.35a.676.676,0,0,0,.475.425c4.133,1.063,8.4,3.412,12.509,4.354,1.143.262,1.457.032,1.783-1.208.249-.948.164-2.29.324-3.224.5-2.918,1.059-5.869,1.758-8.744-3.389-.578-2.6-5.265.87-5.045l1.8-11.072-.154-.744a14.808,14.808,0,0,1-3.388,1.937c-.291.111-.956.395-.9-.162a15.143,15.143,0,0,0,2.965-1.326c.39-.212,2.165-1.547,2.36-1.337-.588,2.389-1.08,4.832-1.46,7.265-.167,1.073-.149,2.411-.338,3.508-.075.438-.651,2.156-.57,2.239.193.2,1.225-.009,1.613,1.193.63,1.951-.276,3.3-2.211,3.683a55.2,55.2,0,0,0-2.045,9.788c-.041.317-.238,1.088.275,1.015m2.664-13.9c-.4-.35-2.038-.418-1.774.44.324,1.057,2.388.093,1.774-.44m.251,2.024c.039-.054.319-.721.2-.839a2.452,2.452,0,0,1-2.071.593c-.5-.077-.682-.61-1.035-.449.389.547.29.851,1.093.976.439.068,1.59.044,1.818-.281m6.85-.25c-.116-.137-.625-.261-.517.386a1.948,1.948,0,0,1-.229,1.679c-.362.552-.975.388-1.028.892a1.808,1.808,0,0,0,1.765-1.636,6.774,6.774,0,0,0,.009-1.321m-1.33,1.185a3.057,3.057,0,0,0-.442.442c0,.415.857-.446.442-.442m6.361,1.183c-1.8-.809-3.588.837-2.5,2.646.238.395,1.358,1.49,1.611.607-1.538.159-2.068-2.217-.691-2.617.682-.2,1.807.378,1.58-.637m-1.182,2.66c1.957-.978-.075-2.064-.3-1.025-.064.295.4.641.3,1.025m2.365,4.735c-.513-.393-1.81.017-1.478.293.151.124,1.906.035,1.478-.293M229.818,83.623c1.177-2.841,2.387-5.972,3.336-8.941.874-2.736,1.449-5.585,2.268-8.338-.085-.235-.267-.319-.476-.419-.822-.392-2.309-.816-3.273-1.165a65.6,65.6,0,0,0-6.885-2.139l-5.027,28.251,6.744-1.687c.663-1.317,1.393-2.651,2.174-3.9.192-.308.467-.375.547-.475-.089.211-.05.565-.231.79l-1.989,3.644c.9-.817,5.8-1.143,6.234-1.753.327-.462.055-2.586.148-3.4a64.827,64.827,0,0,1,3.474-12.5c.294-.688,2.127-3.855,2.125-4.085,0-.409-3.145-1.172-3.251-1.035-.133.17-.782,3.54-.967,4.211a53.424,53.424,0,0,1-4.951,12.946m27.221-20.7c-.227-.235-1.765.438-1.772.738-.009.39,1.3.614,1.463.43a4.133,4.133,0,0,0,.309-1.169M254.674,64.1c-.479.507,1.259,1.489,1.876,1.421a1.819,1.819,0,0,0,1.376-1.716c-.616.194-.972,1.189-1.62,1.191-.579,0-1.548-.984-1.632-.9m-1.183,5.325a1.685,1.685,0,0,0,.146-2.957c-.484.466.447.784.453,1.326.006.587-.709,1-.6,1.632m-.594-.592c.172-.174.053-2.008-.737-1.774-.521.154-.563,1.657-.445,1.774a5.622,5.622,0,0,0,1.182,0m-11.835-.3c-.2-.056-.643-.81-1.181-.592l-2.664,5.916a16.237,16.237,0,0,0,1.91-2.378c.417-.61.331-1.438,1.048-1.763a1.976,1.976,0,0,0-.149.885l2.22-1.921c-.175-.348-.865-.058-1.183-.147m-2.367,5.62a22.2,22.2,0,0,0-1.615,1.787c-.974,1.355-2.3,6.659-2.508,8.437-.124,1.039.227,2.14-.316,3.085l34.026-8.578L266,77.775l-18-6.858c-1.643-.2-5.54.973-7.032,1.815-.8.452-1.429,1.254-2.273,1.425a7.666,7.666,0,0,1,2.754-2.128l5.53-1.716c-.935.229-3.744-1.566-4.252-1.453-.093.021-1.293.964-1.518,1.155a21.091,21.091,0,0,0-3.7,4.587ZM218.278,92.5l-34.336,9.051c.079,2.257-.055,4.525.006,6.782.905,33.7,5.551,67.984,10.087,101.432.341,2.52.883,5.032,1.167,7.56l.6-3.387c.311-34.413.1-68.871.883-103.238.073-3.2-.071-6.422-.01-9.623,5.923.034,12.549.032,18.129-2.138a9.282,9.282,0,0,0,2.733-1.409,18.475,18.475,0,0,0,.737-5.03m-13.018,9.021c-.312,1.186.228,3.538,0,4.881l-.572-3.125c-.129-.392.089-1.8-.019-1.9-.345-.343-6.644.341-7.7.3-.069,10.007.09,20.027.015,30.038-.16,21.258-.681,42.639-.91,63.87-.071,6.593.379,13.619.022,20.136a17.723,17.723,0,0,0-.308,2.2c.6-.115.492-.614.6-1.026.2-.791.347-1.648.5-2.454,2.8-14.308,4.916-28.752,7.5-43.084.7-3.859,1.706-7.682,2.346-11.556l-2.074-.151v9.17l-.3-1.034c.106-11.046-.137-22.1-.014-33.144.008-.728.314-1.316.323-2.044.075-5.967-.086-11.945-.014-17.909l.588.144-.59,44.521,2.056-.017L217.4,98.864c.063-.972-.753-.163-1.19,0a38.841,38.841,0,0,1-6.979,1.9c-.78.129-3.821.189-3.971.762M204.076,247.2H245.2l.593-87.261c-6.459-.064-12.932.083-19.4.015-.728-.008-1.316-.315-2.044-.323-5.471-.066-11.018-.031-16.453.143l-.234.359-3.314,19.18c.444,14.1-.178,28.45-.294,42.583-.069,8.433.08,16.875.014,25.3m115.083-14.51c0-.627.076-1.287.025-1.915-.624-7.671-1.624-15.361-2.394-23.045-1.515-15.113-2.622-30.205-4.7-45.293-.083-.605.187-1.745-.3-2.069l-65.7-.428L245.5,246.9ZM196.086,219.1c.192-.234-.1-.827-.293-.59s.1.827.293.59" transform="translate(899.968 11328.961)" fill="#161615" opacity="0.8"/>
    <path id="Trazado_893499" data-name="Trazado 893499" d="M272.212,22.469c-.188.208-.255.55-.6.742a2.432,2.432,0,0,1-.588.146c.187-.2.252-.547.6-.742.236-.135.474-.091.588-.146" transform="translate(868.522 11327.997)" fill="#161615" opacity="0.8"/>
    <path id="Trazado_893500" data-name="Trazado 893500" d="M270.21,23.848c-.425.458-.675,1.219-1.48,1.183.692-.743.458-.727,1.48-1.183" transform="translate(869.341 11327.507)" fill="#161615" opacity="0.8"/>
    <path id="Trazado_893501" data-name="Trazado 893501" d="M216.341,93.517c.094-.079.2-.2.3-.3-.1.1-.2.2-.3.3" transform="translate(888 11302.799)" fill="#161615" opacity="0.8"/>
    <path id="Trazado_893502" data-name="Trazado 893502" d="M214.962,94.895c.1-.1.2-.2.3-.3-.095.075-.164.234-.3.3" transform="translate(888.491 11302.308)" fill="#161615" opacity="0.8"/>
    <path id="Trazado_893503" data-name="Trazado 893503" d="M215.421,94.436c.1-.1.188-.2.3-.3-.1.086-.169.194-.3.3" transform="translate(888.327 11302.472)" fill="#161615" opacity="0.8"/>
    <path id="Trazado_893504" data-name="Trazado 893504" d="M262.7,43.6c-.154.566-1.931,1.891-2.515,2.367a22.083,22.083,0,0,1-3.4,2.366c.314-.313.582-.913,1.037-1.183,1.63-.825,3.284-3.011,4.881-3.55" transform="translate(873.596 11320.471)" fill="#161615" opacity="0.8"/>
    <path id="Trazado_893505" data-name="Trazado 893505" d="M209.9,94.56c.065-.118-.064-.456,0-.592.021-.044.207-.136.3-.3.052-.047.268.048.3,0-.138.18-.332.543-.592.887" transform="translate(890.301 11302.643)" fill="#161615" opacity="0.8"/>
    <path id="Trazado_893506" data-name="Trazado 893506" d="M215.881,93.976c.1-.088.2-.2.3-.3-.091.076-.186.2-.3.3" transform="translate(888.164 11302.636)" fill="#161615" opacity="0.8"/>
    <path id="Trazado_893507" data-name="Trazado 893507" d="M250.808,41.6c.084-.062.14-.218.3-.3-.059.189-.272.246-.3.3" transform="translate(875.724 11321.289)" fill="#161615" opacity="0.8"/>
    <path id="Trazado_893508" data-name="Trazado 893508" d="M216.8,70.162a23.327,23.327,0,0,1,1.9-2.681c5.668-8.027,11.64-16.815,18.215-24.089a11.916,11.916,0,0,1,1.776-1.626c-.964,2-3.293,3.975-4.735,5.768-5.308,6.6-9.893,13.852-15.089,20.411a17.664,17.664,0,0,1-2.072,2.218" transform="translate(887.836 11321.125)" fill="#161615" opacity="0.8"/>
    <path id="Trazado_893509" data-name="Trazado 893509" d="M348.53,224.453a1.105,1.105,0,0,1-.3-.3c.1.1.2.2.3.3" transform="translate(841.025 11256.165)" fill="#161615" opacity="0.8"/>
    <path id="Trazado_893510" data-name="Trazado 893510" d="M348.99,224.912c-.143-.109-.235-.252-.3-.3.1.1.2.2.3.3" transform="translate(840.861 11256.002)" fill="#161615" opacity="0.8"/>
    <path id="Trazado_893511" data-name="Trazado 893511" d="M236.561,69.627c.1-.1.2-.2.3-.3l-.3.3" transform="translate(880.798 11311.308)" fill="#161615" opacity="0.8"/>
    <path id="Trazado_893512" data-name="Trazado 893512" d="M240.7,135.921c1.481-1.582,3.42-3.629,5.03-5.028a11.466,11.466,0,0,1-5.03,5.028" transform="translate(879.325 11289.382)" fill="#161615" opacity="0.8"/>
    <path id="Trazado_893513" data-name="Trazado 893513" d="M248.51,130.73c.06-.144.292-.263.3-.3-.017.013-.161.178-.3.3" transform="translate(876.542 11289.545)" fill="#161615" opacity="0.8"/>
    <path id="Trazado_893514" data-name="Trazado 893514" d="M254.944,120.459c.106-.25.237-.45.3-.592a2.128,2.128,0,0,1-.3.592" transform="translate(874.251 11293.309)" fill="#161615" opacity="0.8"/>
    <path id="Trazado_893515" data-name="Trazado 893515" d="M251.053,50.954c-3.3,3.279-7.029,6.353-10.356,9.466,2.879-2.825,6.905-7.7,10.356-9.466" transform="translate(879.325 11317.853)" fill="#161615" opacity="0.8"/>
    <path id="Trazado_893516" data-name="Trazado 893516" d="M255.4,119.54c.068-.112.149-.342.3-.592-.115.276-.245.469-.3.592" transform="translate(874.088 11293.636)" fill="#161615" opacity="0.8"/>
    <path id="Trazado_893517" data-name="Trazado 893517" d="M255.674,56.926a43.041,43.041,0,0,1-5.326,3.846,16.116,16.116,0,0,1,5.326-3.846" transform="translate(875.888 11315.726)" fill="#161615" opacity="0.8"/>
    <path id="Trazado_893518" data-name="Trazado 893518" d="M249.53,62.9a3.25,3.25,0,0,1-1.48,1.183,3.2,3.2,0,0,1,1.48-1.183" transform="translate(876.706 11313.599)" fill="#161615" opacity="0.8"/>
    <path id="Trazado_893519" data-name="Trazado 893519" d="M246.9,64.736a5.306,5.306,0,0,1-2.071,1.775,5.344,5.344,0,0,1,2.071-1.775" transform="translate(877.852 11312.944)" fill="#161615" opacity="0.8"/>
    <path id="Trazado_893520" data-name="Trazado 893520" d="M240.238,65.952c.1-.093.193-.2.3-.3-.1.1-.2.2-.3.3" transform="translate(879.489 11312.616)" fill="#161615" opacity="0.8"/>
    <path id="Trazado_893521" data-name="Trazado 893521" d="M239.778,66.411c.1-.093.192-.2.3-.3-.1.1-.2.2-.3.3" transform="translate(879.652 11312.453)" fill="#161615" opacity="0.8"/>
    <path id="Trazado_893522" data-name="Trazado 893522" d="M239.319,66.87c.1-.091.193-.2.3-.3-.1.1-.2.2-.3.3" transform="translate(879.816 11312.289)" fill="#161615" opacity="0.8"/>
    <path id="Trazado_893523" data-name="Trazado 893523" d="M238.859,67.33c.1-.091.191-.2.3-.3-.1.1-.2.2-.3.3" transform="translate(879.98 11312.125)" fill="#161615" opacity="0.8"/>
    <path id="Trazado_893524" data-name="Trazado 893524" d="M238.4,67.789c.1-.093.191-.2.3-.3-.1.1-.2.2-.3.3" transform="translate(880.143 11311.962)" fill="#161615" opacity="0.8"/>
    <path id="Trazado_893525" data-name="Trazado 893525" d="M243.851,67.493a4.249,4.249,0,0,1-1.775,1.479,4.213,4.213,0,0,1,1.775-1.479" transform="translate(878.834 11311.962)" fill="#161615" opacity="0.8"/>
    <path id="Trazado_893526" data-name="Trazado 893526" d="M237.94,68.249c.1-.1.19-.2.3-.3-.1.1-.2.2-.3.3" transform="translate(880.307 11311.798)" fill="#161615" opacity="0.8"/>
    <path id="Trazado_893527" data-name="Trazado 893527" d="M237.48,68.708c.1-.106.2-.2.3-.3-.1.1-.2.2-.3.3" transform="translate(880.471 11311.635)" fill="#161615" opacity="0.8"/>
    <path id="Trazado_893528" data-name="Trazado 893528" d="M237.021,69.168c.1-.106.2-.2.3-.3l-.3.3" transform="translate(880.634 11311.471)" fill="#161615" opacity="0.8"/>
    <path id="Trazado_893529" data-name="Trazado 893529" d="M236.1,70.086c.1-.1.2-.2.3-.3-.1.1-.2.2-.3.3" transform="translate(880.962 11311.144)" fill="#161615" opacity="0.8"/>
    <path id="Trazado_893530" data-name="Trazado 893530" d="M240.767,69.79a6.578,6.578,0,0,1-2.367,2.071,6.568,6.568,0,0,1,2.367-2.071" transform="translate(880.143 11311.144)" fill="#161615" opacity="0.8"/>
    <path id="Trazado_893531" data-name="Trazado 893531" d="M235.642,70.546c.1-.1.2-.2.3-.3-.1.1-.2.2-.3.3" transform="translate(881.125 11310.98)" fill="#161615" opacity="0.8"/>
    <path id="Trazado_893532" data-name="Trazado 893532" d="M235.183,71c.1-.1.2-.2.3-.3-.1.1-.2.2-.3.3" transform="translate(881.289 11310.816)" fill="#161615" opacity="0.8"/>
    <path id="Trazado_893533" data-name="Trazado 893533" d="M221.855,80.338c2.89-3.23,5.462-6,8.581-9.17-2.786,2.976-5.74,6.133-8.581,9.17" transform="translate(886.036 11310.653)" fill="#161615" opacity="0.8"/>
    <path id="Trazado_893534" data-name="Trazado 893534" d="M191.2,115.537a4.131,4.131,0,0,1-.3.3c-.071.046-.248-.049-.3,0a4.751,4.751,0,0,1,.888-1.479c-.132.322-.152.9-.3,1.183" transform="translate(897.166 11295.272)" fill="#161615" opacity="0.8"/>
    <path id="Trazado_893535" data-name="Trazado 893535" d="M237.418,73.006a4.214,4.214,0,0,1-1.775,1.479,4.22,4.22,0,0,1,1.775-1.479" transform="translate(881.125 11309.998)" fill="#161615" opacity="0.8"/>
    <path id="Trazado_893536" data-name="Trazado 893536" d="M234.169,75.3a7.942,7.942,0,0,1-2.663,2.366,8.079,8.079,0,0,1,2.663-2.366" transform="translate(882.599 11309.181)" fill="#161615" opacity="0.8"/>
    <path id="Trazado_893537" data-name="Trazado 893537" d="M226.268,78.978c-3.057,3.253-6.377,6.158-9.468,9.17,2.4-2.353,6.836-7.826,9.468-9.17" transform="translate(887.836 11307.871)" fill="#161615" opacity="0.8"/>
    <path id="Trazado_893538" data-name="Trazado 893538" d="M221.4,85.707c.1-.1.2-.2.3-.3-.1.106-.2.194-.3.3" transform="translate(886.199 11305.58)" fill="#161615" opacity="0.8"/>
    <path id="Trazado_893539" data-name="Trazado 893539" d="M214.962,87.349a3.159,3.159,0,0,1,1.183-1.479,3.647,3.647,0,0,1-1.183,1.479" transform="translate(888.491 11305.417)" fill="#161615" opacity="0.8"/>
    <path id="Trazado_893540" data-name="Trazado 893540" d="M216.8,89.123c.856-1.668,1.834-2.009,2.959-3.254-.943,1-1.9,2.194-2.959,3.254" transform="translate(887.836 11305.417)" fill="#161615" opacity="0.8"/>
    <path id="Trazado_893541" data-name="Trazado 893541" d="M212.664,90.238a6.534,6.534,0,0,1,1.48-2.071,9.1,9.1,0,0,1-1.48,2.071" transform="translate(889.309 11304.599)" fill="#161615" opacity="0.8"/>
    <path id="Trazado_893542" data-name="Trazado 893542" d="M272.867,95.81c.016-.014-.037-.348.3-.3.051.338-.287.277-.3.3" transform="translate(867.868 11301.983)" fill="#161615" opacity="0.8"/>
    <path id="Trazado_893543" data-name="Trazado 893543" d="M191.984,111.409a26.341,26.341,0,0,1,3.255-5.325,19.519,19.519,0,0,1-3.255,5.325" transform="translate(896.675 11298.218)" fill="#161615" opacity="0.8"/>
    <path id="Trazado_893544" data-name="Trazado 893544" d="M276.482,89.086c-.047.046.048.267,0,.3l-1.772.741c.38-.773,1.327-.768,1.772-1.037" transform="translate(867.212 11304.271)" fill="#161615" opacity="0.8"/>
    <path id="Trazado_893545" data-name="Trazado 893545" d="M212.2,91.679a2.122,2.122,0,0,1,.3-.3.816.816,0,0,1-.3.3" transform="translate(889.473 11303.453)" fill="#161615" opacity="0.8"/>
    <path id="Trazado_893546" data-name="Trazado 893546" d="M447.658,70.077a1.567,1.567,0,0,1-.279.745,68.537,68.537,0,0,1-5.886,5.367c-3.522,20.454-7.291,40.861-10.7,61.33H473.1a.989.989,0,0,1,0,.3H430.941c-.083,0-.361.328-.407.481-.485,3.319-1,6.645-1.59,9.946-3.086,17.351-6.8,35.052-9.375,52.449a15.893,15.893,0,0,1-.048,1.729c-.156.519-.859.418-.859.47v22.481h7.693l.3-26.622c.614.176.509.4.46.883-.216,2.124.27,3.553.139,5.486-.04.587-.3,1.09-.317,1.752-.191,6.153.17,12.348.014,18.5H438.19a.989.989,0,0,1,0,.3H418.662v8.282c-.516.068-.288-.675-.3-1.035-.2-9.756.14-19.534.007-29.292-2.9-17.85-5.656-35.832-7.718-53.809-1.866-16.262-3.642-32.764-4.429-49.112-.218-4.527.068-9.513-.279-13.919a16.637,16.637,0,0,0-.3-1.915,12.663,12.663,0,0,0-2.366.894c-.088.084.28.945.306,1.314.126,1.775-.278,3.6.294,5.327-.3,5.33.8,10.53.878,15.833l-.895-5.759c-.238-4.835-.4-9.686-.888-14.494-.041-.415.091-1.848.008-1.931a13.619,13.619,0,0,0-2.932.913,2.732,2.732,0,0,0-.033,1.011c1.039,11.387,2.6,22.65,4.478,33.983,1.607,9.7,3.5,19.376,5.262,29.052l.622,4.553-.553-1.959c-2.288-12.7-4.816-25.388-6.82-38.144-1.395-8.881-2.152-17.781-3.259-26.618-.049-.389.035-1.549-.02-1.607-.164-.173-3.988,1.342-4.518,1.546-2,.769-4.493,2.221-6.418,2.753a3.931,3.931,0,0,1-1.491.136l2.812-3.251c.512.326-.143.646-.3.88a16.626,16.626,0,0,0-1.325,1.78c.293.265,6.35-2.518,7.317-2.889,1.257-.482,2.609-.914,3.909-1.268l-.568-12.856c.028-.243-.305-.733-.45-.733H394.4l2.958,1.478c-.73-.2-3.439-.561-3.846-.889-.377-.3-.005-.522.373-.653a10.27,10.27,0,0,1,1.875-.523c.855-.073,1.815.383,2.94.3,3.164-.24,6.586-.547,9.734-.915a30.253,30.253,0,0,1,3.422-.573l-3.866-2.788c-.912-.68-2.657-.848-1.9-2.233,2.188-3,4.852-5.632,7.071-8.608,13.206-17.7,22.5-37.592,34.547-55.977A6.176,6.176,0,0,1,449.324,0L480.19,20.565a21.765,21.765,0,0,1-2.224,3.347c-.778,1.022-4.418,5-4.506,5.83-.079.743.627,2.033.095,3.07-.518,1.01-1.865.716-2.621.93-.623.176-4.819,6.485-5.469,7.547-.241.563-2.615,4.363-2.42,4.531.061.053,1.133.2,1.558.366,5,1.923,13.723,4.763,17.97,7.326-5.97-1.359-12.364-5.045-18.267-7.028-.566-.191-1.317-.668-1.709-.075a40.245,40.245,0,0,1-2.065,4.442A44.429,44.429,0,0,0,457.4,62.813c-.046.388-.261.744-.288,1.194-.041.674.346.485.9.451-.71.535-1.059.755-.887,1.775a44.345,44.345,0,0,1,5.029-1.183c.091.469.978.338,1.34.3,10.472-.984,20.939-2.57,31.375-3.834l4.862-.315c.138-.7-.074-.468-.382-.65-1.244-.733-6.517-2.981-7.751-2.92-.516.026-1.309.229-1.926.316.342-.159,1.48-.662,1.48-.887a162.48,162.48,0,0,1,20.414,7.84c.4.18,1.984.861,2.007,1.169l-4.882,21.1c-2.214,11.846-6.064,25.412-.341,36.855,4.614,9.225,17.417,13.778,27.168,14.1l7.084,72.866c-.121.406-.935.625-1.365.706-24.265,4.6-48.512,9.411-72.741,14.245-8.864-.1-17.749.2-26.611.019-.359-.007-1.1.22-1.035-.3h26.778c.079,0,.363-.329.409-.478.137-11.622-.056-23.257.021-34.883.095-14.273-.324-29.6.3-43.778.056-1.272.552-2.609.311-3.979l-.3,82.662,1.342.168c22.621-4.441,45.2-9.145,67.829-13.536.883-.171,4.287-.46,4.674-.961.1-.135-.407-2.816-.158-3.416-2.991-22.1-3.4-45.139-6.8-67.156-.089-.582.224-1.662-.5-1.87a18.34,18.34,0,0,0-2.637-.026c-6.01-.572-14.857-4.07-19.38-8.135C499.194,118.1,506.879,94,510.3,78.721c.952-4.247,1.848-8.515,2.736-12.773l-12.267-4.723c-7.6.84-15.181,2.013-22.806,2.917-5.89.7-12.155.946-18.009,1.814a35.073,35.073,0,0,0-4.307,1.315c-1.815.481-5.45.921-6.908,1.672a9.457,9.457,0,0,0-1.086,1.134c.117-.151.54-1.068-.134-.875-.9.258-4.462,1.168-4.9,1.606-.66.652-.548,3.3-.878,4.3a16.808,16.808,0,0,0,2.514-1.774,41.57,41.57,0,0,0,3.4-3.255m17.153-58.849L449.428,1.291c-3.069,4.96-5.954,10.028-8.924,15.047-8.48,14.332-16.5,28.757-26.452,42.181-2.042,2.755-4.584,5.147-6.637,7.859-.193.255-.4.294-.294.739,4.487,2.323,8.349,5.772,12.885,7.995,6.518-1.793,13.221-3.027,19.736-4.813a7.631,7.631,0,0,0,1.643-.576c.651-.625.572-1.888-.688-1.428l-22.2,2.946c-.682.043-1.37.035-2.053.019-.357-.008-1.1.221-1.033-.294a35.776,35.776,0,0,0,6.055-.6c6.12-.735,12.229-1.59,18.345-2.367.592-.075,1.757.245,2.1-.269l4.648-26.708c1.492-11.784,11.735-19.341,17.8-28.641.138-.211.651-.986.454-1.151m13.9,9.177c-.276-.237-1.419-.657-1.859-.953-2.261-1.52-4.526-2.957-6.805-4.437-.856-.555-3.26-2.862-4.153-2.6L453.451,27.8c-5.75,7.177-6.028,15.718-7.592,24.356-.925,5.108-2.362,10.589-2.914,15.722a6.612,6.612,0,0,0-.021,1.31c.281.29,5.652-1.225,6.508-1.481l-2.211.01-1.042-.3c1.069-.053,2.313-.133,3.365-.284.69-.1,3.781-8.151,4.26-9.4,1.64-4.276,3.051-8.645,4.47-13,.08-.169.008-.271-.092-.4-.324-.428-4.267-1.4-5.131-1.683l-5.1-1.854a30.449,30.449,0,0,1,5.034,1.324c3.077.959,6.118,2.075,9.166,3.111.134-.807.651-1.483.826-2.282.247-1.129.185-2.64.379-3.762.2-1.181,1.546-6.925,1.119-7.521-.132-.184-1.456-.655-1.683-1.42-1.4-4.694,5.9-4.63,4.927-.3-.414,1.842-2.449,1.192-2.843,2.778-.565,2.277-.5,5.043-1.225,7.353l-.021,2.494c1.55-3.28,3.839-6.1,5.893-9.065.088-.4-.929-1.046-.862-2a6.288,6.288,0,0,1,.959-2.167c1.049-.936,2.781.039,2.865-.082.061-.087.035-.363.184-.557,1.916-2.507,3.942-4.947,5.91-7.415.162-.2.231-.78.123-.872M466,27.779c-.15.169.483,1.221.319,1.623l-.469,1.627c.328-.35.706-.326,1-.768.892-1.324-.458-2.929-.854-2.482m-.593.592c-.695-.689-1.932,1.291-.737,1.773.739.3.926-1.586.737-1.773m4.734,4.435c-.434-1.417.238-1.989.592-3.253a3.3,3.3,0,0,0-1.389,1.924c0,.089.455,1.386.8,1.33m.741-1.478a.148.148,0,0,0,0,.3.148.148,0,0,0,0-.3M454.464,65.936c.037-.534,1.6-.721,1.743-.919.157-.218-.013-2.413.052-3.054.547-5.345,3.155-11.547,5.6-16.291.052-.164-2.982-1.364-3.248-1.03a159.852,159.852,0,0,1-5.695,16.641c-.255.629-.494,1.279-.763,1.9-.449,1.039-1.55,2.585-1.83,3.5-.267.869,1.693.126,2.072,0,.737-.245,1.229-.5,2.068-.742l-.591.59c.44.263,3-.572,2.365-1.181-.062-.06-.778.462-1.1.538-.248.059-.522.008-.677.053M438.19,72.148c.256-.175.653-.268.591-.59-10.546,2.333-20.884,5.525-31.466,7.735-.164.055-.489.3-.489.4V83.98c1.448-.562,2.9-1.167,4.358-1.707.782-.29,1.812-.417,2.447-.659-1.913.725-3.95,1.758-5.92,2.523-.279.109-.809.1-.87.156-.312.261.206,7.072-.024,8.127,1.7,34.645,6.423,69.012,11.335,103.437l.8,2.6c.088-.966.154-2.141.321-3.081q9.706-54.576,19.241-109.141c.378-2.151,1.991-8.251,1.448-9.645-.039-.1.49-.56.524-.8.032-.644.82-4.361.659-4.523-.321-.321-1.808.675-2.282.831a6.572,6.572,0,0,1-.676.056M400.022,86.642c.966-.61,5-1.637,5.484-2.355.6-.89-.384-4.71.425-5.491,1.053-.735,12.177-2.62,12.136-3.246-.023-.344-5.09-3.634-5.784-3.7a26.285,26.285,0,0,0-3.553.578c-1,.1-1.975.189-2.958.3-2.1.232-4.263.2-6.327.626Z" transform="translate(827.112 11336)" fill="#161615" opacity="0.8"/>
    <path id="Trazado_893547" data-name="Trazado 893547" d="M504.454,100.571c-.049.01-.444.519-.888.3.078-.021.468-.185.888-.3" transform="translate(785.703 11300.181)" fill="#161615" opacity="0.8"/>
    <path id="Trazado_893548" data-name="Trazado 893548" d="M466.015,112.057a2.669,2.669,0,0,1-.592.3,3.552,3.552,0,0,1,.592-.3" transform="translate(799.288 11296.09)" fill="#161615" opacity="0.8"/>
    <path id="Trazado_893549" data-name="Trazado 893549" d="M499.5,98.734a4.869,4.869,0,0,1-2.367.887,4.811,4.811,0,0,1,2.367-.887" transform="translate(787.994 11300.835)" fill="#161615" opacity="0.8"/>
    <path id="Trazado_893550" data-name="Trazado 893550" d="M531.574,90c-2.372,1.107-5.21,1.452-7.761,2.15-6.286,1.72-12.493,3.367-18.868,4.654,4.97-1.306,10.1-2.653,15.159-3.926,3.812-.958,7.575-2.328,11.471-2.879" transform="translate(785.212 11303.944)" fill="#161615" opacity="0.8"/>
    <path id="Trazado_893551" data-name="Trazado 893551" d="M442.992,118.029a41.85,41.85,0,0,1-5.406,2.138l-3.174,1.41c.887.213,1.717-.261,2.506-.3,3.721-.2,8.1.153,11.712-.715,1.981-.475,3.883-1.564,5.9-1.939a20.2,20.2,0,0,1-5.844,2.292c-1.423.308-2.937.466-4.383.646-.38.048-1.609-.061-1.609.019v4.733a1.982,1.982,0,0,1-.592,0v-4.733c0-.2-3.575-.033-4-.008-.5.028-.949.261-1.462.313-.412.042-1.856-.092-1.928,0a15.336,15.336,0,0,0-.281,1.643c-1,10.287.957,21.843-.329,32.208l.012,32.7-.294-1.034c.135-15.383-.175-30.776-.014-46.158.008-.728.315-1.316.323-2.044.07-5.869-.079-11.748-.015-17.614-1.551.52-3.047,1.207-4.577,1.785-.473.179-1.042.173-1.339.285,4.965-1.9,9.634-4.016,14.794-5.62" transform="translate(812.546 11293.963)" fill="#161615" opacity="0.8"/>
    <path id="Trazado_893552" data-name="Trazado 893552" d="M463.553,112.976c-.218.061-.467.191-.888.3a6.165,6.165,0,0,1,.888-.3" transform="translate(800.27 11295.763)" fill="#161615" opacity="0.8"/>
    <path id="Trazado_893553" data-name="Trazado 893553" d="M501.7,98.274c-.39.176-.748.23-.888.3.167-.045.523-.193.888-.3" transform="translate(786.685 11300.999)" fill="#161615" opacity="0.8"/>
    <path id="Trazado_893554" data-name="Trazado 893554" d="M505.443,96.436a15.589,15.589,0,0,1-3.255,1.184,19.93,19.93,0,0,1,3.255-1.184" transform="translate(786.194 11301.653)" fill="#161615" opacity="0.8"/>
    <path id="Trazado_893555" data-name="Trazado 893555" d="M459.549,114.354a3.442,3.442,0,0,1-1.48.592c.156-.1.248-.341.574-.461a4.781,4.781,0,0,1,.905-.131" transform="translate(801.907 11295.272)" fill="#161615" opacity="0.8"/>
    <path id="Trazado_893556" data-name="Trazado 893556" d="M464.932,112.516a3.629,3.629,0,0,1-.888.3,6.907,6.907,0,0,1,.888-.3" transform="translate(799.779 11295.927)" fill="#161615" opacity="0.8"/>
    <path id="Trazado_893557" data-name="Trazado 893557" d="M512.569,93.22a37.478,37.478,0,0,1-5.326,2.071,40.069,40.069,0,0,1,5.326-2.071" transform="translate(784.393 11302.799)" fill="#161615" opacity="0.8"/>
    <path id="Trazado_893558" data-name="Trazado 893558" d="M461.847,113.435a4.183,4.183,0,0,1-1.48.592c.144-.086.247-.341.575-.461a5.21,5.21,0,0,1,.9-.131" transform="translate(801.088 11295.6)" fill="#161615" opacity="0.8"/>
    <path id="Trazado_893559" data-name="Trazado 893559" d="M547.457,88.135a5.98,5.98,0,0,1-2.071-.887c.427.127,2.069.328,2.071.887" transform="translate(770.809 11304.926)" fill="#161615" opacity="0.8"/>
    <path id="Trazado_893560" data-name="Trazado 893560" d="M455.615,115.273a14.847,14.847,0,0,1-4.438,1.775,22.133,22.133,0,0,1,4.438-1.775" transform="translate(804.362 11294.945)" fill="#161615" opacity="0.8"/>
    <path id="Trazado_893561" data-name="Trazado 893561" d="M536.756,83.7a4.493,4.493,0,0,1-.9-.131c-.328-.121-.43-.373-.575-.461.4.09,1.48.064,1.479.592" transform="translate(774.409 11306.398)" fill="#161615" opacity="0.8"/>
    <path id="Trazado_893562" data-name="Trazado 893562" d="M534.747,86.1c-1.629-.486-3.2-1.321-4.872-1.477-4.724,1.945-9.532,3.715-14.36,5.323,4.238-1.895,8.784-3.261,13.016-5.18.322-.146,1.186-.415,1.186-.737a15.022,15.022,0,0,1,5.03,2.071" transform="translate(781.447 11306.071)" fill="#161615" opacity="0.8"/>
    <path id="Trazado_893563" data-name="Trazado 893563" d="M42.8,27.563,73.383,47.506c.843.818-.876,2.752-1.476,3.548-7.85,10.4-20.058,25.251-21.017,38.74-.064.909.225,3.824-.121,4.316a51.361,51.361,0,0,1-5.719,1.677c-10.2,2.736-20.584,4.857-30.762,7.7l-1.872-.06L.6,95.719a3.335,3.335,0,0,1,.593-3.846c1.75-2.167,3.784-4.138,5.45-6.383,10.251-13.81,18.514-28.947,27.34-43.66,2.736-4.562,5.512-9.1,8.2-13.69ZM34.913,97.338c1.114-7.439,1.277-15.171,3.1-22.485C41.38,61.37,46.791,55.634,54.574,44.966c1.369-1.877,2.6-3.877,3.981-5.75L43.354,29l-.7.5c-1.416,2.663-3.15,5.14-4.719,7.7C26.6,55.733,16.321,76.292,2.077,92.761,1.827,93.05.6,94.135.6,94.24c0,.757,11.243,7.165,12.613,8.37,7.272-1.595,14.367-3.926,21.7-5.272M49.69,93.475c.114-.92-.06-1.872.016-2.793,1.058-12.893,11.075-27.6,18.944-37.559.579-.734,3.835-4.2,3.811-4.737l-12.586-8.4c-.419-.067-1.653,1.611-2,2.06-3.129,4.007-6.517,8.57-9.466,12.722-7.572,10.66-10.736,22.6-11.433,35.6L36.1,96.753Z" transform="translate(964.972 11326.184)" fill="#161615" opacity="0.8"/>
    <path id="Trazado_893564" data-name="Trazado 893564" d="M61.966,205.553a14.568,14.568,0,0,1-3.255-2.071,18,18,0,0,1,3.255,2.071" transform="translate(944.141 11263.528)" fill="#161615" opacity="0.8"/>
    <path id="Trazado_893565" data-name="Trazado 893565" d="M49.713,205.675c.1.043.211.554.3.591a5.481,5.481,0,0,1-.886-.135c-1.323-.559-9.916-4.394-10.47-4.277-.944.2-2.967,5.653-3.295,6.775a63.026,63.026,0,0,0-2.156,10.29c-.03.56.241.984.254,1.53,3.6.075,7.173.985,10.784.9l1.034.294c-1.408-.075-2.9.1-4.3.01-4.1-.278-8.349-1.1-12.438-1.468-4.855-.441-9.7-.572-14.5-1.185-.791-.1-1.677.269-2.194-.46l8.891-23.793c.281-.281,2.224.462,2.723.638,4.685,1.657,9.22,3.873,13.827,5.7,4.052,1.607,8.467,2.863,12.427,4.585M32.255,220.168c-.026-.459-.278-.747-.24-1.248.319-4.139,2.655-13.01,4.726-16.6.133-.23.541-.6.541-.639.006-.239-1.709-1.021-2.07-1.181-3.616-1.607-8.329-3.578-12.052-4.811a3.512,3.512,0,0,0-1.556-.367l-8.581,23.368Z" transform="translate(960.832 11266.66)" fill="#161615" opacity="0.8"/>
    <path id="Trazado_893566" data-name="Trazado 893566" d="M43.187,193.8a4.131,4.131,0,0,1-1.005-.332c-.324-.2-.363-.458-.475-.555.852.371.73.173,1.48.887" transform="translate(950.197 11267.292)" fill="#161615" opacity="0.8"/>
    <path id="Trazado_893567" data-name="Trazado 893567" d="M38.762,191.115a19.628,19.628,0,0,1-5.327-3.254,21.683,21.683,0,0,1,5.327,3.254" transform="translate(953.143 11269.092)" fill="#161615" opacity="0.8"/>
    <path id="Trazado_893568" data-name="Trazado 893568" d="M21.528,178.389c-.874-.4-2.51-.643-2.018-1.868,2.742-3.851,4.947-8.057,7.512-12.014.407-.626,2-3.337,2.593-3.24L60.582,181.79c-1.868,2.3-3.546,4.737-5.323,7.1-1.639,2.179-3.6,4.175-4.978,6.56-1.923,3.334-5.69,13.392-5.979,17.1a58.793,58.793,0,0,0,.618,11.821c.2,1.262,1.653,5.092,1.429,5.887-.194.692-3.291,2.2-4.089,2.732-9.246,6.126-18.433,12.346-27.677,18.476a3.816,3.816,0,0,1-2.6-.084c-3.839-.847-7.592-2.268-11.46-3.037-.514-.431-.8-.571-.149-1.031l13.482,3.414,18.789-12.577-4.314-26.627L9.242,212.7c-1.072.122-.617,1.131-.755,1.908a144.884,144.884,0,0,1-3.674,14.962A112.992,112.992,0,0,1,.951,241.1c-.089.205-.281,1.129-.727.591a7.768,7.768,0,0,1,.07-1.852c.427-2.855,2.524-7.165,3.4-10.207,1.5-5.213,2.28-10.969,3.77-16.05.16-.545.21-1.156.89-1.181l35.339-2.682L48.7,195.985c-.4-.814-1.227-.663-1.938-.967a9.854,9.854,0,0,1-.97-.655c.175.077.673.056.591-.147-.173-.431-.753-.349-.887-.444-1.465-1.039-3.014-2.183-4.438-3.253,1.309.676,2.653,1.324,3.941,2.123.529.329,3.989,3.029,4.33,2.6.044-.055.033-.353.175-.557,2.946-4.237,6.159-8.233,9.269-12.352l.025-.518-12.563-8.452-10.487,13.19c-.132.57,1.344,1.118,1.753,1.465.183.156.245.382.3.428-2.677-1.382-6.431-3.265-8.581-5.324,2.006.518,3.559,2.664,5.6,2.937L45.2,172.624,29.663,162.418l-9.3,14.668c-.076.328.8.96,1.167,1.3m21.895,31.946-14.2,1.185L34.1,237.249c3.477-2.229,6.794-4.686,10.3-6.868a5.163,5.163,0,0,1,.789-.24c.224-.217-1.312-5.14-1.451-6.071a58.694,58.694,0,0,1-.594-12.386c.026-.318.46-1.167.278-1.349" transform="translate(965.051 11278.564)" fill="#161615" opacity="0.8"/>
    <path id="Trazado_893569" data-name="Trazado 893569" d="M44.893,194.885c-.631.114-.664-.379-.888-.591.144.055.361-.011.6.142.2.127.214.377.29.449" transform="translate(949.378 11266.801)" fill="#161615" opacity="0.8"/>
    <path id="Trazado_893570" data-name="Trazado 893570" d="M72.41,315.957c.107.091.038.677-.124.872-2.162,2.939-4.616,5.667-6.792,8.591a46.063,46.063,0,0,0-3.779,5.392c-1.8,3.522-5.319,13.139-5.569,16.913a59.625,59.625,0,0,0,.619,10.935c.31,1.836,1.44,3.78,1.713,5.407.042.252.1.468-.088.685-10.737,7.091-21.444,14.221-32.029,21.536l-1.055-.017L10,382.194c1.724-6.257,3.384-12.561,4.952-18.861,5.154-20.718,9.567-38.539,20.143-57.361,1.9-3.379,4.1-6.61,5.961-10.018.43-.3.9-.053,1.293.216,9.656,6.673,19.713,12.771,29.34,19.485a5.013,5.013,0,0,0,.724.3m-14.778-8.584L42.1,297.3l-.59,0c-1.767,3.38-3.969,6.53-5.827,9.853-6.877,12.3-11.745,25.61-15.546,39.18L11.476,381.6l13.533,3.479,1.364.024c9.966-7.19,20.336-13.8,30.54-20.651.361-.5-.807-3.5-.98-4.372-.967-4.9-1.412-12.537,0-17.305,1.026-3.465,4.116-11.526,6.007-14.4,1.246-1.9,3.031-4.07,4.444-5.91.682-.888,4.7-5.422,4.555-6.06l-12.585-8.438c-.469-.182-.591.592-.954,1.08-.176.237-.587,1.039-.949.677-.093-.093,1.373-2.217,1.181-2.35" transform="translate(961.491 11230.644)" fill="#161615" opacity="0.8"/>
    <path id="Trazado_893571" data-name="Trazado 893571" d="M108.583,127.743c-.122.14.208,1.189-.151,1.186-.794-.006-3.315-1.178-4.506-1.411a6.822,6.822,0,0,0-1.557-.072l5.79-2.051c.916-.225.079,1.069.127,1.461H146.9c.438,0,.438.887,0,.887Z" transform="translate(928.591 11291.35)" fill="#161615" opacity="0.8"/>
    <path id="Trazado_893572" data-name="Trazado 893572" d="M70.289,287.164c.481.114.187-.329.359-.5a3.564,3.564,0,0,1,.822-.382c.138.164-.079,3.531.017,4.274.073.569,1,2.387.871,2.529-.272.294-.833-.392-1.016-.61-1.19-1.416-2.264-3.371-3.418-4.863l1.472,0a61.3,61.3,0,0,1-2.056-5.93c-.091-.333-.512-.837.138-1.022.558-.158,1.022,1.109,1.18,1.48.681,1.6,1.064,3.381,1.631,5.026" transform="translate(941.145 11236.047)" fill="#161615" opacity="0.8"/>
    <path id="Trazado_893573" data-name="Trazado 893573" d="M62.453,144.208v6.212c.5.081,1.3-.337,1.19.447s-.932,2.054-1.127,3.017c-.149.733.33,2.1-.652,1.859-.129-.957-1.893-4.563-1.779-5.173.129-.695,1.1-.062,1.185-.15.045-.045-.052-.478.01-.725a3.821,3.821,0,0,1,.286-.608v-4.881c0-.044.7.028.888,0" transform="translate(943.653 11284.645)" fill="#161615" opacity="0.8"/>
    <path id="Trazado_893574" data-name="Trazado 893574" d="M449.145,281.565c-.514.07-.287-.676-.294-1.033-.166-8.38.135-16.776-.014-25.158l.318-1.753c.076-.437-.186-2.82.14-2.82.57,0-.139,10.459.162,11.4.006.719-.312,1.312-.323,2.044-.084,5.769.092,11.551.012,17.317" transform="translate(805.208 11246.676)" fill="#161615" opacity="0.8"/>
    <path id="Trazado_893575" data-name="Trazado 893575" d="M324.623,106.515c.391.331.046.568-.44.592-.59.029-1.188-.012-1.78,0-.357.007-1.1-.22-1.034.294a2.639,2.639,0,0,1,1.39.238c1.992.708,4.03,1.274,6.012,1.977.178.064,1.1.444.733.746-2.444-.926-5.076-1.456-7.4-2.661-.136.437.649.963.964,1.109.63.291.72.4-.057.352-.733-.61-1.635-1.173-2.335-1.809-.292-.265-.628-.268-.494-.837.673.122,4.242-.165,4.438,0" transform="translate(851.026 11298.083)" fill="#161615" opacity="0.8"/>
    <path id="Trazado_893576" data-name="Trazado 893576" d="M591.173,214.049a1.1,1.1,0,0,1,0,.3h-21.9a1,1,0,0,1,0-.3Z" transform="translate(762.304 11259.766)" fill="#161615" opacity="0.8"/>
    <path id="Trazado_893577" data-name="Trazado 893577" d="M90.851,367.061c1.016-.227,2.367-.193,2.9.839.9,1.759.159,3.949-2.042,3.837-2.553-.131-3.2-4.151-.854-4.676m.3.292c-.348.073-.954.385-1.057.724-.97,3.2,3.2,4.63,3.509,1.418a1.91,1.91,0,0,0-2.452-2.142" transform="translate(933.212 11205.31)" fill="#161615" opacity="0.8"/>
    <path id="Trazado_893578" data-name="Trazado 893578" d="M309.455,94.274l-1.411.53c-2.548.272-4.817-.29-7.309-.54-.853-.086-1.785.106-2.652-.011l-2.238-.571c4.528.252,9.025.778,13.61.592" transform="translate(859.684 11302.635)" fill="#161615" opacity="0.8"/>
    <path id="Trazado_893579" data-name="Trazado 893579" d="M77.651,231.8a14.6,14.6,0,0,0,1.642.6c3.336.258,1.751-5.916-1.511-3.279a2.619,2.619,0,0,0-.131,2.678c-.2-.211-.488-.085-.594-.732-.366-2.235.959-3.192,3.112-2.818,1.834.318,2.378,4.605-.891,4.459-.942-.042-1.092-.341-1.627-.908" transform="translate(937.628 11254.737)" fill="#161615" opacity="0.8"/>
    <path id="Trazado_893580" data-name="Trazado 893580" d="M429.679,316.717c.014-.151.773-1,0-1.034a4.4,4.4,0,0,1-.638,1.581c-.137.211-.53.872-.84.637a10.832,10.832,0,0,0,1.2-2.944c.117-.312.119-.711.575-.755l.889,3.844-.885-1.182c-.019,1.13.021,2.269,0,3.4-.008.358.22,1.1-.3,1.034.094-1.491-.129-3.111,0-4.585" transform="translate(812.544 11224.095)" fill="#161615" opacity="0.8"/>
    <path id="Trazado_893581" data-name="Trazado 893581" d="M197.141,337.155c-.16,1.192.8,2.1.887,3.255l-1.18-1.774c-.64,1.313.454.478.307,1.621l-.6,3.7c-.119-.617.158-3.654,0-3.845s-.6.758-.883.446a14.973,14.973,0,0,0,.829-1.831c.165-.694-.335-1.8.646-1.574" transform="translate(895.364 11215.931)" fill="#161615" opacity="0.8"/>
    <path id="Trazado_893582" data-name="Trazado 893582" d="M94.977,90.235l.428,1.788c.509,1.6,3.452,1.11,3.707-.764a2.971,2.971,0,0,0-.881-2.206c.3-.285.975.479,1.143.778,1.955,3.5-5.281,5.836-4.4.4" transform="translate(931.251 11304.306)" fill="#161615" opacity="0.8"/>
    <path id="Trazado_893583" data-name="Trazado 893583" d="M197.335,365.08c-.094-.008-.3.015-.3,0V353.248a.991.991,0,0,1,.3,0Z" transform="translate(894.874 11210.192)" fill="#161615" opacity="0.8"/>
    <path id="Trazado_893584" data-name="Trazado 893584" d="M347.625,117.148l-7.767-2.736-.813-.514a43.094,43.094,0,0,1,6.589,2.137c.639.262,1.662.488,1.991,1.114" transform="translate(844.298 11295.435)" fill="#161615" opacity="0.8"/>
    <path id="Trazado_893585" data-name="Trazado 893585" d="M560.621,213.538a1.114,1.114,0,0,1,0,.3h-6.509a.991.991,0,0,1,0-.3c.911,0,6.259-.208,6.509,0" transform="translate(767.705 11259.98)" fill="#161615" opacity="0.8"/>
    <path id="Trazado_893586" data-name="Trazado 893586" d="M419.435,206.968l-.569-2.24-.316-3.083.865,3.718Z" transform="translate(815.982 11264.183)" fill="#161615" opacity="0.8"/>
    <path id="Trazado_893587" data-name="Trazado 893587" d="M98.14,88.61l-2.66,1.035a2.71,2.71,0,0,1,2.66-1.035" transform="translate(931.045 11304.453)" fill="#161615" opacity="0.8"/>
    <path id="Trazado_893588" data-name="Trazado 893588" d="M414.68,171.982c-.384.462-.382-1.962-.293-2.069.384-.462.382,1.962.293,2.069" transform="translate(817.482 11275.506)" fill="#161615" opacity="0.8"/>
    <path id="Trazado_893589" data-name="Trazado 893589" d="M415.16,176.141c-.4.487-.4-1.669,0-1.182a6.139,6.139,0,0,1,0,1.182" transform="translate(817.297 11273.713)" fill="#161615" opacity="0.8"/>
    <path id="Trazado_893590" data-name="Trazado 893590" d="M429.552,335.294c-.241-.3.467-1.04.589-.887.241.3-.467,1.04-.589.887" transform="translate(812.081 11216.906)" fill="#161615" opacity="0.8"/>
    <path id="Trazado_893591" data-name="Trazado 893591" d="M415.621,179.356c-.4.487-.4-1.669,0-1.182a6.144,6.144,0,0,1,0,1.182" transform="translate(817.133 11272.568)" fill="#161615" opacity="0.8"/>
    <path id="Trazado_893592" data-name="Trazado 893592" d="M417,190.842c-.4.487-.4-1.669,0-1.182a6.134,6.134,0,0,1,0,1.182" transform="translate(816.642 11268.478)" fill="#161615" opacity="0.8"/>
    <path id="Trazado_893593" data-name="Trazado 893593" d="M425.279,254.4c-.386.467-.386-1.353,0-.886a4.62,4.62,0,0,1,0,.886" transform="translate(813.688 11245.736)" fill="#161615" opacity="0.8"/>
    <path id="Trazado_893594" data-name="Trazado 893594" d="M418.385,200.651c-.386.467-.386-1.353,0-.886a4.63,4.63,0,0,1,0,.886" transform="translate(816.144 11264.88)" fill="#161615" opacity="0.8"/>
    <path id="Trazado_893595" data-name="Trazado 893595" d="M424.819,252.106c-.386.467-.386-1.353,0-.886a4.63,4.63,0,0,1,0,.886" transform="translate(813.852 11246.554)" fill="#161615" opacity="0.8"/>
    <path id="Trazado_893596" data-name="Trazado 893596" d="M430.3,326.709c-.194.236-.485-.357-.293-.59s.485.357.293.59" transform="translate(811.925 11219.87)" fill="#161615" opacity="0.8"/>
    <path id="Trazado_893597" data-name="Trazado 893597" d="M424.323,249.526c-.194.236-.485-.357-.293-.59s.485.357.293.59" transform="translate(814.052 11247.359)" fill="#161615" opacity="0.8"/>
    <path id="Trazado_893598" data-name="Trazado 893598" d="M426.161,259.633c-.194.236-.485-.357-.293-.59s.485.357.293.59" transform="translate(813.398 11243.76)" fill="#161615" opacity="0.8"/>
    <path id="Trazado_893599" data-name="Trazado 893599" d="M423.293,243.452a.148.148,0,0,1,0,.3.148.148,0,0,1,0-.3" transform="translate(814.344 11249.293)" fill="#161615" opacity="0.8"/>
    <path id="Trazado_893600" data-name="Trazado 893600" d="M425.591,256.775a.148.148,0,0,1,0,.3.148.148,0,0,1,0-.3" transform="translate(813.525 11244.548)" fill="#161615" opacity="0.8"/>
    <path id="Trazado_893601" data-name="Trazado 893601" d="M353.878,310.229l-73.66,14.215.592-86.966,65.7.428c.485.323.215,1.463.3,2.069,2.076,15.087,3.183,30.18,4.7,45.293.771,7.684,1.77,15.374,2.394,23.045.052.629-.022,1.288-.024,1.916" transform="translate(865.25 11251.421)" fill="#fff" opacity="0.8"/>
    <path id="Trazado_893602" data-name="Trazado 893602" d="M215.863,324.551c.066-8.429-.083-16.871-.014-25.3.116-14.134.738-28.486.294-42.583l3.315-19.181.234-.358c5.435-.174,10.983-.209,16.453-.143.728.008,1.317.315,2.044.323,6.462.069,12.936-.079,19.4-.014l-.593,87.261Z" transform="translate(888.182 11251.608)" fill="#fff" opacity="0.8"/>
    <path id="Trazado_893603" data-name="Trazado 893603" d="M212.479,145.014c.151-.574,3.192-.633,3.972-.762a38.873,38.873,0,0,0,6.979-1.9c.438-.159,1.254-.968,1.19,0l-10.677,60.467-2.056.017.59-44.521-.588-.145c-.072,5.964.088,11.942.013,17.909-.009.728-.315,1.316-.323,2.043-.123,11.045.12,22.1.014,33.144l.3,1.035v-9.17l2.074.151c-.641,3.875-1.651,7.7-2.347,11.557-2.583,14.332-4.7,28.777-7.5,43.083-.158.806-.3,1.662-.5,2.454-.107.413,0,.911-.6,1.027a17.7,17.7,0,0,1,.308-2.2c.357-6.517-.093-13.543-.023-20.137.229-21.23.751-42.612.91-63.87.075-10.01-.083-20.031-.014-30.038,1.05.045,7.349-.638,7.695-.3.108.108-.11,1.512.019,1.9l.572,3.125c.229-1.342-.312-3.694,0-4.88" transform="translate(892.749 11285.466)" fill="#fff" opacity="0.8"/>
    <path id="Trazado_893604" data-name="Trazado 893604" d="M218.939,132.732a18.472,18.472,0,0,1-.737,5.03,9.283,9.283,0,0,1-2.733,1.409c-5.58,2.17-12.206,2.172-18.129,2.138-.062,3.2.082,6.42.009,9.623-.784,34.367-.572,68.824-.882,103.239l-.6,3.387c-.283-2.528-.825-5.04-1.167-7.561-4.535-33.448-9.181-67.728-10.086-101.431-.061-2.257.073-4.526-.006-6.783Z" transform="translate(899.307 11288.727)" fill="#fff" opacity="0.8"/>
    <path id="Trazado_893605" data-name="Trazado 893605" d="M210.826,92.6a2.072,2.072,0,0,1,.3-.3c-.075.14-.265.229-.3.3" transform="translate(889.964 11303.126)" fill="#fff" opacity="0.8"/>
    <path id="Trazado_893606" data-name="Trazado 893606" d="M210.662,93.353c-.028.048-.244-.046-.3,0,.093-.167.014-.267.3-.592-.064.136.066.478,0,.592" transform="translate(890.128 11302.963)" fill="#fff" opacity="0.8"/>
    <path id="Trazado_893607" data-name="Trazado 893607" d="M232.433,55.766c1.058-.547,2.1-1.124,3.165-1.716.262-.145.76-.64.977-.207-3.732,4.625-8.722,9.658-10.663,15.37a46.31,46.31,0,0,0-1.389,5.71c-1.747,8.73-2.776,17.762-4.591,26.468a13.946,13.946,0,0,1-.568,1.948c-7.221,1.894-14.427,3.891-21.708,5.556-4.3-2.487-8.387-5.33-12.562-8.021,4.34-5.775,9.538-10.746,14.651-15.817,1.533-1.521,3.015-3.205,4.579-4.741.132-.061.2-.22.3-.3.127-.1.2-.21.3-.3s.205-.22.3-.3c.1-.1.2-.2.3-.3,3.09-3.011,6.411-5.916,9.468-9.17a7.942,7.942,0,0,0,2.663-2.366,4.21,4.21,0,0,0,1.775-1.479,6.575,6.575,0,0,0,2.367-2.071,4.249,4.249,0,0,0,1.775-1.479,5.306,5.306,0,0,0,2.071-1.775,3.248,3.248,0,0,0,1.48-1.183,43.041,43.041,0,0,0,5.326-3.846" transform="translate(899.128 11316.886)" fill="#fff" opacity="0.8"/>
    <path id="Trazado_893608" data-name="Trazado 893608" d="M246.988,43.426a4.885,4.885,0,0,1,1.625-.317l2.812.465c-.887.99-1.512,2.243-2.366,3.255-1.908,2.262-4.494,3.476-6.805,5.176a16.135,16.135,0,0,0-5.326,3.846,3.193,3.193,0,0,0-1.48,1.183,5.349,5.349,0,0,0-2.071,1.775,4.214,4.214,0,0,0-1.775,1.479,6.575,6.575,0,0,0-2.367,2.071,4.224,4.224,0,0,0-1.775,1.479A8.074,8.074,0,0,0,224.8,66.2c-2.633,1.344-7.073,6.816-9.468,9.17-.1.095-.2.216-.3.3-.1.1-.2.207-.3.3s-.2.2-.3.3-.2.2-.3.3l-1.477.741,2.515-2.819c.163-.158.084-.463.146-.583,1.06-1.06,2.016-2.257,2.959-3.254.091-.1.2-.189.3-.3,2.841-3.037,5.795-6.194,8.581-9.17.1-.1.2-.2.3-.3s.2-.2.3-.3.2-.2.3-.3l.3-.3c.1-.1.2-.2.3-.3l.3-.3.3-.3c.1-.1.2-.2.3-.3s.2-.2.3-.3.2-.2.3-.3.2-.2.3-.3.2-.2.3-.3c3.327-3.113,7.06-6.186,10.356-9.465a22.084,22.084,0,0,0,3.4-2.366c.584-.476,2.361-1.8,2.515-2.367" transform="translate(889.308 11320.647)" fill="#fff" opacity="0.8"/>
    <path id="Trazado_893609" data-name="Trazado 893609" d="M233.18,41.149c2.027-1,6.879.984,9.292.887.284-.042.225.414.176.592-1.6.539-3.251,2.725-4.881,3.55-.455.27-.722.87-1.037,1.183-3.451,1.767-7.477,6.641-10.356,9.465-.1.1-.2.2-.3.3s-.2.2-.3.3-.2.2-.3.3-.194.2-.3.3-.2.2-.3.3-.2.2-.3.3-.2.19-.3.3-.2.191-.3.3-.2.191-.3.3-.2.193-.3.3-.2.193-.3.3-.2.193-.3.3c-3.118,3.165-5.691,5.94-8.581,9.17-.093.1-.2.193-.3.3-1.125,1.245-2.1,1.586-2.959,3.254-1.854,1.854-3.175,3.742-4.875,5.628-1.765,1.958-3.842,3.669-5.631,5.61l2.17-2.858c1.207-1.982,2.557-3.938,3.9-5.717.259-.345.453-.708.592-.888.341-.446.548-.7.887-1.183a.813.813,0,0,0,.3-.3,9.1,9.1,0,0,0,1.48-2.071,3.647,3.647,0,0,0,1.183-1.479,17.61,17.61,0,0,0,2.071-2.218c5.2-6.559,9.782-13.816,15.09-20.411,1.442-1.792,3.771-3.765,4.734-5.768.024-.05.238-.106.3-.3" transform="translate(893.648 11321.445)" fill="#fff" opacity="0.8"/>
    <path id="Trazado_893610" data-name="Trazado 893610" d="M211.286,73.328c1.337-2.524,2.922-4.85,4.385-7.3,5.281-8.839,10.1-17.948,15.727-26.577a1.051,1.051,0,0,1,.5-.4c.619-.183,4.058.617,4.94.854.325.087.261.364.193.586-.156.077-.212.234-.3.3a11.941,11.941,0,0,0-1.776,1.626c-6.575,7.275-12.547,16.062-18.215,24.089a23.326,23.326,0,0,0-1.9,2.681,3.157,3.157,0,0,0-1.184,1.479,6.522,6.522,0,0,0-1.479,2.071,2.134,2.134,0,0,0-.3.3c-.155.12-.437.168-.591.3" transform="translate(889.8 11322.1)" fill="#fff" opacity="0.8"/>
    <path id="Trazado_893611" data-name="Trazado 893611" d="M209.907,93.976c.1-.1.189-.2.3-.3-.089.16-.276.252-.3.3" transform="translate(890.291 11302.636)" fill="#fff" opacity="0.8"/>
    <path id="Trazado_893612" data-name="Trazado 893612" d="M209.63,94.731c-.236.428-1,.4,0-.592-.064.136.065.474,0,.592" transform="translate(890.568 11302.472)" fill="#fff" opacity="0.8"/>
    <path id="Trazado_893613" data-name="Trazado 893613" d="M264.189,72.39c-.514.073-.316-.7-.276-1.015a55.191,55.191,0,0,1,2.046-9.788c1.935-.385,2.841-1.732,2.211-3.683-.388-1.2-1.421-1-1.614-1.193-.08-.084.5-1.8.57-2.239.189-1.1.17-2.435.338-3.508.38-2.433.872-4.877,1.46-7.265-.194-.21-1.97,1.124-2.36,1.337a15.155,15.155,0,0,1-2.964,1.326c-.054.556.611.272.9.162a14.81,14.81,0,0,0,3.388-1.937l.154.744-1.8,11.072c-3.466-.22-4.26,4.467-.87,5.045-.7,2.876-1.256,5.827-1.758,8.745-.161.934-.076,2.277-.325,3.224-.325,1.24-.639,1.471-1.782,1.208-4.105-.942-8.376-3.291-12.509-4.354a.675.675,0,0,1-.474-.425c-.2-.664,1.039-4.461,1.4-5.35,1.736-4.238,9.416-14.241,12.924-17.26,1.142-.983.213-.26.582-1.156.071-.171,1.514-2.165,1.628-2.244.776-.534,2.083.289,2.97.156.084-.371-.554-.482-.8-.525-.424-.073-1.5-.013-1.563-.066-.272-.252.519-1.189,1.03-1.19.717,0,6.16,4.136,7.269,4.874.838.558,5.491,2.922,5.287,3.817l-6.028,7.6c-.9.6-2.139-.073-2.967.878-1.034,1.187-.026,2.788-.272,3.551-.458,1.415-3.024,4.607-3.971,6.109-.636,1.01-1.284,2.275-1.829,3.349" transform="translate(876.543 11320.966)" fill="#fff" opacity="0.8"/>
    <path id="Trazado_893614" data-name="Trazado 893614" d="M267.2,101.314l-1.181.445a21.075,21.075,0,0,1,3.7-4.587c.224-.19,1.424-1.134,1.517-1.155.508-.113,3.317,1.681,4.253,1.453l-5.531,1.716a7.666,7.666,0,0,0-2.754,2.128c.843-.171,1.472-.973,2.273-1.425,1.492-.842,5.389-2.018,7.032-1.815l18,6.858,2.286,1.114-34.026,8.579c.542-.945.191-2.045.316-3.085.212-1.779,1.534-7.082,2.508-8.438a22.313,22.313,0,0,1,1.615-1.787" transform="translate(871.469 11301.805)" fill="#fff" opacity="0.8"/>
    <path id="Trazado_893615" data-name="Trazado 893615" d="M277.455,89.371c.048-.028-.047-.25,0-.3.065-.064.293.04.293.147,0,.187-.283.135-.293.148" transform="translate(866.239 11304.282)" fill="#fff" opacity="0.8"/>
    <path id="Trazado_893616" data-name="Trazado 893616" d="M275.493,72.5c-.455.6-.988,1.7-1.61,2.087-.549.34-1.05.181-1.3.343-.035.022-.1,1.078-.639.527-.156-.16,1.862-3.5,2.125-3.939,1.577-2.626,3.391-5.374,5.112-7.917a2.086,2.086,0,0,0,.174-.565c.045-.069,1.048.551,1.563.52a2.684,2.684,0,0,0,2.292-2.741c-.034-.746-.52-1.134-.569-1.523-.1-.8,4.605-5.993,5.415-7.216,1.009-1.525,1.451-1.722.014-2.943-2.265-1.924-5.743-3.353-8.236-5.374-.322-.261-.613-.293-.492-.838,1.321-.012,4.55-1.787,5.632-1.046.337.23,1.784,2.765,2.231,3.388,1.084,1.51,8.566,11.425,8.387,12.264-.124.579-5.256,3.579-6.171,4.2-.273.184-.579.657-.793.705-.324.072-1.029-.762-1.751-.864a2.9,2.9,0,0,0-2.2.444c-1.7,1.237-.462,3.535-.613,3.665-.074.063-.368.046-.551.187-2.43,1.878-5.577,4.875-8.017,6.346-.446.268-1.392.263-1.773,1.037Z" transform="translate(868.2 11321.148)" fill="#fff" opacity="0.8"/>
    <path id="Trazado_893617" data-name="Trazado 893617" d="M243.894,33.8a1.691,1.691,0,0,1,.231-1.1c.794-.866,4.134-7.342,4.676-7.467.309-.071.706.3.988.458a47.941,47.941,0,0,1,5.054,3.53c.179.621-1.946,1.948-2.374,2.354a31.438,31.438,0,0,1-3.147,3.073c-.782.234-3.363-.647-4.418-.823-.3-.05-.962.017-1.009-.024" transform="translate(878.199 11327.016)" fill="#fff" opacity="0.8"/>
    <path id="Trazado_893618" data-name="Trazado 893618" d="M280.668,32.153a.971.971,0,0,1,.486-.01c.39.108,3.262,4.4,3.747,5.15.2.305.475.215,0,.6l-5.651,1.485-5-3.265Z" transform="translate(867.375 11324.562)" fill="#fff" opacity="0.8"/>
    <path id="Trazado_893619" data-name="Trazado 893619" d="M253.105,37.455c1.565-2.042,3.658-3.542,5.511-5.3.832.46,6.621,3.868,6.617,4.262a17.148,17.148,0,0,1-3.1,2.223,4.686,4.686,0,0,1-1.166-.026c-2.525-.254-5.247-1.373-7.861-1.163" transform="translate(874.906 11324.547)" fill="#fff" opacity="0.8"/>
    <path id="Trazado_893620" data-name="Trazado 893620" d="M272.391,40.094c.4.343-.593,1.57-1.06,1.71-.874.263-2.074-.524-3.06-.256.343-.642,2.516-2.2,3.05-2.036.058.019,1.024.543,1.07.582" transform="translate(869.505 11321.932)" fill="#fff" opacity="0.8"/>
    <path id="Trazado_893621" data-name="Trazado 893621" d="M271.2,95.169c-.333-.052-.28.282-.3.3-.093.079-.324.079-.437.3a2.669,2.669,0,0,0-.155.592c-.717.324-.63,1.152-1.047,1.763a16.356,16.356,0,0,1-1.91,2.378l2.664-5.916c.539-.218.983.536,1.181.592" transform="translate(869.831 11302.33)" fill="#fff" opacity="0.8"/>
    <path id="Trazado_893622" data-name="Trazado 893622" d="M272.741,95.5c.318.09,1.008-.2,1.183.147L271.7,97.57a1.976,1.976,0,0,1,.149-.885c.576-.126.454-.6.592-.888.009-.019.347.043.3-.3" transform="translate(868.29 11301.997)" fill="#fff" opacity="0.8"/>
    <path id="Trazado_893623" data-name="Trazado 893623" d="M294.279,73.811c.227,1.015-.9.439-1.581.637-1.376.4-.846,2.776.692,2.617-.252.884-1.373-.212-1.611-.607-1.089-1.809.7-3.456,2.5-2.646" transform="translate(861.25 11309.787)" fill="#fff" opacity="0.8"/>
    <path id="Trazado_893624" data-name="Trazado 893624" d="M294.422,88.463c.084-.088,1.053.9,1.632.9.647,0,1-1,1.62-1.191a1.82,1.82,0,0,1-1.376,1.716c-.617.068-2.356-.914-1.876-1.421" transform="translate(860.22 11304.599)" fill="#fff" opacity="0.8"/>
    <path id="Trazado_893625" data-name="Trazado 893625" d="M276,67.36c.614.534-1.45,1.5-1.774.44-.263-.859,1.372-.79,1.774-.44" transform="translate(867.392 11312.097)" fill="#fff" opacity="0.8"/>
    <path id="Trazado_893626" data-name="Trazado 893626" d="M297.161,86.763a4.121,4.121,0,0,1-.309,1.169c-.165.183-1.472-.041-1.463-.431.007-.3,1.545-.973,1.772-.738" transform="translate(859.846 11305.116)" fill="#fff" opacity="0.8"/>
    <path id="Trazado_893627" data-name="Trazado 893627" d="M275.782,70.174c-.229.325-1.379.349-1.818.281-.8-.125-.7-.429-1.093-.975.353-.16.538.373,1.035.449a2.453,2.453,0,0,0,2.071-.594c.124.118-.156.785-.194.839" transform="translate(867.866 11311.306)" fill="#fff" opacity="0.8"/>
    <path id="Trazado_893628" data-name="Trazado 893628" d="M287.05,70.189a6.825,6.825,0,0,1-.009,1.321,1.808,1.808,0,0,1-1.765,1.635c.053-.5.666-.339,1.028-.892a1.948,1.948,0,0,0,.229-1.678c-.108-.648.4-.523.517-.386" transform="translate(863.448 11311.041)" fill="#fff" opacity="0.8"/>
    <path id="Trazado_893629" data-name="Trazado 893629" d="M293.841,77.258c.1-.384-.361-.73-.3-1.026.223-1.039,2.255.048.3,1.026" transform="translate(860.506 11309)" fill="#fff" opacity="0.8"/>
    <path id="Trazado_893630" data-name="Trazado 893630" d="M296.834,85.323c.428.328-1.328.417-1.478.293-.333-.276.965-.686,1.478-.293" transform="translate(859.877 11305.669)" fill="#fff" opacity="0.8"/>
    <path id="Trazado_893631" data-name="Trazado 893631" d="M203.274,329.006c-.194.236-.485-.357-.293-.59s.485.357.293.59" transform="translate(892.78 11219.053)" fill="#fff" opacity="0.8"/>
    <path id="Trazado_893632" data-name="Trazado 893632" d="M285.721,72.091c.415,0-.446.857-.442.442a2.93,2.93,0,0,1,.442-.442" transform="translate(863.447 11310.324)" fill="#fff" opacity="0.8"/>
    <path id="Trazado_893633" data-name="Trazado 893633" d="M253.716,110.632a2.129,2.129,0,0,0,.3-.592c.051-.122.182-.316.3-.592A53.454,53.454,0,0,0,259.258,96.5c.185-.67.834-4.041.966-4.211.106-.136,3.248.626,3.251,1.035,0,.23-1.831,3.4-2.125,4.085a64.826,64.826,0,0,0-3.474,12.5c-.093.816.179,2.939-.147,3.4-.43.609-5.339.936-6.235,1.753l1.99-3.644c.181-.226.142-.58.231-.791" transform="translate(875.479 11303.136)" fill="#fff" opacity="0.8"/>
    <path id="Trazado_893634" data-name="Trazado 893634" d="M250.3,107.33c-.146.249-.229.48-.3.592-.059.142-.19.341-.3.592-.079.1-.354.167-.547.475-.781,1.251-1.512,2.586-2.174,3.9l-6.744,1.688,5.027-28.251a65.454,65.454,0,0,1,6.885,2.139c.963.348,2.451.773,3.273,1.165.209.1.391.184.476.419-.819,2.754-1.394,5.6-2.268,8.339-.95,2.969-2.159,6.1-3.336,8.941" transform="translate(879.487 11305.254)" fill="#fff" opacity="0.8"/>
    <path id="Trazado_893635" data-name="Trazado 893635" d="M450.72,118.948c.543,1.394-1.069,7.494-1.447,9.645q-9.589,54.6-19.241,109.141c-.167.941-.233,2.115-.321,3.081l-.8-2.6c-4.911-34.426-9.636-68.793-11.335-103.438.231-1.054-.286-7.865.025-8.126.06-.051.59-.048.87-.156,1.969-.765,4.007-1.8,5.919-2.523.3-.113.866-.106,1.34-.285,1.53-.578,3.025-1.266,4.576-1.785-.064,5.865.085,11.745.015,17.614-.009.728-.315,1.317-.323,2.044-.162,15.383.149,30.775.014,46.159l.294,1.033-.012-32.7c1.286-10.365-.67-21.921.33-32.208a15.307,15.307,0,0,1,.281-1.642c.071-.088,1.515.046,1.927,0,.513-.052.964-.285,1.462-.313.428-.024,4-.192,4,.008v4.733a1.981,1.981,0,0,0,.592,0v-4.733c0-.08,1.228.029,1.609-.019,1.445-.181,2.959-.339,4.383-.647a20.189,20.189,0,0,0,5.844-2.292M438.293,135.66v28.249c.516.069.288-.674.3-1.034.1-5.029-.065-10.069-.015-15.1.029-2.928.175-5.888.324-8.848a31.434,31.434,0,0,0-.015-3.711c-.073-.09-.559.328-.59.444m0,48.067c.3-.364,0-8.17,0-9.466a.992.992,0,0,0-.3,0v9.466a1.137,1.137,0,0,0,.3,0m-8.285,31.65V204.729a.993.993,0,0,0-.3,0v10.649c0,.015.2-.008.3,0" transform="translate(816.358 11293.636)" fill="#fff" opacity="0.8"/>
    <path id="Trazado_893636" data-name="Trazado 893636" d="M424.433,121.2c-.635.243-1.664.37-2.447.659-1.459.54-2.91,1.145-4.358,1.707v-4.289c0-.1.325-.344.489-.4,10.582-2.21,20.92-5.4,31.466-7.735.062.322-.335.415-.59.59a3.5,3.5,0,0,0-.592.3,6.932,6.932,0,0,0-.887.3,6.083,6.083,0,0,0-.888.3,5.089,5.089,0,0,0-.9.131c-.328.12-.431.375-.575.461a4.77,4.77,0,0,0-.9.13c-.327.121-.419.361-.575.461a22.239,22.239,0,0,0-4.438,1.775c-5.16,1.6-9.829,3.721-14.794,5.62" transform="translate(816.31 11296.417)" fill="#fff" opacity="0.8"/>
    <path id="Trazado_893637" data-name="Trazado 893637" d="M456.194,111.531a6.778,6.778,0,0,0,.676-.056c.474-.155,1.96-1.152,2.282-.831.161.162-.626,3.879-.659,4.523-.034.24-.563.7-.525.8-2.018.375-3.92,1.465-5.9,1.939-3.616.867-7.991.518-11.712.715-.789.042-1.619.516-2.506.3l3.174-1.41a41.751,41.751,0,0,0,5.406-2.138,14.846,14.846,0,0,0,4.438-1.775,3.442,3.442,0,0,0,1.48-.592,4.172,4.172,0,0,0,1.48-.592c.421-.1.67-.235.887-.3a3.633,3.633,0,0,0,.888-.3,2.67,2.67,0,0,0,.592-.3" transform="translate(809.108 11296.616)" fill="#fff" opacity="0.8"/>
    <path id="Trazado_893638" data-name="Trazado 893638" d="M475.76,11.941c.2.164-.317.939-.454,1.151-6.068,9.3-16.312,16.857-17.8,28.641L452.854,68.44c-.341.514-1.505.194-2.1.27-6.116.776-12.225,1.631-18.344,2.366a35.777,35.777,0,0,1-6.055.6c-.069.516.675.285,1.033.294.682.016,1.371.024,2.053-.019l22.2-2.947c1.261-.46,1.339.8.688,1.428a7.632,7.632,0,0,1-1.643.576c-6.514,1.785-13.218,3.02-19.736,4.812-4.536-2.223-8.4-5.671-12.885-7.994-.111-.445.1-.485.294-.74,2.053-2.712,4.594-5.1,6.637-7.859,9.951-13.424,17.971-27.849,26.452-42.181,2.969-5.019,5.855-10.086,8.924-15.046Z" transform="translate(816.164 11335.286)" fill="#fff" opacity="0.8"/>
    <path id="Trazado_893639" data-name="Trazado 893639" d="M509.462,27.259c.109.093.039.676-.123.872-1.968,2.468-3.994,4.908-5.91,7.415-.148.194-.123.469-.184.557-.084.121-1.816-.853-2.865.082a6.292,6.292,0,0,0-.959,2.168c-.067.959.95,1.6.863,2-2.055,2.966-4.344,5.784-5.894,9.065l.021-2.494c.721-2.31.661-5.077,1.226-7.353.393-1.586,2.428-.936,2.842-2.778.973-4.326-6.323-4.39-4.927.3.228.765,1.552,1.236,1.683,1.42.427.6-.914,6.339-1.119,7.52-.194,1.122-.131,2.633-.379,3.762-.174.8-.692,1.475-.826,2.282-3.048-1.037-6.088-2.152-9.166-3.111a30.437,30.437,0,0,0-5.034-1.325l5.1,1.854c.865.281,4.806,1.256,5.131,1.682.1.132.173.234.093.4-1.42,4.356-2.83,8.723-4.471,13-.478,1.248-3.569,9.3-4.26,9.4-1.051.151-2.3.231-3.364.284l1.042.3,2.21-.01c-.856.256-6.227,1.771-6.507,1.481a6.608,6.608,0,0,1,.02-1.31c.552-5.133,1.99-10.615,2.914-15.722,1.564-8.639,1.842-17.18,7.592-24.357l12.438-15.387c.892-.261,3.3,2.045,4.153,2.6,2.28,1.48,4.545,2.917,6.806,4.437.44.3,1.583.717,1.859.953m-12.705,5.894,2.071-11.831-.863,2.243c-.259,2.908-1.03,5.746-1.429,8.629-.045.33-.337,1.013.221.96" transform="translate(796.356 11329.145)" fill="#fff" opacity="0.8"/>
    <path id="Trazado_893640" data-name="Trazado 893640" d="M406.742,126.38l-.577-13.295c2.064-.429,4.224-.394,6.327-.626.983-.108,1.962-.194,2.958-.3a26.284,26.284,0,0,1,3.553-.578c.695.07,5.761,3.36,5.784,3.7.041.626-11.082,2.512-12.136,3.246-.809.782.173,4.6-.425,5.491-.482.717-4.518,1.744-5.484,2.355" transform="translate(820.393 11296.262)" fill="#fff" opacity="0.8"/>
    <path id="Trazado_893641" data-name="Trazado 893641" d="M489.314,90.6c-.839.241-1.332.5-2.068.742-.379.126-2.338.869-2.072,0,.28-.911,1.38-2.457,1.83-3.5.268-.62.508-1.27.763-1.9A159.889,159.889,0,0,0,493.462,69.3c.267-.334,3.3.866,3.248,1.03-2.445,4.744-5.053,10.946-5.6,16.291-.066.641.1,2.836-.052,3.054-.142.2-1.706.385-1.743.919.156-.045.429.006.677-.053.319-.075,1.035-.6,1.1-.538.63.61-1.924,1.445-2.365,1.182Z" transform="translate(792.262 11311.338)" fill="#fff" opacity="0.8"/>
    <path id="Trazado_893642" data-name="Trazado 893642" d="M509.458,43.1c.4-.447,1.747,1.158.854,2.482-.3.442-.677.418-1,.768l.469-1.627c.164-.4-.469-1.454-.319-1.623" transform="translate(783.658 11320.676)" fill="#fff" opacity="0.8"/>
    <path id="Trazado_893643" data-name="Trazado 893643" d="M507.936,43.983c.189.187,0,2.072-.737,1.773-1.194-.482.043-2.461.737-1.773" transform="translate(784.586 11320.387)" fill="#fff" opacity="0.8"/>
    <path id="Trazado_893644" data-name="Trazado 893644" d="M515.531,49.153c-.342.057-.8-1.24-.8-1.329a3.3,3.3,0,0,1,1.389-1.924c-.354,1.263-1.026,1.836-.592,3.253" transform="translate(781.725 11319.652)" fill="#fff" opacity="0.8"/>
    <path id="Trazado_893645" data-name="Trazado 893645" d="M517.043,48.656a.148.148,0,0,1,0,.3.148.148,0,0,1,0-.3" transform="translate(780.954 11318.671)" fill="#fff" opacity="0.8"/>
    <path id="Trazado_893646" data-name="Trazado 893646" d="M35.123,98.132c-7.332,1.346-14.427,3.677-21.7,5.272C12.054,102.2.808,95.79.811,95.033c0-.1,1.227-1.189,1.477-1.478C16.531,77.087,26.806,56.527,38.143,38c1.57-2.566,3.3-5.041,4.719-7.7l.7-.5,15.2,10.218c-1.378,1.874-2.611,3.873-3.981,5.75C47,56.428,41.59,62.165,38.225,75.647c-1.825,7.314-1.988,15.047-3.1,22.485" transform="translate(964.762 11325.389)" fill="#fff" opacity="0.8"/>
    <path id="Trazado_893647" data-name="Trazado 893647" d="M69.541,100.348l-13.586,3.278.869-6.377c.7-13,3.861-24.942,11.433-35.6,2.949-4.153,6.337-8.715,9.466-12.722.351-.449,1.585-2.127,2-2.06l12.586,8.4c.024.534-3.231,4-3.811,4.737-7.87,9.96-17.886,24.666-18.944,37.559-.076.921.1,1.873-.016,2.793" transform="translate(945.122 11319.31)" fill="#fff" opacity="0.8"/>
    <path id="Trazado_893648" data-name="Trazado 893648" d="M59.586,237.48c.182.182-.251,1.031-.277,1.349a58.693,58.693,0,0,0,.594,12.386c.138.931,1.675,5.854,1.451,6.071a5.159,5.159,0,0,0-.789.24c-3.5,2.182-6.822,4.639-10.3,6.868l-4.882-25.729Z" transform="translate(948.887 11251.42)" fill="#fff" opacity="0.8"/>
    <path id="Trazado_893649" data-name="Trazado 893649" d="M58.451,308.194c.191.133-1.275,2.257-1.181,2.35.362.362.773-.44.949-.677.363-.487.485-1.262.954-1.08l12.585,8.438c.147.637-3.873,5.172-4.555,6.06-1.414,1.839-3.2,4.014-4.444,5.91-1.891,2.879-4.981,10.94-6.007,14.4-1.411,4.768-.966,12.406,0,17.305.173.876,1.341,3.872.98,4.372-10.2,6.847-20.574,13.46-30.54,20.651l-1.364-.024-13.533-3.479,8.661-35.268c3.8-13.57,8.669-26.881,15.546-39.181,1.858-3.322,4.059-6.473,5.827-9.853l.59,0Z" transform="translate(960.672 11229.823)" fill="#fff" opacity="0.8"/>
    <path id="Trazado_893650" data-name="Trazado 893650" d="M32.907,220.511l-19.232-1.479,8.581-23.368a3.513,3.513,0,0,1,1.556.367c3.723,1.234,8.436,3.2,12.052,4.811.361.16,2.076.943,2.07,1.181,0,.042-.409.409-.541.639-2.071,3.589-4.407,12.46-4.726,16.6-.039.5.213.789.24,1.248" transform="translate(960.18 11266.317)" fill="#fff" opacity="0.8"/>
    <path id="Trazado_893651" data-name="Trazado 893651" d="M291.024,94.984a5.623,5.623,0,0,1-1.182,0c-.118-.117-.076-1.619.445-1.774.79-.234.909,1.6.737,1.774" transform="translate(861.842 11302.81)" fill="#fff" opacity="0.8"/>
    <path id="Trazado_893652" data-name="Trazado 893652" d="M292.624,95.26c-.109-.632.6-1.044.6-1.631-.006-.542-.937-.86-.453-1.326a1.685,1.685,0,0,1-.146,2.957" transform="translate(860.835 11303.126)" fill="#fff" opacity="0.8"/>
    <path id="Trazado_893653" data-name="Trazado 893653" d="M91.456,367.545a1.91,1.91,0,0,1,2.452,2.142c-.3,3.212-4.479,1.778-3.509-1.418.1-.339.708-.65,1.057-.724m-.207,1.132c-.531-.449-.834.591-.59.886.2.247.637-.846.59-.886m1.479,0a5.94,5.94,0,0,0-1.182,0c-.176.146,1.129.948,1.181.887a4.393,4.393,0,0,0,0-.887m0,1.776c-.3-.241-1.04.467-.888.589.3.24,1.04-.467.888-.589" transform="translate(932.907 11205.117)" fill="#fff" opacity="0.8"/>
    <path id="Trazado_893654" data-name="Trazado 893654" d="M449.8,144.654c.032-.116.518-.534.59-.444a31.152,31.152,0,0,1,.015,3.711c-.149,2.959-.295,5.919-.324,8.847-.05,5.03.117,10.071.015,15.1-.008.359.22,1.1-.3,1.034Z" transform="translate(804.853 11284.644)" fill="#161615" opacity="0.8"/>
    <path id="Trazado_893655" data-name="Trazado 893655" d="M436.766,262.823c-.094-.008-.3.015-.3,0V252.175a.993.993,0,0,1,.3,0Z" transform="translate(809.6 11246.19)" fill="#161615" opacity="0.8"/>
    <path id="Trazado_893656" data-name="Trazado 893656" d="M449.634,214.32a1.11,1.11,0,0,1-.3,0v-9.466a.992.992,0,0,1,.3,0c0,1.3.3,9.1,0,9.466" transform="translate(805.017 11263.044)" fill="#161615" opacity="0.8"/>
    <path id="Trazado_893657" data-name="Trazado 893657" d="M509.351,34.3c-.558.053-.266-.63-.221-.96.4-2.882,1.171-5.721,1.429-8.629l.863-2.243Z" transform="translate(783.763 11327.997)" fill="#161615" opacity="0.8"/>
    <path id="Trazado_893658" data-name="Trazado 893658" d="M93.434,369.319a4.34,4.34,0,0,1,0,.887c-.051.062-1.357-.74-1.181-.886a5.908,5.908,0,0,1,1.183,0" transform="translate(932.201 11204.476)" fill="#161615" opacity="0.8"/>
    <path id="Trazado_893659" data-name="Trazado 893659" d="M93.595,372.066c.153.122-.587.829-.888.589-.153-.122.587-.83.888-.589" transform="translate(932.04 11203.505)" fill="#161615" opacity="0.8"/>
    <path id="Trazado_893660" data-name="Trazado 893660" d="M91.426,369.275c.047.04-.387,1.132-.59.885-.243-.295.059-1.335.59-.885" transform="translate(932.729 11204.521)" fill="#161615" opacity="0.8"/>
    <path id="Trazado_893661" data-name="Trazado 893661" d="M81.23,232.393l.887-.886a.742.742,0,0,1-.887.886" transform="translate(936.12 11253.548)" fill="#161615" opacity="0.8"/>
    <path id="Trazado_894381" data-name="Trazado 894381" d="M0,0H404.667V280.932H0Z" transform="translate(965.051 11336)" fill="none" opacity="0.8"/>
    <path id="Trazado_894382" data-name="Trazado 894382" d="M1.207-4.277l.434-4.254H6.012v1H2.561L2.3-5.2a2.753,2.753,0,0,1,1.424-.369A2.354,2.354,0,0,1,5.578-4.8a3.02,3.02,0,0,1,.686,2.083A2.915,2.915,0,0,1,5.552-.642,2.6,2.6,0,0,1,3.563.117,2.7,2.7,0,0,1,1.717-.51,2.5,2.5,0,0,1,.9-2.244H1.928a1.722,1.722,0,0,0,.521,1.1,1.621,1.621,0,0,0,1.113.372,1.463,1.463,0,0,0,1.187-.516A2.156,2.156,0,0,0,5.18-2.707a1.978,1.978,0,0,0-.466-1.374A1.584,1.584,0,0,0,3.475-4.6a1.787,1.787,0,0,0-1.113.311l-.287.234Z" transform="translate(1015.5 11359.333)" fill="#12263f" opacity="0.8"/>
    <path id="Trazado_894383" data-name="Trazado 894383" d="M1.207-4.277l.434-4.254H6.012v1H2.561L2.3-5.2a2.753,2.753,0,0,1,1.424-.369A2.354,2.354,0,0,1,5.578-4.8a3.02,3.02,0,0,1,.686,2.083A2.915,2.915,0,0,1,5.552-.642,2.6,2.6,0,0,1,3.563.117,2.7,2.7,0,0,1,1.717-.51,2.5,2.5,0,0,1,.9-2.244H1.928a1.722,1.722,0,0,0,.521,1.1,1.621,1.621,0,0,0,1.113.372,1.463,1.463,0,0,0,1.187-.516A2.156,2.156,0,0,0,5.18-2.707a1.978,1.978,0,0,0-.466-1.374A1.584,1.584,0,0,0,3.475-4.6a1.787,1.787,0,0,0-1.113.311l-.287.234Z" transform="translate(1084.5 11569.333)" fill="#12263f" opacity="0.8"/>
    <path id="Trazado_894384" data-name="Trazado 894384" d="M1.207-4.277l.434-4.254H6.012v1H2.561L2.3-5.2a2.753,2.753,0,0,1,1.424-.369A2.354,2.354,0,0,1,5.578-4.8a3.02,3.02,0,0,1,.686,2.083A2.915,2.915,0,0,1,5.552-.642,2.6,2.6,0,0,1,3.563.117,2.7,2.7,0,0,1,1.717-.51,2.5,2.5,0,0,1,.9-2.244H1.928a1.722,1.722,0,0,0,.521,1.1,1.621,1.621,0,0,0,1.113.372,1.463,1.463,0,0,0,1.187-.516A2.156,2.156,0,0,0,5.18-2.707a1.978,1.978,0,0,0-.466-1.374A1.584,1.584,0,0,0,3.475-4.6a1.787,1.787,0,0,0-1.113.311l-.287.234Z" transform="translate(1238.5 11557.333)" fill="#12263f" opacity="0.8"/>
    <path id="Trazado_894385" data-name="Trazado 894385" d="M5.285-2.865H6.469v.885H5.285V0H4.2V-1.98H.311v-.639l3.82-5.912H5.285Zm-3.744,0H4.2V-7.049l-.129.234Z" transform="translate(1029.5 11367.333)" fill="#12263f" opacity="0.8"/>
    <path id="Trazado_894386" data-name="Trazado 894386" d="M4.271,0H3.182V-7.225L1-6.422v-.984L4.1-8.572h.17Z" transform="translate(1058.5 11396.985)" fill="#12263f" opacity="0.8"/>
    <path id="Trazado_894387" data-name="Trazado 894387" d="M6.3,0H.709V-.779L3.662-4.061a7.016,7.016,0,0,0,.905-1.21,2.019,2.019,0,0,0,.249-.964,1.531,1.531,0,0,0-.4-1.1,1.414,1.414,0,0,0-1.078-.428,1.674,1.674,0,0,0-1.257.46,1.757,1.757,0,0,0-.448,1.28H.545a2.516,2.516,0,0,1,.759-1.9,2.813,2.813,0,0,1,2.03-.727,2.7,2.7,0,0,1,1.881.624,2.129,2.129,0,0,1,.691,1.661,4.88,4.88,0,0,1-1.605,3L2.016-.885H6.3Z" transform="translate(1101.5 11443.985)" fill="#12263f" opacity="0.8"/>
    <path id="Trazado_894388" data-name="Trazado 894388" d="M6.3,0H.709V-.779L3.662-4.061a7.016,7.016,0,0,0,.905-1.21,2.019,2.019,0,0,0,.249-.964,1.531,1.531,0,0,0-.4-1.1,1.414,1.414,0,0,0-1.078-.428,1.674,1.674,0,0,0-1.257.46,1.757,1.757,0,0,0-.448,1.28H.545a2.516,2.516,0,0,1,.759-1.9,2.813,2.813,0,0,1,2.03-.727,2.7,2.7,0,0,1,1.881.624,2.129,2.129,0,0,1,.691,1.661,4.88,4.88,0,0,1-1.605,3L2.016-.885H6.3Z" transform="translate(1318.5 11390.985)" fill="#12263f" opacity="0.8"/>
    <path id="Trazado_894389" data-name="Trazado 894389" d="M6.3,0H.709V-.779L3.662-4.061a7.016,7.016,0,0,0,.905-1.21,2.019,2.019,0,0,0,.249-.964,1.531,1.531,0,0,0-.4-1.1,1.414,1.414,0,0,0-1.078-.428,1.674,1.674,0,0,0-1.257.46,1.757,1.757,0,0,0-.448,1.28H.545a2.516,2.516,0,0,1,.759-1.9,2.813,2.813,0,0,1,2.03-.727,2.7,2.7,0,0,1,1.881.624,2.129,2.129,0,0,1,.691,1.661,4.88,4.88,0,0,1-1.605,3L2.016-.885H6.3Z" transform="translate(1251.5 11427.985)" fill="#12263f" opacity="0.8"/>
    <path id="Trazado_894390" data-name="Trazado 894390" d="M5.249,0H.591V-.649L3.052-3.384a5.847,5.847,0,0,0,.754-1.008,1.683,1.683,0,0,0,.208-.8,1.276,1.276,0,0,0-.337-.913,1.178,1.178,0,0,0-.9-.356,1.4,1.4,0,0,0-1.047.383,1.464,1.464,0,0,0-.374,1.067h-.9A2.1,2.1,0,0,1,1.086-6.6a2.344,2.344,0,0,1,1.692-.605,2.252,2.252,0,0,1,1.567.52A1.774,1.774,0,0,1,4.922-5.3,4.067,4.067,0,0,1,3.584-2.8L1.68-.737H5.249Z" transform="translate(1160.384 11387.985)" fill="#12263f" opacity="0.8"/>
    <path id="Trazado_894391" data-name="Trazado 894391" d="M5.249,0H.591V-.649L3.052-3.384a5.847,5.847,0,0,0,.754-1.008,1.683,1.683,0,0,0,.208-.8,1.276,1.276,0,0,0-.337-.913,1.178,1.178,0,0,0-.9-.356,1.4,1.4,0,0,0-1.047.383,1.464,1.464,0,0,0-.374,1.067h-.9A2.1,2.1,0,0,1,1.086-6.6a2.344,2.344,0,0,1,1.692-.605,2.252,2.252,0,0,1,1.567.52A1.774,1.774,0,0,1,4.922-5.3,4.067,4.067,0,0,1,3.584-2.8L1.68-.737H5.249Z" transform="translate(1166.384 11396.485)" fill="#12263f" opacity="0.8"/>
    <path id="Trazado_894392" data-name="Trazado 894392" d="M1.006-3.564l.361-3.545H5.01v.835H2.134L1.919-4.336a2.294,2.294,0,0,1,1.187-.308A1.961,1.961,0,0,1,4.648-4,2.516,2.516,0,0,1,5.22-2.266,2.429,2.429,0,0,1,4.626-.535,2.162,2.162,0,0,1,2.969.1,2.247,2.247,0,0,1,1.431-.425,2.085,2.085,0,0,1,.752-1.87h.854a1.435,1.435,0,0,0,.435.92,1.351,1.351,0,0,0,.928.31,1.219,1.219,0,0,0,.989-.43,1.8,1.8,0,0,0,.359-1.187A1.649,1.649,0,0,0,3.928-3.4,1.32,1.32,0,0,0,2.9-3.833a1.489,1.489,0,0,0-.928.259l-.239.2ZM6.318-.474a.566.566,0,0,1,.139-.391.53.53,0,0,1,.417-.156A.546.546,0,0,1,7.3-.864a.554.554,0,0,1,.144.391A.524.524,0,0,1,7.3-.1a.556.556,0,0,1-.422.151A.54.54,0,0,1,6.458-.1.535.535,0,0,1,6.318-.474ZM9.253-3.564l.361-3.545h3.643v.835H10.381l-.215,1.938a2.294,2.294,0,0,1,1.187-.308A1.961,1.961,0,0,1,12.9-4a2.516,2.516,0,0,1,.571,1.736,2.429,2.429,0,0,1-.593,1.731A2.162,2.162,0,0,1,11.216.1,2.247,2.247,0,0,1,9.678-.425,2.085,2.085,0,0,1,9-1.87h.854a1.435,1.435,0,0,0,.435.92,1.351,1.351,0,0,0,.928.31,1.219,1.219,0,0,0,.989-.43,1.8,1.8,0,0,0,.359-1.187A1.649,1.649,0,0,0,12.175-3.4a1.32,1.32,0,0,0-1.033-.432,1.489,1.489,0,0,0-.928.259l-.239.2Z" transform="translate(1179.384 11409.485)" fill="#12263f" opacity="0.8"/>
    <path id="Trazado_894393" data-name="Trazado 894393" d="M5.249,0H.591V-.649L3.052-3.384a5.847,5.847,0,0,0,.754-1.008,1.683,1.683,0,0,0,.208-.8,1.276,1.276,0,0,0-.337-.913,1.178,1.178,0,0,0-.9-.356,1.4,1.4,0,0,0-1.047.383,1.464,1.464,0,0,0-.374,1.067h-.9A2.1,2.1,0,0,1,1.086-6.6a2.344,2.344,0,0,1,1.692-.605,2.252,2.252,0,0,1,1.567.52A1.774,1.774,0,0,1,4.922-5.3,4.067,4.067,0,0,1,3.584-2.8L1.68-.737H5.249Z" transform="translate(1154.384 11380.985)" fill="#12263f" opacity="0.8"/>
    <path id="Trazado_894394" data-name="Trazado 894394" d="M1.9-3.994h.679a1.492,1.492,0,0,0,1.006-.337,1.126,1.126,0,0,0,.366-.884A1.1,1.1,0,0,0,2.71-6.465a1.3,1.3,0,0,0-.935.334,1.171,1.171,0,0,0-.349.886h-.9a1.814,1.814,0,0,1,.618-1.4,2.25,2.25,0,0,1,1.57-.559,2.224,2.224,0,0,1,1.577.532A1.923,1.923,0,0,1,4.858-5.2a1.561,1.561,0,0,1-.3.9,1.813,1.813,0,0,1-.818.649,1.747,1.747,0,0,1,.906.615,1.709,1.709,0,0,1,.32,1.05A1.939,1.939,0,0,1,4.341-.464,2.34,2.34,0,0,1,2.715.1,2.4,2.4,0,0,1,1.086-.444,1.8,1.8,0,0,1,.459-1.875h.908a1.162,1.162,0,0,0,.366.9,1.393,1.393,0,0,0,.981.337,1.367,1.367,0,0,0,1-.342,1.317,1.317,0,0,0,.347-.981,1.2,1.2,0,0,0-.381-.952,1.659,1.659,0,0,0-1.1-.342H1.9Z" transform="translate(1146.384 11375.985)" fill="#12263f" opacity="0.8"/>
    <path id="Trazado_894395" data-name="Trazado 894395" d="M1.9-3.994h.679a1.492,1.492,0,0,0,1.006-.337,1.126,1.126,0,0,0,.366-.884A1.1,1.1,0,0,0,2.71-6.465a1.3,1.3,0,0,0-.935.334,1.171,1.171,0,0,0-.349.886h-.9a1.814,1.814,0,0,1,.618-1.4,2.25,2.25,0,0,1,1.57-.559,2.224,2.224,0,0,1,1.577.532A1.923,1.923,0,0,1,4.858-5.2a1.561,1.561,0,0,1-.3.9,1.813,1.813,0,0,1-.818.649,1.747,1.747,0,0,1,.906.615,1.709,1.709,0,0,1,.32,1.05A1.939,1.939,0,0,1,4.341-.464,2.34,2.34,0,0,1,2.715.1,2.4,2.4,0,0,1,1.086-.444,1.8,1.8,0,0,1,.459-1.875h.908a1.162,1.162,0,0,0,.366.9,1.393,1.393,0,0,0,.981.337,1.367,1.367,0,0,0,1-.342,1.317,1.317,0,0,0,.347-.981,1.2,1.2,0,0,0-.381-.952,1.659,1.659,0,0,0-1.1-.342H1.9Z" transform="translate(1296.384 11361.985)" fill="#12263f" opacity="0.8"/>
  </g>
</svg>
