<svg xmlns="http://www.w3.org/2000/svg" xmlns:xlink="http://www.w3.org/1999/xlink" width="544" height="260" viewBox="0 0 544 260">
  <defs>
    <clipPath id="clip-path">
      <rect id="Rectángulo_402436" data-name="Rectángulo 402436" width="464.5" height="217.075" fill="none"/>
    </clipPath>
  </defs>
  <g id="Grupo_1102579" data-name="Grupo 1102579" transform="translate(-213.051 -14423)">
    <g id="Grupo_1102578" data-name="Grupo 1102578">
      <g id="Grupo_1102577" data-name="Grupo 1102577">
        <path id="Imagen_3_upscayl_4x_digital-art-4x" data-name="Imagen 3_upscayl_4x_digital-art-4x" d="M20,0H524a20,20,0,0,1,20,20V240a20,20,0,0,1-20,20H20A20,20,0,0,1,0,240V20A20,20,0,0,1,20,0Z" transform="translate(213.051 14423)" fill="#fff"/>
        <g id="Grupo_1102531" data-name="Grupo 1102531" transform="translate(253.051 14444)" clip-path="url(#clip-path)">
          <path id="Trazado_893751" data-name="Trazado 893751" d="M676.221,21.982c.155.1.069.107.364.182a13.3,13.3,0,0,0,4.01,2.1,154.663,154.663,0,0,0,22.387,6.607c2.122.438,4.4.522,6.475,1,.2.046.725.076.684.319-1.365.042-2.745-.052-4.111-.007-5.529.183-11.234.331-16.763.38-5.926.051-11.888.015-17.8-.09-3.125-1.985-6.13-4.206-9.119-6.38-1.748-1.272-3.724-2.555-5.373-3.925a1.431,1.431,0,0,1-.453-.549c2.339-.04,4.688.048,7.029.007,2.3-.041,4.42-.078,6.732,0a33.183,33.183,0,0,1,5.935.357" transform="translate(-274.274 -9.015)" fill="#fff"/>
          <path id="Trazado_893752" data-name="Trazado 893752" d="M463.526,23c5.56-1.152,11.418-.133,17.046-.723l1.008.357a11.129,11.129,0,0,0-2.068.941,5.857,5.857,0,0,0-1.215.883c-.318.058-.283.143-.364.182-.133.063-.264.136-.365.182s-.207.091-.365.182c-.154.071-.272.139-.364.182-5.7,2.669-11.184,5.876-16.875,8.563-9.378.1-18.708.051-28.088.18-.315,0-.582.193-.9.2-2.706.043-5.419-.047-8.123-.008.386-.695,1.322-.458,1.91-.551,4.062-.643,11.492-1.891,15.051-3.458,6.08-.83,11.8-3.4,17.685-5.018,2.016-.555,4.285-.8,6.023-2.092" transform="translate(-176.656 -9.309)" fill="#fff"/>
          <path id="Trazado_893753" data-name="Trazado 893753" d="M505.778,24.458c1.708-.314,2.672-1.746,4.29-2,.229-.036,1.206-.186,1.272-.186h12.31c-.281.593-.933.89-1.371,1.273-3.139,2.749-6.278,5.537-9.478,8.209a12.921,12.921,0,0,1-2.558,1.818c-3.04.046-6.084-.052-9.124-.006-.316,0-.582.193-.9.2-3.861.052-7.729-.054-11.588-.008.042-.279.341-.342.545-.457,4.983-2.791,10.251-5.23,15.139-8.111.074-.044.214-.095.365-.182.147-.068.271-.139.365-.182.108-.057.252-.127.365-.182s.144.031.364-.182" transform="translate(-204.135 -9.304)" fill="#fff"/>
          <path id="Trazado_893754" data-name="Trazado 893754" d="M493.211,5.128c.646-.834,4.469-1.986,5.527-2.952l1.4-.511c-.39.017-.789-.034-1.179.006-3.813.387-6.545,1.745-10.123,2.824-.995.3-2.019.518-3.016.815l-.01-.193c2.834-.929,5.713-1.735,8.494-2.814.2-.076.728-.225.728-.456-.456.009-.916-.012-1.375-.008a32.631,32.631,0,0,0-3.283.182c-2.61.307-5.273,1.528-7.879,2.151-1.608.384-3.278.565-4.888.947l-1.358.01c2.917-.628,5.907-1,8.758-1.91a6.973,6.973,0,0,0,1.093-.366c.193-.142.2-.548.47-.623.415-.118,1.235-.093,1.714-.2.043-.317-.418-.179-.638-.181a6.952,6.952,0,0,0-.737-.008c-.79.082-1.736.475-2.552.548s-1.771-.1-2.546.008c-.622.087-1.272.426-2.184.551-6.069.834-12.18,1.308-18.237,2.005-1.346.155-2.858.461-4.193.548-.35.023-.745,0-1.1-.007-.222-.005-.681.136-.638-.182l2.639-.189c4.305-.809,8.636-.95,12.948-1.458,4-.472,8.016-1.211,12.048-1.629.507-.052,1.036.024,1.544-.006l-1.907-.372c-29.612.272-59.229.045-88.814.562-2.462.043-4.933-.047-7.393-.008l.641-.361c9.12-.059,18.241.064,27.36,0,22.033-.144,44.137-.791,66.2-.562,3.544.037,7.168.316,10.76.2,4.368-.143,8.749-1.148,13.131-.926,1.7.086,3.753.706,5.422.5a22.15,22.15,0,0,1,4.411-.12c7.9.249,15.8.124,23.723,0,22.7-.356,45.492-.73,68.192-.926,6.536-.057,13.078.057,19.612.008L623.887.4c-4.861-.163-9.77.108-14.59.182-21.936.338-43.909.366-65.836.729a86.512,86.512,0,0,0-9.132.169c-.33.041-.668-.01-1,.006l1.008.358c8.464.677,16.913,1.28,25.338,2.381l1.92.359c-.695-.034-1.411.047-2.1.008a23.291,23.291,0,0,1-4.47-.454c-.26-.089-.5-.411-.653-.444-.073-.015-1.015.02-1.44-.016-5.125-.437-10.215-.859-15.319-1.276-1.739-.141-3.163-.568-4.742-.728-1.762-.179-3.766.118-5.556-.006l8.8,2.228c.633.221,1.272.428,1.906.649.468.162.348.248-.047.229a9.11,9.11,0,0,1-1.231-.229c-2.671-.636-5.354-1.355-8.024-2.005-.39-.1-1.716-.689-1.864-.689H523.3l5.9,2.4.214.516c-2.141-.757-4.274-2.084-6.466-2.651a33.658,33.658,0,0,0-5.928-.638c-.826-.034-1.728-.009-2.561.008-.221,0-.681-.135-.638.182l2.194.451a57.68,57.68,0,0,1,14.86,8.662c.234.193,1.184,1.279,1.274,1.279H541.9a10.568,10.568,0,0,0-1.833-1.539,58.068,58.068,0,0,0-6.976-4.329,14.1,14.1,0,0,0-2.417-1.049c-.507-.093-.482-.22.016-.2.813.036,3.322,1.391,4.161,1.858,2.534,1.412,4.95,3.234,7.351,4.865,1.141.551,3.07.443,4.357.4,4.056-.136,8.13-.11,12.212-.19.221,0,.681.136.638-.182a26.52,26.52,0,0,1-3.049-1.237C552.346,8.944,548,7.4,543.914,6.126c-1.281-.4-2.608-.674-3.909-1a.186.186,0,0,1-.015-.362c3.07.758,6.041,1.8,9.022,2.831,3.923,1.361,7.864,2.832,11.772,4.275,3.891-.029,7.784.051,11.674.012,8.413-.084,16.922-.463,25.335-.562,5.691-.067,11.707.309,17.34.015a7.389,7.389,0,0,1,2.09-.19c.043-.317-.417-.178-.638-.182-.362-.006-.727.024-1.089-.006-8.983-.752-18-2.554-27-3.45-7.475-.744-14.932-2.068-22.418-2.566l-.918-.359,3.276.188c5.9.457,11.749,1.549,17.691,2.187,11.339,1.218,22.765,2.905,34.115,4.181.541.061,1.183-.192,1.545.281l-2.765,4.709A202.92,202.92,0,0,0,602.176,49.06c-2.689,6.6-4.958,13.3-7.059,20.106-1.669,5.41-3.447,11-4.844,16.487-2.221,8.717-4.152,17.648-6.014,26.438-1.068,5.047-2.019,10.091-3.1,15.131-.35,1.63-.5,3.244-.78,4.872-.169,1-.338,2.082-.582,3.064-.043.171-.09.544-.324.5l1.468-9.2c3.432-15.419,6.046-31.236,10.472-46.41.844-2.891,2.02-5.7,2.643-8.66a60.463,60.463,0,0,1,1.916-6.288,236.02,236.02,0,0,1,20.552-45.814c1.131-1.92,2.516-3.752,3.588-5.71a7.49,7.49,0,0,0,.759-1.7c-.056-.053-1.24.019-1.544-.006a34.484,34.484,0,0,0-4.026-.184c-14.97.46-30.07.466-45.031.744-2.462.046-4.933-.049-7.393-.007.063.2.377.436.547.547a33.24,33.24,0,0,0-5.935-.357c-2.312-.077-4.434-.041-6.733,0-2.341.042-4.689-.047-7.029-.007a1.428,1.428,0,0,0,.453.549c1.649,1.371,3.626,2.654,5.374,3.926,2.988,2.174,5.993,4.4,9.119,6.38,5.91.1,11.872.141,17.8.09,5.529-.048,11.235-.2,16.763-.38,1.367-.045,2.746.049,4.111.007.042-.243-.484-.274-.683-.319-2.075-.479-4.353-.564-6.476-1A154.686,154.686,0,0,1,567.8,15.247a13.306,13.306,0,0,1-4.01-2.1,40.321,40.321,0,0,1,4.377,1.914,133.585,133.585,0,0,0,26.712,7.206,67.353,67.353,0,0,0,6.929.913c.364.023,2.028-.08,2.105-.007.2.187-.326,1.679-.455,2.007-.361.918-1,1.74-1.406,2.605-2.139,4.575-4.226,10.066-5.943,14.842-1.425,3.964-2.515,8.045-3.829,12.032a226.5,226.5,0,0,0-7.329,29.316c-2.492,13.544-5.064,27.163-6.577,40.823a39.89,39.89,0,0,0-1.088,6.842l-.189-.828.366-2.186.194-3.087c1.163-5.658,1.737-11.427,2.552-17.137.741-5.181,1.824-10.341,2.724-15.507.533-3.056,1.05-5.6,1.793-8.6.506-2.042.578-4.24.989-6.3,1.16-5.829,2.833-11.713,4.473-17.4a243.7,243.7,0,0,1,11.807-33.408c.555-1.223,1.289-2.369,1.734-3.643l-43.952.547L561.9,25.7a28.9,28.9,0,0,1,4.2,2.551c4.146,2.418,8.668,3.889,13.195,5.406a20.247,20.247,0,0,0,5.372,1.011c.527.327,2.54.278,2.823.55a2.054,2.054,0,0,1-.027.776c-.443,2.16-1.251,4.3-1.743,6.461-1.373,6.035-2.5,12.107-3.7,18.175-.456,2.3-1.288,4.65-1.626,6.943-.037.248.031.507,0,.731a6.872,6.872,0,0,0-.19,2.088l-.19-1.556a9.3,9.3,0,0,0,.2-2.539c.192-1.934,1.164-4.442,1.589-6.432,1.344-6.292,2.559-12.582,3.92-18.869.15-.694,1.434-5.23,1.232-5.422l-31.915.364c-.076.313.119.363.273.547,2.005,2.408,7.409,6.494,10.177,8.056a28,28,0,0,0,6.243,2.692c.433.084.914-.179,1,.458-.1,3.34.115,6.7,0,10.038-.013.4-.183.718-.012,1.088l-.543.819V47.786H551.661l-.638.273a67.772,67.772,0,0,0,4.83,5.2,24.924,24.924,0,0,0,7.934,4.647,14.389,14.389,0,0,0,5.473,1L570.343,212.3c-.221.432-.433.1-.8.094-5.12-.061-10.078-.93-15.153-1.26a174.446,174.446,0,0,0-28.631.351q-7.571.764-15.137,1.458c-7.5.7-14.931,2.3-22.431,3.282-14.809,1.946-29.542.323-44.138-2.537-.546-.151-1.517-.079-1.979-.209a.478.478,0,0,1-.273-.274c-.075-4.127.037-8.259-.01-12.386-.09-7.9-.314-15.965-.38-23.866-.322-38.838-.332-77.666-.717-116.492.21-1.63,1.462-1.525,2.46-2.463.37-.348.534-.767.907-1.1.541-.483,1.447-.926,2.011-1.453,1.694-1.584,3.38-3.159,5.1-4.745.557-.513,1.322-1.054,1.909-1.555.547-.467.507-.756-.259-.817-4.852.346-10.413-.523-15.148.182-.2.03-.815-.035-.815.006v6.2c-.318.042-.178-.416-.182-.638-.015-.729.041-1.47.008-2.2a17.687,17.687,0,0,1-.187-3.089c.107-.926.826-.619,1.524-1.028a104.438,104.438,0,0,0,13.339-9.089,16.284,16.284,0,0,0,1.73-1.825H417.345c-.328.326,1.8,3.417,1.971,4.136.043.189.179.645-.147.6-.67-1.673-1.862-3.072-2.189-4.922l2.273-.189c2.081-.387,3.9-1.629,5.934-2-.222.535-2.633,1.285-3.334,1.5l-1.224.689c1.731-.038,3.473.05,5.205.008,7.127-.173,14.377-.229,21.5-.38,2.24-.048,4.485.077,6.724-.024.586-.129,1.2-1.028,1.67-1.43,3.282-2.792,6.682-5.472,9.854-8.38a20.827,20.827,0,0,0,1.912-2.008c-.39.015-.788-.031-1.18.005-5.345.5-11.026.2-16.411.366-1.965.061-4.105-.364-5.879.5-3.4,1.668-6.722,3.917-10.141,5.541-2.049.973-6.738,3.254-8.7,3.61a11.888,11.888,0,0,1,2.191-1c5.481-2.531,10.867-5.144,16.108-8.144l.668-.516c-4.1.039-8.213-.051-12.318-.008-9.755.1-19.578.182-29.355.373-.153,0-.637-.083-.455.272.137.268.775.859,1,1.191a110.192,110.192,0,0,1,9.483,17.136c3.192,7.283,6.462,14.293,8.947,21.865,6.976,21.261,10.209,43.5,13.025,65.551l-.082,1.174-.633-2.648c-.546-8.407-2.184-16.637-3.465-24.975a239.363,239.363,0,0,0-9.346-39.513c-2.522-7.472-5.747-14.73-8.8-22.008a71.114,71.114,0,0,0-4.258-7.958,66.683,66.683,0,0,0-6.595-10.18c-.034-.51.1-.154.306-.125a4.011,4.011,0,0,0,1.431-.143,137.68,137.68,0,0,0,15.269-2.6c2.24-.513,4.028-1.1,6.337-1.414-3.559,1.567-10.989,2.816-15.051,3.458-.588.093-1.524-.143-1.909.551,2.7-.038,5.417.051,8.123.008.316,0,.582-.193.9-.2,9.379-.129,18.709-.077,28.088-.18,5.691-2.687,11.177-5.894,16.874-8.563-4.888,2.88-10.155,5.319-15.139,8.111-.2.115-.5.178-.546.457,3.859-.046,7.727.061,11.588.008.315,0,.582-.193.9-.2,3.04-.046,6.084.052,9.125.006a12.922,12.922,0,0,0,2.558-1.818c3.2-2.672,6.338-5.46,9.478-8.209.438-.384,1.09-.681,1.371-1.273h-12.31c-.066,0-1.044.15-1.272.186-1.618.255-2.582,1.687-4.29,2a5.826,5.826,0,0,1,1.215-.883,11.124,11.124,0,0,1,2.068-.941l-1.008-.357c-5.628.589-11.485-.43-17.046.723.169-.125.4-.161.364-.364-.756-.038-1.53.047-2.287.007-.885-.047-1.754-.435-2.72,0l-40.859-.008-.638-.182c.817-.04,1.652.05,2.469.007.321-.017.581-.186.9-.2,8.115-.291,16.514-.127,24.62-.182,6.991-.048,13.983.057,20.974,0,2.291-.6,4.394-1.762,6.658-2.459C462.74,8.807,467.732,7.508,472.654,6c.4-.121,2.07-.937,2.319-.689a2.411,2.411,0,0,1,0,.546c-.024.018-.407,0-.594.043-4.53.979-8.8,2.671-13.217,3.928-.935.266-2.015.373-2.972.674-1.854.584-3.617,1.505-5.467,2.1-.043.317.417.177.638.182,2.879.055,5.731-.125,8.564-.19,1.664-.039,4.745.289,6.177-.024.651-.143,2.94-1.6,3.825-2.01,2.07-.954,4.226-1.9,6.326-2.791,1.418-.6,5.178-2.314,6.469-2.466.178-.022.7-.108.645.189l-3.516,1.134c-4.116,1.632-8.115,3.509-12.112,5.394l-.785.583h12.857c.175,0,2.257-1.964,2.654-2.27,2.359-1.821,5.924-4.417,8.745-5.2a15.4,15.4,0,0,1-2.679,1.423,47.392,47.392,0,0,0-7.08,4.955c-.3.268-.813.677-.818,1.1h3.374c.142,0,1.682-1.72,2-2.008,4.218-3.786,7.884-5.792,12.979-8.174a1.357,1.357,0,0,1,.793-.21c.072-.214-.353-.3-.454-.3-.276.009-.661.215-.949.254-.167.022-.318-.112-.6-.059-.683.127-1,.668-1.464.922a25.714,25.714,0,0,1-5.1,2.1M503.97,1.3c-.142-.117-.51.061-.365.181s.511-.061.365-.181m-18.237.364c-.142-.117-.51.061-.364.182s.51-.061.364-.182m22.98,10.573c-.087-2.451.114-4.943.007-7.391-.013-.316-.176-.575-.2-.9-.035-.523.209-2.137-.277-2.278-.35-.1-.706.161-1.076.182a16.941,16.941,0,0,0-3.755.257c-4.353,1.13-10.244,4.766-13.581,7.753a36.637,36.637,0,0,0-2.642,2.737Zm19.878,0a2.7,2.7,0,0,0-.36-.642,24.3,24.3,0,0,0-10.215-8.019,22.078,22.078,0,0,0-7.941-1.906c-.391-.035-.789.008-1.179-.006V12.237Zm3.1-.183c-1.361-1.485-3.29-2.476-4.746-3.914l-2-1.1c.294.313.618.6.914.909,1.018,1.071,2.06,2.178,3.1,3.281.206.219.254.505.548.728.748.566,1.382.1,2.185.094M509.077,14.79V23.9l26.808-.183c-.591-1.091-1.068-2.257-1.67-3.343-.794-1.433-1.831-3.2-2.735-4.557-.677-1.014-1.6-1.822-2.24-2.865-.42-.349-2.078-.126-2.753-.164a39.447,39.447,0,0,0-4,0c-4.46.135-8.983-.185-13.42.075l-.174.829-.182-.912-20.342-.007c-.553.273-1.316.076-1.792.214a6.676,6.676,0,0,0-1.03.975c-1.822,1.992-3.585,4.057-5.471,6.016L476.8,24l31.916-.09c.062-1.971-.082-3.962-.008-5.933.012-.316.179-.575.2-.9.031-.538-.019-1.1-.008-1.648,0-.222-.136-.68.182-.638m48.693,8.75c-.025-.187-.231-.334-.373-.447-2.511-1.97-5.241-3.619-7.823-5.488-1.855-1.343-3.79-3.167-5.669-4.359a4.213,4.213,0,0,0-1.536-.652,78.4,78.4,0,0,0-7.857,0c-.256.005-.469.161-.689.151-.41-.017-1.113-.454-.4.4,1.715,2.058,3.893,3.828,5.559,5.927l4.325,4.428a3.964,3.964,0,0,0,.869.225,41.682,41.682,0,0,0,4.391,0c.317-.008.582-.192.9-.2,2.766-.054,5.541.055,8.3.007m-14.954.183a14.325,14.325,0,0,0-2.009-2.276c-2.383-2.63-4.906-5.215-7.289-7.844a6.391,6.391,0,0,0-.728-.731,8.434,8.434,0,0,0-2.285-.087c-.279.012-.308-.075-.271.272.628.833,1.238,1.7,1.794,2.582,1.472,2.336,2.744,4.973,4.253,7.234a5.536,5.536,0,0,0,.609.849ZM485.369,12.967h-3.556c-.32,0-1.3,1.185-1.638,1.461-3.515,2.913-7.2,5.68-10.583,8.745-.349.316-.653.686-1,1.006.059.164.488.115.645.1.323-.036.586-.179.9-.2,1.719-.1,3.606.154,5.3.015.744-.061.617-.413.992-.831,2.382-2.647,4.788-5.324,7.118-8.016.629-.727,1.19-1.554,1.821-2.281m99.392,22.058a30.788,30.788,0,0,1-5.111-.816,71.648,71.648,0,0,1-20.544-10.091c-2.724-.01-5.459-.092-8.183-.039-.316.006-.581.19-.9.2-1.975.045-3.96-.049-5.935-.007,3.108,3.667,6.284,7.232,9.662,10.668l.674.42c6.552-.037,13.12.155,19.672.039a60.774,60.774,0,0,1,8.572,0ZM509.077,24.451V35.937c1.852-.04,3.716.05,5.57.008,5.509-.128,11.056-.122,16.6-.183,3.458-.038,7.083-.438,10.578-.2.468.032.7.4.632-.084-1.3-2.705-2.9-5.255-4.349-7.867-.291-.523-1.486-3.236-1.782-3.323Zm34.377-.182h-6.018a.306.306,0,0,0-.186.365,24.871,24.871,0,0,0,1.707,3.036c1.428,2.643,2.764,5.344,4.33,7.91,1.15-.054,2.309.039,3.457,0,1.74-.061,3.506-.3,5.289-.2.355.02,1.493.383,1.725.189.248-.207-.978-1.061-1.1-1.178-2.755-2.618-5.069-5.8-7.651-8.577-.211-.228-1.447-1.518-1.553-1.547m-68.115.182c-.258-.238-6.127.18-7.021,0-3.5,2.925-6.814,6.086-10.4,8.93L454.73,36.3h10.3c.384,0,1.1-.7,1.371-1,.744-.817,1.284-1.833,1.917-2.641.527-.673,1.345-1.259,1.913-1.917,1.62-1.878,3.223-3.829,4.83-5.744.1-.114.434-.4.274-.547m33.374,0H476.524c-.278,0-3.1,3.744-3.741,4.1-1.532,2.1-3.446,3.861-5,5.938l-1.013,1.63c10.18-.1,20.373.132,30.554.008.314,0,.582-.193.9-.2,3.407-.047,6.818.045,10.225.012.784-.162.288-.678.261-1.182-.183-3.373.153-6.918.008-10.308m61.277,22.424a4.857,4.857,0,0,1-1.461-.455,45.645,45.645,0,0,1-11.034-7.382c-1.007-.9-2.507-2.987-3.819-3.109a52.1,52.1,0,0,0-5.486,0c-.316.009-.578.186-.9.2-.567.02-3.6-.126-3.746-.007a10.659,10.659,0,0,0,.7,1.032,92.29,92.29,0,0,0,5.587,9.182c.252.344.305.865.759,1.064,1.875.008,3.761.072,5.637.032,4.216-.09,8.509-.333,12.766-.182Zm-20.425.546-.941-1.7a63.542,63.542,0,0,1-4.012-6.563c-.484-.8-1.173-1.935-1.708-2.668a.891.891,0,0,0-.384-.345c-5.889,0-11.784-.086-17.673-.032-.314,0-.582.194-.9.2-4.48.044-9.7-.376-14.058-.016a5.772,5.772,0,0,0-.8.2l.171,11.292ZM508.895,36.483c-6.048.04-12.1-.051-18.153-.008-.314,0-.583.2-.9.2-7.954.054-15.912-.082-23.866.024-.79.174-1.266,1.327-1.761,1.885-1.712,1.932-3.684,3.958-5.471,5.834-1.14,1.2-2.409,2.28-3.468,3.551l53.617-.182Zm-44.134.182H454.274c-.043,0-.741.23-.822.272-.454.232-1.554,1.645-2.093,2.1C449.2,40.866,446,42.977,443.6,44.59c-1.616,1.086-3.8,2.148-5.283,3.288-.087.068-.246.221-.183.272a17.624,17.624,0,0,0,2.105.008c2.228-.125,4.168-.041,6.368,0,2.108.04,4.908.186,6.945,0a1.512,1.512,0,0,0,.908-.369c1.7-1.266,3.305-3.644,5.015-5.014a28.61,28.61,0,0,1,2.918-3.1c.819-.93,1.527-2.082,2.369-3.011m44.5,11.485v11.3l55.441-.638-2.681-.967c-4.424-1.866-7.493-4.842-10.636-8.328-.5-.558-.936-1.618-1.732-1.733a39.786,39.786,0,0,0-5.112-.009c-6.629.151-13.418.319-20.046.38-5.077.047-10.16-.05-15.235-.008m-.365,0H455c-.271,0-3.472,3.176-4.009,3.649-2.714,2.389-5.541,4.664-8.212,7.1a6.232,6.232,0,0,0-1,1.1l59.089-.364v-7.11c.45-.122.442.206.365.639a1.124,1.124,0,0,1-.183.364v5.833c0,.519,1.1.1,1.36.083,2.122-.114,4.35.1,6.482.008Zm60.365,73.285-.812-61.99-.368-.179c-6.143.065-12.29-.066-18.432,0-10.053.1-20.2.423-30.259.562-3.375.047-6.757-.05-10.13-.008l.73,62.164ZM508.895,59.817l-67.831.558.536,62.336,68.025-.73Zm1.094,62.529v72.19l-.182-.638.008-62.354c-.5-2.786.03-5.747-.184-8.567-.016-.212.023-.4-.18-.549l-67.851.646c.042,4.222-.051,8.453-.007,12.678.219,20.862.544,41.822.745,62.7.046,4.831-.051,9.669-.006,14.5,2.273.366,4.556.717,6.828,1.105,5.655.967,11.3,1.692,16.976,2.172,9.2.778,17.89,0,26.98-1.275,4.99-.7,9.96-1.977,14.952-2.372.382-.03,1.922.16,1.922-.266v-7.383a.636.636,0,0,1,.182,0v7.657c.312.082.567-.156.826-.178,3-.25,5.973-.783,8.937-1.093a202.51,202.51,0,0,1,42.116-.182c2.35.254,4.745.746,7.112.912a2.715,2.715,0,0,0,.462-.006c.072-.076-.1-1.244.107-1.55-.65-27.413.129-54.974-.479-82.391-.045-2.034.054-4.077,0-6.109l-.99-.2c-16.315-.116-32.614.327-48.876.562-3.131.045-6.27-.049-9.4-.008" transform="translate(-161.477 0)" fill="#161615"/>
          <path id="Trazado_893755" data-name="Trazado 893755" d="M690.719,22.453c-.3-.075-.21-.081-.365-.182.075.015.164-.019.254.02s.083.137.11.162" transform="translate(-288.407 -9.304)" fill="#161615"/>
          <path id="Trazado_893756" data-name="Trazado 893756" d="M475.7,23.523c-1.738,1.29-4.008,1.537-6.023,2.092-5.882,1.619-11.606,4.188-17.685,5.018A50.586,50.586,0,0,1,459,28.619c5.061-1.335,10.016-3.138,15-4.691.57-.177,1.112-.284,1.693-.4" transform="translate(-188.825 -9.827)" fill="#161615"/>
          <path id="Trazado_893757" data-name="Trazado 893757" d="M517.816,26.028c-.22.213-.239.122-.364.182.081-.04.046-.123.364-.182" transform="translate(-216.174 -10.874)" fill="#161615"/>
          <path id="Trazado_893758" data-name="Trazado 893758" d="M517.19,26.341c-.112.055-.256.125-.365.182.1-.046.232-.119.365-.182" transform="translate(-215.913 -11.004)" fill="#161615"/>
          <path id="Trazado_893759" data-name="Trazado 893759" d="M516.564,26.654c-.094.043-.218.115-.365.182.157-.091.251-.122.365-.182" transform="translate(-215.651 -11.135)" fill="#161615"/>
          <path id="Trazado_893760" data-name="Trazado 893760" d="M515.938,26.967c-.15.087-.291.139-.365.182.092-.043.21-.111.365-.182" transform="translate(-215.389 -11.266)" fill="#161615"/>
          <path id="Trazado_893761" data-name="Trazado 893761" d="M295.507,78.629c.037.037-.024.761.005,1,.686,5.542,1.527,10.184,4.4,15.107,3.663,6.276,12.846,12.324,20.115,12.889.651.051,1.366-.059,2.021-.015.494.033.987.321,1.543.189l1.077,132.059a.452.452,0,0,1-.434.3l-35.379-.011c-8.209-1.507-16.325-3.488-24.488-5.236-4.46-.955-8.985-1.662-13.359-2.961a12.73,12.73,0,0,0,.409,2.963c.714,3.376,1.808,6.688,2.511,10.07l-.366.274-2.949-12.821c-.058-.393-1.714-.748-1.793-.668.186,2.744,1.2,5.313,1.779,7.974.3,1.377.448,2.781.769,4.154l.1,1.544c-.376-.234-.218-.528-.27-.824-.67-3.787-1.634-7.262-2.512-10.979-.1-.441-.22-1.886-.521-2.063-.463-.272-1.222-.27-1.712-.536a1.889,1.889,0,0,0,.082.738c.983,4.224,2.214,8.4,3,12.677l.108,1.351a4.964,4.964,0,0,1-.594-1.776c-.321-1.414-.5-2.872-.819-4.286-.658-2.9-1.514-5.731-2.354-8.584-.042-.331-1.722-.546-1.8-.483L248,245.979a8.326,8.326,0,0,1-.964-2.136c-1.387-3.988-1.608-8.585-3-12.5-.054-.152-.306-.815-.34-.846a6.934,6.934,0,0,1-1.262-.2c.13.987.214,1.984.409,2.963.8,4.014,2.18,8.066,3.049,12.083l-.175.631a21.034,21.034,0,0,0-.872-2.866c-.2-.777-.256-1.68-.45-2.467-.85-3.456-1.836-6.881-2.347-10.414-.125-.46-.8-.238-1.158-.3-3.762-.663-7.451-1.681-11.175-2.5a21.1,21.1,0,0,1-3.513-.681c-.5-.258-.183-.527-.173-.9.065-2.719.668-5.785.91-8.571.979-11.263,2.378-22.472,3.454-33.736.158-1.651.717-4.887.546-6.368-.126-1.082-.531-2.512-.717-3.658-1.645-10.145-4.187-20.1-6.8-30.028-2.314-8.8-4.548-17.638-6.93-26.433-3.217-11.88-6.345-23.795-8.334-35.969a10.2,10.2,0,0,1-.193-1.9Zm-8.937.547c-.492.109-.914-.158-1.36-.19-6.589-.469-13.657.16-20.244.2-11.545.066-23.143.106-34.65.182-7.056.047-14.114-.044-21.171-.016l-.813.19c.711,3.468,1.172,6.994,1.834,10.472.288,1.512.611,3.065.907,4.562.621,3.136,1.549,5.921,2.325,8.978q5.17,20.366,10.572,40.659c1.969,7.457,3.96,15.03,5.477,22.6.516,2.572.706,5.679,1.36,8.121a1.575,1.575,0,0,0,.414.862l.632-3.743c.158-3.252.569-6.446.912-9.662a28.709,28.709,0,0,1,.412-3.967c.229-.944,1.1-.592,1.868-.681.225-.026.447-.152.728-.185.231-.026.96.059,1.011.009a24.159,24.159,0,0,0,.008-3.016c-.217-5.386-1.014-10.726-1.643-16.041-.508-4.282-1.247-8.51-2.018-12.749-1.994-10.955-4.547-21.768-6.914-32.648-.455-2.092-1.431-4.584-1.645-6.559-.087-.806-.037-.894.82-.991.447-.05.914.021,1.362-.005l-1.824.366c.1,1.668.869,3.22,1.232,4.874,2.391,10.9,4.734,21.81,6.8,32.763.726,3.851,1.514,7.4,2.006,11.3.756,5.991,1.924,12.435,2.19,18.41.027.6-.147,3.789-.008,3.927a12.6,12.6,0,0,0,1.909-.008c1.509-.151,3.184-.927,4.721-1.113.514-.2.235-1.022.307-1.516.143-.981.645-2.08.731-3.1a84.222,84.222,0,0,0-.2-10.209,43.189,43.189,0,0,0-.363-5.106c-.869-5.808-1.407-11.681-2.371-17.5-.706-4.262-1.443-9.058-2.452-13.227-.968-4-1.621-8.052-2.511-12.074a30.22,30.22,0,0,1-.868-3.417,13.675,13.675,0,0,1,1.378-.355c11.1-2.182,22.248-4.074,33.354-6.218,3.915-.756,8.5-1.3,12.139-3,.452-.212.572-.627.663-.644a16.474,16.474,0,0,1,2.624-.263c.284-.005.414.318.359-.279m-2.736,2.917a66.846,66.846,0,0,1-6.752,2.091c-10.46,3.19-20.987,6.158-31.5,9.173a3.4,3.4,0,0,1-.415.038,12.818,12.818,0,0,0,.411,1.868c.767,2.991,1.988,6.031,2.645,9.024,2.682,12.224,5.3,25.81,3.687,38.232-.522,4.013-1.666,6.669-2.947,10.363-.061.176-.317.537-.058.671,3.1-2.21,4.817-5.738,6.07-9.245a62.283,62.283,0,0,0,3.148-21.115c-.128-2.544-.765-5.11-1.107-7.643a88.813,88.813,0,0,0-3.546-15.05c-.536-1.644-1.665-3.053-2.1-4.735,1.063-.284,2.016-.882,3.05-1.237,4.133-1.419,8.2-3.076,12.268-4.69,4.741-1.881,9.485-3.777,14.226-5.649,1.477-.583,6.257-2,7.12-2.91a11.542,11.542,0,0,0,1.011-1.372,1.288,1.288,0,0,0-.115-.722,10.481,10.481,0,0,0-2.179-.009c-.347.332.316.331.369.475l.087.617c-.623-.61-1.232-.293-1.955-.137-.092.019-.122.134-.143.139-3.856.87-7.393,2.133-11.408,2.907-11.167,2.15-22.33,4.249-33.536,6.218-1.189.209-2.376.511-3.563.724-.322.26,1.127,5.125,1.267,5.926.856,4.9,2.02,9.688,2.914,14.588,1.117,6.123,2.08,12.29,2.922,18.408.409,2.973.88,5.938,1.106,8.921a137.331,137.331,0,0,1,0,15.872l-.1,1.908c1.134-.61,3.332-1.054,3.837-2.363a50.849,50.849,0,0,0,3.18-12.135c1.463-11.644-1.187-23.178-3.318-34.591l-3.6-13.334c.091-.213.261-.226.44-.3,2.575-1.029,5.679-1.438,8.359-2.217,9.083-2.64,18.163-5.447,27.309-7.886a26.168,26.168,0,0,1,2.913-.824m4.377,76.018H265.6c-.043-.318.416-.178.638-.182,9.838-.2,19.709.055,29.552.008.314,0,.582-.2.9-.2,8.968-.046,17.941.05,26.908.008l-.365-49.4a28.925,28.925,0,0,1-10.523-2.151c-10.671-4.663-16.2-13.161-17.557-24.562a17.8,17.8,0,0,0-.189-2.273c-1.674.842-3.543,1.216-5.29,1.913-11.28,4.49-22.531,9.175-33.925,13.3-.447.305-3.4,1.414-3.459,1.651-.044.169.9,1.826,1.054,2.223,3.535,9.15,5.7,21.232,5.154,30.959a54.335,54.335,0,0,1-4.9,19.9c-1.15,2.447-3.844,4.088-5.693,5.977-.091.356-2.33,2.893-2.186,3.01a4.675,4.675,0,0,0,1.725-.189c5.532.1,11.073-.1,16.6.008.221,0,.681-.135.638.182-4.7.119-9.437-.154-14.141-.007-.317.01-.577.184-.9.2-1.563.066-3.863-.4-5.03.806-1.785,1.838-2.289,4.656-3.487,6.905a37.2,37.2,0,0,1-4.143,5.7,26.972,26.972,0,0,0,.844,4.215c.71,3.507,1.58,6.911,2.371,10.391,2.979,13.11,5.883,26.226,9.026,39.287.461,1.915,1.111,3.769,1.625,5.667l.266.281c4.183.629,8.283,1.651,12.425,2.529,5.135,1.088,10.289,2.084,15.416,3.184,1.2.258,9.261,2.328,9.616,1.965.131-.134-.029-3.171-.008-3.745.4-11.212-.1-22.493-.182-33.71-.079-10.205-.075-20.455-.182-30.626-.047-4.407.05-8.82.008-13.224m-50.335.182h5.653c.062,0,.114-1.075.547-1.093-.139.325,0,.75-.016,1-.029.347-.365.852-.075,1.19a15.278,15.278,0,0,0,2.908-3.474c.078-.13.307-.414.193-.535-.721.512-2.045.622-2.716,1.083-.176.121-.084.293-.128.361-.022.033-.249-.144-.406-.13-1.246.107-3.159,1.091-4.552,1.1Zm85.715-.182H288.85a.582.582,0,0,0-.279.451c.049,3.1-.044,6.207,0,9.31.171,12.7.328,25.568.38,38.268.046,11.152-.051,22.308-.006,33.457l1.177.192c6.8.139,13.663-.128,20.425-.2,4.53-.047,9.067.05,13.595.008Zm-86.809.547c-.106-.1-2.492.074-2.918,0a22.3,22.3,0,0,0,1.054,4.324,17.384,17.384,0,0,0,.588,2.968c.063.074,1.542-.76,1.462-1.181-.133-.927.239-5.71-.186-6.111m6.93,0c-.228-.224-5.564.169-6.382,0v6.2c.257.049.4-.1.6-.215.324-.185.726-.413,1.031-.61a33.639,33.639,0,0,0,3.744-2.821,7.281,7.281,0,0,0,1-2.551m-10.76,16.588a1.441,1.441,0,0,1,.454-.549c.357-.3,1.542-1,1.564-1.365a15.069,15.069,0,0,0-.781-2.512c-.3-.9-.659-1.783-.961-2.684a4.625,4.625,0,0,0-.268-.456c0-.281,2.416-1.266,2.337-1.785a23.439,23.439,0,0,0-.607-2.32c-.24-.841-.571-1.766-.871-2.593-.07-.194-.063-.544-.318-.5-.1.752-.12,1.52-.189,2.272-.424,4.626-1.024,9.246-1.447,13.866a12.788,12.788,0,0,0,.813,6.65,43.214,43.214,0,0,1,1.507,4.874c2.091,8.965,4.14,17.955,6.286,26.895,1.166,4.861,2.445,9.7,3.453,14.6.065.409,1.9.742,1.977.666a15.07,15.07,0,0,0-.409-2.051c-3.118-13.348-6.5-26.655-9.576-40.013-.375-1.625-.918-6.234-1.676-7.411-.114-.176-.286-.076-.366-.122-.045-.027.036-.587,0-1-.141-1.446-.324-2.909-.542-4.355-.025-.164-.257-.111-.376-.105m9.483-13.308c-.109-.119-.932.525-1.085.647-1.026.824-2.044,1.575-3.119,2.35-.194.14-.849.448-.879.49a9.91,9.91,0,0,0-.2.986c-.106,1.109-.067,2.341-.181,3.465a4.217,4.217,0,0,0-.189,1.36,14.675,14.675,0,0,0,3.253-3.949c.4-.647,2.731-4.989,2.4-5.349m-5.653,6.654c.07-.916-.051-1.9,0-2.826-.387.211-1.291.5-1.282,1l.917,3.2.216-1.15c.011-.1.144-.166.148-.216m-1.642-1.915a7.941,7.941,0,0,0-1.822,1.185c0,.042.457.422.458.635.261.473,1.4,4.572,1.638,4.559a3.673,3.673,0,0,0,.978-1.216,8.635,8.635,0,0,0-.658-2.565c-.112-.426-.5-2.481-.594-2.6m10.031,51.227c-1.079-2.381-1.857-7.191-2.508-9.98-2.253-9.646-4.224-19.406-6.752-28.981-.139-.525-.051-1.438-.587-1.691-.084.762-.674,1.741-.737,2.452a31.449,31.449,0,0,0,.964,5.433c2.9,13.442,6.38,26.823,9.576,40.2.382,1.6.622,3.246.983,4.851.15.441.608.233.945.331.231.067,1.13.721,1.038.058-.348-1.119-.48-2.283-.779-3.415a56.7,56.7,0,0,1-1.6-6.7,9.775,9.775,0,0,1,.593,2.051,80.451,80.451,0,0,1,2.153,8.513l1.813.374c-.294-1.948-.96-3.856-1.414-5.787-1.776-7.546-3.528-15.053-5.289-22.605-1.1-4.7-2.1-9.428-3.19-14.13-1.178-5.062-2.3-10.452-3.752-15.391a5.12,5.12,0,0,1-.033-.6c-.158-.169-.829.463-.887.662a15.9,15.9,0,0,0-.018,2.886c.2,1.97,1.3,4.9,1.772,6.979,2.163,9.567,4.23,19.162,6.473,28.713a37.865,37.865,0,0,1,1.231,5.787m-11.652-43c-.226.211.249,1.495.172,1.885.192.329.306,2.3.628,2.288.252-.006.758-2.107,1-2.461l-.182-2.824c-.445.309-.866.658-1.289,1-.1.083-.282.069-.332.114m-2.3,1.075a.091.091,0,0,0,0,.182.091.091,0,0,0,0-.182m12.492,53.96c-.739-3.53-1.662-7.022-2.508-10.527-1.939-8.038-3.821-16.113-5.743-24.156-1.1-4.613-2.083-8.878-3.586-13.369-.08-.239-.015-.558-.381-.622a16.07,16.07,0,0,1-.507,1.955,70.526,70.526,0,0,0-.776,7.792c-.829,8.576-1.872,17.086-2.735,25.7-.267,2.659-.539,5.346-.731,8.02-.033.464-.131,1.541.308,1.712l14.654,3.126a4.944,4.944,0,0,0-.323-1.043c-2.151-8.869-4.051-17.823-6.1-26.712-1.074-4.649-2.562-9.34-3.05-14.088a8.373,8.373,0,0,0-.2-2.356l.189-1.557a63.887,63.887,0,0,0,.953,8.072c.4,2.037,1.1,4.076,1.556,6.1q2.839,12.512,5.84,24.97a56.616,56.616,0,0,0,1.357,5.753c.369,1.038.686,1.129,1.783,1.225" transform="translate(-86.873 -32.849)" fill="#161615"/>
          <path id="Trazado_893762" data-name="Trazado 893762" d="M272.691,321.569c-.261-.466-.109-.5-.183-.912.033.215.13.562.183.912" transform="translate(-113.845 -133.96)" fill="#161615"/>
          <path id="Trazado_893763" data-name="Trazado 893763" d="M341.286,82.438c-.3-.2-.129-.289-.182-.364.008.022.129-.047.182.364" transform="translate(-142.501 -34.288)" fill="#161615"/>
          <path id="Trazado_893764" data-name="Trazado 893764" d="M272.377,320c-.045-.252-.126-.555-.182-.912.063.287.123.533.182.912" transform="translate(-113.714 -133.306)" fill="#161615"/>
          <path id="Trazado_893765" data-name="Trazado 893765" d="M340.478,81.433c.562-.089.28.141.365.364-.051-.073-.393-.141-.365-.364" transform="translate(-142.24 -34.012)" fill="#161615"/>
          <path id="Trazado_893766" data-name="Trazado 893766" d="M272.064,318.569a3.1,3.1,0,0,1-.182-.729,2.235,2.235,0,0,1,.182.729" transform="translate(-113.583 -132.783)" fill="#161615"/>
          <path id="Trazado_893767" data-name="Trazado 893767" d="M340.11,82.306c.66.44.459.046.636-.177a1.975,1.975,0,0,1,.64-.37c.194.2-.569.815-.706,1.026a2.838,2.838,0,0,0-.208.616,4.6,4.6,0,0,0-.819-.2,10.965,10.965,0,0,0-1.367.194,3.99,3.99,0,0,1,.68-.323c.641-.177,1.255.089,1.143-.771" transform="translate(-141.325 -34.156)" fill="#161615"/>
          <path id="Trazado_893768" data-name="Trazado 893768" d="M115.259,77.343c-.381,1.789-.781,3.577-1.089,5.383-3.951,23.144-9.386,46.017-13.876,69.076-1.175,6.036-2.392,11.783-3.084,17.882-.285,2.511-.749,4.968-1.095,7.474-1.323,9.617-.519,19.355-1.459,28.985-.915,9.37-2.335,18.732-3.1,28.075l-.189,2.82-.546-.091a2.284,2.284,0,0,0,.359-.918c.788-6.421,1.092-12.887,1.835-19.313.6-5.182,1.605-10.451,1.826-15.675.116-2.751-.1-5.549-.008-8.3l-.355,1.012c-1.986,9.625-2.238,19.32-3.467,28.984-.572,4.5-1.543,8.943-1.649,13.483-.009.375.13.526-.364.455a9.993,9.993,0,0,0,.175-2.833c.515-7.066,1.989-14.272,2.737-21.327.527-4.971.612-9.983,1.475-14.933.167-.954,1.231-4.8.82-5.4a13.8,13.8,0,0,0-1.289-.9c-.345-.128-.232.114-.274.263a35.2,35.2,0,0,0-.731,5.472c-.691,5.925-1.461,11.891-2.189,17.865a5.84,5.84,0,0,0-.183,1.822l-.358,1.92a8.257,8.257,0,0,1,.189-2.271c.037-.476-.058-1-.015-1.473.305-3.394,1.04-6.837,1.461-10.207.486-3.9.776-7.768,1.287-11.656a6.32,6.32,0,0,0,.276-1.923l-1.649-1.455-.268,1.008c-.627,5-1.235,9.942-1.655,14.935-.258,3.071-.707,6.066-1.092,9.117-.89,7.037-1.539,14.192-2.189,21.33-.033.357.172.537-.358.461.01-.291.17-.5.191-.812.485-7.2,1.319-14.6,2.174-21.708.644-5.354,1.311-10.692,1.837-16.029.273-2.775.7-5.605.912-8.386.091-1.211-.876-1.585-1.1-2.65-.625.263-.3,1.169-.357,1.739-.184,1.885-.659,3.768-.913,5.65-.781,5.769-1.073,11.525-1.653,17.307-.747,7.446-1.916,14.942-2.373,22.42-.033.537.169,2.345-.167,2.568l-82.623.266L0,87.368c.817-.038,1.652.051,2.47.008,6.371-.339,13.822-.611,19.542-3.8a18.07,18.07,0,0,0,5.79-5.7.532.532,0,0,1,.371-.176,19.643,19.643,0,0,1,2.747,0c1.992.083,3.986.242,6.018.2,11.932-.261,23.985-.448,35.912-.562,14.133-.134,28.277.116,42.409.008M92.827,187.906V184.99c0-.164-1.424-1.26-1.641-1-.092.109-.186,1.922-.372,2.272.141.815-.181,2.173.032,2.9.187.638,3.828,3.04,3.987,2.85.063-.076-.03-1.581-.007-1.921.306-4.6.5-9.125,1.1-13.67.8-6.106,1.637-12.38,2.751-18.4,4.884-26.388,11.66-52.434,15.68-78.94a8.111,8.111,0,0,1,.359-1.372c-.449-.022-.911.036-1.362-.006-8.809-.824-18.447.145-27.369.013-9.459-.139-18.963.1-28.435.182-6.452.059-12.913-.121-19.331.182-.886.042-1.877-.1-2.74,0-.142.016-.642.174-.642.271,0,.444.12.235.458.271,4.433.469,8.884.537,13.306.919,8.142.7,16.346,1.116,24.449,1.994,6.657.723,13.358,1.242,20.048,1.654.363.023,2.027-.078,2.1-.007.1.091-.121.522-.268.52-.059,0-.207-.147-.372-.15-1.84-.034-3.637-.214-5.463-.376-4.725-.419-9.518-.6-14.237-1.082-6.173-.625-12.214-1.347-18.406-1.654-6.265-.311-12.121-1.062-18.427-.98a9.087,9.087,0,0,0-1.463-.11c-.412.059-.677.566-1,.824l.82-.455c.17.225-.59.619-.456.728.246.2.881-.031.913,0,.064.064-.306.341-.091.363.277-.023.5.2.746.03l.073.335.73-.363c.049.164-.217.514-.183.546.049.047.756.242.825,0-.157.572.08.264.585.505.345.165.549.485.96.682,1.452.7,4.029,1.193,5.708,1.768,9.667,3.315,19.4,6.707,29,10.209.511.186,3.761,1.417,3.878,1.591.2.3-.049,1.29-.14,1.7-.536,2.4-1.768,4.569-2.427,6.872a126.5,126.5,0,0,0-3.91,17.238c-.2,1.452-.214,2.933-.377,4.363-.08.705-.466,1.626-.534,2.383a34.363,34.363,0,0,0,.171,5.651c.652,8.3,1.728,20.571,7.663,26.977a4.14,4.14,0,0,0,1.006.817c.149-.2-.069-.714-.138-.956A53.584,53.584,0,0,1,78.061,149.8c-.978-15.475,1.662-30.206,4.873-45.249q.965-4.523,1.693-9.064a7.306,7.306,0,0,0,.348-2.274c-3.265-1.192-6.715-1.725-10.065-2.61C64.613,87.886,54.36,85,44,82.487c-.474-.115-1.036-.013-1.5-.323l-1.651-.993c.64.022,1.412.792,1.952.889.257.047.305-.125.684.014A54.464,54.464,0,0,0,49.109,83.4c8.815,2.2,17.565,4.717,26.348,7.023,2.2.578,4.47.94,6.656,1.55.426.119,3.108.938,3.228,1.057a1.91,1.91,0,0,1,0,.621c-.182,1.5-.624,3.235-.9,4.753-1.917,10.553-4.725,21.375-5.665,32.073a113.878,113.878,0,0,0-.182,21.158,40.837,40.837,0,0,0,1.551,7.747c.292.963,1.072,3.694,1.852,4.165.539.325,1.367.357,1.8.934.174-.015.088-.3.091-.455.105-5.474-.17-10.807.175-16.233.561-8.816,1.951-17.668,3.1-26.432.478-3.638,1.049-7.308,1.653-10.926,1.138-6.807,2.89-13.585,3.464-20.418.016-.192.3-.706.176-.824-.1-.1-2.412-.47-2.831-.543-6.844-1.18-13.85-2.261-20.775-3.479-8.49-1.493-16.966-2.66-25.366-4.541l-1.178-.1c.275-.387.385-.242.73-.186,3.631.589,7.219,1.511,10.856,2.093,2.412.386,4.872.541,7.282.924,8.71,1.382,17.377,3.433,26.08,4.557L93,89.015c-.162,1.315-.509,2.611-.718,3.92-.854,5.336-1.849,10.667-2.752,16.027-1.1,6.556-2.281,13.118-3.084,19.7-.311,2.546-.594,5.074-.924,7.645a139.651,139.651,0,0,0-1.263,22.421c.069,2-.058,4.01-.016,6.008l3.563,1.933c.349.03.264.007.276-.275.016-.363-.029-.728.006-1.09.315-3.263.523-6.569.911-9.844.827-6.967,2.357-13.871,3.454-20.793.839-5.3,2.095-10.57,3.1-15.86,1.449-7.624,3.182-15.334,4.571-22.958.689-3.778,1.307-7.567,2.186-11.306.031-.353,0-.261-.275-.274a13.839,13.839,0,0,1-2.378-.36l-3.453-.194-.826-.359c.552-.136,1.057.162,1.542.189.6.034,1.249-.063,1.839-.015.284.023.508.165.728.183.882.075,1.862.068,2.736.183.7.092.306.5.273.832-.323,3.274-1.226,6.748-1.836,10.014-1.15,6.16-2.621,12.244-3.635,18.425-.637,3.881-1.433,7.795-2.2,11.651-.781,3.906-1.94,7.96-2.537,11.865-.2,1.281-.18,2.717-.377,4-.405,2.65-1.2,5.354-1.63,8.033-.919,5.733-1.435,11.386-1.821,17.139-.017.25-.292.894-.19.993.034.033.713.187.913.273.218.094,1.37.614,1.426.67.677.674-.353,4.117-.157,5.159l-.323,1.654c.013.2,2,1.221,2.128,1.658.233.808-.22,2.064-.335,2.9-.086.623-.1,1.376-.194,1.993-.075.472-.512,1.721-.494,2.019.02.347,2.588,1.751,2.325,1.906-.063.037-.345-.089-.376.1-.076.465.061,1.1,0,1.623a12.528,12.528,0,0,0-.359,2.285Zm-9.666-21.238c-.9-.5-1.077-2.229-1.634-2.833-.189-.206-.465-.272-.649-.445-4.045-3.815-6.214-8.434-7.521-13.811a75.119,75.119,0,0,1-1.51-27.123A129.55,129.55,0,0,1,76.5,102.677c.633-2.056,1.955-3.982,2.1-6.188L28.534,78.613a.759.759,0,0,0-.333.024c-.341.1-1.4,1.693-1.754,2.08-5.5,6.088-14.968,7.067-22.7,7.388-1.062.044-2.139-.047-3.2-.008L.73,168.674a6.332,6.332,0,0,1,1.907.19c7.533.444,15.457-.148,22.979-.2,13.333-.086,26.651-.258,39.939-.364,6.111-.049,12.227.052,18.336.008.153-.622-.429-.911-.642-1.28a1.163,1.163,0,0,1-.087-.361l.911.911c-.068-.73.235-1.934-.364-2.461-.17-.149-1.138-.594-1.276-.456a8.47,8.47,0,0,0,.729,2.005M34.377,79.53a.091.091,0,0,0,0,.182.091.091,0,0,0,0-.182m.638.183c-.142-.117-.511.061-.364.182s.511-.061.364-.182m50.517,88.6c.029-.081-.079-.163.1-.187.366-.051,2.006.084,2.085,0a5.794,5.794,0,0,0,.157-.636c-.01-.293-1.609-.81-1.919-.962a15.758,15.758,0,0,0-1.7-.948c-.144.172.154.778.176,1.008.036.362-.031.727.008,1.086.093.841.4.632,1.092.64-.016.047.035.144,0,.172-.335.234-1.285-.507-.263,1.1a34.038,34.038,0,0,0,2.183,2.74c.165-.146.084-.529.125-.787.016-.106.148-.173.148-.216v-2.734c0-.409-1.78-.269-2.189-.274m2.735.091v4.739a6.071,6.071,0,0,0,1.276,1,5.292,5.292,0,0,0,.181-.64c.126-1.061.289-2.245.361-3.286A10,10,0,0,0,90.1,168.6c-.017-.129-1.684-.746-1.832-.2M83.16,236.123c.091-.568.119-1.157.19-1.725.6-4.832.964-9.746,1.447-14.6.89-8.92,1.7-17.905,2.736-26.8.365-3.14,1.07-6.349.909-9.467a13.573,13.573,0,0,0-.024-1.981c-.094-.43-.484-.642-.673-.968a30.911,30.911,0,0,1-2.9-8.036c-.14-.7-.4-3.73-.758-3.982L1,169.212c-.137.2-.075.426-.086.644-.417,9.018.125,18.341.193,27.34.051,6.678.133,13.413.182,20.053.046,6.262-.046,12.527-.013,18.789.022.365.292.5.638.457,22.214-.047,44.383.027,66.579-.181.314,0,.582-.194.9-.2,4.59-.047,9.186.051,13.774.006m4.379-57.058v-6.107c0-.306-1.03-1.15-1.28-1.456-.133-.164-1.3-1.928-1.456-1.734a32.6,32.6,0,0,0,1,5.109,30.686,30.686,0,0,0,1.279,3.643c.1.215.192.5.458.545m1.276,1.823c.109-1.946.829-4.172.551-6.111-.047-.325-1.093-1.385-1.28-1.181a14.62,14.62,0,0,0-.008,1.921c.019.322.185.581.2.9A17.793,17.793,0,0,0,88.4,180.3c.075.239.111.538.413.589M91,183.076c.058-.068.32-1.479.359-1.738.161-1.046.2-2.185.381-3.266.063-.382.354-.994.36-1.291.01-.545-1.559-1.39-2.01-1.726-.175,2.041-.508,4.07-.735,6.1-.043.376-.361.508,0,.926.151.178,1.511,1.156,1.649.994m-.73,5.1.716-4.257a6.523,6.523,0,0,0-.907-.929c-1.117-.866-.78-.517-.908.35a7.145,7.145,0,0,0-.185.727,5.323,5.323,0,0,0,1.284,4.109" transform="translate(0 -32.291)" fill="#161615"/>
          <path id="Trazado_893769" data-name="Trazado 893769" d="M450.662,9.73c.34.283-.474.523-.64.544-.807.1-1.744.1-2.545.19-11.437,1.324-22.868,3-34.3,4.364-5.128.613-10.208,1.469-15.309,2.016-3.762.4-7.553.364-11.318.718-.451.042-.912-.016-1.362.006a191.514,191.514,0,0,1,14.561,21.266c3.771,6.463,8.092,14.381,10.749,21.339,1.683,4.406,3.281,8.883,4.924,13.308,7.238,19.493,11.7,39.935,15.714,60.311l.466,3.362a1.843,1.843,0,0,1-.41-1.047c-.415-1.781-.792-3.637-1.13-5.433-3.576-19.026-8.007-38.066-14.64-56.281-.878-2.412-1.951-4.776-2.838-7.189-1.529-4.157-2.654-7.961-4.562-12.028a201.1,201.1,0,0,0-12.65-22.9,172.048,172.048,0,0,0-10.729-14.8c.193-.285.337-.254.633-.278,4.193-.335,8.412-.306,12.594-.718,4.257-.421,8.49-1.163,12.754-1.653,7.986-.918,15.917-2.008,23.891-3.1,4.2-.574,8.382-.809,12.582-1.46.689-.107,1.5-.457,2.2-.534a9.021,9.021,0,0,1,1.361-.006" transform="translate(-160.692 -4.055)" fill="#161615"/>
          <path id="Trazado_893770" data-name="Trazado 893770" d="M460.907,159.949l-.355-.829c-.127-.647-.118-1.359-.2-1.991-.024-.191-.15-.368-.171-.558-.045-.419.027-.844-.012-1.264-.689-7.337-.852-14.749-1.812-22.07-.359-2.738-.9-5.461-1.288-8.193-.55-3.872-1.042-7.6-1.828-11.48a226.642,226.642,0,0,0-11.2-38.021,12.934,12.934,0,0,1-.61-1.214,6.953,6.953,0,0,0-.213-1.336c.231-.026.316.41.4.6,1.368,3.279,2.514,6.652,3.654,10.02,8.177,22.583,11.9,46.715,13.1,70.582a35.727,35.727,0,0,0,.539,5.75" transform="translate(-185.162 -30.494)" fill="#161615"/>
          <path id="Trazado_893771" data-name="Trazado 893771" d="M709.515,169.7l-.359-.819c.183-1.242.27-2.583.353-3.835.864-12.925,2.375-25.8,4.206-38.635l1.088-5.2a6.956,6.956,0,0,1-.19,2.088c-.4,3.712-1.3,7.419-1.809,11.135-.612,4.437-.88,8.865-1.289,13.3-.569,6.168-1.536,12.235-1.826,18.41a14.191,14.191,0,0,1-.175,3.562" transform="translate(-296.262 -50.638)" fill="#161615"/>
          <path id="Trazado_893772" data-name="Trazado 893772" d="M704.893,155.786c-.317.043-.178-.416-.182-.638-.128-6.411-.05-12.915-.008-19.331.068-10.4.2-20.96.366-31.354l.1-1.726c.34.231.255.483.277.817a28.206,28.206,0,0,1-.376,3.46c-.575,9.545.6,19.615-.182,29.168Z" transform="translate(-294.376 -42.921)" fill="#161615"/>
          <path id="Trazado_893773" data-name="Trazado 893773" d="M473.872,116.655c-.317.043-.178-.416-.182-.638-.006-.363.022-.726-.006-1.088-.016-.215-.16-.444-.183-.728-.275-3.332-.087-6.682-.168-10.041-.05-2.077-.3-4.287-.38-6.366-.041-1.061.045-2.137.008-3.2l.54,3.2c0,2.6.31,5.24.378,7.825.1,3.673-.088,7.365-.008,11.036" transform="translate(-197.579 -39.52)" fill="#161615"/>
          <path id="Trazado_893774" data-name="Trazado 893774" d="M476.116,193.778c-.317.043-.178-.416-.182-.638-.031-1.58.052-3.169.008-4.748-.009-.316-.187-.579-.2-.9-.235-6.893-.971-13.926-.545-20.8a19.326,19.326,0,0,0-.184-2.357c-.048-1.276.057-2.566.015-3.843-.01-.317-.185-.578-.2-.9-.04-1,.044-2.016.008-3.015.317-.043.178.416.182.638.013.668-.04,1.348-.007,2.013.016.32.186.58.2.9.048,1.4-.055,2.809-.015,4.208.171,6.005.233,12.062.547,18.048.084,1.6.33,3.31.38,4.906.068,2.154-.065,4.326-.008,6.479" transform="translate(-198.364 -65.417)" fill="#161615"/>
          <path id="Trazado_893775" data-name="Trazado 893775" d="M149.886,339.858c-.317.043-.177-.416-.182-.638-.01-.475-.029-.982.006-1.453.125-1.677.506-3.444.718-5.115.052-2.441.832-4.841.916-7.287l.182-.638c-.032.573.044,1.168.008,1.739-.02.318-.172.575-.2.9-.038.476.055.98,0,1.46-.371,3.328-.973,6.455-1.263,9.857-.034.4-.261.759-.19,1.177" transform="translate(-62.53 -135.66)" fill="#161615"/>
          <path id="Trazado_893776" data-name="Trazado 893776" d="M474.722,146.883a.681.681,0,0,1-.182,0V134.669a.637.637,0,0,1,.182,0Z" transform="translate(-198.247 -56.258)" fill="#161615"/>
          <path id="Trazado_893777" data-name="Trazado 893777" d="M704.944,208.022a.681.681,0,0,1-.182,0v-9.479a.6.6,0,0,1,.182,0Z" transform="translate(-294.426 -82.942)" fill="#161615"/>
          <path id="Trazado_893778" data-name="Trazado 893778" d="M708.848,219.745c-.348-.082-.346-.341-.371-.631-.185-2.168.272-4.322.19-6.479.317-.042.177.417.182.638.012.6.036,1.241.008,1.831-.016.318-.18.577-.2.9-.072,1.3.229,2.465.189,3.745" transform="translate(-295.959 -88.831)" fill="#161615"/>
          <path id="Trazado_893779" data-name="Trazado 893779" d="M709.309,210c-.317.043-.178-.417-.182-.638-.012-.577.008-1.157,0-1.732.317-.043.177.417.182.638.012.576-.008,1.156,0,1.732" transform="translate(-296.238 -86.738)" fill="#161615"/>
          <path id="Trazado_893780" data-name="Trazado 893780" d="M153.018,322.791c-.317.042-.177-.417-.182-.638-.008-.395,0-.792,0-1.185.317-.043.177.417.182.638.008.395-.005.792,0,1.185" transform="translate(-63.839 -134.089)" fill="#161615"/>
          <path id="Trazado_893781" data-name="Trazado 893781" d="M443.058,72.082c-.121.146-.3-.222-.181-.364s.3.222.181.364" transform="translate(-185.003 -29.947)" fill="#161615"/>
          <path id="Trazado_893782" data-name="Trazado 893782" d="M709.553,206.062a.091.091,0,0,1,0,.182.091.091,0,0,1,0-.182" transform="translate(-296.391 -86.086)" fill="#161615"/>
          <path id="Trazado_893783" data-name="Trazado 893783" d="M549.493,209.721c3.13-.042,6.268.053,9.4.008,16.261-.235,32.561-.678,48.876-.562l.99.2c.052,2.032-.047,4.075,0,6.109.608,27.417-.172,54.978.479,82.391-.2.306-.034,1.474-.107,1.55a2.713,2.713,0,0,1-.462.006c-2.367-.166-4.762-.659-7.112-.912a202.51,202.51,0,0,0-42.116.182c-2.965.31-5.941.842-8.937,1.093-.259.022-.514.259-.826.178V292.3a.638.638,0,0,0-.182,0v7.383c0,.426-1.541.236-1.922.266-4.992.4-9.962,1.672-14.952,2.372-9.09,1.275-17.781,2.054-26.98,1.275-5.674-.48-11.322-1.2-16.976-2.172-2.272-.388-4.555-.739-6.828-1.105-.045-4.83.052-9.667.006-14.5-.2-20.873-.525-41.833-.745-62.7-.044-4.225.049-8.455.007-12.678l67.851-.646c.2.147.164.337.18.549.214,2.82-.321,5.781.184,8.567l-.008,62.354.182.638Z" transform="translate(-200.981 -87.375)" fill="#fff"/>
          <path id="Trazado_893784" data-name="Trazado 893784" d="M548.028,102.737l.73,62.164-68.025.73L480.2,103.3Z" transform="translate(-200.61 -42.92)" fill="#fff"/>
          <path id="Trazado_893785" data-name="Trazado 893785" d="M657.325,163.944l-59.271.547-.73-62.164c3.372-.042,6.755.055,10.13.008,10.057-.14,20.205-.458,30.258-.562,6.143-.064,12.289.067,18.432,0l.368.179Z" transform="translate(-249.542 -42.51)" fill="#fff"/>
          <path id="Trazado_893786" data-name="Trazado 893786" d="M548.543,82.7V94c-2.132.093-4.36-.122-6.482-.008-.263.014-1.36.436-1.36-.083V88.077a1.12,1.12,0,0,0,.183-.364c.077-.433.085-.76-.366-.639v7.11l-59.088.364a6.191,6.191,0,0,1,1-1.1c2.671-2.44,5.5-4.716,8.212-7.1.537-.473,3.738-3.649,4.01-3.649Zm-7.294,3.828c.638-.23.267-1.023.135-1.5a2.78,2.78,0,0,0-1.047-1.779c.084.591-1.423,3.688-1.277,3.828s.693-.185.911-.183c.073-.325-.266-.11-.359-.187a3.86,3.86,0,0,1,1-2c.091-.04.905,1.472.639,1.823" transform="translate(-201.126 -34.549)" fill="#fff"/>
          <path id="Trazado_893787" data-name="Trazado 893787" d="M573.85,23.931c-.318-.043-.178.416-.182.638-.011.545.038,1.11.008,1.649-.019.321-.186.58-.2.9-.075,1.971.07,3.963.008,5.933l-31.916.09,3.28-4.013c1.886-1.959,3.649-4.024,5.471-6.016a6.676,6.676,0,0,1,1.03-.975c.476-.138,1.24.059,1.792-.214l20.342.007.182.912.174-.829c4.438-.26,8.961.061,13.421-.075a39.447,39.447,0,0,1,4,0c.676.038,2.333-.185,2.753.164.639,1.043,1.564,1.852,2.24,2.865.9,1.356,1.942,3.124,2.735,4.558.6,1.086,1.079,2.251,1.67,3.343l-26.808.183Z" transform="translate(-226.25 -9.142)" fill="#fff"/>
          <path id="Trazado_893788" data-name="Trazado 893788" d="M558.226,62.647v11.3l-53.617.182c1.059-1.272,2.328-2.356,3.468-3.552,1.787-1.876,3.759-3.9,5.471-5.834.495-.558.971-1.712,1.761-1.885,7.954-.105,15.912.03,23.867-.024.314,0,.582-.2.9-.2,6.05-.043,12.105.048,18.153.008" transform="translate(-210.809 -26.164)" fill="#fff"/>
          <path id="Trazado_893789" data-name="Trazado 893789" d="M597.325,82.372c5.075-.042,10.158.054,15.235.008,6.629-.061,13.418-.229,20.046-.38a39.686,39.686,0,0,1,5.113.009c.8.114,1.228,1.174,1.732,1.733,3.143,3.486,6.211,6.462,10.636,8.328l2.681.967-55.441.638Z" transform="translate(-249.542 -34.222)" fill="#fff"/>
          <path id="Trazado_893790" data-name="Trazado 893790" d="M566.288,42c.145,3.39-.192,6.934-.008,10.308.028.5.523,1.019-.26,1.182-3.407.033-6.819-.059-10.225-.013-.315,0-.583.194-.9.2-10.181.125-20.375-.108-30.554-.008l1.012-1.63c1.557-2.077,3.471-3.834,5-5.938.644-.356,3.464-4.1,3.741-4.1Z" transform="translate(-219.053 -17.545)" fill="#fff"/>
          <path id="Trazado_893791" data-name="Trazado 893791" d="M637.506,73.32l-40.3.365-.172-11.292a5.858,5.858,0,0,1,.8-.2c4.363-.36,9.578.059,14.058.016.314,0,.582-.194.9-.2,5.89-.053,11.784.035,17.673.032a.893.893,0,0,1,.384.345c.535.732,1.224,1.869,1.708,2.668a63.491,63.491,0,0,0,4.012,6.563Z" transform="translate(-249.419 -25.899)" fill="#fff"/>
          <path id="Trazado_893792" data-name="Trazado 893792" d="M597.012,41.879l27.245-.162c.295.087,1.49,2.8,1.781,3.323,1.453,2.612,3.049,5.162,4.349,7.867.065.487-.164.116-.632.084-3.495-.241-7.12.16-10.578.2-5.54.061-11.087.055-16.6.182-1.853.043-3.718-.047-5.57-.008Z" transform="translate(-249.412 -17.428)" fill="#fff"/>
          <path id="Trazado_893793" data-name="Trazado 893793" d="M697.819,52.29l-2.09.371a60.765,60.765,0,0,0-8.571,0c-6.552.116-13.12-.076-19.672-.039l-.674-.42c-3.378-3.436-6.554-7-9.662-10.668,1.974-.043,3.959.052,5.935.007.316-.008.581-.191.9-.2,2.724-.053,5.459.029,8.183.039a71.651,71.651,0,0,0,20.544,10.091,30.738,30.738,0,0,0,5.111.816" transform="translate(-274.536 -17.265)" fill="#fff"/>
          <path id="Trazado_893794" data-name="Trazado 893794" d="M682.653,72.6l-.995.371c-4.257-.15-8.551.092-12.766.182-1.876.04-3.761-.024-5.637-.031-.455-.2-.508-.72-.76-1.064a92.443,92.443,0,0,1-5.587-9.182,10.68,10.68,0,0,1-.7-1.032c.145-.119,3.179.027,3.746.007.318-.011.58-.189.9-.2a52.4,52.4,0,0,1,5.486,0c1.313.122,2.813,2.208,3.82,3.109a45.649,45.649,0,0,0,11.034,7.383,4.868,4.868,0,0,0,1.461.454" transform="translate(-274.142 -25.725)" fill="#fff"/>
          <path id="Trazado_893795" data-name="Trazado 893795" d="M580.945,13.422l-21.52.364a36.625,36.625,0,0,1,2.642-2.737c3.336-2.987,9.227-6.623,13.581-7.753a16.907,16.907,0,0,1,3.755-.257c.37-.02.725-.283,1.076-.182.486.14.242,1.755.277,2.278.021.322.184.581.2.9.107,2.448-.094,4.94-.007,7.391" transform="translate(-233.709 -1.184)" fill="#fff"/>
          <path id="Trazado_893796" data-name="Trazado 893796" d="M501.783,62.974c-.843.929-1.549,2.081-2.368,3.011a28.561,28.561,0,0,0-2.918,3.1c-1.709,1.37-3.317,3.747-5.015,5.014a1.509,1.509,0,0,1-.908.369c-2.037.186-4.837.04-6.945,0-2.2-.041-4.14-.125-6.368,0a17.606,17.606,0,0,1-2.1-.008c-.064-.052.1-.2.183-.272,1.478-1.139,3.667-2.2,5.281-3.288,2.4-1.612,5.6-3.723,7.759-5.552.54-.455,1.639-1.869,2.093-2.1.082-.042.779-.272.822-.272Z" transform="translate(-198.498 -26.308)" fill="#fff"/>
          <path id="Trazado_893797" data-name="Trazado 893797" d="M616.394,13.426H596.7V2.852c.391.014.788-.029,1.18.006a22.09,22.09,0,0,1,7.941,1.906,24.311,24.311,0,0,1,10.215,8.019,2.676,2.676,0,0,1,.36.642" transform="translate(-249.28 -1.188)" fill="#fff"/>
          <path id="Trazado_893798" data-name="Trazado 893798" d="M662.953,32.5c-2.764.048-5.54-.061-8.306-.007-.316.006-.58.189-.9.2a41.7,41.7,0,0,1-4.392,0,3.965,3.965,0,0,1-.869-.226l-4.324-4.427c-1.667-2.1-3.844-3.87-5.56-5.928-.714-.858-.013-.42.4-.4.22.009.434-.146.69-.151a78.389,78.389,0,0,1,7.856,0,4.232,4.232,0,0,1,1.537.652c1.879,1.192,3.814,3.017,5.669,4.359,2.582,1.868,5.312,3.517,7.823,5.488.143.112.348.26.374.447" transform="translate(-266.66 -8.961)" fill="#fff"/>
          <path id="Trazado_893799" data-name="Trazado 893799" d="M524.278,41.942c.161.148-.178.433-.273.547-1.608,1.916-3.211,3.867-4.831,5.744-.568.658-1.385,1.244-1.912,1.917-.633.808-1.174,1.824-1.917,2.641-.276.3-.987,1-1.371,1h-10.3l3.189-2.92c3.584-2.844,6.9-6.005,10.4-8.93.894.18,6.763-.238,7.021,0" transform="translate(-210.416 -17.491)" fill="#fff"/>
          <path id="Trazado_893800" data-name="Trazado 893800" d="M651.593,41.683c.106.029,1.342,1.319,1.553,1.547,2.581,2.781,4.9,5.959,7.651,8.577.122.116,1.348.971,1.1,1.178-.231.194-1.37-.169-1.725-.189-1.783-.1-3.549.136-5.289.2-1.149.041-2.308-.052-3.457,0-1.567-2.566-2.9-5.267-4.33-7.91a24.88,24.88,0,0,1-1.707-3.036.306.306,0,0,1,.186-.365Z" transform="translate(-269.615 -17.414)" fill="#fff"/>
          <path id="Trazado_893801" data-name="Trazado 893801" d="M544.254,22.271c-.632.727-1.192,1.555-1.821,2.282-2.33,2.691-4.736,5.369-7.118,8.015-.376.417-.249.771-.992.831-1.7.138-3.585-.119-5.3-.016-.312.019-.575.162-.9.2-.157.017-.586.066-.645-.1.347-.318.651-.69,1-1.006,3.387-3.065,7.068-5.832,10.583-8.745.334-.277,1.319-1.461,1.638-1.461Z" transform="translate(-220.362 -9.304)" fill="#fff"/>
          <path id="Trazado_893802" data-name="Trazado 893802" d="M645.921,32.873h-5.927a5.574,5.574,0,0,1-.609-.849c-1.509-2.26-2.781-4.9-4.253-7.234-.555-.882-1.166-1.749-1.794-2.582-.037-.347-.008-.26.272-.272a8.428,8.428,0,0,1,2.285.087,6.33,6.33,0,0,1,.728.73c2.384,2.629,4.906,5.214,7.289,7.844a14.354,14.354,0,0,1,2.009,2.276" transform="translate(-264.582 -9.15)" fill="#fff"/>
          <path id="Trazado_893803" data-name="Trazado 893803" d="M631.011,17.107c-.8.009-1.436.472-2.185-.094-.295-.223-.342-.51-.548-.728-1.039-1.1-2.082-2.21-3.1-3.281-.3-.311-.62-.6-.914-.909l2,1.1c1.457,1.438,3.385,2.428,4.746,3.913" transform="translate(-260.797 -5.053)" fill="#fff"/>
          <path id="Trazado_893804" data-name="Trazado 893804" d="M587.956,2.205c.146.121-.222.3-.365.181s.222-.3.365-.181" transform="translate(-245.462 -0.905)" fill="#fff"/>
          <path id="Trazado_893805" data-name="Trazado 893805" d="M556.633,2.831c.146.121-.222.3-.365.181s.222-.3.365-.181" transform="translate(-232.376 -1.167)" fill="#fff"/>
          <path id="Trazado_893806" data-name="Trazado 893806" d="M309.049,158.635c.043,4.4-.054,8.818-.008,13.224.108,10.171.1,20.42.182,30.626.087,11.217.583,22.5.183,33.71-.021.573.139,3.611.008,3.745-.355.363-8.413-1.707-9.615-1.965-5.127-1.1-10.282-2.1-15.416-3.185-4.143-.877-8.243-1.9-12.425-2.528l-.266-.281c-.514-1.9-1.164-3.753-1.625-5.668-3.142-13.061-6.047-26.177-9.026-39.287-.791-3.479-1.661-6.883-2.371-10.391a26.9,26.9,0,0,1-.844-4.215,37.293,37.293,0,0,0,4.142-5.7c1.2-2.25,1.7-5.068,3.488-6.905,1.167-1.2,3.467-.74,5.029-.806.32-.013.58-.187.9-.2,4.7-.147,9.437.126,14.141.007.043-.317-.417-.177-.638-.182-5.531-.11-11.072.089-16.6-.008a4.675,4.675,0,0,1-1.725.189c-.144-.117,2.095-2.654,2.186-3.01,1.847-1.888,4.542-3.529,5.692-5.977a54.323,54.323,0,0,0,4.9-19.9c.546-9.726-1.619-21.808-5.154-30.958-.153-.4-1.1-2.054-1.054-2.223.061-.237,3.012-1.346,3.459-1.651,11.394-4.129,22.645-8.814,33.925-13.3,1.747-.7,3.616-1.07,5.29-1.912a17.923,17.923,0,0,1,.189,2.272c1.352,11.4,6.885,19.9,17.557,24.562a28.914,28.914,0,0,0,10.523,2.151l.365,49.4c-8.966.042-17.939-.054-26.908-.008-.314,0-.583.2-.9.2-9.843.048-19.713-.206-29.552-.008-.222,0-.681-.136-.638.182Z" transform="translate(-107.711 -33.372)" fill="#fff"/>
          <path id="Trazado_893807" data-name="Trazado 893807" d="M381.431,215.142l.547,81.488c-4.527.042-9.064-.054-13.595-.008-6.762.069-13.621.337-20.425.2l-1.177-.191c-.045-11.15.052-22.306.006-33.458-.052-12.7-.209-25.568-.38-38.267-.041-3.1.051-6.208,0-9.31a.581.581,0,0,1,.279-.451Z" transform="translate(-144.713 -89.879)" fill="#fff"/>
          <path id="Trazado_893808" data-name="Trazado 893808" d="M286.848,79.309c.055.6-.076.275-.359.28a16.407,16.407,0,0,0-2.624.263c-.09.017-.21.433-.663.643-3.638,1.7-8.224,2.241-12.138,3-11.106,2.144-22.252,4.037-33.354,6.218a13.681,13.681,0,0,0-1.378.355,30.251,30.251,0,0,0,.868,3.417c.89,4.022,1.543,8.076,2.511,12.074,1.009,4.169,1.746,8.965,2.452,13.227.965,5.819,1.5,11.692,2.371,17.5a43.181,43.181,0,0,1,.363,5.106,84.212,84.212,0,0,1,.2,10.208c-.086,1.019-.587,2.117-.731,3.1-.072.494.207,1.316-.307,1.516-1.538.186-3.212.962-4.721,1.114a12.671,12.671,0,0,1-1.909.007c-.139-.139.034-3.326.008-3.927-.266-5.976-1.435-12.42-2.19-18.411-.492-3.9-1.28-7.451-2.006-11.3-2.065-10.952-4.407-21.865-6.8-32.763-.363-1.654-1.129-3.207-1.232-4.874l1.824-.366c-.448.026-.915-.045-1.362.005-.856.1-.907.185-.82.991.214,1.974,1.19,4.466,1.645,6.559,2.367,10.879,4.92,21.692,6.914,32.647.771,4.24,1.51,8.467,2.018,12.75.629,5.314,1.426,10.655,1.643,16.04a24.157,24.157,0,0,1-.008,3.016c-.051.051-.78-.034-1.011-.008-.281.031-.5.158-.728.184-.773.089-1.639-.263-1.868.681a28.727,28.727,0,0,0-.412,3.967c-.343,3.215-.754,6.41-.912,9.662l-.632,3.743a1.571,1.571,0,0,1-.414-.862c-.654-2.441-.844-5.548-1.36-8.12-1.516-7.57-3.507-15.143-5.477-22.6q-5.36-20.3-10.572-40.658c-.777-3.057-1.7-5.842-2.325-8.978-.3-1.5-.619-3.05-.907-4.562-.662-3.478-1.123-7-1.834-10.472l.813-.191c7.057-.027,14.115.063,21.171.016,11.508-.076,23.106-.116,34.65-.182,6.587-.038,13.655-.667,20.244-.2.446.031.868.3,1.36.19m-4.833.729a.091.091,0,0,0,0,.182.091.091,0,0,0,0-.182m-.274.183c-.766.111-1.528.112-2.287.174-.318.026-.579.172-.9.2-.592.047-1.243-.056-1.839-.015-5.022.348-9.966.776-14.942,1.471-7.354,1.028-14.714,1.323-22.067,2.006-3.934.366-7.895.856-11.819,1.311l-.679.505c.451-.014.909.029,1.361-.005,1.535-.115,3.089-.5,4.56-.728,6.594-1,13.414-1.224,20.074-1.81,8.049-.709,16.01-1.929,24.058-2.568.592-.047,1.227.059,1.825,0a4.107,4.107,0,0,1,1.46-.182Z" transform="translate(-87.15 -32.981)" fill="#fff"/>
          <path id="Trazado_893809" data-name="Trazado 893809" d="M311.815,80.625c.021,0,.051-.119.143-.139.723-.157,1.332-.473,1.955.137l-.087-.617c-.052-.144-.716-.143-.369-.475a10.407,10.407,0,0,1,2.179.009,1.284,1.284,0,0,1,.115.721,11.512,11.512,0,0,1-1.011,1.372c-.862.912-5.642,2.327-7.12,2.91-4.741,1.872-9.486,3.769-14.226,5.649-4.07,1.615-8.136,3.272-12.268,4.691-1.033.355-1.987.953-3.05,1.237.437,1.683,1.566,3.09,2.1,4.735a88.792,88.792,0,0,1,3.546,15.049c.342,2.533.98,5.1,1.107,7.644a62.28,62.28,0,0,1-3.148,21.114c-1.252,3.507-2.969,7.035-6.07,9.246-.26-.135,0-.495.058-.672,1.28-3.694,2.425-6.349,2.947-10.363,1.614-12.423-1-26.008-3.687-38.232-.657-2.992-1.877-6.033-2.645-9.023a12.825,12.825,0,0,1-.411-1.868,3.282,3.282,0,0,0,.415-.038c10.509-3.015,21.036-5.982,31.5-9.173a66.7,66.7,0,0,0,6.752-2.091,10.973,10.973,0,0,1,1.367-.194,4.628,4.628,0,0,1,.82.2,2.838,2.838,0,0,1,.208-.616c.136-.21.9-.827.705-1.026a1.99,1.99,0,0,0-.64.37c-.178.223.024.617-.636.177-.053-.41-.174-.342-.183-.364-.084-.224.2-.454-.364-.364" transform="translate(-113.577 -33.203)" fill="#fff"/>
          <path id="Trazado_893810" data-name="Trazado 893810" d="M305.641,81.447c-.029.224.313.292.365.364s-.118.164.183.364c.111.861-.5.594-1.143.771a4.045,4.045,0,0,0-.681.323,26.259,26.259,0,0,0-2.913.825c-9.146,2.438-18.226,5.246-27.309,7.886-2.68.779-5.784,1.189-8.359,2.217-.179.072-.348.084-.44.3l3.6,13.335c2.131,11.412,4.781,22.946,3.318,34.591a50.845,50.845,0,0,1-3.18,12.134c-.505,1.308-2.7,1.753-3.837,2.363l.1-1.907a137.328,137.328,0,0,0,0-15.872c-.225-2.983-.7-5.948-1.106-8.921-.842-6.118-1.806-12.285-2.922-18.408-.894-4.9-2.058-9.693-2.914-14.588-.14-.8-1.589-5.666-1.267-5.925,1.187-.213,2.374-.515,3.563-.724C271.9,88.6,283.065,86.5,294.232,84.354c4.015-.773,7.553-2.036,11.408-2.907" transform="translate(-107.402 -34.026)" fill="#fff"/>
          <path id="Trazado_893811" data-name="Trazado 893811" d="M257.177,303.58c-1.1-.1-1.414-.187-1.783-1.225a56.616,56.616,0,0,1-1.357-5.753q-3.005-12.473-5.84-24.97c-.459-2.026-1.158-4.064-1.556-6.1a63.887,63.887,0,0,1-.953-8.072l-.189,1.557a8.373,8.373,0,0,1,.2,2.356c.487,4.748,1.976,9.439,3.05,14.088,2.054,8.889,3.953,17.843,6.1,26.712a4.944,4.944,0,0,1,.323,1.043l-14.654-3.126c-.439-.171-.341-1.248-.308-1.712.192-2.674.465-5.361.731-8.02.863-8.618,1.907-17.129,2.735-25.7a70.526,70.526,0,0,1,.776-7.792,16.07,16.07,0,0,0,.507-1.955c.366.064.3.383.381.622,1.5,4.491,2.484,8.756,3.586,13.369,1.923,8.043,3.8,16.118,5.743,24.156.846,3.505,1.769,7,2.508,10.527" transform="translate(-100.338 -106.491)" fill="#fff"/>
          <path id="Trazado_893812" data-name="Trazado 893812" d="M250.034,233.975c.119-.006.351-.059.376.106.218,1.446.4,2.908.542,4.355.04.408-.042.969,0,1,.08.047.253-.054.366.122.758,1.178,1.3,5.787,1.676,7.412,3.079,13.358,6.458,26.665,9.576,40.013a15.084,15.084,0,0,1,.409,2.051c-.077.076-1.913-.257-1.977-.666-1.008-4.9-2.287-9.735-3.453-14.6-2.146-8.939-4.195-17.93-6.286-26.895A43.2,43.2,0,0,0,249.759,242a12.8,12.8,0,0,1-.813-6.65c.424-4.62,1.024-9.241,1.448-13.866.069-.753.088-1.521.189-2.273.255-.042.248.306.318.5.3.827.631,1.753.871,2.594a23.4,23.4,0,0,1,.607,2.32c.079.518-2.339,1.5-2.337,1.785a4.672,4.672,0,0,1,.268.456c.3.9.657,1.788.961,2.684a15.068,15.068,0,0,1,.781,2.512c-.022.362-1.208,1.068-1.565,1.365a1.444,1.444,0,0,0-.454.549m.73,6.2c.118-.142-.061-.51-.181-.364s.061.51.181.364" transform="translate(-103.954 -91.577)" fill="#fff"/>
          <path id="Trazado_893813" data-name="Trazado 893813" d="M265.042,285.51a37.8,37.8,0,0,0-1.232-5.787c-2.242-9.551-4.31-19.146-6.473-28.713-.469-2.078-1.576-5.008-1.772-6.979a16,16,0,0,1,.018-2.886c.059-.2.73-.832.887-.663a5,5,0,0,0,.033.6c1.451,4.939,2.574,10.328,3.752,15.391,1.094,4.7,2.094,9.428,3.19,14.13,1.761,7.552,3.513,15.059,5.289,22.605.454,1.931,1.119,3.839,1.413,5.787l-1.812-.375a80.347,80.347,0,0,0-2.153-8.513,9.739,9.739,0,0,0-.593-2.051c-.053-.349-.149-.7-.183-.911-.059-.379-.118-.625-.182-.912a2.223,2.223,0,0,0-.182-.729" transform="translate(-106.743 -100.454)" fill="#fff"/>
          <path id="Trazado_893814" data-name="Trazado 893814" d="M264.282,288.67a3.1,3.1,0,0,0,.182.729c.056.356.138.66.182.912.073.412-.077.445.183.911a56.677,56.677,0,0,0,1.6,6.7c.3,1.132.43,2.3.778,3.415.092.664-.807.01-1.038-.058-.337-.1-.8.11-.945-.331-.361-1.6-.6-3.252-.983-4.851-3.2-13.372-6.674-26.753-9.576-40.2a31.455,31.455,0,0,1-.964-5.432c.063-.711.653-1.691.737-2.454.536.254.448,1.167.586,1.692,2.529,9.574,4.5,19.335,6.753,28.981.652,2.789,1.429,7.6,2.508,9.98" transform="translate(-105.983 -103.613)" fill="#fff"/>
          <path id="Trazado_893815" data-name="Trazado 893815" d="M264.8,216.03a7.275,7.275,0,0,1-1,2.551,33.492,33.492,0,0,1-3.743,2.821c-.3.2-.707.426-1.031.611-.2.116-.348.264-.606.215v-6.2c.819.169,6.155-.224,6.383,0" transform="translate(-107.956 -90.221)" fill="#fff"/>
          <path id="Trazado_893816" data-name="Trazado 893816" d="M263.109,221.706c.331.36-2,4.7-2.4,5.348A14.646,14.646,0,0,1,257.456,231a4.217,4.217,0,0,1,.19-1.36c.114-1.124.075-2.356.181-3.465a9.754,9.754,0,0,1,.2-.986c.029-.041.684-.349.878-.49,1.076-.776,2.093-1.525,3.12-2.35.153-.122.975-.766,1.085-.647" transform="translate(-107.546 -92.615)" fill="#fff"/>
          <path id="Trazado_893817" data-name="Trazado 893817" d="M255.379,216.058c.424.4.052,5.184.186,6.111.08.422-1.4,1.256-1.462,1.181a17.452,17.452,0,0,1-.588-2.968,22.346,22.346,0,0,1-1.054-4.324c.426.075,2.812-.1,2.918,0" transform="translate(-105.47 -90.249)" fill="#fff"/>
          <path id="Trazado_893818" data-name="Trazado 893818" d="M259.353,213.363l1.408-.507c1.394,0,3.307-.988,4.553-1.1.157-.013.384.163.406.13.044-.068-.048-.24.128-.361.671-.461,1.994-.571,2.716-1.084.114.122-.115.406-.193.536a15.279,15.279,0,0,1-2.908,3.474c-.29-.338.047-.843.075-1.19.02-.247-.123-.671.016-1-.433.017-.484,1.094-.547,1.094Z" transform="translate(-108.349 -87.918)" fill="#fff"/>
          <path id="Trazado_893819" data-name="Trazado 893819" d="M253.345,229.855c.1.116.482,2.172.594,2.6a8.637,8.637,0,0,1,.659,2.565,3.684,3.684,0,0,1-.979,1.217c-.242.012-1.377-4.086-1.638-4.559,0-.213-.457-.593-.458-.635a7.919,7.919,0,0,1,1.822-1.185" transform="translate(-105.078 -96.024)" fill="#fff"/>
          <path id="Trazado_893820" data-name="Trazado 893820" d="M251.826,243.182c.049-.047.229-.032.332-.115.423-.341.844-.689,1.289-1l.182,2.824c-.244.353-.751,2.455-1,2.461-.322.009-.437-1.96-.628-2.288.076-.391-.4-1.674-.172-1.885" transform="translate(-105.179 -101.128)" fill="#fff"/>
          <path id="Trazado_893821" data-name="Trazado 893821" d="M256.553,231.118c0,.05-.137.114-.148.217l-.216,1.15-.917-3.2c-.009-.493.9-.787,1.281-1-.051.924.07,1.91,0,2.826" transform="translate(-106.644 -95.373)" fill="#fff"/>
          <path id="Trazado_893822" data-name="Trazado 893822" d="M247.856,245.826a.091.091,0,0,1,0,.182.091.091,0,0,1,0-.182" transform="translate(-103.509 -102.698)" fill="#fff"/>
          <path id="Trazado_893823" data-name="Trazado 893823" d="M83.554,167.609a1.163,1.163,0,0,0,.087.361c.213.369.8.658.642,1.279-6.109.045-12.225-.056-18.336-.007-13.289.107-26.607.278-39.939.364-7.522.049-15.446.642-22.979.2a6.314,6.314,0,0,0-1.907-.19L.939,89.038c1.061-.039,2.138.052,3.2.008,7.732-.322,17.2-1.3,22.7-7.388.351-.388,1.412-1.976,1.754-2.08a.758.758,0,0,1,.333-.024L78.99,97.43c-.143,2.206-1.464,4.132-2.1,6.188A129.55,129.55,0,0,0,72.241,123.4a75.119,75.119,0,0,0,1.51,27.123c1.307,5.377,3.475,10,7.521,13.811.184.173.459.24.649.445.557.6.734,2.335,1.634,2.833a8.445,8.445,0,0,1-.729-2.005c.139-.139,1.106.307,1.276.456.6.526.3,1.73.364,2.461Z" transform="translate(-0.392 -33.231)" fill="#fff"/>
          <path id="Trazado_893824" data-name="Trazado 893824" d="M83.7,301.617c-4.588.045-9.185-.053-13.774-.006-.315,0-.583.194-.9.2-22.2.208-44.365.134-66.579.181-.345.038-.616-.092-.638-.457-.033-6.263.059-12.527.013-18.789-.049-6.639-.132-13.374-.182-20.053-.068-9-.61-18.322-.193-27.34.01-.218-.051-.447.086-.644l83.09-.641c.356.252.618,3.285.758,3.982a30.911,30.911,0,0,0,2.9,8.036c.189.326.579.539.673.968a13.573,13.573,0,0,1,.024,1.981c.16,3.117-.544,6.327-.909,9.467-1.035,8.892-1.847,17.877-2.736,26.8-.483,4.849-.847,9.763-1.447,14.6-.07.568-.1,1.157-.19,1.725" transform="translate(-0.54 -97.785)" fill="#fff"/>
          <path id="Trazado_893825" data-name="Trazado 893825" d="M117.821,187.957v1.185a12.52,12.52,0,0,1,.359-2.285c.056-.52-.08-1.159,0-1.624.031-.192.313-.065.376-.1.263-.155-2.3-1.56-2.325-1.906-.017-.3.419-1.547.494-2.019.1-.617.108-1.37.194-1.993.115-.834.568-2.09.335-2.9-.126-.437-2.115-1.454-2.128-1.658l.323-1.654c-.2-1.042.834-4.485.157-5.159-.056-.055-1.208-.576-1.426-.67-.2-.086-.879-.24-.913-.274-.1-.1.173-.743.19-.993.385-5.752.9-11.405,1.821-17.139.429-2.678,1.225-5.382,1.63-8.032.2-1.281.18-2.717.376-4,.6-3.9,1.757-7.959,2.538-11.865.771-3.856,1.567-7.77,2.2-11.651,1.015-6.18,2.486-12.264,3.635-18.424.61-3.266,1.513-6.741,1.836-10.014.033-.333.431-.74-.273-.832-.874-.114-1.854-.108-2.736-.182-.22-.019-.444-.161-.728-.184-.59-.048-1.24.048-1.839.015-.485-.027-.99-.325-1.542-.189l.826.358,3.453.194a13.839,13.839,0,0,0,2.378.36c.28.013.306-.079.275.275-.88,3.739-1.5,7.528-2.186,11.306-1.389,7.624-3.122,15.334-4.571,22.958-1,5.29-2.261,10.563-3.1,15.86-1.1,6.922-2.627,13.827-3.454,20.793-.388,3.276-.6,6.581-.912,9.844-.035.362.01.728-.006,1.09-.012.282.073.3-.277.275l-3.562-1.933c-.042-2,.085-4.012.016-6.008a139.662,139.662,0,0,1,1.263-22.421c.33-2.571.613-5.1.923-7.645.8-6.586,1.98-13.149,3.085-19.7.9-5.361,1.9-10.691,2.751-16.027.21-1.309.557-2.6.718-3.92l-5.745-1.093c-8.7-1.123-17.37-3.174-26.08-4.557-2.41-.383-4.87-.539-7.282-.925-3.638-.582-7.225-1.5-10.856-2.093-.345-.056-.455-.2-.73.186l1.178.1c8.4,1.881,16.876,3.047,25.366,4.541,6.925,1.217,13.931,2.3,20.775,3.479.42.072,2.727.443,2.831.543.125.118-.161.632-.176.824-.575,6.833-2.327,13.611-3.464,20.418-.6,3.619-1.175,7.288-1.653,10.927-1.151,8.764-2.541,17.615-3.1,26.431-.345,5.426-.069,10.759-.175,16.233,0,.156.083.44-.091.455-.434-.577-1.262-.609-1.8-.934-.78-.471-1.559-3.2-1.852-4.165a40.831,40.831,0,0,1-1.551-7.747,113.877,113.877,0,0,1,.182-21.158c.94-10.7,3.748-21.52,5.665-32.073.275-1.518.717-3.256.9-4.753a1.906,1.906,0,0,0,0-.621c-.121-.12-2.8-.939-3.228-1.057-2.186-.611-4.454-.972-6.656-1.55C91.668,88.166,82.917,85.65,74.1,83.449a54.464,54.464,0,0,1-5.621-1.325c-.379-.139-.427.033-.684-.013-.54-.1-1.312-.868-1.952-.89l1.651.993c.465.31,1.026.208,1.5.323,10.357,2.513,20.61,5.4,30.907,8.117,3.35.884,6.8,1.417,10.065,2.61a7.3,7.3,0,0,1-.348,2.274q-.719,4.548-1.693,9.064c-3.212,15.043-5.851,29.775-4.873,45.249a53.584,53.584,0,0,0,2.318,11.355c.069.242.287.76.138.956a4.141,4.141,0,0,1-1.006-.817c-5.935-6.4-7.011-18.675-7.663-26.977a34.361,34.361,0,0,1-.171-5.651c.068-.757.454-1.678.534-2.382.163-1.43.175-2.911.377-4.363a126.462,126.462,0,0,1,3.91-17.238c.659-2.3,1.891-4.469,2.427-6.872.091-.41.34-1.4.14-1.7-.117-.174-3.368-1.406-3.879-1.592-9.6-3.5-19.33-6.894-29-10.208-1.679-.576-4.256-1.072-5.708-1.769-.41-.2-.614-.516-.96-.681-.5-.242-.741.067-.584-.505-.069.24-.776.045-.825,0-.033-.033.232-.382.183-.546l-.73.364-.073-.335c-.243.166-.469-.052-.746-.029-.214-.023.155-.3.091-.364-.032-.033-.667.2-.913,0-.134-.109.626-.5.456-.727l-.82.455c.321-.258.586-.764,1-.824a9.158,9.158,0,0,1,1.463.109c6.306-.082,12.162.669,18.427.98,6.193.308,12.233,1.029,18.406,1.654,4.718.477,9.511.664,14.237,1.082,1.826.162,3.623.342,5.463.377.165,0,.313.15.371.15.148,0,.369-.429.269-.521-.078-.071-1.741.03-2.1.008-6.69-.412-13.391-.932-20.048-1.654-8.1-.879-16.307-1.291-24.449-1.994-4.423-.383-8.874-.451-13.306-.919-.338-.036-.458.174-.458-.271,0-.1.5-.256.642-.271.863-.093,1.854.047,2.74,0,6.417-.3,12.88-.123,19.331-.182,9.471-.087,18.976-.322,28.435-.182,8.922.131,18.56-.838,27.369-.014.451.043.912-.015,1.362.007a8.1,8.1,0,0,0-.359,1.372c-4.02,26.506-10.8,52.551-15.68,78.939-1.114,6.017-1.952,12.291-2.75,18.4-.594,4.545-.791,9.071-1.1,13.67-.023.341.07,1.846.007,1.922-.159.189-3.8-2.212-3.987-2.851-.213-.725.109-2.084-.032-2.9.186-.35.28-2.163.372-2.272.217-.256,1.641.84,1.641,1ZM66.209,80.492l-1.094-.547c.072.264.412.413.638.547.161.1.405.436.456,0m-4.65-.365a.091.091,0,0,0,0,.182.091.091,0,0,0,0-.182m1.458.364a.091.091,0,0,0,0,.182.091.091,0,0,0,0-.182m3.739.183c-.142-.117-.51.061-.364.181s.51-.061.364-.181m-2.827.182a.091.091,0,0,0,0,.182.091.091,0,0,0,0-.182m.821,0c-.142-.117-.511.061-.364.182s.51-.061.364-.182m3.191.911a.091.091,0,0,0,0,.182.091.091,0,0,0,0-.182m49.7,108.1a2.852,2.852,0,0,0,0-.546c-.238-.288-.238.833,0,.546" transform="translate(-24.993 -32.342)" fill="#fff"/>
          <path id="Trazado_893826" data-name="Trazado 893826" d="M155,253.221c-.138.162-1.5-.816-1.649-.994-.357-.419-.039-.551,0-.927.228-2.03.56-4.059.735-6.1.451.336,2.021,1.181,2.01,1.726-.005.3-.3.909-.359,1.291-.18,1.081-.219,2.219-.381,3.266-.04.259-.3,1.67-.359,1.738" transform="translate(-63.993 -102.436)" fill="#fff"/>
          <path id="Trazado_893827" data-name="Trazado 893827" d="M148.372,245.406c-.267-.045-.361-.33-.458-.545a30.792,30.792,0,0,1-1.279-3.643,32.736,32.736,0,0,1-1-5.109c.154-.193,1.322,1.571,1.456,1.734.25.306,1.279,1.15,1.279,1.456Z" transform="translate(-60.833 -98.632)" fill="#fff"/>
          <path id="Trazado_893828" data-name="Trazado 893828" d="M151.6,233.61c.147-.55,1.814.067,1.832.2a10.011,10.011,0,0,1-.014,1.622c-.072,1.04-.235,2.224-.36,3.286a5.352,5.352,0,0,1-.181.64,6.091,6.091,0,0,1-1.276-1Z" transform="translate(-63.335 -97.501)" fill="#fff"/>
          <path id="Trazado_893829" data-name="Trazado 893829" d="M154.115,263.662a5.323,5.323,0,0,1-1.284-4.109,7.139,7.139,0,0,1,.185-.727c.128-.867-.208-1.216.908-.35a6.521,6.521,0,0,1,.907.929Z" transform="translate(-63.842 -107.773)" fill="#fff"/>
          <path id="Trazado_893830" data-name="Trazado 893830" d="M145.96,231.65c-.691-.008-1,.2-1.092-.64-.04-.359.027-.724-.008-1.086-.023-.23-.321-.836-.176-1.008a15.761,15.761,0,0,1,1.7.948c.309.152,1.909.668,1.919.962a5.8,5.8,0,0,1-.157.636c-.079.086-1.719-.049-2.085,0-.175.025-.068.107-.1.187.408,0,2.189-.135,2.189.274v2.734c0,.042-.132.11-.148.216-.041.258.04.641-.125.787a33.91,33.91,0,0,1-2.183-2.74c-1.022-1.605-.072-.865.263-1.1.04-.028-.012-.125,0-.172" transform="translate(-60.428 -95.631)" fill="#fff"/>
          <path id="Trazado_893831" data-name="Trazado 893831" d="M151.992,249.968c-.3-.051-.339-.35-.413-.589a17.794,17.794,0,0,1-.126-3.885c-.012-.316-.178-.575-.2-.9a14.731,14.731,0,0,1,.008-1.921c.187-.2,1.234.856,1.28,1.181.277,1.939-.443,4.165-.551,6.111" transform="translate(-63.178 -101.371)" fill="#fff"/>
          <path id="Trazado_893832" data-name="Trazado 893832" d="M59.854,81.42c.146.121-.222.3-.364.181s.222-.3.364-.181" transform="translate(-24.839 -33.999)" fill="#fff"/>
          <path id="Trazado_893833" data-name="Trazado 893833" d="M58.98,81.134a.091.091,0,0,1,0,.182.091.091,0,0,1,0-.182" transform="translate(-24.603 -33.895)" fill="#fff"/>
          <path id="Trazado_893834" data-name="Trazado 893834" d="M582.592,86.92c.267-.351-.548-1.863-.639-1.823a3.86,3.86,0,0,0-1,2c.093.077.432-.139.359.187-.218,0-.775.313-.911.183s1.361-3.237,1.277-3.828a2.781,2.781,0,0,1,1.047,1.779c.132.48.5,1.273-.135,1.5" transform="translate(-242.469 -34.942)" fill="#161615"/>
          <path id="Trazado_893835" data-name="Trazado 893835" d="M295.089,81.135l-1.191.359a4.107,4.107,0,0,0-1.46.182c-.6.058-1.233-.048-1.825,0-8.048.639-16.009,1.858-24.058,2.568-6.66.586-13.48.805-20.074,1.81-1.471.224-3.025.614-4.56.728-.452.034-.911-.009-1.361.005l.679-.505c3.924-.455,7.885-.946,11.819-1.311,7.352-.683,14.713-.978,22.067-2.006,4.976-.7,9.92-1.124,14.942-1.471.6-.041,1.247.062,1.839.015.318-.025.579-.171.9-.2.759-.062,1.521-.063,2.287-.174" transform="translate(-100.498 -33.895)" fill="#161615"/>
          <path id="Trazado_893836" data-name="Trazado 893836" d="M334.62,80.821a.091.091,0,0,1,0,.182.091.091,0,0,1,0-.182" transform="translate(-139.756 -33.764)" fill="#161615"/>
          <path id="Trazado_893837" data-name="Trazado 893837" d="M251.99,254.933c-.121.146-.3-.222-.181-.364s.3.222.181.364" transform="translate(-105.181 -106.336)" fill="#161615"/>
          <path id="Trazado_893838" data-name="Trazado 893838" d="M70,82.309c-.051.437-.3.1-.456,0-.225-.134-.566-.284-.638-.547Z" transform="translate(-28.788 -34.157)" fill="#161615"/>
          <path id="Trazado_893839" data-name="Trazado 893839" d="M158.991,270.134c-.238.287-.238-.834,0-.546a2.849,2.849,0,0,1,0,.546" transform="translate(-66.346 -112.605)" fill="#161615"/>
          <path id="Trazado_893840" data-name="Trazado 893840" d="M68,83.3c.146.121-.222.3-.364.181s.222-.3.364-.181" transform="translate(-28.241 -34.784)" fill="#161615"/>
          <path id="Trazado_893841" data-name="Trazado 893841" d="M71.443,82.985c.146.121-.222.3-.364.181s.222-.3.364-.181" transform="translate(-29.68 -34.652)" fill="#161615"/>
          <path id="Trazado_893842" data-name="Trazado 893842" d="M65.245,82.7a.091.091,0,0,1,0,.182.091.091,0,0,1,0-.182" transform="translate(-27.22 -34.549)" fill="#161615"/>
          <path id="Trazado_893843" data-name="Trazado 893843" d="M66.811,83.326a.091.091,0,0,1,0,.182.091.091,0,0,1,0-.182" transform="translate(-27.875 -34.811)" fill="#161615"/>
          <path id="Trazado_893844" data-name="Trazado 893844" d="M62.739,82.073a.091.091,0,0,1,0,.182.091.091,0,0,1,0-.182" transform="translate(-26.173 -34.287)" fill="#161615"/>
          <path id="Trazado_893845" data-name="Trazado 893845" d="M73.7,84.891a.091.091,0,0,1,0,.182.091.091,0,0,1,0-.182" transform="translate(-30.753 -35.465)" fill="#161615"/>
        </g>
        <path id="Trazado_894357" data-name="Trazado 894357" d="M3.8-1.488H1.418L.883,0H.109L2.281-5.687h.656L5.113,0h-.77ZM1.645-2.1H3.578l-.969-2.66Z" transform="translate(322.051 14514)" fill="#12263f"/>
        <path id="Trazado_894358" data-name="Trazado 894358" d="M1.41-2.227V0H.66V-5.687h2.1a2.107,2.107,0,0,1,1.463.477A1.616,1.616,0,0,1,4.75-3.949a1.594,1.594,0,0,1-.518,1.275,2.2,2.2,0,0,1-1.482.447Zm0-.613H2.758a1.347,1.347,0,0,0,.922-.284A1.037,1.037,0,0,0,4-3.943a1.072,1.072,0,0,0-.32-.814A1.262,1.262,0,0,0,2.8-5.074H1.41Zm3.941.688A2.5,2.5,0,0,1,5.6-3.27a1.821,1.821,0,0,1,.68-.766A1.85,1.85,0,0,1,7.27-4.3a1.782,1.782,0,0,1,1.4.6A2.3,2.3,0,0,1,9.2-2.117v.051A2.518,2.518,0,0,1,8.963-.959,1.794,1.794,0,0,1,8.287-.2a1.871,1.871,0,0,1-1.01.273,1.778,1.778,0,0,1-1.393-.6A2.288,2.288,0,0,1,5.352-2.1Zm.727.086A1.808,1.808,0,0,0,6.4-.937a1.044,1.044,0,0,0,.873.426,1.038,1.038,0,0,0,.875-.432,1.977,1.977,0,0,0,.324-1.209,1.805,1.805,0,0,0-.33-1.127,1.049,1.049,0,0,0-.877-.432,1.038,1.038,0,0,0-.863.426A1.963,1.963,0,0,0,6.078-2.066Zm6.488.945a.532.532,0,0,0-.221-.455,2.124,2.124,0,0,0-.77-.279,3.638,3.638,0,0,1-.871-.281,1.239,1.239,0,0,1-.477-.391.934.934,0,0,1-.154-.539,1.1,1.1,0,0,1,.439-.879A1.716,1.716,0,0,1,11.637-4.3a1.766,1.766,0,0,1,1.166.371,1.179,1.179,0,0,1,.447.949h-.727a.652.652,0,0,0-.252-.512.944.944,0,0,0-.635-.215.988.988,0,0,0-.617.172.541.541,0,0,0-.223.449A.438.438,0,0,0,11-2.7a2.547,2.547,0,0,0,.748.254,3.9,3.9,0,0,1,.877.289,1.279,1.279,0,0,1,.5.4.994.994,0,0,1,.162.576,1.082,1.082,0,0,1-.453.908A1.9,1.9,0,0,1,11.66.078a2.128,2.128,0,0,1-.9-.18,1.461,1.461,0,0,1-.611-.5,1.21,1.21,0,0,1-.221-.7h.723a.748.748,0,0,0,.291.576,1.129,1.129,0,0,0,.717.213,1.165,1.165,0,0,0,.658-.166A.51.51,0,0,0,12.566-1.121ZM15.211-5.25v1.023H16v.559h-.789v2.624a.587.587,0,0,0,.105.381.444.444,0,0,0,.359.127,1.75,1.75,0,0,0,.344-.047V0a2.107,2.107,0,0,1-.555.078.9.9,0,0,1-.73-.293,1.259,1.259,0,0,1-.246-.832V-3.668h-.77v-.559h.77V-5.25ZM18.6.078a1.847,1.847,0,0,1-1.4-.564A2.1,2.1,0,0,1,16.66-2v-.133a2.536,2.536,0,0,1,.24-1.123,1.874,1.874,0,0,1,.672-.773,1.689,1.689,0,0,1,.936-.279,1.583,1.583,0,0,1,1.281.543,2.351,2.351,0,0,1,.457,1.555v.3H17.383A1.5,1.5,0,0,0,17.748-.9a1.148,1.148,0,0,0,.889.385,1.259,1.259,0,0,0,.648-.156,1.629,1.629,0,0,0,.465-.414l.441.344A1.775,1.775,0,0,1,18.6.078Zm-.09-3.789a.964.964,0,0,0-.734.318,1.547,1.547,0,0,0-.367.893h2.117v-.055a1.376,1.376,0,0,0-.3-.854A.908.908,0,0,0,18.508-3.711Zm4.617.133a2.166,2.166,0,0,0-.355-.027A.952.952,0,0,0,21.8-3V0h-.723V-4.227h.7l.012.488A1.125,1.125,0,0,1,22.8-4.3a.738.738,0,0,1,.32.055ZM24.574,0h-.723V-4.227h.723Zm-.781-5.348a.431.431,0,0,1,.107-.3.4.4,0,0,1,.318-.121.41.41,0,0,1,.32.121.427.427,0,0,1,.109.3.413.413,0,0,1-.109.293.417.417,0,0,1-.32.117.411.411,0,0,1-.318-.117A.417.417,0,0,1,23.793-5.348Zm1.746,3.2a2.5,2.5,0,0,1,.244-1.117,1.821,1.821,0,0,1,.68-.766,1.85,1.85,0,0,1,.994-.27,1.782,1.782,0,0,1,1.4.6,2.3,2.3,0,0,1,.533,1.59v.051A2.518,2.518,0,0,1,29.15-.959a1.794,1.794,0,0,1-.676.764,1.871,1.871,0,0,1-1.01.273,1.778,1.778,0,0,1-1.393-.6A2.288,2.288,0,0,1,25.539-2.1Zm.727.086a1.808,1.808,0,0,0,.326,1.129,1.044,1.044,0,0,0,.873.426,1.038,1.038,0,0,0,.875-.432,1.977,1.977,0,0,0,.324-1.209,1.805,1.805,0,0,0-.33-1.127,1.049,1.049,0,0,0-.877-.432,1.038,1.038,0,0,0-.863.426A1.963,1.963,0,0,0,26.266-2.066Zm6.07-1.512a2.166,2.166,0,0,0-.355-.027A.952.952,0,0,0,31.016-3V0h-.723V-4.227H31l.012.488A1.125,1.125,0,0,1,32.016-4.3a.738.738,0,0,1,.32.055Z" transform="translate(282.051 14626)" fill="#12263f"/>
        <path id="Trazado_894359" data-name="Trazado 894359" d="M.66,0V-5.687H2.266a2.584,2.584,0,0,1,1.313.328,2.219,2.219,0,0,1,.881.934,3.039,3.039,0,0,1,.314,1.391v.363a3.049,3.049,0,0,1-.311,1.41,2.184,2.184,0,0,1-.887.93A2.749,2.749,0,0,1,2.234,0Zm.75-5.074V-.613H2.2a1.717,1.717,0,0,0,1.35-.54,2.229,2.229,0,0,0,.482-1.537v-.332a2.264,2.264,0,0,0-.455-1.507,1.619,1.619,0,0,0-1.291-.545ZM7.547.078a1.847,1.847,0,0,1-1.4-.564A2.1,2.1,0,0,1,5.609-2v-.133a2.536,2.536,0,0,1,.24-1.123,1.874,1.874,0,0,1,.672-.773A1.689,1.689,0,0,1,7.457-4.3a1.583,1.583,0,0,1,1.281.543A2.351,2.351,0,0,1,9.2-2.207v.3H6.332A1.5,1.5,0,0,0,6.7-.9a1.148,1.148,0,0,0,.889.385,1.259,1.259,0,0,0,.648-.156A1.629,1.629,0,0,0,8.7-1.082l.441.344A1.775,1.775,0,0,1,7.547.078Zm-.09-3.789a.964.964,0,0,0-.734.318,1.547,1.547,0,0,0-.367.893H8.473v-.055a1.376,1.376,0,0,0-.3-.854A.908.908,0,0,0,7.457-3.711ZM10.816,0h-.723V-6h.723Zm3.766,0a1.518,1.518,0,0,1-.1-.445,1.612,1.612,0,0,1-1.2.523,1.492,1.492,0,0,1-1.025-.354,1.144,1.144,0,0,1-.4-.9,1.2,1.2,0,0,1,.5-1.025,2.367,2.367,0,0,1,1.412-.365h.7v-.332a.812.812,0,0,0-.227-.6.911.911,0,0,0-.668-.225,1.054,1.054,0,0,0-.648.2.576.576,0,0,0-.262.473h-.727a1,1,0,0,1,.225-.611,1.533,1.533,0,0,1,.609-.467,2.05,2.05,0,0,1,.846-.172,1.671,1.671,0,0,1,1.145.365,1.318,1.318,0,0,1,.43,1.006V-.988a2.378,2.378,0,0,0,.148.926V0Zm-1.2-.551a1.27,1.27,0,0,0,.645-.176,1.063,1.063,0,0,0,.441-.457v-.867H13.9q-1.328,0-1.328.777a.658.658,0,0,0,.227.531A.871.871,0,0,0,13.383-.551Zm3.625-3.676.023.531A1.54,1.54,0,0,1,18.3-4.3q1.34,0,1.352,1.512V0h-.723V-2.8a.973.973,0,0,0-.209-.676.837.837,0,0,0-.639-.219,1.043,1.043,0,0,0-.617.188,1.273,1.273,0,0,0-.414.492V0h-.723V-4.227ZM21.719-5.25v1.023h.789v.559h-.789v2.624a.587.587,0,0,0,.105.381.444.444,0,0,0,.359.127,1.75,1.75,0,0,0,.344-.047V0a2.107,2.107,0,0,1-.555.078.9.9,0,0,1-.73-.293A1.259,1.259,0,0,1,21-1.047V-3.668h-.77v-.559H21V-5.25ZM25.105.078a1.847,1.847,0,0,1-1.4-.564A2.1,2.1,0,0,1,23.168-2v-.133a2.536,2.536,0,0,1,.24-1.123,1.874,1.874,0,0,1,.672-.773,1.689,1.689,0,0,1,.936-.279,1.583,1.583,0,0,1,1.281.543,2.351,2.351,0,0,1,.457,1.555v.3H23.891A1.5,1.5,0,0,0,24.256-.9a1.148,1.148,0,0,0,.889.385,1.259,1.259,0,0,0,.648-.156,1.629,1.629,0,0,0,.465-.414l.441.344A1.775,1.775,0,0,1,25.105.078Zm-.09-3.789a.964.964,0,0,0-.734.318,1.547,1.547,0,0,0-.367.893h2.117v-.055a1.376,1.376,0,0,0-.3-.854A.908.908,0,0,0,25.016-3.711Zm4.617.133a2.166,2.166,0,0,0-.355-.027A.952.952,0,0,0,28.313-3V0H27.59V-4.227h.7l.012.488A1.125,1.125,0,0,1,29.313-4.3a.738.738,0,0,1,.32.055Zm.395,1.426a2.5,2.5,0,0,1,.244-1.117,1.821,1.821,0,0,1,.68-.766,1.85,1.85,0,0,1,.994-.27,1.782,1.782,0,0,1,1.4.6,2.3,2.3,0,0,1,.533,1.59v.051a2.518,2.518,0,0,1-.236,1.107,1.794,1.794,0,0,1-.676.764,1.871,1.871,0,0,1-1.01.273,1.778,1.778,0,0,1-1.393-.6A2.288,2.288,0,0,1,30.027-2.1Zm.727.086A1.808,1.808,0,0,0,31.08-.937a1.044,1.044,0,0,0,.873.426,1.038,1.038,0,0,0,.875-.432,1.977,1.977,0,0,0,.324-1.209,1.805,1.805,0,0,0-.33-1.127,1.049,1.049,0,0,0-.877-.432,1.038,1.038,0,0,0-.863.426A1.963,1.963,0,0,0,30.754-2.066Z" transform="translate(435.051 14626)" fill="#12263f"/>
        <path id="Trazado_894360" data-name="Trazado 894360" d="M1.629-5.687,3.488-1.047,5.348-5.687H6.32V0H5.57V-2.215l.07-2.391L3.773,0H3.2L1.336-4.594,1.41-2.215V0H.66V-5.687ZM10.141,0a1.518,1.518,0,0,1-.1-.445,1.612,1.612,0,0,1-1.2.523A1.492,1.492,0,0,1,7.811-.275a1.144,1.144,0,0,1-.4-.9,1.2,1.2,0,0,1,.5-1.025,2.367,2.367,0,0,1,1.412-.365h.7v-.332A.812.812,0,0,0,9.8-3.5a.911.911,0,0,0-.668-.225,1.054,1.054,0,0,0-.648.2.576.576,0,0,0-.262.473H7.5a1,1,0,0,1,.225-.611,1.533,1.533,0,0,1,.609-.467A2.05,2.05,0,0,1,9.176-4.3a1.671,1.671,0,0,1,1.145.365,1.318,1.318,0,0,1,.43,1.006V-.988a2.378,2.378,0,0,0,.148.926V0Zm-1.2-.551a1.27,1.27,0,0,0,.645-.176,1.063,1.063,0,0,0,.441-.457v-.867H9.461q-1.328,0-1.328.777a.658.658,0,0,0,.227.531A.871.871,0,0,0,8.941-.551Zm3.625-3.676.023.531A1.54,1.54,0,0,1,13.855-4.3q1.34,0,1.352,1.512V0h-.723V-2.8a.973.973,0,0,0-.209-.676.837.837,0,0,0-.639-.219,1.043,1.043,0,0,0-.617.188,1.273,1.273,0,0,0-.414.492V0h-.723V-4.227Zm3.559,2.078a2.484,2.484,0,0,1,.457-1.572A1.462,1.462,0,0,1,17.793-4.3,1.454,1.454,0,0,1,19-3.758l.035-.469h.66V-.1a1.719,1.719,0,0,1-.486,1.293,1.8,1.8,0,0,1-1.307.473,2.174,2.174,0,0,1-.895-.2A1.54,1.54,0,0,1,16.34.934L16.715.5a1.413,1.413,0,0,0,1.137.574,1.107,1.107,0,0,0,.822-.3,1.135,1.135,0,0,0,.295-.836V-.422a1.485,1.485,0,0,1-1.184.5,1.444,1.444,0,0,1-1.2-.6A2.612,2.612,0,0,1,16.125-2.148Zm.727.082a1.9,1.9,0,0,0,.293,1.123.952.952,0,0,0,.82.408,1.059,1.059,0,0,0,1-.621v-1.93a1.071,1.071,0,0,0-1-.605.961.961,0,0,0-.824.41A2.064,2.064,0,0,0,16.852-2.066ZM23.395,0a1.518,1.518,0,0,1-.1-.445,1.612,1.612,0,0,1-1.2.523,1.492,1.492,0,0,1-1.025-.354,1.144,1.144,0,0,1-.4-.9,1.2,1.2,0,0,1,.5-1.025,2.367,2.367,0,0,1,1.412-.365h.7v-.332a.812.812,0,0,0-.227-.6.911.911,0,0,0-.668-.225,1.054,1.054,0,0,0-.648.2.576.576,0,0,0-.262.473H20.75a1,1,0,0,1,.225-.611,1.533,1.533,0,0,1,.609-.467A2.05,2.05,0,0,1,22.43-4.3a1.671,1.671,0,0,1,1.145.365A1.318,1.318,0,0,1,24-2.934V-.988a2.378,2.378,0,0,0,.148.926V0ZM22.2-.551a1.27,1.27,0,0,0,.645-.176,1.063,1.063,0,0,0,.441-.457v-.867h-.566q-1.328,0-1.328.777a.658.658,0,0,0,.227.531A.871.871,0,0,0,22.2-.551Z" transform="translate(586.051 14578)" fill="#12263f"/>
        <path id="Trazado_894361" data-name="Trazado 894361" d="M3.8-1.488H1.418L.883,0H.109L2.281-5.687h.656L5.113,0h-.77ZM1.645-2.1H3.578l-.969-2.66Z" transform="translate(424.051 14514)" fill="#12263f"/>
        <path id="Trazado_894362" data-name="Trazado 894362" d="M3.8-1.488H1.418L.883,0H.109L2.281-5.687h.656L5.113,0h-.77ZM1.645-2.1H3.578l-.969-2.66Z" transform="translate(536.051 14514)" fill="#12263f"/>
        <path id="Trazado_894363" data-name="Trazado 894363" d="M.66,0V-5.687H2.52A2.158,2.158,0,0,1,3.912-5.3a1.38,1.38,0,0,1,.467,1.133,1.155,1.155,0,0,1-.227.705,1.469,1.469,0,0,1-.617.475,1.319,1.319,0,0,1,.729.49,1.407,1.407,0,0,1,.268.861,1.521,1.521,0,0,1-.5,1.2A2.052,2.052,0,0,1,2.633,0Zm.75-2.66V-.613H2.648a1.192,1.192,0,0,0,.826-.271.953.953,0,0,0,.3-.748q0-1.027-1.117-1.027Zm0-.6H2.543a1.187,1.187,0,0,0,.787-.247.827.827,0,0,0,.295-.669.813.813,0,0,0-.273-.683,1.343,1.343,0,0,0-.832-.213H1.41Z" transform="translate(332.051 14511)" fill="#12263f"/>
        <path id="Trazado_894364" data-name="Trazado 894364" d="M.66,0V-5.687H2.52A2.158,2.158,0,0,1,3.912-5.3a1.38,1.38,0,0,1,.467,1.133,1.155,1.155,0,0,1-.227.705,1.469,1.469,0,0,1-.617.475,1.319,1.319,0,0,1,.729.49,1.407,1.407,0,0,1,.268.861,1.521,1.521,0,0,1-.5,1.2A2.052,2.052,0,0,1,2.633,0Zm.75-2.66V-.613H2.648a1.192,1.192,0,0,0,.826-.271.953.953,0,0,0,.3-.748q0-1.027-1.117-1.027Zm0-.6H2.543a1.187,1.187,0,0,0,.787-.247.827.827,0,0,0,.295-.669.813.813,0,0,0-.273-.683,1.343,1.343,0,0,0-.832-.213H1.41Z" transform="translate(413.051 14511)" fill="#12263f"/>
        <path id="Trazado_894365" data-name="Trazado 894365" d="M.66,0V-5.687H2.52A2.158,2.158,0,0,1,3.912-5.3a1.38,1.38,0,0,1,.467,1.133,1.155,1.155,0,0,1-.227.705,1.469,1.469,0,0,1-.617.475,1.319,1.319,0,0,1,.729.49,1.407,1.407,0,0,1,.268.861,1.521,1.521,0,0,1-.5,1.2A2.052,2.052,0,0,1,2.633,0Zm.75-2.66V-.613H2.648a1.192,1.192,0,0,0,.826-.271.953.953,0,0,0,.3-.748q0-1.027-1.117-1.027Zm0-.6H2.543a1.187,1.187,0,0,0,.787-.247.827.827,0,0,0,.295-.669.813.813,0,0,0-.273-.683,1.343,1.343,0,0,0-.832-.213H1.41Z" transform="translate(530.051 14500)" fill="#12263f"/>
        <path id="Trazado_894366" data-name="Trazado 894366" d="M4.844-1.8A2.092,2.092,0,0,1,4.178-.412a2.183,2.183,0,0,1-1.49.49A2,2,0,0,1,1.072-.645,2.907,2.907,0,0,1,.465-2.578v-.547A3.241,3.241,0,0,1,.748-4.52a2.115,2.115,0,0,1,.8-.924,2.235,2.235,0,0,1,1.2-.322,2.055,2.055,0,0,1,1.453.506,2.118,2.118,0,0,1,.637,1.4H4.09a1.634,1.634,0,0,0-.424-.987,1.282,1.282,0,0,0-.912-.306,1.342,1.342,0,0,0-1.127.532,2.441,2.441,0,0,0-.408,1.513v.551a2.509,2.509,0,0,0,.387,1.474,1.25,1.25,0,0,0,1.082.547,1.443,1.443,0,0,0,.959-.283A1.572,1.572,0,0,0,4.09-1.8Z" transform="translate(339.051 14507)" fill="#12263f"/>
        <path id="Trazado_894367" data-name="Trazado 894367" d="M4.844-1.8A2.092,2.092,0,0,1,4.178-.412a2.183,2.183,0,0,1-1.49.49A2,2,0,0,1,1.072-.645,2.907,2.907,0,0,1,.465-2.578v-.547A3.241,3.241,0,0,1,.748-4.52a2.115,2.115,0,0,1,.8-.924,2.235,2.235,0,0,1,1.2-.322,2.055,2.055,0,0,1,1.453.506,2.118,2.118,0,0,1,.637,1.4H4.09a1.634,1.634,0,0,0-.424-.987,1.282,1.282,0,0,0-.912-.306,1.342,1.342,0,0,0-1.127.532,2.441,2.441,0,0,0-.408,1.513v.551a2.509,2.509,0,0,0,.387,1.474,1.25,1.25,0,0,0,1.082.547,1.443,1.443,0,0,0,.959-.283A1.572,1.572,0,0,0,4.09-1.8Z" transform="translate(405.051 14508)" fill="#12263f"/>
        <path id="Trazado_894368" data-name="Trazado 894368" d="M4.844-1.8A2.092,2.092,0,0,1,4.178-.412a2.183,2.183,0,0,1-1.49.49A2,2,0,0,1,1.072-.645,2.907,2.907,0,0,1,.465-2.578v-.547A3.241,3.241,0,0,1,.748-4.52a2.115,2.115,0,0,1,.8-.924,2.235,2.235,0,0,1,1.2-.322,2.055,2.055,0,0,1,1.453.506,2.118,2.118,0,0,1,.637,1.4H4.09a1.634,1.634,0,0,0-.424-.987,1.282,1.282,0,0,0-.912-.306,1.342,1.342,0,0,0-1.127.532,2.441,2.441,0,0,0-.408,1.513v.551a2.509,2.509,0,0,0,.387,1.474,1.25,1.25,0,0,0,1.082.547,1.443,1.443,0,0,0,.959-.283A1.572,1.572,0,0,0,4.09-1.8Z" transform="translate(514.051 14488)" fill="#12263f"/>
        <path id="Trazado_894369" data-name="Trazado 894369" d="M.66,0V-5.687H2.266a2.584,2.584,0,0,1,1.313.328,2.219,2.219,0,0,1,.881.934,3.039,3.039,0,0,1,.314,1.391v.363a3.049,3.049,0,0,1-.311,1.41,2.184,2.184,0,0,1-.887.93A2.749,2.749,0,0,1,2.234,0Zm.75-5.074V-.613H2.2a1.717,1.717,0,0,0,1.35-.54,2.229,2.229,0,0,0,.482-1.537v-.332a2.264,2.264,0,0,0-.455-1.507,1.619,1.619,0,0,0-1.291-.545Z" transform="translate(348.051 14503)" fill="#12263f"/>
        <path id="Trazado_894370" data-name="Trazado 894370" d="M.66,0V-5.687H2.266a2.584,2.584,0,0,1,1.313.328,2.219,2.219,0,0,1,.881.934,3.039,3.039,0,0,1,.314,1.391v.363a3.049,3.049,0,0,1-.311,1.41,2.184,2.184,0,0,1-.887.93A2.749,2.749,0,0,1,2.234,0Zm.75-5.074V-.613H2.2a1.717,1.717,0,0,0,1.35-.54,2.229,2.229,0,0,0,.482-1.537v-.332a2.264,2.264,0,0,0-.455-1.507,1.619,1.619,0,0,0-1.291-.545Z" transform="translate(394.051 14505)" fill="#12263f"/>
        <path id="Trazado_894371" data-name="Trazado 894371" d="M.66,0V-5.687H2.266a2.584,2.584,0,0,1,1.313.328,2.219,2.219,0,0,1,.881.934,3.039,3.039,0,0,1,.314,1.391v.363a3.049,3.049,0,0,1-.311,1.41,2.184,2.184,0,0,1-.887.93A2.749,2.749,0,0,1,2.234,0Zm.75-5.074V-.613H2.2a1.717,1.717,0,0,0,1.35-.54,2.229,2.229,0,0,0,.482-1.537v-.332a2.264,2.264,0,0,0-.455-1.507,1.619,1.619,0,0,0-1.291-.545Z" transform="translate(500.051 14477)" fill="#12263f"/>
        <path id="Trazado_894372" data-name="Trazado 894372" d="M3.875-2.629H1.41V-.613H4.273V0H.66V-5.687H4.234v.613H1.41v1.832H3.875Z" transform="translate(359.051 14498)" fill="#12263f"/>
        <path id="Trazado_894373" data-name="Trazado 894373" d="M3.875-2.629H1.41V-.613H4.273V0H.66V-5.687H4.234v.613H1.41v1.832H3.875Z" transform="translate(378.051 14499)" fill="#12263f"/>
        <path id="Trazado_894374" data-name="Trazado 894374" d="M3.875-2.629H1.41V-.613H4.273V0H.66V-5.687H4.234v.613H1.41v1.832H3.875Z" transform="translate(485.051 14465)" fill="#12263f"/>
        <path id="Trazado_894375" data-name="Trazado 894375" d="M1.523-3.2h.543a1.193,1.193,0,0,0,.8-.27.9.9,0,0,0,.293-.707.882.882,0,0,0-1-1A1.036,1.036,0,0,0,1.42-4.9a.936.936,0,0,0-.279.709H.418A1.451,1.451,0,0,1,.912-5.318a1.8,1.8,0,0,1,1.256-.447A1.779,1.779,0,0,1,3.43-5.34a1.538,1.538,0,0,1,.457,1.184,1.248,1.248,0,0,1-.24.719,1.451,1.451,0,0,1-.654.52,1.4,1.4,0,0,1,.725.492,1.367,1.367,0,0,1,.256.84,1.551,1.551,0,0,1-.5,1.215,1.872,1.872,0,0,1-1.3.449,1.922,1.922,0,0,1-1.3-.434A1.438,1.438,0,0,1,.367-1.5h.727a.93.93,0,0,0,.293.719,1.114,1.114,0,0,0,.785.27,1.093,1.093,0,0,0,.8-.273A1.054,1.054,0,0,0,3.25-1.57a.956.956,0,0,0-.3-.762,1.328,1.328,0,0,0-.879-.273H1.523Z" transform="translate(594.051 14465)" fill="#12263f"/>
        <path id="Trazado_894376" data-name="Trazado 894376" d="M1.523-3.2h.543a1.193,1.193,0,0,0,.8-.27.9.9,0,0,0,.293-.707.882.882,0,0,0-1-1A1.036,1.036,0,0,0,1.42-4.9a.936.936,0,0,0-.279.709H.418A1.451,1.451,0,0,1,.912-5.318a1.8,1.8,0,0,1,1.256-.447A1.779,1.779,0,0,1,3.43-5.34a1.538,1.538,0,0,1,.457,1.184,1.248,1.248,0,0,1-.24.719,1.451,1.451,0,0,1-.654.52,1.4,1.4,0,0,1,.725.492,1.367,1.367,0,0,1,.256.84,1.551,1.551,0,0,1-.5,1.215,1.872,1.872,0,0,1-1.3.449,1.922,1.922,0,0,1-1.3-.434A1.438,1.438,0,0,1,.367-1.5h.727a.93.93,0,0,0,.293.719,1.114,1.114,0,0,0,.785.27,1.093,1.093,0,0,0,.8-.273A1.054,1.054,0,0,0,3.25-1.57a.956.956,0,0,0-.3-.762,1.328,1.328,0,0,0-.879-.273H1.523Z" transform="translate(594.051 14489)" fill="#12263f"/>
        <path id="Trazado_894377" data-name="Trazado 894377" d="M1.523-3.2h.543a1.193,1.193,0,0,0,.8-.27.9.9,0,0,0,.293-.707.882.882,0,0,0-1-1A1.036,1.036,0,0,0,1.42-4.9a.936.936,0,0,0-.279.709H.418A1.451,1.451,0,0,1,.912-5.318a1.8,1.8,0,0,1,1.256-.447A1.779,1.779,0,0,1,3.43-5.34a1.538,1.538,0,0,1,.457,1.184,1.248,1.248,0,0,1-.24.719,1.451,1.451,0,0,1-.654.52,1.4,1.4,0,0,1,.725.492,1.367,1.367,0,0,1,.256.84,1.551,1.551,0,0,1-.5,1.215,1.872,1.872,0,0,1-1.3.449,1.922,1.922,0,0,1-1.3-.434A1.438,1.438,0,0,1,.367-1.5h.727a.93.93,0,0,0,.293.719,1.114,1.114,0,0,0,.785.27,1.093,1.093,0,0,0,.8-.273A1.054,1.054,0,0,0,3.25-1.57a.956.956,0,0,0-.3-.762,1.328,1.328,0,0,0-.879-.273H1.523Z" transform="translate(594.051 14501)" fill="#12263f"/>
        <path id="Trazado_894378" data-name="Trazado 894378" d="M1.523-3.2h.543a1.193,1.193,0,0,0,.8-.27.9.9,0,0,0,.293-.707.882.882,0,0,0-1-1A1.036,1.036,0,0,0,1.42-4.9a.936.936,0,0,0-.279.709H.418A1.451,1.451,0,0,1,.912-5.318a1.8,1.8,0,0,1,1.256-.447A1.779,1.779,0,0,1,3.43-5.34a1.538,1.538,0,0,1,.457,1.184,1.248,1.248,0,0,1-.24.719,1.451,1.451,0,0,1-.654.52,1.4,1.4,0,0,1,.725.492,1.367,1.367,0,0,1,.256.84,1.551,1.551,0,0,1-.5,1.215,1.872,1.872,0,0,1-1.3.449,1.922,1.922,0,0,1-1.3-.434A1.438,1.438,0,0,1,.367-1.5h.727a.93.93,0,0,0,.293.719,1.114,1.114,0,0,0,.785.27,1.093,1.093,0,0,0,.8-.273A1.054,1.054,0,0,0,3.25-1.57a.956.956,0,0,0-.3-.762,1.328,1.328,0,0,0-.879-.273H1.523Z" transform="translate(594.051 14478)" fill="#12263f"/>
        <path id="Trazado_894379" data-name="Trazado 894379" d="M1.523-3.2h.543a1.193,1.193,0,0,0,.8-.27.9.9,0,0,0,.293-.707.882.882,0,0,0-1-1A1.036,1.036,0,0,0,1.42-4.9a.936.936,0,0,0-.279.709H.418A1.451,1.451,0,0,1,.912-5.318a1.8,1.8,0,0,1,1.256-.447A1.779,1.779,0,0,1,3.43-5.34a1.538,1.538,0,0,1,.457,1.184,1.248,1.248,0,0,1-.24.719,1.451,1.451,0,0,1-.654.52,1.4,1.4,0,0,1,.725.492,1.367,1.367,0,0,1,.256.84,1.551,1.551,0,0,1-.5,1.215,1.872,1.872,0,0,1-1.3.449,1.922,1.922,0,0,1-1.3-.434A1.438,1.438,0,0,1,.367-1.5h.727a.93.93,0,0,0,.293.719,1.114,1.114,0,0,0,.785.27,1.093,1.093,0,0,0,.8-.273A1.054,1.054,0,0,0,3.25-1.57a.956.956,0,0,0-.3-.762,1.328,1.328,0,0,0-.879-.273H1.523Z" transform="translate(594.051 14455)" fill="#12263f"/>
      </g>
    </g>
  </g>
</svg>
