<svg xmlns="http://www.w3.org/2000/svg" xmlns:xlink="http://www.w3.org/1999/xlink" width="505" height="364" viewBox="0 0 505 364">
  <defs>
    <clipPath id="clip-path">
      <rect id="Rectángulo_402433" data-name="Rectángulo 402433" width="434" height="256.145" fill="none"/>
    </clipPath>
  </defs>
  <g id="Grupo_1102574" data-name="Grupo 1102574" transform="translate(-810.051 -12128.907)">
    <path id="Trazado_894338" data-name="Trazado 894338" d="M20,0H485a20,20,0,0,1,20,20V344a20,20,0,0,1-20,20H20A20,20,0,0,1,0,344V20A20,20,0,0,1,20,0Z" transform="translate(810.051 12128.907)" fill="#e4def6"/>
    <path id="Imagen_2_upscayl_4x_digital-art-4x" data-name="Imagen 2_upscayl_4x_digital-art-4x" d="M20,0H437a20,20,0,0,1,20,20V266a20,20,0,0,1-20,20H20A20,20,0,0,1,0,266V20A20,20,0,0,1,20,0Z" transform="translate(834.051 12167.907)" fill="#fff"/>
    <path id="Trazado_894339" data-name="Trazado 894339" d="M2.115-3.34V0H.99V-8.531H4.137a3.161,3.161,0,0,1,2.194.715,2.423,2.423,0,0,1,.794,1.893,2.391,2.391,0,0,1-.776,1.913,3.3,3.3,0,0,1-2.224.671Zm0-.92H4.137A2.021,2.021,0,0,0,5.52-4.685,1.556,1.556,0,0,0,6-5.915a1.608,1.608,0,0,0-.48-1.221A1.894,1.894,0,0,0,4.2-7.611H2.115ZM8.027-3.229A3.745,3.745,0,0,1,8.394-4.9a2.732,2.732,0,0,1,1.02-1.148,2.775,2.775,0,0,1,1.491-.4,2.674,2.674,0,0,1,2.095.9,3.449,3.449,0,0,1,.8,2.385V-3.1a3.777,3.777,0,0,1-.354,1.661A2.692,2.692,0,0,1,12.431-.293a2.807,2.807,0,0,1-1.515.41,2.667,2.667,0,0,1-2.089-.9,3.432,3.432,0,0,1-.8-2.373Zm1.09.129a2.712,2.712,0,0,0,.489,1.693,1.566,1.566,0,0,0,1.31.639,1.556,1.556,0,0,0,1.313-.647,2.966,2.966,0,0,0,.486-1.813,2.708,2.708,0,0,0-.5-1.69A1.574,1.574,0,0,0,10.9-5.566a1.557,1.557,0,0,0-1.295.639A2.944,2.944,0,0,0,9.117-3.1ZM18.85-1.682a.8.8,0,0,0-.331-.683,3.187,3.187,0,0,0-1.154-.419,5.457,5.457,0,0,1-1.307-.422,1.859,1.859,0,0,1-.715-.586,1.4,1.4,0,0,1-.231-.809,1.645,1.645,0,0,1,.659-1.318,2.574,2.574,0,0,1,1.685-.539A2.649,2.649,0,0,1,19.2-5.9a1.768,1.768,0,0,1,.671,1.424h-1.09a.979.979,0,0,0-.378-.768,1.416,1.416,0,0,0-.952-.322,1.482,1.482,0,0,0-.926.258.812.812,0,0,0-.334.674.658.658,0,0,0,.311.592,3.821,3.821,0,0,0,1.122.381,5.847,5.847,0,0,1,1.315.434,1.919,1.919,0,0,1,.747.606,1.491,1.491,0,0,1,.243.864A1.623,1.623,0,0,1,19.254-.4,2.851,2.851,0,0,1,17.49.117a3.193,3.193,0,0,1-1.348-.27,2.192,2.192,0,0,1-.917-.753,1.815,1.815,0,0,1-.331-1.046h1.084a1.122,1.122,0,0,0,.437.864,1.693,1.693,0,0,0,1.075.319,1.748,1.748,0,0,0,.987-.249A.765.765,0,0,0,18.85-1.682Zm3.967-6.193V-6.34H24V-5.5H22.816v3.937a.88.88,0,0,0,.158.572.666.666,0,0,0,.539.191,2.624,2.624,0,0,0,.516-.07V0A3.161,3.161,0,0,1,23.2.117a1.35,1.35,0,0,1-1.1-.439,1.888,1.888,0,0,1-.369-1.248V-5.5H20.578V-6.34h1.154V-7.875ZM27.9.117a2.77,2.77,0,0,1-2.1-.847,3.142,3.142,0,0,1-.809-2.265v-.2a3.8,3.8,0,0,1,.36-1.685,2.811,2.811,0,0,1,1.008-1.16,2.534,2.534,0,0,1,1.4-.419,2.374,2.374,0,0,1,1.922.814,3.526,3.526,0,0,1,.686,2.332v.451H26.074a2.254,2.254,0,0,0,.548,1.515,1.722,1.722,0,0,0,1.333.577A1.888,1.888,0,0,0,28.928-1a2.444,2.444,0,0,0,.7-.621l.662.516A2.662,2.662,0,0,1,27.9.117Zm-.135-5.684a1.446,1.446,0,0,0-1.1.478,2.321,2.321,0,0,0-.551,1.339h3.176v-.082a2.065,2.065,0,0,0-.445-1.28A1.361,1.361,0,0,0,27.762-5.566Zm6.926.2a3.248,3.248,0,0,0-.533-.041,1.428,1.428,0,0,0-1.447.908V0H31.623V-6.34h1.055l.018.732a1.688,1.688,0,0,1,1.512-.85,1.107,1.107,0,0,1,.48.082ZM36.861,0H35.777V-6.34h1.084ZM35.689-8.021a.647.647,0,0,1,.161-.445.6.6,0,0,1,.478-.182.614.614,0,0,1,.48.182.64.64,0,0,1,.164.445.619.619,0,0,1-.164.439.626.626,0,0,1-.48.176.616.616,0,0,1-.478-.176A.626.626,0,0,1,35.689-8.021Zm2.619,4.793A3.745,3.745,0,0,1,38.675-4.9a2.732,2.732,0,0,1,1.02-1.148,2.775,2.775,0,0,1,1.491-.4,2.674,2.674,0,0,1,2.095.9,3.449,3.449,0,0,1,.8,2.385V-3.1a3.777,3.777,0,0,1-.354,1.661A2.692,2.692,0,0,1,42.712-.293,2.807,2.807,0,0,1,41.2.117a2.667,2.667,0,0,1-2.089-.9,3.432,3.432,0,0,1-.8-2.373ZM39.4-3.1a2.712,2.712,0,0,0,.489,1.693,1.566,1.566,0,0,0,1.31.639,1.556,1.556,0,0,0,1.313-.647A2.966,2.966,0,0,0,43-3.229a2.708,2.708,0,0,0-.5-1.69,1.574,1.574,0,0,0-1.315-.647,1.557,1.557,0,0,0-1.295.639A2.944,2.944,0,0,0,39.4-3.1ZM48.5-5.367a3.248,3.248,0,0,0-.533-.041,1.428,1.428,0,0,0-1.447.908V0H45.439V-6.34h1.055l.018.732a1.688,1.688,0,0,1,1.512-.85,1.107,1.107,0,0,1,.48.082Z" transform="translate(907 12414.934)" fill="#12263f"/>
    <path id="Trazado_894340" data-name="Trazado 894340" d="M.99,0V-8.531H3.4a3.877,3.877,0,0,1,1.969.492,3.329,3.329,0,0,1,1.321,1.4A4.558,4.558,0,0,1,7.16-4.553v.545a4.574,4.574,0,0,1-.466,2.115A3.277,3.277,0,0,1,5.364-.5,4.124,4.124,0,0,1,3.352,0ZM2.115-7.611V-.92H3.3a2.575,2.575,0,0,0,2.024-.809,3.344,3.344,0,0,0,.724-2.3v-.5a3.4,3.4,0,0,0-.683-2.261,2.429,2.429,0,0,0-1.937-.818ZM11.32.117a2.77,2.77,0,0,1-2.1-.847,3.142,3.142,0,0,1-.809-2.265v-.2a3.8,3.8,0,0,1,.36-1.685,2.811,2.811,0,0,1,1.008-1.16,2.534,2.534,0,0,1,1.4-.419,2.374,2.374,0,0,1,1.922.814,3.526,3.526,0,0,1,.686,2.332v.451H9.5a2.254,2.254,0,0,0,.548,1.515,1.722,1.722,0,0,0,1.333.577A1.888,1.888,0,0,0,12.352-1a2.444,2.444,0,0,0,.7-.621l.662.516A2.662,2.662,0,0,1,11.32.117Zm-.135-5.684a1.446,1.446,0,0,0-1.1.478A2.321,2.321,0,0,0,9.533-3.75h3.176v-.082a2.065,2.065,0,0,0-.445-1.28A1.361,1.361,0,0,0,11.186-5.566ZM16.225,0H15.141V-9h1.084Zm5.648,0a2.277,2.277,0,0,1-.152-.668,2.419,2.419,0,0,1-1.8.785,2.238,2.238,0,0,1-1.538-.53,1.716,1.716,0,0,1-.6-1.345A1.792,1.792,0,0,1,18.53-3.3a3.55,3.55,0,0,1,2.118-.548H21.7v-.5a1.217,1.217,0,0,0-.34-.905,1.366,1.366,0,0,0-1-.337,1.581,1.581,0,0,0-.973.293A.863.863,0,0,0,19-4.582h-1.09a1.5,1.5,0,0,1,.337-.917,2.3,2.3,0,0,1,.914-.7,3.075,3.075,0,0,1,1.269-.258,2.506,2.506,0,0,1,1.717.548A1.976,1.976,0,0,1,22.787-4.4v2.918A3.567,3.567,0,0,0,23.01-.094V0Zm-1.8-.826a1.905,1.905,0,0,0,.967-.264,1.6,1.6,0,0,0,.662-.686v-1.3h-.85q-1.992,0-1.992,1.166a.987.987,0,0,0,.34.8A1.306,1.306,0,0,0,20.074-.826ZM25.512-6.34l.035.8a2.31,2.31,0,0,1,1.9-.914q2.01,0,2.027,2.268V0H28.389V-4.2a1.459,1.459,0,0,0-.313-1.014,1.256,1.256,0,0,0-.958-.328,1.564,1.564,0,0,0-.926.281,1.91,1.91,0,0,0-.621.738V0H24.486V-6.34Zm7.066-1.535V-6.34h1.184V-5.5H32.578v3.937a.88.88,0,0,0,.158.572.666.666,0,0,0,.539.191,2.624,2.624,0,0,0,.516-.07V0a3.161,3.161,0,0,1-.832.116,1.35,1.35,0,0,1-1.1-.439,1.888,1.888,0,0,1-.369-1.248V-5.5H30.34V-6.34h1.154V-7.875ZM37.658.117a2.77,2.77,0,0,1-2.1-.847,3.142,3.142,0,0,1-.809-2.265v-.2a3.8,3.8,0,0,1,.36-1.685,2.811,2.811,0,0,1,1.008-1.16,2.534,2.534,0,0,1,1.4-.419,2.374,2.374,0,0,1,1.922.814,3.526,3.526,0,0,1,.686,2.332v.451H35.836a2.254,2.254,0,0,0,.548,1.515,1.722,1.722,0,0,0,1.333.577A1.888,1.888,0,0,0,38.689-1a2.444,2.444,0,0,0,.7-.621l.662.516A2.662,2.662,0,0,1,37.658.117Zm-.135-5.684a1.446,1.446,0,0,0-1.1.478,2.321,2.321,0,0,0-.551,1.339h3.176v-.082a2.065,2.065,0,0,0-.445-1.28A1.361,1.361,0,0,0,37.523-5.566Zm6.926.2a3.248,3.248,0,0,0-.533-.041,1.428,1.428,0,0,0-1.447.908V0H41.385V-6.34h1.055l.018.732a1.688,1.688,0,0,1,1.512-.85,1.107,1.107,0,0,1,.48.082Zm.592,2.139A3.745,3.745,0,0,1,45.407-4.9a2.732,2.732,0,0,1,1.02-1.148,2.775,2.775,0,0,1,1.491-.4,2.674,2.674,0,0,1,2.095.9,3.449,3.449,0,0,1,.8,2.385V-3.1a3.777,3.777,0,0,1-.354,1.661A2.692,2.692,0,0,1,49.444-.293a2.807,2.807,0,0,1-1.515.41,2.667,2.667,0,0,1-2.089-.9,3.432,3.432,0,0,1-.8-2.373Zm1.09.129a2.712,2.712,0,0,0,.489,1.693,1.566,1.566,0,0,0,1.31.639,1.556,1.556,0,0,0,1.313-.647,2.966,2.966,0,0,0,.486-1.813,2.708,2.708,0,0,0-.5-1.69,1.574,1.574,0,0,0-1.315-.647,1.557,1.557,0,0,0-1.295.639A2.944,2.944,0,0,0,46.131-3.1Z" transform="translate(1169 12414.934)" fill="#12263f"/>
    <path id="Trazado_894341" data-name="Trazado 894341" d="M4.4-2.388h.986v.737H4.4V0H3.5V-1.65H.259v-.532L3.442-7.109H4.4Zm-3.12,0H3.5V-5.874l-.107.2Z" transform="translate(968 12276.934)" fill="#12263f"/>
    <path id="Trazado_894342" data-name="Trazado 894342" d="M4.4-2.388h.986v.737H4.4V0H3.5V-1.65H.259v-.532L3.442-7.109H4.4Zm-3.12,0H3.5V-5.874l-.107.2Z" transform="translate(1263 12337.934)" fill="#12263f"/>
    <path id="Trazado_894343" data-name="Trazado 894343" d="M4.4-2.388h.986v.737H4.4V0H3.5V-1.65H.259v-.532L3.442-7.109H4.4Zm-3.12,0H3.5V-5.874l-.107.2Z" transform="translate(1150 12219.434)" fill="#12263f"/>
    <path id="Trazado_894344" data-name="Trazado 894344" d="M4.4-2.388h.986v.737H4.4V0H3.5V-1.65H.259v-.532L3.442-7.109H4.4Zm-3.12,0H3.5V-5.874l-.107.2Z" transform="translate(895 12337.934)" fill="#12263f"/>
    <path id="Trazado_894345" data-name="Trazado 894345" d="M4.4-2.388h.986v.737H4.4V0H3.5V-1.65H.259v-.532L3.442-7.109H4.4Zm-3.12,0H3.5V-5.874l-.107.2Z" transform="translate(841 12300.934)" fill="#12263f"/>
    <path id="Trazado_894346" data-name="Trazado 894346" d="M5.049-3.032A4.131,4.131,0,0,1,4.507-.674,1.928,1.928,0,0,1,2.813.1,1.942,1.942,0,0,1,1.128-.657,3.921,3.921,0,0,1,.562-2.91V-4.116A4.039,4.039,0,0,1,1.1-6.445a1.942,1.942,0,0,1,1.7-.762,1.96,1.96,0,0,1,1.689.735A3.9,3.9,0,0,1,5.049-4.2Zm-.9-1.235A3.31,3.31,0,0,0,3.823-5.94,1.109,1.109,0,0,0,2.8-6.465a1.1,1.1,0,0,0-1.011.522,3.232,3.232,0,0,0-.327,1.606v1.445a3.363,3.363,0,0,0,.334,1.7A1.107,1.107,0,0,0,2.813-.64a1.092,1.092,0,0,0,.994-.518,3.241,3.241,0,0,0,.339-1.631ZM6.318-.474a.566.566,0,0,1,.139-.391.53.53,0,0,1,.417-.156A.546.546,0,0,1,7.3-.864a.554.554,0,0,1,.144.391A.524.524,0,0,1,7.3-.1a.556.556,0,0,1-.422.151A.54.54,0,0,1,6.458-.1.535.535,0,0,1,6.318-.474ZM9.253-3.564l.361-3.545h3.643v.835H10.381l-.215,1.938a2.294,2.294,0,0,1,1.187-.308A1.961,1.961,0,0,1,12.9-4a2.516,2.516,0,0,1,.571,1.736,2.429,2.429,0,0,1-.593,1.731A2.162,2.162,0,0,1,11.216.1,2.247,2.247,0,0,1,9.678-.425,2.085,2.085,0,0,1,9-1.87h.854a1.435,1.435,0,0,0,.435.92,1.351,1.351,0,0,0,.928.31,1.219,1.219,0,0,0,.989-.43,1.8,1.8,0,0,0,.359-1.187A1.649,1.649,0,0,0,12.175-3.4a1.32,1.32,0,0,0-1.033-.432,1.489,1.489,0,0,0-.928.259l-.239.2Z" transform="translate(847 12248.434)" fill="#12263f"/>
    <path id="Trazado_894347" data-name="Trazado 894347" d="M5.249,0H.591V-.649L3.052-3.384a5.847,5.847,0,0,0,.754-1.008,1.683,1.683,0,0,0,.208-.8,1.276,1.276,0,0,0-.337-.913,1.178,1.178,0,0,0-.9-.356,1.4,1.4,0,0,0-1.047.383,1.464,1.464,0,0,0-.374,1.067h-.9A2.1,2.1,0,0,1,1.086-6.6a2.344,2.344,0,0,1,1.692-.605,2.252,2.252,0,0,1,1.567.52A1.774,1.774,0,0,1,4.922-5.3,4.067,4.067,0,0,1,3.584-2.8L1.68-.737H5.249ZM6.318-.474a.566.566,0,0,1,.139-.391.53.53,0,0,1,.417-.156A.546.546,0,0,1,7.3-.864a.554.554,0,0,1,.144.391A.524.524,0,0,1,7.3-.1a.556.556,0,0,1-.422.151A.54.54,0,0,1,6.458-.1.535.535,0,0,1,6.318-.474ZM9.253-3.564l.361-3.545h3.643v.835H10.381l-.215,1.938a2.294,2.294,0,0,1,1.187-.308A1.961,1.961,0,0,1,12.9-4a2.516,2.516,0,0,1,.571,1.736,2.429,2.429,0,0,1-.593,1.731A2.162,2.162,0,0,1,11.216.1,2.247,2.247,0,0,1,9.678-.425,2.085,2.085,0,0,1,9-1.87h.854a1.435,1.435,0,0,0,.435.92,1.351,1.351,0,0,0,.928.31,1.219,1.219,0,0,0,.989-.43,1.8,1.8,0,0,0,.359-1.187A1.649,1.649,0,0,0,12.175-3.4a1.32,1.32,0,0,0-1.033-.432,1.489,1.489,0,0,0-.928.259l-.239.2Z" transform="translate(938 12237.434)" fill="#12263f"/>
    <path id="Trazado_894348" data-name="Trazado 894348" d="M3.56,0H2.651V-6.021L.83-5.352v-.82l2.588-.972H3.56ZM6.318-.474a.566.566,0,0,1,.139-.391.53.53,0,0,1,.417-.156A.546.546,0,0,1,7.3-.864a.554.554,0,0,1,.144.391A.524.524,0,0,1,7.3-.1a.556.556,0,0,1-.422.151A.54.54,0,0,1,6.458-.1.535.535,0,0,1,6.318-.474ZM9.253-3.564l.361-3.545h3.643v.835H10.381l-.215,1.938a2.294,2.294,0,0,1,1.187-.308A1.961,1.961,0,0,1,12.9-4a2.516,2.516,0,0,1,.571,1.736,2.429,2.429,0,0,1-.593,1.731A2.162,2.162,0,0,1,11.216.1,2.247,2.247,0,0,1,9.678-.425,2.085,2.085,0,0,1,9-1.87h.854a1.435,1.435,0,0,0,.435.92,1.351,1.351,0,0,0,.928.31,1.219,1.219,0,0,0,.989-.43,1.8,1.8,0,0,0,.359-1.187A1.649,1.649,0,0,0,12.175-3.4a1.32,1.32,0,0,0-1.033-.432,1.489,1.489,0,0,0-.928.259l-.239.2Z" transform="translate(1226 12258.434)" fill="#12263f"/>
    <path id="Trazado_894349" data-name="Trazado 894349" d="M3.56,0H2.651V-6.021L.83-5.352v-.82l2.588-.972H3.56Z" transform="translate(895 12237.434)" fill="#12263f"/>
    <path id="Trazado_894350" data-name="Trazado 894350" d="M3.56,0H2.651V-6.021L.83-5.352v-.82l2.588-.972H3.56Z" transform="translate(1230 12206.434)" fill="#12263f"/>
    <path id="Trazado_894351" data-name="Trazado 894351" d="M3.56,0H2.651V-6.021L.83-5.352v-.82l2.588-.972H3.56Z" transform="translate(1275 12281.434)" fill="#12263f"/>
    <g id="Grupo_1102529" data-name="Grupo 1102529" transform="translate(847 12185.069)">
      <g id="Grupo_1102529-2" data-name="Grupo 1102529" clip-path="url(#clip-path)">
        <path id="Trazado_893662" data-name="Trazado 893662" d="M28.709,57.905c-4.037-5.849-8.341-11.564-12.7-17.179-1.242-1.6-5.111-5.506-5.389-7.195-.019-.115-.052-.323.1-.3a15.388,15.388,0,0,1,3.257,2.641c.33.587.224,1.645.891,2.255l13.646,18.1L28.32,4.06l-.793-.112L28.12.016c.329-.069.4.088.561.322C29,.8,30.245,3.49,29.7,3.86l-.806.2c.109,10.285.088,20.571.2,30.856.081,7.417.325,14.905.253,22.353C35.15,64.648,40.46,72.48,46.328,79.8A25.122,25.122,0,0,0,49.1,82.927l2.624-.084,4.71-26.019.56.323,6.62,21.5c6.618-4.516,13.152-9.222,19.457-14.162,1.927-1.51,3.668-3.32,5.627-4.793.364-.274,2.747-1.965,2.921-2,.156-.03.61.3,1.079.325,5.887.283,12.458-.409,18.508-.222a9.284,9.284,0,0,1,1.07.206c.433-9.656.666-19.31.8-29.005l-.042-.256-.673-.206c-.405-.644.317-.924.455-1.344a21.213,21.213,0,0,0,.445-2.605h.588a7.442,7.442,0,0,0,.255,2.2c.219,1.008,1.221,1.864-.268,2.242-.109,2.35-.088,4.714-.176,7.063-.722,19.446-1.02,38.91-1.376,58.38-.03,1.65-1.134,5.148,1.171,5.5,17.185,4.5,34.316,9.238,51.476,13.8,11.043,2.936,22.626,5.439,33.513,8.761.635.193,1.815.3,1.927,1.023.081.522-.955.3-1.257.273-5.445-.517-14.109-3.748-19.743-5.228q-33.448-8.784-66.853-17.714l-.629.062-4.416,3.851-.9.181c-.453-.413,2.441-2.555,2.755-2.847.674-.628,1.291-1.328,1.955-1.968C104.9,93.5,102.295,84.453,98.746,76.152c-2.4-5.607-4.881-11.183-7.314-16.773L64.4,80.023c-.542,1.177,1.584,4.647,1.872,5.985l10.982,32.618,1.2.118c.167.512-.594.5-.6.7-.012.255.4.766.56,1.016,2.358,3.658,6.946,8.653,9.88,12.138,14.951,17.76,30.64,34.9,45.911,52.388,6.113,7,11.964,14.251,18.182,21.134-.911.913-2.23-.815-2.85-1.472-4.313-4.572-8.253-9.819-12.382-14.552-16.981-19.457-34.4-38.513-51.024-58.284-3.144-3.74-6.17-7.609-9.246-11.406L49.75,139.775l.4-5.2c.255-13.713.441-27.4.982-41.082.135-3.391.609-7.107-2.47-9.341l-18.972.191.19,35.882.41,5.881c.7,37.56-.268,75.276.591,112.829.035,1.562-.02,3.137-.037,4.7-.139.421-.672.368-1.028.3L28.677,123.787,0,109.009l23.771-25c.1-.379-.3-.9-.487-1.222-1.187-2-3.668-4.6-5.157-6.64-1.664-2.276-3.173-4.67-4.873-6.922-.287-.379-2.776-3.058-2.438-3.36a1.21,1.21,0,0,1,.894.185c.652.382,3.978,3.8,4.813,4.625,2.294,2.257,4.542,4.469,6.88,6.685,1.8,1.7,3.429,3.591,5.306,5.212Zm83.57.688H92.419c2.342,5.626,4.924,11.164,7.309,16.772,3.42,8.04,5.909,16.544,11.666,23.33Zm-64.3,24.57L29.5,58.987l0,24.177Zm4.523-.2h4.424a6.489,6.489,0,0,0,1.893-.859,43.075,43.075,0,0,0,3.618-2.475c.14-.153.3-.261.29-.5l-5.705-19.95Zm-24.776.2-4.909-5.411-6.592-5.991c-.3.15.039.475.137.65,2.092,3.72,5.569,7.3,8.119,10.753Zm32.248-.2H64.1L63.211,80.6a9.269,9.269,0,0,0-3.237,2.364m-8.651,1.179-1.18,0c.664,1.658,1.375,2.98,1.18,0m3.145,0-2.164,0-.2,1.768c.224.176,1.777-.983,2.029-1.213.192-.174.421-.177.33-.553M74.917,115.6,64.4,84.34c-.145-.217-.366-.178-.583-.2a41.263,41.263,0,0,0-6.261.053c-.314.07-4.032,2.124-4.451,2.428a1.6,1.6,0,0,0-.548.575c-.055.7,4.479,5.722,5.245,6.695,5.162,6.555,10.077,13.381,15.35,19.839a16.668,16.668,0,0,0,1.763,1.873M28.611,84.344H25.17L29,116.583Zm-4.622.787c-.129-.14-1.289.835-1.468.987-3.642,3.114-7.609,8.187-11.014,11.792-3.367,3.563-6.766,7.15-10.331,10.508l-.191.494,27.527,13.761ZM71.38,120.9c-.075-.433.279-.54.587-.688.588-.283,3.934-.823,3.932-1.178L51.914,88.669,50.734,138.6l23.2-17.393.39-.492Z" transform="translate(0 0)" fill="#161615"/>
        <path id="Trazado_893663" data-name="Trazado 893663" d="M346.2,18.986l-13.764,39.7,19.46-5.715.027-1.145,4.3.078a16.764,16.764,0,0,1-3.286,2.623c-1.063.218-.722-.752-.946-.759l-19.953,5.907L340.4,84.438c2.71-2.53,5.379-5.1,7.97-7.755.355-.363,2.453-3.154,2.943-2.658l-5.9,21.818c1.551-1.479,2.792-3.3,4.223-4.916,2.539-2.868,5-5.715,7.472-8.65.645-.765,4.117-4.284,4.176-4.835.043-.4-.338-.661.039-1.17.149-.2,2.257-1.752,2.669-2.052.152-.111.331-.4.494-.095l-1.474,4.029c-.5.608-1.216-.242-1.277-.2a30.1,30.1,0,0,1-3.448,3.928c-1.643,1.9-3.085,3.985-4.714,5.9-2.243,2.642-6.518,6.547-8.042,9.454-.34.647-.451,1.5.513,1.517l46.165-8.417a1.46,1.46,0,0,1-.644.828,49.789,49.789,0,0,1-5.065,2.21c-6.277,2.624-12.779,4.753-19.116,7.231-3.72,1.453-7.308,3.267-11.159,4.372a2.4,2.4,0,0,0,.649.532c7.559,4.792,13.764,6.54,22.394,8.279,14.02,2.825,21.4,10.619,22.191,25.19-.033,23.65.237,47.337.393,70.962.09,13.724.287,27.446.187,41.187l-.755-.227-.219-35.653c0-.465-.208-.9-.213-1.36-.235-22.717-.055-45.506-.59-68.209-.228-9.711,0-18.652-8.357-25.259-7.737-6.116-14.644-4.784-23.2-7.868A93.97,93.97,0,0,1,358,107.542a30.536,30.536,0,0,0-3.141-1.789c-1.152-.285-5.44,2.442-6.741,2.05-.289-.088-.431-.551-.739-.48a35.186,35.186,0,0,0-4.772,2.514c-16.084,9.5-28.495,24.116-41.623,37.018-15.154,14.892-31.508,28.514-47.106,42.938-3.4,3.142-6.506,6.772-10.222,9.636a1.829,1.829,0,0,1-1.271.595c-.558-.6,2.251-3.171,2.749-3.639,15.487-14.531,31.592-28.419,47.2-42.846,8.179-8.211,16.878-15.985,24.158-25.012.089-.611-1.312-1.585-1.74-2.121a15.2,15.2,0,0,1-1.687-2.644c-.191-.7.122-1.028.7-.5.366.33,3.14,4.52,3.531,4.232,4.975-12.053,10.913-23.661,15.891-35.716l6.138-6.06-8.461-25.843L294.617,71.3c-1.056.529.91,4.191-.034,4.486-.352.111-.489-.039-.643-.336a18.911,18.911,0,0,1-.633-3.594C282.079,75.1,271.184,79.5,259.974,82.866,239.183,89.86,218.5,97.282,197.648,104.1c-1.873.612-8.65,3.151-10.041,3.151a.652.652,0,0,1-.674-.3l.33-.5L294.4,70.1,279.544,32.156,327.215,46.9ZM331.846,58.3,344.037,23.31c-3.17,3.83-5.543,8.313-8.253,12.485-1.668,2.569-3.578,4.983-5.2,7.581a32.215,32.215,0,0,0-2.192,3.71,1.314,1.314,0,0,0-.048.842c1.437,3.009,1.74,6.919,3.1,9.886.09.2.121.461.4.484m-5.307-10.809L280.724,33.137l14.369,36.547c.265.186,4.394-1.962,5.031-2.311,8.215-4.488,15.529-10.472,22.585-16.54,1.078-.927,2.564-1.818,3.531-2.761.192-.186.372-.255.3-.584m-25.17,20.636,28.908-8.743.158-.738-2.915-9.977c-3.591,2.467-6.725,5.53-10.133,8.247-2.4,1.912-5.088,4.026-7.583,5.786-2.731,1.925-5.7,3.509-8.434,5.425m48.568,8.062-9.371,9.135,3.965,10.323Zm-6.292,21.228-4.03-10.806L334.8,91.224l5.913,4.5Zm43.849-5.5-40.7,7.566a67.905,67.905,0,0,0,5.764,3.67c.474.261,1.948,1.158,2.29,1.261.749.226,4.378-1.174,5.362-1.541,8.32-3.1,16.537-6.627,24.861-9.745ZM343.055,98.4c-3.151-1.012-5.582-4.009-8.343-5.523-.17-.092-.3-.294-.51-.095L318.872,126.7Zm3.9,7.831c.395-.625-2.176-5.75-2.552-6.729l-.289-.306-.658.293q-9.3,10.765-18.495,21.61c-.186.221-.477.32-.391.688,3.23-2.28,5.991-5.1,9.178-7.433a83.04,83.04,0,0,1,13.208-8.124m1.6,1.012,4.91-2.064-7.074-4.225c.658,2.112,1.891,4.053,2.164,6.29" transform="translate(31.927 3.243)" fill="#161615"/>
        <path id="Trazado_893664" data-name="Trazado 893664" d="M351.831,238.823l-.8-.087c-.2-.137-.169-.384-.193-.592-.4-3.331.064-8.088.018-11.615-.185-14-.478-28.069-.606-42.049-.13-14.148-.041-28.3-.177-42.445-.1-.386-4.855-.479-5.615-.514-.457.074-.685-.749-.392-.787l5.8.393-.084-39.71,1.082.089.193.592c-.1,5.639.094,11.285,0,16.923-.2,11.7.318,23.786.393,35.563.08,12.641.117,25.323.2,37.938.1,15.435.116,30.868.187,46.3" transform="translate(58.742 17.321)" fill="#161615"/>
        <path id="Trazado_893665" data-name="Trazado 893665" d="M283.568,84.628a1.429,1.429,0,0,1-.793-.09c-.314-.207-2.21-6.5-1.958-6.788.335-.064.507.167.679.4.451.609,2.352,6.209,2.071,6.478" transform="translate(47.958 13.277)" fill="#161615"/>
        <path id="Trazado_893666" data-name="Trazado 893666" d="M75.938,98.738a.645.645,0,0,1-.2.684c-.82.878-5.53,2.213-6.877,2.066-.1-.5.961-.789,1.323-.937.643-.261,5.539-2.027,5.753-1.814" transform="translate(11.76 16.861)" fill="#161615"/>
        <path id="Trazado_893667" data-name="Trazado 893667" d="M83.381,95.21a.791.791,0,0,1-.184.7c-.46.613-5.682,3.275-6.107,2.837l.122-.6c2.143-.776,3.853-2.7,6.169-2.933" transform="translate(13.166 16.261)" fill="#161615"/>
        <path id="Trazado_893668" data-name="Trazado 893668" d="M290.227,100.752c.347-.07.485.178.69.39a42.368,42.368,0,0,1,3.277,5.574c.254.729-.3.547-.726.131-.646-.63-3.752-5.52-3.241-6.1" transform="translate(49.559 17.206)" fill="#161615"/>
        <path id="Trazado_893669" data-name="Trazado 893669" d="M286.444,92.517c-.446.062-.506.007-.759-.321a24.463,24.463,0,0,1-2.145-5.921c-.033-.342-.063-.41.251-.633.476.006,2.346,5.315,2.558,6.087a1.8,1.8,0,0,1,.095.788" transform="translate(48.423 14.627)" fill="#161615"/>
        <path id="Trazado_893670" data-name="Trazado 893670" d="M279.736,69.857c.333,2.043,1.028,4.067,1.254,6.13.114,1.033-.478.96-.807.207a27.966,27.966,0,0,1-1.133-5.95,2.635,2.635,0,0,0,.105-.385Z" transform="translate(47.658 11.931)" fill="#161615"/>
        <path id="Trazado_893671" data-name="Trazado 893671" d="M304.9,119.667a1.192,1.192,0,0,1-.893-.186,45.26,45.26,0,0,1-3.995-4.263c-.493-.866-.088-1.226.674-.674.416.3,1.678,2.045,2.147,2.572.313.35,2.465,2.169,2.066,2.551" transform="translate(51.203 19.518)" fill="#161615"/>
        <path id="Trazado_893672" data-name="Trazado 893672" d="M289.881,100.234c-.4.434-1.678-2.172-1.8-2.422-.254-.512-1.627-3.552-1.651-3.854-.039-.489.519-.9.939-.151.31.548,2.75,6.175,2.515,6.428" transform="translate(48.919 15.952)" fill="#161615"/>
        <path id="Trazado_893673" data-name="Trazado 893673" d="M318.671,128.475c.834,1.281-2.076-.2-2.32-.328-.309-.16-4.618-2.678-4.125-3.049a2.624,2.624,0,0,1,1.576.486c.571.275,4.715,2.653,4.869,2.891" transform="translate(53.319 21.363)" fill="#161615"/>
        <path id="Trazado_893674" data-name="Trazado 893674" d="M342.643,135.782a40.294,40.294,0,0,1-5.47-.722c-.391-.1-1.718-.338-1.606-.945.3-.454.378-.16.693-.111,2.015.311,4.013.814,6.047,1.035Z" transform="translate(57.311 22.863)" fill="#161615"/>
        <path id="Trazado_893675" data-name="Trazado 893675" d="M326.24,131.71l.027.562a2.676,2.676,0,0,1-1.233-.24,26.123,26.123,0,0,1-4.867-2.21c-.213-.2-.454-.356-.388-.692.432-.386,5.624,2.22,6.46,2.58" transform="translate(54.614 22.048)" fill="#161615"/>
        <path id="Trazado_893676" data-name="Trazado 893676" d="M43.306,105.634l-.1.742-6.758.613.023-.663.3-.29Z" transform="translate(6.225 18.042)" fill="#161615"/>
        <path id="Trazado_893677" data-name="Trazado 893677" d="M311.547,124.606c-.492.429-3.522-1.915-4.025-2.363-.352-.315-2.063-1.859-1.674-2.354,1.582,1.322,3.716,2.577,5.2,3.939.239.219.563.393.5.779" transform="translate(52.227 20.476)" fill="#161615"/>
        <path id="Trazado_893678" data-name="Trazado 893678" d="M90.381,91.015c.082.378-.193.469-.411.669-.526.478-5.111,3.662-5.486,3.261-.089-.475.048-.494.321-.757.357-.343,3.889-2.753,4.33-2.946a2.022,2.022,0,0,1,1.247-.226" transform="translate(14.425 15.541)" fill="#161615"/>
        <path id="Trazado_893679" data-name="Trazado 893679" d="M334.207,133.731l.011.575c-.255.267-6.607-.933-6.883-2.159Z" transform="translate(55.906 22.57)" fill="#161615"/>
        <path id="Trazado_893680" data-name="Trazado 893680" d="M35.13,106.29c.057.378-.153.527-.493.589a37.246,37.246,0,0,1-4.136-.007,10.606,10.606,0,0,1-2.448.2c-.083-.22.084-.786.294-.786Z" transform="translate(4.787 18.154)" fill="#161615"/>
        <path id="Trazado_893681" data-name="Trazado 893681" d="M321.206,57.434v.192l-.587.2v-.392Z" transform="translate(54.759 9.809)" fill="#161615"/>
        <path id="Trazado_893682" data-name="Trazado 893682" d="M63.98,107.969l2.948-.193-.391.492-23.2,17.393,1.179-49.927L68.5,106.1c0,.355-3.345.894-3.932,1.178-.308.149-.661.255-.587.688m-2.361.2c-.237-.234-6,.694-6.551,1.019-.588.344-.466.894.259.866a52.335,52.335,0,0,0,6.089-1.2c.27-.225.222-.362.2-.68m-9.636,1.376c-2.038.513-4.372.395-6.383.793-.786.155-.635.693.18.788.709.082,5.993-.523,6.177-.823Z" transform="translate(7.401 12.935)" fill="#fff"/>
        <path id="Trazado_893683" data-name="Trazado 893683" d="M23.846,72.714l4.523,37.543L.841,96.5,1.032,96C4.6,92.643,8,89.056,11.363,85.493c3.406-3.6,7.371-8.678,11.015-11.792.178-.152,1.338-1.127,1.468-.987" transform="translate(0.144 12.417)" fill="#fff"/>
        <path id="Trazado_893684" data-name="Trazado 893684" d="M98.8,50.045l-.885,40.1c-5.757-6.785-8.246-15.289-11.665-23.33-2.386-5.608-4.969-11.145-7.31-16.772Z" transform="translate(13.482 8.547)" fill="#fff"/>
        <path id="Trazado_893685" data-name="Trazado 893685" d="M43.677,74.559H25.193l0-24.178Z" transform="translate(4.303 8.605)" fill="#fff"/>
        <path id="Trazado_893686" data-name="Trazado 893686" d="M67.25,103.337a16.453,16.453,0,0,1-1.762-1.873C60.214,95.007,55.3,88.18,50.136,81.625c-.766-.972-5.3-5.992-5.245-6.695a1.619,1.619,0,0,1,.548-.575c.419-.3,4.138-2.357,4.451-2.428a41.129,41.129,0,0,1,6.263-.052c.215.027.437-.012.582.2Z" transform="translate(7.667 12.26)" fill="#fff"/>
        <path id="Trazado_893687" data-name="Trazado 893687" d="M44.843,74.334l4.52-23.785L55.069,70.5c.009.238-.15.347-.29.5a42.8,42.8,0,0,1-3.618,2.476,6.489,6.489,0,0,1-1.893.859Z" transform="translate(7.659 8.633)" fill="#fff"/>
        <path id="Trazado_893688" data-name="Trazado 893688" d="M24.939,72.039l.393,32.239L21.5,72.039Z" transform="translate(3.672 12.304)" fill="#fff"/>
        <path id="Trazado_893689" data-name="Trazado 893689" d="M25.376,72.7H22.132c-2.55-3.451-6.027-7.033-8.119-10.754-.1-.174-.433-.5-.137-.649l6.592,5.99Z" transform="translate(2.349 10.468)" fill="#fff"/>
        <path id="Trazado_893690" data-name="Trazado 893690" d="M51.225,71.209a9.272,9.272,0,0,1,3.237-2.365l.892,2.365Z" transform="translate(8.749 11.758)" fill="#fff"/>
        <path id="Trazado_893691" data-name="Trazado 893691" d="M46.866,71.872c.092.377-.138.378-.329.553-.253.231-1.805,1.39-2.029,1.214l.2-1.769Z" transform="translate(7.602 12.275)" fill="#fff"/>
        <path id="Trazado_893692" data-name="Trazado 893692" d="M44.008,71.871c.193,2.982-.516,1.66-1.18,0Z" transform="translate(7.315 12.275)" fill="#fff"/>
        <path id="Trazado_893693" data-name="Trazado 893693" d="M312.856,45.426c.074.328-.105.4-.3.584-.968.941-2.453,1.833-3.531,2.761-7.056,6.068-14.37,12.052-22.585,16.54-.638.349-4.767,2.5-5.031,2.311L267.043,31.074Z" transform="translate(45.609 5.307)" fill="#fff"/>
        <path id="Trazado_893694" data-name="Trazado 893694" d="M323.809,87.649l-24.184,28.3,15.33-33.92c.211-.2.341,0,.509.095,2.762,1.513,5.194,4.51,8.344,5.523" transform="translate(51.174 13.996)" fill="#fff"/>
        <path id="Trazado_893695" data-name="Trazado 893695" d="M284.676,63.8c2.735-1.917,5.7-3.5,8.433-5.425,2.5-1.759,5.187-3.874,7.584-5.785,3.408-2.719,6.541-5.78,10.132-8.248l2.915,9.977-.158.738Z" transform="translate(48.621 7.572)" fill="#fff"/>
        <path id="Trazado_893696" data-name="Trazado 893696" d="M364.174,81.275l-2.422,1.212c-8.323,3.118-16.54,6.643-24.859,9.745-.986.368-4.613,1.767-5.363,1.541-.342-.1-1.816-1-2.29-1.261a68.082,68.082,0,0,1-5.763-3.67Z" transform="translate(55.247 13.881)" fill="#fff"/>
        <path id="Trazado_893697" data-name="Trazado 893697" d="M311.224,57.668c-.279-.022-.309-.289-.4-.484-1.36-2.967-1.665-6.877-3.1-9.886a1.314,1.314,0,0,1,.048-.842,32.22,32.22,0,0,1,2.192-3.711c1.62-2.6,3.53-5.011,5.2-7.58,2.71-4.174,5.082-8.656,8.253-12.487Z" transform="translate(52.549 3.873)" fill="#fff"/>
        <path id="Trazado_893698" data-name="Trazado 893698" d="M326.883,94.532a82.863,82.863,0,0,0-13.207,8.124c-3.188,2.338-5.948,5.154-9.178,7.433-.087-.369.2-.468.39-.688q9.167-10.878,18.5-21.61l.658-.293.289.306c.377.979,2.948,6.1,2.552,6.729" transform="translate(52.003 14.944)" fill="#fff"/>
        <path id="Trazado_893699" data-name="Trazado 893699" d="M327.525,67.843,322.12,87.3l-3.966-10.324Z" transform="translate(54.338 11.587)" fill="#fff"/>
        <path id="Trazado_893700" data-name="Trazado 893700" d="M322.074,87.55l-2.931-1.687-5.914-4.5,4.814-4.615Z" transform="translate(53.497 13.107)" fill="#fff"/>
        <path id="Trazado_893701" data-name="Trazado 893701" d="M325.3,95.286c-.273-2.236-1.506-4.177-2.164-6.29l7.074,4.225Z" transform="translate(55.19 15.2)" fill="#fff"/>
        <path id="Trazado_893702" data-name="Trazado 893702" d="M59.961,103.441c.019.318.067.457-.2.681a52.661,52.661,0,0,1-6.09,1.2c-.724.028-.845-.522-.259-.866.551-.324,6.314-1.253,6.552-1.019" transform="translate(9.058 17.661)" fill="#161615"/>
        <path id="Trazado_893703" data-name="Trazado 893703" d="M51.727,104.612l-.026.757c-.184.3-5.468.905-6.177.823-.815-.095-.966-.633-.18-.788,2.011-.4,4.345-.28,6.383-.793" transform="translate(7.656 17.867)" fill="#161615"/>
      </g>
    </g>
  </g>
</svg>
