<svg xmlns="http://www.w3.org/2000/svg" xmlns:xlink="http://www.w3.org/1999/xlink" width="820" height="421" viewBox="0 0 820 421">
  <defs>
    <clipPath id="clip-path">
      <rect id="Rectángulo_402436" data-name="Rectángulo 402436" width="626.731" height="292.891" fill="none"/>
    </clipPath>
  </defs>
  <g id="Grupo_1102593" data-name="Grupo 1102593" transform="translate(-180.051 -15100)">
    <path id="Trazado_894322" data-name="Trazado 894322" d="M20,0H800a20,20,0,0,1,20,20V401a20,20,0,0,1-20,20H20A20,20,0,0,1,0,401V20A20,20,0,0,1,20,0Z" transform="translate(180.051 15100)" fill="#e4def6"/>
    <path id="Imagen_3_upscayl_4x_digital-art-4x" data-name="Imagen 3_upscayl_4x_digital-art-4x" d="M20,0H714a20,20,0,0,1,20,20V331a20,20,0,0,1-20,20H20A20,20,0,0,1,0,331V20A20,20,0,0,1,20,0Z" transform="translate(223.051 15135)" fill="#fff"/>
    <g id="Grupo_1102531" data-name="Grupo 1102531" transform="translate(277.021 15163.335)" clip-path="url(#clip-path)">
      <path id="Trazado_893751" data-name="Trazado 893751" d="M683.1,22.123c.209.137.093.145.492.246A17.949,17.949,0,0,0,689,25.2a208.677,208.677,0,0,0,30.207,8.915c2.863.592,5.937.7,8.736,1.351.268.062.979.1.922.431-1.842.057-3.7-.071-5.546-.009-7.46.247-15.158.447-22.618.512-8,.069-16.04.02-24.014-.122-4.217-2.678-8.271-5.675-12.3-8.608-2.358-1.716-5.025-3.447-7.25-5.3a1.931,1.931,0,0,1-.611-.741c3.156-.054,6.325.065,9.483.009,3.1-.056,5.964-.105,9.084,0,2.937.1,5.047-.1,8.008.482" transform="translate(-140.769 -4.627)" fill="#fff"/>
      <path id="Trazado_893752" data-name="Trazado 893752" d="M477.73,23.257c7.5-1.555,15.406-.18,23-.975l1.361.482a15.016,15.016,0,0,0-2.79,1.269,7.9,7.9,0,0,0-1.639,1.191c-.429.079-.382.192-.492.246-.179.085-.357.184-.493.246-.153.081-.28.123-.492.246-.208.1-.368.188-.492.246-7.687,3.6-15.09,7.928-22.769,11.554-12.653.138-25.242.068-37.9.243-.425.006-.785.26-1.21.266-3.651.057-7.311-.063-10.96-.011.521-.937,1.783-.618,2.577-.744,5.481-.867,15.506-2.552,20.307-4.666,8.2-1.119,15.926-4.586,23.862-6.77,2.72-.749,5.782-1.082,8.127-2.823" transform="translate(-90.667 -4.778)" fill="#fff"/>
      <path id="Trazado_893753" data-name="Trazado 893753" d="M511.765,25.222c2.3-.424,3.605-2.356,5.788-2.7.309-.049,1.628-.251,1.716-.251h16.61c-.379.8-1.258,1.2-1.849,1.718-4.236,3.71-8.47,7.471-12.788,11.076-.632.527-2.855,2.372-3.451,2.453-4.1.062-8.209-.07-12.311-.008-.426.006-.785.261-1.21.266-5.209.071-10.429-.073-15.635-.011.057-.376.46-.462.735-.617,6.724-3.766,13.832-7.057,20.426-10.943.1-.059.289-.128.492-.246.2-.091.366-.188.492-.246.146-.077.34-.171.493-.246.17-.081.195.042.492-.246" transform="translate(-104.771 -4.775)" fill="#fff"/>
      <path id="Trazado_893754" data-name="Trazado 893754" d="M530.472,6.919c.871-1.126,6.029-2.68,7.457-3.983l1.893-.69c-.526.023-1.064-.046-1.591.008-5.145.522-8.831,2.354-13.658,3.811-1.342.405-2.724.7-4.069,1.1l-.014-.26c3.823-1.253,7.709-2.341,11.46-3.8.265-.1.983-.3.983-.616-.615.013-1.237-.016-1.855-.011a44.027,44.027,0,0,0-4.43.246c-3.522.415-7.115,2.062-10.631,2.9-2.17.518-4.423.762-6.6,1.277l-1.832.013c3.936-.847,7.97-1.348,11.817-2.577a9.4,9.4,0,0,0,1.475-.493c.261-.192.277-.739.635-.841.559-.159,1.666-.125,2.313-.272.058-.427-.564-.241-.86-.244a9.381,9.381,0,0,0-.995-.011c-1.066.11-2.343.641-3.444.739s-2.39-.137-3.435.01c-.839.118-1.716.575-2.947.744C503.959,5.1,495.714,5.74,487.541,6.681c-1.815.209-3.856.621-5.657.74-.472.031-1.006,0-1.487-.009-.3-.007-.918.183-.861-.246l3.56-.255c5.809-1.091,11.653-1.282,17.471-1.967,5.4-.636,10.816-1.634,16.256-2.2.684-.071,1.4.032,2.083-.009l-2.574-.5c-39.955.368-79.915.06-119.834.759-3.322.058-6.655-.064-9.975-.011l.865-.487c12.3-.079,24.612.086,36.916.005,29.728-.194,59.552-1.068,89.322-.758,4.781.05,9.671.426,14.518.266,5.893-.193,11.8-1.549,17.717-1.25,2.3.116,5.064.952,7.315.674a29.886,29.886,0,0,1,5.952-.162c10.666.336,21.318.167,32.009,0C621.76.792,652.518.287,683.146.022c8.818-.077,17.646.077,26.462.01l-2.819.5C700.23.314,693.607.679,687.1.78c-29.6.456-59.244.494-88.83.984-4.09.068-8.295-.273-12.321.228-.445.055-.9-.014-1.345.009l1.361.483c11.42.913,22.82,1.728,34.188,3.213l2.591.484c-.937-.046-1.9.063-2.84.011a31.426,31.426,0,0,1-6.032-.612c-.35-.12-.674-.555-.88-.6-.1-.02-1.369.027-1.944-.022-6.915-.589-13.783-1.16-20.669-1.721-2.346-.191-4.268-.767-6.4-.983-2.378-.242-5.082.159-7.5-.009l11.88,3.006c.855.3,1.717.577,2.571.875.631.219.47.335-.064.31a12.294,12.294,0,0,1-1.661-.31c-3.6-.859-7.224-1.828-10.827-2.706-.526-.129-2.316-.929-2.515-.929h-4.8l7.955,3.239.288.7c-2.889-1.022-5.767-2.812-8.724-3.578a45.415,45.415,0,0,0-8-.86c-1.115-.046-2.332-.012-3.455.01-.3.006-.919-.182-.861.246l2.96.608a77.824,77.824,0,0,1,20.05,11.687c.316.261,1.6,1.725,1.719,1.725h13.165a14.26,14.26,0,0,0-2.474-2.077,78.351,78.351,0,0,0-9.413-5.842,19.022,19.022,0,0,0-3.261-1.416c-.684-.126-.65-.3.021-.267,1.1.049,4.482,1.877,5.614,2.508,3.419,1.905,6.679,4.364,9.919,6.564,1.539.744,4.142.6,5.879.54,5.472-.183,10.97-.148,16.477-.256.3-.005.918.183.86-.245a35.78,35.78,0,0,1-4.113-1.669c-5.42-2.038-11.28-4.116-16.8-5.839-1.729-.54-3.519-.909-5.274-1.353a.251.251,0,0,1-.02-.488c4.141,1.023,8.151,2.426,12.173,3.82,5.293,1.836,10.611,3.821,15.884,5.768,5.249-.038,10.5.069,15.752.016,11.352-.114,22.832-.625,34.183-.758,7.678-.09,15.8.416,23.4.02a9.969,9.969,0,0,1,2.819-.257c.058-.427-.562-.24-.86-.246-.489-.009-.981.033-1.469-.008-12.12-1.014-24.286-3.446-36.436-4.655-10.086-1-20.147-2.79-30.247-3.462l-1.238-.484,4.42.254c7.957.617,15.852,2.09,23.869,2.951,15.3,1.643,30.716,3.92,46.03,5.641.731.082,1.6-.258,2.084.379l-3.731,6.354a273.794,273.794,0,0,0-22.725,44.434c-3.628,8.9-6.69,17.942-9.524,27.129-2.252,7.3-4.651,14.845-6.536,22.245-3,11.762-5.6,23.812-8.114,35.672-1.442,6.81-2.724,13.615-4.182,20.415-.472,2.2-.681,4.377-1.053,6.573-.229,1.35-.456,2.809-.786,4.135-.057.231-.121.735-.437.669l1.981-12.408c4.63-20.8,8.157-42.146,14.13-62.619,1.138-3.9,2.726-7.69,3.566-11.685a81.577,81.577,0,0,1,2.585-8.484,318.456,318.456,0,0,1,27.73-61.814c1.526-2.591,3.4-5.063,4.842-7.7a10.107,10.107,0,0,0,1.024-2.3c-.076-.071-1.673.026-2.083-.009a46.528,46.528,0,0,0-5.432-.248c-20.2.621-40.572.629-60.759,1-3.321.062-6.655-.067-9.975-.009.086.267.508.588.738.738-2.961-.581-5.071-.383-8.007-.482-3.12-.1-5.983-.055-9.085,0-3.158.057-6.327-.063-9.484-.009a1.928,1.928,0,0,0,.611.741c2.226,1.85,4.892,3.581,7.251,5.3,4.031,2.933,8.086,5.93,12.3,8.608,7.974.141,16.018.191,24.013.122,7.461-.065,15.159-.266,22.618-.512,1.844-.061,3.7.066,5.546.009.057-.328-.654-.369-.922-.431-2.8-.647-5.874-.76-8.737-1.351a208.706,208.706,0,0,1-30.206-8.915,17.954,17.954,0,0,1-5.41-2.831c2.049.521,3.9,1.8,5.905,2.583a180.24,180.24,0,0,0,36.041,9.723,90.877,90.877,0,0,0,9.349,1.232c.491.031,2.737-.108,2.841-.009.268.253-.44,2.266-.614,2.708-.487,1.238-1.351,2.348-1.9,3.515-2.886,6.172-5.7,13.581-8.018,20.025-1.922,5.349-3.393,10.855-5.167,16.234a305.6,305.6,0,0,0-9.889,39.555c-3.362,18.275-6.833,36.65-8.875,55.08a53.825,53.825,0,0,0-1.468,9.232l-.255-1.117.494-2.949.262-4.165c1.569-7.634,2.344-15.419,3.444-23.122,1-6.991,2.461-13.953,3.676-20.922.719-4.123,1.416-7.554,2.419-11.6.683-2.755.78-5.721,1.335-8.5,1.566-7.864,3.823-15.8,6.035-23.483,4.4-15.29,9.347-30.578,15.931-45.076.749-1.65,1.739-3.2,2.34-4.915l-59.3.738,2.869,2.174c2.112.8,3.748,2.328,5.66,3.442,5.594,3.263,11.7,5.247,17.8,7.294a27.319,27.319,0,0,0,7.248,1.364c.711.441,3.428.375,3.809.742a2.769,2.769,0,0,1-.036,1.046c-.6,2.915-1.688,5.8-2.351,8.718-1.852,8.143-3.371,16.335-4.995,24.523-.615,3.1-1.738,6.274-2.193,9.368-.049.335.042.683,0,.987a9.273,9.273,0,0,0-.257,2.817l-.256-2.1c.429-1.134.152-2.279.266-3.425.258-2.61,1.571-5.993,2.145-8.678,1.814-8.489,3.453-16.976,5.289-25.459.2-.936,1.934-7.057,1.662-7.316l-43.061.492c-.1.422.161.489.368.738,2.706,3.248,10,8.762,13.732,10.87,2.091,1.18,6.175,3.2,8.424,3.633.584.113,1.233-.241,1.35.617-.136,4.507.155,9.041,0,13.544-.018.537-.247.969-.016,1.468l-.732,1.105V64.475H609.336l-.86.368a91.45,91.45,0,0,0,6.516,7.014A33.63,33.63,0,0,0,625.7,78.129a19.414,19.414,0,0,0,7.385,1.35l1.461,206.967c-.3.583-.584.134-1.081.127-6.908-.082-13.6-1.255-20.445-1.7a235.376,235.376,0,0,0-38.63.474q-10.215,1.031-20.424,1.968c-10.119.941-20.146,3.1-30.265,4.428-19.981,2.625-39.861.435-59.554-3.424-.737-.2-2.046-.106-2.67-.282a.646.646,0,0,1-.368-.369c-.1-5.569.05-11.143-.013-16.713-.121-10.662-.424-21.541-.512-32.2-.434-52.4-.448-104.792-.968-157.177.284-2.2,1.973-2.058,3.319-3.323.5-.47.721-1.035,1.223-1.483.731-.652,1.953-1.25,2.713-1.961,2.286-2.137,4.56-4.262,6.883-6.4.751-.692,1.784-1.422,2.576-2.1.738-.63.683-1.02-.35-1.1-6.546.467-14.049-.705-20.439.246-.276.041-1.1-.047-1.1.008v8.363c-.43.057-.24-.562-.246-.86-.02-.984.056-1.983.01-2.962a23.868,23.868,0,0,1-.253-4.168c.145-1.25,1.114-.836,2.057-1.387,5.45-3.186,13.239-8.189,18-12.264a21.968,21.968,0,0,0,2.334-2.463H428.109c-.442.44,2.435,4.611,2.659,5.581.058.255.241.87-.2.813-.9-2.257-2.512-4.145-2.954-6.641l3.067-.255c2.808-.522,5.256-2.2,8.006-2.7-.3.722-3.552,1.734-4.5,2.021l-1.652.93c2.336-.051,4.686.068,7.023.011,9.616-.233,19.4-.309,29.015-.512,3.022-.064,6.052.1,9.073-.032.791-.174,1.615-1.387,2.253-1.929,4.428-3.767,9.016-7.384,13.3-11.307a28.1,28.1,0,0,0,2.58-2.709c-.526.02-1.064-.042-1.592.007-7.212.671-14.877.271-22.143.494-2.651.082-5.539-.492-7.932.68-4.593,2.251-9.07,5.285-13.683,7.476-2.764,1.313-9.092,4.39-11.737,4.871.124-.3,2.336-1.064,2.956-1.35,7.395-3.415,14.662-6.941,21.733-10.989l.9-.7c-5.536.053-11.081-.068-16.62-.011-13.162.137-26.415.245-39.608.5-.207,0-.859-.112-.614.368.185.361,1.046,1.16,1.346,1.607A148.668,148.668,0,0,1,421.58,59.072c4.307,9.827,8.719,19.285,12.072,29.5,9.413,28.687,13.775,58.7,17.574,88.445l-.111,1.585-.854-3.573c-.737-11.344-2.947-22.448-4.675-33.7a322.967,322.967,0,0,0-12.61-53.314c-3.4-10.081-7.755-19.874-11.878-29.7a95.946,95.946,0,0,0-5.745-10.737c-2.725-4.732-5.345-9.554-8.9-13.735-.045-.688.134-.208.413-.168a5.411,5.411,0,0,0,1.931-.193,185.766,185.766,0,0,0,20.6-3.511c3.023-.692,5.435-1.482,8.55-1.907-4.8,2.115-14.827,3.8-20.308,4.666-.793.126-2.056-.193-2.576.744,3.648-.051,7.309.068,10.96.011.426-.006.785-.26,1.21-.266,12.655-.174,25.244-.1,37.9-.243,7.678-3.625,15.081-7.952,22.768-11.554-6.595,3.886-13.7,7.177-20.426,10.943-.276.155-.679.24-.736.617,5.207-.062,10.426.082,15.635.011.425-.006.785-.26,1.21-.266,4.1-.062,8.209.07,12.312.008.6-.081,2.819-1.926,3.451-2.453,4.317-3.605,8.551-7.366,12.788-11.076.591-.518,1.471-.918,1.849-1.718h-16.61c-.089,0-1.409.2-1.716.251-2.183.344-3.484,2.276-5.788,2.7a7.86,7.86,0,0,1,1.639-1.191,15.009,15.009,0,0,1,2.79-1.27l-1.361-.482c-7.594.8-15.5-.58-23,.975.229-.169.54-.217.492-.491-1.02-.051-2.064.064-3.086.009-1.194-.063-2.366-.587-3.67,0l-55.129-.01-.861-.245c1.1-.054,2.23.068,3.332.009.434-.023.784-.251,1.21-.266,10.949-.393,22.282-.171,33.219-.246,9.432-.065,18.867.077,28.3,0,3.091-.815,5.929-2.378,8.984-3.318,6.63-2.039,13.365-3.793,20.007-5.827.534-.163,2.794-1.264,3.129-.93a3.245,3.245,0,0,1,0,.737c-.032.024-.549,0-.8.058-6.112,1.321-11.878,3.6-17.833,5.3-1.262.359-2.719.5-4.01.91-2.5.788-4.881,2.031-7.377,2.835-.058.427.563.239.861.245,3.884.075,7.732-.168,11.555-.256,2.245-.053,6.4.39,8.334-.032.879-.192,3.966-2.163,5.161-2.713,2.793-1.288,5.7-2.565,8.535-3.766,1.914-.812,6.986-3.122,8.729-3.327.24-.029.944-.146.87.255l-4.744,1.53c-5.553,2.2-10.949,4.735-16.342,7.278L497.745,17h17.347c.236,0,3.046-2.65,3.581-3.063,3.182-2.457,7.993-5.96,11.8-7.022-.432.559-2.727,1.423-3.615,1.92a63.944,63.944,0,0,0-9.553,6.685c-.405.362-1.1.914-1.1,1.48h4.552c.191,0,2.27-2.321,2.7-2.709,5.691-5.108,10.638-7.815,17.512-11.029a1.83,1.83,0,0,1,1.07-.283c.1-.289-.476-.409-.612-.4-.372.012-.892.291-1.281.343-.225.03-.43-.151-.811-.08-.922.171-1.344.9-1.976,1.244a34.7,34.7,0,0,1-6.885,2.833M544.99,1.754c-.192-.158-.688.082-.492.244s.689-.082.492-.244m-24.607.492c-.192-.158-.688.082-.491.245s.688-.082.491-.245m31.005,14.266c-.118-3.307.153-6.67.009-9.972-.018-.426-.237-.775-.266-1.21-.047-.705.282-2.884-.373-3.073-.473-.137-.953.218-1.452.245a22.858,22.858,0,0,0-5.066.347c-5.874,1.524-13.822,6.431-18.324,10.461A49.429,49.429,0,0,0,522.352,17Zm26.821,0a3.637,3.637,0,0,0-.486-.866c-4.191-5.183-7.622-8.13-13.783-10.819a29.79,29.79,0,0,0-10.715-2.572c-.528-.047-1.064.01-1.591-.009V16.511Zm4.183-.247c-1.837-2-4.439-3.341-6.4-5.281l-2.7-1.483c.4.423.834.807,1.233,1.227,1.373,1.445,2.78,2.939,4.182,4.427.278.3.343.682.74.983,1.009.764,1.864.138,2.948.127M551.88,19.955v12.3l36.171-.247c-.8-1.472-1.442-3.045-2.254-4.511-1.071-1.934-2.471-4.319-3.691-6.149-.913-1.368-2.16-2.458-3.023-3.866-.567-.471-2.8-.17-3.715-.222a53.223,53.223,0,0,0-5.393,0c-6.018.182-12.12-.25-18.108.1l-.235,1.119-.245-1.23-27.447-.009c-.746.368-1.776.1-2.418.289a9.006,9.006,0,0,0-1.39,1.316c-2.459,2.687-4.837,5.474-7.382,8.117l-4.426,5.415,43.063-.122c.084-2.659-.111-5.346-.011-8.005.016-.426.242-.776.267-1.21.042-.726-.025-1.489-.01-2.224.006-.3-.184-.918.246-.86m65.7,11.806c-.034-.252-.311-.451-.5-.6-3.388-2.658-7.072-4.883-10.556-7.4-2.5-1.812-5.113-4.274-7.649-5.882a5.683,5.683,0,0,0-2.073-.879,105.779,105.779,0,0,0-10.6,0c-.345.007-.633.217-.93.2-.554-.023-1.5-.613-.537.544,2.314,2.777,5.252,5.164,7.5,8l5.835,5.974a5.348,5.348,0,0,0,1.172.3,56.239,56.239,0,0,0,5.925,0c.428-.011.785-.258,1.211-.266,3.731-.072,7.476.075,11.206.009m-20.177.247a19.327,19.327,0,0,0-2.71-3.071c-3.215-3.548-6.619-7.036-9.835-10.584a8.623,8.623,0,0,0-.983-.986,11.381,11.381,0,0,0-3.084-.117c-.377.016-.415-.1-.366.368.848,1.124,1.671,2.294,2.42,3.484,1.986,3.152,3.7,6.71,5.739,9.76a7.465,7.465,0,0,0,.822,1.146ZM519.891,17.5h-4.8c-.431,0-1.76,1.6-2.211,1.971-4.743,3.931-9.709,7.663-14.28,11.8-.471.426-.881.926-1.349,1.357.08.222.658.156.87.133.435-.048.79-.241,1.211-.266,2.319-.139,4.865.207,7.157.02,1-.082.833-.558,1.339-1.121,3.214-3.571,6.461-7.183,9.6-10.815.849-.98,1.6-2.1,2.457-3.078M654,47.258a41.542,41.542,0,0,1-6.9-1.1,96.672,96.672,0,0,1-27.719-13.615c-3.675-.014-7.366-.124-11.041-.053-.426.009-.784.256-1.211.266-2.665.061-5.344-.067-8.008-.009,4.193,4.948,8.479,9.758,13.037,14.393l.909.567c8.841-.05,17.7.21,26.543.053,3.832-.068,7.7-.477,11.565,0ZM551.88,32.991v15.5c2.5-.053,5.014.068,7.515.01,7.433-.172,14.918-.164,22.392-.247,4.666-.051,9.557-.592,14.273-.266.632.043.94.544.852-.114-1.754-3.65-3.908-7.09-5.868-10.615-.393-.705-2.006-4.366-2.4-4.484Zm46.383-.246h-8.12a.413.413,0,0,0-.251.493,33.554,33.554,0,0,0,2.3,4.1c1.926,3.566,3.729,7.211,5.842,10.673,1.551-.072,3.115.053,4.665,0,2.348-.082,4.73-.4,7.136-.266.478.027,2.015.517,2.327.255.335-.279-1.32-1.432-1.485-1.589-3.717-3.532-6.84-7.82-10.323-11.572-.284-.307-1.952-2.048-2.1-2.087m-91.906.246c-.349-.321-8.267.244-9.473,0-4.719,3.946-9.194,8.211-14.03,12.049l-4.3,3.94h13.9c.518,0,1.478-.94,1.849-1.349,1-1.1,1.733-2.474,2.587-3.563.712-.908,1.815-1.7,2.581-2.587,2.185-2.534,4.348-5.166,6.517-7.751.13-.154.586-.539.369-.738m45.03,0h-43.43c-.376,0-4.18,5.051-5.048,5.531-2.067,2.838-4.65,5.209-6.75,8.011l-1.366,2.2c13.735-.135,27.488.178,41.226.011.424-.005.786-.261,1.21-.266,4.6-.063,9.2.061,13.8.016,1.057-.219.389-.914.352-1.595-.247-4.552.206-9.334.01-13.908m82.678,30.255a6.553,6.553,0,0,1-1.971-.614,61.59,61.59,0,0,1-14.888-9.96c-1.359-1.217-3.383-4.031-5.153-4.2a70.292,70.292,0,0,0-7.4,0c-.427.012-.78.251-1.21.266-.765.027-4.859-.17-5.054-.009a14.373,14.373,0,0,0,.944,1.392,124.531,124.531,0,0,0,7.538,12.389c.339.464.412,1.167,1.024,1.435,2.53.01,5.075.1,7.605.043,5.688-.122,11.481-.449,17.225-.246Zm-27.559.737-1.27-2.3c-2.153-2.745-3.624-5.9-5.414-8.855-.653-1.079-1.582-2.611-2.3-3.6a1.2,1.2,0,0,0-.518-.465c-7.945,0-15.9-.115-23.846-.043-.424,0-.786.262-1.21.266-6.044.059-13.081-.507-18.968-.021a7.784,7.784,0,0,0-1.083.272l.231,15.236ZM551.634,49.225c-8.161.054-16.331-.068-24.494-.01-.424,0-.786.263-1.211.266-10.733.072-21.47-.111-32.2.032-1.066.234-1.708,1.79-2.376,2.544-2.31,2.607-4.97,5.34-7.382,7.872-1.538,1.614-3.251,3.076-4.679,4.791l72.344-.245Zm-59.548.246H477.937c-.058,0-1,.31-1.109.367-.612.313-2.1,2.22-2.824,2.834-2.92,2.467-7.234,5.315-10.469,7.491-2.18,1.466-5.134,2.9-7.128,4.436-.118.091-.332.3-.247.368a23.779,23.779,0,0,0,2.841.01c3.006-.168,5.624-.055,8.592,0,2.845.053,6.622.251,9.37,0a2.04,2.04,0,0,0,1.225-.5c2.292-1.709,4.46-4.916,6.766-6.765,1.039-1.611,2.676-2.75,3.937-4.182,1.105-1.255,2.06-2.809,3.2-4.062m60.04,15.5V80.218l74.8-.861-3.617-1.3c-5.97-2.518-10.11-6.533-14.35-11.237-.68-.753-1.263-2.183-2.336-2.338a53.683,53.683,0,0,0-6.9-.013c-8.944.2-18.1.431-27.048.512-6.85.063-13.708-.068-20.556-.01m-.492,0H478.921c-.366,0-4.684,4.285-5.41,4.923-3.662,3.223-7.476,6.293-11.081,9.586a8.408,8.408,0,0,0-1.35,1.478l79.726-.491V70.871c.607-.164.6.278.492.862a1.515,1.515,0,0,1-.247.491v7.871c0,.7,1.48.132,1.835.112,2.863-.154,5.869.136,8.746.011Zm81.448,98.88-1.1-83.641-.5-.241c-8.289.088-16.582-.09-24.87,0-13.564.141-27.257.57-40.827.758-4.553.063-9.117-.068-13.668-.011l.984,83.876ZM551.634,80.709l-91.522.753.723,84.107,91.784-.984Zm1.476,84.368v97.4l-.246-.86.01-84.131c-.681-3.759.04-7.755-.248-11.559-.021-.286.031-.543-.243-.741l-91.549.872c.057,5.7-.069,11.405-.009,17.105.3,28.148.734,56.429,1,84.593.062,6.519-.069,13.046-.009,19.563,3.067.493,6.147.967,9.213,1.491,7.63,1.3,15.249,2.283,22.905,2.93,12.412,1.05,24.139,0,36.4-1.72,6.732-.944,13.439-2.667,20.174-3.2.515-.041,2.594.216,2.594-.359V276.5a.86.86,0,0,1,.246,0v10.331c.421.11.765-.211,1.114-.24,4.043-.338,8.058-1.056,12.059-1.475a273.238,273.238,0,0,1,56.826-.246c3.171.342,6.4,1.007,9.6,1.231a3.664,3.664,0,0,0,.623-.009c.1-.1-.132-1.679.144-2.091-.878-36.988.174-74.175-.646-111.167-.061-2.744.072-5.5,0-8.242l-1.336-.264c-22.013-.156-44.005.441-65.946.758-4.225.061-8.46-.067-12.683-.01" transform="translate(-82.877 0)" fill="#161615"/>
      <path id="Trazado_893755" data-name="Trazado 893755" d="M690.846,22.517c-.4-.1-.283-.109-.492-.246.1.02.222-.025.343.027s.112.185.148.219" transform="translate(-148.023 -4.775)" fill="#161615"/>
      <path id="Trazado_893756" data-name="Trazado 893756" d="M483.976,23.523c-2.345,1.741-5.407,2.074-8.127,2.823-7.936,2.184-15.659,5.651-23.862,6.77,2.771-1.22,6.525-1.943,9.462-2.717,6.828-1.8,13.514-4.234,20.244-6.329.769-.239,1.5-.383,2.284-.546" transform="translate(-96.913 -5.044)" fill="#161615"/>
      <path id="Trazado_893757" data-name="Trazado 893757" d="M517.944,26.028c-.3.288-.322.165-.492.246.109-.053.062-.167.492-.246" transform="translate(-110.95 -5.581)" fill="#161615"/>
      <path id="Trazado_893758" data-name="Trazado 893758" d="M517.318,26.341c-.152.074-.346.168-.492.246.135-.062.313-.161.492-.246" transform="translate(-110.816 -5.648)" fill="#161615"/>
      <path id="Trazado_893759" data-name="Trazado 893759" d="M516.692,26.654c-.127.058-.294.155-.493.246.212-.123.339-.165.493-.246" transform="translate(-110.681 -5.715)" fill="#161615"/>
      <path id="Trazado_893760" data-name="Trazado 893760" d="M516.065,26.967c-.2.118-.392.187-.492.246.124-.058.284-.15.492-.246" transform="translate(-110.547 -5.782)" fill="#161615"/>
      <path id="Trazado_893761" data-name="Trazado 893761" d="M326.089,78.629c.05.05-.032,1.027.007,1.346.926,7.478,2.061,13.741,5.937,20.383,4.943,8.468,17.333,16.628,27.14,17.391.878.068,1.844-.08,2.727-.02.666.045,1.332.433,2.083.255l1.453,178.182a.61.61,0,0,1-.585.4l-47.736-.015c-11.077-2.033-22.027-4.706-33.041-7.065-6.018-1.288-12.123-2.243-18.025-4-.234.275.419,3.366.552,4,.964,4.556,2.44,9.023,3.387,13.587l-.494.37-3.979-17.3c-.078-.53-2.313-1.009-2.42-.9.251,3.7,1.617,7.169,2.4,10.759.405,1.858.6,3.753,1.037,5.605l.131,2.083c-.508-.316-.295-.713-.365-1.112-.9-5.11-2.2-9.8-3.389-14.814-.141-.6-.3-2.545-.7-2.783-.625-.367-1.649-.365-2.31-.723a2.548,2.548,0,0,0,.11,1c1.327,5.7,2.988,11.337,4.051,17.1l.145,1.823a6.7,6.7,0,0,1-.8-2.4c-.433-1.907-.673-3.875-1.105-5.783-.888-3.919-2.042-7.733-3.176-11.583-.057-.446-2.324-.737-2.423-.652l5.291,20.66a11.233,11.233,0,0,1-1.3-2.882c-1.872-5.381-2.169-11.583-4.044-16.864-.073-.205-.413-1.1-.459-1.141a9.357,9.357,0,0,1-1.7-.266c.175,1.332.288,2.677.552,4,1.084,5.416,2.942,10.883,4.114,16.3l-.236.852a28.377,28.377,0,0,0-1.177-3.867c-.269-1.049-.346-2.267-.607-3.329-1.147-4.662-2.478-9.285-3.167-14.052-.169-.621-1.084-.321-1.563-.406-5.076-.895-10.054-2.269-15.079-3.375-1.241-.273-3.762-.419-4.739-.919-.68-.348-.247-.712-.234-1.22.087-3.669.9-7.806,1.228-11.565,1.321-15.2,3.209-30.321,4.66-45.519.213-2.228.968-6.593.736-8.593-.17-1.46-.716-3.389-.968-4.936-2.219-13.689-5.65-27.116-9.174-40.516-3.123-11.875-6.136-23.8-9.35-35.665-4.341-16.03-8.561-32.105-11.244-48.531a13.768,13.768,0,0,1-.26-2.57Zm-12.058.738c-.664.148-1.233-.214-1.835-.256-8.89-.633-18.427.215-27.314.266-15.577.089-31.225.143-46.752.246-9.52.063-19.043-.059-28.565-.021l-1.1.257c.96,4.68,1.581,9.436,2.475,14.13.388,2.04.824,4.136,1.224,6.156.837,4.231,2.09,7.989,3.138,12.114q6.976,27.479,14.264,54.859c2.657,10.062,5.344,20.279,7.389,30.492.7,3.471.952,7.663,1.834,10.957a2.125,2.125,0,0,0,.559,1.163l.852-5.051c.214-4.388.768-8.7,1.231-13.036a38.736,38.736,0,0,1,.555-5.353c.309-1.274,1.478-.8,2.52-.919.3-.035.6-.205.982-.249.311-.035,1.3.08,1.364.012a32.589,32.589,0,0,0,.01-4.069c-.293-7.267-1.368-14.473-2.217-21.643-.685-5.777-1.682-11.482-2.723-17.2-2.69-14.782-6.135-29.371-9.329-44.05-.614-2.823-1.931-6.185-2.219-8.85-.118-1.088-.049-1.207,1.106-1.337.6-.068,1.233.028,1.837-.007l-2.46.494c.139,2.25,1.172,4.345,1.662,6.576,3.226,14.7,6.387,29.428,9.172,44.206.98,5.2,2.043,9.986,2.706,15.251,1.02,8.083,2.6,16.778,2.955,24.84.036.811-.2,5.112-.01,5.3a17.011,17.011,0,0,0,2.575-.01c2.036-.2,4.3-1.251,6.37-1.5.693-.269.317-1.379.414-2.046.193-1.324.87-2.806.986-4.18.371-4.43-.08-9.366-.266-13.774a58.281,58.281,0,0,0-.49-6.89c-1.172-7.836-1.9-15.76-3.2-23.612-.953-5.75-1.947-12.222-3.308-17.847-1.306-5.395-2.187-10.865-3.387-16.291-.143-.644-1.338-4.442-1.171-4.611a18.451,18.451,0,0,1,1.859-.478c14.98-2.944,30.019-5.5,45-8.39,5.282-1.02,11.47-1.754,16.379-4.043.61-.286.772-.846.894-.869a22.227,22.227,0,0,1,3.541-.355c.383-.007.559.43.485-.377M310.339,83.3a90.188,90.188,0,0,1-9.11,2.822c-14.114,4.3-28.316,8.309-42.5,12.377a4.593,4.593,0,0,1-.559.051,17.293,17.293,0,0,0,.555,2.52c1.035,4.036,2.682,8.138,3.568,12.176,3.619,16.493,7.153,34.824,4.975,51.585-.7,5.415-2.248,9-3.976,13.982-.083.238-.428.724-.078.906,4.184-2.982,6.5-7.742,8.19-12.474a84.035,84.035,0,0,0,4.247-28.489c-.172-3.433-1.032-6.9-1.494-10.312a119.825,119.825,0,0,0-4.785-20.306c-.723-2.218-2.246-4.119-2.836-6.389,1.434-.383,2.72-1.189,4.115-1.669,5.576-1.914,11.061-4.15,16.553-6.329,6.4-2.538,12.8-5.1,19.195-7.623,1.993-.787,8.443-2.7,9.606-3.926a15.572,15.572,0,0,0,1.365-1.851,1.738,1.738,0,0,0-.156-.974,14.142,14.142,0,0,0-2.94-.013c-.468.448.427.447.5.641l.118.833c-.841-.822-1.662-.4-2.637-.185-.124.026-.165.181-.193.187-5.2,1.174-9.975,2.878-15.393,3.922-15.068,2.9-30.129,5.732-45.249,8.39-1.6.282-3.205.69-4.807.976-.434.35,1.521,6.916,1.709,8,1.155,6.605,2.725,13.072,3.932,19.683,1.507,8.261,2.807,16.583,3.943,24.837.551,4.011,1.188,8.012,1.492,12.037a185.3,185.3,0,0,1,0,21.415l-.132,2.574c1.53-.823,4.5-1.423,5.177-3.188a68.606,68.606,0,0,0,4.291-16.373c1.974-15.711-1.6-31.273-4.477-46.672L257.69,98.449c.123-.288.352-.3.593-.4,3.475-1.388,7.663-1.94,11.279-2.992,12.256-3.562,24.506-7.35,36.847-10.641a35.311,35.311,0,0,1,3.93-1.112m5.906,102.568H285.733c-.057-.429.562-.24.861-.246,13.274-.267,26.592.075,39.873.01.423,0,.786-.264,1.21-.266,12.1-.062,24.208.068,36.306.011l-.493-66.658a39.028,39.028,0,0,1-14.2-2.9c-14.4-6.291-21.864-17.758-23.689-33.14a24.021,24.021,0,0,0-.255-3.067c-2.259,1.136-4.78,1.641-7.137,2.581-15.219,6.058-30.4,12.38-45.774,17.951-.6.412-4.585,1.907-4.667,2.227-.059.229,1.215,2.464,1.422,3,4.77,12.346,7.689,28.647,6.954,41.771a73.313,73.313,0,0,1-6.605,26.849c-1.552,3.3-5.187,5.516-7.681,8.064-.122.481-3.144,3.9-2.949,4.061a6.308,6.308,0,0,0,2.328-.255c7.464.13,14.94-.139,22.4.01.3.006.918-.182.86.245-6.347.16-12.734-.208-19.08-.009-.427.013-.779.248-1.211.266-2.108.089-5.212-.534-6.787,1.087-2.408,2.479-3.088,6.282-4.7,9.317a50.187,50.187,0,0,1-5.589,7.7,36.387,36.387,0,0,0,1.139,5.687c.958,4.732,2.132,9.325,3.2,14.02,4.02,17.688,7.938,35.385,12.178,53.008.622,2.584,1.5,5.085,2.193,7.647l.359.379c5.644.849,11.176,2.228,16.765,3.412,6.928,1.467,13.883,2.812,20.8,4.3,1.623.348,12.5,3.142,12.974,2.651.177-.181-.039-4.279-.011-5.053.541-15.127-.129-30.349-.246-45.484-.106-13.77-.1-27.6-.246-41.323-.063-5.946.068-11.9.01-17.843m-67.915.245h7.628c.084,0,.154-1.451.738-1.475-.188.439.005,1.012-.021,1.345-.039.468-.493,1.15-.1,1.606a20.615,20.615,0,0,0,3.923-4.687c.105-.175.414-.559.261-.722-.973.691-2.76.84-3.664,1.461-.237.163-.113.4-.173.487-.029.045-.335-.194-.548-.176-1.681.145-4.262,1.471-6.142,1.478Zm115.651-.245H317.106a.785.785,0,0,0-.376.608c.066,4.185-.059,8.375,0,12.561.231,17.134.442,34.5.513,51.633.062,15.046-.069,30.1-.009,45.143l1.588.258c9.181.188,18.435-.173,27.559-.266,6.113-.063,12.234.068,18.343.011Zm-117.127.738c-.143-.135-3.362.1-3.937,0,.049,1.979.964,3.867,1.422,5.834.172.738.445,3.6.793,4,.086.1,2.081-1.026,1.973-1.593-.18-1.251.322-7.7-.251-8.245m9.35,0c-.307-.3-7.507.229-8.612,0v8.363c.347.066.541-.134.816-.291.438-.249.98-.557,1.39-.823a45.389,45.389,0,0,0,5.051-3.806c.309-.353,1.592-3.209,1.354-3.442m-14.518,22.382a1.944,1.944,0,0,1,.613-.741c.482-.4,2.081-1.354,2.111-1.842a20.33,20.33,0,0,0-1.054-3.389c-.41-1.209-.888-2.405-1.3-3.622a6.244,6.244,0,0,0-.361-.616c0-.379,3.259-1.709,3.153-2.409a31.623,31.623,0,0,0-.819-3.13c-.324-1.134-.77-2.383-1.175-3.5-.1-.262-.086-.734-.43-.676-.135,1.015-.162,2.051-.255,3.066-.573,6.241-1.381,12.476-1.953,18.709a17.255,17.255,0,0,0,1.1,8.972,58.307,58.307,0,0,1,2.034,6.577c2.821,12.1,5.586,24.226,8.481,36.288,1.573,6.559,3.3,13.082,4.659,19.694.088.551,2.564,1,2.668.9a20.335,20.335,0,0,0-.552-2.768c-4.207-18.01-8.766-35.965-12.921-53.988-.506-2.193-1.239-8.411-2.262-10-.153-.238-.387-.1-.494-.165-.061-.037.049-.793,0-1.343-.19-1.951-.437-3.925-.731-5.876-.034-.222-.346-.15-.507-.142m12.8-17.955c-.148-.16-1.258.708-1.464.874-1.384,1.112-2.757,2.125-4.208,3.171-.262.189-1.146.6-1.185.661a13.371,13.371,0,0,0-.269,1.33c-.143,1.5-.09,3.158-.244,4.675a5.691,5.691,0,0,0-.255,1.834,19.8,19.8,0,0,0,4.389-5.328c.535-.873,3.684-6.731,3.237-7.217m-7.627,8.978c.1-1.236-.069-2.566,0-3.813-.522.284-1.742.68-1.729,1.346l1.237,4.311.291-1.552c.015-.137.195-.224.2-.291m-2.215-2.584a10.714,10.714,0,0,0-2.459,1.6c0,.057.617.57.618.857.353.639,1.884,6.168,2.211,6.151a4.956,4.956,0,0,0,1.32-1.641c.17-.79-.654-2.571-.888-3.461-.152-.574-.672-3.347-.8-3.505m13.534,69.118c-1.456-3.213-2.505-9.7-3.384-13.466-3.04-13.015-5.7-26.184-9.11-39.1-.187-.709-.068-1.94-.792-2.282-.113,1.028-.909,2.35-.995,3.309-.126,1.423.941,5.666,1.3,7.33,3.916,18.137,8.608,36.192,12.921,54.234.515,2.156.84,4.38,1.327,6.545.2.6.821.314,1.275.447.311.09,1.524.973,1.4.078-.47-1.51-.648-3.08-1.051-4.608a76.512,76.512,0,0,1-2.152-9.041,13.187,13.187,0,0,1,.8,2.767,108.533,108.533,0,0,1,2.9,11.486l2.446.505c-.4-2.629-1.295-5.2-1.907-7.808-2.4-10.181-4.761-20.31-7.136-30.5-1.479-6.344-2.827-12.72-4.3-19.065-1.589-6.831-3.1-14.1-5.062-20.767a6.9,6.9,0,0,1-.045-.815c-.213-.229-1.118.625-1.2.893a21.456,21.456,0,0,0-.024,3.894c.265,2.658,1.757,6.612,2.391,9.416,2.918,12.909,5.707,25.855,8.733,38.742a51.087,51.087,0,0,1,1.662,7.809m-15.721-58.023c-.3.284.335,2.017.233,2.543.258.444.413,3.1.848,3.087.339-.008,1.023-2.843,1.352-3.32l-.245-3.811c-.6.417-1.168.888-1.739,1.347-.138.112-.38.093-.448.154m-3.1,1.45a.123.123,0,0,0,0,.246.123.123,0,0,0,0-.246M256.2,282.783c-1-4.763-2.243-9.474-3.384-14.2-2.617-10.845-5.155-21.74-7.749-32.592-1.487-6.224-2.811-11.979-4.838-18.039-.108-.323-.02-.753-.514-.839a21.685,21.685,0,0,1-.684,2.637c-.726,3.437-.712,7.048-1.047,10.513-1.118,11.571-2.526,23.054-3.691,34.682-.36,3.588-.727,7.213-.987,10.821-.045.626-.177,2.079.416,2.31l19.772,4.218a6.668,6.668,0,0,0-.436-1.408c-2.9-11.967-5.465-24.048-8.236-36.042-1.449-6.273-3.457-12.6-4.115-19.008a11.3,11.3,0,0,0-.264-3.179l.255-2.1a86.2,86.2,0,0,0,1.286,10.891c.537,2.749,1.479,5.5,2.1,8.232q3.831,16.881,7.88,33.691a76.4,76.4,0,0,0,1.831,7.762c.5,1.4.925,1.523,2.406,1.653" transform="translate(-44.587 -16.859)" fill="#161615"/>
      <path id="Trazado_893762" data-name="Trazado 893762" d="M272.755,321.887c-.352-.628-.148-.673-.247-1.23.045.291.175.759.247,1.23" transform="translate(-58.43 -68.754)" fill="#161615"/>
      <path id="Trazado_893763" data-name="Trazado 893763" d="M341.35,82.566c-.405-.27-.174-.39-.246-.492.011.03.174-.063.246.492" transform="translate(-73.138 -17.598)" fill="#161615"/>
      <path id="Trazado_893764" data-name="Trazado 893764" d="M272.441,320.321c-.061-.339-.17-.749-.246-1.23.086.387.167.719.246,1.23" transform="translate(-58.363 -68.418)" fill="#161615"/>
      <path id="Trazado_893765" data-name="Trazado 893765" d="M340.478,81.44c.759-.12.378.19.492.492-.069-.1-.53-.19-.492-.492" transform="translate(-73.003 -17.456)" fill="#161615"/>
      <path id="Trazado_893766" data-name="Trazado 893766" d="M272.128,318.824a4.191,4.191,0,0,1-.246-.984,3.014,3.014,0,0,1,.246.984" transform="translate(-58.296 -68.15)" fill="#161615"/>
      <path id="Trazado_893767" data-name="Trazado 893767" d="M340.746,82.5c.891.594.619.062.858-.239a2.665,2.665,0,0,1,.864-.5c.262.269-.768,1.1-.952,1.384a3.83,3.83,0,0,0-.28.831,6.2,6.2,0,0,0-1.105-.264,14.794,14.794,0,0,0-1.845.262,5.386,5.386,0,0,1,.918-.436c.865-.239,1.693.12,1.543-1.04" transform="translate(-72.534 -17.53)" fill="#161615"/>
      <path id="Trazado_893768" data-name="Trazado 893768" d="M155.514,77.36c-.514,2.413-1.053,4.826-1.469,7.263-5.331,31.227-12.664,62.089-18.722,93.2-1.585,8.144-3.227,15.9-4.161,24.127-.385,3.388-1.011,6.7-1.477,10.084-1.786,12.975-.7,26.115-1.969,39.109-1.234,12.643-3.15,25.275-4.182,37.88l-.255,3.8-.737-.123a3.082,3.082,0,0,0,.484-1.238c1.063-8.663,1.474-17.387,2.475-26.058.808-6.992,2.166-14.1,2.464-21.15.156-3.712-.137-7.487-.011-11.2l-.478,1.365c-2.68,12.986-3.019,26.067-4.678,39.106-.772,6.073-2.083,12.066-2.225,18.193-.012.506.176.71-.492.614.456-1.241.142-2.545.236-3.823.7-9.534,2.684-19.256,3.693-28.776.711-6.707.826-13.47,1.99-20.148.225-1.288,1.662-6.481,1.106-7.282a18.621,18.621,0,0,0-1.739-1.214c-.466-.172-.313.154-.369.354a47.5,47.5,0,0,0-.987,7.383c-.932,7.995-1.972,16.044-2.953,24.1a7.88,7.88,0,0,0-.247,2.458l-.483,2.591a11.141,11.141,0,0,1,.255-3.065c.049-.642-.078-1.351-.02-1.988.412-4.579,1.4-9.225,1.971-13.772.656-5.261,1.046-10.481,1.737-15.727a8.527,8.527,0,0,0,.372-2.594l-2.225-1.963-.361,1.361c-.846,6.749-1.666,13.414-2.233,20.151-.348,4.143-.954,8.184-1.474,12.3-1.2,9.5-2.077,19.149-2.954,28.779-.044.482.233.724-.483.621.013-.393.229-.681.258-1.1.654-9.709,1.779-19.7,2.933-29.29.869-7.224,1.769-14.426,2.479-21.627.368-3.745.951-7.563,1.231-11.316.123-1.634-1.182-2.138-1.488-3.575-.843.355-.406,1.577-.482,2.347-.248,2.543-.888,5.084-1.232,7.623-1.053,7.784-1.448,15.551-2.23,23.351-1.008,10.047-2.585,20.161-3.2,30.25-.044.725.228,3.164-.225,3.465l-111.48.358L0,90.887c1.1-.052,2.229.069,3.332.011,8.6-.457,18.65-.824,26.367-5.128a24.381,24.381,0,0,0,7.813-7.686.718.718,0,0,1,.5-.237,26.5,26.5,0,0,1,3.706-.006c2.688.112,5.378.327,8.12.266,16.1-.353,32.362-.6,48.455-.758,19.069-.181,38.153.157,57.22.011M125.248,226.539V222.6c0-.221-1.922-1.7-2.215-1.354-.124.147-.251,2.593-.5,3.065.191,1.1-.244,2.933.043,3.912.252.86,5.165,4.1,5.38,3.845.086-.1-.04-2.133-.009-2.592.412-6.2.677-12.312,1.479-18.445,1.077-8.238,2.209-16.7,3.712-24.822,6.59-35.6,15.732-70.747,21.156-106.51a10.944,10.944,0,0,1,.484-1.852c-.606-.03-1.229.048-1.837-.009-11.885-1.112-24.89.2-36.928.018-12.763-.188-25.586.129-38.366.246-8.705.08-17.423-.163-26.083.246-1.195.057-2.533-.132-3.7-.006-.192.021-.866.234-.866.366,0,.6.162.317.617.365,5.981.633,11.986.725,17.954,1.24,10.986.95,22.055,1.505,32.987,2.691,8.982.975,18.024,1.676,27.05,2.231.49.031,2.735-.105,2.84-.009.134.123-.163.7-.362.7-.08,0-.28-.2-.5-.2-2.482-.046-4.907-.289-7.371-.507-6.376-.565-12.843-.816-19.209-1.46-8.33-.843-16.479-1.817-24.835-2.232C67.714,81.11,59.814,80.1,51.3,80.209a12.262,12.262,0,0,0-1.973-.148c-.555.08-.913.764-1.346,1.112l1.106-.614c.229.3-.8.835-.616.982.332.269,1.189-.042,1.232,0,.086.086-.412.46-.123.49.374-.031.679.264,1.007.04l.1.452.985-.49c.066.221-.292.693-.247.737.067.064,1.02.326,1.113,0-.212.772.108.357.789.682.466.223.741.654,1.295.92,1.959.94,5.436,1.61,7.7,2.386,13.044,4.472,26.169,9.049,39.125,13.774.689.251,5.075,1.912,5.233,2.147.269.4-.066,1.741-.189,2.3-.723,3.241-2.385,6.164-3.274,9.271a170.684,170.684,0,0,0-5.276,23.258c-.273,1.959-.289,3.957-.509,5.886-.108.951-.629,2.194-.721,3.215a46.364,46.364,0,0,0,.23,7.625c.879,11.2,2.332,27.756,10.339,36.4a5.586,5.586,0,0,0,1.357,1.1c.2-.266-.093-.963-.186-1.29a72.3,72.3,0,0,1-3.128-15.32c-1.319-20.879,2.242-40.756,6.575-61.052q1.3-6.1,2.284-12.229a9.858,9.858,0,0,0,.469-3.068c-4.406-1.608-9.061-2.328-13.58-3.521C87.18,91.585,73.346,87.691,59.371,84.3c-.639-.155-1.4-.018-2.024-.436L55.12,82.525c.864.03,1.906,1.068,2.634,1.2.346.063.412-.168.923.019a73.486,73.486,0,0,0,7.584,1.786c11.894,2.97,23.7,6.364,35.55,9.477,2.97.78,6.031,1.269,8.98,2.092.574.16,4.193,1.266,4.356,1.427a2.577,2.577,0,0,1,0,.838c-.246,2.02-.841,4.365-1.213,6.413-2.586,14.239-6.376,28.84-7.644,43.275a153.651,153.651,0,0,0-.246,28.547,55.1,55.1,0,0,0,2.093,10.453c.394,1.3,1.446,4.984,2.5,5.619.727.439,1.845.482,2.43,1.261.234-.02.119-.4.123-.614.142-7.386-.229-14.581.236-21.9.757-11.9,2.632-23.839,4.186-35.663.645-4.909,1.415-9.861,2.23-14.742,1.535-9.184,3.9-18.33,4.674-27.55.022-.258.406-.952.238-1.112-.141-.134-3.254-.635-3.82-.732-9.235-1.592-18.687-3.051-28.03-4.695C81.449,85.908,70.012,84.333,58.678,81.8l-1.59-.131c.371-.522.52-.327.985-.251,4.9.8,9.74,2.039,14.648,2.824,3.254.521,6.573.731,9.825,1.247,11.752,1.865,23.447,4.633,35.189,6.149l7.751,1.475c-.218,1.775-.687,3.523-.969,5.289-1.152,7.2-2.494,14.392-3.713,21.624-1.49,8.846-3.077,17.7-4.161,26.587-.419,3.435-.8,6.846-1.247,10.315a188.424,188.424,0,0,0-1.7,30.251c.093,2.694-.079,5.411-.022,8.106l4.807,2.608c.471.04.357.009.372-.371.021-.489-.038-.983.009-1.471.425-4.4.705-8.863,1.229-13.283,1.116-9.4,3.18-18.716,4.66-28.056,1.132-7.146,2.827-14.262,4.182-21.4,1.955-10.287,4.293-20.689,6.168-30.976.929-5.1,1.763-10.21,2.95-15.255.042-.476.006-.353-.372-.37a18.672,18.672,0,0,1-3.209-.485l-4.659-.262-1.115-.484c.745-.183,1.427.219,2.081.255.808.046,1.685-.085,2.481-.02.383.031.686.222.982.247,1.19.1,2.512.092,3.691.247.95.124.413.673.368,1.123-.436,4.417-1.654,9.1-2.477,13.511-1.552,8.311-3.536,16.521-4.905,24.86-.859,5.237-1.933,10.517-2.973,15.72-1.054,5.27-2.618,10.74-3.424,16.009-.265,1.729-.244,3.666-.508,5.4-.547,3.575-1.621,7.224-2.2,10.838-1.24,7.735-1.936,15.363-2.457,23.124-.023.338-.394,1.206-.256,1.34.046.045.962.253,1.232.368.294.126,1.848.829,1.924.9.914.909-.477,5.555-.212,6.961l-.435,2.231c.017.275,2.7,1.647,2.871,2.237.314,1.09-.3,2.785-.452,3.911-.116.841-.13,1.857-.262,2.689-.1.637-.691,2.321-.667,2.724.028.468,3.492,2.363,3.137,2.572-.086.05-.465-.12-.507.139-.1.628.082,1.489.006,2.19a16.9,16.9,0,0,0-.485,3.083Zm-13.041-28.655c-1.214-.672-1.453-3.007-2.2-3.823-.255-.277-.627-.367-.875-.6-5.458-5.147-8.384-11.38-10.147-18.635a101.355,101.355,0,0,1-2.037-36.6,174.8,174.8,0,0,1,6.276-26.686c.854-2.774,2.637-5.373,2.83-8.349L38.5,79.074a1.024,1.024,0,0,0-.449.032c-.46.141-1.893,2.284-2.366,2.807-7.424,8.214-20.2,9.535-30.628,9.968-1.433.06-2.885-.064-4.317-.011L.985,200.589a8.544,8.544,0,0,1,2.573.256c10.164.6,20.856-.2,31-.266,17.99-.116,35.959-.348,53.889-.492,8.245-.066,16.5.071,24.74.01.207-.839-.579-1.229-.867-1.727a1.568,1.568,0,0,1-.118-.487l1.229,1.229c-.092-.985.317-2.61-.491-3.32-.229-.2-1.535-.8-1.722-.615-.17.17.815,2.309.984,2.706M46.384,80.311a.123.123,0,0,0,0,.246.123.123,0,0,0,0-.246m.861.247c-.192-.158-.689.082-.492.245s.689-.082.492-.245m68.16,119.54c.038-.109-.106-.22.13-.253.494-.069,2.706.114,2.813,0a7.82,7.82,0,0,0,.212-.858c-.014-.4-2.171-1.094-2.589-1.3a21.261,21.261,0,0,0-2.288-1.279c-.195.233.207,1.05.238,1.361.048.488-.042.98.011,1.465.125,1.135.54.853,1.473.864-.022.064.047.195-.006.232-.452.316-1.734-.683-.355,1.482a45.925,45.925,0,0,0,2.945,3.7c.223-.2.114-.713.169-1.061.022-.143.2-.234.2-.291v-3.689c0-.552-2.4-.363-2.953-.369m3.691.123v6.395a8.191,8.191,0,0,0,1.722,1.353,7.141,7.141,0,0,0,.244-.863c.17-1.431.39-3.029.487-4.433a13.5,13.5,0,0,0,.018-2.187c-.023-.174-2.272-1.006-2.471-.264M112.2,291.6c.123-.766.161-1.561.256-2.328.81-6.52,1.3-13.15,1.953-19.693,1.2-12.035,2.3-24.159,3.692-36.157.493-4.237,1.443-8.567,1.227-12.773a18.313,18.313,0,0,0-.032-2.673c-.127-.58-.654-.867-.908-1.306a41.708,41.708,0,0,1-3.917-10.843c-.189-.94-.543-5.032-1.023-5.373l-112.11.865c-.185.266-.1.575-.115.869-.562,12.168.168,24.747.26,36.889.068,9.011.18,18.1.246,27.056.062,8.45-.062,16.9-.017,25.352.029.493.394.669.86.617,29.972-.063,59.884.036,89.832-.244.424,0,.786-.262,1.211-.266,6.193-.063,12.395.069,18.585.009m5.908-76.986v-8.24c0-.412-1.39-1.552-1.727-1.964-.18-.221-1.756-2.6-1.964-2.34-.24.3,1.094,6.015,1.346,6.894a41.405,41.405,0,0,0,1.726,4.915c.13.29.258.675.618.735m1.721,2.46c.148-2.625,1.118-5.629.744-8.245-.063-.439-1.475-1.869-1.727-1.594a19.725,19.725,0,0,0-.011,2.592c.026.434.25.784.266,1.21.062,1.581-.269,3.819.17,5.241.1.323.15.726.557.795m2.953,2.952c.078-.091.431-2,.485-2.345.218-1.412.271-2.948.514-4.406.086-.515.478-1.341.485-1.742.013-.735-2.1-1.876-2.713-2.329-.236,2.754-.686,5.492-.992,8.231-.057.507-.487.685,0,1.25.2.24,2.039,1.56,2.225,1.342m-.984,6.886.966-5.744a8.8,8.8,0,0,0-1.224-1.254c-1.507-1.168-1.053-.7-1.226.472a9.638,9.638,0,0,0-.249.981c-.123,1.826.317,4.281,1.732,5.545" transform="translate(0 -16.573)" fill="#161615"/>
      <path id="Trazado_893769" data-name="Trazado 893769" d="M473.719,9.738c.459.382-.639.706-.864.735-1.089.138-2.353.131-3.434.257-15.432,1.786-30.855,4.047-46.276,5.888-6.919.827-13.773,1.982-20.655,2.72-5.076.544-10.191.492-15.271.969-.608.057-1.23-.021-1.837.009a258.4,258.4,0,0,1,19.646,28.693c5.087,8.721,10.918,19.4,14.5,28.792,2.27,5.945,4.428,11.986,6.644,17.956,9.766,26.3,15.782,53.883,21.2,81.376l.629,4.536a2.486,2.486,0,0,1-.554-1.413c-.559-2.4-1.069-4.907-1.525-7.331-4.825-25.671-10.8-51.362-19.753-75.938-1.185-3.255-2.633-6.444-3.83-9.7-2.063-5.609-3.581-10.742-6.156-16.229a271.336,271.336,0,0,0-17.068-30.9,232.128,232.128,0,0,0-14.477-19.963c.261-.384.454-.343.854-.375,5.658-.452,11.35-.412,16.992-.969,5.744-.568,11.455-1.569,17.209-2.23,10.776-1.238,21.476-2.709,32.236-4.18,5.664-.775,11.309-1.092,16.976-1.969.929-.144,2.023-.617,2.971-.72a12.172,12.172,0,0,1,1.836-.009" transform="translate(-82.474 -2.081)" fill="#161615"/>
      <path id="Trazado_893770" data-name="Trazado 893770" d="M467.085,190.32l-.479-1.119c-.171-.873-.159-1.834-.266-2.687-.032-.258-.2-.5-.231-.753-.061-.565.037-1.139-.016-1.705-.93-9.9-1.149-19.9-2.446-29.778-.485-3.695-1.215-7.369-1.738-11.054-.742-5.224-1.406-10.258-2.466-15.49a305.792,305.792,0,0,0-15.117-51.3A17.474,17.474,0,0,1,443.5,74.8a9.376,9.376,0,0,0-.287-1.8c.311-.035.427.553.537.815,1.846,4.424,3.392,8.975,4.93,13.519,11.034,30.47,16.063,63.031,17.673,95.234a48.2,48.2,0,0,0,.727,7.758" transform="translate(-95.033 -15.651)" fill="#161615"/>
      <path id="Trazado_893771" data-name="Trazado 893771" d="M709.64,186.639l-.484-1.105c.247-1.676.364-3.486.477-5.175,1.166-17.439,3.2-34.805,5.675-52.129l1.468-7.018a9.381,9.381,0,0,1-.257,2.817c-.54,5.009-1.749,10.01-2.441,15.024-.826,5.987-1.187,11.961-1.739,17.94-.768,8.322-2.072,16.508-2.464,24.84-.075,1.6.24,3.266-.236,4.806" transform="translate(-152.054 -25.99)" fill="#161615"/>
      <path id="Trazado_893772" data-name="Trazado 893772" d="M704.981,174.314c-.428.058-.24-.562-.245-.86-.173-8.65-.068-17.425-.01-26.083.092-14.027.266-28.281.494-42.3l.13-2.328c.459.312.344.651.374,1.1a38.058,38.058,0,0,1-.507,4.668c-.775,12.878.814,26.466-.246,39.355Z" transform="translate(-151.086 -22.029)" fill="#161615"/>
      <path id="Trazado_893773" data-name="Trazado 893773" d="M474.2,124.359c-.427.058-.24-.562-.246-.86-.009-.489.029-.98-.008-1.468-.021-.291-.216-.6-.247-.982-.371-4.5-.117-9.016-.226-13.548-.068-2.8-.4-5.784-.512-8.589-.055-1.432.06-2.883.011-4.314l.729,4.312c0,3.512.418,7.069.511,10.558.131,4.955-.119,9.937-.011,14.891" transform="translate(-101.406 -20.283)" fill="#161615"/>
      <path id="Trazado_893774" data-name="Trazado 893774" d="M476.568,206.768c-.428.058-.24-.562-.245-.86-.042-2.132.071-4.275.01-6.406-.013-.427-.252-.782-.267-1.21-.317-9.3-1.31-18.79-.735-28.058a26.075,26.075,0,0,0-.248-3.18c-.065-1.722.077-3.463.02-5.186-.014-.427-.249-.779-.266-1.209-.054-1.35.06-2.72.011-4.069.428-.058.24.562.245.86.018.9-.054,1.819-.009,2.717.021.432.251.782.266,1.209.064,1.887-.075,3.79-.02,5.677.231,8.1.315,16.275.738,24.352.113,2.156.445,4.466.513,6.62.091,2.907-.088,5.837-.011,8.742" transform="translate(-101.809 -33.575)" fill="#161615"/>
      <path id="Trazado_893775" data-name="Trazado 893775" d="M149.959,345.143c-.428.058-.239-.562-.245-.86-.014-.64-.039-1.325.008-1.96.168-2.262.683-4.647.969-6.9.07-3.294,1.123-6.532,1.237-9.832l.246-.86c-.043.773.06,1.576.011,2.347-.027.429-.233.776-.266,1.21-.051.643.074,1.323,0,1.97-.5,4.49-1.313,8.71-1.7,13.3-.046.54-.352,1.024-.257,1.588" transform="translate(-32.093 -69.627)" fill="#161615"/>
      <path id="Trazado_893776" data-name="Trazado 893776" d="M474.786,151.152a.921.921,0,0,1-.246,0v-16.48a.861.861,0,0,1,.246,0Z" transform="translate(-101.749 -28.874)" fill="#161615"/>
      <path id="Trazado_893777" data-name="Trazado 893777" d="M705.008,211.336a.918.918,0,0,1-.246,0v-12.79a.8.8,0,0,1,.246,0Z" transform="translate(-151.112 -42.569)" fill="#161615"/>
      <path id="Trazado_893778" data-name="Trazado 893778" d="M708.993,222.229c-.47-.11-.467-.46-.5-.852-.249-2.926.367-5.831.257-8.741.427-.057.239.562.245.86.016.8.049,1.675.01,2.471-.021.429-.243.778-.266,1.209-.1,1.76.309,3.325.255,5.053" transform="translate(-151.899 -45.592)" fill="#161615"/>
      <path id="Trazado_893779" data-name="Trazado 893779" d="M709.382,210.824c-.428.058-.24-.562-.245-.86-.016-.779.01-1.561,0-2.336.428-.058.239.562.245.86.016.778-.01,1.56,0,2.336" transform="translate(-152.042 -44.518)" fill="#161615"/>
      <path id="Trazado_893780" data-name="Trazado 893780" d="M153.091,323.429c-.428.057-.239-.562-.245-.86-.011-.533.006-1.068,0-1.6.428-.058.239.562.245.86.011.533-.007,1.068,0,1.6" transform="translate(-32.765 -68.82)" fill="#161615"/>
      <path id="Trazado_893781" data-name="Trazado 893781" d="M443.135,72.221c-.163.2-.4-.3-.244-.491s.4.3.244.491" transform="translate(-94.952 -15.37)" fill="#161615"/>
      <path id="Trazado_893782" data-name="Trazado 893782" d="M709.584,206.062a.123.123,0,0,1,0,.246.123.123,0,0,1,0-.246" transform="translate(-152.12 -44.183)" fill="#161615"/>
      <path id="Trazado_893783" data-name="Trazado 893783" d="M573.385,209.921c4.223-.057,8.458.072,12.682.01,21.941-.317,43.933-.914,65.946-.758l1.336.264c.07,2.742-.064,5.5,0,8.242.82,36.992-.232,74.18.646,111.167-.276.412-.046,1.988-.144,2.091a3.658,3.658,0,0,1-.623.009c-3.194-.224-6.425-.889-9.6-1.231a273.24,273.24,0,0,0-56.826.246c-4,.419-8.016,1.137-12.059,1.474-.349.029-.693.35-1.114.24V321.344a.862.862,0,0,0-.246,0v9.962c0,.575-2.079.318-2.594.359-6.735.533-13.441,2.256-20.174,3.2-12.265,1.72-23.991,2.771-36.4,1.72-7.656-.647-15.276-1.625-22.905-2.93-3.065-.524-6.146-1-9.213-1.491-.061-6.516.071-13.044.009-19.563-.271-28.163-.709-56.444-1-84.592-.06-5.7.066-11.408.009-17.105l91.549-.872c.274.2.222.455.243.741.288,3.8-.433,7.8.248,11.559l-.01,84.131.246.86Z" transform="translate(-103.152 -44.844)" fill="#fff"/>
      <path id="Trazado_893784" data-name="Trazado 893784" d="M571.719,102.737l.984,83.875-91.784.985-.724-84.107Z" transform="translate(-102.962 -22.029)" fill="#fff"/>
      <path id="Trazado_893785" data-name="Trazado 893785" d="M678.281,185.665l-79.973.738-.984-83.876c4.55-.057,9.114.074,13.668.011,13.57-.189,27.262-.617,40.826-.758,8.289-.086,16.581.09,24.87,0l.5.241Z" transform="translate(-128.076 -21.818)" fill="#fff"/>
      <path id="Trazado_893786" data-name="Trazado 893786" d="M571.983,82.7V97.95c-2.877.125-5.883-.164-8.746-.01-.355.019-1.835.588-1.835-.112V89.956a1.511,1.511,0,0,0,.248-.491c.1-.584.115-1.025-.493-.862V98.2l-79.725.492a8.355,8.355,0,0,1,1.35-1.479c3.6-3.292,7.419-6.362,11.08-9.585.725-.639,5.043-4.923,5.41-4.923Zm-9.842,5.165c.861-.31.36-1.38.182-2.028a3.752,3.752,0,0,0-1.412-2.4c.114.8-1.92,4.977-1.723,5.165s.936-.25,1.229-.247c.1-.439-.359-.148-.484-.252a5.207,5.207,0,0,1,1.346-2.7c.122-.054,1.222,1.987.862,2.46" transform="translate(-103.226 -17.732)" fill="#fff"/>
      <path id="Trazado_893787" data-name="Trazado 893787" d="M585.124,24.647c-.429-.057-.24.561-.246.86-.015.735.052,1.5.01,2.225-.025.434-.251.783-.266,1.209-.1,2.659.094,5.347.01,8.005l-43.063.122L546,31.654c2.545-2.643,4.923-5.43,7.382-8.117a9.009,9.009,0,0,1,1.39-1.316c.642-.186,1.672.079,2.418-.289l27.447.009.245,1.23.235-1.119c5.988-.35,12.09.082,18.108-.1a53.223,53.223,0,0,1,5.393,0c.912.051,3.148-.249,3.715.222.863,1.408,2.11,2.5,3.023,3.866,1.22,1.83,2.62,4.215,3.691,6.15.812,1.466,1.456,3.038,2.254,4.51l-36.172.247Z" transform="translate(-116.121 -4.692)" fill="#fff"/>
      <path id="Trazado_893788" data-name="Trazado 893788" d="M576.953,62.654V77.9l-72.344.246c1.428-1.716,3.142-3.178,4.679-4.792,2.412-2.531,5.073-5.263,7.382-7.872.668-.753,1.31-2.31,2.376-2.544,10.732-.142,21.469.04,32.2-.032.423,0,.786-.263,1.21-.266,8.163-.058,16.333.064,24.494.01" transform="translate(-108.196 -13.428)" fill="#fff"/>
      <path id="Trazado_893789" data-name="Trazado 893789" d="M597.325,82.532c6.848-.057,13.706.073,20.556.01,8.944-.082,18.1-.309,27.047-.512a53.548,53.548,0,0,1,6.9.013c1.073.154,1.657,1.585,2.336,2.338,4.24,4.7,8.381,8.719,14.35,11.236l3.617,1.3-74.8.861Z" transform="translate(-128.076 -17.564)" fill="#fff"/>
      <path id="Trazado_893790" data-name="Trazado 893790" d="M580.938,42c.2,4.574-.258,9.356-.011,13.908.038.68.706,1.376-.351,1.595-4.6.045-9.2-.079-13.8-.017-.425.006-.786.262-1.211.266-13.737.168-27.491-.146-41.226-.01l1.366-2.2c2.1-2.8,4.683-5.173,6.75-8.011.869-.48,4.673-5.531,5.048-5.531Z" transform="translate(-112.427 -9.005)" fill="#fff"/>
      <path id="Trazado_893791" data-name="Trazado 893791" d="M651.642,77.276l-54.381.493-.232-15.236a7.9,7.9,0,0,1,1.083-.272c5.886-.485,12.924.08,18.968.021.424,0,.786-.262,1.21-.266,7.947-.071,15.9.047,23.846.043a1.2,1.2,0,0,1,.518.466c.722.988,1.651,2.522,2.3,3.6,1.79,2.955,3.261,6.11,5.413,8.855Z" transform="translate(-128.013 -13.292)" fill="#fff"/>
      <path id="Trazado_893792" data-name="Trazado 893792" d="M597.012,41.936l36.761-.219c.4.118,2.011,3.779,2.4,4.484,1.96,3.525,4.114,6.964,5.868,10.615.088.658-.221.157-.852.114-4.715-.325-9.606.215-14.273.266-7.475.082-14.959.075-22.392.246-2.5.058-5.016-.064-7.515-.01Z" transform="translate(-128.009 -8.945)" fill="#fff"/>
      <path id="Trazado_893793" data-name="Trazado 893793" d="M712.023,56.119l-2.819.5c-3.867-.477-7.733-.068-11.565,0-8.84.157-17.7-.1-26.543-.053L670.187,56c-4.558-4.637-8.843-9.446-13.036-14.394,2.663-.057,5.342.071,8.008.009.426-.01.784-.258,1.21-.266,3.675-.071,7.366.038,11.041.053a96.675,96.675,0,0,0,27.719,13.615,41.473,41.473,0,0,0,6.9,1.1" transform="translate(-140.903 -8.861)" fill="#fff"/>
      <path id="Trazado_893794" data-name="Trazado 893794" d="M691.89,76.45l-1.343.5c-5.743-.2-11.537.124-17.225.246-2.531.054-5.075-.033-7.605-.042-.614-.269-.685-.972-1.025-1.436a124.741,124.741,0,0,1-7.538-12.389,14.409,14.409,0,0,1-.944-1.392c.2-.16,4.289.037,5.055.009.43-.015.782-.255,1.21-.266a70.706,70.706,0,0,1,7.4,0c1.771.165,3.8,2.979,5.154,4.2a61.592,61.592,0,0,0,14.888,9.961,6.567,6.567,0,0,0,1.971.613" transform="translate(-140.701 -13.203)" fill="#fff"/>
      <path id="Trazado_893795" data-name="Trazado 893795" d="M588.461,17.12l-29.036.491a49.4,49.4,0,0,1,3.564-3.693c4.5-4.03,12.45-8.937,18.324-10.461a22.812,22.812,0,0,1,5.066-.347c.5-.027.979-.382,1.452-.245.655.189.326,2.368.373,3.073.029.434.248.784.266,1.21.144,3.3-.127,6.666-.009,9.972" transform="translate(-119.949 -0.607)" fill="#fff"/>
      <path id="Trazado_893796" data-name="Trazado 893796" d="M511.087,62.974c-1.137,1.253-2.091,2.808-3.2,4.062-1.262,1.431-2.9,2.57-3.937,4.182-2.306,1.848-4.475,5.056-6.766,6.765a2.036,2.036,0,0,1-1.225.5c-2.749.251-6.526.053-9.37,0-2.968-.055-5.585-.168-8.593,0a23.755,23.755,0,0,1-2.839-.01c-.086-.07.129-.277.247-.368,1.994-1.537,4.948-2.97,7.126-4.436,3.236-2.175,7.549-5.024,10.47-7.491.728-.614,2.211-2.522,2.824-2.834.111-.057,1.051-.367,1.109-.367Z" transform="translate(-101.878 -13.503)" fill="#fff"/>
      <path id="Trazado_893797" data-name="Trazado 893797" d="M623.273,17.121H596.7V2.855c.527.019,1.064-.038,1.592.008A29.806,29.806,0,0,1,609,5.435c6.161,2.69,9.592,5.637,13.783,10.82a3.609,3.609,0,0,1,.486.866" transform="translate(-127.941 -0.61)" fill="#fff"/>
      <path id="Trazado_893798" data-name="Trazado 893798" d="M671.564,36.36c-3.73.065-7.475-.082-11.206-.009-.426.008-.782.255-1.21.266a56.256,56.256,0,0,1-5.926,0,5.35,5.35,0,0,1-1.172-.3l-5.835-5.974c-2.249-2.833-5.187-5.221-7.5-8-.964-1.157-.017-.567.537-.544.3.013.586-.2.931-.2a105.766,105.766,0,0,1,10.6,0,5.709,5.709,0,0,1,2.074.879c2.535,1.609,5.146,4.071,7.649,5.882,3.484,2.521,7.167,4.746,10.555,7.4.193.152.47.35.5.6" transform="translate(-136.861 -4.599)" fill="#fff"/>
      <path id="Trazado_893799" data-name="Trazado 893799" d="M531.476,41.968c.217.2-.24.584-.368.738-2.17,2.585-4.333,5.217-6.518,7.751-.766.888-1.869,1.679-2.58,2.586-.855,1.09-1.584,2.46-2.587,3.563-.372.409-1.332,1.35-1.849,1.35h-13.9l4.3-3.94c4.836-3.838,9.311-8.1,14.03-12.049,1.207.244,9.125-.321,9.473,0" transform="translate(-107.995 -8.977)" fill="#fff"/>
      <path id="Trazado_893800" data-name="Trazado 893800" d="M653.765,41.683c.143.039,1.811,1.78,2.1,2.087,3.483,3.752,6.606,8.04,10.323,11.572.165.157,1.819,1.31,1.485,1.589-.312.262-1.849-.229-2.327-.255-2.406-.135-4.788.184-7.136.266-1.55.055-3.114-.07-4.665,0-2.114-3.462-3.916-7.107-5.842-10.673a33.57,33.57,0,0,1-2.3-4.1.413.413,0,0,1,.251-.493Z" transform="translate(-138.378 -8.937)" fill="#fff"/>
      <path id="Trazado_893801" data-name="Trazado 893801" d="M550.113,22.271c-.852.981-1.608,2.1-2.457,3.079-3.143,3.631-6.39,7.244-9.6,10.814-.507.563-.336,1.04-1.339,1.122-2.292.186-4.838-.16-7.157-.021-.421.025-.775.218-1.211.266-.212.024-.79.089-.87-.133.468-.43.878-.931,1.349-1.357,4.57-4.135,9.536-7.868,14.28-11.8.45-.373,1.779-1.972,2.211-1.972Z" transform="translate(-113.099 -4.775)" fill="#fff"/>
      <path id="Trazado_893802" data-name="Trazado 893802" d="M650.32,36.7h-8a7.516,7.516,0,0,1-.822-1.146c-2.036-3.05-3.752-6.608-5.739-9.76-.749-1.19-1.573-2.36-2.42-3.484-.049-.468-.01-.351.367-.368a11.371,11.371,0,0,1,3.083.118,8.543,8.543,0,0,1,.983.985c3.217,3.548,6.62,7.036,9.835,10.584a19.372,19.372,0,0,1,2.71,3.071" transform="translate(-135.795 -4.696)" fill="#fff"/>
      <path id="Trazado_893803" data-name="Trazado 893803" d="M633.367,18.858c-1.083.012-1.938.636-2.947-.126-.4-.3-.462-.688-.74-.983-1.4-1.488-2.809-2.982-4.182-4.428-.4-.42-.837-.8-1.233-1.226l2.7,1.483c1.966,1.94,4.567,3.277,6.4,5.28" transform="translate(-133.852 -2.593)" fill="#fff"/>
      <path id="Trazado_893804" data-name="Trazado 893804" d="M588.094,2.219c.2.163-.3.4-.492.244s.3-.4.492-.244" transform="translate(-125.981 -0.465)" fill="#fff"/>
      <path id="Trazado_893805" data-name="Trazado 893805" d="M556.771,2.845c.2.163-.3.4-.492.244s.3-.4.492-.244" transform="translate(-119.265 -0.599)" fill="#fff"/>
      <path id="Trazado_893806" data-name="Trazado 893806" d="M326.939,186.14c.057,5.943-.073,11.9-.01,17.843.145,13.723.14,27.552.246,41.323.117,15.134.787,30.357.247,45.484-.028.774.187,4.872.01,5.053-.478.49-11.351-2.3-12.973-2.651-6.918-1.484-13.873-2.83-20.8-4.3-5.589-1.183-11.122-2.563-16.765-3.411l-.359-.379c-.693-2.562-1.57-5.064-2.193-7.648-4.24-17.623-8.158-35.319-12.178-53.008-1.067-4.695-2.24-9.287-3.2-14.02a36.3,36.3,0,0,1-1.138-5.687,50.316,50.316,0,0,0,5.589-7.7c1.617-3.036,2.3-6.838,4.706-9.317,1.574-1.621,4.677-1,6.786-1.087.432-.018.783-.253,1.211-.266,6.346-.2,12.733.17,19.079.009.058-.428-.562-.239-.86-.245-7.462-.148-14.939.119-22.4-.01a6.308,6.308,0,0,1-2.328.255c-.195-.158,2.827-3.581,2.95-4.061,2.493-2.548,6.128-4.762,7.68-8.064a73.3,73.3,0,0,0,6.605-26.85c.736-13.123-2.184-29.424-6.954-41.77-.207-.535-1.481-2.772-1.422-3,.083-.32,4.065-1.815,4.667-2.227,15.374-5.571,30.554-11.893,45.774-17.951,2.357-.938,4.878-1.444,7.138-2.58a24.17,24.17,0,0,1,.255,3.066c1.824,15.383,9.29,26.85,23.688,33.14a39.012,39.012,0,0,0,14.2,2.9l.493,66.658c-12.1.057-24.2-.072-36.306-.01-.424,0-.786.264-1.21.266-13.281.065-26.6-.277-39.873-.01-.3.006-.918-.183-.861.246Z" transform="translate(-55.282 -17.128)" fill="#fff"/>
      <path id="Trazado_893807" data-name="Trazado 893807" d="M393.667,215.142l.738,109.948c-6.109.057-12.23-.073-18.343-.01-9.124.093-18.378.454-27.559.266l-1.588-.258c-.061-15.044.071-30.1.009-45.144-.071-17.134-.282-34.5-.513-51.633-.056-4.186.069-8.376,0-12.561a.783.783,0,0,1,.376-.608Z" transform="translate(-74.273 -46.13)" fill="#fff"/>
      <path id="Trazado_893808" data-name="Trazado 893808" d="M314.173,79.435c.074.807-.1.371-.485.378a22.137,22.137,0,0,0-3.541.354c-.122.023-.284.584-.895.868-4.908,2.289-11.1,3.024-16.378,4.043-14.985,2.893-30.024,5.446-45,8.39a18.46,18.46,0,0,0-1.859.478c-.167.169,1.028,3.966,1.171,4.611,1.2,5.427,2.082,10.9,3.387,16.291,1.361,5.625,2.355,12.1,3.308,17.846,1.3,7.851,2.028,15.776,3.2,23.612a58.257,58.257,0,0,1,.49,6.89c.186,4.409.637,9.344.266,13.774-.116,1.375-.793,2.856-.986,4.181-.1.666.279,1.775-.414,2.046-2.075.251-4.334,1.3-6.37,1.5a17.1,17.1,0,0,1-2.575.009c-.188-.188.046-4.488.01-5.3-.359-8.063-1.936-16.757-2.955-24.841-.664-5.264-1.727-10.054-2.706-15.25-2.786-14.778-5.946-29.5-9.172-44.206-.49-2.231-1.523-4.327-1.662-6.577l2.46-.493c-.6.035-1.235-.061-1.837.007-1.156.13-1.224.249-1.106,1.337.288,2.664,1.6,6.026,2.219,8.85,3.193,14.679,6.639,29.269,9.329,44.049,1.041,5.721,2.038,11.425,2.723,17.2.849,7.17,1.924,14.376,2.217,21.642A32.6,32.6,0,0,1,247,185.2c-.068.069-1.053-.046-1.364-.01-.379.042-.678.213-.982.248-1.042.119-2.211-.355-2.52.918a38.76,38.76,0,0,0-.555,5.353c-.463,4.338-1.017,8.649-1.231,13.037l-.852,5.05a2.12,2.12,0,0,1-.559-1.163c-.882-3.294-1.138-7.486-1.834-10.957-2.046-10.213-4.732-20.431-7.389-30.493q-7.232-27.385-14.264-54.858c-1.048-4.125-2.3-7.883-3.138-12.114-.4-2.021-.836-4.116-1.224-6.156-.893-4.693-1.515-9.451-2.475-14.13l1.1-.258c9.521-.037,19.044.085,28.565.022,15.527-.1,31.176-.157,46.752-.246,8.887-.051,18.424-.9,27.314-.266.6.042,1.171.4,1.835.256m-6.521.984a.123.123,0,0,0,0,.246.123.123,0,0,0,0-.246m-.369.247c-1.034.15-2.061.151-3.086.235-.429.035-.781.233-1.21.266-.8.064-1.677-.075-2.481-.02-6.776.469-13.446,1.046-20.161,1.985-9.922,1.387-19.853,1.785-29.774,2.706-5.307.493-10.652,1.156-15.947,1.769l-.916.682c.608-.019,1.227.038,1.837-.007,2.072-.155,4.168-.68,6.153-.983,8.9-1.356,18.1-1.651,27.085-2.442,10.86-.957,21.6-2.6,32.46-3.464.8-.063,1.656.08,2.463,0a5.542,5.542,0,0,1,1.969-.245Z" transform="translate(-44.729 -16.927)" fill="#fff"/>
      <path id="Trazado_893809" data-name="Trazado 893809" d="M325.768,81.025c.028-.006.069-.16.193-.187.975-.211,1.8-.638,2.637.185l-.118-.833c-.071-.195-.965-.193-.5-.641a14.041,14.041,0,0,1,2.94.013,1.733,1.733,0,0,1,.156.973,15.527,15.527,0,0,1-1.365,1.851c-1.163,1.231-7.613,3.139-9.606,3.926-6.4,2.526-12.8,5.085-19.195,7.623-5.492,2.179-10.977,4.414-16.553,6.329-1.394.478-2.681,1.286-4.115,1.669.59,2.27,2.113,4.17,2.836,6.389a119.807,119.807,0,0,1,4.785,20.305c.462,3.417,1.322,6.88,1.494,10.313a84.031,84.031,0,0,1-4.247,28.488c-1.69,4.732-4.006,9.492-8.19,12.475-.35-.182,0-.668.078-.907,1.727-4.984,3.272-8.566,3.976-13.982,2.178-16.761-1.356-35.092-4.975-51.585-.886-4.037-2.533-8.139-3.568-12.175a17.307,17.307,0,0,1-.555-2.521,4.428,4.428,0,0,0,.559-.051c14.18-4.068,28.382-8.072,42.5-12.377a90,90,0,0,0,9.11-2.822,14.8,14.8,0,0,1,1.845-.262,6.247,6.247,0,0,1,1.106.263,3.83,3.83,0,0,1,.28-.831c.184-.284,1.214-1.116.951-1.384a2.685,2.685,0,0,0-.863.5c-.24.3.033.833-.858.239-.071-.554-.235-.461-.247-.492-.114-.3.267-.612-.492-.492" transform="translate(-58.293 -17.041)" fill="#fff"/>
      <path id="Trazado_893810" data-name="Trazado 893810" d="M322.6,81.447c-.039.3.423.394.492.492s-.159.222.247.492c.149,1.161-.678.8-1.543,1.04a5.458,5.458,0,0,0-.918.436,35.431,35.431,0,0,0-3.93,1.113C304.6,88.31,292.354,92.1,280.1,95.66c-3.616,1.051-7.8,1.6-11.279,2.992-.241.1-.47.113-.593.4l4.858,17.992c2.875,15.4,6.451,30.961,4.477,46.672a68.6,68.6,0,0,1-4.291,16.372c-.682,1.765-3.647,2.365-5.177,3.188l.132-2.574a185.3,185.3,0,0,0,0-21.415c-.3-4.025-.94-8.026-1.492-12.037-1.136-8.254-2.436-16.576-3.943-24.837-1.207-6.611-2.777-13.078-3.932-19.684-.189-1.079-2.144-7.645-1.709-7.995,1.6-.288,3.2-.7,4.807-.977,15.12-2.657,30.181-5.488,45.249-8.389,5.417-1.043,10.191-2.747,15.393-3.922" transform="translate(-55.123 -17.464)" fill="#fff"/>
      <path id="Trazado_893811" data-name="Trazado 893811" d="M263.115,320.579c-1.481-.13-1.908-.252-2.406-1.653a76.406,76.406,0,0,1-1.831-7.762q-4.055-16.83-7.88-33.691c-.62-2.733-1.563-5.483-2.1-8.232a86.2,86.2,0,0,1-1.286-10.891l-.255,2.1a11.3,11.3,0,0,1,.264,3.179c.658,6.406,2.665,12.735,4.115,19.008,2.771,11.994,5.334,24.075,8.236,36.042a6.67,6.67,0,0,1,.436,1.408l-19.772-4.218c-.592-.231-.46-1.684-.416-2.31.259-3.607.627-7.233.987-10.821,1.165-11.628,2.573-23.111,3.691-34.682.335-3.465.321-7.077,1.047-10.513a21.682,21.682,0,0,0,.684-2.637c.493.086.406.516.514.839,2.028,6.06,3.351,11.814,4.838,18.039,2.594,10.852,5.132,21.747,7.749,32.592,1.141,4.729,2.387,9.44,3.384,14.2" transform="translate(-51.498 -54.656)" fill="#fff"/>
      <path id="Trazado_893812" data-name="Trazado 893812" d="M250.453,239.133c.16-.008.473-.079.507.143.295,1.951.541,3.924.731,5.875.053.551-.057,1.307,0,1.343.108.063.341-.072.494.165,1.023,1.589,1.756,7.808,2.262,10,4.155,18.023,8.714,35.978,12.921,53.988a20.35,20.35,0,0,1,.552,2.768c-.1.1-2.581-.347-2.668-.9-1.361-6.612-3.086-13.135-4.659-19.694-2.895-12.061-5.66-24.192-8.481-36.288a58.3,58.3,0,0,0-2.034-6.576,17.265,17.265,0,0,1-1.1-8.973c.573-6.234,1.381-12.468,1.954-18.709.093-1.016.119-2.052.255-3.067.344-.057.335.413.43.676.405,1.116.852,2.365,1.175,3.5a31.556,31.556,0,0,1,.819,3.13c.106.7-3.156,2.029-3.153,2.409a6.3,6.3,0,0,1,.361.615c.409,1.216.887,2.413,1.3,3.622a20.328,20.328,0,0,1,1.054,3.389c-.03.489-1.629,1.442-2.112,1.842a1.949,1.949,0,0,0-.612.741m.984,8.363c.159-.192-.082-.688-.244-.491s.082.688.244.491" transform="translate(-53.354 -47.001)" fill="#fff"/>
      <path id="Trazado_893813" data-name="Trazado 893813" d="M268.371,301.246a51,51,0,0,0-1.662-7.809c-3.025-12.887-5.815-25.833-8.733-38.742-.633-2.8-2.126-6.757-2.391-9.416a21.586,21.586,0,0,1,.024-3.893c.079-.269.984-1.123,1.2-.894a6.743,6.743,0,0,0,.045.816c1.958,6.663,3.473,13.935,5.062,20.766,1.476,6.345,2.825,12.721,4.3,19.065,2.376,10.19,4.74,20.319,7.136,30.5.613,2.605,1.51,5.179,1.907,7.809l-2.445-.506a108.411,108.411,0,0,0-2.905-11.486,13.14,13.14,0,0,0-.8-2.767c-.071-.471-.2-.939-.247-1.229-.079-.511-.16-.843-.246-1.23a3,3,0,0,0-.246-.984" transform="translate(-54.785 -51.557)" fill="#fff"/>
      <path id="Trazado_893814" data-name="Trazado 893814" d="M267.981,302.868a4.178,4.178,0,0,0,.246.983c.076.481.186.89.246,1.23.1.556-.1.6.247,1.229a76.466,76.466,0,0,0,2.153,9.04c.4,1.528.581,3.1,1.05,4.608.124.9-1.089.013-1.4-.078-.455-.133-1.074.148-1.275-.447-.487-2.165-.812-4.388-1.327-6.545-4.313-18.042-9-36.1-12.92-54.234-.359-1.665-1.427-5.908-1.3-7.329.086-.96.881-2.281.995-3.31.724.342.6,1.574.791,2.283,3.413,12.918,6.07,26.088,9.111,39.1.879,3.763,1.929,10.253,3.384,13.466" transform="translate(-54.395 -53.179)" fill="#fff"/>
      <path id="Trazado_893815" data-name="Trazado 893815" d="M267.025,216.055c.239.234-1.045,3.09-1.354,3.442a45.189,45.189,0,0,1-5.051,3.806c-.411.268-.954.574-1.39.824-.276.157-.469.356-.817.29v-8.363c1.105.229,8.305-.3,8.612,0" transform="translate(-55.408 -46.305)" fill="#fff"/>
      <path id="Trazado_893816" data-name="Trazado 893816" d="M265.092,221.712c.446.486-2.7,6.344-3.238,7.216a19.762,19.762,0,0,1-4.389,5.328,5.691,5.691,0,0,1,.256-1.834c.153-1.517.1-3.178.244-4.675a13.163,13.163,0,0,1,.269-1.33c.038-.055.923-.471,1.185-.661,1.452-1.046,2.824-2.057,4.209-3.171.206-.165,1.315-1.034,1.464-.873" transform="translate(-55.197 -47.534)" fill="#fff"/>
      <path id="Trazado_893817" data-name="Trazado 893817" d="M256.4,216.069c.573.54.071,6.994.251,8.245.108.569-1.887,1.695-1.973,1.594-.347-.409-.621-3.267-.793-4-.458-1.967-1.372-3.856-1.422-5.835.575.1,3.794-.135,3.937,0" transform="translate(-54.132 -46.319)" fill="#fff"/>
      <path id="Trazado_893818" data-name="Trazado 893818" d="M259.353,214.381l1.9-.683c1.881-.006,4.462-1.333,6.143-1.478.212-.018.518.22.548.176.06-.092-.064-.324.172-.487.9-.621,2.691-.771,3.665-1.462.153.164-.156.548-.261.723a20.615,20.615,0,0,1-3.923,4.687c-.391-.456.063-1.138.1-1.606.027-.333-.166-.906.022-1.346-.584.024-.654,1.476-.738,1.476Z" transform="translate(-55.609 -45.123)" fill="#fff"/>
      <path id="Trazado_893819" data-name="Trazado 893819" d="M253.982,229.856c.13.157.65,2.93.8,3.5.234.89,1.06,2.672.889,3.461a4.97,4.97,0,0,1-1.321,1.642c-.327.016-1.858-5.513-2.211-6.152,0-.288-.617-.8-.618-.857a10.685,10.685,0,0,1,2.459-1.6" transform="translate(-53.93 -49.284)" fill="#fff"/>
      <path id="Trazado_893820" data-name="Trazado 893820" d="M251.847,243.571c.067-.063.31-.043.448-.155.571-.46,1.139-.93,1.739-1.347l.245,3.811c-.329.476-1.013,3.312-1.352,3.321-.434.012-.589-2.644-.848-3.087.1-.528-.537-2.259-.233-2.543" transform="translate(-53.982 -51.903)" fill="#fff"/>
      <path id="Trazado_893821" data-name="Trazado 893821" d="M257,232.1c-.005.068-.185.154-.2.292l-.291,1.552-1.237-4.312c-.013-.665,1.208-1.061,1.729-1.345-.069,1.247.1,2.577,0,3.812" transform="translate(-54.734 -48.949)" fill="#fff"/>
      <path id="Trazado_893822" data-name="Trazado 893822" d="M247.887,245.826a.123.123,0,0,1,0,.246.123.123,0,0,1,0-.246" transform="translate(-53.125 -52.709)" fill="#fff"/>
      <path id="Trazado_893823" data-name="Trazado 893823" d="M112.408,198.366a1.569,1.569,0,0,0,.118.487c.288.5,1.073.888.867,1.726-8.242.061-16.495-.075-24.74-.009-17.931.144-35.9.376-53.889.492-10.149.066-20.841.866-31,.266a8.519,8.519,0,0,0-2.573-.256L.939,92.353c1.431-.053,2.885.071,4.318.011,10.433-.434,23.2-1.754,30.628-9.968.473-.523,1.906-2.666,2.366-2.807a1.023,1.023,0,0,1,.449-.032l67.549,24.119c-.192,2.976-1.976,5.575-2.83,8.349a174.8,174.8,0,0,0-6.276,26.686,101.356,101.356,0,0,0,2.037,36.6c1.764,7.255,4.689,13.488,10.147,18.635.248.234.62.324.875.6.751.815.991,3.151,2.2,3.823-.169-.4-1.154-2.535-.984-2.706.187-.187,1.493.414,1.722.615.808.71.4,2.335.491,3.32Z" transform="translate(-0.201 -17.056)" fill="#fff"/>
      <path id="Trazado_893824" data-name="Trazado 893824" d="M112.482,325.21c-6.19.06-12.393-.071-18.585-.009-.425,0-.786.262-1.211.266-29.948.28-59.86.181-89.832.244-.466.052-.831-.124-.86-.617-.045-8.45.079-16.9.017-25.352-.066-8.958-.178-18.046-.246-27.056C1.673,260.546.942,247.967,1.5,235.8c.014-.294-.069-.6.115-.869l112.11-.865c.48.34.834,4.432,1.023,5.373a41.708,41.708,0,0,0,3.917,10.843c.255.44.781.727.908,1.306a18.313,18.313,0,0,1,.032,2.673c.216,4.206-.735,8.536-1.227,12.773-1.4,12-2.492,24.121-3.692,36.156-.652,6.543-1.143,13.173-1.953,19.693-.1.767-.134,1.562-.256,2.328" transform="translate(-0.277 -50.187)" fill="#fff"/>
      <path id="Trazado_893825" data-name="Trazado 893825" d="M138.076,226.565v1.6a16.892,16.892,0,0,1,.485-3.083c.075-.7-.108-1.563-.006-2.191.042-.258.422-.088.507-.138.355-.21-3.109-2.1-3.137-2.572-.024-.4.565-2.087.667-2.724.133-.832.146-1.848.262-2.689.156-1.126.766-2.82.452-3.911-.17-.59-2.854-1.962-2.871-2.237l.435-2.231c-.265-1.406,1.126-6.051.212-6.961-.075-.075-1.63-.778-1.924-.9-.27-.115-1.186-.324-1.232-.369-.137-.134.233-1,.256-1.34.52-7.762,1.217-15.389,2.457-23.124.579-3.614,1.653-7.262,2.2-10.838.265-1.728.244-3.666.507-5.4.807-5.268,2.37-10.738,3.424-16.009,1.04-5.2,2.114-10.484,2.973-15.72,1.369-8.338,3.354-16.548,4.905-24.859.822-4.407,2.041-9.095,2.477-13.512.045-.449.581-1-.368-1.123-1.179-.154-2.5-.145-3.691-.246-.3-.025-.6-.217-.982-.248-.8-.065-1.673.065-2.481.02-.654-.037-1.336-.438-2.081-.255l1.115.483,4.659.262a18.672,18.672,0,0,0,3.209.486c.378.018.412-.106.372.371-1.187,5.045-2.021,10.158-2.95,15.254-1.874,10.287-4.212,20.689-6.168,30.976-1.356,7.138-3.05,14.253-4.182,21.4-1.481,9.34-3.545,18.656-4.66,28.056-.524,4.42-.8,8.879-1.23,13.283-.047.489.013.982-.008,1.471-.016.38.1.411-.373.372l-4.806-2.608c-.057-2.7.115-5.413.022-8.106a188.439,188.439,0,0,1,1.7-30.252c.445-3.469.827-6.879,1.246-10.315,1.085-8.886,2.672-17.741,4.162-26.586,1.218-7.233,2.561-14.425,3.712-21.624.283-1.766.751-3.515.969-5.289l-7.751-1.475c-11.742-1.515-23.436-4.283-35.189-6.148-3.252-.516-6.571-.727-9.825-1.248-4.908-.785-9.748-2.028-14.648-2.824-.465-.075-.614-.272-.985.251l1.59.132c11.334,2.537,22.77,4.112,34.226,6.127,9.343,1.643,18.8,3.1,28.03,4.694.566.1,3.68.6,3.82.732.168.159-.217.853-.238,1.112-.775,9.22-3.139,18.365-4.674,27.549-.815,4.882-1.585,9.833-2.23,14.743-1.553,11.825-3.429,23.767-4.186,35.662-.465,7.321-.093,14.517-.236,21.9,0,.211.112.594-.123.614-.585-.779-1.7-.822-2.43-1.261-1.052-.636-2.1-4.32-2.5-5.62a55.089,55.089,0,0,1-2.093-10.452,153.651,153.651,0,0,1,.246-28.547c1.268-14.435,5.058-29.036,7.644-43.275.372-2.048.967-4.394,1.213-6.414a2.571,2.571,0,0,0,0-.837c-.163-.162-3.782-1.267-4.356-1.427-2.949-.824-6.01-1.312-8.98-2.092-11.85-3.112-23.656-6.507-35.55-9.477A73.486,73.486,0,0,1,71.5,83.769c-.511-.187-.577.044-.923-.018-.728-.132-1.77-1.171-2.634-1.2l2.227,1.339c.627.418,1.385.281,2.024.436,13.975,3.391,27.809,7.285,41.7,10.953,4.519,1.193,9.175,1.912,13.58,3.521a9.853,9.853,0,0,1-.469,3.068q-.97,6.136-2.284,12.229c-4.333,20.3-7.894,40.174-6.575,61.052a72.3,72.3,0,0,0,3.128,15.32c.093.327.387,1.025.186,1.29a5.587,5.587,0,0,1-1.357-1.1c-8.007-8.641-9.46-25.2-10.339-36.4a46.362,46.362,0,0,1-.23-7.625c.092-1.021.613-2.264.721-3.215.22-1.929.236-3.928.509-5.886a170.63,170.63,0,0,1,5.276-23.258c.889-3.108,2.552-6.03,3.274-9.272.123-.554.459-1.892.189-2.295-.158-.235-4.544-1.9-5.234-2.148-12.955-4.725-26.081-9.3-39.124-13.774-2.265-.777-5.742-1.447-7.7-2.387-.554-.266-.829-.7-1.3-.919-.68-.326-1,.09-.788-.682-.093.324-1.046.061-1.113,0-.045-.044.313-.515.247-.737l-.985.491-.1-.452c-.328.224-.633-.071-1.007-.039-.289-.031.21-.4.123-.491-.043-.044-.9.268-1.232,0-.181-.147.845-.677.616-.981l-1.106.614c.434-.348.791-1.031,1.346-1.112a12.357,12.357,0,0,1,1.973.148c8.509-.111,16.409.9,24.863,1.322,8.355.416,16.505,1.389,24.835,2.232,6.366.644,12.833.9,19.209,1.46,2.464.218,4.889.461,7.371.508.222,0,.422.2.5.2.2,0,.5-.579.363-.7-.105-.1-2.35.04-2.84.01-9.026-.555-18.068-1.257-27.05-2.231-10.932-1.186-22-1.742-32.987-2.691-5.967-.516-11.973-.608-17.954-1.24-.456-.049-.617.234-.617-.366,0-.131.675-.345.866-.365,1.164-.126,2.5.063,3.7.006,8.659-.409,17.378-.166,26.083-.246,12.779-.118,25.6-.434,38.366-.246,12.038.177,25.043-1.13,36.928-.019.609.057,1.23-.02,1.837.009a10.923,10.923,0,0,0-.484,1.852c-5.424,35.763-14.566,70.905-21.157,106.51-1.5,8.119-2.634,16.584-3.711,24.823-.8,6.133-1.067,12.239-1.479,18.444-.031.46.1,2.49.009,2.593-.214.255-5.128-2.985-5.38-3.846-.288-.979.148-2.812-.043-3.912.251-.472.378-2.918.5-3.065.293-.346,2.215,1.133,2.215,1.354Zm-69.637-145-1.476-.738c.1.356.556.558.86.738.217.129.547.588.616,0m-6.274-.493a.123.123,0,0,0,0,.246.123.123,0,0,0,0-.246m1.968.492a.123.123,0,0,0,0,.246.123.123,0,0,0,0-.246m5.044.247c-.192-.158-.688.082-.491.244s.688-.082.491-.244m-3.814.245a.123.123,0,0,0,0,.246.123.123,0,0,0,0-.246m1.108,0c-.192-.158-.689.082-.492.245s.688-.082.492-.245m4.306,1.229a.123.123,0,0,0,0,.246.123.123,0,0,0,0-.246m67.053,145.859a3.847,3.847,0,0,0,0-.737c-.321-.388-.321,1.124,0,.737" transform="translate(-12.828 -16.599)" fill="#fff"/>
      <path id="Trazado_893826" data-name="Trazado 893826" d="M155.632,256.023c-.186.219-2.021-1.1-2.226-1.341-.482-.566-.053-.743,0-1.251.307-2.739.756-5.476.992-8.231.609.453,2.727,1.594,2.713,2.329-.007.4-.4,1.227-.485,1.742-.244,1.459-.3,2.995-.514,4.406-.054.35-.407,2.254-.485,2.345" transform="translate(-32.844 -52.575)" fill="#fff"/>
      <path id="Trazado_893827" data-name="Trazado 893827" d="M149.335,248.659c-.36-.06-.487-.445-.618-.735a41.551,41.551,0,0,1-1.726-4.915c-.252-.878-1.585-6.593-1.346-6.893.208-.261,1.784,2.119,1.965,2.34.337.412,1.726,1.552,1.726,1.964Z" transform="translate(-31.222 -50.622)" fill="#fff"/>
      <path id="Trazado_893828" data-name="Trazado 893828" d="M151.6,233.688c.2-.742,2.448.09,2.471.264a13.507,13.507,0,0,1-.019,2.188c-.1,1.4-.317,3-.486,4.433a7.222,7.222,0,0,1-.244.863,8.218,8.218,0,0,1-1.722-1.353Z" transform="translate(-32.506 -50.041)" fill="#fff"/>
      <path id="Trazado_893829" data-name="Trazado 893829" d="M154.569,265.649c-1.415-1.264-1.856-3.719-1.732-5.545a9.626,9.626,0,0,1,.249-.981c.173-1.17-.281-1.64,1.225-.472a8.8,8.8,0,0,1,1.224,1.254Z" transform="translate(-32.766 -55.314)" fill="#fff"/>
      <path id="Trazado_893830" data-name="Trazado 893830" d="M146.42,232.606c-.932-.011-1.348.271-1.473-.864-.053-.485.037-.977-.011-1.465-.031-.31-.433-1.128-.238-1.361a21.266,21.266,0,0,1,2.288,1.279c.417.205,2.575.9,2.589,1.3a7.824,7.824,0,0,1-.212.858c-.107.116-2.319-.067-2.813,0-.236.034-.092.144-.13.253.551.006,2.953-.182,2.953.369v3.689c0,.057-.178.148-.2.291-.055.348.053.865-.169,1.061a45.754,45.754,0,0,1-2.945-3.7c-1.379-2.166-.1-1.167.355-1.482.053-.038-.016-.169.006-.233" transform="translate(-31.014 -49.082)" fill="#fff"/>
      <path id="Trazado_893831" data-name="Trazado 893831" d="M152.259,252.524c-.407-.069-.457-.472-.557-.8-.44-1.422-.108-3.661-.17-5.241-.016-.426-.24-.775-.266-1.21a19.874,19.874,0,0,1,.01-2.592c.253-.275,1.665,1.155,1.727,1.594.374,2.616-.6,5.619-.744,8.245" transform="translate(-32.426 -52.028)" fill="#fff"/>
      <path id="Trazado_893832" data-name="Trazado 893832" d="M59.993,81.434c.2.163-.3.4-.492.244s.3-.4.492-.244" transform="translate(-12.748 -17.45)" fill="#fff"/>
      <path id="Trazado_893833" data-name="Trazado 893833" d="M59.011,81.134a.123.123,0,0,1,0,.246.123.123,0,0,1,0-.246" transform="translate(-12.627 -17.396)" fill="#fff"/>
      <path id="Trazado_893834" data-name="Trazado 893834" d="M583.36,88.067c.36-.473-.739-2.514-.862-2.46a5.208,5.208,0,0,0-1.346,2.7c.125.1.583-.187.484.252-.294,0-1.046.422-1.23.247s1.837-4.368,1.723-5.165a3.752,3.752,0,0,1,1.412,2.4c.178.647.679,1.717-.182,2.028" transform="translate(-124.445 -17.934)" fill="#161615"/>
      <path id="Trazado_893835" data-name="Trazado 893835" d="M314.133,81.135l-1.607.484a5.542,5.542,0,0,0-1.969.245c-.807.078-1.664-.065-2.463,0-10.858.862-21.6,2.508-32.46,3.464-8.986.791-18.188,1.086-27.085,2.442-1.985.3-4.081.828-6.153.983-.61.046-1.229-.012-1.837.007l.916-.682c5.295-.614,10.639-1.276,15.947-1.769,9.92-.921,19.852-1.319,29.774-2.706,6.714-.939,13.385-1.516,20.161-1.985.8-.055,1.682.084,2.481.02.429-.034.781-.231,1.21-.266,1.024-.084,2.052-.085,3.086-.235" transform="translate(-51.58 -17.397)" fill="#161615"/>
      <path id="Trazado_893836" data-name="Trazado 893836" d="M334.651,80.821a.123.123,0,0,1,0,.246.123.123,0,0,1,0-.246" transform="translate(-71.729 -17.329)" fill="#161615"/>
      <path id="Trazado_893837" data-name="Trazado 893837" d="M252.067,255.072c-.163.2-.4-.3-.244-.491s.4.3.244.491" transform="translate(-53.984 -54.576)" fill="#161615"/>
      <path id="Trazado_893838" data-name="Trazado 893838" d="M70.386,82.5c-.069.589-.4.13-.616,0-.3-.181-.764-.383-.86-.738Z" transform="translate(-14.775 -17.531)" fill="#161615"/>
      <path id="Trazado_893839" data-name="Trazado 893839" d="M159.053,270.341c-.321.387-.321-1.125,0-.737a3.842,3.842,0,0,1,0,.737" transform="translate(-34.052 -57.794)" fill="#161615"/>
      <path id="Trazado_893840" data-name="Trazado 893840" d="M68.137,83.313c.2.163-.3.4-.492.244s.3-.4.492-.244" transform="translate(-14.495 -17.852)" fill="#161615"/>
      <path id="Trazado_893841" data-name="Trazado 893841" d="M71.582,83c.2.163-.3.4-.492.244s.3-.4.492-.244" transform="translate(-15.233 -17.785)" fill="#161615"/>
      <path id="Trazado_893842" data-name="Trazado 893842" d="M65.276,82.7a.123.123,0,0,1,0,.246.123.123,0,0,1,0-.246" transform="translate(-13.97 -17.732)" fill="#161615"/>
      <path id="Trazado_893843" data-name="Trazado 893843" d="M66.842,83.326a.123.123,0,0,1,0,.246.123.123,0,0,1,0-.246" transform="translate(-14.306 -17.866)" fill="#161615"/>
      <path id="Trazado_893844" data-name="Trazado 893844" d="M62.77,82.073a.123.123,0,0,1,0,.246.123.123,0,0,1,0-.246" transform="translate(-13.433 -17.598)" fill="#161615"/>
      <path id="Trazado_893845" data-name="Trazado 893845" d="M73.733,84.891a.123.123,0,0,1,0,.246.123.123,0,0,1,0-.246" transform="translate(-15.784 -18.202)" fill="#161615"/>
    </g>
    <path id="Trazado_894323" data-name="Trazado 894323" d="M4.276-1.674H1.6L.993,0H.123L2.566-6.4H3.3L5.752,0H4.887ZM1.85-2.364H4.025L2.936-5.357Z" transform="translate(370.051 15256)" fill="#12263f"/>
    <path id="Trazado_894324" data-name="Trazado 894324" d="M1.586-2.5V0H.743V-6.4H3.1a2.371,2.371,0,0,1,1.646.536,1.818,1.818,0,0,1,.6,1.419,1.794,1.794,0,0,1-.582,1.435,2.477,2.477,0,0,1-1.668.5Zm0-.69H3.1A1.516,1.516,0,0,0,4.14-3.514a1.167,1.167,0,0,0,.36-.922,1.206,1.206,0,0,0-.36-.916,1.42,1.42,0,0,0-.989-.357H1.586Zm4.434.773A2.808,2.808,0,0,1,6.3-3.678,2.049,2.049,0,0,1,7.06-4.54a2.081,2.081,0,0,1,1.118-.3,2.005,2.005,0,0,1,1.571.672,2.587,2.587,0,0,1,.6,1.789v.057a2.833,2.833,0,0,1-.266,1.246,2.019,2.019,0,0,1-.76.859A2.105,2.105,0,0,1,8.187.088,2,2,0,0,1,6.62-.584a2.574,2.574,0,0,1-.6-1.78Zm.817.1A2.034,2.034,0,0,0,7.2-1.055a1.174,1.174,0,0,0,.982.479,1.167,1.167,0,0,0,.984-.486,2.224,2.224,0,0,0,.365-1.36,2.031,2.031,0,0,0-.371-1.268,1.181,1.181,0,0,0-.987-.486,1.167,1.167,0,0,0-.971.479A2.208,2.208,0,0,0,6.838-2.325Zm7.3,1.063a.6.6,0,0,0-.248-.512,2.39,2.39,0,0,0-.866-.314,4.093,4.093,0,0,1-.98-.316,1.394,1.394,0,0,1-.536-.439,1.051,1.051,0,0,1-.174-.606,1.233,1.233,0,0,1,.494-.989,1.931,1.931,0,0,1,1.263-.4,1.987,1.987,0,0,1,1.312.417,1.326,1.326,0,0,1,.5,1.068h-.817a.734.734,0,0,0-.283-.576,1.062,1.062,0,0,0-.714-.242,1.111,1.111,0,0,0-.694.193.609.609,0,0,0-.25.505.493.493,0,0,0,.233.444,2.866,2.866,0,0,0,.842.286,4.385,4.385,0,0,1,.987.325,1.439,1.439,0,0,1,.56.455,1.118,1.118,0,0,1,.182.648A1.217,1.217,0,0,1,14.44-.3a2.138,2.138,0,0,1-1.323.385,2.394,2.394,0,0,1-1.011-.2,1.644,1.644,0,0,1-.688-.565,1.361,1.361,0,0,1-.248-.784h.813a.842.842,0,0,0,.327.648,1.27,1.27,0,0,0,.806.24,1.311,1.311,0,0,0,.74-.187A.574.574,0,0,0,14.137-1.261Zm2.975-4.645v1.151H18v.628h-.888v2.952a.66.66,0,0,0,.119.429.5.5,0,0,0,.4.143,1.968,1.968,0,0,0,.387-.053V0A2.371,2.371,0,0,1,17.4.088a1.012,1.012,0,0,1-.822-.33,1.416,1.416,0,0,1-.277-.936V-4.126h-.866v-.628H16.3V-5.906ZM20.922.088a2.078,2.078,0,0,1-1.573-.635,2.357,2.357,0,0,1-.606-1.7V-2.4a2.853,2.853,0,0,1,.27-1.263,2.108,2.108,0,0,1,.756-.87,1.9,1.9,0,0,1,1.052-.314,1.781,1.781,0,0,1,1.441.611,2.645,2.645,0,0,1,.514,1.749v.338H19.556a1.69,1.69,0,0,0,.411,1.136,1.292,1.292,0,0,0,1,.433A1.416,1.416,0,0,0,21.7-.751a1.833,1.833,0,0,0,.523-.466l.5.387A2,2,0,0,1,20.922.088Zm-.1-4.263A1.084,1.084,0,0,0,20-3.817a1.741,1.741,0,0,0-.413,1h2.382v-.062a1.548,1.548,0,0,0-.334-.96A1.021,1.021,0,0,0,20.821-4.175Zm5.194.149a2.436,2.436,0,0,0-.4-.031,1.071,1.071,0,0,0-1.085.681V0h-.813V-4.755h.791l.013.549a1.266,1.266,0,0,1,1.134-.637.831.831,0,0,1,.36.062ZM27.646,0h-.813V-4.755h.813Zm-.879-6.016a.485.485,0,0,1,.121-.334.454.454,0,0,1,.358-.136.461.461,0,0,1,.36.136.48.48,0,0,1,.123.334.464.464,0,0,1-.123.33.469.469,0,0,1-.36.132.462.462,0,0,1-.358-.132A.469.469,0,0,1,26.767-6.016Zm1.964,3.595a2.808,2.808,0,0,1,.275-1.257,2.049,2.049,0,0,1,.765-.861,2.081,2.081,0,0,1,1.118-.3,2.005,2.005,0,0,1,1.571.672,2.587,2.587,0,0,1,.6,1.789v.057a2.833,2.833,0,0,1-.266,1.246,2.019,2.019,0,0,1-.76.859A2.105,2.105,0,0,1,30.9.088a2,2,0,0,1-1.567-.672,2.574,2.574,0,0,1-.6-1.78Zm.817.1a2.034,2.034,0,0,0,.367,1.27,1.174,1.174,0,0,0,.982.479,1.167,1.167,0,0,0,.984-.486,2.224,2.224,0,0,0,.365-1.36,2.031,2.031,0,0,0-.371-1.268,1.181,1.181,0,0,0-.987-.486,1.167,1.167,0,0,0-.971.479A2.208,2.208,0,0,0,29.549-2.325Zm6.829-1.7a2.436,2.436,0,0,0-.4-.031,1.071,1.071,0,0,0-1.085.681V0H34.08V-4.755h.791l.013.549a1.266,1.266,0,0,1,1.134-.637.831.831,0,0,1,.36.062Z" transform="translate(316.051 15407)" fill="#12263f"/>
    <path id="Trazado_894325" data-name="Trazado 894325" d="M.743,0V-6.4H2.549a2.908,2.908,0,0,1,1.477.369,2.5,2.5,0,0,1,.991,1.05A3.419,3.419,0,0,1,5.37-3.415v.409a3.431,3.431,0,0,1-.349,1.586,2.457,2.457,0,0,1-1,1.046A3.093,3.093,0,0,1,2.514,0Zm.844-5.708V-.69h.888A1.931,1.931,0,0,0,3.992-1.3a2.508,2.508,0,0,0,.543-1.729V-3.4a2.547,2.547,0,0,0-.512-1.7,1.822,1.822,0,0,0-1.452-.614Zm6.9,5.8A2.078,2.078,0,0,1,6.917-.547a2.357,2.357,0,0,1-.606-1.7V-2.4a2.853,2.853,0,0,1,.27-1.263,2.108,2.108,0,0,1,.756-.87,1.9,1.9,0,0,1,1.052-.314,1.781,1.781,0,0,1,1.441.611,2.645,2.645,0,0,1,.514,1.749v.338H7.124a1.69,1.69,0,0,0,.411,1.136,1.292,1.292,0,0,0,1,.433,1.416,1.416,0,0,0,.729-.176,1.833,1.833,0,0,0,.523-.466l.5.387A2,2,0,0,1,8.49.088Zm-.1-4.263a1.084,1.084,0,0,0-.826.358,1.741,1.741,0,0,0-.413,1H9.532v-.062a1.548,1.548,0,0,0-.334-.96A1.021,1.021,0,0,0,8.389-4.175ZM12.168,0h-.813V-6.75h.813ZM16.4,0a1.708,1.708,0,0,1-.114-.5,1.814,1.814,0,0,1-1.354.589,1.678,1.678,0,0,1-1.154-.4,1.287,1.287,0,0,1-.45-1.009A1.344,1.344,0,0,1,13.9-2.472a2.662,2.662,0,0,1,1.589-.411h.791v-.374a.913.913,0,0,0-.255-.679,1.024,1.024,0,0,0-.751-.253,1.185,1.185,0,0,0-.729.22.647.647,0,0,0-.294.532H13.43a1.122,1.122,0,0,1,.253-.688,1.725,1.725,0,0,1,.686-.525,2.306,2.306,0,0,1,.951-.193,1.88,1.88,0,0,1,1.288.411A1.482,1.482,0,0,1,17.09-3.3v2.188A2.676,2.676,0,0,0,17.257-.07V0ZM15.056-.62a1.429,1.429,0,0,0,.725-.2,1.2,1.2,0,0,0,.5-.514v-.976H15.64q-1.494,0-1.494.875a.74.74,0,0,0,.255.6A.98.98,0,0,0,15.056-.62Zm4.078-4.135.026.6a1.733,1.733,0,0,1,1.424-.686q1.507,0,1.521,1.7V0h-.813V-3.146a1.1,1.1,0,0,0-.235-.76.942.942,0,0,0-.719-.246,1.173,1.173,0,0,0-.694.211,1.432,1.432,0,0,0-.466.554V0h-.813V-4.755Zm5.3-1.151v1.151h.888v.628h-.888v2.952a.66.66,0,0,0,.119.429.5.5,0,0,0,.4.143,1.968,1.968,0,0,0,.387-.053V0a2.371,2.371,0,0,1-.624.087,1.012,1.012,0,0,1-.822-.33,1.416,1.416,0,0,1-.277-.936V-4.126h-.866v-.628h.866V-5.906ZM28.244.088A2.078,2.078,0,0,1,26.67-.547a2.357,2.357,0,0,1-.606-1.7V-2.4a2.853,2.853,0,0,1,.27-1.263,2.108,2.108,0,0,1,.756-.87,1.9,1.9,0,0,1,1.052-.314,1.781,1.781,0,0,1,1.441.611A2.645,2.645,0,0,1,30.1-2.483v.338H26.877a1.69,1.69,0,0,0,.411,1.136,1.292,1.292,0,0,0,1,.433,1.416,1.416,0,0,0,.729-.176,1.833,1.833,0,0,0,.523-.466l.5.387A2,2,0,0,1,28.244.088Zm-.1-4.263a1.084,1.084,0,0,0-.826.358,1.741,1.741,0,0,0-.413,1h2.382v-.062a1.548,1.548,0,0,0-.334-.96A1.021,1.021,0,0,0,28.143-4.175Zm5.194.149a2.436,2.436,0,0,0-.4-.031,1.071,1.071,0,0,0-1.085.681V0h-.813V-4.755h.791l.013.549a1.266,1.266,0,0,1,1.134-.637.831.831,0,0,1,.36.062Zm.444,1.6a2.808,2.808,0,0,1,.275-1.257,2.049,2.049,0,0,1,.765-.861,2.081,2.081,0,0,1,1.118-.3,2.005,2.005,0,0,1,1.571.672,2.587,2.587,0,0,1,.6,1.789v.057a2.833,2.833,0,0,1-.266,1.246,2.019,2.019,0,0,1-.76.859,2.105,2.105,0,0,1-1.136.308,2,2,0,0,1-1.567-.672,2.574,2.574,0,0,1-.6-1.78Zm.817.1a2.034,2.034,0,0,0,.367,1.27,1.174,1.174,0,0,0,.982.479,1.167,1.167,0,0,0,.984-.486,2.224,2.224,0,0,0,.365-1.36,2.031,2.031,0,0,0-.371-1.268,1.181,1.181,0,0,0-.987-.486,1.167,1.167,0,0,0-.971.479A2.208,2.208,0,0,0,34.6-2.325Z" transform="translate(523.051 15407)" fill="#12263f"/>
    <path id="Trazado_894326" data-name="Trazado 894326" d="M1.833-6.4,3.924-1.178,6.016-6.4H7.11V0H6.267V-2.492l.079-2.689L4.245,0H3.6L1.5-5.168l.083,2.676V0H.743V-6.4ZM11.408,0a1.708,1.708,0,0,1-.114-.5A1.814,1.814,0,0,1,9.94.088a1.678,1.678,0,0,1-1.154-.4,1.287,1.287,0,0,1-.45-1.009A1.344,1.344,0,0,1,8.9-2.472a2.662,2.662,0,0,1,1.589-.411h.791v-.374a.913.913,0,0,0-.255-.679,1.024,1.024,0,0,0-.751-.253,1.185,1.185,0,0,0-.729.22.647.647,0,0,0-.294.532H8.433a1.122,1.122,0,0,1,.253-.688,1.725,1.725,0,0,1,.686-.525,2.306,2.306,0,0,1,.951-.193,1.88,1.88,0,0,1,1.288.411A1.482,1.482,0,0,1,12.094-3.3v2.188A2.676,2.676,0,0,0,12.261-.07V0ZM10.059-.62a1.429,1.429,0,0,0,.725-.2,1.2,1.2,0,0,0,.5-.514v-.976h-.637q-1.494,0-1.494.875a.74.74,0,0,0,.255.6A.98.98,0,0,0,10.059-.62Zm4.078-4.135.026.6a1.733,1.733,0,0,1,1.424-.686q1.507,0,1.521,1.7V0h-.813V-3.146a1.1,1.1,0,0,0-.235-.76.942.942,0,0,0-.719-.246,1.173,1.173,0,0,0-.694.211,1.432,1.432,0,0,0-.466.554V0h-.813V-4.755Zm4,2.338a2.8,2.8,0,0,1,.514-1.769,1.644,1.644,0,0,1,1.362-.657,1.636,1.636,0,0,1,1.358.615l.04-.527h.743V-.114A1.934,1.934,0,0,1,21.61,1.34a2.019,2.019,0,0,1-1.47.532,2.446,2.446,0,0,1-1.006-.22,1.732,1.732,0,0,1-.751-.6L18.8.563a1.59,1.59,0,0,0,1.279.646,1.246,1.246,0,0,0,.925-.334,1.277,1.277,0,0,0,.332-.94V-.475a1.671,1.671,0,0,1-1.332.563,1.624,1.624,0,0,1-1.351-.672A2.938,2.938,0,0,1,18.141-2.417Zm.817.092a2.132,2.132,0,0,0,.33,1.263A1.071,1.071,0,0,0,20.21-.6a1.191,1.191,0,0,0,1.129-.7V-3.472a1.2,1.2,0,0,0-1.121-.681,1.081,1.081,0,0,0-.927.461A2.322,2.322,0,0,0,18.958-2.325ZM26.319,0A1.708,1.708,0,0,1,26.2-.5a1.814,1.814,0,0,1-1.354.589A1.678,1.678,0,0,1,23.7-.31a1.287,1.287,0,0,1-.45-1.009,1.344,1.344,0,0,1,.565-1.154A2.662,2.662,0,0,1,25.4-2.883h.791v-.374a.913.913,0,0,0-.255-.679,1.024,1.024,0,0,0-.751-.253,1.185,1.185,0,0,0-.729.22.647.647,0,0,0-.294.532h-.817a1.122,1.122,0,0,1,.253-.688,1.725,1.725,0,0,1,.686-.525,2.306,2.306,0,0,1,.951-.193,1.88,1.88,0,0,1,1.288.411A1.482,1.482,0,0,1,27-3.3v2.188A2.676,2.676,0,0,0,27.171-.07V0ZM24.97-.62a1.429,1.429,0,0,0,.725-.2,1.2,1.2,0,0,0,.5-.514v-.976h-.637q-1.494,0-1.494.875a.74.74,0,0,0,.255.6A.98.98,0,0,0,24.97-.62Z" transform="translate(726.051 15342)" fill="#12263f"/>
    <path id="Trazado_894327" data-name="Trazado 894327" d="M4.276-1.674H1.6L.993,0H.123L2.566-6.4H3.3L5.752,0H4.887ZM1.85-2.364H4.025L2.936-5.357Z" transform="translate(508.051 15256)" fill="#12263f"/>
    <path id="Trazado_894328" data-name="Trazado 894328" d="M4.276-1.674H1.6L.993,0H.123L2.566-6.4H3.3L5.752,0H4.887ZM1.85-2.364H4.025L2.936-5.357Z" transform="translate(659.051 15256)" fill="#12263f"/>
    <path id="Trazado_894329" data-name="Trazado 894329" d="M.825,0V-7.109H3.149a2.7,2.7,0,0,1,1.741.479,1.725,1.725,0,0,1,.583,1.416,1.444,1.444,0,0,1-.283.881,1.836,1.836,0,0,1-.771.593,1.649,1.649,0,0,1,.911.613,1.759,1.759,0,0,1,.334,1.077,1.9,1.9,0,0,1-.62,1.5A2.564,2.564,0,0,1,3.291,0Zm.938-3.325V-.767H3.311a1.49,1.49,0,0,0,1.033-.339,1.192,1.192,0,0,0,.378-.935q0-1.284-1.4-1.284Zm0-.752H3.179a1.484,1.484,0,0,0,.984-.308,1.033,1.033,0,0,0,.369-.837,1.016,1.016,0,0,0-.342-.854,1.679,1.679,0,0,0-1.04-.267H1.763Z" transform="translate(383.051 15253)" fill="#12263f"/>
    <path id="Trazado_894330" data-name="Trazado 894330" d="M.825,0V-7.109H3.149a2.7,2.7,0,0,1,1.741.479,1.725,1.725,0,0,1,.583,1.416,1.444,1.444,0,0,1-.283.881,1.836,1.836,0,0,1-.771.593,1.649,1.649,0,0,1,.911.613,1.759,1.759,0,0,1,.334,1.077,1.9,1.9,0,0,1-.62,1.5A2.564,2.564,0,0,1,3.291,0Zm.938-3.325V-.767H3.311a1.49,1.49,0,0,0,1.033-.339,1.192,1.192,0,0,0,.378-.935q0-1.284-1.4-1.284Zm0-.752H3.179a1.484,1.484,0,0,0,.984-.308,1.033,1.033,0,0,0,.369-.837,1.016,1.016,0,0,0-.342-.854,1.679,1.679,0,0,0-1.04-.267H1.763Z" transform="translate(493.051 15253)" fill="#12263f"/>
    <path id="Trazado_894331" data-name="Trazado 894331" d="M.825,0V-7.109H3.149a2.7,2.7,0,0,1,1.741.479,1.725,1.725,0,0,1,.583,1.416,1.444,1.444,0,0,1-.283.881,1.836,1.836,0,0,1-.771.593,1.649,1.649,0,0,1,.911.613,1.759,1.759,0,0,1,.334,1.077,1.9,1.9,0,0,1-.62,1.5A2.564,2.564,0,0,1,3.291,0Zm.938-3.325V-.767H3.311a1.49,1.49,0,0,0,1.033-.339,1.192,1.192,0,0,0,.378-.935q0-1.284-1.4-1.284Zm0-.752H3.179a1.484,1.484,0,0,0,.984-.308,1.033,1.033,0,0,0,.369-.837,1.016,1.016,0,0,0-.342-.854,1.679,1.679,0,0,0-1.04-.267H1.763Z" transform="translate(651.051 15238)" fill="#12263f"/>
    <path id="Trazado_894332" data-name="Trazado 894332" d="M5.449-2.03A2.354,2.354,0,0,1,4.7-.464,2.456,2.456,0,0,1,3.023.088,2.255,2.255,0,0,1,1.206-.725,3.271,3.271,0,0,1,.523-2.9v-.615A3.646,3.646,0,0,1,.842-5.084a2.38,2.38,0,0,1,.9-1.039A2.514,2.514,0,0,1,3.1-6.486a2.312,2.312,0,0,1,1.635.569,2.382,2.382,0,0,1,.716,1.575H4.6a1.838,1.838,0,0,0-.477-1.111A1.443,1.443,0,0,0,3.1-5.8a1.51,1.51,0,0,0-1.268.6,2.746,2.746,0,0,0-.459,1.7v.62a2.823,2.823,0,0,0,.435,1.658A1.406,1.406,0,0,0,3.023-.6,1.624,1.624,0,0,0,4.1-.921a1.768,1.768,0,0,0,.5-1.11Z" transform="translate(393.051 15247)" fill="#12263f"/>
    <path id="Trazado_894333" data-name="Trazado 894333" d="M5.449-2.03A2.354,2.354,0,0,1,4.7-.464,2.456,2.456,0,0,1,3.023.088,2.255,2.255,0,0,1,1.206-.725,3.271,3.271,0,0,1,.523-2.9v-.615A3.646,3.646,0,0,1,.842-5.084a2.38,2.38,0,0,1,.9-1.039A2.514,2.514,0,0,1,3.1-6.486a2.312,2.312,0,0,1,1.635.569,2.382,2.382,0,0,1,.716,1.575H4.6a1.838,1.838,0,0,0-.477-1.111A1.443,1.443,0,0,0,3.1-5.8a1.51,1.51,0,0,0-1.268.6,2.746,2.746,0,0,0-.459,1.7v.62a2.823,2.823,0,0,0,.435,1.658A1.406,1.406,0,0,0,3.023-.6,1.624,1.624,0,0,0,4.1-.921a1.768,1.768,0,0,0,.5-1.11Z" transform="translate(482.051 15248)" fill="#12263f"/>
    <path id="Trazado_894334" data-name="Trazado 894334" d="M5.449-2.03A2.354,2.354,0,0,1,4.7-.464,2.456,2.456,0,0,1,3.023.088,2.255,2.255,0,0,1,1.206-.725,3.271,3.271,0,0,1,.523-2.9v-.615A3.646,3.646,0,0,1,.842-5.084a2.38,2.38,0,0,1,.9-1.039A2.514,2.514,0,0,1,3.1-6.486a2.312,2.312,0,0,1,1.635.569,2.382,2.382,0,0,1,.716,1.575H4.6a1.838,1.838,0,0,0-.477-1.111A1.443,1.443,0,0,0,3.1-5.8a1.51,1.51,0,0,0-1.268.6,2.746,2.746,0,0,0-.459,1.7v.62a2.823,2.823,0,0,0,.435,1.658A1.406,1.406,0,0,0,3.023-.6,1.624,1.624,0,0,0,4.1-.921a1.768,1.768,0,0,0,.5-1.11Z" transform="translate(629.051 15221)" fill="#12263f"/>
    <path id="Trazado_894335" data-name="Trazado 894335" d="M.743,0V-6.4H2.549a2.908,2.908,0,0,1,1.477.369,2.5,2.5,0,0,1,.991,1.05A3.419,3.419,0,0,1,5.37-3.415v.409a3.431,3.431,0,0,1-.349,1.586,2.457,2.457,0,0,1-1,1.046A3.093,3.093,0,0,1,2.514,0Zm.844-5.708V-.69h.888A1.931,1.931,0,0,0,3.992-1.3a2.508,2.508,0,0,0,.543-1.729V-3.4a2.547,2.547,0,0,0-.512-1.7,1.822,1.822,0,0,0-1.452-.614Z" transform="translate(405.051 15241)" fill="#12263f"/>
    <path id="Trazado_894336" data-name="Trazado 894336" d="M.743,0V-6.4H2.549a2.908,2.908,0,0,1,1.477.369,2.5,2.5,0,0,1,.991,1.05A3.419,3.419,0,0,1,5.37-3.415v.409a3.431,3.431,0,0,1-.349,1.586,2.457,2.457,0,0,1-1,1.046A3.093,3.093,0,0,1,2.514,0Zm.844-5.708V-.69h.888A1.931,1.931,0,0,0,3.992-1.3a2.508,2.508,0,0,0,.543-1.729V-3.4a2.547,2.547,0,0,0-.512-1.7,1.822,1.822,0,0,0-1.452-.614Z" transform="translate(468.051 15244)" fill="#12263f"/>
    <path id="Trazado_894337" data-name="Trazado 894337" d="M.743,0V-6.4H2.549a2.908,2.908,0,0,1,1.477.369,2.5,2.5,0,0,1,.991,1.05A3.419,3.419,0,0,1,5.37-3.415v.409a3.431,3.431,0,0,1-.349,1.586,2.457,2.457,0,0,1-1,1.046A3.093,3.093,0,0,1,2.514,0Zm.844-5.708V-.69h.888A1.931,1.931,0,0,0,3.992-1.3a2.508,2.508,0,0,0,.543-1.729V-3.4a2.547,2.547,0,0,0-.512-1.7,1.822,1.822,0,0,0-1.452-.614Z" transform="translate(610.051 15206)" fill="#12263f"/>
    <path id="Trazado_894338" data-name="Trazado 894338" d="M4.844-3.286H1.763v2.52H5.342V0H.825V-7.109H5.293v.767H1.763v2.29H4.844Z" transform="translate(420.051 15236)" fill="#12263f"/>
    <path id="Trazado_894339" data-name="Trazado 894339" d="M4.844-3.286H1.763v2.52H5.342V0H.825V-7.109H5.293v.767H1.763v2.29H4.844Z" transform="translate(446.051 15237)" fill="#12263f"/>
    <path id="Trazado_894340" data-name="Trazado 894340" d="M4.844-3.286H1.763v2.52H5.342V0H.825V-7.109H5.293v.767H1.763v2.29H4.844Z" transform="translate(590.051 15191)" fill="#12263f"/>
    <path id="Trazado_894341" data-name="Trazado 894341" d="M1.9-3.994h.679a1.492,1.492,0,0,0,1.006-.337,1.126,1.126,0,0,0,.366-.884A1.1,1.1,0,0,0,2.71-6.465a1.3,1.3,0,0,0-.935.334,1.171,1.171,0,0,0-.349.886h-.9a1.814,1.814,0,0,1,.618-1.4,2.25,2.25,0,0,1,1.57-.559,2.224,2.224,0,0,1,1.577.532A1.923,1.923,0,0,1,4.858-5.2a1.561,1.561,0,0,1-.3.9,1.813,1.813,0,0,1-.818.649,1.747,1.747,0,0,1,.906.615,1.709,1.709,0,0,1,.32,1.05A1.939,1.939,0,0,1,4.341-.464,2.34,2.34,0,0,1,2.715.1,2.4,2.4,0,0,1,1.086-.444,1.8,1.8,0,0,1,.459-1.875h.908a1.162,1.162,0,0,0,.366.9,1.393,1.393,0,0,0,.981.337,1.367,1.367,0,0,0,1-.342,1.317,1.317,0,0,0,.347-.981,1.2,1.2,0,0,0-.381-.952,1.659,1.659,0,0,0-1.1-.342H1.9Z" transform="translate(737.051 15191)" fill="#12263f"/>
    <path id="Trazado_894342" data-name="Trazado 894342" d="M1.9-3.994h.679a1.492,1.492,0,0,0,1.006-.337,1.126,1.126,0,0,0,.366-.884A1.1,1.1,0,0,0,2.71-6.465a1.3,1.3,0,0,0-.935.334,1.171,1.171,0,0,0-.349.886h-.9a1.814,1.814,0,0,1,.618-1.4,2.25,2.25,0,0,1,1.57-.559,2.224,2.224,0,0,1,1.577.532A1.923,1.923,0,0,1,4.858-5.2a1.561,1.561,0,0,1-.3.9,1.813,1.813,0,0,1-.818.649,1.747,1.747,0,0,1,.906.615,1.709,1.709,0,0,1,.32,1.05A1.939,1.939,0,0,1,4.341-.464,2.34,2.34,0,0,1,2.715.1,2.4,2.4,0,0,1,1.086-.444,1.8,1.8,0,0,1,.459-1.875h.908a1.162,1.162,0,0,0,.366.9,1.393,1.393,0,0,0,.981.337,1.367,1.367,0,0,0,1-.342,1.317,1.317,0,0,0,.347-.981,1.2,1.2,0,0,0-.381-.952,1.659,1.659,0,0,0-1.1-.342H1.9Z" transform="translate(737.051 15224)" fill="#12263f"/>
    <path id="Trazado_894343" data-name="Trazado 894343" d="M1.9-3.994h.679a1.492,1.492,0,0,0,1.006-.337,1.126,1.126,0,0,0,.366-.884A1.1,1.1,0,0,0,2.71-6.465a1.3,1.3,0,0,0-.935.334,1.171,1.171,0,0,0-.349.886h-.9a1.814,1.814,0,0,1,.618-1.4,2.25,2.25,0,0,1,1.57-.559,2.224,2.224,0,0,1,1.577.532A1.923,1.923,0,0,1,4.858-5.2a1.561,1.561,0,0,1-.3.9,1.813,1.813,0,0,1-.818.649,1.747,1.747,0,0,1,.906.615,1.709,1.709,0,0,1,.32,1.05A1.939,1.939,0,0,1,4.341-.464,2.34,2.34,0,0,1,2.715.1,2.4,2.4,0,0,1,1.086-.444,1.8,1.8,0,0,1,.459-1.875h.908a1.162,1.162,0,0,0,.366.9,1.393,1.393,0,0,0,.981.337,1.367,1.367,0,0,0,1-.342,1.317,1.317,0,0,0,.347-.981,1.2,1.2,0,0,0-.381-.952,1.659,1.659,0,0,0-1.1-.342H1.9Z" transform="translate(737.051 15240)" fill="#12263f"/>
    <path id="Trazado_894344" data-name="Trazado 894344" d="M1.9-3.994h.679a1.492,1.492,0,0,0,1.006-.337,1.126,1.126,0,0,0,.366-.884A1.1,1.1,0,0,0,2.71-6.465a1.3,1.3,0,0,0-.935.334,1.171,1.171,0,0,0-.349.886h-.9a1.814,1.814,0,0,1,.618-1.4,2.25,2.25,0,0,1,1.57-.559,2.224,2.224,0,0,1,1.577.532A1.923,1.923,0,0,1,4.858-5.2a1.561,1.561,0,0,1-.3.9,1.813,1.813,0,0,1-.818.649,1.747,1.747,0,0,1,.906.615,1.709,1.709,0,0,1,.32,1.05A1.939,1.939,0,0,1,4.341-.464,2.34,2.34,0,0,1,2.715.1,2.4,2.4,0,0,1,1.086-.444,1.8,1.8,0,0,1,.459-1.875h.908a1.162,1.162,0,0,0,.366.9,1.393,1.393,0,0,0,.981.337,1.367,1.367,0,0,0,1-.342,1.317,1.317,0,0,0,.347-.981,1.2,1.2,0,0,0-.381-.952,1.659,1.659,0,0,0-1.1-.342H1.9Z" transform="translate(737.051 15208)" fill="#12263f"/>
    <path id="Trazado_894345" data-name="Trazado 894345" d="M1.9-3.994h.679a1.492,1.492,0,0,0,1.006-.337,1.126,1.126,0,0,0,.366-.884A1.1,1.1,0,0,0,2.71-6.465a1.3,1.3,0,0,0-.935.334,1.171,1.171,0,0,0-.349.886h-.9a1.814,1.814,0,0,1,.618-1.4,2.25,2.25,0,0,1,1.57-.559,2.224,2.224,0,0,1,1.577.532A1.923,1.923,0,0,1,4.858-5.2a1.561,1.561,0,0,1-.3.9,1.813,1.813,0,0,1-.818.649,1.747,1.747,0,0,1,.906.615,1.709,1.709,0,0,1,.32,1.05A1.939,1.939,0,0,1,4.341-.464,2.34,2.34,0,0,1,2.715.1,2.4,2.4,0,0,1,1.086-.444,1.8,1.8,0,0,1,.459-1.875h.908a1.162,1.162,0,0,0,.366.9,1.393,1.393,0,0,0,.981.337,1.367,1.367,0,0,0,1-.342,1.317,1.317,0,0,0,.347-.981,1.2,1.2,0,0,0-.381-.952,1.659,1.659,0,0,0-1.1-.342H1.9Z" transform="translate(737.051 15177)" fill="#12263f"/>
  </g>
</svg>
