<svg xmlns="http://www.w3.org/2000/svg" xmlns:xlink="http://www.w3.org/1999/xlink" width="820" height="421" viewBox="0 0 820 421">
  <defs>
    <clipPath id="clip-path">
      <rect id="Rect치ngulo_402438" data-name="Rect치ngulo 402438" width="670.135" height="318.761" fill="none"/>
    </clipPath>
  </defs>
  <g id="Grupo_1102594" data-name="Grupo 1102594" transform="translate(-180.051 -15687)">
    <path id="Trazado_894346" data-name="Trazado 894346" d="M20,0H800a20,20,0,0,1,20,20V401a20,20,0,0,1-20,20H20A20,20,0,0,1,0,401V20A20,20,0,0,1,20,0Z" transform="translate(180.051 15687)" fill="#e4def6"/>
    <path id="Imagen_4_upscayl_4x_digital-art-4x" data-name="Imagen 4_upscayl_4x_digital-art-4x" d="M20,0H714a20,20,0,0,1,20,20V331a20,20,0,0,1-20,20H20A20,20,0,0,1,0,331V20A20,20,0,0,1,20,0Z" transform="translate(223.051 15722)" fill="#fff"/>
    <g id="Grupo_1102535" data-name="Grupo 1102535" transform="translate(255.433 15738.191)" clip-path="url(#clip-path)">
      <path id="Trazado_893846" data-name="Trazado 893846" d="M191.8,22.144c-.809-.336-.641-1.306-.848-1.967-2.161-6.893-6.257-13.287-12.4-17.248C175.049.675,169,.754,165.03,1.633c-3.6.8-9.153,6.37-10.6,9.734-4.976,11.535-4.408,22.385.49,33.806,3.459,8.065,13.074,16.052,22.312,13.243a21.179,21.179,0,0,0,14.3-16.578c.67-4.09-.008-7.3-.217-11.236-.1-1.9.4-3.866.258-5.9-.069-1.01-.211-2.22-1.486-1.462-.277.164-1.6,2.513-2.075,3.07-1.565,1.842-4.382,3.368-6.865,2.932a1.421,1.421,0,0,1-.857-.61c.558-.635,1.475-.286,2.264-.428,3.225-.583,3.331-2.02,5.2-4.109,1.606-1.793,4.784-3.054,5.04.362.163,2.186-.39,4.333-.267,6.393.058.96.429,1.99.5,2.926a46.8,46.8,0,0,1-.058,7.787,14.02,14.02,0,0,1-.753,1.7c-.369,1.2-.529,2.515-.962,3.694a23.888,23.888,0,0,1-6.259,8.871c1.347,2.8,1.131,6.014,1.724,9,1,5.027,3.816,9.45,6.784,13.514a56.766,56.766,0,0,0-3.669,4.923c-4.206,5.317-8.269,6.815-15,5.2-3.709-.888-7.973-1.99-10.851-4.551a10.322,10.322,0,0,1-2.335,1.308c-7.6,3.364-16.037,6-23.9,8.7-11.106,3.815-22.385,7.239-33.443,11.158-3.509,1.243-6.852,3.011-10.3,4.4-.388.285-.266.7-.133,1.117.56,1.743,1.756,3.843,2.459,5.628,3.588,9.1,7.173,18.324,10.426,27.552.913,2.589,1.3,5.308,2.129,7.917,1.07,3.367,2.509,6.557,3.435,10.042,3.7,13.939,7.169,28.054,10.294,42.14.807,3.637,1.009,7.256,1.6,10.9.383,2.364,1.513,5.256,2.083,7.717a175.672,175.672,0,0,1,3.986,22.721c.124,1.285-.027,4.323.287,5.347.2.656,1.525,1.674,1.92,2.245.9,1.3-.048,3.724-1.242,4.648-8.886,6.884-14.542,19.6-19.058,29.7-.687,1.537-1.638,3.025-2.3,4.564-1.159,2.709-1.624,5.337-3.012,8.014-.7,1.348-1.9,4.027-3.559,3.913-.237-.231,1.322-3.638,1.58-4.176.2-.424.8-.844.515-1.22-2.168-1.505-4.362-2.947-6.382-4.651-1.95-1.646-7.786-7.811-9.669-8.219-.681-.147-1.3-.065-1.982-.229-1.009-.243-.379-.717.3-.936a4.006,4.006,0,0,1,3.8.277c3.266,1.682,5.731,4.383,9.947,3.665,2.1-.358,5.82-3.289,6.841-5.167,2.511-4.616,4.241-9.719,6.707-14.368l.1-.731a6.6,6.6,0,0,1-1.625-.706c-9.3-5.165-19-9.437-28.585-14.054-2.544-1.225-5.22-2.184-7.687-3.586-1.7-.967-1.044-1.015-3.069-1.317-1.7-.254-4.054-2.088-5.666-2.936-13.041-6.852-25.281-13.189-37.5-21.559C21.53,217.289,10.358,209.163,2.1,201.367c-1.88-1.775-2.832-2.113-1.419-4.615,1.505-2.664,3.951-5.411,5.792-7.93a377.2,377.2,0,0,1,24.424-29.974c14.069-15.588,30.419-29,47.408-41.3,3.155-2.285,6.294-4.73,9.6-6.819,6.432-4.066,15.236-6.255,22.411-8.712,3.034-1.038,5.942-2.53,8.993-3.505,11.754-3.76,23.481-7.419,35.058-11.749A44.751,44.751,0,0,0,163,82.654a13.713,13.713,0,0,0,.833-3.332,161.285,161.285,0,0,0,1.516-18.842c.026-.756-.453-1.576-.248-2.411-7.529-3.853-11.874-11.589-14.106-19.508a39.465,39.465,0,0,1,.609-23.65C154.44,6.957,159.085.746,168.145.092c6.994-.5,10.879,1.015,15.94,5.632,4.317,3.938,7.8,10.495,7.712,16.421m-41.54,8.575a.123.123,0,0,0,0,.245.123.123,0,0,0,0-.245m33.7,25.971-4.835,2.392a18.148,18.148,0,0,1-13.054-.433c-.34,3.371-.322,6.784-.488,10.171-.037.743-.439,1.277-.19,2.149.452,1.582.027,1.525-.06,2.991-.175,2.942.432,6-.661,8.828.094,1.177,6.228,3.65,7.471,3.968,5.8,1.484,12.035,2.1,15.981-3.243,1.165-1.9,3.1-3.3,3.924-5.389-.658-1.494-2.04-2.281-2.893-3.719-2.114-3.566-3.355-8.992-4.342-13.055a37.583,37.583,0,0,1-.853-4.661M92.047,110.1c-.156-.17-1.873.93-2.185,1.121-6.85,4.2-13.829,9.433-20.233,14.319C46.045,143.528,27.542,163.793,9.46,187.157c-2.3,2.967-5.181,6.611-7.218,9.689a15.819,15.819,0,0,0-.884,1.578c-.008.577,3.382,2.967,4.051,3.554a288.8,288.8,0,0,0,55.754,38.1c15.832,8.335,32.531,14.905,48.458,23.1,2.074,1.067,4.011,2.41,6.081,3.488,1.251-.783,2.013-2.168,3.187-3.191,1.573-1.37,4.066-3.3,5.774-4.518,1.8-1.287,3.713-1.611,5.125-3.452a2.381,2.381,0,0,0,.723-2.183c-.288-2.289-4.3-5.339-5.862-7.128-2.755-3.144-5.125-6.655-8.1-9.546-2.83-2.753-5.641-6.013-8.567-8.586-1.173-1.03-2.653-1.848-3.8-2.815-1.98-1.667-3.877-3.89-5.888-5.629a261.42,261.42,0,0,0-26.608-19.707c-3.1-2.03-7.145-3.977-10.017-6.157a5.676,5.676,0,0,1-1.48-1.706c-.1-.342.012-.432.35-.351a17.409,17.409,0,0,1,3,1.413c2.6,1.4,5.407,3.23,7.9,4.84,6.939,4.479,13.552,9.465,20.238,14.3l1.544-1.631c.334-2.762.56-5.511.779-8.284.269-3.4-.432-7.5-1.042-10.955a45.987,45.987,0,0,1-1.157-6.069c.448.078.419.5.52.825a66.723,66.723,0,0,1,2.416,15.96A11.713,11.713,0,0,1,95,204.063c-.075.843-.662,1.891-.75,2.933-.1,1.147.072,2.394,0,3.554,2.257-.6,4.738-3.433,4.908-5.756A17.668,17.668,0,0,0,98.9,202.6c-.08-2.8.214-5.828.014-8.59-.222-3.065-.979-7.137-1.54-10.221-.637-3.5-1.707-6.92-2.336-10.409-.086-.475.022-.3.439-.315,1.338,5.454,2.594,10.993,3.408,16.563.382,2.617.8,5.685,1.008,8.3.131,1.661-.178,3.356.244,5.025.631-.466,1.217-1.249,1.952-.37l-.891,1.962c3.78,8.719,11.935,14.2,18.795,20.33a21.534,21.534,0,0,1,3.4,3.436,20.178,20.178,0,0,0,2.351,2.572c.275.241.4.588.857.489.28-.307-1.931-6.939-2.145-8.022-.807-4.088-.96-8.3-1.894-12.562-1.573-7.185-3.007-14.436-4.605-21.611-1-4.472-2.628-8.926-3.787-13.365-.979-3.752-1.612-7.587-2.64-11.325-2.392-8.7-5.464-17.113-8.462-25.6-2.3-6.507-4.319-12.819-6.984-19.233-1.325-3.191-3-6.266-4.041-9.559m.738,103.388a.99.99,0,0,1,.611.245c12.452,10.127,24.109,20.648,34.061,33.328l2.086,1.588a1.285,1.285,0,0,1-.254-.97,64.5,64.5,0,0,0-1.816-11.905c-.621-2.6-3.794-5.588-5.764-7.468-6.464-6.166-14.864-11.529-19.715-19.246-.4-.633-.944-2.662-1.742-1.948-.74.662-1.338,2.06-2.2,2.7Zm32.229,47.291c-1.367,1.388-3.832,2.129-5.152,3.424-6.3,6.18-8.609,22.971-17.263,25.127a12.933,12.933,0,0,1-3.333.366c-.846-.041-1.706-.364-2.557-.379a49.244,49.244,0,0,0,9.464,7.7c.45.1.709-.711.872-1.038,1.435-2.9,2.226-6.354,3.586-9.4,2.205-4.941,4.78-9.678,7.441-14.366.539-.949.93-1.99,1.473-2.938Z" transform="translate(0 0)" fill="#161615"/>
      <path id="Trazado_893847" data-name="Trazado 893847" d="M508.825,113.812c1.325,2.2,2.945,4.207,4.211,6.447a155.937,155.937,0,0,1,11.725,26.008c.716,2.142.976,4.166,1.587,6.254,1.17,4,2.7,7.9,3.731,11.95,1.395,5.485,2.515,13.229,4.978,18.256.1.212.484.146.5.325.762,9.774,4.853,18.47,7.024,27.969.708,3.094-.841,7.488-1.767,10.593-.752,2.523-1.8,4.994-2.508,7.538-1.968,7.037-2.989,14.525-4.787,21.674-1.908,7.585-1.983,15.537-2.876,23.34-.5,4.376-1.247,8.578-1.476,12.979-.145,2.78,1.508,5.632,0,7.844.229,1.557-.433,3.158-.258,4.668.125,1.074,1.267,1.136.968,2.291-1.691.564-3.241,1.7-4.879,2.348-5.137,2.029-11.612,1.344-17.043,1.583-.521.023-2.8.715-2.56-.352.192-.861,2.9-1.886,3.732-2.151a24.753,24.753,0,0,1,13.178-.917c-.428-1.2-1.176-2.532-1.544-3.722-1.038-3.349-2.163-6.69-3.179-10.052A84.181,84.181,0,0,1,514.7,274.53c-1.285.534-3.147,2.3-4.535,2.229a4.32,4.32,0,0,1-1.841-1.121c-1.167-.976-2.446-2.439-3.554-3.553-4.378-4.4-8.5-8.937-12.734-13.486-3.81-4.1-8.25-7.624-12.02-11.749-4.322-4.728-8.467-9.685-12.745-14.455-8.4-9.371-17.475-18.913-24.479-29.429-1.093-1.641-1.994-2.49-.633-4.259,1.052-1.368,2.436-2.674,3.532-4.065,5.1-6.47,9.283-13.537,13.909-20.4,2.49-3.692,5.233-7.228,7.658-10.964,3.982-6.136,7.373-12.169,11.806-18.088,4.835-6.456,10.345-13.322,15.543-19.5A93.532,93.532,0,0,1,505.519,114.3c4.489-3.754,12.371-3.933,17.828-5.943,5.435-2,11.663-4.864,17.016-7.245,5.868-2.611,11.5-5.726,17.433-8.177.143-1.176.659-2.234.9-3.387.269-1.257-.255-2.068,1.345-2.817.1-.465-.2-.492-.5-.247-.262.213-.05.812-.726.616a13.519,13.519,0,0,1,.464-4.311c.069-.38-.051-.836.055-1.175.128-.411.987-.182.71-1.225-.047-.175-.368-.123-.428-.2-.385-.493.163-2.523.19-3.245a56.9,56.9,0,0,0-.3-9.03,72.477,72.477,0,0,1-6.208-5.554c-9.334-10.487-11.574-30.041-4.818-42.311.925-1.679,3.093-5.469,4.475-6.552,1.58-1.238,6.761-3.818,8.7-4.04,2.723-.312,7.438-.213,9.97.77,6.93,2.691,12.792,10.528,14.817,17.529,1.323,4.578,1.4,10.559,1.55,15.355.31,10.123-.723,13.025-6.525,20.941-.588.8-1.378.928-1.342,2.092.054,1.748,1.144,5.351,1.6,7.241.5,2.082,1.049,4.609,1.726,6.6.925,2.725,3.169,4.4,4.494,6.776.653,1.172-.326,2.346-.989,3.352-1.7,2.58-4.6,6.218-7.384,7.564-4.629,2.238-10.649.692-15.249-1.022-1.331-.5-3.657-1.931-4.7-2.159a4.266,4.266,0,0,0-1.611,0,37.108,37.108,0,0,0-5.982,2.348c-4.127,1.812-8.051,4.154-12.163,5.971-2.189.967-4.519,1.637-6.708,2.6-2.567,1.134-4.955,2.71-7.611,3.661-2.9,1.039-6.144,1.557-9.133,2.386-2.555.708-5.067,1.55-7.6,2.33m77.2-81.838c-1.661-9.1-8.044-20.187-18.253-21.064-8.5-.73-15.29,3.168-18.8,10.858-4.991,10.95-4.31,21.345.49,32.185,2.449,5.532,8.378,12.943,14.649,14.021,16.14,2.775,24.46-11.638,22.342-26.009-.139-.943-.992-1.9-.3-2.655l.609.022a25.167,25.167,0,0,0-.49-6.371c-.381-.439-3.308,2.394-3.672,2.821-1.134,1.331-1.559,3.01-3.575,3.286a14.592,14.592,0,0,1-2.4-.019l-.4-.7a12.675,12.675,0,0,0,4.889-2.1c1.652-1.3,2.073-4.294,4.91-4.283M587,40.31c.17-.375-.121-1-.242-.733-.17.375.121,1,.242.733m-8.087,25.972L574.639,68.5a25.348,25.348,0,0,1-8.082,1.2l-5.774-1.453.011,5.745a123.618,123.618,0,0,1-1.009,18.393l.256.736c3.059,1.192,6.2,2.675,9.317,3.669,3.846,1.225,6.039,1.793,9.726-.326,3.612-2.075,5.787-5.749,8.18-8.986-.635-1.251-2.083-1.747-2.916-2.978-1.673-2.472-5.07-13.314-5.405-16.4-.066-.6-.013-1.21-.025-1.812M559.8,84.655c.17-.375-.121-1-.241-.733-.171.375.121,1,.241.733M526.453,265.928c.2-.276-2.044-5.046-2.388-5.776-8.192-17.377-19.268-32.166-32.023-46.387-.5-.552-2.8-2.547-2.774-3.062a73.271,73.271,0,0,1,14.919-12.717,186.192,186.192,0,0,1,23.831-12.926c.757-.352,4.956-1.89,5.046-2.307-.711-2.2-1.3-4.453-1.819-6.707a273.061,273.061,0,0,0-8.509-30.449c-3.911-10.871-8.436-21.656-15.256-31.041a27.009,27.009,0,0,0-2.709,2.184,160.827,160.827,0,0,0-12.609,14.1c-6.76,8.414-13.588,17.312-19.468,26.354-4.488,6.9-8.958,13.668-13.578,20.482-5.1,7.524-9.868,15.313-15.61,22.373l-.13.6c1.376,2.273,2.831,4.5,4.426,6.624,8.53,11.362,18.283,21.715,27.82,32.215q12.292,13.534,25.244,26.459c2.364,2.36,4.8,5.341,7.218,7.484.446.4,2.1,1.836,2.539,1.786a12.213,12.213,0,0,0,1.8-.889c2.286-1.282,4.544-3.038,6.864-4.408,2.353-1.389,4.871-2.5,7.167-3.993m7.368-81.559c-.285-.4-7.1,3.359-7.918,3.722a117.743,117.743,0,0,0-12.5,5.88c-6.476,3.752-14.113,8.4-19.167,13.914-.857.935-1.729,2.074-2.531,3.07,7.4,8.95,15.349,17.509,21.634,27.334,5.014,7.84,11.012,18.025,14.286,26.634.113.3.123.587.438.784a10.5,10.5,0,0,0,3.066-6.977,79.892,79.892,0,0,1,1.831-13.115c1.776-7.64,3.324-16.02,5.759-23.4.815-2.472,2.891-6.643,2.96-9.068.07-2.494-1.907-6.57-2.716-9.05-.642-1.969-1.354-3.953-1.886-5.955-1.209-4.552-1.864-9.268-3.257-13.774M530.391,264c-.423-.084-.608.221-.862.484a24.463,24.463,0,0,0-2.087,2.583l1.481,4.772c.4.064.237-.33.244-.607a13.094,13.094,0,0,1,.006-1.712c.069-.395.4-.647.5-.975a21.9,21.9,0,0,0,.722-4.544m-3.154,27.96,1.681-1.134c-.456-.966-1.571.121-1.715-.977a24.343,24.343,0,0,1-.254-3.934c.209-4.317.707-8.373.259-12.731a17.786,17.786,0,0,0-1.1-5.018,58.555,58.555,0,0,0-5.929,2.893,32.777,32.777,0,0,0-4.243,2.62c-.145.142-.277.243-.246.474,1.582,3.728,1.653,7.836,2.764,11.706l5.106,16.577a7.571,7.571,0,0,0,3.651-.828l.23-.275c-.474-3.071-.156-6.263-.2-9.373" transform="translate(-152.82 -3.221)" fill="#161615"/>
      <path id="Trazado_893848" data-name="Trazado 893848" d="M889.27,325.159a25.733,25.733,0,0,0,2.587-.354c1.326-.287,2.878-1.529,4.333-2.039.947-.332,1.944-.492,2.9-.788l.569.39.007.813c-2.064.347-3.919,1.549-5.855,2.109-4.324,1.251-12.809,1.809-17.291,1.344-.87-.09-2.623-.438-2.288-1.555.166-.553,3.9-3.656,4.639-4.189a28.768,28.768,0,0,1,7.334-3.573c-.649-1.971-1.5-3.879-2.085-5.877-1.031-3.546-2.092-11.215-3.561-14.038-.111-.214-.485-.151-.5-.321-.071-.873.139-2.324.02-3.408-.169-1.542-.675-3.021-.985-4.529-.5.276-1.053.484-1.544.781-1.218.738-1.544,1.765-2.988.689-2.572-1.916-4.891-5.32-6.988-7.715-8.463-9.662-16.684-19.147-24.745-29.163-5.6-6.963-11.344-13.922-16.524-21.211-2.8-3.94-7.081-9.676-9.173-13.86a3.821,3.821,0,0,1-.528-2.147c.153-1.18,4.019-5.475,5-6.776,6.058-8.043,12.1-16.24,17.992-24.4,4.13-5.718,7.71-11.758,11.948-17.456,11.807-15.877,24.315-31.253,38.738-44.82a89.294,89.294,0,0,0,15.29-6.275c2.064-1.112,3.957-2.793,5.953-3.849,1.444-.764,2.823-1.158,4.316-2.056,2.466-1.482,4.3-3.942,7.108-4.532-.194-2.7.655-5.364.975-7.968.061-.495-.032-.985.02-1.451.561-5.078.152-9.156.007-14.209-.018-.645-.4-1.172.019-1.928-.023-.384-3.1-1.518-3.577-1.865-1.212-.887-2.021-3.079-3.053-4.053-.392-.371-.9-.355-1.248-.712-.834-.855-3.106-5.709-3.708-7.073a38.682,38.682,0,0,1-3.143-14.253C908.733,44.853,910.5,36.7,915.62,30.3c4.68-5.847,9.581-7.55,17.04-7,7.4.549,14.233,8.018,17.314,14.3.909,1.851,1.041,3.88,1.488,5.862a23.276,23.276,0,0,1,.669,5.212c.373,6.8,1.284,17.485-1.826,23.649l-5.478,6.512c.815,5.667,1.245,11.573,4.076,16.675,1.011,1.822,2.976,3.786,3.777,5.541.417.912-.345,1.692-.836,2.456-2.261,3.52-6.719,8.612-11.106,8.988-6.364.544-12.62-2.043-17.861-5.373a25.708,25.708,0,0,1-4.83,4.005c-4.806,3.033-11.279,6.566-16.391,9.094-.981.486-2.37,1.14-3.376,1.525-2.048.782-4.45,1.007-6.334,1.753-.234.093-.467.148-.59.4,1.78,5.509,4.552,10.668,6.374,16.152,3.042,9.158,5.649,18.025,6.614,27.687.168,1.678.042,3.72.241,5.395.373,3.159,1.831,5.994,2.765,9,2.925,9.413,5.548,18.929,8.387,28.366,2.194,7.29,4.766,14.475,6.5,21.912-.172.8-.809,1.26-1.2,2-1.455,2.8-2.95,6.516-4.242,9.479a238.084,238.084,0,0,0-15.813,52.058c-.666,3.505-.857,7.316-1.567,10.684-.109.515-.2,1.361-.832,1.376-1.149-.007-.388-2.106-.357-2.81.15-3.459-.86-6.419-1.848-9.691s-2.517-8.844-3.92-11.762c-.231-.482-1.234-1.95-1.714-1.959l-10.4,6.735a7.9,7.9,0,0,1,1.205,3.921,132.739,132.739,0,0,0,2.264,13.418c.806,3.371,3.076,7.194,3.553,10.656.088.636.294,1.613-.328,2-4.084,1.449-7.965,3.062-10.639,6.635,1.725.263,4.166.483,5.815-.187,2.094-.849,5.84-4.824,7.37-6.6.239-.277.253-.681.784-.562.526.581-3.389,4.23-3.915,4.782l-3.192,2.568c1.967-.1,4.052.135,6.005,0M927.079,24.61c-12.622,1.453-17.471,18.278-16.6,28.963.8,9.935,5.508,22.61,15.269,26.877,9.445,4.129,17.408.07,22.815-7.909,3.782-5.584,2.509-14,2.34-20.422-.163-6.218.468-9.257-2.64-15-4.427-8.185-11.387-13.635-21.179-12.507m-2.393,57.265-.127,24.748a33.117,33.117,0,0,0,9.925,4.288c2.762.63,5.333,1.072,8.014-.082,2.042-.877,6.965-5.634,8.126-7.557.921-1.527.844-1.6-.006-3.1-.794-1.4-1.9-2.719-2.694-4.166-2.751-5.01-3.252-10.86-4.614-16.337a20.994,20.994,0,0,1-4.167,2.57c-1.2.487-5.835,1.713-6.924,1.543Zm-21.369,88.647a80.679,80.679,0,0,0-2.033-12.947,149.8,149.8,0,0,0-7.353-23.03c-1.191-3.032-2.25-6.144-3.68-9.06a11.413,11.413,0,0,1-1.844,1.586,205.116,205.116,0,0,0-19.6,20.833c-17.077,20.7-31.513,43.777-47.8,65.165-.861,1.131-2.075,2.129-2.656,3.484-.124.684,1,2.963,1.391,3.668,4.259,7.7,11.444,16.706,16.958,23.718,10.252,13.039,21.031,25.927,31.975,38.351a72.279,72.279,0,0,0,6.865,7.065,11.241,11.241,0,0,1,2.168-1.23c3.644-2.324,7.61-4.459,11.174-6.96.555-.39,1.837-1.183,1.7-1.888a154.514,154.514,0,0,0-12.119-23.434c-6.441-9.928-12.8-18.741-21.309-26.962a42.987,42.987,0,0,1-3.923-3.92c-.077-.123-.192-.2-.115-.369,1.876-1.168,2.4-3.522,3.477-5.348a122.822,122.822,0,0,1,19.556-24.8c5.284-5.076,10.673-10.124,16.306-14.815,2.1-1.752,4.576-3.374,6.612-5.15,1.441-1.258,2.627-2.965,4.247-3.959m-4.122,129.156a106.872,106.872,0,0,1,1.784-11.08,230.816,230.816,0,0,1,15.083-46.907c1.049-2.394,3.979-7.27,4.216-9.506.42-3.96-3.028-11.706-4.3-15.8-2.757-8.921-5.127-17.982-7.9-26.9-1.44-4.636-3.521-9.108-4.255-13.876-.146-.944-.339-1.894-.469-2.84a56.664,56.664,0,0,1-5.265,4.168c-12.361,9.891-24.972,21.012-34.149,33.973a112.616,112.616,0,0,0-8.563,13.926c1.924,2.146,4.234,3.884,6.2,5.993a164.513,164.513,0,0,1,14.78,19.281c3.93,5.775,8.625,13.043,11.528,19.346,1.571,3.411,2.3,7.707,5.4,10.042.09.429-.567.879-.672,1.25-.239.849,1.539,3.772,1.966,4.8.486,1.166.86,2.376,1.367,3.533Z" transform="translate(-282.667 -8.034)" fill="#161615"/>
      <path id="Trazado_893849" data-name="Trazado 893849" d="M717.259,287.921c-.265-1.925-2.457-6.943-3.385-8.865a44.757,44.757,0,0,0-2.761-4.718A54.572,54.572,0,0,0,700.95,280.2c-.226.322.112,2.241.144,2.812.511,9.161,3.308,17.225,5.942,25.911.267.882.866,2.565-.243,3.082-.864.4-2.92.613-4.122,1.025-2.211.758-5.434,2.554-6.746,4.527a1,1,0,0,0-.234.868c1.155-.037,2.123.335,3.311.247,3.97-.3,7.09-3.88,9.312-6.859.356.392-.128,1.026-.368,1.347-1.476,1.977-4.09,3.558-5.637,5.511a35.438,35.438,0,0,0,7.9-.556c2.958-.607,5.2-3.2,8.522-2.261a2.569,2.569,0,0,1-.977.739c-5.057,2.351-8.773,2.9-14.329,3.071a59.593,59.593,0,0,1-10.184-.5c-.76-.494,2.226-3.409,2.692-3.8,2.653-2.236,6.2-3.315,9.4-4.569l.393-.357c.295-.981-1.578-5.352-1.929-6.6-1.688-5.975-3.09-12.167-4.357-18.185-.312-1.48-.513-2.983-.805-4.464-.173-.211-4.047,2.686-4.652,2.838a.862.862,0,0,1-.828-.171c-1.491-1.853-3.292-3.41-4.938-5.113-16.455-17-32.539-34.089-47.417-52.56a108.635,108.635,0,0,1-7.986-11.372c-.392-.634-2.094-2.687-1.957-3.221,2.872-3.733,5.243-7.821,7.875-11.725,3.3-4.9,6.822-9.54,9.863-14.64,13.926-23.358,29.014-47.768,48.318-67.094,2.061-2.063,5.158-2.352,7.8-3.231,4.7-1.566,9.763-2.912,14.336-4.534,2.819-1,5.383-2.684,8.1-3.909,2.444-1.1,5-1.98,7.444-3.093,2.023-.925,5.286-3.069,7.174-3.608a4.406,4.406,0,0,1,1.482-.114,13.4,13.4,0,0,1,.022-4.508,85.821,85.821,0,0,0,.944-9.113c.041-1.191-.432-3.139-.48-4.383-.1-2.527.178-5.054-.284-7.556-.111-.4-3.11-2.287-3.754-2.863-5.094-4.554-8.668-12.293-10.307-18.852-.232-.931-.225-2.05-.464-2.966a16.923,16.923,0,0,1-.877-3.779c-.162-2.812.47-4.349.922-6.924.516-2.94.635-5.929,2.133-8.648.5-.906,1.412-1.215,1.674-1.775s-.167-.963.034-1.648c.922-3.159,7.79-8.525,10.869-9.484s9.765-.849,12.8.3c8.433,3.206,14.676,12.424,16.111,21.135.524,3.18.224,6.3.3,9.5.115,4.778.857,9.422-.848,14.075-1.737,4.741-3.152,5.632-6.35,9.086-1.042,1.127-.286,2.388-.139,3.775.608,5.741,1.909,10.973,5.284,15.788,1.516,2.162,3.967,3.754,1.332,6.514-2.086,2.186-5.218,5.709-7.77,7.178-3.794,2.184-9.047,1.176-13.066-.074-1.207-.375-7.085-2.861-7.735-3.541-.19-.2-.378-.789-.473-.748-3.507,3.323-8.693,4.4-13.036,6.324-3.008,1.329-5.824,3.143-8.9,4.331-4.671,1.8-10.424,3.6-15.25,5.09-1.5.463-3.066.832-4.6,1.16l4.211,6.937c9.343,18.465,11.76,39.372,15.463,59.512.282,1.535.857,2.961,1.134,4.5,1.491,8.3,1.833,16.229,3.818,24.6.913,3.854,3.048,9.362,3.316,13.1.225,3.146-2.868,10.605-3.8,14.087-1.321,4.923-1.636,9.619-2.644,14.506a83.929,83.929,0,0,0-1.968,11.789,13.407,13.407,0,0,1-1.028,4.081c-.637,2.029-.184,3.987-.362,6.008-.115,1.305-.642,2.812-.739,4.16a68.044,68.044,0,0,0,0,8.58c.229,2.892,2.064,5.3,2.675,8.09l-.586.359-2.086-2.2v5.268c0,.481-1.471.9-1.471.245Zm53.676-248.8a1.069,1.069,0,0,1-.358.745c-1.56,1.756-5.166,5.828-7.415,6.309-1.848.4-4.049-.631-1.607-1.115.449-.089.917-.01,1.36-.111,1.327-.3,2.576-2.12,3.6-3.016.874-.764,4-2.967,4.17-3.916.514-2.923-1.895-7.349-3.471-9.757-4.669-7.138-10.784-11.393-19.69-10.7-3.278.254-8.249,3.063-10.411,5.518-.456.518-3.544,4.415-3.632,4.7C731.791,33.2,729.883,38.6,729.5,44.4c.352,2.3.826,4.587,1.215,6.884.27,1.591.511.922.72,1.473.769,2.03,1.093,5.174,1.884,7.432a40.126,40.126,0,0,0,5.381,8.586c6.278,7.271,18.175,8.608,25.622,2.328,6.212-5.239,7.819-11.672,7.6-19.608-.095-3.357-.128-6.947-.5-10.283-.077-.7.318-1.759-.484-2.086M744.006,99.607c5.208,2.116,10.919,5.54,16.76,4.937,2.6-.269,5.615-3.008,7.476-4.776,1.174-1.115,3.749-3.614,3.382-5.341-1.549-3.189-4.139-5.792-5.29-9.177-1.091-3.2-1.074-6.566-1.825-9.691a17.492,17.492,0,0,1-.93-2.625c-1.588.688-3.061,2.227-4.657,2.815a17.91,17.91,0,0,1-8.34.749c-1.914-.362-3.76-1.078-5.625-1.6-.039.545-.22,1.023-.258,1.582-.365,5.323.393,11.118.023,16.438-.152,2.189-1.027,4.449-.714,6.694M710.4,273.1a153.071,153.071,0,0,0-10.926-21.049,179.118,179.118,0,0,0-20.318-27.22c-.9-.959-6.975-6.672-6.937-7.227,2.013-2.228,3.29-5.009,5-7.443,3.843-5.485,10.717-12.6,15.779-17.057,3.008-2.647,6.737-4.984,9.927-7.472,4.969-3.875,9.684-8.072,15.05-11.424a236.048,236.048,0,0,0-6.168-29.541c-2.22-8.253-4.991-16.291-9.539-23.539-.717-1.144-1.647-2.154-2.278-3.354a39.991,39.991,0,0,0-3.561,2.811c-5.193,4.854-10.508,11.767-14.94,17.4-13.835,17.6-24.564,36.982-36.664,55.714-3.607,5.584-7.511,10.992-11.091,16.6-1.021,1.675-.356,3.042.495,4.567,2.272,4.073,6.087,8.176,9.02,11.808,10.465,12.964,21.322,25.462,32.716,37.61l17.534,17.768c.252.187.477.075.738.015,3.043-.7,6.54-3.613,9.228-5.247,1.728-1.051,4.293-2.713,6.03-3.529a1.9,1.9,0,0,1,.91-.193m8.086-97.018c-.232-.24-1.6.672-1.941.876-2.406,1.454-4.835,3.449-7.1,5.148-12.031,9-24.007,18.352-32.478,30.988a51.457,51.457,0,0,0-2.533,4.765c1.369,1.862,3.2,3.307,4.727,5.013a195.454,195.454,0,0,1,28.1,40.263c1.679,3.234,2.994,6.837,4.729,9.972,1.017,1.838,2.362,3.543,3.357,5.464.816,1.572,1.366,3.3,2.286,4.82.67-2.344.235-4.821.364-7.23.513-9.573,2.471-18.187,4.348-27.5,1.512-7.509,2.628-14.762,5.422-21.982-3.193-10.129-4.17-20.425-5.918-30.8-1.112-6.6-3.044-13.065-3.36-19.794" transform="translate(-218.371 -5.709)" fill="#161615"/>
      <path id="Trazado_893850" data-name="Trazado 893850" d="M340.717,273.766c-.133.146-.578.168-.6.415.435.794.052,1.541.019,2.266-.33,7.205-.473,14.557-.8,21.773-.073,1.593-.135,3.293-.254,4.891-.062.833-.14,2.65-1.225,2.324l-.652-4.428c-5.394-2.406-10.833-5.295-16.751-6.109.172-.515.825-.646,1.279-.8a31.238,31.238,0,0,1,13.67-1.4c.259-.246-1.479-2.861-1.758-3.263-4.489-6.493-9.686-12.353-12.334-20.01-3.82-1.589-6.714-5.114-9.686-7.958-6.358-6.086-12.435-12.38-18.493-18.753-13.371-14.065-26.94-28.056-37.972-44.114-.7-1.31-.177-1.735.594-2.8,1.383-1.9,2.789-3.249,4.209-5.347,15.094-22.288,28.962-45.959,46.763-66.2,4.77-5.424,9.7-11.638,16.5-14.62,2.1-.921,4.352-1.458,6.463-2.359,4.4-1.88,8.631-4.447,13.31-5.8,11.648-5.271,23.655-9.736,34.918-15.809.611-.825.481-4.088.617-5.263.315-2.709.866-5.359.986-8.079.178-4.007-.184-8-.235-11.976a25.418,25.418,0,0,1-3.563-2.363c-11.747-9.9-14.185-29.89-8.259-43.529,8.234-18.95,31.908-14.06,38.53,3.469,1.071,2.836,1.2,5.777,1.943,8.593a4.848,4.848,0,0,1,.211,2.4c-.1.333-.577.589-.75.964a5.825,5.825,0,0,0-.078,2.893l1.065.585a12.044,12.044,0,0,0-.2,3.454c.022.532.244.993.26,1.455.128,3.8-.965,10.542-2.816,13.851-1.359,2.428-3.474,4.27-5.037,6.491,1.292,4.641,1.516,9.911,3.248,14.4.681,1.762,1.973,3.063,2.991,4.6a21.337,21.337,0,0,1,1.569,2.607c.226,1.011-.983,2.851-1.572,3.727-1.559,2.321-5.07,6.316-7.7,7.244-6.184,2.179-12.713-.83-18.3-3.256-.925-.4-1.8-1.4-3.028-.923-8.055,4.634-16.627,7.983-25.154,11.608-7.128,3.03-14.149,6.311-21.232,9.4-3.8,1.658-7.955,2.613-11.438,4.977a28.276,28.276,0,0,1,2.983,4.365c2.772,4.662,5.442,9.549,7.926,14.371a97.529,97.529,0,0,1,3.92,9.556c.979,2.457,2.414,4.731,3.309,7.227.7,1.946,1.022,4.015,1.644,5.951,3.565,11.1,7.322,22.338,9.552,33.816,1.466,7.54,2.608,15.163,4.3,22.656.371,1.648,1.434,3.188.868,5.146-2.7,6.333-4.117,12.979-5.894,19.588-1.026,3.815-2.489,7.834-3.3,11.65-.554,2.621-.666,5.318-1.114,7.951-.723,4.245-2.438,9.172-2.85,13.321-.109,1.089.092,4.438-.585,5.178M406.959,25.4c-2.283-7.481-4.92-15.116-12.247-18.992-10-5.291-21.23-2.311-25.86,8.216-5.162,11.735-4.274,22.286,1.055,33.73,2.047,4.4,6.764,9.951,11.432,11.6,13.217,4.674,25.076-4.592,25.877-18.006.224-3.732-.486-6.558-.757-10.046-.163-2.116.764-3.757.141-5.775-.464-.806-1.6.579-1.973.982-2.258,2.464-3.992,5.8-8.048,5.116-1.478-1.694.2-.9,1.121-.992,2.574-.264,4.445-3.568,6.192-5.1,1.138-1,1.538-1.157,3.068-.73m-7.6,33.81c-.191-.255-3.735,1.9-4.345,2.15a18.525,18.525,0,0,1-14.524-.434c-.226,5.2.3,10.635,0,15.805-.024.416-.221.8-.252,1.218-.2,2.735-.507,5.454-.7,8.185,5.734,2.26,10.581,4.795,17.008,4.194,4.731-.443,8.837-6.011,10.86-9.885-1.686-2.451-3.663-4.09-4.8-6.956-1.706-4.3-2.114-9.757-3.244-14.277M350.59,204.5c-.809-5.158-1.3-10.4-2.517-15.49a368.423,368.423,0,0,0-15.082-49.113c-1.265-3.218-3.184-7.07-4.736-10.21a162.843,162.843,0,0,0-9.4-15.835c-2.885,2.737-5.873,5.409-8.584,8.324A178.548,178.548,0,0,0,297.8,137.144c-13.8,18.657-25.526,38.692-39.01,57.534-.654.913-1.571,1.75-2.187,2.714l-.018.253a99.438,99.438,0,0,0,7.742,11.134c7.162,9.145,15.453,17.885,23.4,26.348q11.208,11.942,22.926,23.387c3.221,3.127,6.244,6.453,9.668,9.363l19.216-8.284a2.315,2.315,0,0,0-.08-1.211c-.524-2.151-3.029-6.156-4.1-8.393a186.9,186.9,0,0,0-28.992-43.783c-1.971-2.217-4.559-3.975-5.273-7.1.513-.109.649.1.987.358a30.1,30.1,0,0,1,2.815,2.821c1.646,1.778,3.012,3.838,4.93,5.365a48.914,48.914,0,0,1,10.529-2.886c1.364-.179,2.778-.171,4.146-.265a216.065,216.065,0,0,1,24.764-.262,11.491,11.491,0,0,1,1.334.258m.229,1.732c-2.315-.016-4.683-.769-6.967-1-8.552-.86-21.725.419-30.079,2.765-.467.131-2.887.731-2.883,1.034a13.405,13.405,0,0,1,1.812,2.106c5.052,6.9,10.258,13.982,14.8,21.217a146.071,146.071,0,0,1,8.335,15.433c1,2.09,2.4,4.208,3.278,6.28.366.864,1.414,4.855,2.055,5.051a.6.6,0,0,0,.806-.385c-.219-1.817.377-3.252.7-4.932a328.6,328.6,0,0,1,8.275-32.888,57.359,57.359,0,0,1,2.075-5.767c.263-1.755-.979-1.659-1.106-2.788-.043-.381.259-.577.275-.862.1-1.707-1.113-3.6-1.382-5.265m-9.787,54.619-18.148,7.49a68.006,68.006,0,0,0,3.735,8.756c2.2,3.812,5.205,7.292,7.753,10.87.473.664,2.86,4.611,3.12,4.721.179.075.5.111.614-.135.758-1.708.375-2.866.473-4.632.36-6.461.809-12.469,1.476-18.859.067-.639-.079-1.333-.006-1.966.241-2.081.675-4.173.983-6.244M337.6,299.8v-4.043a3.5,3.5,0,0,0-.389-.873c-3.484-.037-6.988-1.108-10.4.138a41.831,41.831,0,0,1,8.01,3.264c.412.225,2.514,1.788,2.775,1.514" transform="translate(-88.209 -0.807)" fill="#161615"/>
      <path id="Trazado_893851" data-name="Trazado 893851" d="M431.278,181.356l.413-.322c3.558-1.131,9.164.942,10.069,4.789,1.329,5.643-4.427,9.508-9.577,8.583-.375-.067-.9-.415-.9-.8Zm6.54,10.089a11.846,11.846,0,0,0,1.741-3.035c.475-2.169-1.322-4.217-3.21-5.018-1.7-.721-3.449-.8-3.591,1.425-.062.977-.071,2.663-.02,3.655.041.792.4,3.754,1.149,3.994a5.7,5.7,0,0,0,3.932-1.022" transform="translate(-149.29 -62.559)" fill="#161615"/>
      <path id="Trazado_893852" data-name="Trazado 893852" d="M803.6,233.241c1.833-.263,5.666-.3,6.621,1.587.877,1.731-1.6,3.9-1.4,4.57.593.592,1.263.651,1.813,1.388,1.127,1.507.8,2.7-.593,3.79-1.616,1.268-4.024,1.5-6.021,1.352-1.473-.112-1.966-.311-2.084-1.837-.242-3.154.2-6.618.014-9.809.1-.78.99-.947,1.654-1.042m3.671,5.258a3.725,3.725,0,0,0,.8-2.993c-.259-1.483-3.308-1.5-4.369-.816-.5,1.37.022,2.5-.041,3.879.964-.277,2.955.524,3.612-.07m-3.559,5.405c.611.748,4.646.225,5.215-.927,1.192-2.406-3.439-3.418-5-2.913-.349.9-.855,3.062-.22,3.84" transform="translate(-277.569 -80.693)" fill="#161615"/>
      <path id="Trazado_893853" data-name="Trazado 893853" d="M998.4,292.935c-.09-2.034,1.274-3.692,2.005-5.467.742-1.8,1.3-3.715,2.115-5.481,1.041-2.246,1.518-3.333,3.185-.643a53.348,53.348,0,0,1,3.033,6.032c.332.779,1.795,4.652,1.665,5.179l-.49.268c-1.4-.652-1.824-2.251-2.848-3.286l-5.124.057c-1.014.85-1.678,1.966-2.683,2.851-.275.241-.4.588-.857.489m5.879-10.045c-.548-.087-.39.006-.541.313-.245.495-1.607,4.2-1.418,4.342a10.294,10.294,0,0,0,4.168.245Z" transform="translate(-345.603 -96.841)" fill="#161615"/>
      <path id="Trazado_893854" data-name="Trazado 893854" d="M233.674,174.759l-.4,1.727-5.965.241L227.3,179.9h4.289c.122,0,.41-.453.866-.133a1.142,1.142,0,0,1,.218,1.1c-.293.43-4.767.278-5.265.984a9.356,9.356,0,0,0,.136,3.934h6.618c.073.758.031,1.563-.86,1.712a35.714,35.714,0,0,1-5.636,0c-3.125-.264-2.222-1.26-2.324-3.8-.065-1.621-.2-3.266-.25-4.894-.021-.734-.165-3.343.246-3.68a7.937,7.937,0,0,1,.859-.365Z" transform="translate(-77.903 -60.494)" fill="#161615"/>
      <path id="Trazado_893855" data-name="Trazado 893855" d="M276.6,24.83c.112.515-.267.554-.559.787-3.108,2.48-7.175,4.753-8.7,8.7-2.075,5.384-.728,11.538-.059,17.08-.785,2.116-1.14.932-1.4-.545-1.544-8.759-2.5-17.147,5.073-23.456.761-.634,4.948-3.158,5.641-2.567" transform="translate(-91.668 -8.564)" fill="#161615"/>
      <path id="Trazado_893856" data-name="Trazado 893856" d="M629.423,210.033a7.488,7.488,0,0,0-1.947,1.239,5.284,5.284,0,0,0,.227,7.095c2.071,2.351,4.523,1.266,7.233.977.535,1.771-1.966,1.89-3.3,1.971-2.724.167-4.794-.209-6.144-2.7-1.97-3.64-.872-8.8,3.362-10.123,1.65-.515,4.844-1.061,5.6.928l-.378.616c-1.357.195-3.407-.265-4.657,0" transform="translate(-216.192 -72.004)" fill="#161615"/>
      <path id="Trazado_893857" data-name="Trazado 893857" d="M250.98,43.8c1.17,2.3-2.8,1.85-4.225,1.655-2.874-.395-5.918-2.609-8.471-3.9l-.044-.937c1.607.511,2.934,1.6,4.487,2.251a13.5,13.5,0,0,0,8.253.933" transform="translate(-82.469 -14.059)" fill="#161615"/>
      <rect id="Rect치ngulo_402437" data-name="Rect치ngulo 402437" width="0.734" height="0.488" transform="translate(590.551 0.586)" fill="#161615"/>
      <path id="Trazado_893858" data-name="Trazado 893858" d="M92.765,168.379c1.04,3.293,2.716,6.368,4.042,9.559,2.665,6.414,4.684,12.726,6.984,19.233,3,8.484,6.069,16.9,8.461,25.6,1.029,3.738,1.661,7.573,2.64,11.325,1.159,4.439,2.791,8.893,3.787,13.365,1.6,7.175,3.033,14.426,4.606,21.611.934,4.264,1.087,8.474,1.894,12.562.214,1.083,2.425,7.715,2.145,8.022-.454.1-.582-.248-.857-.489a20.189,20.189,0,0,1-2.351-2.573,21.579,21.579,0,0,0-3.4-3.435c-6.86-6.128-15.015-11.611-18.8-20.33l.891-1.963c-.734-.879-1.32-.1-1.951.371-.423-1.67-.114-3.365-.244-5.025-.206-2.617-.626-5.685-1.009-8.3-.814-5.569-2.07-11.108-3.408-16.563-.416.01-.524-.161-.439.315.628,3.49,1.7,6.909,2.336,10.409.561,3.084,1.318,7.156,1.54,10.221.2,2.761-.094,5.785-.014,8.59a17.773,17.773,0,0,1,.265,2.194c-.171,2.323-2.652,5.152-4.909,5.756.069-1.159-.1-2.407,0-3.554.088-1.042.675-2.09.749-2.933a11.716,11.716,0,0,0-.261-1.962,66.724,66.724,0,0,0-2.415-15.96c-.1-.327-.073-.747-.521-.825a46.2,46.2,0,0,0,1.157,6.069c.609,3.455,1.311,7.551,1.042,10.955-.219,2.773-.445,5.522-.779,8.284L92.4,270.533c-6.686-4.838-13.3-9.824-20.238-14.3-2.5-1.611-5.3-3.444-7.9-4.84a17.442,17.442,0,0,0-3-1.414c-.338-.08-.454.01-.35.352a5.676,5.676,0,0,0,1.48,1.706c2.872,2.179,6.914,4.126,10.017,6.157A261.352,261.352,0,0,1,99.014,277.9c2.011,1.739,3.908,3.962,5.888,5.629,1.149.966,2.629,1.784,3.8,2.815,2.926,2.572,5.737,5.832,8.567,8.586,2.972,2.891,5.341,6.4,8.1,9.546,1.567,1.789,5.573,4.838,5.862,7.128a2.381,2.381,0,0,1-.723,2.183c-1.412,1.841-3.326,2.164-5.125,3.452-1.708,1.223-4.2,3.148-5.774,4.518-1.175,1.023-1.935,2.409-3.187,3.191-2.07-1.078-4.007-2.421-6.081-3.488-15.927-8.194-32.625-14.764-48.458-23.1a288.833,288.833,0,0,1-55.754-38.1c-.669-.587-4.058-2.977-4.05-3.554a15.682,15.682,0,0,1,.884-1.578c2.037-3.078,4.921-6.723,7.218-9.689,18.081-23.364,36.585-43.629,60.168-61.618,6.4-4.886,13.384-10.121,20.233-14.319.312-.191,2.03-1.291,2.185-1.121" transform="translate(-0.719 -58.279)" fill="#fff"/>
      <path id="Trazado_893859" data-name="Trazado 893859" d="M271.131,86.7a37.461,37.461,0,0,0,.853,4.661c.987,4.062,2.228,9.489,4.341,13.054.853,1.439,2.236,2.226,2.893,3.719-.825,2.094-2.758,3.493-3.923,5.39-3.946,5.346-10.185,4.727-15.982,3.243-1.242-.318-7.376-2.792-7.47-3.968,1.093-2.827.485-5.887.661-8.829.087-1.467.513-1.409.06-2.991-.249-.871.154-1.405.19-2.149.166-3.386.148-6.8.488-10.171A18.149,18.149,0,0,0,266.3,89.1Z" transform="translate(-87.177 -30.013)" fill="#fff"/>
      <path id="Trazado_893860" data-name="Trazado 893860" d="M176.214,398.838l-5.47,8.5c-.543.948-.934,1.988-1.473,2.938-2.662,4.687-5.236,9.425-7.441,14.366-1.36,3.047-2.151,6.5-3.586,9.4-.162.327-.422,1.141-.872,1.038a49.243,49.243,0,0,1-9.464-7.7c.851.016,1.711.339,2.557.379a12.931,12.931,0,0,0,3.333-.366c8.655-2.156,10.966-18.947,17.263-25.127,1.319-1.295,3.784-2.035,5.152-3.424" transform="translate(-51.199 -138.06)" fill="#fff"/>
      <path id="Trazado_893861" data-name="Trazado 893861" d="M229.741,46.984a.123.123,0,0,1,0,.245.123.123,0,0,1,0-.245" transform="translate(-79.485 -16.264)" fill="#fff"/>
      <path id="Trazado_893862" data-name="Trazado 893862" d="M527.459,321.651c-2.3,1.489-4.815,2.6-7.167,3.992-2.321,1.371-4.578,3.126-6.864,4.408a12.313,12.313,0,0,1-1.8.89c-.441.05-2.094-1.391-2.539-1.786-2.414-2.143-4.855-5.124-7.218-7.484q-12.917-12.9-25.245-26.459c-9.536-10.5-19.29-20.853-27.819-32.215-1.595-2.124-3.05-4.351-4.426-6.624l.13-.6c5.742-7.061,10.509-14.849,15.61-22.374,4.619-6.814,9.09-13.581,13.578-20.482,5.88-9.041,12.708-17.939,19.468-26.353a160.827,160.827,0,0,1,12.609-14.1,26.908,26.908,0,0,1,2.709-2.184c6.82,9.385,11.346,20.169,15.256,31.04a273.257,273.257,0,0,1,8.509,30.449c.517,2.255,1.108,4.506,1.819,6.707-.09.417-4.289,1.956-5.046,2.307a186.2,186.2,0,0,0-23.832,12.927,73.267,73.267,0,0,0-14.918,12.717c-.031.514,2.278,2.509,2.773,3.062,12.755,14.221,23.832,29.01,32.024,46.387.344.73,2.591,5.5,2.388,5.776" transform="translate(-153.825 -58.943)" fill="#fff"/>
      <path id="Trazado_893863" data-name="Trazado 893863" d="M641.111,32.777c-2.837-.011-3.258,2.979-4.91,4.283a12.66,12.66,0,0,1-4.889,2.1l.4.7a14.521,14.521,0,0,0,2.4.019c2.016-.277,2.441-1.956,3.575-3.286.364-.427,3.291-3.26,3.672-2.821a25.129,25.129,0,0,1,.49,6.37l-.609-.022c-.689.755.164,1.713.3,2.655,2.118,14.371-6.2,28.784-22.343,26.009-6.27-1.078-12.2-8.489-14.649-14.021-4.8-10.841-5.481-21.236-.49-32.185,3.506-7.691,10.3-11.589,18.8-10.859,10.209.877,16.592,11.96,18.253,21.064m-6.859-6.362c-.165-.182-.989.479-1.2.632-1.68,1.19-3.153,2.007-4.761,3.081a36.48,36.48,0,0,0-3.938,5.374c-1.553,3.05-2.1,8.756-1.6,12.095a13.532,13.532,0,0,0,.735,1.716c.56,1.793.883,3.756,2.073,5.274.511-.36.387-.8.346-1.319-.348-4.4-2.574-7.235-1.626-11.963.737-3.673,2.077-7.923,5.1-10.339a35.692,35.692,0,0,1,3.252-1.894c1-.653,1.881-1.342,1.63-2.657m-16.666,14.21c-.985-.1-1.831.3-2.825.259-2.041-.075-3.828-1.114-5.583-2.021l-3.11-2.158c.17,3.108,3.875,4.306,6.518,4.63.726.088,1.459-.027,2.184.022.977.065,2.949.958,2.815-.732" transform="translate(-207.909 -4.025)" fill="#fff"/>
      <path id="Trazado_893864" data-name="Trazado 893864" d="M641.552,96.446c.013.6-.041,1.209.025,1.812.335,3.087,3.732,13.929,5.405,16.4.834,1.231,2.281,1.727,2.916,2.978-2.393,3.237-4.568,6.91-8.18,8.986-3.687,2.119-5.88,1.551-9.726.326-3.121-.995-6.259-2.477-9.317-3.669l-.256-.736a123.691,123.691,0,0,0,1.008-18.393l-.01-5.745,5.775,1.453a25.346,25.346,0,0,0,8.081-1.2Z" transform="translate(-215.455 -33.385)" fill="#fff"/>
      <path id="Trazado_893865" data-name="Trazado 893865" d="M566.522,429c.044,3.11-.274,6.3.2,9.373l-.23.275a7.57,7.57,0,0,1-3.651.828L557.735,422.9c-1.112-3.87-1.182-7.978-2.764-11.706-.031-.231.1-.332.246-.474a32.777,32.777,0,0,1,4.243-2.62,58.542,58.542,0,0,1,5.929-2.893,17.786,17.786,0,0,1,1.1,5.018c.448,4.358-.05,8.414-.259,12.731a24.357,24.357,0,0,0,.254,3.934c.145,1.1,1.259.011,1.715.977Z" transform="translate(-192.105 -140.265)" fill="#fff"/>
      <path id="Trazado_893866" data-name="Trazado 893866" d="M575.9,398.826a21.9,21.9,0,0,1-.723,4.544c-.093.328-.427.58-.5.975a12.98,12.98,0,0,0-.006,1.712c-.007.278.156.672-.244.608l-1.481-4.772a24.446,24.446,0,0,1,2.086-2.583c.254-.263.439-.568.862-.484" transform="translate(-198.331 -138.051)" fill="#fff"/>
      <path id="Trazado_893867" data-name="Trazado 893867" d="M622.287,124.125c-.121.267-.412-.358-.242-.734.121-.266.412.358.242.734" transform="translate(-215.307 -42.69)" fill="#fff"/>
      <path id="Trazado_893868" data-name="Trazado 893868" d="M663.893,56.3c-.121.267-.412-.358-.242-.734.121-.266.412.358.242.734" transform="translate(-229.709 -19.213)" fill="#fff"/>
      <path id="Trazado_893869" data-name="Trazado 893869" d="M904.246,224.668c-1.62.994-2.806,2.7-4.247,3.959-2.036,1.777-4.507,3.4-6.612,5.151-5.632,4.691-11.021,9.739-16.306,14.815a122.822,122.822,0,0,0-19.556,24.8c-1.074,1.826-1.6,4.18-3.477,5.348-.076.172.038.246.115.369a43.008,43.008,0,0,0,3.923,3.92c8.511,8.221,14.868,17.035,21.309,26.963a154.505,154.505,0,0,1,12.119,23.434c.136.705-1.146,1.5-1.7,1.888-3.563,2.5-7.53,4.636-11.174,6.96a11.258,11.258,0,0,0-2.168,1.23,72.291,72.291,0,0,1-6.865-7.065c-10.945-12.424-21.724-25.312-31.975-38.35-5.513-7.012-12.7-16.017-16.957-23.719-.39-.7-1.514-2.983-1.391-3.667.582-1.355,1.8-2.353,2.657-3.484,16.283-21.388,30.719-44.465,47.8-65.165a205.129,205.129,0,0,1,19.6-20.832,11.452,11.452,0,0,0,1.844-1.587c1.429,2.916,2.488,6.028,3.68,9.06a149.8,149.8,0,0,1,7.353,23.029,80.625,80.625,0,0,1,2.033,12.947" transform="translate(-283.597 -62.18)" fill="#fff"/>
      <path id="Trazado_893870" data-name="Trazado 893870" d="M976.732,25.273c9.791-1.127,16.751,4.323,21.179,12.507,3.107,5.744,2.476,8.783,2.639,15,.169,6.419,1.443,14.838-2.341,20.422-5.406,7.979-13.368,12.038-22.814,7.909-9.76-4.267-14.464-16.942-15.268-26.876-.866-10.685,3.983-27.51,16.6-28.963M993.7,40.153a1.435,1.435,0,0,0-1.113.233c-3.757,2.4-9.311,7.435-9.679,12.129-.086,1.1.294,2.585.209,3.382-.081.758-.9,1.516-.673,2.369l.947.4a9.834,9.834,0,0,0,.463,7.378c.5.969,1.835,2.319,1.5.216-.228-1.421-1.034-2.943-1.185-4.451-.125-1.253.4-3.267-.774-3.9,1.037-3.005.519-6.146,2.213-9.066a34.805,34.805,0,0,1,4.193-5.118c1.328-1.043,3.841-1.662,3.9-3.571m5.637,6.37c-.454-.1-.582.248-.856.489-1.931,1.694-2.932,3.845-5.513,5.025a26.481,26.481,0,0,1-2.882.8c-.326.108-.585.316-.305.545,2.346.765,4.279-.171,6.01-1.706.649-.576,4.156-4.486,3.546-5.151m-21.321,7.594h-4.044c-.059,0-.273-.2-.507-.228-2.943-.349-5.333-.851-7.09-3.444-.519.363-.5,1.474-.249,1.961.64,1.235,7.3,2.851,8.816,2.947,1.356.085,2.638.274,3.075-1.236" transform="translate(-332.32 -8.697)" fill="#fff"/>
      <path id="Trazado_893871" data-name="Trazado 893871" d="M981.847,111.765l7.532,1.907c1.089.17,5.73-1.056,6.924-1.543a20.946,20.946,0,0,0,4.167-2.57c1.363,5.477,1.863,11.327,4.614,16.337.8,1.448,1.9,2.763,2.695,4.166.851,1.5.928,1.573.006,3.1-1.161,1.924-6.083,6.68-8.126,7.558-2.681,1.153-5.252.711-8.014.081a33.118,33.118,0,0,1-9.925-4.288Z" transform="translate(-339.829 -37.925)" fill="#fff"/>
      <path id="Trazado_893872" data-name="Trazado 893872" d="M711.65,326.715a1.912,1.912,0,0,0-.911.192c-1.737.817-4.3,2.479-6.03,3.53-2.689,1.634-6.185,4.544-9.228,5.247-.262.06-.485.172-.738-.015L677.209,317.9c-11.393-12.149-22.251-24.647-32.716-37.61-2.932-3.633-6.748-7.735-9.02-11.808-.851-1.525-1.517-2.892-.495-4.568,3.579-5.606,7.483-11.013,11.091-16.6,12.1-18.733,22.828-38.116,36.663-55.714,4.432-5.638,9.747-12.551,14.941-17.405a39.886,39.886,0,0,1,3.561-2.81c.63,1.2,1.56,2.211,2.278,3.354,4.547,7.248,7.318,15.286,9.539,23.539a235.9,235.9,0,0,1,6.167,29.541c-5.365,3.352-10.08,7.549-15.05,11.424-3.189,2.487-6.918,4.825-9.927,7.471-5.062,4.453-11.935,11.572-15.778,17.057-1.706,2.435-2.983,5.215-5,7.444-.037.554,6.041,6.267,6.937,7.227a179.069,179.069,0,0,1,20.319,27.219,153.124,153.124,0,0,1,10.926,21.05" transform="translate(-219.623 -59.327)" fill="#fff"/>
      <path id="Trazado_893873" data-name="Trazado 893873" d="M823.165,39.651c.8.327.407,1.39.483,2.086.369,3.336.4,6.926.5,10.283.225,7.936-1.384,14.37-7.6,19.608-7.447,6.281-19.344,4.944-25.621-2.328a40.046,40.046,0,0,1-5.381-8.586c-.79-2.258-1.115-5.4-1.884-7.432-.209-.552-.45.118-.72-1.474-.39-2.3-.864-4.58-1.215-6.884.384-5.794,2.292-11.194,3.984-16.619.088-.284,3.176-4.181,3.632-4.7,2.162-2.455,7.133-5.263,10.41-5.518,8.905-.692,15.02,3.563,19.69,10.7,1.576,2.409,3.984,6.835,3.47,9.758-.167.948-3.3,3.152-4.169,3.915-1.025.9-2.275,2.717-3.6,3.016-.443.1-.911.021-1.36.11-2.442.485-.242,1.511,1.606,1.116,2.249-.481,5.854-4.554,7.415-6.31a1.07,1.07,0,0,0,.359-.745m-6.13-6.124a2.682,2.682,0,0,0-1.173.174c-6.984,1.769-11.32,9.968-10.6,16.861a64.1,64.1,0,0,0,1.058,8.5c.177.722.5,1.409.7,2.122,1.34.2,1.408.041,1.088-1.211a51.988,51.988,0,0,1-1.179-5.926c-.122-.792-.825-1.778-.818-2.269,0-.388.364-.784.363-1.219a10.034,10.034,0,0,1-.2-1.444,20.11,20.11,0,0,1,5.5-11.918c1.4-1.539,3.1-1.422,4.519-2.587.338-.278.821-.569.755-1.081M800.369,47.246h-5.514c-.115,0-1.864-.642-2.174-.767-1.084-.437-3.609-2.344-4.2-2.422-.723-.1-.322.836-.137,1.119,1.216,1.867,5.583,2.891,7.723,3.06,1.115.089,4.249.418,4.3-.99" transform="translate(-270.6 -6.236)" fill="#fff"/>
      <path id="Trazado_893874" data-name="Trazado 893874" d="M803.88,129.488c-.313-2.245.562-4.5.714-6.694.37-5.32-.388-11.115-.024-16.438.039-.56.22-1.037.258-1.582,1.865.526,3.711,1.242,5.625,1.6a17.9,17.9,0,0,0,8.341-.748c1.6-.588,3.069-2.126,4.657-2.815a17.581,17.581,0,0,0,.931,2.625c.751,3.125.734,6.487,1.824,9.691,1.152,3.384,3.741,5.988,5.29,9.177.368,1.726-2.207,4.225-3.381,5.341-1.861,1.768-4.874,4.508-7.476,4.776-5.841.6-11.553-2.821-16.76-4.937" transform="translate(-278.245 -35.59)" fill="#fff"/>
      <path id="Trazado_893875" data-name="Trazado 893875" d="M351.521,263.535a11.464,11.464,0,0,0-1.333-.258,216.043,216.043,0,0,0-24.764.262c-1.368.094-2.782.086-4.147.265a48.9,48.9,0,0,0-10.528,2.887c-1.919-1.527-3.285-3.587-4.93-5.365a30.168,30.168,0,0,0-2.816-2.82c-.338-.256-.475-.467-.987-.358.715,3.123,3.3,4.882,5.274,7.1a186.922,186.922,0,0,1,28.991,43.783c1.072,2.236,3.578,6.242,4.1,8.393a2.319,2.319,0,0,1,.079,1.21l-19.216,8.284c-3.424-2.91-6.448-6.236-9.668-9.363q-11.747-11.406-22.926-23.387c-7.943-8.463-16.234-17.2-23.4-26.347a99.45,99.45,0,0,1-7.742-11.134l.018-.254c.616-.963,1.534-1.8,2.188-2.713,13.484-18.842,25.212-38.878,39.01-57.534A178.8,178.8,0,0,1,311.2,181.21c2.712-2.915,5.7-5.587,8.584-8.323a163,163,0,0,1,9.4,15.835c1.552,3.14,3.472,6.992,4.736,10.21A368.5,368.5,0,0,1,349,248.046c1.215,5.086,1.708,10.331,2.517,15.49" transform="translate(-89.14 -59.846)" fill="#fff"/>
      <path id="Trazado_893876" data-name="Trazado 893876" d="M465.506,26.2c-1.53-.426-1.93-.271-3.068.73-1.746,1.536-3.618,4.84-6.192,5.1-.918.094-2.6-.7-1.121.991,4.056.681,5.79-2.651,8.048-5.116.369-.4,1.51-1.788,1.973-.982.624,2.018-.3,3.66-.141,5.775.271,3.488.981,6.314.757,10.046-.8,13.414-12.66,22.68-25.877,18.006-4.668-1.651-9.385-7.206-11.432-11.6-5.328-11.444-6.217-22-1.055-33.73C432.03,4.9,443.26,1.919,453.259,7.21c7.327,3.877,9.965,11.512,12.247,18.992M447.126,36v7.228c0,.193,1.477,3.182,1.665,3.48.209.33.294.659.785.562-.169-1.215-.124-2.589-.267-3.774-.129-1.065-.819-1.821-.94-2.736-.406-3.059.009-9.168,1.162-12.033a7.992,7.992,0,0,1,3.01-4.1c1.925-1.485,4.071-2.7,6.034-4.133.874-1.846-.439-1.429-1.631-.776-2.233,1.225-5.853,3.881-7.228,6.006a35.456,35.456,0,0,0-2.481,4.869c-.282,1.319.022,2.684-.154,4.011l-1.422,1.27c.418.605.926.369,1.467.123m-5.393-2.694a12.519,12.519,0,0,1-9.545-1.85c-.466-.311-2.434-2.309-2.953-1.826-.43,1.025.7,2.223,1.465,2.824,1.544,1.217,6.019,2.171,7.978,2.092a12.953,12.953,0,0,1,3.057-.261Z" transform="translate(-146.756 -1.609)" fill="#fff"/>
      <path id="Trazado_893877" data-name="Trazado 893877" d="M465.388,89.313c1.13,4.52,1.537,9.978,3.244,14.277,1.138,2.866,3.115,4.5,4.8,6.956-2.024,3.875-6.13,9.442-10.861,9.885-6.427.6-11.274-1.933-17.008-4.193.2-2.73.5-5.45.7-8.185.031-.417.228-.8.252-1.218.3-5.171-.228-10.609,0-15.805a18.524,18.524,0,0,0,14.524.433c.609-.25,4.154-2.4,4.345-2.149" transform="translate(-154.235 -30.909)" fill="#fff"/>
      <path id="Trazado_893878" data-name="Trazado 893878" d="M377.064,397.711c-.308,2.071-.741,4.163-.982,6.244-.074.633.072,1.327.005,1.966-.667,6.39-1.117,12.4-1.476,18.859-.1,1.767.285,2.924-.473,4.633-.109.246-.435.21-.613.135-.261-.11-2.647-4.057-3.12-4.721-2.548-3.578-5.553-7.058-7.754-10.87a68.006,68.006,0,0,1-3.735-8.756Z" transform="translate(-124.241 -137.67)" fill="#fff"/>
      <path id="Trazado_893879" data-name="Trazado 893879" d="M375.715,454.439c-.261.275-2.363-1.289-2.775-1.514a41.831,41.831,0,0,0-8.01-3.264c3.408-1.246,6.912-.175,10.4-.138a3.5,3.5,0,0,1,.389.873Z" transform="translate(-126.323 -155.445)" fill="#fff"/>
      <path id="Trazado_893880" data-name="Trazado 893880" d="M438.573,192.618a5.7,5.7,0,0,1-3.932,1.022c-.749-.241-1.108-3.2-1.149-3.994-.051-.992-.042-2.677.02-3.655.142-2.227,1.892-2.146,3.591-1.425,1.888.8,3.685,2.849,3.21,5.018a11.847,11.847,0,0,1-1.741,3.035" transform="translate(-150.045 -63.732)" fill="#fff"/>
      <path id="Trazado_893881" data-name="Trazado 893881" d="M804.534,247.518c-.635-.778-.13-2.941.22-3.84,1.557-.5,6.187.507,5,2.914-.569,1.151-4.6,1.674-5.215.926" transform="translate(-278.39 -84.307)" fill="#fff"/>
      <path id="Trazado_893882" data-name="Trazado 893882" d="M808.132,239.1c-.656.594-2.648-.207-3.613.07.063-1.378-.458-2.508.041-3.879,1.061-.686,4.11-.667,4.37.816a3.723,3.723,0,0,1-.8,2.993" transform="translate(-278.428 -81.298)" fill="#fff"/>
      <path id="Trazado_893883" data-name="Trazado 893883" d="M1006.352,284.531l2.209,4.9a10.3,10.3,0,0,1-4.168-.245c-.188-.143,1.173-3.847,1.418-4.342.152-.307-.007-.4.541-.312" transform="translate(-347.671 -98.481)" fill="#fff"/>
      <path id="Trazado_893884" data-name="Trazado 893884" d="M645.87,34.228c.251,1.315-.628,2-1.63,2.657a35.686,35.686,0,0,0-3.252,1.894c-3.021,2.416-4.361,6.666-5.1,10.339-.948,4.727,1.278,7.561,1.626,11.963.041.524.165.959-.345,1.319-1.191-1.518-1.514-3.48-2.073-5.274a13.506,13.506,0,0,1-.735-1.716c-.5-3.339.052-9.045,1.6-12.095a36.533,36.533,0,0,1,3.938-5.374c1.607-1.074,3.081-1.891,4.761-3.081.216-.153,1.04-.813,1.2-.632" transform="translate(-219.527 -11.838)" fill="#161615"/>
      <path id="Trazado_893885" data-name="Trazado 893885" d="M620.469,53.9c.134,1.69-1.838.8-2.815.732-.726-.048-1.458.067-2.184-.022-2.643-.324-6.348-1.522-6.518-4.63l3.11,2.158c1.756.907,3.543,1.946,5.583,2.021.994.037,1.839-.356,2.825-.259" transform="translate(-210.793 -17.302)" fill="#161615"/>
      <path id="Trazado_893886" data-name="Trazado 893886" d="M1005.544,48.1c-.059,1.909-2.573,2.528-3.9,3.571a34.825,34.825,0,0,0-4.194,5.118c-1.693,2.919-1.174,6.06-2.212,9.066,1.172.636.648,2.649.774,3.9.151,1.508.957,3.03,1.185,4.451.336,2.1-1,.753-1.5-.216a9.837,9.837,0,0,1-.464-7.378l-.946-.4c-.225-.853.592-1.61.673-2.369.085-.8-.3-2.284-.21-3.382.369-4.694,5.923-9.725,9.68-12.129a1.432,1.432,0,0,1,1.114-.233" transform="translate(-344.165 -16.641)" fill="#161615"/>
      <path id="Trazado_893887" data-name="Trazado 893887" d="M981.15,67.522c-.437,1.51-1.719,1.321-3.075,1.236-1.521-.1-8.176-1.712-8.816-2.947-.252-.486-.27-1.6.249-1.961,1.757,2.593,4.147,3.095,7.09,3.444.234.028.448.228.507.228Z" transform="translate(-335.456 -22.102)" fill="#161615"/>
      <path id="Trazado_893888" data-name="Trazado 893888" d="M1015.022,57.842c.609.665-2.9,4.575-3.547,5.15-1.731,1.535-3.663,2.471-6.011,1.707-.279-.23-.02-.437.305-.545a26.294,26.294,0,0,0,2.882-.8c2.581-1.18,3.582-3.33,5.513-5.024.275-.241.4-.588.857-.489" transform="translate(-348.007 -20.016)" fill="#161615"/>
      <path id="Trazado_893889" data-name="Trazado 893889" d="M829.452,41.728c.067.512-.416.8-.754,1.082-1.418,1.164-3.122,1.047-4.52,2.587a20.107,20.107,0,0,0-5.5,11.918,9.866,9.866,0,0,0,.2,1.444c0,.435-.358.831-.363,1.219-.007.491.7,1.476.818,2.269a51.988,51.988,0,0,0,1.179,5.926c.32,1.251.251,1.412-1.089,1.212-.2-.714-.518-1.4-.7-2.123a63.9,63.9,0,0,1-1.058-8.5c-.719-6.893,3.616-15.091,10.6-16.861a2.68,2.68,0,0,1,1.172-.174" transform="translate(-283.018 -14.438)" fill="#161615"/>
      <path id="Trazado_893890" data-name="Trazado 893890" d="M803.726,61.029c-.05,1.408-3.184,1.079-4.3.99-2.139-.169-6.507-1.193-7.723-3.06-.184-.283-.585-1.216.137-1.119.586.078,3.112,1.986,4.2,2.422.31.125,2.059.767,2.174.767Z" transform="translate(-273.957 -20.019)" fill="#161615"/>
      <path id="Trazado_893891" data-name="Trazado 893891" d="M458.614,43.693c-.541.246-1.049.483-1.467-.122l1.422-1.27c.177-1.327-.128-2.691.154-4.011A35.493,35.493,0,0,1,461.2,33.42c1.374-2.125,4.994-4.781,7.228-6.006,1.191-.653,2.5-1.07,1.631.776-1.963,1.429-4.109,2.649-6.034,4.133a8,8,0,0,0-3.01,4.1c-1.152,2.865-1.567,8.974-1.161,12.033.121.915.811,1.671.94,2.736.143,1.185.1,2.558.267,3.774-.49.1-.576-.231-.785-.561-.188-.3-1.665-3.288-1.665-3.48Z" transform="translate(-158.244 -9.298)" fill="#161615"/>
      <path id="Trazado_893892" data-name="Trazado 893892" d="M444.476,46.5l0,.979a12.954,12.954,0,0,0-3.057.261c-1.959.079-6.434-.874-7.978-2.092-.762-.6-1.895-1.8-1.465-2.824.52-.484,2.488,1.514,2.953,1.826a12.519,12.519,0,0,0,9.545,1.85" transform="translate(-149.499 -14.797)" fill="#161615"/>
    </g>
  </g>
</svg>
