<svg xmlns="http://www.w3.org/2000/svg" xmlns:xlink="http://www.w3.org/1999/xlink" width="505" height="394" viewBox="0 0 505 394">
  <defs>
    <clipPath id="clip-path">
      <rect id="Rectángulo_402450" data-name="Rectángulo 402450" width="413.718" height="299.234" fill="none"/>
    </clipPath>
  </defs>
  <g id="Grupo_1102581" data-name="Grupo 1102581" transform="translate(-180.051 -17127)">
    <path id="Trazado_894396" data-name="Trazado 894396" d="M20,0H485a20,20,0,0,1,20,20V374a20,20,0,0,1-20,20H20A20,20,0,0,1,0,374V20A20,20,0,0,1,20,0Z" transform="translate(180.051 17127)" fill="#e4def6"/>
    <path id="Imagen-1_upscayl_4x_digital-art-4x" d="M20,0H453a20,20,0,0,1,20,20V322a20,20,0,0,1-20,20H20A20,20,0,0,1,0,322V20A20,20,0,0,1,20,0Z" transform="translate(196.051 17153)" fill="#fff"/>
    <path id="Trazado_894397" data-name="Trazado 894397" d="M3.523-1.91h.789v.59H3.523V0H2.8V-1.32H.207v-.426L2.754-5.687h.77Zm-2.5,0H2.8V-4.7l-.086.156Zm5.707,1.4A1.041,1.041,0,0,0,7.41-.746a.825.825,0,0,0,.32-.586h.684a1.31,1.31,0,0,1-.25.691,1.647,1.647,0,0,1-.615.523,1.775,1.775,0,0,1-.814.2A1.741,1.741,0,0,1,5.361-.5a2.3,2.3,0,0,1-.51-1.576V-2.2a2.545,2.545,0,0,1,.227-1.1,1.726,1.726,0,0,1,.65-.746,1.848,1.848,0,0,1,1-.266,1.7,1.7,0,0,1,1.182.426,1.522,1.522,0,0,1,.5,1.105H7.73a1,1,0,0,0-.311-.674.966.966,0,0,0-.689-.264,1.011,1.011,0,0,0-.854.4,1.862,1.862,0,0,0-.3,1.146v.137a1.825,1.825,0,0,0,.3,1.125A1.016,1.016,0,0,0,6.734-.512ZM9.906-4.227l.02.469A1.561,1.561,0,0,1,11.18-4.3a1.208,1.208,0,0,1,1.207.68,1.6,1.6,0,0,1,.549-.492,1.621,1.621,0,0,1,.8-.187q1.391,0,1.414,1.473V0h-.723V-2.789a.97.97,0,0,0-.207-.678.912.912,0,0,0-.7-.225.958.958,0,0,0-.668.24.975.975,0,0,0-.309.646V0H11.82V-2.77a.806.806,0,0,0-.9-.922.967.967,0,0,0-.973.605V0H9.223V-4.227Z" transform="translate(248.051 17189)" fill="#12263f"/>
    <path id="Trazado_894398" data-name="Trazado 894398" d="M3.523-1.91h.789v.59H3.523V0H2.8V-1.32H.207v-.426L2.754-5.687h.77Zm-2.5,0H2.8V-4.7l-.086.156Zm5.707,1.4A1.041,1.041,0,0,0,7.41-.746a.825.825,0,0,0,.32-.586h.684a1.31,1.31,0,0,1-.25.691,1.647,1.647,0,0,1-.615.523,1.775,1.775,0,0,1-.814.2A1.741,1.741,0,0,1,5.361-.5a2.3,2.3,0,0,1-.51-1.576V-2.2a2.545,2.545,0,0,1,.227-1.1,1.726,1.726,0,0,1,.65-.746,1.848,1.848,0,0,1,1-.266,1.7,1.7,0,0,1,1.182.426,1.522,1.522,0,0,1,.5,1.105H7.73a1,1,0,0,0-.311-.674.966.966,0,0,0-.689-.264,1.011,1.011,0,0,0-.854.4,1.862,1.862,0,0,0-.3,1.146v.137a1.825,1.825,0,0,0,.3,1.125A1.016,1.016,0,0,0,6.734-.512ZM9.906-4.227l.02.469A1.561,1.561,0,0,1,11.18-4.3a1.208,1.208,0,0,1,1.207.68,1.6,1.6,0,0,1,.549-.492,1.621,1.621,0,0,1,.8-.187q1.391,0,1.414,1.473V0h-.723V-2.789a.97.97,0,0,0-.207-.678.912.912,0,0,0-.7-.225.958.958,0,0,0-.668.24.975.975,0,0,0-.309.646V0H11.82V-2.77a.806.806,0,0,0-.9-.922.967.967,0,0,0-.973.605V0H9.223V-4.227Z" transform="translate(599.051 17169)" fill="#12263f"/>
    <path id="Trazado_894399" data-name="Trazado 894399" d="M4.039-2.426A3.305,3.305,0,0,1,3.605-.539,1.542,1.542,0,0,1,2.25.078,1.553,1.553,0,0,1,.9-.525a3.137,3.137,0,0,1-.453-1.8v-.965A3.232,3.232,0,0,1,.883-5.156a1.554,1.554,0,0,1,1.359-.609,1.568,1.568,0,0,1,1.352.588,3.119,3.119,0,0,1,.445,1.814Zm-.723-.988a2.648,2.648,0,0,0-.258-1.338.887.887,0,0,0-.816-.42.876.876,0,0,0-.809.418,2.585,2.585,0,0,0-.262,1.285v1.156A2.69,2.69,0,0,0,1.439-.951a.886.886,0,0,0,.811.439.874.874,0,0,0,.795-.414,2.593,2.593,0,0,0,.271-1.3ZM5.055-.379a.453.453,0,0,1,.111-.312A.424.424,0,0,1,5.5-.816a.437.437,0,0,1,.338.125.443.443,0,0,1,.115.313.419.419,0,0,1-.115.3A.445.445,0,0,1,5.5.043a.432.432,0,0,1-.334-.121A.428.428,0,0,1,5.055-.379Zm5.688-4.9L8.387,0H7.629L9.977-5.094H6.9v-.594h3.844Zm2.59,4.77a1.041,1.041,0,0,0,.676-.234.825.825,0,0,0,.32-.586h.684a1.31,1.31,0,0,1-.25.691,1.647,1.647,0,0,1-.615.523,1.775,1.775,0,0,1-.814.2A1.741,1.741,0,0,1,11.959-.5a2.3,2.3,0,0,1-.51-1.576V-2.2a2.545,2.545,0,0,1,.227-1.1,1.726,1.726,0,0,1,.65-.746,1.848,1.848,0,0,1,1-.266,1.7,1.7,0,0,1,1.182.426,1.522,1.522,0,0,1,.5,1.105h-.684a1,1,0,0,0-.311-.674.966.966,0,0,0-.689-.264,1.011,1.011,0,0,0-.854.4,1.862,1.862,0,0,0-.3,1.146v.137a1.825,1.825,0,0,0,.3,1.125A1.016,1.016,0,0,0,13.332-.512ZM16.5-4.227l.02.469A1.561,1.561,0,0,1,17.777-4.3a1.208,1.208,0,0,1,1.207.68,1.6,1.6,0,0,1,.549-.492,1.621,1.621,0,0,1,.8-.187q1.391,0,1.414,1.473V0h-.723V-2.789a.97.97,0,0,0-.207-.678.912.912,0,0,0-.7-.225.958.958,0,0,0-.668.24.975.975,0,0,0-.309.646V0h-.727V-2.77a.806.806,0,0,0-.9-.922.967.967,0,0,0-.973.605V0H15.82V-4.227Z" transform="translate(645.051 17193)" fill="#12263f"/>
    <path id="Trazado_894400" data-name="Trazado 894400" d="M2.848,0H2.121V-4.816L.664-4.281v-.656l2.07-.777h.113ZM5.055-.379a.453.453,0,0,1,.111-.312A.424.424,0,0,1,5.5-.816a.437.437,0,0,1,.338.125.443.443,0,0,1,.115.313.419.419,0,0,1-.115.3A.445.445,0,0,1,5.5.043a.432.432,0,0,1-.334-.121A.428.428,0,0,1,5.055-.379ZM7.4-2.852l.289-2.836h2.914v.668H8.3L8.133-3.469a1.835,1.835,0,0,1,.949-.246,1.569,1.569,0,0,1,1.234.514,2.013,2.013,0,0,1,.457,1.389A1.943,1.943,0,0,1,10.3-.428,1.73,1.73,0,0,1,8.973.078,1.8,1.8,0,0,1,7.742-.34,1.668,1.668,0,0,1,7.2-1.5h.684A1.148,1.148,0,0,0,8.23-.76a1.081,1.081,0,0,0,.742.248.975.975,0,0,0,.791-.344,1.437,1.437,0,0,0,.287-.949,1.319,1.319,0,0,0-.311-.916,1.056,1.056,0,0,0-.826-.346,1.191,1.191,0,0,0-.742.207L7.98-2.7Zm5.93,2.34a1.041,1.041,0,0,0,.676-.234.825.825,0,0,0,.32-.586h.684a1.31,1.31,0,0,1-.25.691,1.647,1.647,0,0,1-.615.523,1.775,1.775,0,0,1-.814.2A1.741,1.741,0,0,1,11.959-.5a2.3,2.3,0,0,1-.51-1.576V-2.2a2.545,2.545,0,0,1,.227-1.1,1.726,1.726,0,0,1,.65-.746,1.848,1.848,0,0,1,1-.266,1.7,1.7,0,0,1,1.182.426,1.522,1.522,0,0,1,.5,1.105h-.684a1,1,0,0,0-.311-.674.966.966,0,0,0-.689-.264,1.011,1.011,0,0,0-.854.4,1.862,1.862,0,0,0-.3,1.146v.137a1.825,1.825,0,0,0,.3,1.125A1.016,1.016,0,0,0,13.332-.512ZM16.5-4.227l.02.469A1.561,1.561,0,0,1,17.777-4.3a1.208,1.208,0,0,1,1.207.68,1.6,1.6,0,0,1,.549-.492,1.621,1.621,0,0,1,.8-.187q1.391,0,1.414,1.473V0h-.723V-2.789a.97.97,0,0,0-.207-.678.912.912,0,0,0-.7-.225.958.958,0,0,0-.668.24.975.975,0,0,0-.309.646V0h-.727V-2.77a.806.806,0,0,0-.9-.922.967.967,0,0,0-.973.605V0H15.82V-4.227Z" transform="translate(207.051 17225)" fill="#12263f"/>
    <path id="Trazado_894401" data-name="Trazado 894401" d="M4.2,0H.473V-.52L2.441-2.707a4.677,4.677,0,0,0,.6-.807,1.346,1.346,0,0,0,.166-.643,1.02,1.02,0,0,0-.27-.73.942.942,0,0,0-.719-.285,1.116,1.116,0,0,0-.838.307,1.171,1.171,0,0,0-.3.854H.363a1.677,1.677,0,0,1,.506-1.27,1.875,1.875,0,0,1,1.354-.484,1.8,1.8,0,0,1,1.254.416,1.419,1.419,0,0,1,.461,1.107,3.253,3.253,0,0,1-1.07,2L1.344-.59H4.2ZM6.734-.512A1.041,1.041,0,0,0,7.41-.746a.825.825,0,0,0,.32-.586h.684a1.31,1.31,0,0,1-.25.691,1.647,1.647,0,0,1-.615.523,1.775,1.775,0,0,1-.814.2A1.741,1.741,0,0,1,5.361-.5a2.3,2.3,0,0,1-.51-1.576V-2.2a2.545,2.545,0,0,1,.227-1.1,1.726,1.726,0,0,1,.65-.746,1.848,1.848,0,0,1,1-.266,1.7,1.7,0,0,1,1.182.426,1.522,1.522,0,0,1,.5,1.105H7.73a1,1,0,0,0-.311-.674.966.966,0,0,0-.689-.264,1.011,1.011,0,0,0-.854.4,1.862,1.862,0,0,0-.3,1.146v.137a1.825,1.825,0,0,0,.3,1.125A1.016,1.016,0,0,0,6.734-.512ZM9.906-4.227l.02.469A1.561,1.561,0,0,1,11.18-4.3a1.208,1.208,0,0,1,1.207.68,1.6,1.6,0,0,1,.549-.492,1.621,1.621,0,0,1,.8-.187q1.391,0,1.414,1.473V0h-.723V-2.789a.97.97,0,0,0-.207-.678.912.912,0,0,0-.7-.225.958.958,0,0,0-.668.24.975.975,0,0,0-.309.646V0H11.82V-2.77a.806.806,0,0,0-.9-.922.967.967,0,0,0-.973.605V0H9.223V-4.227Z" transform="translate(275.051 17194)" fill="#12263f"/>
    <path id="Trazado_894402" data-name="Trazado 894402" d="M4.2,0H.473V-.52L2.441-2.707a4.677,4.677,0,0,0,.6-.807,1.346,1.346,0,0,0,.166-.643,1.02,1.02,0,0,0-.27-.73.942.942,0,0,0-.719-.285,1.116,1.116,0,0,0-.838.307,1.171,1.171,0,0,0-.3.854H.363a1.677,1.677,0,0,1,.506-1.27,1.875,1.875,0,0,1,1.354-.484,1.8,1.8,0,0,1,1.254.416,1.419,1.419,0,0,1,.461,1.107,3.253,3.253,0,0,1-1.07,2L1.344-.59H4.2ZM6.734-.512A1.041,1.041,0,0,0,7.41-.746a.825.825,0,0,0,.32-.586h.684a1.31,1.31,0,0,1-.25.691,1.647,1.647,0,0,1-.615.523,1.775,1.775,0,0,1-.814.2A1.741,1.741,0,0,1,5.361-.5a2.3,2.3,0,0,1-.51-1.576V-2.2a2.545,2.545,0,0,1,.227-1.1,1.726,1.726,0,0,1,.65-.746,1.848,1.848,0,0,1,1-.266,1.7,1.7,0,0,1,1.182.426,1.522,1.522,0,0,1,.5,1.105H7.73a1,1,0,0,0-.311-.674.966.966,0,0,0-.689-.264,1.011,1.011,0,0,0-.854.4,1.862,1.862,0,0,0-.3,1.146v.137a1.825,1.825,0,0,0,.3,1.125A1.016,1.016,0,0,0,6.734-.512ZM9.906-4.227l.02.469A1.561,1.561,0,0,1,11.18-4.3a1.208,1.208,0,0,1,1.207.68,1.6,1.6,0,0,1,.549-.492,1.621,1.621,0,0,1,.8-.187q1.391,0,1.414,1.473V0h-.723V-2.789a.97.97,0,0,0-.207-.678.912.912,0,0,0-.7-.225.958.958,0,0,0-.668.24.975.975,0,0,0-.309.646V0H11.82V-2.77a.806.806,0,0,0-.9-.922.967.967,0,0,0-.973.605V0H9.223V-4.227Z" transform="translate(583.051 17176)" fill="#12263f"/>
    <path id="Trazado_894403" data-name="Trazado 894403" d="M2.848,0H2.121V-4.816L.664-4.281v-.656l2.07-.777h.113ZM7.8-5.691v.613H7.668a1.9,1.9,0,0,0-1.344.5,2.081,2.081,0,0,0-.578,1.363A1.543,1.543,0,0,1,6.973-3.73a1.475,1.475,0,0,1,1.186.523A2.019,2.019,0,0,1,8.6-1.855,2.013,2.013,0,0,1,8.123-.449,1.648,1.648,0,0,1,6.84.078,1.623,1.623,0,0,1,5.516-.549a2.485,2.485,0,0,1-.508-1.615v-.277a3.744,3.744,0,0,1,.67-2.4,2.46,2.46,0,0,1,1.994-.85ZM6.852-3.129a1.153,1.153,0,0,0-.684.223,1.16,1.16,0,0,0-.434.559v.266A1.866,1.866,0,0,0,6.051-.949a.948.948,0,0,0,.789.43.919.919,0,0,0,.768-.359,1.491,1.491,0,0,0,.279-.941A1.492,1.492,0,0,0,7.6-2.768.908.908,0,0,0,6.852-3.129ZM11.227-.512A1.041,1.041,0,0,0,11.9-.746a.825.825,0,0,0,.32-.586h.684a1.31,1.31,0,0,1-.25.691,1.647,1.647,0,0,1-.615.523,1.775,1.775,0,0,1-.814.2A1.741,1.741,0,0,1,9.854-.5a2.3,2.3,0,0,1-.51-1.576V-2.2a2.545,2.545,0,0,1,.227-1.1,1.726,1.726,0,0,1,.65-.746,1.848,1.848,0,0,1,1-.266,1.7,1.7,0,0,1,1.182.426,1.522,1.522,0,0,1,.5,1.105h-.684a1,1,0,0,0-.311-.674.966.966,0,0,0-.689-.264,1.011,1.011,0,0,0-.854.4,1.862,1.862,0,0,0-.3,1.146v.137a1.825,1.825,0,0,0,.3,1.125A1.016,1.016,0,0,0,11.227-.512ZM14.4-4.227l.02.469A1.561,1.561,0,0,1,15.672-4.3a1.208,1.208,0,0,1,1.207.68,1.6,1.6,0,0,1,.549-.492,1.621,1.621,0,0,1,.8-.187q1.391,0,1.414,1.473V0h-.723V-2.789a.97.97,0,0,0-.207-.678.912.912,0,0,0-.7-.225.958.958,0,0,0-.668.24.975.975,0,0,0-.309.646V0h-.727V-2.77a.806.806,0,0,0-.9-.922.967.967,0,0,0-.973.605V0h-.723V-4.227Z" transform="translate(303.051 17198)" fill="#12263f"/>
    <path id="Trazado_894404" data-name="Trazado 894404" d="M2.848,0H2.121V-4.816L.664-4.281v-.656l2.07-.777h.113ZM7.8-5.691v.613H7.668a1.9,1.9,0,0,0-1.344.5,2.081,2.081,0,0,0-.578,1.363A1.543,1.543,0,0,1,6.973-3.73a1.475,1.475,0,0,1,1.186.523A2.019,2.019,0,0,1,8.6-1.855,2.013,2.013,0,0,1,8.123-.449,1.648,1.648,0,0,1,6.84.078,1.623,1.623,0,0,1,5.516-.549a2.485,2.485,0,0,1-.508-1.615v-.277a3.744,3.744,0,0,1,.67-2.4,2.46,2.46,0,0,1,1.994-.85ZM6.852-3.129a1.153,1.153,0,0,0-.684.223,1.16,1.16,0,0,0-.434.559v.266A1.866,1.866,0,0,0,6.051-.949a.948.948,0,0,0,.789.43.919.919,0,0,0,.768-.359,1.491,1.491,0,0,0,.279-.941A1.492,1.492,0,0,0,7.6-2.768.908.908,0,0,0,6.852-3.129ZM11.227-.512A1.041,1.041,0,0,0,11.9-.746a.825.825,0,0,0,.32-.586h.684a1.31,1.31,0,0,1-.25.691,1.647,1.647,0,0,1-.615.523,1.775,1.775,0,0,1-.814.2A1.741,1.741,0,0,1,9.854-.5a2.3,2.3,0,0,1-.51-1.576V-2.2a2.545,2.545,0,0,1,.227-1.1,1.726,1.726,0,0,1,.65-.746,1.848,1.848,0,0,1,1-.266,1.7,1.7,0,0,1,1.182.426,1.522,1.522,0,0,1,.5,1.105h-.684a1,1,0,0,0-.311-.674.966.966,0,0,0-.689-.264,1.011,1.011,0,0,0-.854.4,1.862,1.862,0,0,0-.3,1.146v.137a1.825,1.825,0,0,0,.3,1.125A1.016,1.016,0,0,0,11.227-.512ZM14.4-4.227l.02.469A1.561,1.561,0,0,1,15.672-4.3a1.208,1.208,0,0,1,1.207.68,1.6,1.6,0,0,1,.549-.492,1.621,1.621,0,0,1,.8-.187q1.391,0,1.414,1.473V0h-.723V-2.789a.97.97,0,0,0-.207-.678.912.912,0,0,0-.7-.225.958.958,0,0,0-.668.24.975.975,0,0,0-.309.646V0h-.727V-2.77a.806.806,0,0,0-.9-.922.967.967,0,0,0-.973.605V0h-.723V-4.227Z" transform="translate(555.051 17181)" fill="#12263f"/>
    <path id="Trazado_894405" data-name="Trazado 894405" d="M2.848,0H2.121V-4.816L.664-4.281v-.656l2.07-.777h.113ZM8.531-2.426A3.305,3.305,0,0,1,8.1-.539,1.542,1.542,0,0,1,6.742.078a1.553,1.553,0,0,1-1.348-.6,3.137,3.137,0,0,1-.453-1.8v-.965a3.232,3.232,0,0,1,.434-1.863,1.554,1.554,0,0,1,1.359-.609,1.568,1.568,0,0,1,1.352.588,3.119,3.119,0,0,1,.445,1.814Zm-.723-.988a2.648,2.648,0,0,0-.258-1.338.887.887,0,0,0-.816-.42.876.876,0,0,0-.809.418,2.585,2.585,0,0,0-.262,1.285v1.156A2.69,2.69,0,0,0,5.932-.951a.886.886,0,0,0,.811.439.874.874,0,0,0,.795-.414,2.593,2.593,0,0,0,.271-1.3Zm3.418,2.9A1.041,1.041,0,0,0,11.9-.746a.825.825,0,0,0,.32-.586h.684a1.31,1.31,0,0,1-.25.691,1.647,1.647,0,0,1-.615.523,1.775,1.775,0,0,1-.814.2A1.741,1.741,0,0,1,9.854-.5a2.3,2.3,0,0,1-.51-1.576V-2.2a2.545,2.545,0,0,1,.227-1.1,1.726,1.726,0,0,1,.65-.746,1.848,1.848,0,0,1,1-.266,1.7,1.7,0,0,1,1.182.426,1.522,1.522,0,0,1,.5,1.105h-.684a1,1,0,0,0-.311-.674.966.966,0,0,0-.689-.264,1.011,1.011,0,0,0-.854.4,1.862,1.862,0,0,0-.3,1.146v.137a1.825,1.825,0,0,0,.3,1.125A1.016,1.016,0,0,0,11.227-.512ZM14.4-4.227l.02.469A1.561,1.561,0,0,1,15.672-4.3a1.208,1.208,0,0,1,1.207.68,1.6,1.6,0,0,1,.549-.492,1.621,1.621,0,0,1,.8-.187q1.391,0,1.414,1.473V0h-.723V-2.789a.97.97,0,0,0-.207-.678.912.912,0,0,0-.7-.225.958.958,0,0,0-.668.24.975.975,0,0,0-.309.646V0h-.727V-2.77a.806.806,0,0,0-.9-.922.967.967,0,0,0-.973.605V0h-.723V-4.227Z" transform="translate(510.051 17442)" fill="#12263f"/>
    <path id="Trazado_894406" data-name="Trazado 894406" d="M2.848,0H2.121V-4.816L.664-4.281v-.656l2.07-.777h.113ZM8.531-2.426A3.305,3.305,0,0,1,8.1-.539,1.542,1.542,0,0,1,6.742.078a1.553,1.553,0,0,1-1.348-.6,3.137,3.137,0,0,1-.453-1.8v-.965a3.232,3.232,0,0,1,.434-1.863,1.554,1.554,0,0,1,1.359-.609,1.568,1.568,0,0,1,1.352.588,3.119,3.119,0,0,1,.445,1.814Zm-.723-.988a2.648,2.648,0,0,0-.258-1.338.887.887,0,0,0-.816-.42.876.876,0,0,0-.809.418,2.585,2.585,0,0,0-.262,1.285v1.156A2.69,2.69,0,0,0,5.932-.951a.886.886,0,0,0,.811.439.874.874,0,0,0,.795-.414,2.593,2.593,0,0,0,.271-1.3Zm3.418,2.9A1.041,1.041,0,0,0,11.9-.746a.825.825,0,0,0,.32-.586h.684a1.31,1.31,0,0,1-.25.691,1.647,1.647,0,0,1-.615.523,1.775,1.775,0,0,1-.814.2A1.741,1.741,0,0,1,9.854-.5a2.3,2.3,0,0,1-.51-1.576V-2.2a2.545,2.545,0,0,1,.227-1.1,1.726,1.726,0,0,1,.65-.746,1.848,1.848,0,0,1,1-.266,1.7,1.7,0,0,1,1.182.426,1.522,1.522,0,0,1,.5,1.105h-.684a1,1,0,0,0-.311-.674.966.966,0,0,0-.689-.264,1.011,1.011,0,0,0-.854.4,1.862,1.862,0,0,0-.3,1.146v.137a1.825,1.825,0,0,0,.3,1.125A1.016,1.016,0,0,0,11.227-.512ZM14.4-4.227l.02.469A1.561,1.561,0,0,1,15.672-4.3a1.208,1.208,0,0,1,1.207.68,1.6,1.6,0,0,1,.549-.492,1.621,1.621,0,0,1,.8-.187q1.391,0,1.414,1.473V0h-.723V-2.789a.97.97,0,0,0-.207-.678.912.912,0,0,0-.7-.225.958.958,0,0,0-.668.24.975.975,0,0,0-.309.646V0h-.727V-2.77a.806.806,0,0,0-.9-.922.967.967,0,0,0-.973.605V0h-.723V-4.227Z" transform="translate(344.051 17455)" fill="#12263f"/>
    <path id="Trazado_894407" data-name="Trazado 894407" d="M4.2,0H.473V-.52L2.441-2.707a4.677,4.677,0,0,0,.6-.807,1.346,1.346,0,0,0,.166-.643,1.02,1.02,0,0,0-.27-.73.942.942,0,0,0-.719-.285,1.116,1.116,0,0,0-.838.307,1.171,1.171,0,0,0-.3.854H.363a1.677,1.677,0,0,1,.506-1.27,1.875,1.875,0,0,1,1.354-.484,1.8,1.8,0,0,1,1.254.416,1.419,1.419,0,0,1,.461,1.107,3.253,3.253,0,0,1-1.07,2L1.344-.59H4.2ZM5.3-2.852l.289-2.836H8.5v.668H6.2L6.027-3.469a1.835,1.835,0,0,1,.949-.246A1.569,1.569,0,0,1,8.211-3.2a2.013,2.013,0,0,1,.457,1.389A1.943,1.943,0,0,1,8.193-.428,1.73,1.73,0,0,1,6.867.078,1.8,1.8,0,0,1,5.637-.34,1.668,1.668,0,0,1,5.094-1.5h.684a1.148,1.148,0,0,0,.348.736,1.081,1.081,0,0,0,.742.248.975.975,0,0,0,.791-.344A1.437,1.437,0,0,0,7.945-1.8a1.319,1.319,0,0,0-.311-.916,1.056,1.056,0,0,0-.826-.346,1.191,1.191,0,0,0-.742.207L5.875-2.7Zm5.93,2.34A1.041,1.041,0,0,0,11.9-.746a.825.825,0,0,0,.32-.586h.684a1.31,1.31,0,0,1-.25.691,1.647,1.647,0,0,1-.615.523,1.775,1.775,0,0,1-.814.2A1.741,1.741,0,0,1,9.854-.5a2.3,2.3,0,0,1-.51-1.576V-2.2a2.545,2.545,0,0,1,.227-1.1,1.726,1.726,0,0,1,.65-.746,1.848,1.848,0,0,1,1-.266,1.7,1.7,0,0,1,1.182.426,1.522,1.522,0,0,1,.5,1.105h-.684a1,1,0,0,0-.311-.674.966.966,0,0,0-.689-.264,1.011,1.011,0,0,0-.854.4,1.862,1.862,0,0,0-.3,1.146v.137a1.825,1.825,0,0,0,.3,1.125A1.016,1.016,0,0,0,11.227-.512ZM14.4-4.227l.02.469A1.561,1.561,0,0,1,15.672-4.3a1.208,1.208,0,0,1,1.207.68,1.6,1.6,0,0,1,.549-.492,1.621,1.621,0,0,1,.8-.187q1.391,0,1.414,1.473V0h-.723V-2.789a.97.97,0,0,0-.207-.678.912.912,0,0,0-.7-.225.958.958,0,0,0-.668.24.975.975,0,0,0-.309.646V0h-.727V-2.77a.806.806,0,0,0-.9-.922.967.967,0,0,0-.973.605V0h-.723V-4.227Z" transform="translate(369.051 17205)" fill="#12263f"/>
    <path id="Trazado_894408" data-name="Trazado 894408" d="M4.844-1.8A2.092,2.092,0,0,1,4.178-.412a2.183,2.183,0,0,1-1.49.49A2,2,0,0,1,1.072-.645,2.907,2.907,0,0,1,.465-2.578v-.547A3.241,3.241,0,0,1,.748-4.52a2.115,2.115,0,0,1,.8-.924,2.235,2.235,0,0,1,1.2-.322,2.055,2.055,0,0,1,1.453.506,2.118,2.118,0,0,1,.637,1.4H4.09a1.634,1.634,0,0,0-.424-.987,1.282,1.282,0,0,0-.912-.306,1.342,1.342,0,0,0-1.127.532,2.441,2.441,0,0,0-.408,1.513v.551a2.509,2.509,0,0,0,.387,1.474,1.25,1.25,0,0,0,1.082.547,1.443,1.443,0,0,0,.959-.283A1.572,1.572,0,0,0,4.09-1.8ZM8.363-.418a1.535,1.535,0,0,1-1.238.5A1.314,1.314,0,0,1,6.1-.314a1.7,1.7,0,0,1-.357-1.162v-2.75h.723V-1.5q0,.961.781.961a1.082,1.082,0,0,0,1.1-.617V-4.227h.723V0H8.379Zm3.555.5a1.847,1.847,0,0,1-1.4-.564A2.1,2.1,0,0,1,9.98-2v-.133a2.536,2.536,0,0,1,.24-1.123,1.874,1.874,0,0,1,.672-.773,1.689,1.689,0,0,1,.936-.279,1.583,1.583,0,0,1,1.281.543,2.351,2.351,0,0,1,.457,1.555v.3H10.7A1.5,1.5,0,0,0,11.068-.9a1.148,1.148,0,0,0,.889.385,1.259,1.259,0,0,0,.648-.156,1.629,1.629,0,0,0,.465-.414l.441.344A1.775,1.775,0,0,1,11.918.078Zm-.09-3.789a.964.964,0,0,0-.734.318,1.547,1.547,0,0,0-.367.893h2.117v-.055a1.376,1.376,0,0,0-.3-.854A.908.908,0,0,0,11.828-3.711ZM15.188,0h-.723V-6h.723Zm1.941,0h-.723V-6h.723Zm.965-2.152a2.5,2.5,0,0,1,.244-1.117,1.821,1.821,0,0,1,.68-.766,1.85,1.85,0,0,1,.994-.27,1.782,1.782,0,0,1,1.4.6,2.3,2.3,0,0,1,.533,1.59v.051a2.518,2.518,0,0,1-.236,1.107,1.794,1.794,0,0,1-.676.764,1.871,1.871,0,0,1-1.01.273,1.778,1.778,0,0,1-1.393-.6A2.288,2.288,0,0,1,18.094-2.1Zm.727.086a1.808,1.808,0,0,0,.326,1.129,1.044,1.044,0,0,0,.873.426,1.038,1.038,0,0,0,.875-.432,1.977,1.977,0,0,0,.324-1.209,1.805,1.805,0,0,0-.33-1.127,1.049,1.049,0,0,0-.877-.432,1.038,1.038,0,0,0-.863.426A1.963,1.963,0,0,0,18.82-2.066Z" transform="translate(422.051 17303)" fill="#12263f"/>
    <path id="Trazado_894409" data-name="Trazado 894409" d="M4.145-5.281,1.789,0H1.031L3.379-5.094H.3v-.594H4.145Zm4.57,4.77a1.041,1.041,0,0,0,.676-.234.825.825,0,0,0,.32-.586h.684a1.31,1.31,0,0,1-.25.691,1.647,1.647,0,0,1-.615.523,1.775,1.775,0,0,1-.814.2A1.741,1.741,0,0,1,7.342-.5a2.3,2.3,0,0,1-.51-1.576V-2.2a2.545,2.545,0,0,1,.227-1.1,1.726,1.726,0,0,1,.65-.746,1.848,1.848,0,0,1,1-.266,1.7,1.7,0,0,1,1.182.426,1.522,1.522,0,0,1,.5,1.105H9.711A1,1,0,0,0,9.4-3.447a.966.966,0,0,0-.689-.264,1.011,1.011,0,0,0-.854.4,1.862,1.862,0,0,0-.3,1.146v.137a1.825,1.825,0,0,0,.3,1.125A1.016,1.016,0,0,0,8.715-.512Zm3.172-3.715.02.469A1.561,1.561,0,0,1,13.16-4.3a1.208,1.208,0,0,1,1.207.68,1.6,1.6,0,0,1,.549-.492,1.621,1.621,0,0,1,.8-.187q1.391,0,1.414,1.473V0h-.723V-2.789a.97.97,0,0,0-.207-.678.912.912,0,0,0-.7-.225.958.958,0,0,0-.668.24.975.975,0,0,0-.309.646V0H13.8V-2.77a.806.806,0,0,0-.9-.922.967.967,0,0,0-.973.605V0H11.2V-4.227Z" transform="translate(463.051 17315)" fill="#12263f"/>
    <path id="Trazado_894410" data-name="Trazado 894410" d="M4.145-5.281,1.789,0H1.031L3.379-5.094H.3v-.594H4.145Zm4.57,4.77a1.041,1.041,0,0,0,.676-.234.825.825,0,0,0,.32-.586h.684a1.31,1.31,0,0,1-.25.691,1.647,1.647,0,0,1-.615.523,1.775,1.775,0,0,1-.814.2A1.741,1.741,0,0,1,7.342-.5a2.3,2.3,0,0,1-.51-1.576V-2.2a2.545,2.545,0,0,1,.227-1.1,1.726,1.726,0,0,1,.65-.746,1.848,1.848,0,0,1,1-.266,1.7,1.7,0,0,1,1.182.426,1.522,1.522,0,0,1,.5,1.105H9.711A1,1,0,0,0,9.4-3.447a.966.966,0,0,0-.689-.264,1.011,1.011,0,0,0-.854.4,1.862,1.862,0,0,0-.3,1.146v.137a1.825,1.825,0,0,0,.3,1.125A1.016,1.016,0,0,0,8.715-.512Zm3.172-3.715.02.469A1.561,1.561,0,0,1,13.16-4.3a1.208,1.208,0,0,1,1.207.68,1.6,1.6,0,0,1,.549-.492,1.621,1.621,0,0,1,.8-.187q1.391,0,1.414,1.473V0h-.723V-2.789a.97.97,0,0,0-.207-.678.912.912,0,0,0-.7-.225.958.958,0,0,0-.668.24.975.975,0,0,0-.309.646V0H13.8V-2.77a.806.806,0,0,0-.9-.922.967.967,0,0,0-.973.605V0H11.2V-4.227Z" transform="translate(463.051 17332)" fill="#12263f"/>
    <g id="Grupo_1102557" data-name="Grupo 1102557" transform="translate(231 17173.766)" clip-path="url(#clip-path)">
      <path id="Trazado_894005" data-name="Trazado 894005" d="M484.834,296.976c-.328.017-.663-.008-.991,0L484.5,294h-2.315l.663-34.717h-9.922V248.374h9.922v-4.959l-7.605-.328,1.651,1.156c-.971.515-2.336-.245-3.21-.756-.352-.206-.578.045-.427-.729.833-.07,1.66-.708,2.492-.692.768.015,1.057.575,1.648.682,1.577.286,3.789-.195,5.452.008l1.3-101.478-71.385-6.331-14.239-80.31c30.042-5.373,60.058-11.078,90.155-16.169,4.332-.733,8.766-1.039,13.1-1.783,13.174-2.262,26.074-6,39.128-8.805.765.013,3.079,2,4.016,2.551,9.348,5.484,21.253,3.734,31.657,4.01.248.041.5,1.484.53,1.835.668,8.15.2,18.363.342,26.768.382,22.883.229,45.905.65,68.782.865,47.026.464,94.362,1,141.5.075,6.561-.089,13.132-.015,19.689L485.5,294l1.014,2.785c-2.1.768-.17,3.4-1.511,4.816a22.868,22.868,0,0,1-.165-4.628c.219-.011.442.009.66,0l-.332-1.32h-.326c-.014.438.01.882,0,1.321M575.781,35.45c-1.735-.288-3.5.285-5.112.347-7.01.271-17.143-.4-23.557-3.26-1.427-.637-5.541-3.516-6.29-3.647a34.728,34.728,0,0,0-4.5,1,.789.789,0,0,0-.414.248l-.148.513,1.988,261.7,40.35-.331,0-6.452c-1.129-70.228-.355-140.521-1.661-210.6-.173-9.275-.472-18.525-.673-27.761-.085-3.912.094-7.845.017-11.754M483.842,248.374h10.252v10.415l-.5.5H487.81a3.017,3.017,0,0,1,.991,2.975c-.958.286-1.576-1.578-1.82-1.653l-.99,1.65-.542-1.6-1.606-.378-.334,32.732h3.971c-.152-2.75.676-1.894,1.186.018l48.09-.349L534.771,30.491l-28.441,6.285.993,2.971-1.649-.827c1.35,1.75.041,3.327-.34,5.127-.512,0-.755.193-.612-.446.343-1.538,2.048-3.513-.068-4.371l.682-2.124-18.851,2.642-1.327,100.329,0,.183c.642-.016,1.967-.231,1.988.824l-1.988.166c-.1,8.1.133,16.217.017,24.318-.209,14.6-.871,29.334-1.024,43.942-.1,9.315.106,18.643.014,27.955l2.318,0,0,2.462-2.32.183v2.648l8.6,0-.822-.994,3.14.833c-.02.877-2.932,1.946-3.639,1.652l.66-1.157c-2.69.082-5.173.621-7.91.356Zm1.322-208.3L403.175,54.654l-.027,1.956c-.988.249-.839-1-1.013-1.629l-2.288.318L413.869,134l2.162.281c.108-2.327.763-.264,1.08-.055.862.57,6.816.593,8.364.734,14.019,1.278,27.982,2.45,42,3.637,4.362.369,8.828,1.08,13.221,1.331,1.153.066,2.327-.053,3.478,0ZM493.1,258.292v-8.762c0-.362-.8-.484-1.141-.512-2.741-.232-5.408.377-8.119.347v8.927Zm-10.252-8.927h-8.929v8.927h8.929Z" transform="translate(-175.952 -12.308)" fill="#161615"/>
      <path id="Trazado_894006" data-name="Trazado 894006" d="M189.6,65.027l-10.951,80.286-72.709,8.644,0,5.458c2.284,49.546,3.138,99.2,4.949,148.793.063,1.713.642,3.606.347,5.441l-2.314.163,1.65,1.658-1.316-.006,1.317,4.134c-.653.119-.814-.288-1.016-.8a17.964,17.964,0,0,1-.969-3.826c-.919.219.409,2.329-.989,1.982l.33-3.3L9.7,314.642,7.741,74.3c2.756-.483,5.557-.552,8.308-1.117,13.666-2.808,26.368-12.336,27.712-27.014ZM50.709,47.824l-5.954-.661C42.339,64.127,25.2,74.527,9.037,74.935L10.69,313.65l42-.331Zm53.217,6.97L51.7,48.155l1.984,264.834c13.932-.286,27.922.371,41.852.014.794-.02,1.485-.333,2.284-.362,2.4-.085,4.833.087,7.238.028l.715-1,.178.976,4.288.016c.211-1.209-.292-2.314-.347-3.457-.336-6.914-.437-13.939-.662-20.829-.082-2.522.077-5.068.037-7.592-1.5-.459-2.217-1.382-.019-1.184-.047-.714.06-1.452.013-2.167-1.075-16.171-1.439-32.7-2.016-48.9-2-56.087-2.968-112.346-3.3-168.631Zm81.38,10.556L105.273,55.1l.663,97.868,71.738-8.293,10.612-77.5,0-1.489-1.982-.335-.333,1.438-.991.216Z" transform="translate(-3.418 -20.384)" fill="#161615"/>
      <path id="Trazado_894007" data-name="Trazado 894007" d="M372.922,360.731c-.662.658-5.317-3.035-6.183-3.57a114.631,114.631,0,0,0-14.318-7.67l.655,10.75c1.465,16.027,3.907,32.142,4.3,48.27.021.873.629,1.288-.032,2.273-.583.868-4.294,1.8-5.509,2.1-14.841,3.677-38.045,5.2-53.124,3.364-1.708-.208-11.7-1.973-12.277-2.933-.531-1.062.113-2.137.178-3.148.33-5.163.694-10.345,1.352-15.511,1.45-11.384,3.879-22.643,5.922-33.918-6.084-1.264-12.151-.134-17.867-3.138-1.267-.666-2.366-1.654-3.63-2.319,9.594-9.871,15.24-22.637,22.218-34.324,3.069-5.14,5.293-9,10.749-12.067,1.332-.748,3.1-.843,3.924-1.367a25.408,25.408,0,0,0,3.594-4.01c1.607-2.2,2.539-4.647,3.993-6.914,2.332,2.109.091,5.217,1.977,7.607,1.979,2.507,3.689,3.062,6.715,2.07a56.356,56.356,0,0,0,6.69-3.23c.531-.528.975-4.079,1.634-5.31.185-.347.271-.942.839-.81,1.306,2.839,2.267,5.126,4.637,7.269,5.721,5.174,12.182,3.851,17.85,8.935,7.174,6.434,12,16.523,17.8,24.193,2.186,7.428-1.579,14.929-2.275,22.089a4.215,4.215,0,0,0,.186,1.323m-57.545-49.592c.089-4.384,2.128-8.468,1.653-12.893l-3.5,5.925c-.446.6-3.042,3.213-3.11,3.51-.109.484.283.536.544.758a24.751,24.751,0,0,0,4.408,2.7m19.51-11.9c-.408-.529-.584.056-.687.46a21.291,21.291,0,0,0,.032,12.1c2.82-1.243,5.778-2.242,8.264-4.134-3.139-2.141-6.492-4.6-7.609-8.429m-1.649,12.893c-.514-2.623-1.227-5.226-1-7.934-4.24,1.3-8.042,5.694-12.394,2.309-.408-.317-2.094-2.393-2.484-1.978.136,1.931-1.013,4.3-1.015,6.125,0,1.457,2.128,1.708,3.323,1.98a29.535,29.535,0,0,0,13.566-.5M344.15,308.5c-.4-.4-5.181,2.323-6.056,2.7-8.254,3.6-16.455,4.523-24.593,0-.958-.532-4.221-3.246-5.045-2.682-.576,1.233-.242,2.509-.348,3.784-.047.563-.307,1.083-.339,1.645-.122,2.126.352,4.454-.327,6.449,5.616-1.162,5.374,6.52,0,4.629l-.992,14.88c1.415-1.1,3.128-1.482,4.306.156,2.075,2.885-1.946,5.833-4.306,3.15l-3.97,72.406c1.945-.294,3.947.278,5.77.347a162.851,162.851,0,0,0,17.87-.681l14.059-1.319Zm1,38.009a1.37,1.37,0,0,1,.161-.972c.787-1.742,5.175-5.881,5.45-7.447.083-7.937.161-15.9,1.024-23.773.1-.945.395-2.057.532-3.025-.051-.671-5.751-1.939-6.677-2.465-.806,2.523-.375,5.173-.5,7.778-1.336,28.848-2.515,57.722-3.3,86.636-.022.791-.34,1.492-.362,2.283-.076,2.7.088,5.42.015,8.117.313.328,7.8-1.223,8.936-1.483.99-.226,6.112-1.359,6.245-2.017-.053-.441-.28-.841-.3-1.291-.91-17.227-2.786-34.411-4.629-51.578l-.329-7.607c-.273-1.6-4.854-2.414-6.271-3.155M307.11,309.156c-.555-.107-.867.292-1.29.527a24.483,24.483,0,0,0-3.846,2.767c-1.313,1.345-.677,4.347-.812,6.132-2.282,30.288-11.795,59.929-13.567,89.922a33.828,33.828,0,0,1-.189,4.141c1.41,1.168,13.57,3.148,14.084,2.642.274-2.686.161-5.411.326-8.105,1.91-31.344,3.431-62.585,4.961-93.9.062-1.267.622-2.717.333-4.128M371.93,359.08c.729-7.313,4.06-14.565,2-22-3.2-4.245-5.929-8.829-9-13.151-3.279-4.611-6.7-9.351-11.514-12.457a158.992,158.992,0,0,0-1.654,25.128c1.369-.829,3-4.376,4.46-4.633.507-.089.576.008.505.5a25.035,25.035,0,0,1-1.376,3.257,51.378,51.378,0,0,1-2.779,5.157c-.274.3-.336.443-.811.344l.062-1.092,2.419-4.853-7.444,9.912c5.044-.946,10.09,1.207,13.9,4.459,2.35,2.007,4.411,4.783,6.777,6.78.564.475,4.031,3.1,4.459,2.649m-77.717.662c1.443-9.445,3.434-18.808,4.6-28.3q1.061-8.656,1.354-17.325a44.9,44.9,0,0,0-3.9,5.847c-5.5,9.146-10.227,19.194-16.463,27.845-1.8,2.494-3.875,4.743-5.726,7.192-.1.677,2.851,2.131,3.485,2.384,3.7,1.474,7.924,1.574,11.866,1.692Zm15.8-37.945c-1.756-1.75-3.581,2.279-1.077,2.265a1.375,1.375,0,0,0,1.077-2.265m44.559,12.817a.165.165,0,0,0,0,.331.165.165,0,0,0,0-.331m-45.91,5.665c-2.114.185-1.374,3.762.777,2.445,1.2-.731.171-2.528-.777-2.445m55.335,14.17c-3.8-5.263-9.81-9.044-16.534-8.593Z" transform="translate(-120.262 -130.95)" fill="#161615"/>
      <path id="Trazado_894008" data-name="Trazado 894008" d="M366.784,264.971,309.9,265.3c-.077-3.578.1-7.181.017-10.762-.123-5.186-.779-10.643-.362-15.87.068-.858.184-1.186,1.157-1.157,11.363-.075,22.733.147,34.095.031.79-.008,1.493-.353,2.284-.362,5.736-.065,12.984-.471,18.552,0,.338.029,1.141.15,1.141.512Zm-.992-27.111-55.229.661v12.564c.713.012,1.435-.018,2.152,0,.447.012,1.376-.271,1.156.494-.112.389-2.717.061-3.308.168v12.894l55.021-.374c.551-.179.514-.6.555-1.1.311-3.806-.2-7.97-.348-11.753-1.686,1.532-2.235.815-3.967-.006-.182-.123,1.505-2.721,3.084-1.663.368.247.352.947.885,1.007Zm-1.324,12.565c-.794-.125-1.4.156-1.321.99.794.125,1.4-.156,1.321-.99" transform="translate(-136.612 -104.619)" fill="#161615"/>
      <path id="Trazado_894009" data-name="Trazado 894009" d="M332.651,82.258l.333,3.306-.656-.658-10.421,74.057,1.156-.991-1.348,3.284-.961.023-1-3.305,1.321.989,10.58-74.227-1.154.828c-.378-.976.689-2.047,1.137-3.1.176-.414.688-.144,1.01-.2" transform="translate(-141.176 -36.302)" fill="#161615"/>
      <path id="Trazado_894010" data-name="Trazado 894010" d="M481.182,30.784c-.007.42.147.667-.215,1a13.315,13.315,0,0,1-2.591,1.646c-1.2.244.44-1.1.33-1.653a30.16,30.16,0,0,1-4.392,1.228c-23.945,4.714-48.279,7.747-72.239,12.42-1.31.256-2.613.555-3.9.9l.99.987-3.64-.66c.052-.357-.2-.839.2-1.013.93-.4,2.175-1.259,3.1-.806l-.822.831Z" transform="translate(-174.616 -13.591)" fill="#161615"/>
      <path id="Trazado_894011" data-name="Trazado 894011" d="M382.212,84.009l-.986-.167,11.615,70.386c1.783.9.593,2.237.615,3.84-.5.583-2.491-2.606-1.98-3.3l.986-.167-11.9-71.914-.987,1.983.329-3.638c1.161-.665,2.457,2.832,2.312,2.976M393.126,155.1h-.99c.007,1.214.983,1.214.99,0" transform="translate(-167.584 -35.739)" fill="#161615"/>
      <path id="Trazado_894012" data-name="Trazado 894012" d="M187.771,53.281l-.991.987c4.737.857,9.575,1.1,14.355,1.686,20.5,2.493,41.7,5.827,62.2,7.579.713.061,1.445-.039,2.157-.006-.161-.335-.654-.81.164-.663a14.5,14.5,0,0,1,2.277.973c.4.174.15.656.2,1.013l-3.639.661,1.651-1.65-2.809.337c-22.116-2.969-44.365-5.141-66.479-7.938-2.613-.331-5.722-.522-8.232-1.028a5.447,5.447,0,0,1-2.348-.957c-.132.612.957,1.052,1.158,1.486.19.412-.093.611-.489.489-.193-.06-1.98-1.162-2.267-1.371-.384-.279-.671-.359-.547-.938Z" transform="translate(-81.284 -23.524)" fill="#161615"/>
      <path id="Trazado_894013" data-name="Trazado 894013" d="M90.677,41.439c.132.664-.311.78-.756,1.063-.337.215-.977.078-.9.586,1.678-.643,2.933-.1,4.459.007,6.987.474,13.873,1.538,20.833,2.315,7.329.819,14.821,1.124,22.1,2.372a2.359,2.359,0,0,1,1.058.6l-.827-1.488c.522-.6,3.919,1.3,3.305,1.818l-3.306.66.33-.988c-.6-.037-1.223.068-1.823,0-13.959-1.513-28.375-3.918-42.321-4.967-1.43-.108-2.1-.178-2.963.678l-2.818-1.024-.015-.972Z" transform="translate(-38.428 -18.295)" fill="#161615"/>
      <path id="Trazado_894014" data-name="Trazado 894014" d="M600.553,17.5l-.2,1.013-2.615,1.3-.161-.986-38.032,5.289.332.989-3.306-.661c-.557-.474,2.462-2.2,2.815-2.309.423-.126.67.1.489.489-.155.338-1.057.691-.827,1.156a15.126,15.126,0,0,1,4.012-.947c11.086-1.736,22.3-2.8,33.373-4.691l1.806.352-.99-1.32Z" transform="translate(-245.7 -7.579)" fill="#161615"/>
      <path id="Trazado_894015" data-name="Trazado 894015" d="M195.582,465.314a29.131,29.131,0,0,1,1.025,2.782l-1.329-.324c.673,3.4.236,7.089.318,10.593.019.794.347,1.49.362,2.283.1,5.235-.106,10.488-.013,15.72l.994.166c-.369.693-.487,2.792-1.49,2.813l-1.489-3.476,1.647.665-.658-28.932-.632.778-.693.044,1-3.136c.288.04.782-.088.957.025" transform="translate(-85.487 -205.419)" fill="#161615"/>
      <path id="Trazado_894016" data-name="Trazado 894016" d="M540.957,446.9l.994,3.3-1.319-.99L539.3,473.842l-.661,1.323c.544.248.848-.81,1.237-1.153.2-.181.945-.646.746.159-.323.23-1.669,3.9-2.31,3.145l-.685-3.107c1.543-.661.893-2.6,1.01-4.005.485-5.814.982-11.672,1.343-17.5.064-1.038-.075-2.117-.018-3.157l-.825.66c-.6-.523,1.291-3.916,1.817-3.3" transform="translate(-237.369 -197.277)" fill="#161615"/>
      <path id="Trazado_894017" data-name="Trazado 894017" d="M40.611,70.258a3.244,3.244,0,0,1-3.089.1c-1.619-1.272-.545-3.785,1.4-3.9a2.25,2.25,0,0,1,1.688,3.8" transform="translate(-16.218 -29.34)" fill="#161615"/>
      <path id="Trazado_894018" data-name="Trazado 894018" d="M664.272,9.586c.13.152,1.282-1.08,1.65-.5a8.283,8.283,0,0,0-1.631,2.941c-.174.4-.658.152-1.013.2.317-1.405-.567-2.336-.661-3.639l.791.3.485-.507L664.765,0l.519,1.825Zm-.829-.331a.165.165,0,0,0,0,.331.165.165,0,0,0,0-.331" transform="translate(-292.553 0.001)" fill="#161615"/>
      <path id="Trazado_894019" data-name="Trazado 894019" d="M645.829,9.451c.125-.53.753-.528.985,0-.892,1.86.415,3.926-.011,5.944l1.014.345-1.492,3.134c-.765-.576-.719-1.5-.987-2.314-.14-.423-.846-1.036-.336-1.316l.994.989c.548-.257-.166-.775-.166-.825,0-1.484-.278-4.766,0-5.951" transform="translate(-284.694 -3.997)" fill="#161615"/>
      <path id="Trazado_894020" data-name="Trazado 894020" d="M731.368,34.93c-.121.642-.685.555-1.143.673a50.7,50.7,0,0,1-7.786,1.311l.66,1.319c-.6-.2-3.537-.342-3.635-.829.356-1.143,1.978-1.452,2.811-2.145l-.664,1.982a2.867,2.867,0,0,1,1.406-.909c2.442-.774,5.781-.987,8.352-1.4" transform="translate(-317.651 -15.421)" fill="#161615"/>
      <path id="Trazado_894021" data-name="Trazado 894021" d="M62.219,33.822l.163-.988c.8.832,2.042,1.314,2.152,2.642H61.229l.455-.658c.448.018.052-.408-.123-.5-2.409-1.261-5.85-1.509-8.268-2.972.507-.721.591-.308,1.14-.159,1.107.3,7.475,2.9,7.788,2.636m.5.337-.494.494.159.159.494-.494Z" transform="translate(-23.529 -13.657)" fill="#161615"/>
      <path id="Trazado_894022" data-name="Trazado 894022" d="M687.944,27.186c1.494,3.479,2.51,4.291-2.3,3.961-.438-.4.916-4.618,2.3-3.961m.011,3.3c.095-.875,0-1.746-.99-1.65-.446,1.157-.422,1.763.99,1.65" transform="translate(-302.68 -11.972)" fill="#161615"/>
      <path id="Trazado_894023" data-name="Trazado 894023" d="M1.32,85.813c.153.986.116,2.529.328,3.426.072.3.873.118.675.679l-.675,2.509L.672,92.42,0,89.12l1.318,1.652c.03-1.443-.666-3.051-.672-4.455,0-.661.044-.532.674-.5" transform="translate(0 -37.874)" fill="#161615"/>
      <path id="Trazado_894024" data-name="Trazado 894024" d="M79.751,42.955l-.013.973c-1.794.835-3.426-.181-5.279.016-.446-.38-.037-.631.493-.663a8.006,8.006,0,0,1,2.482.331l-.33-.988Z" transform="translate(-32.79 -18.819)" fill="#161615"/>
      <path id="Trazado_894025" data-name="Trazado 894025" d="M684.272,36.247c.077,3.909-.1,7.842-.017,11.754.2,9.236.5,18.485.673,27.761,1.306,70.08.532,140.372,1.661,210.6l0,6.453-40.349.331-1.988-261.7.149-.513a.78.78,0,0,1,.413-.247,34.631,34.631,0,0,1,4.5-1c.748.131,4.863,3.01,6.29,3.647,6.414,2.862,16.547,3.531,23.557,3.26,1.615-.062,3.377-.636,5.112-.347" transform="translate(-284.443 -13.106)" fill="#fff"/>
      <path id="Trazado_894026" data-name="Trazado 894026" d="M486.21,49.722l-.99,99.852c-1.151-.051-2.324.068-3.477,0-4.393-.251-8.859-.961-13.221-1.331-14.018-1.187-27.981-2.358-42-3.637-1.548-.141-7.5-.164-8.364-.733-.317-.209-.973-2.272-1.081.054l-2.162-.281L400.893,64.943l2.288-.318c.174.631.025,1.879,1.013,1.63l.028-1.957ZM404.855,67.907l-.99,0,.333,1.982c1.176.27.508-1.3.657-1.985m.661,3.968h-.99l.5,1.982Zm.662,3.967h-.99l.5,1.982Zm.661,3.639c-1.57.059-.726,1.313-.659,2.313l.954-.528Zm.65,4.3-.979,0,.331,1.982.956-.529Zm.672,3.632-.954.527.295,1.785.954-.527Zm.659,4.3c-.713-.932-1.237,2.266.333,1.983Zm.995,5.621c.044-.867.2-2.049-.99-1.983v1.984Zm.661,4.3c.055-.44.1-2.316-.495-2.308s-.4.938-.334,1.329c.095.576.025,1.185.829.979m.662,3.639c.044-.867.2-2.049-.99-1.983v1.984Zm.66,4.3c-.008-.884.345-2.357-.989-2.313-.179.2.352,2.281.989,2.313m.662,3.636c.051-.894.182-2.054-.99-1.982-.089.256.345,2.722.99,1.982m-.328,1.986.826,2.309c1.123-.5-.347-2.862-.826-2.309m1.982,5.949c.134-.13-.439-2.309-1.32-1.982l.33,1.763Zm.331,1.983-.987.164c.578.7-.055,2.223,1.318,2.152Zm.662,3.968c-1.179-.266-.511,1.3-.66,1.987l.99,0Zm.661,3.968c-1.225-.392-.677,2.278-.164,2.312Zm.66,3.968c-1.263-.281-.8,2.24.332,1.984Zm.66,3.969c-1.108-.259-.65,1.039-.491,1.667.149.59.119.771.824.646Z" transform="translate(-176.998 -21.952)" fill="#fff"/>
      <path id="Trazado_894027" data-name="Trazado 894027" d="M560.55,433.071h-9.26v-8.927c2.71.03,5.378-.579,8.119-.347.338.029,1.141.15,1.141.512Z" transform="translate(-243.4 -187.087)" fill="#fff"/>
      <rect id="Rectángulo_402446" data-name="Rectángulo 402446" width="8.929" height="8.927" transform="translate(297.969 237.057)" fill="#fff"/>
      <path id="Trazado_894028" data-name="Trazado 894028" d="M551.027,250.439l.357-4.933c2.737.265,5.22-.275,7.91-.356l-.66,1.157c.707.294,3.619-.775,3.639-1.652l-3.14-.833.822.994-8.6,0v-2.648l2.32-.183,0-2.462-2.318,0c.092-9.312-.112-18.64-.015-27.955.152-14.608.815-29.345,1.024-43.942.116-8.1-.118-16.22-.017-24.318l1.988-.166c-.021-1.055-1.346-.839-1.988-.824l0-.183,1.327-100.329,18.851-2.642L571.84,41.3c2.116.858.41,2.834.068,4.371-.142.639.1.449.612.446.381-1.8,1.689-3.377.339-5.127l1.649.827-.993-2.971,28.441-6.284,1.987,262.187-48.09.349c-.51-1.912-1.338-2.768-1.186-.017H550.7l.334-32.732,1.606.378.542,1.6.99-1.65c.244.075.862,1.94,1.82,1.653A3.017,3.017,0,0,0,555,261.35h5.788l.5-.5V250.439Zm4.589,15.25-1.281-.042c-.1,1.532-.2,2.585,1.651,2.315Zm-1.28,3.928c-.461,3.4,2.815,3.253,1.154.331-.269-.474-.717-.335-1.154-.331m.33,6.613c2.1.515,1.2-3.333-.335-2.477Zm0,3.966,1.324-.5c-.69-.858-.084-2.723-1.66-1.973Zm.991,1.654c-2.067-.755-.719,1.029-.992,2.314l1.321-.5-.69-.352Zm0,3.969h-1.322l.332,2.642c1.6-.006.37-1.6.99-2.642m0,3.968h-1.323c.77.637-.315,2.384.5,2.642,1.164.368.48-1.511.5-1.8.021-.32.408-.774.324-.846" transform="translate(-243.137 -14.374)" fill="#fff"/>
      <path id="Trazado_894029" data-name="Trazado 894029" d="M138.675,56.362l.022,5.1c.327,56.285,1.3,112.544,3.3,168.63.576,16.2.94,32.73,2.015,48.9.048.715-.06,1.453-.013,2.167-2.2-.2-1.484.725.019,1.183.039,2.524-.12,5.07-.037,7.592.225,6.89.325,13.915.661,20.829.055,1.142.559,2.249.347,3.457l-4.288-.016-.177-.976-.715,1c-2.4.059-4.834-.114-7.239-.028-.8.028-1.489.341-2.284.362-13.93.356-27.921-.3-41.852-.014L86.448,49.723Zm-29.406-.689c-.755-.722-.6-1.965-1.159-2.643-.358-.436-.3-.358-.67-.009a4.024,4.024,0,0,0-.816,2.985l.988-.661-.327,3.3c.417.494.614.021.65-.5a9.723,9.723,0,0,1,.393-2.435Zm27.117,97.536-.677-40.127c.069-.417,2.41-.7,2.333-1.7l-2.336-.693-.644-50.886c.429-.594.284.361.381.422l.939-.089L135.388,57l-.968.009c-.189,1.059-1.061,2.231-.514,3.295l1.163-1.482c-1.373,2.292-.385,4.89-.32,7.254.273,9.909-.161,19.871-.031,29.788.06,4.565.915,9.592.321,14.181a3.438,3.438,0,0,1-.365,1.12c-2.19.585-4.458.336-6.708.405l-.178-1.011c-.156-.278-3.741,1.044-2.976,1.651,1.174.175,2.034,1.226,3.307.993l-1.654-1.32h8.268l.992,41.659c-.373-.392-.215-.852-.991-.66l.675,2.966.948-.017c.108-.872.908-1.632,1.027-2.451.139-.954-.584-.343-1-.169m5.29,127.953-2.646.328,0,2.314c1.125.255.543-.968.662-1.651.233-.238,2.328,1.126,1.982-.992m-1.653,4.629-1.259.482.269,1.5.993,0c-.435-.681-.013-1.248,0-1.981m-.329,5.618c-.06-.855,1.359-1.295-.163-1.651l-.5,2.312,1.32-.332Zm.66,2.317-1.259.482.269,1.5.99,0-.664-.5Zm-.331,5.287c-.1-.082,1.789-1.81-.994-.988l.334,1.981,1.321-.333Zm.658,4.623c-.586-1.029.615-2.327-1.32-1.645l.334,1.983Zm.335,2.324-1.649.494c.664.44.509.819.326,1.487h.992c-.166-.936-.349-1.239.332-1.98m0,3.967-.991,0v1.984c1.175.263.381-1.331.991-1.98" transform="translate(-38.168 -21.953)" fill="#fff"/>
      <path id="Trazado_894030" data-name="Trazado 894030" d="M175.341,235.021v.661l-.493,0c-.227-.088-.155-.315-.167-.328.066.082.423-.23.661-.331" transform="translate(-77.122 -103.764)" fill="#fff"/>
      <path id="Trazado_894031" data-name="Trazado 894031" d="M51.732,48.608,53.717,314.1l-42,.331L10.06,75.72c16.166-.408,33.3-10.808,35.719-27.773Z" transform="translate(-4.442 -21.169)" fill="#fff"/>
      <path id="Trazado_894032" data-name="Trazado 894032" d="M262.409,72.407l-.329,1.65.991-.216L263.4,72.4l1.982.335,0,1.489-10.611,77.5-71.739,8.293-.662-97.868Zm.33,3.306-.99,2.312c.875.145.581-.141.747-.722a3.731,3.731,0,0,0,.242-1.59m-.661,3.968c-1.344-.034-.975,1.427-.99,2.312,1.344.034.975-1.427.99-2.312m-.329,4.3c-1.205-.4-1.769,1.231-.823,1.979Zm-.662,3.966-.99,0c.188.549-.612,1.649.168,1.984.594.256.6-.608.664-.98.045-.254.289-.871.159-1m-.661,3.968c-1.14-.085-1.049,1.037-.99,1.982,1.14.085,1.049-1.037.99-1.982m-.331,3.968-.99,0v1.984c.974.162.53-.231.691-.779.084-.285.388-1.119.3-1.2m-.662,3.636c-1.163-.193-.962,1.624-.99,2.312Zm-.661,3.968c-1.043-.436-1.124,2.175-.99,2.313l.99,0Zm-.661,6.28-.164-2.309-.747,1.828Zm-.331,1.984-.99,0v1.984c1.19.066,1.034-1.116.99-1.983m-.329,3.97-.983.226-.339,1.754.991,0Zm-.662,3.636-.99,2.312c.875.145.581-.141.747-.722a3.749,3.749,0,0,0,.242-1.59m-.661,4.3c-.88-.328-1.455,1.849-1.321,1.982l1.165-.321Zm-.662,3.968c-1.19-.065-1.033,1.116-.99,1.983l.99,0Zm-.331,3.968c-1.214-.06-1.027,1.173-.99,1.982,1.014.249.855-1.429.99-1.982m-.661,5.952c-.091-.935.782-1.992-.659-1.986l-.331,1.983Zm-.331,1.983-.99,0v2.315c.965.158.539-.216.693-.777a4.606,4.606,0,0,0,.3-1.535m-.662,3.968c-1.343-.034-.975,1.427-.99,2.312,1.344.034.975-1.427.99-2.312m-.661,3.967c-1.344-.034-.975,1.427-.99,2.312,1.344.034.975-1.427.99-2.312" transform="translate(-80.521 -27.442)" fill="#fff"/>
      <path id="Trazado_894033" data-name="Trazado 894033" d="M367.941,317.858l-3.967,105.468-14.059,1.319a162.811,162.811,0,0,1-17.869.681c-1.824-.069-3.826-.641-5.771-.347l3.97-72.405c2.36,2.683,6.381-.266,4.306-3.151-1.178-1.637-2.891-1.261-4.306-.155l.992-14.88c5.372,1.892,5.614-5.791,0-4.629.679-1.995.206-4.324.327-6.449.032-.562.292-1.082.338-1.645.106-1.275-.227-2.551.348-3.784.824-.565,4.087,2.149,5.045,2.682,8.138,4.524,16.339,3.6,24.593,0,.876-.381,5.66-3.1,6.056-2.705m-4.726,9.982c-2.212.5-2.648,4.071-.583,4.748,5.1,1.673,5.045-5.749.583-4.748M362.56,347c-3.255.622-2.43,5.539.838,5.178,3.675-.4,2.753-5.865-.838-5.178" transform="translate(-144.053 -140.313)" fill="#fff"/>
      <path id="Trazado_894034" data-name="Trazado 894034" d="M318.984,319.073c.288,1.411-.271,2.861-.333,4.128-1.529,31.312-3.05,62.554-4.96,93.9-.164,2.694-.051,5.42-.326,8.105-.514.507-12.674-1.474-14.084-2.642a33.834,33.834,0,0,0,.189-4.141c1.772-29.993,11.285-59.635,13.567-89.922.135-1.784-.5-4.786.812-6.132a24.542,24.542,0,0,1,3.846-2.768c.423-.235.735-.633,1.29-.526" transform="translate(-132.135 -140.865)" fill="#fff"/>
      <path id="Trazado_894035" data-name="Trazado 894035" d="M399.766,356.168c1.417.741,6,1.555,6.271,3.155l.328,7.607c1.843,17.167,3.719,34.351,4.629,51.578.023.45.251.85.3,1.291-.134.657-5.255,1.791-6.245,2.017-1.139.26-8.624,1.811-8.936,1.483.074-2.7-.09-5.418-.015-8.117.022-.791.341-1.492.362-2.283.781-28.914,1.959-57.788,3.3-86.636.121-2.6-.311-5.255.5-7.778.925.526,6.625,1.793,6.676,2.465-.136.968-.428,2.08-.531,3.025-.862,7.869-.941,15.837-1.024,23.773-.275,1.566-4.663,5.706-5.45,7.447a1.363,1.363,0,0,0-.161.972" transform="translate(-174.874 -140.614)" fill="#fff"/>
      <path id="Trazado_894036" data-name="Trazado 894036" d="M295.541,373.591l-4.791-.666c-3.942-.118-8.163-.218-11.866-1.692-.634-.253-3.59-1.707-3.485-2.384,1.85-2.449,3.927-4.7,5.726-7.192,6.236-8.651,10.958-18.7,16.463-27.845a45.01,45.01,0,0,1,3.9-5.847q-.277,8.668-1.353,17.325c-1.164,9.494-3.155,18.857-4.6,28.3" transform="translate(-121.59 -144.799)" fill="#fff"/>
      <path id="Trazado_894037" data-name="Trazado 894037" d="M367.993,318.139a29.537,29.537,0,0,1-13.567.5c-1.195-.273-3.325-.523-3.323-1.98,0-1.822,1.151-4.195,1.015-6.126.39-.416,2.076,1.66,2.484,1.978,4.353,3.384,8.155-1.01,12.395-2.309-.231,2.708.481,5.312,1,7.934" transform="translate(-155.016 -136.958)" fill="#fff"/>
      <path id="Trazado_894038" data-name="Trazado 894038" d="M383.071,301.158c1.117,3.828,4.47,6.288,7.609,8.429-2.487,1.892-5.444,2.891-8.265,4.134a21.286,21.286,0,0,1-.032-12.1c.1-.4.279-.99.687-.46" transform="translate(-168.446 -132.871)" fill="#fff"/>
      <path id="Trazado_894039" data-name="Trazado 894039" d="M345.433,312.444a24.726,24.726,0,0,1-4.407-2.7c-.262-.223-.654-.274-.545-.758.068-.3,2.664-2.915,3.11-3.51l3.5-5.925c.474,4.425-1.564,8.509-1.654,12.893" transform="translate(-150.318 -132.254)" fill="#fff"/>
      <path id="Trazado_894040" data-name="Trazado 894040" d="M423.341,393.362l-16.534-8.593c6.724-.451,12.736,3.33,16.534,8.593" transform="translate(-179.609 -169.863)" fill="#fff"/>
      <path id="Trazado_894041" data-name="Trazado 894041" d="M337.93,341.371a1.375,1.375,0,0,1-1.077,2.265c-2.5.013-.679-4.016,1.077-2.265" transform="translate(-148.182 -150.523)" fill="#fff"/>
      <path id="Trazado_894042" data-name="Trazado 894042" d="M336.336,374.81c.948-.083,1.973,1.713.777,2.445-2.152,1.317-2.891-2.259-.777-2.445" transform="translate(-147.939 -165.481)" fill="#fff"/>
      <path id="Trazado_894043" data-name="Trazado 894043" d="M430.753,370.839c-.428.446-3.9-2.174-4.459-2.649-2.365-2-4.428-4.773-6.777-6.78-3.807-3.251-8.853-5.405-13.9-4.459l7.444-9.912-2.419,4.853-.062,1.092c.475.1.537-.04.811-.344a51.543,51.543,0,0,0,2.779-5.157,25.11,25.11,0,0,0,1.376-3.257c.071-.5,0-.592-.505-.5-1.458.257-3.091,3.8-4.459,4.633a158.923,158.923,0,0,1,1.653-25.127c4.815,3.105,8.235,7.845,11.514,12.457,3.075,4.322,5.808,8.906,9,13.151,2.059,7.436-1.272,14.689-2,22" transform="translate(-179.085 -142.708)" fill="#fff"/>
      <path id="Trazado_894044" data-name="Trazado 894044" d="M419.409,364.668a.165.165,0,0,1,0,.331.165.165,0,0,1,0-.331" transform="translate(-185.102 -161.004)" fill="#fff"/>
      <path id="Trazado_894045" data-name="Trazado 894045" d="M366.7,238.573v12.894c-.533-.06-.517-.76-.885-1.007-1.579-1.058-3.266,1.54-3.084,1.663,1.732.82,2.281,1.538,3.966.006.15,3.783.66,7.947.349,11.753-.041.5,0,.919-.554,1.1l-55.021.373V252.459c.591-.106,3.2.221,3.308-.168.22-.765-.708-.482-1.156-.494-.717-.018-1.44.013-2.152,0V239.234Zm-19.182,8.267c-.547-.121-.758.079-1.164.321-1.082.642-5.855,4.314-6.606,4.314l-4.722-3.076-.1-.862-1.3-.036c-.06.56-.068.739.34,1.145.838.836,4.628,2.307,4.26,3.6-.181.632-4.766,3.708-5.887,3.228l-.366,1.616c.209.213,1.428-.54,1.755-.723,2.03-1.136,3.946-2.709,6.014-3.8.626,0,5.387,3.038,5.491,4.172l1.29-.315c.178-.772-.127-.531-.421-.741-1.73-1.231-3.716-2.175-5.2-3.719,0-.333,4.949-3.655,5.453-3.8.344-.1-.2,1.433.822.99Zm15.174,1.693c-4.036-1.795-3.549,3.913-.616,2.442.8-.4.753-1.646.616-2.442m-15.834,3.925a8.329,8.329,0,0,0,.827.327c.292,0,.607-.754.494-1.15-.3-1.044-2.013.227-1.321.823m3.016-.706-.2-.614-.824.826,1.316.826.331-1.323Zm1.616-.285c-.2.238.114,1.24.5,1.322.547.117.981-.6.821-1.154-.153-.533-1.154-.369-1.319-.168m3.3-.329c-1.536-.082-1.7.778-.495,1.648.625-.411.531-.95.495-1.648m1.326,1.652.989-1.154-.5-.5-.823.509Zm1.983-.332c.626.128.889-.426,1.318-.825l-.492-.491-.827.328Zm-40.018.331-.163-1.32a1.158,1.158,0,0,0-.5,1.32Zm.991,0c.086-.618,0-1.146-.657-1.322-.086.618,0,1.146.657,1.322m1.985-1.321h-1.321v1.32h1.321Zm1.654,0c-2.558.6.57,2.194.991.827.185-.6.072-.992-.658-.827l-.166,1Zm2.976,0h-1.32v1.32h1.32Zm1.984,0h-1.32c-.147,1.017.3,1.468,1.32,1.32Zm2.646,0c-1.268-.094-1.849.011-1.321,1.322l.972-.016Zm1.984,0h-1.32c-.153,1.755,1.473,1.755,1.32,0m2.316,0H333.3l.333,1.321.656,0Zm2.315.331-1.321-.332v.99c.589.087,1.157,0,1.321-.657m5.293-.332c-.108.711.465,1.118,1.154.989,1.016-.775-.131-1.135-1.154-.989m3.636,0H344.54c.007,1.311,1.313,1.311,1.321,0m15.875.332-1.321-.332c-.107.49.145.688.5.99h.324Zm-44.646.657-1.983-.657.5,1,.827-.012-.2-.331Zm43.366,1.034a2.031,2.031,0,0,0-.066,2.134,1.58,1.58,0,0,0,2.525-1.866c-.269-.4-2.184-.459-2.459-.268m-1.338,9.189a4.731,4.731,0,0,0-.188-.954c-.146-.319-1.589-3.693-2.15-2.986l-1.372,3.923c-2.947.771-5.908.2-8.885.046v1.319l1.782.011.344-.646c4.67.81,9.484-.428,14.261-.041,1.237.1,1.924.758,3.125.676.132-2.4-.794-1.39-2.145-1.316-1.579.086-3.2-.046-4.772-.033M329,263.368c2.8-4.615-4.86-4.4-1.984,0-4.553-.132-9.171.34-13.678-.35l-.542,1.343c7.283-.7,14.678-.163,22.007-.314.791-.016,1.481-.328,2.284-.362a52.832,52.832,0,0,1,6.132.345c.008-.472.141-.854-.334-1.149-1.267-.788-1.4.061-2.457.179-1.539.171-4.008.264-5.626.326-1.926.073-3.878-.083-5.8-.018" transform="translate(-137.516 -105.332)" fill="#fff"/>
      <path id="Trazado_894046" data-name="Trazado 894046" d="M406.937,261.049c.081.834-.527,1.114-1.321.99-.081-.834.527-1.114,1.321-.99" transform="translate(-179.08 -115.243)" fill="#fff"/>
      <path id="Trazado_894047" data-name="Trazado 894047" d="M403.06,213.711c-.007,1.214-.983,1.214-.99,0Z" transform="translate(-177.518 -94.355)" fill="#fff"/>
      <path id="Trazado_894048" data-name="Trazado 894048" d="M663.968,16.573a.165.165,0,0,1,0,.331.165.165,0,0,1,0-.331" transform="translate(-293.077 -7.317)" fill="#fff"/>
      <rect id="Rectángulo_402447" data-name="Rectángulo 402447" width="0.698" height="0.224" transform="matrix(0.707, -0.707, 0.707, 0.707, 38.696, 20.996)" fill="#fff"/>
      <path id="Trazado_894049" data-name="Trazado 894049" d="M688.867,31.837c-1.411.113-1.436-.493-.99-1.65.989-.1,1.084.776.99,1.65" transform="translate(-303.592 -13.324)" fill="#fff"/>
      <path id="Trazado_894050" data-name="Trazado 894050" d="M558.458,449.956l.371,2.273c-1.856.27-1.749-.783-1.651-2.315Z" transform="translate(-245.98 -198.641)" fill="#161615"/>
      <path id="Trazado_894051" data-name="Trazado 894051" d="M557.179,457c.437,0,.885-.142,1.154.331,1.661,2.921-1.615,3.071-1.154-.331" transform="translate(-245.98 -201.762)" fill="#161615"/>
      <path id="Trazado_894052" data-name="Trazado 894052" d="M557.54,466.8l-.336-2.478c1.539-.856,2.434,2.992.336,2.478" transform="translate(-246.011 -204.95)" fill="#161615"/>
      <path id="Trazado_894053" data-name="Trazado 894053" d="M557.54,473.868l-.337-2.476c1.577-.75.971,1.116,1.661,1.974Z" transform="translate(-246.011 -208.047)" fill="#161615"/>
      <path id="Trazado_894054" data-name="Trazado 894054" d="M558.653,478.783l-.361,1.465.69.352-1.321.5c.274-1.285-1.075-3.068.992-2.314" transform="translate(-246.132 -211.308)" fill="#161615"/>
      <path id="Trazado_894055" data-name="Trazado 894055" d="M558.534,486.031c-.62,1.039.612,2.637-.99,2.642l-.332-2.642Z" transform="translate(-246.015 -214.587)" fill="#161615"/>
      <path id="Trazado_894056" data-name="Trazado 894056" d="M558.534,493.136c.083.072-.3.526-.324.846-.018.285.665,2.164-.5,1.8-.814-.257.27-2-.5-2.642Z" transform="translate(-246.015 -217.724)" fill="#161615"/>
      <path id="Trazado_894057" data-name="Trazado 894057" d="M410.793,103.006l.295,1.785-.954.528c-.066-1-.911-2.255.659-2.314" transform="translate(-180.952 -45.478)" fill="#161615"/>
      <path id="Trazado_894058" data-name="Trazado 894058" d="M413.154,117.214l.295,1.786-.954.527-.3-1.785Z" transform="translate(-181.99 -51.751)" fill="#161615"/>
      <path id="Trazado_894059" data-name="Trazado 894059" d="M429.322,209.539l.333,2.313c-.705.125-.676-.056-.824-.646-.159-.628-.617-1.926.491-1.667" transform="translate(-189.232 -92.498)" fill="#161615"/>
      <path id="Trazado_894060" data-name="Trazado 894060" d="M408.389,89.387,407.9,91.37l-.5-1.982Z" transform="translate(-179.871 -39.465)" fill="#161615"/>
      <path id="Trazado_894061" data-name="Trazado 894061" d="M409.573,96.49l-.491,1.983-.5-1.982Z" transform="translate(-180.393 -42.601)" fill="#161615"/>
      <path id="Trazado_894062" data-name="Trazado 894062" d="M416.086,133.4h-.99v-1.984c1.19-.066,1.033,1.116.99,1.983" transform="translate(-183.269 -58.022)" fill="#161615"/>
      <path id="Trazado_894063" data-name="Trazado 894063" d="M418.455,147.612h-.99v-1.984c1.19-.066,1.033,1.116.99,1.983" transform="translate(-184.315 -64.295)" fill="#161615"/>
      <path id="Trazado_894064" data-name="Trazado 894064" d="M421.019,166.877c.479-.553,1.949,1.8.825,2.309Z" transform="translate(-185.884 -73.64)" fill="#161615"/>
      <path id="Trazado_894065" data-name="Trazado 894065" d="M424.379,181.145l.331,2.315c-1.372.07-.739-1.452-1.317-2.152Z" transform="translate(-186.932 -79.977)" fill="#161615"/>
      <path id="Trazado_894066" data-name="Trazado 894066" d="M411.93,110.708l.308,1.449-.956.529-.331-1.982Z" transform="translate(-181.439 -48.876)" fill="#161615"/>
      <path id="Trazado_894067" data-name="Trazado 894067" d="M423.524,176l-.99-.218-.331-1.763c.881-.327,1.455,1.851,1.321,1.982" transform="translate(-186.407 -76.817)" fill="#161615"/>
      <path id="Trazado_894068" data-name="Trazado 894068" d="M407.2,82.283c-.149.684.519,2.255-.657,1.985l-.333-1.982Z" transform="translate(-179.348 -36.328)" fill="#161615"/>
      <path id="Trazado_894069" data-name="Trazado 894069" d="M417.332,140.842c-.8.206-.734-.4-.829-.979-.065-.391-.265-1.322.334-1.33s.55,1.869.495,2.309" transform="translate(-183.853 -61.163)" fill="#161615"/>
      <path id="Trazado_894070" data-name="Trazado 894070" d="M419.611,155.047c-.637-.032-1.167-2.117-.989-2.313,1.334-.045.981,1.429.989,2.313" transform="translate(-184.81 -67.433)" fill="#161615"/>
      <path id="Trazado_894071" data-name="Trazado 894071" d="M414.542,124.775l.333,1.982c-1.569.284-1.045-2.914-.333-1.982" transform="translate(-182.719 -55.014)" fill="#161615"/>
      <path id="Trazado_894072" data-name="Trazado 894072" d="M426.942,195.322l-.164,2.312c-.513-.033-1.061-2.7.164-2.312" transform="translate(-188.172 -86.219)" fill="#161615"/>
      <path id="Trazado_894073" data-name="Trazado 894073" d="M425.778,188.225l.331,1.984-.99,0c.148-.688-.52-2.252.659-1.987" transform="translate(-187.669 -83.09)" fill="#161615"/>
      <path id="Trazado_894074" data-name="Trazado 894074" d="M420.814,161.818c-.645.74-1.079-1.726-.99-1.982,1.171-.073,1.04,1.087.99,1.982" transform="translate(-185.352 -70.567)" fill="#161615"/>
      <path id="Trazado_894075" data-name="Trazado 894075" d="M428.114,202.442l.332,1.984c-1.129.256-1.6-2.265-.332-1.984" transform="translate(-188.683 -89.37)" fill="#161615"/>
      <path id="Trazado_894076" data-name="Trazado 894076" d="M174.559,234.725c.414-.174,1.137-.785,1,.169-.119.818-.919,1.579-1.027,2.451l-.947.017-.676-2.966c.776-.192.619.269.991.66.012.013-.06.241.167.328l.493,0Z" transform="translate(-76.34 -103.468)" fill="#161615"/>
      <path id="Trazado_894077" data-name="Trazado 894077" d="M165.969,159.293l-.992-41.659h-8.268l1.653,1.32c-1.273.233-2.133-.818-3.307-.993-.765-.607,2.819-1.929,2.976-1.651l.178,1.011c2.25-.069,4.518.18,6.708-.4a3.445,3.445,0,0,0,.365-1.121c.594-4.589-.261-9.617-.321-14.181-.131-9.917.3-19.878.031-29.787-.065-2.365-1.053-4.962.32-7.254l-1.163,1.482c-.546-1.063.325-2.236.514-3.295l.968-.009,1,3.144-.94.089c-.1-.061.049-1.016-.38-.422l.643,50.886,2.336.693c.077,1-2.264,1.278-2.333,1.7l.677,40.127c-.238.1-.595.412-.661.331" transform="translate(-68.411 -27.705)" fill="#161615"/>
      <path id="Trazado_894078" data-name="Trazado 894078" d="M125.213,58.052l-.942.044a9.749,9.749,0,0,0-.393,2.436c-.036.518-.233.991-.65.5l.327-3.305-.987.661a4.019,4.019,0,0,1,.816-2.985c.365-.349.312-.427.67.008.557.679.4,1.922,1.159,2.643" transform="translate(-54.111 -24.331)" fill="#161615"/>
      <path id="Trazado_894079" data-name="Trazado 894079" d="M183.245,464.126c.346,2.119-1.748.753-1.982.992-.118.682.464,1.906-.661,1.651l0-2.314Z" transform="translate(-79.736 -204.916)" fill="#161615"/>
      <path id="Trazado_894080" data-name="Trazado 894080" d="M181.593,495.132l.662.66-1.321.333-.334-1.982c2.783-.822.9.907.994.989" transform="translate(-79.736 -218.071)" fill="#161615"/>
      <path id="Trazado_894081" data-name="Trazado 894081" d="M182.851,508.528c-.681.741-.5,1.044-.332,1.98h-.992c.184-.669.339-1.048-.325-1.487Z" transform="translate(-80.003 -224.52)" fill="#161615"/>
      <path id="Trazado_894082" data-name="Trazado 894082" d="M181.382,472.414c-.011.733-.432,1.3,0,1.981l-.993,0-.269-1.5Z" transform="translate(-79.526 -208.575)" fill="#161615"/>
      <path id="Trazado_894083" data-name="Trazado 894083" d="M181.265,481.169l.659.329-1.32.332.5-2.312c1.522.356.1.8.163,1.651" transform="translate(-79.739 -211.712)" fill="#161615"/>
      <path id="Trazado_894084" data-name="Trazado 894084" d="M182.512,502.916l-.986.338-.334-1.983c1.935-.682.733.615,1.32,1.645" transform="translate(-79.998 -221.232)" fill="#161615"/>
      <path id="Trazado_894085" data-name="Trazado 894085" d="M181.974,486.622l-.664,1.483.664.5-.99,0-.269-1.5Z" transform="translate(-79.788 -214.848)" fill="#161615"/>
      <path id="Trazado_894086" data-name="Trazado 894086" d="M183.371,515.629c-.609.649.184,2.243-.991,1.98v-1.984Z" transform="translate(-80.523 -227.653)" fill="#161615"/>
      <path id="Trazado_894087" data-name="Trazado 894087" d="M307.694,214.895c-.014.885.354,2.346-.99,2.312.014-.885-.354-2.346.99-2.312" transform="translate(-135.397 -94.877)" fill="#161615"/>
      <path id="Trazado_894088" data-name="Trazado 894088" d="M324.275,93.535c-.015.885.354,2.346-.99,2.312.014-.885-.354-2.346.99-2.312" transform="translate(-142.718 -41.296)" fill="#161615"/>
      <path id="Trazado_894089" data-name="Trazado 894089" d="M318.343,136.12v2.315l-.99,0c-.134-.139-.054-2.749.99-2.313" transform="translate(-140.093 -60.076)" fill="#161615"/>
      <path id="Trazado_894090" data-name="Trazado 894090" d="M308.879,207.791c-.015.885.354,2.346-.99,2.312.015-.885-.354-2.346.99-2.312" transform="translate(-135.921 -91.741)" fill="#161615"/>
      <path id="Trazado_894091" data-name="Trazado 894091" d="M313.367,172.244l-.155,1.661-1.166.321c-.135-.133.441-2.309,1.321-1.982" transform="translate(-137.763 -76.032)" fill="#161615"/>
      <path id="Trazado_894092" data-name="Trazado 894092" d="M319.566,129.044l-.99,2.312c.027-.688-.174-2.5.99-2.312" transform="translate(-140.655 -56.967)" fill="#161615"/>
      <path id="Trazado_894093" data-name="Trazado 894093" d="M325.488,86.431a3.736,3.736,0,0,1-.242,1.589c-.166.581.128.868-.747.723Z" transform="translate(-143.269 -38.16)" fill="#161615"/>
      <path id="Trazado_894094" data-name="Trazado 894094" d="M316.605,150.956c.044.867.2,2.049-.99,1.983v-1.984Z" transform="translate(-139.347 -66.648)" fill="#161615"/>
      <path id="Trazado_894095" data-name="Trazado 894095" d="M314.829,164.575a3.735,3.735,0,0,1-.242,1.589c-.166.581.128.868-.747.723Z" transform="translate(-138.563 -72.661)" fill="#161615"/>
      <path id="Trazado_894096" data-name="Trazado 894096" d="M312.436,179.373v1.984l-.99,0c-.044-.867-.2-2.049.99-1.983" transform="translate(-137.493 -79.193)" fill="#161615"/>
      <path id="Trazado_894097" data-name="Trazado 894097" d="M310.091,200.685a4.61,4.61,0,0,1-.3,1.535c-.154.562.272.935-.693.777v-2.315Z" transform="translate(-136.471 -88.603)" fill="#161615"/>
      <path id="Trazado_894098" data-name="Trazado 894098" d="M321.319,115.435c.059.945.15,2.067-.99,1.982-.059-.945-.151-2.067.99-1.982" transform="translate(-141.415 -50.963)" fill="#161615"/>
      <path id="Trazado_894099" data-name="Trazado 894099" d="M322.384,108.332c.131.128-.113.747-.159,1-.067.373-.069,1.236-.664.981-.78-.336.02-1.435-.168-1.984Z" transform="translate(-141.819 -47.828)" fill="#161615"/>
      <path id="Trazado_894100" data-name="Trazado 894100" d="M323.469,101.184l-.824,1.979c-.946-.748-.382-2.376.824-1.979" transform="translate(-142.241 -44.646)" fill="#161615"/>
      <path id="Trazado_894101" data-name="Trazado 894101" d="M310.683,195.567l-.99,0,.331-1.983c1.441-.007.568,1.051.659,1.986" transform="translate(-136.733 -85.467)" fill="#161615"/>
      <path id="Trazado_894102" data-name="Trazado 894102" d="M317.26,145.578l-.911-.481.747-1.827Z" transform="translate(-139.671 -63.254)" fill="#161615"/>
      <path id="Trazado_894103" data-name="Trazado 894103" d="M315.752,158.065l-.331,1.984-.991,0,.339-1.754Z" transform="translate(-138.824 -69.787)" fill="#161615"/>
      <path id="Trazado_894104" data-name="Trazado 894104" d="M320.75,122.542c.089.084-.214.917-.3,1.2-.161.547.283.94-.691.779v-1.984Z" transform="translate(-141.177 -54.102)" fill="#161615"/>
      <path id="Trazado_894105" data-name="Trazado 894105" d="M311.842,186.477c-.135.552.024,2.23-.99,1.982-.037-.809-.224-2.041.99-1.982" transform="translate(-137.23 -82.33)" fill="#161615"/>
      <path id="Trazado_894106" data-name="Trazado 894106" d="M390.9,335.7c4.462-1,4.519,6.421-.583,4.748-2.064-.676-1.629-4.252.583-4.748m1.673,3.5c1.051-1.048-.487-3.046-1.916-2.081-1.614,1.089.61,3.384,1.916,2.081" transform="translate(-171.741 -148.174)" fill="#161615"/>
      <path id="Trazado_894107" data-name="Trazado 894107" d="M389.611,370.036c3.591-.686,4.513,4.773.838,5.178-3.268.36-4.093-4.556-.838-5.178m-.015,1.33c-1.359.411-.927,2.431.271,2.6a1.378,1.378,0,1,0-.271-2.6" transform="translate(-171.105 -163.348)" fill="#161615"/>
      <path id="Trazado_894108" data-name="Trazado 894108" d="M330.042,280.3c1.925-.065,3.876.09,5.8.018,1.617-.061,4.086-.154,5.626-.326,1.059-.118,1.19-.967,2.457-.179.475.295.342.677.334,1.149a52.831,52.831,0,0,0-6.132-.345c-.8.034-1.493.346-2.284.362-7.329.151-14.723-.389-22.007.314l.542-1.343c4.507.69,9.125.218,13.678.35-2.876-4.4,4.785-4.615,1.984,0" transform="translate(-138.563 -122.26)" fill="#161615"/>
      <path id="Trazado_894109" data-name="Trazado 894109" d="M363.725,253.346l-.333,2.313c-1.019.442-.478-1.09-.822-.99-.5.146-5.453,3.468-5.453,3.8,1.479,1.544,3.465,2.488,5.195,3.719.295.21.6-.031.422.741l-1.289.315c-.1-1.134-4.865-4.176-5.491-4.172-2.069,1.089-3.984,2.661-6.014,3.8-.327.183-1.545.937-1.755.723l.366-1.616c1.121.48,5.706-2.6,5.887-3.228.369-1.29-3.421-2.761-4.259-3.6-.408-.407-.4-.586-.34-1.145l1.3.036.1.862,4.722,3.076c.752,0,5.525-3.672,6.606-4.314.407-.242.618-.442,1.165-.321" transform="translate(-153.727 -111.839)" fill="#161615"/>
      <path id="Trazado_894110" data-name="Trazado 894110" d="M386.829,278.548c1.577-.013,3.193.119,4.772.033,1.351-.074,2.276-1.082,2.145,1.316-1.2.083-1.888-.575-3.125-.676-4.777-.388-9.591.851-14.261.041l-.344.646-1.782-.011v-1.319c2.977.157,5.938.725,8.885-.046l1.372-3.923c.561-.706,2,2.667,2.15,2.986a4.732,4.732,0,0,1,.188.954m-2.341-2.286c-.38.546-.043,2.312.822,1.982,1.025-.392-.376-2.514-.822-1.982" transform="translate(-165.228 -121.199)" fill="#161615"/>
      <path id="Trazado_894111" data-name="Trazado 894111" d="M400.87,256.127c.138.8.188,2.039-.616,2.442-2.933,1.471-3.42-4.237.616-2.442m-1.444.291c-.185.042-.579.66-.826.825l.494.494c1.469.3,1.328-1.549.332-1.319" transform="translate(-175.698 -112.926)" fill="#161615"/>
      <path id="Trazado_894112" data-name="Trazado 894112" d="M398.916,265.2c.275-.191,2.191-.131,2.46.268a1.58,1.58,0,0,1-2.526,1.866,2.034,2.034,0,0,1,.066-2.134m1.942.62-.993-.179-.659,1,1.154.5Z" transform="translate(-175.978 -117.043)" fill="#161615"/>
      <path id="Trazado_894113" data-name="Trazado 894113" d="M330.812,261.626l.167,1,.166-1c.73-.165.844.226.658.828-.421,1.367-3.549-.23-.991-.827" transform="translate(-145.617 -115.493)" fill="#161615"/>
      <rect id="Rectángulo_402448" data-name="Rectángulo 402448" width="1.321" height="1.32" transform="translate(182.221 146.137)" fill="#161615"/>
      <rect id="Rectángulo_402449" data-name="Rectángulo 402449" width="1.32" height="1.32" transform="translate(186.851 146.137)" fill="#161615"/>
      <path id="Trazado_894114" data-name="Trazado 894114" d="M339.417,261.663v1.32c-1.017.147-1.468-.3-1.32-1.32Z" transform="translate(-149.261 -115.526)" fill="#161615"/>
      <path id="Trazado_894115" data-name="Trazado 894115" d="M344.021,261.643l-.348,1.306-.972.015c-.528-1.311.053-1.416,1.321-1.321" transform="translate(-151.22 -115.506)" fill="#161615"/>
      <path id="Trazado_894116" data-name="Trazado 894116" d="M388.018,261.067c.036.7.13,1.236-.495,1.648-1.206-.87-1.042-1.73.495-1.648" transform="translate(-170.744 -115.261)" fill="#161615"/>
      <path id="Trazado_894117" data-name="Trazado 894117" d="M383.073,261.508c.165-.2,1.167-.364,1.319.169.16.557-.274,1.271-.821,1.153-.384-.082-.694-1.083-.5-1.322" transform="translate(-169.104 -115.374)" fill="#161615"/>
      <path id="Trazado_894118" data-name="Trazado 894118" d="M347.72,261.663c.153,1.755-1.473,1.755-1.32,0Z" transform="translate(-152.935 -115.526)" fill="#161615"/>
      <path id="Trazado_894119" data-name="Trazado 894119" d="M379.416,261.684l.62-.285-.331,1.323-1.316-.826.824-.825Z" transform="translate(-167.063 -115.265)" fill="#161615"/>
      <path id="Trazado_894120" data-name="Trazado 894120" d="M374.7,262.469c-.692-.6,1.022-1.867,1.321-.823.113.4-.2,1.148-.494,1.15a8.4,8.4,0,0,1-.827-.327" transform="translate(-165.361 -115.343)" fill="#161615"/>
      <path id="Trazado_894121" data-name="Trazado 894121" d="M391.151,262.723l-.332-1.143.823-.509.5.5Z" transform="translate(-172.55 -115.265)" fill="#161615"/>
      <path id="Trazado_894122" data-name="Trazado 894122" d="M366.53,261.638c1.023-.146,2.17.214,1.154.989-.69.129-1.262-.278-1.154-.989" transform="translate(-161.821 -115.501)" fill="#161615"/>
      <path id="Trazado_894123" data-name="Trazado 894123" d="M319.966,262.914h-.86l.2.331-.826.012-.5-1Z" transform="translate(-140.392 -115.788)" fill="#161615"/>
      <path id="Trazado_894124" data-name="Trazado 894124" d="M351.874,261.664l-.332,1.322-.656,0-.333-1.321Z" transform="translate(-154.772 -115.526)" fill="#161615"/>
      <path id="Trazado_894125" data-name="Trazado 894125" d="M372.006,261.663c-.007,1.31-1.313,1.31-1.321,0Z" transform="translate(-163.661 -115.526)" fill="#161615"/>
      <path id="Trazado_894126" data-name="Trazado 894126" d="M394.963,262.394v-.988l.827-.328.491.491c-.428.4-.691.954-1.317.825" transform="translate(-174.38 -115.268)" fill="#161615"/>
      <path id="Trazado_894127" data-name="Trazado 894127" d="M356.018,261.994c-.165.656-.732.745-1.321.657v-.99Z" transform="translate(-156.602 -115.526)" fill="#161615"/>
      <path id="Trazado_894128" data-name="Trazado 894128" d="M400.411,261.994l-.5.657h-.324c-.353-.3-.6-.5-.5-.99Z" transform="translate(-176.191 -115.526)" fill="#161615"/>
      <path id="Trazado_894129" data-name="Trazado 894129" d="M322.766,262.983h-.659a1.158,1.158,0,0,1,.5-1.32Z" transform="translate(-142.201 -115.526)" fill="#161615"/>
      <path id="Trazado_894130" data-name="Trazado 894130" d="M324.543,262.984c-.66-.177-.743-.7-.657-1.323.66.177.743.7.657,1.323" transform="translate(-142.986 -115.525)" fill="#161615"/>
      <path id="Trazado_894131" data-name="Trazado 894131" d="M393.452,340.186c-1.306,1.3-3.53-.992-1.916-2.081,1.43-.965,2.967,1.033,1.916,2.081" transform="translate(-172.618 -149.163)" fill="#fff"/>
      <path id="Trazado_894132" data-name="Trazado 894132" d="M390.554,372.385a1.378,1.378,0,1,1,.271,2.6c-1.2-.172-1.631-2.191-.271-2.6" transform="translate(-172.062 -164.367)" fill="#fff"/>
      <path id="Trazado_894133" data-name="Trazado 894133" d="M392.473,277.58c.446-.532,1.847,1.589.822,1.982-.865.331-1.2-1.436-.822-1.982" transform="translate(-173.212 -122.516)" fill="#fff"/>
      <path id="Trazado_894134" data-name="Trazado 894134" d="M399.94,256.911c1-.23,1.138,1.624-.332,1.319l-.494-.494c.247-.166.641-.783.826-.825" transform="translate(-176.213 -113.42)" fill="#fff"/>
      <path id="Trazado_894135" data-name="Trazado 894135" d="M401.352,266.255l-.5,1.32-1.154-.5.658-1Z" transform="translate(-176.472 -117.475)" fill="#fff"/>
    </g>
    <path id="Trazado_894411" data-name="Trazado 894411" d="M2.848,0H2.121V-4.816L.664-4.281v-.656l2.07-.777h.113ZM5.055-.379a.453.453,0,0,1,.111-.312A.424.424,0,0,1,5.5-.816a.437.437,0,0,1,.338.125.443.443,0,0,1,.115.313.419.419,0,0,1-.115.3A.445.445,0,0,1,5.5.043a.432.432,0,0,1-.334-.121A.428.428,0,0,1,5.055-.379ZM7.4-2.852l.289-2.836h2.914v.668H8.3L8.133-3.469a1.835,1.835,0,0,1,.949-.246,1.569,1.569,0,0,1,1.234.514,2.013,2.013,0,0,1,.457,1.389A1.943,1.943,0,0,1,10.3-.428,1.73,1.73,0,0,1,8.973.078,1.8,1.8,0,0,1,7.742-.34,1.668,1.668,0,0,1,7.2-1.5h.684A1.148,1.148,0,0,0,8.23-.76a1.081,1.081,0,0,0,.742.248.975.975,0,0,0,.791-.344,1.437,1.437,0,0,0,.287-.949,1.319,1.319,0,0,0-.311-.916,1.056,1.056,0,0,0-.826-.346,1.191,1.191,0,0,0-.742.207L7.98-2.7Zm5.93,2.34a1.041,1.041,0,0,0,.676-.234.825.825,0,0,0,.32-.586h.684a1.31,1.31,0,0,1-.25.691,1.647,1.647,0,0,1-.615.523,1.775,1.775,0,0,1-.814.2A1.741,1.741,0,0,1,11.959-.5a2.3,2.3,0,0,1-.51-1.576V-2.2a2.545,2.545,0,0,1,.227-1.1,1.726,1.726,0,0,1,.65-.746,1.848,1.848,0,0,1,1-.266,1.7,1.7,0,0,1,1.182.426,1.522,1.522,0,0,1,.5,1.105h-.684a1,1,0,0,0-.311-.674.966.966,0,0,0-.689-.264,1.011,1.011,0,0,0-.854.4,1.862,1.862,0,0,0-.3,1.146v.137a1.825,1.825,0,0,0,.3,1.125A1.016,1.016,0,0,0,13.332-.512ZM16.5-4.227l.02.469A1.561,1.561,0,0,1,17.777-4.3a1.208,1.208,0,0,1,1.207.68,1.6,1.6,0,0,1,.549-.492,1.621,1.621,0,0,1,.8-.187q1.391,0,1.414,1.473V0h-.723V-2.789a.97.97,0,0,0-.207-.678.912.912,0,0,0-.7-.225.958.958,0,0,0-.668.24.975.975,0,0,0-.309.646V0h-.727V-2.77a.806.806,0,0,0-.9-.922.967.967,0,0,0-.973.605V0H15.82V-4.227Z" transform="translate(291.051 17220)" fill="#12263f"/>
    <path id="Trazado_894412" data-name="Trazado 894412" d="M2.848,0H2.121V-4.816L.664-4.281v-.656l2.07-.777h.113ZM5.055-.379a.453.453,0,0,1,.111-.312A.424.424,0,0,1,5.5-.816a.437.437,0,0,1,.338.125.443.443,0,0,1,.115.313.419.419,0,0,1-.115.3A.445.445,0,0,1,5.5.043a.432.432,0,0,1-.334-.121A.428.428,0,0,1,5.055-.379ZM7.4-2.852l.289-2.836h2.914v.668H8.3L8.133-3.469a1.835,1.835,0,0,1,.949-.246,1.569,1.569,0,0,1,1.234.514,2.013,2.013,0,0,1,.457,1.389A1.943,1.943,0,0,1,10.3-.428,1.73,1.73,0,0,1,8.973.078,1.8,1.8,0,0,1,7.742-.34,1.668,1.668,0,0,1,7.2-1.5h.684A1.148,1.148,0,0,0,8.23-.76a1.081,1.081,0,0,0,.742.248.975.975,0,0,0,.791-.344,1.437,1.437,0,0,0,.287-.949,1.319,1.319,0,0,0-.311-.916,1.056,1.056,0,0,0-.826-.346,1.191,1.191,0,0,0-.742.207L7.98-2.7Zm5.93,2.34a1.041,1.041,0,0,0,.676-.234.825.825,0,0,0,.32-.586h.684a1.31,1.31,0,0,1-.25.691,1.647,1.647,0,0,1-.615.523,1.775,1.775,0,0,1-.814.2A1.741,1.741,0,0,1,11.959-.5a2.3,2.3,0,0,1-.51-1.576V-2.2a2.545,2.545,0,0,1,.227-1.1,1.726,1.726,0,0,1,.65-.746,1.848,1.848,0,0,1,1-.266,1.7,1.7,0,0,1,1.182.426,1.522,1.522,0,0,1,.5,1.105h-.684a1,1,0,0,0-.311-.674.966.966,0,0,0-.689-.264,1.011,1.011,0,0,0-.854.4,1.862,1.862,0,0,0-.3,1.146v.137a1.825,1.825,0,0,0,.3,1.125A1.016,1.016,0,0,0,13.332-.512ZM16.5-4.227l.02.469A1.561,1.561,0,0,1,17.777-4.3a1.208,1.208,0,0,1,1.207.68,1.6,1.6,0,0,1,.549-.492,1.621,1.621,0,0,1,.8-.187q1.391,0,1.414,1.473V0h-.723V-2.789a.97.97,0,0,0-.207-.678.912.912,0,0,0-.7-.225.958.958,0,0,0-.668.24.975.975,0,0,0-.309.646V0h-.727V-2.77a.806.806,0,0,0-.9-.922.967.967,0,0,0-.973.605V0H15.82V-4.227Z" transform="translate(530.051 17472)" fill="#12263f"/>
    <path id="Trazado_894413" data-name="Trazado 894413" d="M2.848,0H2.121V-4.816L.664-4.281v-.656l2.07-.777h.113ZM5.055-.379a.453.453,0,0,1,.111-.312A.424.424,0,0,1,5.5-.816a.437.437,0,0,1,.338.125.443.443,0,0,1,.115.313.419.419,0,0,1-.115.3A.445.445,0,0,1,5.5.043a.432.432,0,0,1-.334-.121A.428.428,0,0,1,5.055-.379ZM7.4-2.852l.289-2.836h2.914v.668H8.3L8.133-3.469a1.835,1.835,0,0,1,.949-.246,1.569,1.569,0,0,1,1.234.514,2.013,2.013,0,0,1,.457,1.389A1.943,1.943,0,0,1,10.3-.428,1.73,1.73,0,0,1,8.973.078,1.8,1.8,0,0,1,7.742-.34,1.668,1.668,0,0,1,7.2-1.5h.684A1.148,1.148,0,0,0,8.23-.76a1.081,1.081,0,0,0,.742.248.975.975,0,0,0,.791-.344,1.437,1.437,0,0,0,.287-.949,1.319,1.319,0,0,0-.311-.916,1.056,1.056,0,0,0-.826-.346,1.191,1.191,0,0,0-.742.207L7.98-2.7Zm5.93,2.34a1.041,1.041,0,0,0,.676-.234.825.825,0,0,0,.32-.586h.684a1.31,1.31,0,0,1-.25.691,1.647,1.647,0,0,1-.615.523,1.775,1.775,0,0,1-.814.2A1.741,1.741,0,0,1,11.959-.5a2.3,2.3,0,0,1-.51-1.576V-2.2a2.545,2.545,0,0,1,.227-1.1,1.726,1.726,0,0,1,.65-.746,1.848,1.848,0,0,1,1-.266,1.7,1.7,0,0,1,1.182.426,1.522,1.522,0,0,1,.5,1.105h-.684a1,1,0,0,0-.311-.674.966.966,0,0,0-.689-.264,1.011,1.011,0,0,0-.854.4,1.862,1.862,0,0,0-.3,1.146v.137a1.825,1.825,0,0,0,.3,1.125A1.016,1.016,0,0,0,13.332-.512ZM16.5-4.227l.02.469A1.561,1.561,0,0,1,17.777-4.3a1.208,1.208,0,0,1,1.207.68,1.6,1.6,0,0,1,.549-.492,1.621,1.621,0,0,1,.8-.187q1.391,0,1.414,1.473V0h-.723V-2.789a.97.97,0,0,0-.207-.678.912.912,0,0,0-.7-.225.958.958,0,0,0-.668.24.975.975,0,0,0-.309.646V0h-.727V-2.77a.806.806,0,0,0-.9-.922.967.967,0,0,0-.973.605V0H15.82V-4.227Z" transform="translate(328.051 17481)" fill="#12263f"/>
    <path id="Trazado_894414" data-name="Trazado 894414" d="M3.523-1.91h.789v.59H3.523V0H2.8V-1.32H.207v-.426L2.754-5.687h.77Zm-2.5,0H2.8V-4.7l-.086.156Zm5.707,1.4A1.041,1.041,0,0,0,7.41-.746a.825.825,0,0,0,.32-.586h.684a1.31,1.31,0,0,1-.25.691,1.647,1.647,0,0,1-.615.523,1.775,1.775,0,0,1-.814.2A1.741,1.741,0,0,1,5.361-.5a2.3,2.3,0,0,1-.51-1.576V-2.2a2.545,2.545,0,0,1,.227-1.1,1.726,1.726,0,0,1,.65-.746,1.848,1.848,0,0,1,1-.266,1.7,1.7,0,0,1,1.182.426,1.522,1.522,0,0,1,.5,1.105H7.73a1,1,0,0,0-.311-.674.966.966,0,0,0-.689-.264,1.011,1.011,0,0,0-.854.4,1.862,1.862,0,0,0-.3,1.146v.137a1.825,1.825,0,0,0,.3,1.125A1.016,1.016,0,0,0,6.734-.512ZM9.906-4.227l.02.469A1.561,1.561,0,0,1,11.18-4.3a1.208,1.208,0,0,1,1.207.68,1.6,1.6,0,0,1,.549-.492,1.621,1.621,0,0,1,.8-.187q1.391,0,1.414,1.473V0h-.723V-2.789a.97.97,0,0,0-.207-.678.912.912,0,0,0-.7-.225.958.958,0,0,0-.668.24.975.975,0,0,0-.309.646V0H11.82V-2.77a.806.806,0,0,0-.9-.922.967.967,0,0,0-.973.605V0H9.223V-4.227Z" transform="translate(309.051 17272)" fill="#12263f"/>
    <path id="Trazado_894415" data-name="Trazado 894415" d="M4.2,0H.473V-.52L2.441-2.707a4.677,4.677,0,0,0,.6-.807,1.346,1.346,0,0,0,.166-.643,1.02,1.02,0,0,0-.27-.73.942.942,0,0,0-.719-.285,1.116,1.116,0,0,0-.838.307,1.171,1.171,0,0,0-.3.854H.363a1.677,1.677,0,0,1,.506-1.27,1.875,1.875,0,0,1,1.354-.484,1.8,1.8,0,0,1,1.254.416,1.419,1.419,0,0,1,.461,1.107,3.253,3.253,0,0,1-1.07,2L1.344-.59H4.2ZM8.016-1.91H8.8v.59H8.016V0H7.289V-1.32H4.7v-.426L7.246-5.687h.77Zm-2.5,0h1.77V-4.7L7.2-4.543Zm5.707,1.4A1.041,1.041,0,0,0,11.9-.746a.825.825,0,0,0,.32-.586h.684a1.31,1.31,0,0,1-.25.691,1.647,1.647,0,0,1-.615.523,1.775,1.775,0,0,1-.814.2A1.741,1.741,0,0,1,9.854-.5a2.3,2.3,0,0,1-.51-1.576V-2.2a2.545,2.545,0,0,1,.227-1.1,1.726,1.726,0,0,1,.65-.746,1.848,1.848,0,0,1,1-.266,1.7,1.7,0,0,1,1.182.426,1.522,1.522,0,0,1,.5,1.105h-.684a1,1,0,0,0-.311-.674.966.966,0,0,0-.689-.264,1.011,1.011,0,0,0-.854.4,1.862,1.862,0,0,0-.3,1.146v.137a1.825,1.825,0,0,0,.3,1.125A1.016,1.016,0,0,0,11.227-.512ZM14.4-4.227l.02.469A1.561,1.561,0,0,1,15.672-4.3a1.208,1.208,0,0,1,1.207.68,1.6,1.6,0,0,1,.549-.492,1.621,1.621,0,0,1,.8-.187q1.391,0,1.414,1.473V0h-.723V-2.789a.97.97,0,0,0-.207-.678.912.912,0,0,0-.7-.225.958.958,0,0,0-.668.24.975.975,0,0,0-.309.646V0h-.727V-2.77a.806.806,0,0,0-.9-.922.967.967,0,0,0-.973.605V0h-.723V-4.227Z" transform="translate(416.051 17282)" fill="#12263f"/>
    <path id="Trazado_894416" data-name="Trazado 894416" d="M4.2,0H.473V-.52L2.441-2.707a4.677,4.677,0,0,0,.6-.807,1.346,1.346,0,0,0,.166-.643,1.02,1.02,0,0,0-.27-.73.942.942,0,0,0-.719-.285,1.116,1.116,0,0,0-.838.307,1.171,1.171,0,0,0-.3.854H.363a1.677,1.677,0,0,1,.506-1.27,1.875,1.875,0,0,1,1.354-.484,1.8,1.8,0,0,1,1.254.416,1.419,1.419,0,0,1,.461,1.107,3.253,3.253,0,0,1-1.07,2L1.344-.59H4.2ZM8.016-1.91H8.8v.59H8.016V0H7.289V-1.32H4.7v-.426L7.246-5.687h.77Zm-2.5,0h1.77V-4.7L7.2-4.543Zm5.707,1.4A1.041,1.041,0,0,0,11.9-.746a.825.825,0,0,0,.32-.586h.684a1.31,1.31,0,0,1-.25.691,1.647,1.647,0,0,1-.615.523,1.775,1.775,0,0,1-.814.2A1.741,1.741,0,0,1,9.854-.5a2.3,2.3,0,0,1-.51-1.576V-2.2a2.545,2.545,0,0,1,.227-1.1,1.726,1.726,0,0,1,.65-.746,1.848,1.848,0,0,1,1-.266,1.7,1.7,0,0,1,1.182.426,1.522,1.522,0,0,1,.5,1.105h-.684a1,1,0,0,0-.311-.674.966.966,0,0,0-.689-.264,1.011,1.011,0,0,0-.854.4,1.862,1.862,0,0,0-.3,1.146v.137a1.825,1.825,0,0,0,.3,1.125A1.016,1.016,0,0,0,11.227-.512ZM14.4-4.227l.02.469A1.561,1.561,0,0,1,15.672-4.3a1.208,1.208,0,0,1,1.207.68,1.6,1.6,0,0,1,.549-.492,1.621,1.621,0,0,1,.8-.187q1.391,0,1.414,1.473V0h-.723V-2.789a.97.97,0,0,0-.207-.678.912.912,0,0,0-.7-.225.958.958,0,0,0-.668.24.975.975,0,0,0-.309.646V0h-.727V-2.77a.806.806,0,0,0-.9-.922.967.967,0,0,0-.973.605V0h-.723V-4.227Z" transform="translate(428.051 17253)" fill="#12263f"/>
    <path id="Trazado_894417" data-name="Trazado 894417" d="M4.2,0H.473V-.52L2.441-2.707a4.677,4.677,0,0,0,.6-.807,1.346,1.346,0,0,0,.166-.643,1.02,1.02,0,0,0-.27-.73.942.942,0,0,0-.719-.285,1.116,1.116,0,0,0-.838.307,1.171,1.171,0,0,0-.3.854H.363a1.677,1.677,0,0,1,.506-1.27,1.875,1.875,0,0,1,1.354-.484,1.8,1.8,0,0,1,1.254.416,1.419,1.419,0,0,1,.461,1.107,3.253,3.253,0,0,1-1.07,2L1.344-.59H4.2ZM5.3-2.852l.289-2.836H8.5v.668H6.2L6.027-3.469a1.835,1.835,0,0,1,.949-.246A1.569,1.569,0,0,1,8.211-3.2a2.013,2.013,0,0,1,.457,1.389A1.943,1.943,0,0,1,8.193-.428,1.73,1.73,0,0,1,6.867.078,1.8,1.8,0,0,1,5.637-.34,1.668,1.668,0,0,1,5.094-1.5h.684a1.148,1.148,0,0,0,.348.736,1.081,1.081,0,0,0,.742.248.975.975,0,0,0,.791-.344A1.437,1.437,0,0,0,7.945-1.8a1.319,1.319,0,0,0-.311-.916,1.056,1.056,0,0,0-.826-.346,1.191,1.191,0,0,0-.742.207L5.875-2.7Zm5.93,2.34A1.041,1.041,0,0,0,11.9-.746a.825.825,0,0,0,.32-.586h.684a1.31,1.31,0,0,1-.25.691,1.647,1.647,0,0,1-.615.523,1.775,1.775,0,0,1-.814.2A1.741,1.741,0,0,1,9.854-.5a2.3,2.3,0,0,1-.51-1.576V-2.2a2.545,2.545,0,0,1,.227-1.1,1.726,1.726,0,0,1,.65-.746,1.848,1.848,0,0,1,1-.266,1.7,1.7,0,0,1,1.182.426,1.522,1.522,0,0,1,.5,1.105h-.684a1,1,0,0,0-.311-.674.966.966,0,0,0-.689-.264,1.011,1.011,0,0,0-.854.4,1.862,1.862,0,0,0-.3,1.146v.137a1.825,1.825,0,0,0,.3,1.125A1.016,1.016,0,0,0,11.227-.512ZM14.4-4.227l.02.469A1.561,1.561,0,0,1,15.672-4.3a1.208,1.208,0,0,1,1.207.68,1.6,1.6,0,0,1,.549-.492,1.621,1.621,0,0,1,.8-.187q1.391,0,1.414,1.473V0h-.723V-2.789a.97.97,0,0,0-.207-.678.912.912,0,0,0-.7-.225.958.958,0,0,0-.668.24.975.975,0,0,0-.309.646V0h-.727V-2.77a.806.806,0,0,0-.9-.922.967.967,0,0,0-.973.605V0h-.723V-4.227Z" transform="translate(478.051 17193)" fill="#12263f"/>
    <path id="Trazado_894418" data-name="Trazado 894418" d="M1.523-3.2h.543a1.193,1.193,0,0,0,.8-.27.9.9,0,0,0,.293-.707.882.882,0,0,0-1-1A1.036,1.036,0,0,0,1.42-4.9a.936.936,0,0,0-.279.709H.418A1.451,1.451,0,0,1,.912-5.318a1.8,1.8,0,0,1,1.256-.447A1.779,1.779,0,0,1,3.43-5.34a1.538,1.538,0,0,1,.457,1.184,1.248,1.248,0,0,1-.24.719,1.451,1.451,0,0,1-.654.52,1.4,1.4,0,0,1,.725.492,1.367,1.367,0,0,1,.256.84,1.551,1.551,0,0,1-.5,1.215,1.872,1.872,0,0,1-1.3.449,1.922,1.922,0,0,1-1.3-.434A1.438,1.438,0,0,1,.367-1.5h.727a.93.93,0,0,0,.293.719,1.114,1.114,0,0,0,.785.27,1.093,1.093,0,0,0,.8-.273A1.054,1.054,0,0,0,3.25-1.57a.956.956,0,0,0-.3-.762,1.328,1.328,0,0,0-.879-.273H1.523Zm7.008.77A3.305,3.305,0,0,1,8.1-.539,1.542,1.542,0,0,1,6.742.078a1.553,1.553,0,0,1-1.348-.6,3.137,3.137,0,0,1-.453-1.8v-.965a3.232,3.232,0,0,1,.434-1.863,1.554,1.554,0,0,1,1.359-.609,1.568,1.568,0,0,1,1.352.588,3.119,3.119,0,0,1,.445,1.814Zm-.723-.988a2.648,2.648,0,0,0-.258-1.338.887.887,0,0,0-.816-.42.876.876,0,0,0-.809.418,2.585,2.585,0,0,0-.262,1.285v1.156A2.69,2.69,0,0,0,5.932-.951a.886.886,0,0,0,.811.439.874.874,0,0,0,.795-.414,2.593,2.593,0,0,0,.271-1.3Zm3.418,2.9A1.041,1.041,0,0,0,11.9-.746a.825.825,0,0,0,.32-.586h.684a1.31,1.31,0,0,1-.25.691,1.647,1.647,0,0,1-.615.523,1.775,1.775,0,0,1-.814.2A1.741,1.741,0,0,1,9.854-.5a2.3,2.3,0,0,1-.51-1.576V-2.2a2.545,2.545,0,0,1,.227-1.1,1.726,1.726,0,0,1,.65-.746,1.848,1.848,0,0,1,1-.266,1.7,1.7,0,0,1,1.182.426,1.522,1.522,0,0,1,.5,1.105h-.684a1,1,0,0,0-.311-.674.966.966,0,0,0-.689-.264,1.011,1.011,0,0,0-.854.4,1.862,1.862,0,0,0-.3,1.146v.137a1.825,1.825,0,0,0,.3,1.125A1.016,1.016,0,0,0,11.227-.512ZM14.4-4.227l.02.469A1.561,1.561,0,0,1,15.672-4.3a1.208,1.208,0,0,1,1.207.68,1.6,1.6,0,0,1,.549-.492,1.621,1.621,0,0,1,.8-.187q1.391,0,1.414,1.473V0h-.723V-2.789a.97.97,0,0,0-.207-.678.912.912,0,0,0-.7-.225.958.958,0,0,0-.668.24.975.975,0,0,0-.309.646V0h-.727V-2.77a.806.806,0,0,0-.9-.922.967.967,0,0,0-.973.605V0h-.723V-4.227Z" transform="translate(320.051 17232) rotate(90)" fill="#12263f"/>
    <path id="Trazado_894419" data-name="Trazado 894419" d="M3.309-5.691v.613H3.176a1.9,1.9,0,0,0-1.344.5,2.081,2.081,0,0,0-.578,1.363A1.543,1.543,0,0,1,2.48-3.73a1.475,1.475,0,0,1,1.186.523,2.019,2.019,0,0,1,.443,1.352A2.013,2.013,0,0,1,3.631-.449,1.648,1.648,0,0,1,2.348.078,1.623,1.623,0,0,1,1.023-.549,2.485,2.485,0,0,1,.516-2.164v-.277a3.744,3.744,0,0,1,.67-2.4,2.46,2.46,0,0,1,1.994-.85ZM2.359-3.129a1.153,1.153,0,0,0-.684.223,1.16,1.16,0,0,0-.434.559v.266A1.866,1.866,0,0,0,1.559-.949a.948.948,0,0,0,.789.43.919.919,0,0,0,.768-.359,1.491,1.491,0,0,0,.279-.941,1.492,1.492,0,0,0-.283-.947A.908.908,0,0,0,2.359-3.129ZM8.715-.512a1.041,1.041,0,0,0,.676-.234.825.825,0,0,0,.32-.586h.684a1.31,1.31,0,0,1-.25.691,1.647,1.647,0,0,1-.615.523,1.775,1.775,0,0,1-.814.2A1.741,1.741,0,0,1,7.342-.5a2.3,2.3,0,0,1-.51-1.576V-2.2a2.545,2.545,0,0,1,.227-1.1,1.726,1.726,0,0,1,.65-.746,1.848,1.848,0,0,1,1-.266,1.7,1.7,0,0,1,1.182.426,1.522,1.522,0,0,1,.5,1.105H9.711A1,1,0,0,0,9.4-3.447a.966.966,0,0,0-.689-.264,1.011,1.011,0,0,0-.854.4,1.862,1.862,0,0,0-.3,1.146v.137a1.825,1.825,0,0,0,.3,1.125A1.016,1.016,0,0,0,8.715-.512Zm3.172-3.715.02.469A1.561,1.561,0,0,1,13.16-4.3a1.208,1.208,0,0,1,1.207.68,1.6,1.6,0,0,1,.549-.492,1.621,1.621,0,0,1,.8-.187q1.391,0,1.414,1.473V0h-.723V-2.789a.97.97,0,0,0-.207-.678.912.912,0,0,0-.7-.225.958.958,0,0,0-.668.24.975.975,0,0,0-.309.646V0H13.8V-2.77a.806.806,0,0,0-.9-.922.967.967,0,0,0-.973.605V0H11.2V-4.227Z" transform="translate(532.051 17402)" fill="#12263f"/>
    <path id="Trazado_894420" data-name="Trazado 894420" d="M1.523-3.2h.543a1.193,1.193,0,0,0,.8-.27.9.9,0,0,0,.293-.707.882.882,0,0,0-1-1A1.036,1.036,0,0,0,1.42-4.9a.936.936,0,0,0-.279.709H.418A1.451,1.451,0,0,1,.912-5.318a1.8,1.8,0,0,1,1.256-.447A1.779,1.779,0,0,1,3.43-5.34a1.538,1.538,0,0,1,.457,1.184,1.248,1.248,0,0,1-.24.719,1.451,1.451,0,0,1-.654.52,1.4,1.4,0,0,1,.725.492,1.367,1.367,0,0,1,.256.84,1.551,1.551,0,0,1-.5,1.215,1.872,1.872,0,0,1-1.3.449,1.922,1.922,0,0,1-1.3-.434A1.438,1.438,0,0,1,.367-1.5h.727a.93.93,0,0,0,.293.719,1.114,1.114,0,0,0,.785.27,1.093,1.093,0,0,0,.8-.273A1.054,1.054,0,0,0,3.25-1.57a.956.956,0,0,0-.3-.762,1.328,1.328,0,0,0-.879-.273H1.523ZM8.715-.512a1.041,1.041,0,0,0,.676-.234.825.825,0,0,0,.32-.586h.684a1.31,1.31,0,0,1-.25.691,1.647,1.647,0,0,1-.615.523,1.775,1.775,0,0,1-.814.2A1.741,1.741,0,0,1,7.342-.5a2.3,2.3,0,0,1-.51-1.576V-2.2a2.545,2.545,0,0,1,.227-1.1,1.726,1.726,0,0,1,.65-.746,1.848,1.848,0,0,1,1-.266,1.7,1.7,0,0,1,1.182.426,1.522,1.522,0,0,1,.5,1.105H9.711A1,1,0,0,0,9.4-3.447a.966.966,0,0,0-.689-.264,1.011,1.011,0,0,0-.854.4,1.862,1.862,0,0,0-.3,1.146v.137a1.825,1.825,0,0,0,.3,1.125A1.016,1.016,0,0,0,8.715-.512Zm3.172-3.715.02.469A1.561,1.561,0,0,1,13.16-4.3a1.208,1.208,0,0,1,1.207.68,1.6,1.6,0,0,1,.549-.492,1.621,1.621,0,0,1,.8-.187q1.391,0,1.414,1.473V0h-.723V-2.789a.97.97,0,0,0-.207-.678.912.912,0,0,0-.7-.225.958.958,0,0,0-.668.24.975.975,0,0,0-.309.646V0H13.8V-2.77a.806.806,0,0,0-.9-.922.967.967,0,0,0-.973.605V0H11.2V-4.227Z" transform="translate(555.051 17417)" fill="#12263f"/>
  </g>
</svg>
