<svg xmlns="http://www.w3.org/2000/svg" width="505" height="364" viewBox="0 0 505 364">
  <g id="Grupo_1102573" data-name="Grupo 1102573" transform="translate(-285 -12128.907)">
    <path id="Trazado_894322" data-name="Trazado 894322" d="M20,0H485a20,20,0,0,1,20,20V344a20,20,0,0,1-20,20H20A20,20,0,0,1,0,344V20A20,20,0,0,1,20,0Z" transform="translate(285 12128.907)" fill="#e4def6" opacity="0.88"/>
    <path id="Imagen_1_upscayl_4x_digital-art-4x" data-name="Imagen 1_upscayl_4x_digital-art-4x" d="M20,0H437a20,20,0,0,1,20,20V266a20,20,0,0,1-20,20H20A20,20,0,0,1,0,266V20A20,20,0,0,1,20,0Z" transform="translate(309 12167.907)" fill="#fff" opacity="0.88"/>
    <path id="Trazado_893704" data-name="Trazado 893704" d="M523.851,66.689c-.021.085-.484.642-.654.329-.714-.493-.012-3.394-.657-4.417a133.713,133.713,0,0,0-30.248,18.967c-13.467,11.261-21.176,23.758-31.434,37.562q-13.144,17.688-26.632,35.17c-2.511,3.249-5.315,7.354-8,10.312-.691.761-1.689,2.053-2.787,1.952-.341-.295,4.152-5.5,4.575-6.05q20.782-27.162,41.158-54.651c11.4-15.46,21.151-25.924,37.7-36.207,14.19-8.819,29.844-13.178,45.594-18.5,8.541-2.888,17.147-5.6,25.683-8.5l-7.85-19.61,24.636,7.48c.973-.246,7.933-11.837,9.288-13.617.3-.4.722-.717,1.074-.4L598.1,36.613l9.481-2.456-.327-.977a29.46,29.46,0,0,0,3.034-.077c.36-.023.635-.676.561.236a17.788,17.788,0,0,1-2.189,1.762c-.6.167-1.162-.263-1.814-.221a28.707,28.707,0,0,0-3.2.742c-1.849.484-3.671,1.376-5.543,1.82l3.918,12.41c1.557-1.313,3-2.786,4.43-4.242.547-.559.292-1.258,1.453-.987l-2.453,10.133c2.56-2.224,4.122-5.839,7.014-7.555l-.3-1.581a6.44,6.44,0,0,0,2.432-1.334c.249-.15.561-.664.826-.155-.783.672-.9,2.533-1.469,3.109-.318.324-.838.3-1.118.515-2.535,1.929-4.212,4.728-6.247,7.161-.317.379-1.944,1.827-1.954,1.966-.034.522.639.3.9.258,7.787-1.119,15.495-2.975,23.3-4.016.225.81-.756.87-1.317,1.131-3.066,1.424-6.633,2.373-9.8,3.611l-7.2,3.1c2.482.855,4.75,2.259,7.271,3.032,3.983,1.22,7.424,1.137,11.011,3.706,3.668,2.627,4.733,6.087,5.233,10.462-.148,17.746.158,35.549.375,53.243.47,38.353.542,76.722.981,115.08.074,6.487-.086,12.986-.016,19.47H634.4c-.081-3.758.1-7.536.014-11.3-.856-38.059-.609-76.318-.981-114.427-.174-17.787-.186-35.809-.685-53.586-.141-5,.77-9.829-1.558-14.462-1.982-3.944-5.286-5.5-9.545-5.986l1.49,199.776-132.323,1.616-.655-62.119a28.813,28.813,0,0,0-3.112,2.935c-2.133,2.3-3.976,5.082-6.036,7.372a11.56,11.56,0,0,1-1.153,1.137c-.457.365-.823.115-.812-.163.017-.454,4.815-6.319,5.559-7.19,1.754-2.054,3.672-3.96,5.5-5.949l.206-25.948c1.626-.771,3.413-.759,5.179-1.363,11.038-3.773,16.146-14.266,20.111-24.361.717-1.826,1.132-3.778,1.715-5.645l.653.98c.231.25,3.3-5.151,3.65-5.667,14.947-21.8,37.456-39.107,56.522-57.275,2.766-2.635,5.777-5.131,8.354-8,5.648-6.279,8.03-15.239,11.693-22.8l3.083-2.857-4.483-12.926-17.955,5.589c-.474.849.82,5.33.623,5.528-.035.036-1.023.162-.98-.216a32.859,32.859,0,0,1-.665-4.19c-.03-.495.185-.576-.43-.451L523.851,61.949c-.216,1.341.3,3.542,0,4.74m73.916-30.9L603,20.428c-.455.076-.618.606-.852.944-2.145,3.091-4,6.421-6.19,9.488.49,1.562.587,3.807,1.809,4.933m-3.6-4.9-22.565-6.867,7.2,18.309a39.627,39.627,0,0,0,6.506-3.792c2.069-1.428,4.857-3.422,6.732-5.041.353-.305,2.507-2.268,2.13-2.609M584.032,41.022l12.1-3.755.3-.369c-.175-1.608-1.17-3.054-1.292-4.7Zm20.276,14.059,2.29-8.5-3.88,3.825c-.187.649.783,3.238,1.108,4.02.13.314.032.75.482.653M603,56.063l-1.468-4.576c-.393.258-2.121,2.344-1.8,2.61Zm21.588-1.633-18.641,3.43c.9.563,3.056,2.431,4.03,2.379,4.56-1.77,9.158-3.458,13.713-5.24.348-.136.975-.1.9-.568M592.211,70.121,602.99,57.531c-.677-.431-3.641-2.851-4.228-2.439Zm13.082-8.831-1.472-3.264c-2.644,2.931-5.183,5.935-7.682,8.992l5.121-3.707Zm2.943-.647-2.288-.983.356,1.6c.685.1,1.683.194,1.932-.619m7.523,25.5h4.906c-.095-4.3.121-8.626.015-12.929-.017-.711-.325-1.32-.346-1.943a16.665,16.665,0,0,1,.33-5.4c-4.038-.488-7.685-2.848-11.332-4.5-1.322.567-2.942.753-4.219,1.217-2.716.986-6.527,4.009-8.811,5.9-1.675,1.391-3.335,3.069-4.928,4.569-.4.681,1.9,2.263,2.143,2.944-1.447.138-2.18-1.161-3.146-1.941l-8.622,8.652c-22.433,21.675-60.1,49-69.107,79.677-2.248,7.657-3.852,16.955-1.275,24.671l-.087.426c-3.656,2.449-7.5,4.595-10.812,7.525-2.882,3.091-6.556,5.565-9,8.988.08,11.01-.109,22.024-.018,33.034.007.78.351,1.477.358,2.258.083,9.1-.093,18.216-.017,27.315,3.978-.076,7.974.091,11.955.014,35.5-.689,71.108-.566,106.6-1.338,3.87-.084,7.76.093,11.628.016L620.666,87.121a34.052,34.052,0,0,1-4.418-.331c-.539-.024-.93-.276-.49-.649m-124.289,92.2v23.539c5.818-5.379,11.472-11.113,18.622-14.75-2.114-7.1-1.113-14.641.67-21.706-.282-.293-.622.326-.783.523-1,1.224-1.91,2.729-2.967,3.9a27.556,27.556,0,0,1-15.543,8.493" transform="translate(116.581 12162.348)" fill="#161615" opacity="0.88"/>
    <path id="Trazado_893705" data-name="Trazado 893705" d="M15.368,0V25.338c0,1.415,8.952,11.182,9.889,13.491l1.556.405,2.294-13.407c.473-.722,1.231,1.535,1.321,1.786,1.038,2.906,1.663,6.059,2.6,9a120.86,120.86,0,0,0,13.9-10.462H57.888c.631-4.709.185-9.5.353-14.247l-.653-.923a3.354,3.354,0,0,0,.536-.776c.238-.667.1-1.947,1.07-1.709l.629,2.759-.967.727c-.056,4.56.112,9.134.028,13.694-.014.781-.346,1.477-.358,2.258-.1,6.589.311,13.218-.287,19.772L118.4,63.587c25.3,7.9,42.982,24.211,63.294,40.045,7,5.457,15.318,10.937,21.9,16.686.493.431,2.088,2.066.389,1.574-1.056-.306-6.074-4.37-7.387-5.368-4.871-3.7-9.732-7.5-14.577-11.257-19.164-14.855-37.335-31.791-60.878-39.536l-.761.005c-.23.163-.181,2.205-1.328,1.939l.3-2.591L58.625,48.761c-.829-.131-2.732,2.106-3.71,2.7-.407.249-.736.617-1.277.519-.661-.63,3.549-3.154,3.55-3.757-4.75-6.091-6.562-13.838-9.77-20.763L33.361,37.617l6.867,19.924,4.9-1.635-.191,1-4.059,1.445c1.571,1.918,2.994,3.981,4.582,5.882,19.487,23.321,41.237,44.921,59.662,69.175a60.448,60.448,0,0,1,6.732,10.108c.615.064.283-.692.236-1.053-.143-1.1-.282-2.241-.529-3.327l.942-.521c-.039,1.545.537,3.274.639,4.771.041.611-.406,1.028-.182,1.774.137.451.693.916.916,1.4,2.172,4.738,3.919,10.611,7.464,14.444,4.057,4.386,10.347,6.459,16.183,7.037.854.085,3.226-.287,3.621.3.186,7.12.332,14.171.625,21.28,5.244,2.79,10.506,5.58,15.647,8.553,4.558,2.635,9.736,5.578,14.07,8.495a25.229,25.229,0,0,1,3.16,2.4c.392.8-.85.4-1.214.232-1.976-.912-4.363-2.942-6.331-4.133-3.587-2.172-7.242-4.367-10.872-6.46-4.768-2.75-9.618-5.493-14.612-7.787l.326,69.965-125.927.981L14.729,60.364,0,52.473,12.072,39.68,5.883,30.407c.771-.128.827.042,1.259.537a74.324,74.324,0,0,0,7.572,7.307V25.991c-2.053-2.73-4.105-5.485-6.22-8.168-1.258-1.6-2.971-2.807-3.6-4.907.294-.525.734.11,1.017.291C7.085,13.958,8.418,14.534,8,16l6.709,8.518V0Zm42.52,26.809H48.4L53.249,38.8,57.4,46.754ZM24.2,38.906a32.316,32.316,0,0,0-2.809-4.221A73.44,73.44,0,0,0,15.7,27.789c-.71,3.661.373,7.389,0,11.116Zm3.6,0c1.976.341,3.2-.545,4.54-1.829l-2.579-8.959c-.5-.012-.543,1.127-.612,1.509-.558,3.058-.956,6.217-1.349,9.279m-14.063,0-.966-1.484L10.14,35.47c1.342,1.03,1.647,3.8,3.593,3.433M33.3,40.275a5.052,5.052,0,0,0-5.494,1.41L37.935,54.271ZM15.041,49.367V40.7c0-.441-1.617-.759-1.639-.323a70.029,70.029,0,0,1,1.018,7.483c.051.351.144,1.529.622,1.5m10.3-9.154H15.7L17.33,260.895l123.31-.981-.487-69.643c-.24-.469-6.726-3.521-7.795-3.979a80.466,80.466,0,0,0-9.343-3.248c-.25-.352.066-7.331-.036-8.627-.579-7.341-4.942-14.945-7.913-21.515-.806-1.785-1.332-3.872-2.168-5.679-3.145-6.79-9.7-14.618-14.458-20.53C81.384,105.5,62.353,85.99,44.81,65.218c-1.72-2.037-3.149-4.52-5.12-6.328-.856-.182-9.726,7.189-11.271,8.263a8.417,8.417,0,0,1-2.585,1.5V60.81H24.2c-.248-1.173.981-.3,1.479-.972.885-1.187.4-6.836.467-8.687.1-2.881.661-5.887.352-8.821-.065-.62-.557-1.951-1.154-2.116M.978,52.634l13.731,6.707L12.422,40.867c-.367-.458-4.354,4.511-4.733,4.911-2.2,2.316-4.658,4.4-6.712,6.856m25.511,9.647c-.213,1.545.155,3.472,0,5.068l11.12-8.011-5.886.489c-.092-.075.173-.419.323-.492a30.274,30.274,0,0,1,4.1-.828c.993-.048,1.989.6,2.779-.16-.019-.737-2.359-3.758-2.959-4.558-2.431-3.241-5.456-7.175-8.086-10.212-.192-.221.04-.63-.736-.419l-.329,16.674a11.291,11.291,0,0,0,2.039-.095c.494-.023.732-.525,1.229.257-.74.953-2.009.2-2.962.631a8.692,8.692,0,0,0-.631,1.657M140.311,188.968V169.516c-.964-.911-2.693-.37-4.055-.524a30,30,0,0,1-10.885-3.5l-4.687-3.162c2.492,6.336,4.4,13.244,3.279,20.1,5.773,1.249,11.117,3.91,16.348,6.547" transform="translate(323.5 12170.352)" fill="#161615" opacity="0.88"/>
    <path id="Trazado_893706" data-name="Trazado 893706" d="M619.071,155.524l-.654-.485c.4-6.319-.457-13.045-.015-19.309.041-.584-.078-1.255.669-1.456Z" transform="translate(21.361 12104.734)" fill="#161615" opacity="0.88"/>
    <path id="Trazado_893707" data-name="Trazado 893707" d="M217.465,238.784c-.366.428-.627.051-.653-.484-.059-1.193-.013-2.42-.014-3.617,0-1.743.227-3.471.345-5.212.079-1.171-.482-3.12.649-3.763Z" transform="translate(217.563 12060.052)" fill="#161615" opacity="0.88"/>
    <path id="Trazado_893708" data-name="Trazado 893708" d="M735.438,103.389c-.685.149-.741-.353-1.051-.745a8.647,8.647,0,0,1-1.581-3.654c-.12-.563-.538-.662.18-1.153.336.024,2.694,5.275,2.452,5.552" transform="translate(-34.498 12122.54)" fill="#161615" opacity="0.88"/>
    <path id="Trazado_893709" data-name="Trazado 893709" d="M610.285,255.714a28.276,28.276,0,0,1-.983,4.736c-.175.528-.288.935-.977.819l.98-5.34c-.045-.377.944-.251.98-.216" transform="translate(26.221 12045.412)" fill="#161615" opacity="0.88"/>
    <path id="Trazado_893710" data-name="Trazado 893710" d="M616.066,210.362l.942.523c-.6,1.736.126,3.83-1.107,5.358-.783-.5-.278-.736-.257-1.23a25.167,25.167,0,0,1,.422-4.65" transform="translate(22.732 12067.551)" fill="#161615" opacity="0.88"/>
    <path id="Trazado_893711" data-name="Trazado 893711" d="M225.513,165.589a22.309,22.309,0,0,1-.667,4.726c-.155.557-.269.937-.966.83a22.347,22.347,0,0,1,.667-4.726c.155-.557.27-.937.966-.83" transform="translate(214.093 12089.439)" fill="#161615" opacity="0.88"/>
    <path id="Trazado_893712" data-name="Trazado 893712" d="M230.254,141.5c-.792.12-.72-.083-.628-.792a37.847,37.847,0,0,1,.853-3.727c.479-1.871,1.26-1.586,1.014.028-.222,1.457-.919,3.039-1.238,4.492" transform="translate(211.312 12104.043)" fill="#161615" opacity="0.88"/>
    <path id="Trazado_893713" data-name="Trazado 893713" d="M730.23,89.3c-.842.162-.569-.167-.813-.641a20.142,20.142,0,0,1-1.474-4.915c.712-.12.912.457,1.146.977.257.572,1.355,4.328,1.141,4.578" transform="translate(-32.234 12129.434)" fill="#161615" opacity="0.88"/>
    <path id="Trazado_893714" data-name="Trazado 893714" d="M220.708,195.658a32.127,32.127,0,0,1-.324,4.741c-.1.569-.362.911-.982.815l.375-5.018Z" transform="translate(216.282 12074.736)" fill="#161615" opacity="0.88"/>
    <path id="Trazado_893715" data-name="Trazado 893715" d="M742.727,116.8c-.327.31-.768-.006-1.071-.4-.884-1.157-2.152-3.051-2.2-4.5a3.193,3.193,0,0,1,1.25,1.2c.306.413,2.26,3.472,2.018,3.7" transform="translate(-37.863 12115.671)" fill="#161615" opacity="0.88"/>
    <path id="Trazado_893716" data-name="Trazado 893716" d="M221.322,185.872c.013-.766.576-5.544,1.143-5.552.612-.009.366.972.333,1.305-.107,1.085-.144,4.15-1.476,4.246" transform="translate(215.344 12082.232)" fill="#161615" opacity="0.88"/>
    <path id="Trazado_893717" data-name="Trazado 893717" d="M618.846,180.284v5.558l-.98,0a26.469,26.469,0,0,1,.336-5.067c.044-.625-.106-.527.644-.493" transform="translate(21.586 12082.263)" fill="#161615" opacity="0.88"/>
    <path id="Trazado_893718" data-name="Trazado 893718" d="M615.074,225.692c-.436,1.533-.146,3.258-.658,4.734-.182.525-.278.939-.975.821.28-1.493.262-3.293.668-4.724.158-.557.263-.939.965-.831" transform="translate(23.721 12060.068)" fill="#161615" opacity="0.88"/>
    <path id="Trazado_893719" data-name="Trazado 893719" d="M96.7,102.933c.529.51-1.748,1.842-2.068,2.018a4.835,4.835,0,0,1-3.164.921c.075-.5.617-.609.975-.821.509-.3,4.061-2.307,4.257-2.118" transform="translate(278.802 12120.056)" fill="#161615" opacity="0.88"/>
    <path id="Trazado_893720" data-name="Trazado 893720" d="M617.586,200.9c-1.736.339-.735-1.159-.648-2.121.108-1.2-.313-2.973.974-3.765Z" transform="translate(22.191 12075.051)" fill="#161615" opacity="0.88"/>
    <path id="Trazado_893721" data-name="Trazado 893721" d="M613.122,241.053a30.443,30.443,0,0,0-.657,4.408c-.111.577-.335.916-.976.82-.211-1.795.587-3.459.654-5.232Z" transform="translate(24.692 12052.555)" fill="#161615" opacity="0.88"/>
    <path id="Trazado_893722" data-name="Trazado 893722" d="M227.081,156.143c.019-1.8.04-4.742,1.631-5.885a34.447,34.447,0,0,1-.807,4.585c-.143.487-.233,1.165-.824,1.3" transform="translate(212.529 12096.923)" fill="#161615" opacity="0.88"/>
    <path id="Trazado_893723" data-name="Trazado 893723" d="M219.072,210.331a17.471,17.471,0,0,1-.327,4.751c-.125.566.338.96-.652.8a17.465,17.465,0,0,1,.326-4.751c.125-.566-.338-.96.652-.8" transform="translate(216.936 12067.583)" fill="#161615" opacity="0.88"/>
    <path id="Trazado_893724" data-name="Trazado 893724" d="M618.87,125.514c-.364.427-.627.052-.654-.486-.044-.871.051-1.752,0-2.624-.04-.757-.787-2.112,0-2.614.176-.328.654.292.654.329Z" transform="translate(21.562 12111.858)" fill="#161615" opacity="0.88"/>
    <path id="Trazado_893725" data-name="Trazado 893725" d="M217.481,255.759c1.091.5.571,2.111.65,3.11.06.758.774,2.12,0,2.613-.176.329-.654-.292-.654-.329Z" transform="translate(217.22 12045.366)" fill="#161615" opacity="0.88"/>
    <path id="Trazado_893726" data-name="Trazado 893726" d="M680.758,129.141c-.44.373-.05.625.49.649a34.046,34.046,0,0,0,4.417.331L686.974,308.3c-3.868.076-7.757-.1-11.628-.016-35.488.772-71.1.649-106.6,1.338-3.981.077-7.977-.09-11.955-.014-.076-9.1.1-18.213.017-27.315-.007-.781-.351-1.478-.358-2.258-.092-11.009.1-22.024.018-33.034,2.44-3.424,6.115-5.9,9-8.988,3.31-2.93,7.155-5.076,10.812-7.525l.087-.426c-2.577-7.716-.974-17.014,1.275-24.671,9.007-30.681,46.674-58,69.107-79.677l8.622-8.652c.966.78,1.7,2.078,3.146,1.941-.24-.681-2.545-2.264-2.143-2.944,1.593-1.5,3.253-3.177,4.928-4.569,2.284-1.9,6.1-4.918,8.811-5.9,1.278-.464,2.9-.65,4.22-1.217,3.647,1.656,7.294,4.016,11.332,4.5a16.636,16.636,0,0,0-.33,5.4c.02.623.328,1.232.346,1.943.105,4.3-.11,8.628-.015,12.929ZM664.4,123.26c-1.687-.3-2.841-1.957-4.088-2.947-.5-.4-.822-.05-.812.163.046.954,3.419,3.4,4.4,3.448.651.035.533-.086.5-.664m6.868,4.245c.131-.654-.308-.769-.749-1.047a29.594,29.594,0,0,0-3.382-1.523c-.476-.193-.844-.493-1.427-.37-.189.844.233.56.619.838a16.318,16.318,0,0,0,4.939,2.1m7.524,1.313-5.886-1.311c-.117.7.292.8.822.974a19.225,19.225,0,0,0,4.566,1c.65,0,.528-.039.5-.663M631.7,255.34h-.652v.322h.652Z" transform="translate(51.582 12119.348)" fill="#fff" opacity="0.88"/>
    <path id="Trazado_893727" data-name="Trazado 893727" d="M556.508,320.707a27.556,27.556,0,0,0,15.543-8.493c1.057-1.171,1.967-2.677,2.967-3.9.161-.2.5-.817.783-.523-1.783,7.065-2.784,14.611-.67,21.706-7.15,3.637-12.8,9.371-18.622,14.75Z" transform="translate(51.543 12019.978)" fill="#fff" opacity="0.88"/>
    <path id="Trazado_893728" data-name="Trazado 893728" d="M735.8,38.2c.376.341-1.777,2.3-2.131,2.609-1.874,1.619-4.662,3.613-6.731,5.041a39.607,39.607,0,0,1-6.506,3.792l-7.2-18.309Z" transform="translate(-25.046 12155.041)" fill="#fff" opacity="0.88"/>
    <path id="Trazado_893729" data-name="Trazado 893729" d="M753.532,107.075l6.55-15.03c.587-.411,3.55,2.008,4.228,2.439Z" transform="translate(-44.739 12125.394)" fill="#fff" opacity="0.88"/>
    <path id="Trazado_893730" data-name="Trazado 893730" d="M737.536,56.141l11.118-8.825c.121,1.648,1.117,3.094,1.292,4.7l-.305.369Z" transform="translate(-36.922 12147.229)" fill="#fff" opacity="0.88"/>
    <path id="Trazado_893731" data-name="Trazado 893731" d="M799.037,90.8c.077.469-.549.432-.9.568-4.555,1.782-9.153,3.471-13.713,5.24-.974.052-3.129-1.816-4.03-2.379Z" transform="translate(-57.867 12125.98)" fill="#fff" opacity="0.88"/>
    <path id="Trazado_893732" data-name="Trazado 893732" d="M762.669,39.663c-1.222-1.126-1.319-3.372-1.809-4.933,2.189-3.067,4.045-6.4,6.19-9.488.234-.337.4-.868.852-.944Z" transform="translate(-48.32 12158.478)" fill="#fff" opacity="0.88"/>
    <path id="Trazado_893733" data-name="Trazado 893733" d="M770.367,101.094l-4.033,2.021-5.121,3.707c2.5-3.057,5.039-6.061,7.683-8.992Z" transform="translate(-48.493 12122.544)" fill="#fff" opacity="0.88"/>
    <path id="Trazado_893734" data-name="Trazado 893734" d="M775.648,83.948c-.451.1-.352-.339-.482-.653-.325-.782-1.295-3.371-1.108-4.02l3.88-3.825Z" transform="translate(-54.758 12133.48)" fill="#fff" opacity="0.88"/>
    <path id="Trazado_893735" data-name="Trazado 893735" d="M771.472,89.618,768.2,87.652c-.321-.266,1.407-2.353,1.8-2.61Z" transform="translate(-51.89 12128.793)" fill="#fff" opacity="0.88"/>
    <path id="Trazado_893736" data-name="Trazado 893736" d="M782.684,102.01c-.249.812-1.247.722-1.932.619l-.356-1.6Z" transform="translate(-57.867 12120.98)" fill="#fff" opacity="0.88"/>
    <path id="Trazado_893737" data-name="Trazado 893737" d="M40.345,78.646c.6.165,1.089,1.5,1.155,2.116.309,2.934-.249,5.939-.352,8.821-.066,1.851.417,7.5-.467,8.687-.5.668-1.727-.2-1.479.972h1.634v7.847a8.435,8.435,0,0,0,2.585-1.5c1.544-1.075,10.414-8.445,11.27-8.264,1.972,1.809,3.4,4.292,5.12,6.328,17.543,20.772,36.573,40.283,53.628,61.476,4.757,5.911,11.313,13.74,14.458,20.529.837,1.806,1.362,3.895,2.169,5.679,2.971,6.57,7.333,14.174,7.913,21.515.1,1.3-.214,8.276.036,8.627a80.5,80.5,0,0,1,9.343,3.248c1.069.457,7.555,3.509,7.795,3.979l.487,69.643-123.31.981L30.7,78.646ZM36.42,98.916c-1.577.056-3.168-.041-4.742,0-.211.632.333.875.864.882,1.226.015,2.825-.438,4.17-.262.241-.167.561-.244.365-.62-.334-.637-.559,0-.657,0" transform="translate(308.499 12131.919)" fill="#fff" opacity="0.88"/>
    <path id="Trazado_893738" data-name="Trazado 893738" d="M255.654,344.108c-5.231-2.637-10.575-5.3-16.348-6.547,1.124-6.853-.787-13.76-3.279-20.1l4.687,3.162a30,30,0,0,0,10.885,3.5c1.362.154,3.091-.387,4.055.524Z" transform="translate(208.157 12015.211)" fill="#fff" opacity="0.88"/>
    <path id="Trazado_893739" data-name="Trazado 893739" d="M51.74,103.471a8.684,8.684,0,0,1,.63-1.658c.953-.428,2.222.323,2.962-.631-.5-.782-.734-.279-1.229-.257a11.2,11.2,0,0,1-2.039.095l.33-16.673c.776-.211.545.2.736.419,2.631,3.037,5.656,6.971,8.087,10.211.6.8,2.94,3.821,2.959,4.558-.79.761-1.787.112-2.78.16a30.383,30.383,0,0,0-4.1.828c-.149.074-.414.418-.322.493l5.886-.489L51.74,108.539c.154-1.6-.214-3.523,0-5.068" transform="translate(298.249 12129.161)" fill="#fff" opacity="0.88"/>
    <path id="Trazado_893740" data-name="Trazado 893740" d="M104.149,52.43l-.491,19.945-4.148-7.952L94.663,52.43Z" transform="translate(277.24 12144.729)" fill="#fff" opacity="0.88"/>
    <path id="Trazado_893741" data-name="Trazado 893741" d="M38.966,65.464h-8.5c.376-3.727-.708-7.454,0-11.115a73.437,73.437,0,0,1,5.693,6.894,32.382,32.382,0,0,1,2.809,4.221" transform="translate(308.733 12143.792)" fill="#fff" opacity="0.88"/>
    <path id="Trazado_893742" data-name="Trazado 893742" d="M59.866,78.443l4.638,14L54.371,79.853a5.055,5.055,0,0,1,5.5-1.41" transform="translate(296.93 12132.183)" fill="#fff" opacity="0.88"/>
    <path id="Trazado_893743" data-name="Trazado 893743" d="M54.362,65.78c.393-3.062.792-6.221,1.349-9.279.07-.382.116-1.521.612-1.509L58.9,63.951c-1.344,1.284-2.564,2.17-4.54,1.829" transform="translate(296.934 12143.478)" fill="#fff" opacity="0.88"/>
    <path id="Trazado_893744" data-name="Trazado 893744" d="M27.85,87.761c-.478.025-.571-1.153-.621-1.5a70.161,70.161,0,0,0-1.018-7.483c.022-.436,1.639-.118,1.639.323Z" transform="translate(310.691 12131.957)" fill="#fff" opacity="0.88"/>
    <path id="Trazado_893745" data-name="Trazado 893745" d="M23.424,72.8c-1.946.367-2.252-2.4-3.593-3.433l2.627,1.949Z" transform="translate(313.809 12136.451)" fill="#fff" opacity="0.88"/>
    <path id="Trazado_893746" data-name="Trazado 893746" d="M1.912,91.662c2.054-2.451,4.514-4.54,6.712-6.856.379-.4,4.367-5.369,4.733-4.911L15.643,98.37Z" transform="translate(322.566 12131.322)" fill="#fff" opacity="0.88"/>
    <path id="Trazado_893747" data-name="Trazado 893747" d="M762.917,138.324c.033.578.151.7-.5.664-.981-.053-4.355-2.5-4.4-3.448-.01-.213.313-.559.812-.163,1.247.99,2.4,2.646,4.088,2.947" transform="translate(-46.931 12104.283)" fill="#161615" opacity="0.88"/>
    <path id="Trazado_893748" data-name="Trazado 893748" d="M790.1,150.932c.031.624.153.665-.5.663a19.228,19.228,0,0,1-4.566-1c-.53-.179-.938-.277-.822-.974Z" transform="translate(-59.724 12097.233)" fill="#161615" opacity="0.88"/>
    <path id="Trazado_893749" data-name="Trazado 893749" d="M775.675,146.78a16.323,16.323,0,0,1-4.939-2.1c-.385-.277-.807.006-.619-.838.583-.123.952.177,1.427.37a29.54,29.54,0,0,1,3.382,1.524c.441.278.879.393.749,1.047" transform="translate(-52.821 12100.073)" fill="#161615" opacity="0.88"/>
    <path id="Trazado_894336" data-name="Trazado 894336" d="M0,0H.652V.322H0Z" transform="translate(682.626 12374.688)" fill="#161615" opacity="0.88"/>
    <path id="Trazado_893750" data-name="Trazado 893750" d="M37.313,118.017c.1,0,.323-.637.657,0,.2.376-.123.453-.365.62-1.345-.176-2.944.278-4.17.262-.531-.007-1.075-.25-.864-.882,1.574-.041,3.166.056,4.742,0" transform="translate(307.606 12112.817)" fill="#161615" opacity="0.88"/>
    <path id="Trazado_894337" data-name="Trazado 894337" d="M0,0H428.5V261.875H0Z" transform="translate(323.5 12170.352)" fill="none" opacity="0.88"/>
    <path id="Trazado_894323" data-name="Trazado 894323" d="M2.115-3.34V0H.99V-8.531H4.137a3.161,3.161,0,0,1,2.194.715,2.423,2.423,0,0,1,.794,1.893,2.391,2.391,0,0,1-.776,1.913,3.3,3.3,0,0,1-2.224.671Zm0-.92H4.137A2.021,2.021,0,0,0,5.52-4.685,1.556,1.556,0,0,0,6-5.915a1.608,1.608,0,0,0-.48-1.221A1.894,1.894,0,0,0,4.2-7.611H2.115ZM8.027-3.229A3.745,3.745,0,0,1,8.394-4.9a2.732,2.732,0,0,1,1.02-1.148,2.775,2.775,0,0,1,1.491-.4,2.674,2.674,0,0,1,2.095.9,3.449,3.449,0,0,1,.8,2.385V-3.1a3.777,3.777,0,0,1-.354,1.661A2.692,2.692,0,0,1,12.431-.293a2.807,2.807,0,0,1-1.515.41,2.667,2.667,0,0,1-2.089-.9,3.432,3.432,0,0,1-.8-2.373Zm1.09.129a2.712,2.712,0,0,0,.489,1.693,1.566,1.566,0,0,0,1.31.639,1.556,1.556,0,0,0,1.313-.647,2.966,2.966,0,0,0,.486-1.813,2.708,2.708,0,0,0-.5-1.69A1.574,1.574,0,0,0,10.9-5.566a1.557,1.557,0,0,0-1.295.639A2.944,2.944,0,0,0,9.117-3.1ZM18.85-1.682a.8.8,0,0,0-.331-.683,3.187,3.187,0,0,0-1.154-.419,5.457,5.457,0,0,1-1.307-.422,1.859,1.859,0,0,1-.715-.586,1.4,1.4,0,0,1-.231-.809,1.645,1.645,0,0,1,.659-1.318,2.574,2.574,0,0,1,1.685-.539A2.649,2.649,0,0,1,19.2-5.9a1.768,1.768,0,0,1,.671,1.424h-1.09a.979.979,0,0,0-.378-.768,1.416,1.416,0,0,0-.952-.322,1.482,1.482,0,0,0-.926.258.812.812,0,0,0-.334.674.658.658,0,0,0,.311.592,3.821,3.821,0,0,0,1.122.381,5.847,5.847,0,0,1,1.315.434,1.919,1.919,0,0,1,.747.606,1.491,1.491,0,0,1,.243.864A1.623,1.623,0,0,1,19.254-.4,2.851,2.851,0,0,1,17.49.117a3.193,3.193,0,0,1-1.348-.27,2.192,2.192,0,0,1-.917-.753,1.815,1.815,0,0,1-.331-1.046h1.084a1.122,1.122,0,0,0,.437.864,1.693,1.693,0,0,0,1.075.319,1.748,1.748,0,0,0,.987-.249A.765.765,0,0,0,18.85-1.682Zm3.967-6.193V-6.34H24V-5.5H22.816v3.937a.88.88,0,0,0,.158.572.666.666,0,0,0,.539.191,2.624,2.624,0,0,0,.516-.07V0A3.161,3.161,0,0,1,23.2.117a1.35,1.35,0,0,1-1.1-.439,1.888,1.888,0,0,1-.369-1.248V-5.5H20.578V-6.34h1.154V-7.875ZM27.9.117a2.77,2.77,0,0,1-2.1-.847,3.142,3.142,0,0,1-.809-2.265v-.2a3.8,3.8,0,0,1,.36-1.685,2.811,2.811,0,0,1,1.008-1.16,2.534,2.534,0,0,1,1.4-.419,2.374,2.374,0,0,1,1.922.814,3.526,3.526,0,0,1,.686,2.332v.451H26.074a2.254,2.254,0,0,0,.548,1.515,1.722,1.722,0,0,0,1.333.577A1.888,1.888,0,0,0,28.928-1a2.444,2.444,0,0,0,.7-.621l.662.516A2.662,2.662,0,0,1,27.9.117Zm-.135-5.684a1.446,1.446,0,0,0-1.1.478,2.321,2.321,0,0,0-.551,1.339h3.176v-.082a2.065,2.065,0,0,0-.445-1.28A1.361,1.361,0,0,0,27.762-5.566Zm6.926.2a3.248,3.248,0,0,0-.533-.041,1.428,1.428,0,0,0-1.447.908V0H31.623V-6.34h1.055l.018.732a1.688,1.688,0,0,1,1.512-.85,1.107,1.107,0,0,1,.48.082ZM36.861,0H35.777V-6.34h1.084ZM35.689-8.021a.647.647,0,0,1,.161-.445.6.6,0,0,1,.478-.182.614.614,0,0,1,.48.182.64.64,0,0,1,.164.445.619.619,0,0,1-.164.439.626.626,0,0,1-.48.176.616.616,0,0,1-.478-.176A.626.626,0,0,1,35.689-8.021Zm2.619,4.793A3.745,3.745,0,0,1,38.675-4.9a2.732,2.732,0,0,1,1.02-1.148,2.775,2.775,0,0,1,1.491-.4,2.674,2.674,0,0,1,2.095.9,3.449,3.449,0,0,1,.8,2.385V-3.1a3.777,3.777,0,0,1-.354,1.661A2.692,2.692,0,0,1,42.712-.293,2.807,2.807,0,0,1,41.2.117a2.667,2.667,0,0,1-2.089-.9,3.432,3.432,0,0,1-.8-2.373ZM39.4-3.1a2.712,2.712,0,0,0,.489,1.693,1.566,1.566,0,0,0,1.31.639,1.556,1.556,0,0,0,1.313-.647A2.966,2.966,0,0,0,43-3.229a2.708,2.708,0,0,0-.5-1.69,1.574,1.574,0,0,0-1.315-.647,1.557,1.557,0,0,0-1.295.639A2.944,2.944,0,0,0,39.4-3.1ZM48.5-5.367a3.248,3.248,0,0,0-.533-.041,1.428,1.428,0,0,0-1.447.908V0H45.439V-6.34h1.055l.018.732a1.688,1.688,0,0,1,1.512-.85,1.107,1.107,0,0,1,.48.082Z" transform="translate(377 12414.934)" fill="#12263f" opacity="0.88"/>
    <path id="Trazado_894324" data-name="Trazado 894324" d="M.99,0V-8.531H3.4a3.877,3.877,0,0,1,1.969.492,3.329,3.329,0,0,1,1.321,1.4A4.558,4.558,0,0,1,7.16-4.553v.545a4.574,4.574,0,0,1-.466,2.115A3.277,3.277,0,0,1,5.364-.5,4.124,4.124,0,0,1,3.352,0ZM2.115-7.611V-.92H3.3a2.575,2.575,0,0,0,2.024-.809,3.344,3.344,0,0,0,.724-2.3v-.5a3.4,3.4,0,0,0-.683-2.261,2.429,2.429,0,0,0-1.937-.818ZM11.32.117a2.77,2.77,0,0,1-2.1-.847,3.142,3.142,0,0,1-.809-2.265v-.2a3.8,3.8,0,0,1,.36-1.685,2.811,2.811,0,0,1,1.008-1.16,2.534,2.534,0,0,1,1.4-.419,2.374,2.374,0,0,1,1.922.814,3.526,3.526,0,0,1,.686,2.332v.451H9.5a2.254,2.254,0,0,0,.548,1.515,1.722,1.722,0,0,0,1.333.577A1.888,1.888,0,0,0,12.352-1a2.444,2.444,0,0,0,.7-.621l.662.516A2.662,2.662,0,0,1,11.32.117Zm-.135-5.684a1.446,1.446,0,0,0-1.1.478A2.321,2.321,0,0,0,9.533-3.75h3.176v-.082a2.065,2.065,0,0,0-.445-1.28A1.361,1.361,0,0,0,11.186-5.566ZM16.225,0H15.141V-9h1.084Zm5.648,0a2.277,2.277,0,0,1-.152-.668,2.419,2.419,0,0,1-1.8.785,2.238,2.238,0,0,1-1.538-.53,1.716,1.716,0,0,1-.6-1.345A1.792,1.792,0,0,1,18.53-3.3a3.55,3.55,0,0,1,2.118-.548H21.7v-.5a1.217,1.217,0,0,0-.34-.905,1.366,1.366,0,0,0-1-.337,1.581,1.581,0,0,0-.973.293A.863.863,0,0,0,19-4.582h-1.09a1.5,1.5,0,0,1,.337-.917,2.3,2.3,0,0,1,.914-.7,3.075,3.075,0,0,1,1.269-.258,2.506,2.506,0,0,1,1.717.548A1.976,1.976,0,0,1,22.787-4.4v2.918A3.567,3.567,0,0,0,23.01-.094V0Zm-1.8-.826a1.905,1.905,0,0,0,.967-.264,1.6,1.6,0,0,0,.662-.686v-1.3h-.85q-1.992,0-1.992,1.166a.987.987,0,0,0,.34.8A1.306,1.306,0,0,0,20.074-.826ZM25.512-6.34l.035.8a2.31,2.31,0,0,1,1.9-.914q2.01,0,2.027,2.268V0H28.389V-4.2a1.459,1.459,0,0,0-.313-1.014,1.256,1.256,0,0,0-.958-.328,1.564,1.564,0,0,0-.926.281,1.91,1.91,0,0,0-.621.738V0H24.486V-6.34Zm7.066-1.535V-6.34h1.184V-5.5H32.578v3.937a.88.88,0,0,0,.158.572.666.666,0,0,0,.539.191,2.624,2.624,0,0,0,.516-.07V0a3.161,3.161,0,0,1-.832.116,1.35,1.35,0,0,1-1.1-.439,1.888,1.888,0,0,1-.369-1.248V-5.5H30.34V-6.34h1.154V-7.875ZM37.658.117a2.77,2.77,0,0,1-2.1-.847,3.142,3.142,0,0,1-.809-2.265v-.2a3.8,3.8,0,0,1,.36-1.685,2.811,2.811,0,0,1,1.008-1.16,2.534,2.534,0,0,1,1.4-.419,2.374,2.374,0,0,1,1.922.814,3.526,3.526,0,0,1,.686,2.332v.451H35.836a2.254,2.254,0,0,0,.548,1.515,1.722,1.722,0,0,0,1.333.577A1.888,1.888,0,0,0,38.689-1a2.444,2.444,0,0,0,.7-.621l.662.516A2.662,2.662,0,0,1,37.658.117Zm-.135-5.684a1.446,1.446,0,0,0-1.1.478,2.321,2.321,0,0,0-.551,1.339h3.176v-.082a2.065,2.065,0,0,0-.445-1.28A1.361,1.361,0,0,0,37.523-5.566Zm6.926.2a3.248,3.248,0,0,0-.533-.041,1.428,1.428,0,0,0-1.447.908V0H41.385V-6.34h1.055l.018.732a1.688,1.688,0,0,1,1.512-.85,1.107,1.107,0,0,1,.48.082Zm.592,2.139A3.745,3.745,0,0,1,45.407-4.9a2.732,2.732,0,0,1,1.02-1.148,2.775,2.775,0,0,1,1.491-.4,2.674,2.674,0,0,1,2.095.9,3.449,3.449,0,0,1,.8,2.385V-3.1a3.777,3.777,0,0,1-.354,1.661A2.692,2.692,0,0,1,49.444-.293a2.807,2.807,0,0,1-1.515.41,2.667,2.667,0,0,1-2.089-.9,3.432,3.432,0,0,1-.8-2.373Zm1.09.129a2.712,2.712,0,0,0,.489,1.693,1.566,1.566,0,0,0,1.31.639,1.556,1.556,0,0,0,1.313-.647,2.966,2.966,0,0,0,.486-1.813,2.708,2.708,0,0,0-.5-1.69,1.574,1.574,0,0,0-1.315-.647,1.557,1.557,0,0,0-1.295.639A2.944,2.944,0,0,0,46.131-3.1Z" transform="translate(650 12414.934)" fill="#12263f" opacity="0.88"/>
    <path id="Trazado_894325" data-name="Trazado 894325" d="M5.249,0H.591V-.649L3.052-3.384a5.847,5.847,0,0,0,.754-1.008,1.683,1.683,0,0,0,.208-.8,1.276,1.276,0,0,0-.337-.913,1.178,1.178,0,0,0-.9-.356,1.4,1.4,0,0,0-1.047.383,1.464,1.464,0,0,0-.374,1.067h-.9A2.1,2.1,0,0,1,1.086-6.6a2.344,2.344,0,0,1,1.692-.605,2.252,2.252,0,0,1,1.567.52A1.774,1.774,0,0,1,4.922-5.3,4.067,4.067,0,0,1,3.584-2.8L1.68-.737H5.249ZM6.318-.474a.566.566,0,0,1,.139-.391.53.53,0,0,1,.417-.156A.546.546,0,0,1,7.3-.864a.554.554,0,0,1,.144.391A.524.524,0,0,1,7.3-.1a.556.556,0,0,1-.422.151A.54.54,0,0,1,6.458-.1.535.535,0,0,1,6.318-.474ZM9.253-3.564l.361-3.545h3.643v.835H10.381l-.215,1.938a2.294,2.294,0,0,1,1.187-.308A1.961,1.961,0,0,1,12.9-4a2.516,2.516,0,0,1,.571,1.736,2.429,2.429,0,0,1-.593,1.731A2.162,2.162,0,0,1,11.216.1,2.247,2.247,0,0,1,9.678-.425,2.085,2.085,0,0,1,9-1.87h.854a1.435,1.435,0,0,0,.435.92,1.351,1.351,0,0,0,.928.31,1.219,1.219,0,0,0,.989-.43,1.8,1.8,0,0,0,.359-1.187A1.649,1.649,0,0,0,12.175-3.4a1.32,1.32,0,0,0-1.033-.432,1.489,1.489,0,0,0-.928.259l-.239.2Z" transform="translate(363 12190.934)" fill="#12263f" opacity="0.88"/>
    <path id="Trazado_894326" data-name="Trazado 894326" d="M5.049-3.032A4.131,4.131,0,0,1,4.507-.674,1.928,1.928,0,0,1,2.813.1,1.942,1.942,0,0,1,1.128-.657,3.921,3.921,0,0,1,.562-2.91V-4.116A4.039,4.039,0,0,1,1.1-6.445a1.942,1.942,0,0,1,1.7-.762,1.96,1.96,0,0,1,1.689.735A3.9,3.9,0,0,1,5.049-4.2Zm-.9-1.235A3.31,3.31,0,0,0,3.823-5.94,1.109,1.109,0,0,0,2.8-6.465a1.1,1.1,0,0,0-1.011.522,3.232,3.232,0,0,0-.327,1.606v1.445a3.363,3.363,0,0,0,.334,1.7A1.107,1.107,0,0,0,2.813-.64a1.092,1.092,0,0,0,.994-.518,3.241,3.241,0,0,0,.339-1.631ZM6.318-.474a.566.566,0,0,1,.139-.391.53.53,0,0,1,.417-.156A.546.546,0,0,1,7.3-.864a.554.554,0,0,1,.144.391A.524.524,0,0,1,7.3-.1a.556.556,0,0,1-.422.151A.54.54,0,0,1,6.458-.1.535.535,0,0,1,6.318-.474ZM9.253-3.564l.361-3.545h3.643v.835H10.381l-.215,1.938a2.294,2.294,0,0,1,1.187-.308A1.961,1.961,0,0,1,12.9-4a2.516,2.516,0,0,1,.571,1.736,2.429,2.429,0,0,1-.593,1.731A2.162,2.162,0,0,1,11.216.1,2.247,2.247,0,0,1,9.678-.425,2.085,2.085,0,0,1,9-1.87h.854a1.435,1.435,0,0,0,.435.92,1.351,1.351,0,0,0,.928.31,1.219,1.219,0,0,0,.989-.43,1.8,1.8,0,0,0,.359-1.187A1.649,1.649,0,0,0,12.175-3.4a1.32,1.32,0,0,0-1.033-.432,1.489,1.489,0,0,0-.928.259l-.239.2Z" transform="translate(316.5 12198.934)" fill="#12263f" opacity="0.88"/>
    <path id="Trazado_894327" data-name="Trazado 894327" d="M3.56,0H2.651V-6.021L.83-5.352v-.82l2.588-.972H3.56Z" transform="translate(350.5 12194.934)" fill="#12263f" opacity="0.88"/>
    <path id="Trazado_894328" data-name="Trazado 894328" d="M4.4-2.388h.986v.737H4.4V0H3.5V-1.65H.259v-.532L3.442-7.109H4.4Zm-3.12,0H3.5V-5.874l-.107.2Z" transform="translate(384.5 12212.934)" fill="#12263f" opacity="0.88"/>
    <path id="Trazado_894329" data-name="Trazado 894329" d="M4.4-2.388h.986v.737H4.4V0H3.5V-1.65H.259v-.532L3.442-7.109H4.4Zm-3.12,0H3.5V-5.874l-.107.2Z" transform="translate(681 12185.934)" fill="#12263f" opacity="0.88"/>
    <path id="Trazado_894330" data-name="Trazado 894330" d="M4.4-2.388h.986v.737H4.4V0H3.5V-1.65H.259v-.532L3.442-7.109H4.4Zm-3.12,0H3.5V-5.874l-.107.2Z" transform="translate(740 12241.934)" fill="#12263f" opacity="0.88"/>
    <path id="Trazado_894331" data-name="Trazado 894331" d="M3.56,0H2.651V-6.021L.83-5.352v-.82l2.588-.972H3.56Z" transform="translate(723 12179.434)" fill="#12263f" opacity="0.88"/>
    <path id="Trazado_894332" data-name="Trazado 894332" d="M3.56,0H2.651V-6.021L.83-5.352v-.82l2.588-.972H3.56ZM6.318-.474a.566.566,0,0,1,.139-.391.53.53,0,0,1,.417-.156A.546.546,0,0,1,7.3-.864a.554.554,0,0,1,.144.391A.524.524,0,0,1,7.3-.1a.556.556,0,0,1-.422.151A.54.54,0,0,1,6.458-.1.535.535,0,0,1,6.318-.474ZM9.253-3.564l.361-3.545h3.643v.835H10.381l-.215,1.938a2.294,2.294,0,0,1,1.187-.308A1.961,1.961,0,0,1,12.9-4a2.516,2.516,0,0,1,.571,1.736,2.429,2.429,0,0,1-.593,1.731A2.162,2.162,0,0,1,11.216.1,2.247,2.247,0,0,1,9.678-.425,2.085,2.085,0,0,1,9-1.87h.854a1.435,1.435,0,0,0,.435.92,1.351,1.351,0,0,0,.928.31,1.219,1.219,0,0,0,.989-.43,1.8,1.8,0,0,0,.359-1.187A1.649,1.649,0,0,0,12.175-3.4a1.32,1.32,0,0,0-1.033-.432,1.489,1.489,0,0,0-.928.259l-.239.2Z" transform="translate(723 12206.434)" fill="#12263f" opacity="0.88"/>
    <path id="Trazado_894333" data-name="Trazado 894333" d="M3.56,0H2.651V-6.021L.83-5.352v-.82l2.588-.972H3.56Z" transform="translate(746 12219.434)" fill="#12263f" opacity="0.88"/>
    <path id="Trazado_894334" data-name="Trazado 894334" d="M4.4-2.388h.986v.737H4.4V0H3.5V-1.65H.259v-.532L3.442-7.109H4.4Zm-3.12,0H3.5V-5.874l-.107.2Z" transform="translate(345.5 12250.934)" fill="#12263f" opacity="0.88"/>
    <path id="Trazado_894335" data-name="Trazado 894335" d="M4.4-2.388h.986v.737H4.4V0H3.5V-1.65H.259v-.532L3.442-7.109H4.4Zm-3.12,0H3.5V-5.874l-.107.2Z" transform="translate(316.5 12226.934)" fill="#12263f" opacity="0.88"/>
  </g>
</svg>
