<svg xmlns="http://www.w3.org/2000/svg" xmlns:xlink="http://www.w3.org/1999/xlink" width="85" height="85" viewBox="0 0 85 85">
  <defs>
    <clipPath id="clip-path">
      <rect id="Rectángulo_401826" data-name="Rectángulo 401826" width="58" height="58" transform="translate(194 595)" fill="#fff" stroke="#707070" stroke-width="1"/>
    </clipPath>
  </defs>
  <g id="Grupo_1101442" data-name="Grupo 1101442" transform="translate(-180 -581)">
    <path id="Trazado_887077" data-name="Trazado 887077" d="M85,42.5A42.5,42.5,0,1,1,42.5,0,42.5,42.5,0,0,1,85,42.5" transform="translate(180 581)" fill="#ff494f"/>
    <g id="Enmascarar_grupo_1099822" data-name="Enmascarar grupo 1099822" clip-path="url(#clip-path)">
      <g id="bosquejo" transform="translate(194 595)">
        <path id="Trazado_891453" data-name="Trazado 891453" d="M7.668,8.306a1.475,1.475,0,0,0-2.8,0L3.039,13.754a3.136,3.136,0,0,0-.164,1V49.593a2.279,2.279,0,0,0,2.277,2.277H7.387a2.279,2.279,0,0,0,2.277-2.277V14.757a3.137,3.137,0,0,0-.164-1ZM4.574,15.381h3.39v30.37H4.574Zm1.695-5.9,1.413,4.2H4.856ZM7.387,50.17H5.152a.578.578,0,0,1-.578-.578V47.451h3.39v2.142A.578.578,0,0,1,7.387,50.17Z" fill="#fff"/>
        <path id="Trazado_891454" data-name="Trazado 891454" d="M52.916,3.04h-3V2.349a2.349,2.349,0,0,0-4.7,0V3.04h-2.38V2.349a2.349,2.349,0,0,0-4.7,0V3.04h-2.38V2.349a2.349,2.349,0,0,0-4.7,0V3.04h-2.38V2.349a2.349,2.349,0,0,0-4.7,0V3.04H21.6V2.349a2.349,2.349,0,0,0-4.7,0V3.04h-3a2.212,2.212,0,0,0-2.209,2.209V55.791A2.212,2.212,0,0,0,13.9,58H52.916a2.212,2.212,0,0,0,2.209-2.209V30.663a.85.85,0,0,0-1.7,0V55.791a.51.51,0,0,1-.51.51H13.9a.51.51,0,0,1-.51-.51V11.178H53.426V26.7a.85.85,0,1,0,1.7,0V5.249A2.212,2.212,0,0,0,52.916,3.04Zm-6-.691a.65.65,0,0,1,1.3,0V5.515a.65.65,0,0,1-1.3,0Zm-7.078,0a.65.65,0,0,1,1.3,0V5.515a.65.65,0,0,1-1.3,0Zm-7.078,0a.65.65,0,0,1,1.3,0V5.515a.65.65,0,0,1-1.3,0Zm-7.078,0a.65.65,0,0,1,1.3,0V5.515a.65.65,0,0,1-1.3,0Zm-7.078,0a.65.65,0,0,1,1.3,0V5.515a.65.65,0,0,1-1.3,0ZM13.388,9.479V5.249a.51.51,0,0,1,.51-.51h3v.776a2.349,2.349,0,0,0,4.7,0V4.74h2.38v.776a2.349,2.349,0,0,0,4.7,0V4.74h2.38v.776a2.349,2.349,0,0,0,4.7,0V4.74h2.38v.776a2.349,2.349,0,0,0,4.7,0V4.74h2.38v.776a2.349,2.349,0,0,0,4.7,0V4.74h3a.51.51,0,0,1,.51.51V9.479Z" fill="#fff"/>
        <path id="Trazado_891455" data-name="Trazado 891455" d="M18.442,52.9a1.443,1.443,0,0,0,1.092.5H23.2a1.451,1.451,0,0,0,1.351-.935l.978-2.606L26.7,52.531a1.442,1.442,0,0,0,1.322.864H38.61a1.443,1.443,0,0,0,1.429-1.65L37.792,36.311a1.747,1.747,0,0,0,.42-1.136V33.409a1.757,1.757,0,0,0-1.137-1.641V22.874a2.28,2.28,0,0,0-.654-1.6C36,20.84,34.473,19.219,34,18.735c-.025-.026-.052-.049-.078-.072V14.851a.85.85,0,1,0-1.7,0v3.777c-.018.015-.037.028-.054.044l-2.7,2.395a.594.594,0,0,1-.785,0l-2.7-2.4c-.018-.016-.036-.029-.054-.044V14.851a.85.85,0,0,0-1.7,0v3.811c-.027.023-.053.047-.078.072-.476.485-2,2.1-2.423,2.536a2.279,2.279,0,0,0-.655,1.6v2.747a.85.85,0,0,0,1.7,0V22.874a.589.589,0,0,1,.17-.414c.433-.443,1.813-1.91,2.175-2.283l2.44,2.164a2.3,2.3,0,0,0,3.037,0l2.439-2.163c.362.373,1.742,1.839,2.176,2.283a.589.589,0,0,1,.17.414v8.78H22.768V29.586a.85.85,0,0,0-1.7,0v2.086a1.757,1.757,0,0,0-1.516,1.738v1.765a1.754,1.754,0,0,0,.754,1.44l-2.2,15.13a1.442,1.442,0,0,0,.337,1.151Zm2.867-17.664a.057.057,0,0,1-.057-.057V33.409a.057.057,0,0,1,.057-.057H36.456a.057.057,0,0,1,.057.057v1.765a.057.057,0,0,1-.057.057Zm.669,1.7H36.165L38.314,51.7H28.186l-1.358-3.1a1.442,1.442,0,0,0-2.673.071L23.018,51.7H19.83Z" fill="#fff"/>
        <path id="Trazado_891456" data-name="Trazado 891456" d="M44.515,51.7a.85.85,0,0,0,0,1.7h2.678a1.531,1.531,0,0,0,1.529-1.529V15.531A1.531,1.531,0,0,0,47.193,14H44.515a.85.85,0,0,0,0,1.7h2.508v2.185H44.515a.85.85,0,0,0,0,1.7h2.508V21.8H44.515a.85.85,0,0,0,0,1.7h2.508v8.15H44.515a.85.85,0,1,0,0,1.7h2.508v1.879H44.515a.85.85,0,0,0,0,1.7h2.508V51.7Z" fill="#fff"/>
      </g>
    </g>
  </g>
</svg>
