<svg xmlns="http://www.w3.org/2000/svg" xmlns:xlink="http://www.w3.org/1999/xlink" width="85" height="85" viewBox="0 0 85 85">
  <defs>
    <clipPath id="clip-path">
      <rect id="Rectángulo_401826" data-name="Rectángulo 401826" width="58" height="58" transform="translate(194 595)" fill="#fff" stroke="#707070" stroke-width="1"/>
    </clipPath>
  </defs>
  <g id="Grupo_1102091" data-name="Grupo 1102091" transform="translate(-180 -581)">
    <path id="Trazado_887077" data-name="Trazado 887077" d="M85,42.5A42.5,42.5,0,1,1,42.5,0,42.5,42.5,0,0,1,85,42.5" transform="translate(180 581)" fill="#ff494f"/>
    <g id="Enmascarar_grupo_1099840" data-name="Enmascarar grupo 1099840" clip-path="url(#clip-path)">
      <g id="modelo" transform="translate(194 595)">
        <path id="Trazado_892587" data-name="Trazado 892587" d="M21.621,11.914a.85.85,0,0,0,.85-.85V2.55a.851.851,0,0,1,.85-.85h6.534a.85.85,0,0,0,0-1.7H23.321a2.553,2.553,0,0,0-2.55,2.55v8.515a.85.85,0,0,0,.85.85Z" fill="#fff"/>
        <path id="Trazado_892588" data-name="Trazado 892588" d="M52.433,0H33.995a.85.85,0,1,0,0,1.7H49.28v.17a.85.85,0,0,0,1.7,0V1.7h1.453a.851.851,0,0,1,.85.85V25.23a.855.855,0,0,1-.332.674L49.8,28.323a19.116,19.116,0,0,0-7.466,15.156v2.608a.85.85,0,1,0,1.7,0V43.479a17.524,17.524,0,0,1,6.8-13.808l3.148-2.42a2.565,2.565,0,0,0,1-2.021V2.55A2.552,2.552,0,0,0,52.433,0Z" fill="#fff"/>
        <path id="Trazado_892589" data-name="Trazado 892589" d="M43.187,49.4a.85.85,0,0,0-.85.85v5.2a.851.851,0,0,1-.85.85H26.639v-.753a.85.85,0,1,0-1.7,0V56.3H23.321a.851.851,0,0,1-.85-.85V37.187H36.339a1.735,1.735,0,0,0,1.733-1.733v-14.4a12.241,12.241,0,0,1,2.056-6.8l3-4.505A1.485,1.485,0,0,0,41.89,7.441h-13.5a1.735,1.735,0,0,0-1.733,1.733,5.4,5.4,0,0,1-5.4,5.4H16.5a5.4,5.4,0,0,1-5.4-5.4A1.735,1.735,0,0,0,9.369,7.441H4.75A1.735,1.735,0,0,0,3.017,9.174v26.28A1.735,1.735,0,0,0,4.75,37.187H20.771V55.45A2.552,2.552,0,0,0,23.321,58H41.487a2.552,2.552,0,0,0,2.55-2.55v-5.2a.85.85,0,0,0-.85-.85ZM4.717,35.454V9.174a.033.033,0,0,1,.033-.033H9.369a.033.033,0,0,1,.033.033,7.1,7.1,0,0,0,7.1,7.1h4.758a7.1,7.1,0,0,0,7.1-7.1.033.033,0,0,1,.033-.033h8.077l-.175.324a.85.85,0,1,0,1.468.857l.689-1.181H41.49l-2.776,4.172a13.935,13.935,0,0,0-2.341,7.744v14.4a.033.033,0,0,1-.033.033H4.751a.033.033,0,0,1-.033-.033Z" fill="#fff"/>
        <path id="Trazado_892590" data-name="Trazado 892590" d="M50.13,10.5a.85.85,0,0,0,.85-.85V6.191a.85.85,0,0,0-1.7,0V9.648A.85.85,0,0,0,50.13,10.5Z" fill="#fff"/>
        <path id="Trazado_892591" data-name="Trazado 892591" d="M49.28,17.425a.85.85,0,0,0,1.7,0V13.969a.85.85,0,0,0-1.7,0Z" fill="#fff"/>
        <path id="Trazado_892592" data-name="Trazado 892592" d="M49.28,25.2a.85.85,0,0,0,1.7,0V21.746a.85.85,0,0,0-1.7,0Z" fill="#fff"/>
        <path id="Trazado_892593" data-name="Trazado 892593" d="M26.639,39.545a.85.85,0,1,0-1.7,0V43.1a.85.85,0,1,0,1.7,0Z" fill="#fff"/>
        <path id="Trazado_892594" data-name="Trazado 892594" d="M25.789,46.7a.85.85,0,0,0-.85.85V51.1a.85.85,0,1,0,1.7,0V47.546A.85.85,0,0,0,25.789,46.7Z" fill="#fff"/>
        <path id="Trazado_892595" data-name="Trazado 892595" d="M10.625,31.182H7a.85.85,0,0,0,0,1.7h3.626a.85.85,0,0,0,0-1.7Z" fill="#fff"/>
        <path id="Trazado_892596" data-name="Trazado 892596" d="M18.784,31.182H15.157a.85.85,0,0,0,0,1.7h3.626a.85.85,0,0,0,0-1.7Z" fill="#fff"/>
        <path id="Trazado_892597" data-name="Trazado 892597" d="M35.166,13.075a.85.85,0,0,0-1.125.422,18.222,18.222,0,0,0-1.2,3.6.85.85,0,1,0,1.66.367,16.529,16.529,0,0,1,1.09-3.265.85.85,0,0,0-.422-1.126Z" fill="#fff"/>
        <path id="Trazado_892598" data-name="Trazado 892598" d="M33.256,20.935a.85.85,0,0,0-.85.85v3.626a.85.85,0,0,0,1.7,0V21.784A.85.85,0,0,0,33.256,20.935Z" fill="#fff"/>
        <path id="Trazado_892599" data-name="Trazado 892599" d="M26.943,31.182H23.316a.85.85,0,0,0,0,1.7h3.626a.85.85,0,0,0,0-1.7Z" fill="#fff"/>
        <path id="Trazado_892600" data-name="Trazado 892600" d="M33.256,29.093a.85.85,0,0,0-.85.85v1.238h-.931a.85.85,0,0,0,0,1.7H32.69a1.418,1.418,0,0,0,1.416-1.416V29.943a.85.85,0,0,0-.85-.85Z" fill="#fff"/>
      </g>
    </g>
  </g>
</svg>
