<svg xmlns="http://www.w3.org/2000/svg" width="470.949" height="138.033" viewBox="0 0 470.949 138.033">
  <g id="Grupo_1102519" data-name="Grupo 1102519" transform="translate(6172 10087.218)">
    <path id="Trazado_893290" data-name="Trazado 893290" d="M10,0H460.949a10,10,0,0,1,10,10V128.034a10,10,0,0,1-10,10H10a10,10,0,0,1-10-10V10A10,10,0,0,1,10,0Z" transform="translate(-6172 -10087.218)" fill="#fff"/>
    <path id="Trazado_893291" data-name="Trazado 893291" d="M1.155,0V-9.953h2.81a4.523,4.523,0,0,1,2.3.574A3.884,3.884,0,0,1,7.8-7.745a5.318,5.318,0,0,1,.55,2.434v.636A5.336,5.336,0,0,1,7.81-2.208,3.823,3.823,0,0,1,6.258-.581,4.811,4.811,0,0,1,3.91,0ZM2.468-8.88v7.807H3.849A3,3,0,0,0,6.21-2.017a3.9,3.9,0,0,0,.844-2.689v-.582a3.963,3.963,0,0,0-.8-2.637A2.834,2.834,0,0,0,4-8.88ZM9.8-3.767a4.369,4.369,0,0,1,.427-1.955,3.187,3.187,0,0,1,1.189-1.34,3.238,3.238,0,0,1,1.74-.472A3.119,3.119,0,0,1,15.6-6.487a4.024,4.024,0,0,1,.933,2.782v.089a4.407,4.407,0,0,1-.414,1.938A3.14,3.14,0,0,1,14.94-.342a3.275,3.275,0,0,1-1.767.479A3.111,3.111,0,0,1,10.736-.909,4,4,0,0,1,9.8-3.678Zm1.271.15a3.164,3.164,0,0,0,.571,1.976A1.827,1.827,0,0,0,13.173-.9,1.816,1.816,0,0,0,14.7-1.651a3.46,3.46,0,0,0,.567-2.116,3.159,3.159,0,0,0-.578-1.972,1.836,1.836,0,0,0-1.535-.755,1.816,1.816,0,0,0-1.511.745A3.434,3.434,0,0,0,11.074-3.616Zm13.31,0A4.4,4.4,0,0,1,23.6-.892,2.49,2.49,0,0,1,21.513.137a2.578,2.578,0,0,1-2.167-.991L19.284,0H18.122V-10.5h1.265v3.917a2.564,2.564,0,0,1,2.112-.95,2.505,2.505,0,0,1,2.116,1.019,4.53,4.53,0,0,1,.769,2.789ZM23.119-3.76a3.417,3.417,0,0,0-.5-2,1.652,1.652,0,0,0-1.436-.7,1.857,1.857,0,0,0-1.8,1.162v3.2A1.909,1.909,0,0,0,21.2-.937a1.643,1.643,0,0,0,1.415-.7A3.634,3.634,0,0,0,23.119-3.76ZM27.351,0H26.086V-10.5h1.265Zm5.093.137A3.232,3.232,0,0,1,30-.851a3.666,3.666,0,0,1-.943-2.642v-.232a4.438,4.438,0,0,1,.42-1.965,3.28,3.28,0,0,1,1.176-1.354,2.956,2.956,0,0,1,1.637-.489,2.77,2.77,0,0,1,2.242.95,4.114,4.114,0,0,1,.8,2.721v.526H30.317a2.629,2.629,0,0,0,.639,1.767A2.009,2.009,0,0,0,32.512-.9a2.2,2.2,0,0,0,1.135-.273,2.851,2.851,0,0,0,.813-.725l.772.6A3.106,3.106,0,0,1,32.443.137Zm-.157-6.631A1.687,1.687,0,0,0,31-5.937a2.708,2.708,0,0,0-.643,1.562h3.705v-.1a2.409,2.409,0,0,0-.52-1.494A1.588,1.588,0,0,0,32.286-6.494ZM37.98-1.032h4.327V0H36.436V-.93l4.081-5.421H36.5V-7.4H42.1v.9ZM46.888-3.76A4.333,4.333,0,0,1,47.694-6.5a2.551,2.551,0,0,1,2.112-1.036,2.565,2.565,0,0,1,2.058.889V-10.5h1.265V0H51.967l-.062-.793a2.575,2.575,0,0,1-2.112.93A2.526,2.526,0,0,1,47.7-.916a4.382,4.382,0,0,1-.81-2.748Zm1.265.144a3.281,3.281,0,0,0,.52,1.969,1.68,1.68,0,0,0,1.436.711,1.845,1.845,0,0,0,1.757-1.08v-3.4A1.859,1.859,0,0,0,50.121-6.46a1.687,1.687,0,0,0-1.449.718A3.612,3.612,0,0,0,48.152-3.616ZM58.16.137a3.232,3.232,0,0,1-2.447-.988,3.666,3.666,0,0,1-.943-2.642v-.232a4.438,4.438,0,0,1,.42-1.965,3.28,3.28,0,0,1,1.176-1.354A2.956,2.956,0,0,1,58-7.533a2.77,2.77,0,0,1,2.242.95,4.114,4.114,0,0,1,.8,2.721v.526H56.034a2.629,2.629,0,0,0,.639,1.767A2.009,2.009,0,0,0,58.229-.9a2.2,2.2,0,0,0,1.135-.273,2.851,2.851,0,0,0,.813-.725l.772.6A3.106,3.106,0,0,1,58.16.137ZM58-6.494a1.687,1.687,0,0,0-1.285.557,2.708,2.708,0,0,0-.643,1.562H59.78v-.1a2.409,2.409,0,0,0-.52-1.494A1.588,1.588,0,0,0,58-6.494ZM67.348,0H66.083V-10.5h1.265Zm6.59,0a2.657,2.657,0,0,1-.178-.779,2.822,2.822,0,0,1-2.105.916A2.611,2.611,0,0,1,69.86-.482a2,2,0,0,1-.7-1.569,2.091,2.091,0,0,1,.878-1.794,4.141,4.141,0,0,1,2.471-.639h1.23v-.581a1.42,1.42,0,0,0-.4-1.056,1.593,1.593,0,0,0-1.169-.393,1.844,1.844,0,0,0-1.135.342,1.007,1.007,0,0,0-.458.827H69.31a1.745,1.745,0,0,1,.393-1.07,2.683,2.683,0,0,1,1.066-.817,3.588,3.588,0,0,1,1.48-.3,2.924,2.924,0,0,1,2,.639A2.306,2.306,0,0,1,75-5.134v3.4a4.162,4.162,0,0,0,.26,1.62V0Zm-2.1-.964a2.223,2.223,0,0,0,1.128-.308,1.861,1.861,0,0,0,.772-.8V-3.589h-.991q-2.324,0-2.324,1.36a1.151,1.151,0,0,0,.4.93A1.524,1.524,0,0,0,71.839-.964ZM82.168-9.187V-7.4h1.381v.978H82.168v4.593a1.027,1.027,0,0,0,.185.667.777.777,0,0,0,.629.222,3.062,3.062,0,0,0,.6-.082V0a3.688,3.688,0,0,1-.971.136,1.575,1.575,0,0,1-1.278-.513A2.2,2.2,0,0,1,80.9-1.832V-6.419H79.557V-7.4H80.9V-9.187ZM88.095.137a3.232,3.232,0,0,1-2.447-.988A3.666,3.666,0,0,1,84.7-3.493v-.232a4.438,4.438,0,0,1,.42-1.965A3.28,3.28,0,0,1,86.3-7.044a2.956,2.956,0,0,1,1.637-.489,2.77,2.77,0,0,1,2.242.95,4.114,4.114,0,0,1,.8,2.721v.526H85.969a2.629,2.629,0,0,0,.639,1.767A2.009,2.009,0,0,0,88.163-.9,2.2,2.2,0,0,0,89.3-1.169a2.851,2.851,0,0,0,.813-.725l.772.6A3.106,3.106,0,0,1,88.095.137Zm-.157-6.631a1.687,1.687,0,0,0-1.285.557,2.708,2.708,0,0,0-.643,1.562h3.705v-.1a2.409,2.409,0,0,0-.52-1.494A1.588,1.588,0,0,0,87.938-6.494ZM93.816,0H92.552V-10.5h1.265Zm6.59,0a2.657,2.657,0,0,1-.178-.779,2.822,2.822,0,0,1-2.105.916,2.611,2.611,0,0,1-1.794-.619,2,2,0,0,1-.7-1.569,2.091,2.091,0,0,1,.878-1.794,4.141,4.141,0,0,1,2.471-.639h1.23v-.581a1.42,1.42,0,0,0-.4-1.056,1.593,1.593,0,0,0-1.169-.393,1.844,1.844,0,0,0-1.135.342,1.007,1.007,0,0,0-.458.827H95.778a1.745,1.745,0,0,1,.393-1.07,2.683,2.683,0,0,1,1.066-.817,3.588,3.588,0,0,1,1.48-.3,2.924,2.924,0,0,1,2,.639,2.306,2.306,0,0,1,.752,1.76v3.4a4.162,4.162,0,0,0,.26,1.62V0Zm-2.1-.964a2.223,2.223,0,0,0,1.128-.308,1.861,1.861,0,0,0,.772-.8V-3.589h-.991q-2.324,0-2.324,1.36a1.151,1.151,0,0,0,.4.93A1.524,1.524,0,0,0,98.308-.964Z" transform="translate(-6039 -10013.218)" fill="#12263f"/>
    <g id="Grupo_1102062" data-name="Grupo 1102062" transform="translate(811 -282.885)">
      <g id="Elipse_11489" data-name="Elipse 11489" transform="translate(-6730 -9756)" fill="#fff" stroke="#12263f" stroke-width="1">
        <circle cx="9.5" cy="9.5" r="9.5" stroke="none"/>
        <circle cx="9.5" cy="9.5" r="9" fill="none"/>
      </g>
      <g id="Elipse_11491" data-name="Elipse 11491" transform="translate(-6711 -9744)" fill="#fff" stroke="#12263f" stroke-width="1">
        <circle cx="9.5" cy="9.5" r="9.5" stroke="none"/>
        <circle cx="9.5" cy="9.5" r="9" fill="none"/>
      </g>
      <g id="Elipse_11490" data-name="Elipse 11490" transform="translate(-6730 -9732)" fill="#fff" stroke="#12263f" stroke-width="1">
        <circle cx="9.5" cy="9.5" r="9.5" stroke="none"/>
        <circle cx="9.5" cy="9.5" r="9" fill="none"/>
      </g>
      <path id="Trazado_892573" data-name="Trazado 892573" d="M-6671.667-9762.333h-16.667v53.666h15.667" transform="translate(2)" fill="none" stroke="#12263f" stroke-width="2"/>
      <path id="Trazado_892574" data-name="Trazado 892574" d="M3.93-5.367,5.8-8.453H7.492L4.727-4.273,7.578,0H5.906L3.953-3.164,2,0H.32L3.172-4.273.406-8.453H2.078Z" transform="translate(-6653 -9750)" fill="#12263f"/>
      <path id="Trazado_892575" data-name="Trazado 892575" d="M3.93-5.367,5.8-8.453H7.492L4.727-4.273,7.578,0H5.906L3.953-3.164,2,0H.32L3.172-4.273.406-8.453H2.078Z" transform="translate(-6653 -9733.273)" fill="#12263f"/>
      <path id="Trazado_892576" data-name="Trazado 892576" d="M3.93-5.367,5.8-8.453H7.492L4.727-4.273,7.578,0H5.906L3.953-3.164,2,0H.32L3.172-4.273.406-8.453H2.078Z" transform="translate(-6653 -9715.273)" fill="#12263f"/>
    </g>
  </g>
</svg>
