<svg xmlns="http://www.w3.org/2000/svg" width="470.949" height="138.033" viewBox="0 0 470.949 138.033">
  <g id="Grupo_1102521" data-name="Grupo 1102521" transform="translate(6172 9528)">
    <g id="Grupo_1102520" data-name="Grupo 1102520">
      <path id="Trazado_893292" data-name="Trazado 893292" d="M10,0H460.949a10,10,0,0,1,10,10V128.034a10,10,0,0,1-10,10H10a10,10,0,0,1-10-10V10A10,10,0,0,1,10,0Z" transform="translate(-6172 -9528)" fill="#fff" opacity="0.8"/>
      <path id="Trazado_893295" data-name="Trazado 893295" d="M2.851-9.953,6.1-1.832,9.358-9.953h1.7V0H9.748V-3.876L9.871-8.06,6.6,0h-1L2.338-8.039l.13,4.163V0H1.155V-9.953ZM17.746,0a2.657,2.657,0,0,1-.178-.779,2.822,2.822,0,0,1-2.105.916,2.611,2.611,0,0,1-1.794-.619,2,2,0,0,1-.7-1.569,2.091,2.091,0,0,1,.878-1.794,4.142,4.142,0,0,1,2.471-.639h1.23v-.581a1.42,1.42,0,0,0-.4-1.056,1.593,1.593,0,0,0-1.169-.393,1.844,1.844,0,0,0-1.135.342,1.007,1.007,0,0,0-.458.827H13.118a1.745,1.745,0,0,1,.393-1.07,2.683,2.683,0,0,1,1.066-.817,3.588,3.588,0,0,1,1.48-.3,2.924,2.924,0,0,1,2,.639,2.306,2.306,0,0,1,.752,1.76v3.4a4.162,4.162,0,0,0,.26,1.62V0Zm-2.1-.964a2.223,2.223,0,0,0,1.128-.308,1.861,1.861,0,0,0,.772-.8V-3.589h-.991q-2.324,0-2.324,1.36a1.151,1.151,0,0,0,.4.93A1.524,1.524,0,0,0,15.647-.964Zm8.723-5.3a3.79,3.79,0,0,0-.622-.048A1.667,1.667,0,0,0,22.06-5.25V0H20.795V-7.4h1.23l.021.854a1.969,1.969,0,0,1,1.764-.991,1.292,1.292,0,0,1,.561.1Zm.731,2.5a4.347,4.347,0,0,1,.8-2.751,2.558,2.558,0,0,1,2.119-1.022,2.544,2.544,0,0,1,2.112.957l.062-.82H31.35V-.178A3.009,3.009,0,0,1,30.5,2.085a3.141,3.141,0,0,1-2.287.827,3.8,3.8,0,0,1-1.565-.342,2.7,2.7,0,0,1-1.169-.937l.656-.759a2.473,2.473,0,0,0,1.989,1,1.938,1.938,0,0,0,1.439-.52A1.986,1.986,0,0,0,30.078-.1V-.738a2.6,2.6,0,0,1-2.071.875A2.527,2.527,0,0,1,25.9-.909,4.571,4.571,0,0,1,25.1-3.76Zm1.271.144a3.316,3.316,0,0,0,.513,1.965,1.666,1.666,0,0,0,1.436.714,1.852,1.852,0,0,0,1.757-1.087V-5.4a1.874,1.874,0,0,0-1.743-1.06,1.681,1.681,0,0,0-1.442.718A3.612,3.612,0,0,0,26.373-3.616ZM36.326.137a3.232,3.232,0,0,1-2.447-.988,3.666,3.666,0,0,1-.943-2.642v-.232a4.438,4.438,0,0,1,.42-1.965,3.28,3.28,0,0,1,1.176-1.354,2.956,2.956,0,0,1,1.637-.489,2.77,2.77,0,0,1,2.242.95,4.114,4.114,0,0,1,.8,2.721v.526H34.2a2.629,2.629,0,0,0,.639,1.767A2.009,2.009,0,0,0,36.395-.9a2.2,2.2,0,0,0,1.135-.273,2.851,2.851,0,0,0,.813-.725l.772.6A3.106,3.106,0,0,1,36.326.137Zm-.157-6.631a1.687,1.687,0,0,0-1.285.557,2.708,2.708,0,0,0-.643,1.562h3.705v-.1a2.409,2.409,0,0,0-.52-1.494A1.588,1.588,0,0,0,36.169-6.494Zm5.7-.9.041.93a2.7,2.7,0,0,1,2.215-1.066q2.345,0,2.365,2.646V0H45.227V-4.895a1.7,1.7,0,0,0-.366-1.183,1.466,1.466,0,0,0-1.118-.383,1.825,1.825,0,0,0-1.08.328,2.228,2.228,0,0,0-.725.861V0H40.674V-7.4ZM51.557-3.76A4.333,4.333,0,0,1,52.363-6.5a2.551,2.551,0,0,1,2.112-1.036,2.565,2.565,0,0,1,2.058.889V-10.5H57.8V0H56.636l-.062-.793a2.575,2.575,0,0,1-2.112.93,2.526,2.526,0,0,1-2.1-1.053,4.382,4.382,0,0,1-.81-2.748Zm1.265.144a3.281,3.281,0,0,0,.52,1.969,1.68,1.68,0,0,0,1.436.711,1.845,1.845,0,0,0,1.757-1.08v-3.4A1.859,1.859,0,0,0,54.79-6.46a1.687,1.687,0,0,0-1.449.718A3.612,3.612,0,0,0,52.821-3.616ZM62.829.137a3.232,3.232,0,0,1-2.447-.988,3.666,3.666,0,0,1-.943-2.642v-.232a4.438,4.438,0,0,1,.42-1.965,3.28,3.28,0,0,1,1.176-1.354,2.956,2.956,0,0,1,1.637-.489,2.77,2.77,0,0,1,2.242.95,4.114,4.114,0,0,1,.8,2.721v.526H60.7a2.629,2.629,0,0,0,.639,1.767A2.009,2.009,0,0,0,62.9-.9a2.2,2.2,0,0,0,1.135-.273,2.851,2.851,0,0,0,.813-.725l.772.6A3.106,3.106,0,0,1,62.829.137Zm-.157-6.631a1.687,1.687,0,0,0-1.285.557,2.708,2.708,0,0,0-.643,1.562h3.705v-.1a2.409,2.409,0,0,0-.52-1.494A1.588,1.588,0,0,0,62.672-6.494ZM73.609-.9a1.822,1.822,0,0,0,1.183-.41,1.443,1.443,0,0,0,.561-1.025h1.2a2.293,2.293,0,0,1-.437,1.21,2.882,2.882,0,0,1-1.077.916,3.107,3.107,0,0,1-1.425.342,3.047,3.047,0,0,1-2.4-1.008,4.016,4.016,0,0,1-.892-2.758v-.212a4.453,4.453,0,0,1,.4-1.921,3.02,3.02,0,0,1,1.138-1.306A3.233,3.233,0,0,1,73.6-7.533a2.966,2.966,0,0,1,2.068.745,2.663,2.663,0,0,1,.878,1.935h-1.2a1.743,1.743,0,0,0-.543-1.179A1.691,1.691,0,0,0,73.6-6.494a1.77,1.77,0,0,0-1.494.694,3.259,3.259,0,0,0-.53,2.006v.239a3.194,3.194,0,0,0,.526,1.969A1.779,1.779,0,0,0,73.609-.9Zm4.026-2.871a4.369,4.369,0,0,1,.427-1.955,3.187,3.187,0,0,1,1.189-1.34,3.238,3.238,0,0,1,1.74-.472,3.119,3.119,0,0,1,2.444,1.046,4.024,4.024,0,0,1,.933,2.782v.089a4.407,4.407,0,0,1-.414,1.938A3.14,3.14,0,0,1,82.773-.342a3.275,3.275,0,0,1-1.767.479A3.111,3.111,0,0,1,78.569-.909a4,4,0,0,1-.933-2.769Zm1.271.15a3.164,3.164,0,0,0,.571,1.976A1.827,1.827,0,0,0,81.006-.9a1.816,1.816,0,0,0,1.531-.755A3.46,3.46,0,0,0,83.1-3.767a3.159,3.159,0,0,0-.578-1.972,1.836,1.836,0,0,0-1.535-.755,1.816,1.816,0,0,0-1.511.745A3.434,3.434,0,0,0,78.907-3.616ZM90.262-1.962a.931.931,0,0,0-.386-.8,3.718,3.718,0,0,0-1.347-.489A6.367,6.367,0,0,1,87-3.739a2.169,2.169,0,0,1-.834-.684,1.635,1.635,0,0,1-.27-.943A1.919,1.919,0,0,1,86.669-6.9a3,3,0,0,1,1.965-.629,3.091,3.091,0,0,1,2.041.649,2.063,2.063,0,0,1,.783,1.661H90.187a1.142,1.142,0,0,0-.441-.9,1.652,1.652,0,0,0-1.111-.376,1.729,1.729,0,0,0-1.08.3.947.947,0,0,0-.39.786.767.767,0,0,0,.362.69,4.458,4.458,0,0,0,1.309.444,6.821,6.821,0,0,1,1.535.506,2.239,2.239,0,0,1,.872.708,1.74,1.74,0,0,1,.284,1.008,1.893,1.893,0,0,1-.793,1.589,3.326,3.326,0,0,1-2.058.6A3.725,3.725,0,0,1,87.1-.178a2.557,2.557,0,0,1-1.07-.878,2.117,2.117,0,0,1-.386-1.22h1.265a1.309,1.309,0,0,0,.509,1.008A1.976,1.976,0,0,0,88.676-.9a2.039,2.039,0,0,0,1.152-.291A.893.893,0,0,0,90.262-1.962ZM94.89-9.187V-7.4h1.381v.978H94.89v4.593a1.027,1.027,0,0,0,.185.667.777.777,0,0,0,.629.222,3.062,3.062,0,0,0,.6-.082V0a3.688,3.688,0,0,1-.971.136,1.575,1.575,0,0,1-1.278-.513,2.2,2.2,0,0,1-.431-1.456V-6.419H92.278V-7.4h1.347V-9.187Zm7.424,8.456a2.686,2.686,0,0,1-2.167.868,2.3,2.3,0,0,1-1.8-.687,2.974,2.974,0,0,1-.625-2.034V-7.4h1.265v4.778q0,1.682,1.367,1.682a1.893,1.893,0,0,0,1.928-1.08V-7.4h1.265V0h-1.2Zm6.727-5.53a3.79,3.79,0,0,0-.622-.048,1.667,1.667,0,0,0-1.688,1.06V0h-1.265V-7.4h1.23l.021.854a1.969,1.969,0,0,1,1.764-.991,1.292,1.292,0,0,1,.561.1ZM114.5,0a2.657,2.657,0,0,1-.178-.779,2.822,2.822,0,0,1-2.105.916,2.611,2.611,0,0,1-1.794-.619,2,2,0,0,1-.7-1.569,2.091,2.091,0,0,1,.878-1.794,4.141,4.141,0,0,1,2.471-.639h1.23v-.581a1.42,1.42,0,0,0-.4-1.056,1.593,1.593,0,0,0-1.169-.393,1.844,1.844,0,0,0-1.135.342,1.007,1.007,0,0,0-.458.827h-1.271a1.745,1.745,0,0,1,.393-1.07,2.683,2.683,0,0,1,1.066-.817,3.588,3.588,0,0,1,1.48-.3,2.924,2.924,0,0,1,2,.639,2.306,2.306,0,0,1,.752,1.76v3.4a4.162,4.162,0,0,0,.26,1.62V0Zm-2.1-.964a2.223,2.223,0,0,0,1.128-.308,1.861,1.861,0,0,0,.772-.8V-3.589h-.991q-2.324,0-2.324,1.36a1.151,1.151,0,0,0,.4.93A1.524,1.524,0,0,0,112.4-.964Z" transform="translate(-6023 -9453.333)" fill="#12263f"/>
      <path id="Trazado_893293" data-name="Trazado 893293" d="M0,0V65" transform="translate(-5865.525 -9491)" fill="none" stroke="#12263f" stroke-width="2"/>
      <path id="Trazado_893294" data-name="Trazado 893294" d="M0,0V65" transform="translate(-5849.525 -9491)" fill="none" stroke="#12263f" stroke-width="2" stroke-dasharray="5"/>
    </g>
  </g>
</svg>
