<svg xmlns="http://www.w3.org/2000/svg" xmlns:xlink="http://www.w3.org/1999/xlink" width="112.051" height="112.051" viewBox="0 0 112.051 112.051">
  <defs>
    <clipPath id="clip-path">
      <path id="path1269" d="M0-682.665H112.051v112.051H0Z" transform="translate(0 682.665)" fill="#ff494f"/>
    </clipPath>
  </defs>
  <g id="g1251" transform="translate(0 682.665)">
    <g id="g1253" transform="translate(16.735 -619.102)">
      <path id="path1255" d="M-216.8-8.956h-40.384a2.189,2.189,0,0,1-2.189-2.188,2.189,2.189,0,0,1,2.189-2.188H-216.8a2.189,2.189,0,0,1,2.189,2.188A2.189,2.189,0,0,1-216.8-8.956Z" transform="translate(259.373 13.333)" fill="#ff494f"/>
    </g>
    <g id="g1257" transform="translate(74.628 -619.102)">
      <path id="path1259" d="M-92.591-8.956h-15.993a2.189,2.189,0,0,1-2.188-2.188,2.189,2.189,0,0,1,2.188-2.188h15.993A2.188,2.188,0,0,1-90.4-11.145,2.188,2.188,0,0,1-92.591-8.956Z" transform="translate(110.773 13.333)" fill="#ff494f"/>
    </g>
    <g id="g1261" transform="translate(17.67 -597.22)">
      <path id="path1263" d="M-377.029-8.956h-71.848a2.188,2.188,0,0,1-2.189-2.188,2.188,2.188,0,0,1,2.189-2.188h71.848a2.188,2.188,0,0,1,2.188,2.188A2.188,2.188,0,0,1-377.029-8.956Z" transform="translate(451.066 13.333)" fill="#ff494f"/>
    </g>
    <g id="g1265" transform="translate(0 -682.665)">
      <g id="g1267" clip-path="url(#clip-path)">
        <g id="g1273" transform="translate(37.487 0)">
          <path id="path1275" d="M-192.541,28.916a16.475,16.475,0,0,1-11.286-4.452,16.477,16.477,0,0,1-5.209-10.955l-2-25.885a2.188,2.188,0,0,1,2.014-2.35,2.188,2.188,0,0,1,2.35,2.014l2,25.905a12.127,12.127,0,0,0,3.832,8.074,12.112,12.112,0,0,0,8.3,3.273,12.2,12.2,0,0,0,12.128-11.295l1.83-25.71a2.19,2.19,0,0,1,2.261-2.034,2.187,2.187,0,0,1,2.111,2.185v0l-1.835,25.866A16.592,16.592,0,0,1-192.541,28.916Z" transform="translate(211.04 14.734)" fill="#ff494f"/>
        </g>
        <g id="g1277" transform="translate(14.922 0)">
          <path id="path1279" d="M-389.5-557.281H-460.9a2.189,2.189,0,0,1-1.556-.65,2.189,2.189,0,0,1-.632-1.564c0-.421.442-42.307-2.864-59.406a2.189,2.189,0,0,1,.6-1.963C-454-632.211-454-643.541-453.991-660.691c0-2.075,0-4.229.021-6.472a2.189,2.189,0,0,1,2.188-2.169h10.569a2.189,2.189,0,0,1,2.151,1.783,14.549,14.549,0,0,0,14.092,12.067,14.544,14.544,0,0,0,14.083-12.067,2.189,2.189,0,0,1,2.151-1.783h10.569a2.189,2.189,0,0,1,2.188,2.169c.018,2.036.022,3.987.026,5.862.034,17.241.054,27.648,11.534,39.127a2.189,2.189,0,0,1,.6,1.988c-3.715,18.1-3.492,60.278-3.489,60.7a2.189,2.189,0,0,1-.636,1.557A2.189,2.189,0,0,1-389.5-557.281Zm-69.188-4.377H-391.7c0-8.856.219-41.528,3.358-58.259-11.937-12.436-11.96-24.027-11.994-41.375q0-1.784-.011-3.662h-6.667A18.856,18.856,0,0,1-424.97-651.1a18.863,18.863,0,0,1-17.971-13.85h-6.666q-.009,2.189-.007,4.265c0,17.2-.007,29.735-11.827,42.094C-458.665-602.71-458.641-570.471-458.689-561.658Z" transform="translate(465.987 669.332)" fill="#ff494f"/>
        </g>
        <g id="g1281" transform="translate(65.872 63.465)">
          <path id="path1283" d="M-11.141-13.337h0a2.188,2.188,0,0,1,2.188,2.188A2.189,2.189,0,0,1-11.141-8.96a2.189,2.189,0,0,1-2.189-2.188A2.188,2.188,0,0,1-11.141-13.337Z" transform="translate(13.33 13.337)" fill="#ff494f"/>
        </g>
      </g>
    </g>
  </g>
</svg>
