<svg xmlns="http://www.w3.org/2000/svg" xmlns:xlink="http://www.w3.org/1999/xlink" width="74.001" height="74" viewBox="0 0 74.001 74">
  <defs>
    <clipPath id="clip-path">
      <path id="path3309" d="M0-682.665H74v74H0Z" transform="translate(0 682.665)" fill="#ff494f"/>
    </clipPath>
  </defs>
  <g id="g3303" transform="translate(0 682.664)">
    <g id="g3305" transform="translate(0 -682.665)">
      <g id="g3307" clip-path="url(#clip-path)">
        <g id="g3313" transform="translate(50.659 44.967)">
          <path id="path3315" d="M-51.868,13a1.084,1.084,0,0,1-1.035-.763,1.084,1.084,0,0,1,.714-1.357A30.228,30.228,0,0,0-40.8,4.761l-7.354-13.15a1.084,1.084,0,0,1,.417-1.475,1.084,1.084,0,0,1,1.475.417l7.758,13.872a1.084,1.084,0,0,1-.135,1.249c-.164.184-4.107,4.546-12.9,7.277A1.084,1.084,0,0,1-51.868,13Z" transform="translate(52.952 10.002)" fill="#ff494f"/>
        </g>
        <g id="g3317" transform="translate(45.844 28.032)">
          <path id="path3319" d="M-1.921,4.676a1.084,1.084,0,0,1-.947-.555l-7-12.509a1.084,1.084,0,0,1,.417-1.475,1.084,1.084,0,0,1,1.475.417l7,12.509a1.084,1.084,0,0,1-.417,1.475A1.079,1.079,0,0,1-1.921,4.676Z" transform="translate(10.002 10.002)" fill="#ff494f"/>
        </g>
        <g id="g3321" transform="translate(8.76 44.967)">
          <path id="path3323" d="M-68.066,13a1.083,1.083,0,0,1-.322-.049c-8.8-2.732-12.739-7.093-12.9-7.277a1.084,1.084,0,0,1-.135-1.249l7.758-13.872a1.084,1.084,0,0,1,1.475-.417,1.084,1.084,0,0,1,.417,1.475L-79.13,4.761A30.228,30.228,0,0,0-67.745,10.88a1.084,1.084,0,0,1,.714,1.357A1.085,1.085,0,0,1-68.066,13Z" transform="translate(81.564 10.002)" fill="#ff494f"/>
        </g>
        <g id="g3325" transform="translate(18.993 28.032)">
          <path id="path3327" d="M-73.452,4.676a1.079,1.079,0,0,1-.528-.138A1.084,1.084,0,0,1-74.4,3.062l7-12.509a1.084,1.084,0,0,1,1.475-.417,1.084,1.084,0,0,1,.417,1.475l-7,12.509A1.084,1.084,0,0,1-73.452,4.676Z" transform="translate(74.535 10.002)" fill="#ff494f"/>
        </g>
        <g id="g3329" transform="translate(25.438 18.534)">
          <path id="path3331" d="M-8.368-4.175A1.084,1.084,0,0,1-9.439-5.1l-.55-3.658a1.084,1.084,0,0,1,.911-1.233,1.084,1.084,0,0,1,1.233.911l.55,3.658a1.084,1.084,0,0,1-.911,1.233A1.093,1.093,0,0,1-8.368-4.175Z" transform="translate(10.001 10.001)" fill="#ff494f"/>
        </g>
        <g id="g3333" transform="translate(23.506 5.694)">
          <path id="path3335" d="M-192.65-143.531a1.092,1.092,0,0,1-.163-.012,1.084,1.084,0,0,1-.911-1.233l2.27-15.091c-1.872.318-5.2,1.23-6.514,3.778-2.155,4.167-3.619,7.238-3.634,7.268a1.084,1.084,0,0,1-.979.618,1.084,1.084,0,0,1-.979-.618c-.015-.031-1.479-3.1-3.634-7.268-1.324-2.56-4.645-3.467-6.514-3.781l.963,6.4a1.084,1.084,0,0,1-.911,1.233,1.084,1.084,0,0,1-1.233-.911l-1.175-7.808a1.084,1.084,0,0,1,.266-.887,1.084,1.084,0,0,1,.854-.358c.294.013,7.225.374,9.675,5.111,1.112,2.15,2.042,4.012,2.687,5.321.645-1.309,1.575-3.171,2.687-5.321,2.45-4.737,9.381-5.1,9.675-5.111a1.084,1.084,0,0,1,.854.358,1.084,1.084,0,0,1,.266.887l-2.482,16.5A1.084,1.084,0,0,1-192.65-143.531Z" transform="translate(216.074 162.197)" fill="#ff494f"/>
        </g>
        <path id="path3337" d="M240.827-477.939h19.856a1.084,1.084,0,0,1,.766.318,1.084,1.084,0,0,1,.318.767v5.84a1.084,1.084,0,0,1-1.084,1.084H240.827a1.084,1.084,0,0,1-1.084-1.084v-5.84A1.084,1.084,0,0,1,240.827-477.939Zm18.772,2.168H241.911v3.672H259.6Z" transform="translate(-213.755 500.131)" fill="#ff494f"/>
        <g id="g3339" transform="translate(20.205 28.032)">
          <path id="path3341" d="M-95.041,35.966A50.081,50.081,0,0,1-111.1,33.5a1.084,1.084,0,0,1-.7-1.306l11.039-41.4a1.084,1.084,0,0,1,1.327-.768,1.084,1.084,0,0,1,.768,1.327l-10.774,40.4a48.632,48.632,0,0,0,14.4,2.035,48.63,48.63,0,0,0,14.4-2.035l-10.774-40.4a1.084,1.084,0,0,1,.768-1.327,1.084,1.084,0,0,1,1.327.768l11.039,41.4a1.084,1.084,0,0,1-.7,1.306A50.079,50.079,0,0,1-95.041,35.966Z" transform="translate(111.836 10.002)" fill="#ff494f"/>
        </g>
        <g id="g3343" transform="translate(35.916 28.032)">
          <path id="path3345" d="M-8.916-3.452A1.084,1.084,0,0,1-10-4.536v-4.38A1.084,1.084,0,0,1-8.916-10,1.084,1.084,0,0,1-7.832-8.916v4.38A1.084,1.084,0,0,1-8.916-3.452Z" transform="translate(10 10)" fill="#ff494f"/>
        </g>
        <g id="g3347" transform="translate(39.274 19.272)">
          <path id="path3349" d="M-19.695-4.914a1.081,1.081,0,0,1-.4-.078A1.084,1.084,0,0,1-20.7-6.4l1.168-2.92a1.084,1.084,0,0,1,1.409-.6,1.084,1.084,0,0,1,.6,1.409L-18.688-5.6A1.084,1.084,0,0,1-19.695-4.914Z" transform="translate(20.779 10.003)" fill="#ff494f"/>
        </g>
        <g id="g3351" transform="translate(31.39 19.272)">
          <path id="path3353" d="M-7.75-4.914A1.084,1.084,0,0,1-8.757-5.6l-1.168-2.92a1.084,1.084,0,0,1,.6-1.409,1.084,1.084,0,0,1,1.409.6L-6.744-6.4a1.084,1.084,0,0,1-.6,1.409A1.081,1.081,0,0,1-7.75-4.914Z" transform="translate(10.003 10.003)" fill="#ff494f"/>
        </g>
        <g id="g3355" transform="translate(23.506 0)">
          <path id="path3357" d="M-8.916-54.666A1.084,1.084,0,0,1-10-55.75v-5.694a1.084,1.084,0,0,1,1.084-1.084,1.084,1.084,0,0,1,1.084,1.084v5.694A1.084,1.084,0,0,1-8.916-54.666Z" transform="translate(10 62.528)" fill="#ff494f"/>
        </g>
        <g id="g3359" transform="translate(48.327 0)">
          <path id="path3361" d="M-8.916-54.666A1.084,1.084,0,0,1-10-55.75v-5.694a1.084,1.084,0,0,1,1.084-1.084,1.084,1.084,0,0,1,1.084,1.084v5.694A1.084,1.084,0,0,1-8.916-54.666Z" transform="translate(10 62.528)" fill="#ff494f"/>
        </g>
      </g>
    </g>
  </g>
</svg>
