<svg xmlns="http://www.w3.org/2000/svg" xmlns:xlink="http://www.w3.org/1999/xlink" width="372.749" height="674.666" viewBox="0 0 372.749 674.666">
  <defs>
    <clipPath id="clip-path">
      <rect id="Rectángulo_402354" data-name="Rectángulo 402354" width="346.956" height="572.967" fill="none"/>
    </clipPath>
    <clipPath id="clip-path-2">
      <rect id="Rectángulo_402353" data-name="Rectángulo 402353" width="346.957" height="572.967" fill="none"/>
    </clipPath>
    <clipPath id="clip-path-3">
      <rect id="Rectángulo_402349" data-name="Rectángulo 402349" width="30.251" height="94.883" fill="none"/>
    </clipPath>
    <clipPath id="clip-path-4">
      <rect id="Rectángulo_402350" data-name="Rectángulo 402350" width="11.733" height="11.85" fill="none"/>
    </clipPath>
    <clipPath id="clip-path-5">
      <rect id="Rectángulo_402351" data-name="Rectángulo 402351" width="4.161" height="6.012" fill="none"/>
    </clipPath>
    <clipPath id="clip-path-6">
      <rect id="Rectángulo_402352" data-name="Rectángulo 402352" width="8.197" height="35.126" fill="none"/>
    </clipPath>
  </defs>
  <g id="Grupo_1102345" data-name="Grupo 1102345" transform="translate(-1125.051 -16701)">
    <path id="Rectángulo_402355" data-name="Rectángulo 402355" d="M100,0H272.749a100,100,0,0,1,100,100V350.691a5,5,0,0,1-5,5H5a5,5,0,0,1-5-5V100A100,100,0,0,1,100,0Z" transform="translate(1125.051 16997.303)" fill="#ffedee"/>
    <g id="Grupo_1102344" data-name="Grupo 1102344" transform="translate(1137.686 16701)">
      <g id="Grupo_1102343" data-name="Grupo 1102343" clip-path="url(#clip-path)">
        <g id="Grupo_1102342" data-name="Grupo 1102342">
          <g id="Grupo_1102341" data-name="Grupo 1102341" clip-path="url(#clip-path-2)">
            <path id="Trazado_892656" data-name="Trazado 892656" d="M754.5,1433.836s25.789,7.436,47.34,6.172c0,0,36.721-9.61,67.716-27.833l1.66,2.885,1.617,2.142,1.53.656,1.486-.087,3.541-3.19,2.229-.131,2.186-.874,2.1-2.36-.131-2.229-2.316-1.355a19.11,19.11,0,0,1,3.628-1.7l4.459-.261,1.355-2.316-.044-.743-.044-.743-1.573-1.4s-13.025-5.947-21.333,4.98c0,0-34.665,6.507-66.271,14.326,0,0-21.243-6.211-40.126-10.324Z" transform="translate(-646.651 -1198.895)" fill="#febca5"/>
            <path id="Trazado_892657" data-name="Trazado 892657" d="M276.948,2673.528c.059-.179.118-.358.176-.539-.058.181-.117.36-.176.539" transform="translate(-237.361 -2290.908)" fill="#d3d7c7"/>
            <path id="Trazado_892658" data-name="Trazado 892658" d="M268.771,2696.684c.064-.165.128-.327.191-.494-.063.167-.127.33-.191.494" transform="translate(-230.352 -2310.792)" fill="#d3d7c7"/>
            <path id="Trazado_892659" data-name="Trazado 892659" d="M271.563,2689.187c.062-.169.124-.337.186-.509-.062.172-.124.34-.186.509" transform="translate(-232.745 -2304.354)" fill="#d3d7c7"/>
            <path id="Trazado_892660" data-name="Trazado 892660" d="M274.285,2681.461c.06-.175.122-.349.182-.527-.06.178-.122.352-.182.527" transform="translate(-235.078 -2297.717)" fill="#d3d7c7"/>
            <path id="Trazado_892661" data-name="Trazado 892661" d="M1054.212,2709.712a.595.595,0,1,1-.595-.595.595.595,0,0,1,.595.595" transform="translate(-902.502 -2321.871)" fill="#fff"/>
            <path id="Trazado_892662" data-name="Trazado 892662" d="M746.9,2705.443a1.307,1.307,0,1,1-1.307-1.306,1.307,1.307,0,0,1,1.307,1.306" transform="translate(-637.897 -2317.603)" fill="#fff"/>
            <path id="Trazado_892663" data-name="Trazado 892663" d="M1814.061,2714.251a.973.973,0,1,1-.973-.973.973.973,0,0,1,.973.973" transform="translate(-1553.089 -2325.438)" fill="#fff"/>
            <path id="Trazado_892664" data-name="Trazado 892664" d="M296.126,2602.313c.047-.208.094-.419.14-.629-.047.21-.093.421-.14.629" transform="translate(-253.797 -2229.795)" fill="#d3d7c7"/>
            <path id="Trazado_892665" data-name="Trazado 892665" d="M291.658,2621.339c.05-.2.1-.408.149-.612-.049.2-.1.41-.149.612" transform="translate(-249.968 -2246.116)" fill="#d3d7c7"/>
            <path id="Trazado_892666" data-name="Trazado 892666" d="M289.344,2630.546c.052-.2.1-.4.154-.606-.051.2-.1.406-.154.606" transform="translate(-247.985 -2254.012)" fill="#d3d7c7"/>
            <path id="Trazado_892667" data-name="Trazado 892667" d="M286.981,2639.562q.08-.3.158-.593-.079.3-.158.593" transform="translate(-245.96 -2261.75)" fill="#d3d7c7"/>
            <path id="Trazado_892668" data-name="Trazado 892668" d="M279.55,2665.362c.057-.183.115-.365.171-.55-.056.185-.114.367-.171.55" transform="translate(-239.591 -2283.899)" fill="#d3d7c7"/>
            <path id="Trazado_892669" data-name="Trazado 892669" d="M284.564,2648.379c.054-.192.108-.384.162-.578-.053.194-.108.386-.162.578" transform="translate(-243.888 -2269.321)" fill="#d3d7c7"/>
            <path id="Trazado_892670" data-name="Trazado 892670" d="M282.084,2656.973c.056-.188.112-.376.167-.566-.055.19-.111.378-.167.566" transform="translate(-241.763 -2276.696)" fill="#d3d7c7"/>
            <path id="Trazado_892671" data-name="Trazado 892671" d="M293.917,2611.92c.049-.205.1-.413.144-.62-.048.208-.1.415-.144.62" transform="translate(-251.904 -2238.037)" fill="#d3d7c7"/>
            <path id="Trazado_892672" data-name="Trazado 892672" d="M2021.27,2664.623a1.317,1.317,0,1,1-1.317-1.317,1.316,1.316,0,0,1,1.317,1.317" transform="translate(-1730.089 -2282.609)" fill="#fff"/>
            <path id="Trazado_892673" data-name="Trazado 892673" d="M1219.929,0a7.05,7.05,0,0,1-.994,1.883l1.119.313a4.6,4.6,0,0,1-.125-2.2" transform="translate(-1044.699)" fill="#0e6b58"/>
            <path id="Trazado_892674" data-name="Trazado 892674" d="M459.507,642.3c-2.171-3.541,4.323-5.854,9.492-4.189-8.015-2.837-8.618-13.752-4.466-14.3a4.038,4.038,0,0,1,2.759,1.042,32.354,32.354,0,0,1,12.117,17.7c.8,3.137-1.76,3.2-5.213,3.528a26.273,26.273,0,0,1-11.58-1.671,5.831,5.831,0,0,1-3.109-2.113" transform="translate(-393.455 -534.627)" fill="#cc3a3f"/>
            <path id="Trazado_892675" data-name="Trazado 892675" d="M1062.015,428.991c-2.171-3.541,4.323-5.854,9.492-4.189-8.015-2.837-8.618-13.752-4.466-14.3a4.037,4.037,0,0,1,2.759,1.042,32.355,32.355,0,0,1,12.118,17.7c.8,3.137-1.76,3.2-5.214,3.528a26.272,26.272,0,0,1-11.58-1.671,5.829,5.829,0,0,1-3.109-2.113" transform="translate(-909.84 -351.81)" fill="#cc3a3f"/>
            <path id="Trazado_892676" data-name="Trazado 892676" d="M2022.11,1024.47c5.354,3.06-1.447,10.708-9.365,12.231,14.886-2.426,24.087,17.631,11.688,16.038a48.039,48.039,0,0,1-28.414-14.39c-3.279-3.514.007-5.42,4.268-8.316a39.009,39.009,0,0,1,16.268-6.094c1.882-.276,3.912-.41,5.556.53" transform="translate(-1709.562 -877.402)" fill="#ffe260"/>
            <path id="Trazado_892677" data-name="Trazado 892677" d="M2121.19,1590.627a11.827,11.827,0,0,1-.3,6.743c3.637-9.484,18.428-8.037,13.3-1.362a32.357,32.357,0,0,1-18.009,11.653c-3.157.716-3.151-1.843-3.392-5.3a26.279,26.279,0,0,1,1.971-11.532c2.007-4.991,5.467-4.073,6.436-.2" transform="translate(-1810.732 -1360.491)" fill="#448075"/>
            <path id="Trazado_892678" data-name="Trazado 892678" d="M1322.391,484.97H1345s-3.38,17.434,15.438,22.373c8.307,2.18,13.579,10.654,12.257,19.392a86.786,86.786,0,0,1-14.819,36.311H1308.26s-10.989-16.417-14.13-35.893a17.34,17.34,0,0,1,11.635-19.345c8.539-2.7,18.253-8.851,16.626-22.837" transform="translate(-1108.95 -415.648)" fill="#124142"/>
            <path id="Trazado_892679" data-name="Trazado 892679" d="M1527.74,292.334c0,8.767-8.479,15.874-8.479,15.874s-8.479-7.107-8.479-15.874,3.8-15.874,8.479-15.874,8.479,7.107,8.479,15.874" transform="translate(-1294.828 -236.942)" fill="#124142"/>
            <path id="Trazado_892680" data-name="Trazado 892680" d="M1360.026,3701.94s-21.9-1.932-25.762,9.661a61.755,61.755,0,0,0-3.864,18.033s-5.6.509-4.58,2.432a1.59,1.59,0,0,0,1.423.789h5.733s2.576-15.457,8.373-19.321c0,0,3.864-5.152,18.677-3.864Z" transform="translate(-1136.199 -3172.675)" fill="#124142"/>
            <path id="Trazado_892681" data-name="Trazado 892681" d="M1615.427,3701.938s21.9-1.932,25.762,9.661a61.761,61.761,0,0,1,3.864,18.034s5.6.509,4.58,2.431a1.592,1.592,0,0,1-1.423.789h-5.733s-2.576-15.457-8.373-19.322c0,0-3.864-5.152-18.677-3.864Z" transform="translate(-1384.515 -3172.674)" fill="#124142"/>
            <rect id="Rectángulo_402348" data-name="Rectángulo 402348" width="7.729" height="87.913" transform="translate(223.827 449.402)" fill="#124142"/>
            <path id="Trazado_892682" data-name="Trazado 892682" d="M1558.47,3693.334a6.441,6.441,0,1,1-6.441-6.44,6.441,6.441,0,0,1,6.441,6.44" transform="translate(-1324.66 -3159.883)" fill="#106864"/>
            <path id="Trazado_892683" data-name="Trazado 892683" d="M1296.39,773.423s30.341-4.185,39.234,17.263c0,0,7.062-21.186,39.5-17.524,0,0,0,39.234-7.324,53.881,0,0-31.387,12.032-64.343,0,0,0-7.324-30.341-7.062-53.619" transform="translate(-1111.076 -662.28)" fill="#ff494f"/>
            <path id="Trazado_892684" data-name="Trazado 892684" d="M1341.219,1150.826s-1.046,5.754,0,9.939c0,0,27.987,9.155,65.128.261,0,0,1.046-5.754,0-9.939,0,0-32.433,11.509-65.128-.262" transform="translate(-1149.105 -986.325)" fill="#cc3a3f"/>
            <path id="Trazado_892685" data-name="Trazado 892685" d="M990.73,1462.563c-.136.052-.267.1-.4.146-5.639,1.951-13.674.392-16.274-.2,0,0-.005,0-.01,0-.534-.126-.837-.2-.837-.2v47.081a25.229,25.229,0,0,0-8.72.1,36.119,36.119,0,0,0-22.458,13.439c-20.5,26.14-49.382,25.7-49.382,25.7v-6.8c-17.263-4.708-39.757-1.046-39.757-1.046l-.047.094a10.778,10.778,0,0,1-9.217,5.833c-22.285.78-49.325-25.805-49.325-25.805-3.662-4.708-26.156-6.8-26.156-6.8l.523-48.127c-8.893,3.662-17.525-.261-17.525-.261,4.185-23.017,19.879-57.543,19.879-57.543-8.893,1.046-13.078-4.185-13.078-4.185,29.294-85.791,77.421-185.183,77.421-185.183,37.4,9.678,66.174-.262,66.174-.262,32.956,56.5,83.175,188.322,83.175,188.322-5.231,2.092-12.816.785-12.816.785,13.172,22.578,17.137,41.1,18.33,49.712a51.547,51.547,0,0,1,.5,5.216" transform="translate(-643.773 -1044.351)" fill="#ff494f"/>
            <path id="Trazado_892686" data-name="Trazado 892686" d="M1218.905,1235.538q-4.13,11.84-8.089,23.737-4.022,11.874-7.865,23.8l-1.9,5.971-1.838,5.989c-.639,1.988-1.231,3.99-1.854,5.981l-1.9,5.964c-2.576,7.943-5.147,15.872-7.5,23.9l-.2-.043q.243-1.551.52-3.1c.188-1.031.346-2.071.561-3.1.444-2.047.886-4.1,1.367-6.138.5-2.035,1.036-4.059,1.556-6.089.541-2.024,1.133-4.031,1.7-6.048,2.319-8.048,5.148-15.93,7.908-23.826s5.585-15.769,8.465-23.62q4.37-11.759,8.88-23.462Z" transform="translate(-1017.976 -1058.866)" fill="#e73f4a"/>
            <path id="Trazado_892687" data-name="Trazado 892687" d="M1359.428,1243.754q-2.245,15.5-4.382,31.017-2.193,15.507-4.3,31.025c-.688,5.174-1.378,10.349-2.024,15.528-.688,5.174-1.364,10.349-2.143,15.509l-1.162,7.742-1.2,7.737c-.812,5.157-1.648,10.312-2.56,15.46l-.208-.024c.157-2.61.387-5.213.578-7.82.215-2.6.471-5.2.73-7.8.5-5.2,1.127-10.387,1.75-15.573,1.254-10.372,3-20.674,4.583-31q2.407-15.48,4.921-30.941,2.561-15.454,5.21-30.893Z" transform="translate(-1149.701 -1065.942)" fill="#e73f4a"/>
            <path id="Trazado_892688" data-name="Trazado 892688" d="M1548.94,1249.346q-.479,17.823-.815,35.648-.4,17.823-.652,35.647c-.167,11.883-.13,23.766-.373,35.642-.136,5.939-.207,11.876-.361,17.816l-.281,17.825-.209.008c-.239-2.965-.424-5.935-.612-8.906l-.357-8.918c-.1-2.973-.135-5.947-.2-8.921-.049-2.974-.045-5.947-.071-8.921-.031-11.894.4-23.781.792-35.663s.8-23.764,1.28-35.642q.766-17.816,1.652-35.624Z" transform="translate(-1324.16 -1070.756)" fill="#e73f4a"/>
            <path id="Trazado_892689" data-name="Trazado 892689" d="M1678.25,1243.691c1.924,9.057,3.658,18.152,5.31,27.263q2.415,13.677,4.534,27.408c.367,2.286.708,4.577,1.05,6.867l1.035,6.87.937,6.884c.307,2.3.542,4.6.8,6.9.985,9.211,1.711,18.452,2.045,27.717l-.208.02c-.39-2.287-.707-4.58-1.062-6.868l-.974-6.873-1.878-13.747c-1.237-9.164-2.19-18.364-3.4-27.534q-1.786-13.758-3.909-27.473c-1.375-9.149-2.834-18.288-4.483-27.392Z" transform="translate(-1438.182 -1065.916)" fill="#e73f4a"/>
            <path id="Trazado_892690" data-name="Trazado 892690" d="M1748.031,1232.344c2.156,5.109,4.158,10.278,6.133,15.461q2.9,7.794,5.6,15.67c1.78,5.254,3.629,10.5,4.992,15.888l.974,4.052c.315,1.353.595,2.716.86,4.08.565,2.72.974,5.479,1.311,8.24l-.2.045c-1.772-5.279-3.339-10.57-4.956-15.856-.394-1.324-.805-2.643-1.183-3.971l-1.124-3.989c-.369-1.332-.722-2.669-1.1-4l-1.161-3.983q-2.385-7.947-4.989-15.833c-1.706-5.267-3.5-10.508-5.34-15.731Z" transform="translate(-1497.998 -1056.191)" fill="#e73f4a"/>
            <path id="Trazado_892691" data-name="Trazado 892691" d="M1362.062,980.652a23.019,23.019,0,0,1-6.678,4.812,28.411,28.411,0,0,1-7.885,2.577l-.511.1-.518.056-1.035.112-1.035.111c-.345.037-.693.026-1.039.033l-2.079.017c-.691-.043-1.38-.113-2.068-.177l-1.031-.1c-.343-.038-.681-.118-1.02-.181l-2.027-.4a7.392,7.392,0,0,1-1-.263l-.986-.306q-.983-.308-1.954-.638,1.018.169,2.023.356l1,.191a7.184,7.184,0,0,0,1.007.154l2.022.228c.337.031.67.093,1.008.109l1.014.034,2.022.074,2.019-.09c.336-.023.674-.008,1.007-.051l1-.121,1-.12.5-.06.494-.1,1.979-.383,1.945-.531a35.08,35.08,0,0,0,3.8-1.37,31.535,31.535,0,0,0,7.02-4.074" transform="translate(-1140.914 -840.476)" fill="#e73f4a"/>
            <path id="Trazado_892692" data-name="Trazado 892692" d="M1602.228,980.681a31.531,31.531,0,0,0,7.02,4.074,35.073,35.073,0,0,0,3.8,1.37l1.945.531,1.979.383.494.1.5.06,1,.12,1,.121c.334.042.672.027,1.007.051l2.019.09,2.022-.074,1.014-.034c.338-.016.671-.079,1.008-.109l2.022-.228a7.212,7.212,0,0,0,1.008-.154l1-.191q1-.188,2.022-.356-.97.328-1.954.638l-.985.306a7.426,7.426,0,0,1-1,.263l-2.028.4c-.339.063-.677.143-1.02.181l-1.031.1c-.688.064-1.378.134-2.069.176l-2.079-.017c-.346-.008-.694,0-1.039-.033l-1.035-.112-1.035-.112-.518-.056-.511-.1a28.416,28.416,0,0,1-7.884-2.577,23.02,23.02,0,0,1-6.678-4.812" transform="translate(-1373.203 -840.501)" fill="#e73f4a"/>
            <path id="Trazado_892693" data-name="Trazado 892693" d="M1294.9,776.082s24.806-6.448,39.453,16.569c0,0,12.444-24.862,39.179-17.4l.055-4.57s-31.387-3.662-39.234,18.309c0,0-5.754-20.925-39.757-17.263Z" transform="translate(-1109.549 -660.321)" fill="#cc3a3f"/>
            <path id="Trazado_892694" data-name="Trazado 892694" d="M1452.07,2895.751l6.013-.731s-7.582-53.673-.259-95.522c0,0-12.031,45.511-5.754,96.254" transform="translate(-1242.954 -2399.333)" fill="#e73f4a"/>
            <path id="Trazado_892695" data-name="Trazado 892695" d="M1662.666,2802.7l-6.7-1.4s4.082-68.173-6.38-111.591c0,0,15.693,41.849,13.078,112.993" transform="translate(-1413.793 -2305.238)" fill="#e73f4a"/>
            <path id="Trazado_892696" data-name="Trazado 892696" d="M752.712,2623.077s31.91,1.569,53.881-44.988c0,0-6.8,31.91-37.664,52.835a21.876,21.876,0,0,1-17.786,0,45.022,45.022,0,0,1,1.569-7.847" transform="translate(-643.773 -2209.573)" fill="#e73f4a"/>
            <path id="Trazado_892697" data-name="Trazado 892697" d="M800.288,2316.7s26.679-.523,47.08-27.725c0,0-7.324,23.017-35.572,36.618,0,0-6.277,2.093-13.078-4.185Z" transform="translate(-684.549 -1961.787)" fill="#e73f4a"/>
            <path id="Trazado_892698" data-name="Trazado 892698" d="M2105.24,2296.315s-24.586-1.569-43.941-32.956c0,0,8.37,26.679,33.479,39.757a37.575,37.575,0,0,0,13.078-.523Z" transform="translate(-1766.653 -1939.831)" fill="#e73f4a"/>
            <path id="Trazado_892699" data-name="Trazado 892699" d="M2170.068,2725.018c-.136.053-.267.1-.4.146a23.731,23.731,0,0,1-16.274-.2s-.006,0-.011,0c-.706-.272-1.1-.466-1.1-.466-15.171-9.416-25.11-32.957-25.11-32.957,19.062,27.166,39,28.28,42.394,28.264a51.583,51.583,0,0,1,.5,5.215" transform="translate(-1823.111 -2306.805)" fill="#e73f4a"/>
            <path id="Trazado_892700" data-name="Trazado 892700" d="M24.135,3796.249a14.843,14.843,0,0,0-2.967-4.729s-2.02-7.177,3.664-22.185l-5.162-4.973a6.045,6.045,0,0,0-6.8-.983,2.552,2.552,0,0,0-.848.584,38.081,38.081,0,0,0-3.188,4.016A144.43,144.43,0,0,0,0,3783.014l1.077.662,5.86-9.25c2-3.153,2.352,2.059,1.057,5.909s-1.9,8.41,5.166,12.608c8.269,4.856,11.967,6.433,10.976,3.307" transform="translate(0 -3224.897)" fill="#263239"/>
            <path id="Trazado_892701" data-name="Trazado 892701" d="M103.441,3757.6s-2.358,7-4.3,15.121a32.514,32.514,0,0,0-1.18,12.557s-5.9-2.07-6.161-6.937,3.573-18.761-2.2-21.162a14.456,14.456,0,0,1,3.082-1.585c1.631-.738,10.759,2.007,10.759,2.007" transform="translate(-76.792 -3218.651)" fill="#febca5"/>
            <path id="Trazado_892702" data-name="Trazado 892702" d="M741.773,3822.51a15.173,15.173,0,0,0-4.934-2.7s-5.32-5.292-7.8-21.123l-6.969-1.858a6.022,6.022,0,0,0-6.418,2.409,2.513,2.513,0,0,0-.451.917,37.481,37.481,0,0,0-.792,5.039,142.576,142.576,0,0,0-.261,17.371l1.268.06.529-10.892c.18-3.711,3.074.667,3.851,4.649s2.511,8.253,10.758,8.52c9.624.262,13.632-.139,11.218-2.391" transform="translate(-611.939 -3253.949)" fill="#263239"/>
            <path id="Trazado_892703" data-name="Trazado 892703" d="M737.591,3771.255s1.413,7.246,3.741,15.265a32.748,32.748,0,0,0,5.194,11.526s-6.174,1.03-8.815-3.093-6.181-18.091-12.409-17.411a14.145,14.145,0,0,1,1.9-2.865c1.057-1.428,10.385-3.422,10.385-3.422" transform="translate(-621.626 -3232.186)" fill="#febca5"/>
            <path id="Trazado_892704" data-name="Trazado 892704" d="M654.572,2000.759s17.987,44.095,3.709,114.57c-.376,41.033-14.928,141.411-14.928,141.411-4.844,1.356-20.174.424-25.1-.587,0,0-.427-79.8,3.011-146.651-10.423-68.606-9.712-104.92-9.712-104.92Z" transform="translate(-524.123 -1714.767)" fill="#ffe260"/>
            <path id="Trazado_892705" data-name="Trazado 892705" d="M182.662,2000.291s-17.471,90.2-29.316,128.918c-12.448,40.656-59.119,125.636-60.516,128.355-5.676-1.233-17.587-6.116-21.062-9.165,0,0,27.38-82.962,43.441-127.228,3.643-22.693,6.138-35.973,5.495-59.991-1.192-44.524,19.774-63.677,19.774-63.677Z" transform="translate(-61.509 -1711.977)" fill="#ffe260"/>
            <g id="Grupo_1102331" data-name="Grupo 1102331" transform="translate(95.969 324.578)" opacity="0.2" style="isolation: isolate">
              <g id="Grupo_1102330" data-name="Grupo 1102330">
                <g id="Grupo_1102329" data-name="Grupo 1102329" clip-path="url(#clip-path-3)">
                  <path id="Trazado_892706" data-name="Trazado 892706" d="M686.714,2282.681l14.922-11.976-12.546,18.507-17.706,76.376.883-20.379Z" transform="translate(-671.384 -2270.704)"/>
                </g>
              </g>
            </g>
            <path id="Trazado_892707" data-name="Trazado 892707" d="M562.067,1446.5s7.544,16.853,2.8,26.776c-9.61,28.793,2.329,30.086-1.358,35.4-5.5,4.334-39.408,10.14-57.2-3.651,2.364-11.712,2.912-31.836-5.757-65.175a13.425,13.425,0,0,1,9.826-16.359,13.83,13.83,0,0,1,1.411-.279c2.131-.3,4.4-.591,6.731-.8a129.669,129.669,0,0,1,20.95-.8c1.419.068.262-.171,4.592.85,0,0,8.665,6.428,11.119,10.3a135.823,135.823,0,0,1,6.885,13.742" transform="translate(-428.633 -1218.322)" fill="#ee4451"/>
            <path id="Trazado_892708" data-name="Trazado 892708" d="M398.363,1054.9c.7-2.249,2.4-3.963,3.751-5.86,2.531-3.565,3.866-7.9,4.877-12.219s1.75-8.731,3.276-12.878,3.949-8.1,7.568-10.42,8.579-2.686,12.039-.08l1.846.316c-3.263,13.68-2.15,28.115-4.4,42.023-.568,3.519-1.44,7.178-3.781,9.767-3.748,4.146-10.115,4.26-15.355,2.606a16.5,16.5,0,0,1-7.672-4.608,9.384,9.384,0,0,1-2.153-8.646" transform="translate(-341.133 -867.029)" fill="#363826"/>
            <path id="Trazado_892709" data-name="Trazado 892709" d="M564.722,980.9c4.2-4.09,8.067-6.51,13.611-7.362,4.864-.747,11.749-.2,16.188,2.2,6.036,3.26,9.689,10.294,11.988,17.3,2.574,7.85-.58,17.481-4.255,24.7-1.522,2.989-2.882,4.215-5.873,3.915l-1.112,1.573c-9.07,2.767-17.315,12.36-34.3-13.657-5.618-8.6-3.305-21.788,3.755-28.668" transform="translate(-478.087 -834.11)" fill="#363826"/>
            <path id="Trazado_892710" data-name="Trazado 892710" d="M631.118,1254.431c-1.423-1.223-.883-3.863-.676-6.432a25.51,25.51,0,0,1,1.337-6.069l-2.806-2.715-14.49-12.1c1.113,8.814,4.194,22.974-2.4,28.374l-3.726.475c2.432,1.641,9.126,9.777,23.6,10.4,7.837.338,6.074-7.583,3.806-10.9-3.57-.769-4.642-1.027-4.642-1.027" transform="translate(-521.397 -1051.707)" fill="#febca5"/>
            <g id="Grupo_1102334" data-name="Grupo 1102334" transform="translate(97.951 185.582)" opacity="0.2">
              <g id="Grupo_1102333" data-name="Grupo 1102333">
                <g id="Grupo_1102332" data-name="Grupo 1102332" clip-path="url(#clip-path-4)">
                  <path id="Trazado_892711" data-name="Trazado 892711" d="M696.431,1310.161c-3.857-.693-9.478-2.938-10.617-7.183a16.519,16.519,0,0,1-.554-4.667l11.725,6.461c-.051,1.681-.929,3-.554,5.389" transform="translate(-685.252 -1298.311)"/>
                </g>
              </g>
            </g>
            <path id="Trazado_892712" data-name="Trazado 892712" d="M605.439,1004.978c2.5,13.363,3.277,19.056,10.994,25.486,11.607,9.672,27.615,4.625,29.187-8.986,1.416-12.251-2.919-32.045-16.877-36.5-13.752-4.387-25.809,6.636-23.3,20" transform="translate(-518.612 -843.346)" fill="#febca5"/>
            <path id="Trazado_892713" data-name="Trazado 892713" d="M747.614,1140.241c.078,1.509.874,2.741,1.778,2.752s1.573-1.2,1.495-2.71-.873-2.74-1.777-2.752-1.573,1.2-1.5,2.71" transform="translate(-640.744 -974.93)" fill="#263239"/>
            <path id="Trazado_892714" data-name="Trazado 892714" d="M725.89,1112.727a.621.621,0,0,0,.492-.142,5.017,5.017,0,0,1,4.558-1.131.62.62,0,0,0,.8-.431.721.721,0,0,0-.481-.846,6.259,6.259,0,0,0-5.779,1.363.671.671,0,0,0-.036.943.712.712,0,0,0,.442.244" transform="translate(-621.6 -951.302)" fill="#263239"/>
            <path id="Trazado_892715" data-name="Trazado 892715" d="M826.672,1099.328a.62.62,0,0,0,.381-.3.653.653,0,0,0-.312-.88,7.18,7.18,0,0,0-6.271-.363.6.6,0,0,0-.241.87.738.738,0,0,0,.94.278,5.74,5.74,0,0,1,4.964.339.733.733,0,0,0,.539.056" transform="translate(-702.902 -940.402)" fill="#263239"/>
            <path id="Trazado_892716" data-name="Trazado 892716" d="M802.525,1139.21a45.864,45.864,0,0,0,5.316,7.779,1.037,1.037,0,0,1-.348,1.634,6.893,6.893,0,0,1-3.661.389Z" transform="translate(-687.811 -976.369)" fill="#d39972"/>
            <path id="Trazado_892717" data-name="Trazado 892717" d="M754.008,1133.78l3.147-.758s-3.784,2.865-3.147.758" transform="translate(-646.167 -971.066)" fill="#263239"/>
            <path id="Trazado_892718" data-name="Trazado 892718" d="M833.38,1132.283c.077,1.536.873,2.79,1.777,2.8s1.573-1.225,1.5-2.76-.873-2.79-1.777-2.8-1.573,1.224-1.5,2.76" transform="translate(-714.25 -968.067)" fill="#263239"/>
            <path id="Trazado_892719" data-name="Trazado 892719" d="M839.6,1125.956l3.147-.758s-2.887,2.377-3.147.758" transform="translate(-719.588 -964.36)" fill="#263239"/>
            <path id="Trazado_892720" data-name="Trazado 892720" d="M595.886,1019.907c-13.769-7.974-16.957-42.279,6.908-45.257s27.278,29.276,27.278,29.276c-9.61-19.352-30.455-19.541-30.455-19.541,5.08,10.247-3.94,17.515-3.94,17.515-3,7.065.207,14.824.209,18.006" transform="translate(-501.545 -835.166)" fill="#363826"/>
            <path id="Trazado_892721" data-name="Trazado 892721" d="M578.308,1159.271a11.079,11.079,0,0,0,7.123,4.495c3.7.568,5.042-5.335,3.474-8.8a7.347,7.347,0,0,0-8.627-3.906c-3.408,1-4.111,5.216-1.97,8.209" transform="translate(-494.601 -986.283)" fill="#febca5"/>
            <g id="Grupo_1102337" data-name="Grupo 1102337" transform="translate(85.676 167.868)" opacity="0.2">
              <g id="Grupo_1102336" data-name="Grupo 1102336">
                <g id="Grupo_1102335" data-name="Grupo 1102335" clip-path="url(#clip-path-5)">
                  <path id="Trazado_892722" data-name="Trazado 892722" d="M603.5,1180.393H603.5a4.963,4.963,0,0,1-3.649-2.233,2.887,2.887,0,0,1-.375-2.248,2.244,2.244,0,0,1,2.724-1.434.036.036,0,1,1-.022.068,2.2,2.2,0,0,0-2.635,1.39,2.781,2.781,0,0,0,.369,2.189,4.9,4.9,0,0,0,3.6,2.2.036.036,0,0,1-.006.071" transform="translate(-599.378 -1174.38)"/>
                </g>
              </g>
            </g>
            <g id="Grupo_1102340" data-name="Grupo 1102340" transform="translate(79.392 146.051)" opacity="0.3">
              <g id="Grupo_1102339" data-name="Grupo 1102339">
                <g id="Grupo_1102338" data-name="Grupo 1102338" clip-path="url(#clip-path-6)">
                  <path id="Trazado_892723" data-name="Trazado 892723" d="M563.523,1021.764a25.873,25.873,0,0,0-5.072,6.553,24.209,24.209,0,0,0-2.781,7.816,20.837,20.837,0,0,0-.03,6.268,22.369,22.369,0,0,0,1.939,6.245,40.234,40.234,0,0,0,4.553,7.262q.366.478.74.949c.043.054.118-.022.076-.076a44.281,44.281,0,0,1-4.871-7.36,23.336,23.336,0,0,1-2.211-6.307,20.945,20.945,0,0,1-.221-5.99,22.943,22.943,0,0,1,2.433-7.872,26.428,26.428,0,0,1,4.809-6.729q.348-.349.711-.683c.051-.047-.025-.122-.076-.076" transform="translate(-555.419 -1021.749)"/>
                </g>
              </g>
            </g>
            <path id="Trazado_892724" data-name="Trazado 892724" d="M761.1,1214.9a30.425,30.425,0,0,0-2.77,3.448c-.236-.108-.481-.212-.713-.332-3.217-1.516-4.208-3.261-4.31-4.744a4.576,4.576,0,0,1,.4-2.115,4.4,4.4,0,0,1,.63-1.054c1.219,1.809,4.1,3.447,5.681,4.258.7.318,1.086.538,1.086.538" transform="translate(-645.627 -1037.126)" fill="#263239"/>
            <path id="Trazado_892725" data-name="Trazado 892725" d="M762.45,1214.228l-.847,1c-3.019-1.431-4.952-2.829-5.464-4.2a4.4,4.4,0,0,1,.63-1.054c1.226,1.825,4.1,3.447,5.68,4.258" transform="translate(-648.056 -1037.015)" fill="#fff"/>
            <path id="Trazado_892726" data-name="Trazado 892726" d="M757.932,1237.227c-3.217-1.516-4.208-3.262-4.31-4.744a11.48,11.48,0,0,1,3.234,2.375,4.225,4.225,0,0,1,1.076,2.369" transform="translate(-645.898 -1056.31)" fill="#e94444"/>
            <path id="Trazado_892727" data-name="Trazado 892727" d="M625.362,1478.458c-4.677,5.7-14.1,8.865-14.1,8.865-13.331,1.3-25.87,10.763-25.87,10.763-47.455,27.092-63.115,23.767-63.115,23.767-18.578-13.914-30.662-25.166-38.468-33.671-1.808-1.967-3.384-3.791-4.757-5.463-5.418-9.108-5.232-16.493-3.285-21.939l8.064-10.89.007-.008c21.209,25.593,43.549,51.65,43.549,51.65,30.376-2.982,60.621-14.926,60.621-14.926,6.331-19.319,7.513-14.944,7.513-14.944a39.361,39.361,0,0,1-.384,11.252c4.963-2.729,13.918-2.859,13.918-2.859,6.812.831,16.3-1.6,16.3-1.6" transform="translate(-406.695 -1242.634)" fill="#febca5"/>
            <path id="Trazado_892728" data-name="Trazado 892728" d="M483.813,1488.183c-.353.341-.559.51-.559.51a50.809,50.809,0,0,1-4.2-5.973c-5.418-9.108-5.232-16.493-3.285-21.939a24.133,24.133,0,0,1,8.064-10.89l.007-.008c15.234,21.746,2.846,35.559-.028,38.3" transform="translate(-406.695 -1242.634)" fill="#febca5"/>
          </g>
        </g>
      </g>
    </g>
    <g id="Grupo_1102346" data-name="Grupo 1102346" transform="translate(1341.76 17375.666) rotate(-90)">
      <path id="Trazado_889220" data-name="Trazado 889220" d="M5.619,2.81A2.81,2.81,0,1,1,2.81,0a2.811,2.811,0,0,1,2.81,2.81" fill="#bdadea"/>
      <path id="Trazado_889221" data-name="Trazado 889221" d="M5.619,2.81A2.81,2.81,0,1,1,2.81,0a2.811,2.811,0,0,1,2.81,2.81" transform="translate(21.815)" fill="#bdadea"/>
      <path id="Trazado_889222" data-name="Trazado 889222" d="M5.619,2.81A2.81,2.81,0,1,1,2.81,0a2.811,2.811,0,0,1,2.81,2.81" transform="translate(43.626)" fill="#bdadea"/>
      <path id="Trazado_889223" data-name="Trazado 889223" d="M5.619,2.81A2.81,2.81,0,1,1,2.81,0a2.811,2.811,0,0,1,2.81,2.81" transform="translate(65.441)" fill="#bdadea"/>
      <path id="Trazado_889224" data-name="Trazado 889224" d="M5.619,2.81A2.81,2.81,0,1,1,2.81,0a2.811,2.811,0,0,1,2.81,2.81" transform="translate(87.256)" fill="#bdadea"/>
      <path id="Trazado_889225" data-name="Trazado 889225" d="M5.619,2.81A2.81,2.81,0,1,1,2.81,0a2.811,2.811,0,0,1,2.81,2.81" transform="translate(0 22.31)" fill="#bdadea"/>
      <path id="Trazado_889226" data-name="Trazado 889226" d="M5.619,2.81A2.81,2.81,0,1,1,2.81,0a2.811,2.811,0,0,1,2.81,2.81" transform="translate(21.815 22.31)" fill="#bdadea"/>
      <path id="Trazado_889227" data-name="Trazado 889227" d="M5.619,2.81A2.81,2.81,0,1,1,2.81,0a2.811,2.811,0,0,1,2.81,2.81" transform="translate(43.626 22.31)" fill="#bdadea"/>
      <path id="Trazado_889228" data-name="Trazado 889228" d="M5.619,2.81A2.81,2.81,0,1,1,2.81,0a2.811,2.811,0,0,1,2.81,2.81" transform="translate(65.441 22.31)" fill="#bdadea"/>
      <path id="Trazado_889229" data-name="Trazado 889229" d="M5.619,2.81A2.81,2.81,0,1,1,2.81,0a2.811,2.811,0,0,1,2.81,2.81" transform="translate(87.256 22.31)" fill="#bdadea"/>
      <path id="Trazado_889230" data-name="Trazado 889230" d="M5.619,2.81A2.81,2.81,0,1,1,2.81,0a2.814,2.814,0,0,1,2.81,2.81" transform="translate(0 44.616)" fill="#bdadea"/>
      <path id="Trazado_889231" data-name="Trazado 889231" d="M5.619,2.81A2.81,2.81,0,1,1,2.81,0a2.814,2.814,0,0,1,2.81,2.81" transform="translate(21.815 44.616)" fill="#bdadea"/>
      <path id="Trazado_889232" data-name="Trazado 889232" d="M5.619,2.81A2.81,2.81,0,1,1,2.81,0a2.814,2.814,0,0,1,2.81,2.81" transform="translate(43.626 44.616)" fill="#bdadea"/>
      <path id="Trazado_889233" data-name="Trazado 889233" d="M5.619,2.81A2.81,2.81,0,1,1,2.81,0a2.814,2.814,0,0,1,2.81,2.81" transform="translate(65.441 44.616)" fill="#bdadea"/>
      <path id="Trazado_889234" data-name="Trazado 889234" d="M5.619,2.81A2.81,2.81,0,1,1,2.81,0a2.814,2.814,0,0,1,2.81,2.81" transform="translate(87.256 44.616)" fill="#bdadea"/>
      <path id="Trazado_889235" data-name="Trazado 889235" d="M5.619,2.81A2.81,2.81,0,1,1,2.81,0a2.811,2.811,0,0,1,2.81,2.81" transform="translate(0 66.926)" fill="#bdadea"/>
      <path id="Trazado_889236" data-name="Trazado 889236" d="M5.619,2.81A2.81,2.81,0,1,1,2.81,0a2.811,2.811,0,0,1,2.81,2.81" transform="translate(21.815 66.926)" fill="#bdadea"/>
      <path id="Trazado_889237" data-name="Trazado 889237" d="M5.619,2.81A2.81,2.81,0,1,1,2.81,0a2.811,2.811,0,0,1,2.81,2.81" transform="translate(43.626 66.926)" fill="#bdadea"/>
      <path id="Trazado_889238" data-name="Trazado 889238" d="M5.619,2.81A2.81,2.81,0,1,1,2.81,0a2.811,2.811,0,0,1,2.81,2.81" transform="translate(65.441 66.926)" fill="#bdadea"/>
      <path id="Trazado_889239" data-name="Trazado 889239" d="M5.619,2.81A2.81,2.81,0,1,1,2.81,0a2.811,2.811,0,0,1,2.81,2.81" transform="translate(87.256 66.926)" fill="#bdadea"/>
      <path id="Trazado_889240" data-name="Trazado 889240" d="M5.619,2.81A2.81,2.81,0,1,1,2.81,0a2.811,2.811,0,0,1,2.81,2.81" transform="translate(0 89.237)" fill="#bdadea"/>
      <path id="Trazado_889241" data-name="Trazado 889241" d="M5.619,2.81A2.81,2.81,0,1,1,2.81,0a2.811,2.811,0,0,1,2.81,2.81" transform="translate(21.815 89.237)" fill="#bdadea"/>
      <path id="Trazado_889242" data-name="Trazado 889242" d="M5.619,2.81A2.81,2.81,0,1,1,2.81,0a2.811,2.811,0,0,1,2.81,2.81" transform="translate(43.626 89.237)" fill="#bdadea"/>
      <path id="Trazado_889243" data-name="Trazado 889243" d="M5.619,2.81A2.81,2.81,0,1,1,2.81,0a2.811,2.811,0,0,1,2.81,2.81" transform="translate(65.441 89.237)" fill="#bdadea"/>
      <path id="Trazado_889244" data-name="Trazado 889244" d="M5.619,2.81A2.81,2.81,0,1,1,2.81,0a2.811,2.811,0,0,1,2.81,2.81" transform="translate(87.256 89.237)" fill="#bdadea"/>
      <path id="Trazado_889245" data-name="Trazado 889245" d="M5.619,2.81A2.81,2.81,0,1,1,2.81,0a2.811,2.811,0,0,1,2.81,2.81" transform="translate(0 111.547)" fill="#bdadea"/>
      <path id="Trazado_889246" data-name="Trazado 889246" d="M5.619,2.81A2.81,2.81,0,1,1,2.81,0a2.811,2.811,0,0,1,2.81,2.81" transform="translate(21.815 111.547)" fill="#bdadea"/>
      <path id="Trazado_889247" data-name="Trazado 889247" d="M5.619,2.81A2.81,2.81,0,1,1,2.81,0a2.811,2.811,0,0,1,2.81,2.81" transform="translate(43.626 111.547)" fill="#bdadea"/>
      <path id="Trazado_889248" data-name="Trazado 889248" d="M5.619,2.81A2.81,2.81,0,1,1,2.81,0a2.811,2.811,0,0,1,2.81,2.81" transform="translate(65.441 111.547)" fill="#bdadea"/>
      <path id="Trazado_889249" data-name="Trazado 889249" d="M5.619,2.81A2.81,2.81,0,1,1,2.81,0a2.811,2.811,0,0,1,2.81,2.81" transform="translate(87.256 111.547)" fill="#bdadea"/>
      <path id="Trazado_889250" data-name="Trazado 889250" d="M5.619,2.81A2.81,2.81,0,1,1,2.81,0a2.811,2.811,0,0,1,2.81,2.81" transform="translate(0 133.858)" fill="#bdadea"/>
      <path id="Trazado_889251" data-name="Trazado 889251" d="M5.619,2.81A2.81,2.81,0,1,1,2.81,0a2.811,2.811,0,0,1,2.81,2.81" transform="translate(21.815 133.858)" fill="#bdadea"/>
      <path id="Trazado_889252" data-name="Trazado 889252" d="M5.619,2.81A2.81,2.81,0,1,1,2.81,0a2.811,2.811,0,0,1,2.81,2.81" transform="translate(43.626 133.858)" fill="#bdadea"/>
      <path id="Trazado_889253" data-name="Trazado 889253" d="M5.619,2.81A2.81,2.81,0,1,1,2.81,0a2.811,2.811,0,0,1,2.81,2.81" transform="translate(65.441 133.858)" fill="#bdadea"/>
      <path id="Trazado_889254" data-name="Trazado 889254" d="M5.619,2.81A2.81,2.81,0,1,1,2.81,0a2.811,2.811,0,0,1,2.81,2.81" transform="translate(87.256 133.858)" fill="#bdadea"/>
    </g>
  </g>
</svg>
