<svg xmlns="http://www.w3.org/2000/svg" xmlns:xlink="http://www.w3.org/1999/xlink" width="295" height="376" viewBox="0 0 295 376">
  <defs>
    <clipPath id="clip-path">
      <rect id="Rect치ngulo_402405" data-name="Rect치ngulo 402405" width="295" height="376" rx="10" transform="translate(1125 19856.805)" fill="#ff494f"/>
    </clipPath>
    <clipPath id="clip-path-2">
      <rect id="Rect치ngulo_402404" data-name="Rect치ngulo 402404" width="358.551" height="920" fill="none"/>
    </clipPath>
  </defs>
  <g id="Enmascarar_grupo_1099843" data-name="Enmascarar grupo 1099843" transform="translate(-1125 -19856.805)" clip-path="url(#clip-path)">
    <g id="Grupo_1102394" data-name="Grupo 1102394" transform="translate(1079.051 19872)">
      <g id="Grupo_1102393" data-name="Grupo 1102393" clip-path="url(#clip-path-2)">
        <path id="Trazado_892736" data-name="Trazado 892736" d="M339.215,328.227c-3.123-14.293-6.856-27.532-8.526-42.18-1.731-15.156-9.171-29.815-9.907-44.979-.337-6.912-1.83-13.589-2.173-20.485-.593-11.945-3.657-22.519-7.233-33.871-1.369-4.344-13.523-23.215-13.9-23.576-16.7,4.788-35.521,4.14-52.661,1.235a101.873,101.873,0,0,1-26-8.122c-5.85-2.806-16.1-3.958-16.1-4.162-2.921,1.356-3.942,5.931-6.968,7.446v.007a4.634,4.634,0,0,1-.956.355c-3.866.954-14.226,8.811-18.768,14.071-6.706,7.758-12.244,16.446-17.412,25.285-5.653,9.669-10.917,19.582-17.064,28.964-5.464,8.358-13.734,14.646-16.152,24.831-1.423,6-.561,12.253-1.836,18.267-1.226,5.792-4.64,11.29-8.293,15.872-10.441,13.1-23.861,15.4-39.158,19.1-2.723.66-9.339,1.333-11.216,3.572-3.7,4.418.667,12.491-2.025,17.69-6.647,12.836-28.131,9.456-39,11.018C13.386,340.074,2.279,343.349,0,354.985c7.826-5.282,14.078-2.272,16.646-1.834,9.725,1.677,17.369,9.543,27.727,10.713,12.691,1.423,25.2-7.5,36.972.8,6.1,4.3,13.865,3.67,20.793,2.238,5.273-1.087,10.111-3.767,15.5-4.5,6.18-.837,10,3.513,11.586,9.141.822,2.88.995,5.983,2.023,8.8,2.371,6.483,8.838,8.07,14.3,5.971,4.739-.813,10.152-5.338,12.053-9.379,1.883-4.007,1.408-8.762.633-13-1.093-5.983-4.229-11.1-5.668-16.943-1.3-5.242.164-11.9,6.048-13.353,5.011-1.235,9.527-.413,11.988-6.165,1.324-3.109.9-6.878,1.473-10.17.584-3.34,2.535-7.66,5.464-9.619,2.575-1.72,5.983-.534,8.78-.148a24.733,24.733,0,0,0,13.649-1.6c7.258-3.076,17.683-9.3,19.906-17.854,2.748,2.887,5.659,5.48,9.314,6.647a12.306,12.306,0,0,0,3.866.617,11.093,11.093,0,0,0,1.587-.119,11.143,11.143,0,0,1-1.589.121c4.321,4.784,4.788,11.27,7.063,17.371,2.476,6.645,6.542,10.452,12.911,13.64,7.469,3.736,11.182,5.747,16.249,12.253,7.143,9.173,14.59,10.8,25.675,12.911,12.792,2.431,37.216,3.04,44.265,16.415,4.6-5.2,2.867-26.587,0-39.711" transform="translate(0 189.336)" fill="#a44a30"/>
        <path id="Trazado_892737" data-name="Trazado 892737" d="M84.19,36.095a5.394,5.394,0,0,1-.642.213,33.475,33.475,0,0,1-12.087.222c-1.408-.222-3.646-.37-4.831-1.078a8.1,8.1,0,0,1-1.942-2.418c-.451-.66-.9-1.358-1.39-2.016q1.862-1.408,3.686-2.741a6.461,6.461,0,0,0,2.541,2.169c.5.24.478.375,1.12.431-.757.806-.741,1.794-.321,2.133.7.575,9.462,3.109,13.865,3.085" transform="translate(78.803 35.204)" fill="#966b56"/>
        <path id="Trazado_892738" data-name="Trazado 892738" d="M83.58,22.128l-.139,10.244-.972,1.861c-.864.1-1.785.139-2.344.2a64.967,64.967,0,0,1-7.8.626,5.35,5.35,0,0,1-3.069-.667,9.437,9.437,0,0,1-2.016-2.081c5.974-4.09,11.543-7.487,16.341-10.178" transform="translate(83.708 27.548)" fill="#966b56"/>
        <path id="Trazado_892739" data-name="Trazado 892739" d="M243.544,50.991c.025,14.311.189,29.985-2.344,44.086-1.663,9.218-2.9,20.047-4.272,29.386-1.958,13.411-2.9,25.08-4.878,38.417-.7,4.69-3.226,8.6-4.041,13.14a39.734,39.734,0,0,0,.642,15.322c.658,2.781,1.892,5.439,2.5,8.2.346,1.529.074,3.545.889,4.737l-2.3-1.143c-7.249-9.561-15.986-17.822-22.849-27.754-2.88-4.171-6.27-8.086-8.935-12.408-3.013-4.887-4.476-10.531-6.5-15.838a26.667,26.667,0,0,1,1.892-24.052,62.972,62.972,0,0,1,8.8-11.413c2.649-2.788,4.025-4.22,4.591-8.046.586-4.032,2-10.046,2.362-14.121.413-4.73.635-9.518.864-14.284.543-11.272,2.543-22.849,4.247-34,0,0-82.44-2.321-98.164-.4,0,0-17.048,16.031-20.117,16.933S85.373,60.2,81.539,60.775a8.263,8.263,0,0,1-1.087.067c-4.4.025-13.164-2.51-13.862-3.087-.422-.334-.438-1.322.319-2.128.642-.7,1.852-1.268,3.893-1.181a98.631,98.631,0,0,0,11.5-.572l1.333-2.55.97-1.861.141-10.244.748-1.686.84-1.877L99.37,27.411l18.808-.189,21.839-5.563S188.909,7.664,222.266,8.43c8.3.2,15-1,18.045,8.064,3.686,10.951,3.217,23.046,3.233,34.5" transform="translate(82.538 10.457)" fill="#ac836b"/>
        <path id="Trazado_892740" data-name="Trazado 892740" d="M209.278,154.391c-2.822,2.054-2.42,6.259-2.254,9.743a34.466,34.466,0,0,1-3.646,17.118,13.535,13.535,0,0,1-3.807,4.966c-2.521,1.859-5.817,2.157-8.892,2.761a39.568,39.568,0,0,0-15.187,6.521,7.656,7.656,0,0,0-2.465,2.467,10.377,10.377,0,0,0-.716,4.548c-.44,10.895-8.959,20.4-19.212,24.111s-21.791,2.344-31.992-1.506c-2.68-1.01-5.419-2.209-8.282-2.025-1.814.119-3.551.792-5.354,1.048-6.49.918-12.52-3.691-16.444-8.942-1.43-1.915-2.815-4.05-5.006-5.006-1.8-.783-3.843-.64-5.778-.95a12.467,12.467,0,0,1-9.664-8.3,10.447,10.447,0,0,0-1.522-3.742c-1.316-1.547-3.583-1.717-5.52-2.323-5.579-1.747-11.626-9.352-7.99-13.932a15.518,15.518,0,0,0,2.38-14.677c-.893-2.454-2.409-4.649-3.248-7.123a24.069,24.069,0,0,1-.945-8.133,31.147,31.147,0,0,1,.9-7.77,29.614,29.614,0,0,1,4.9-9.384C63.829,127.944,69.1,122.8,73.565,117S79.9,104.13,82.554,97.316c1.264-3.239-.37-7.051.837-10.309a11.056,11.056,0,0,1,2.44-3.545c4.851-5.228,10.908-9.476,14.507-15.634,2.092-3.585,3.23-7.631,4.863-11.447,3.415-7.99,9.305-12.477,15.005-19.037,3.473-4,6.721-10.363,11.106-13.337s9.669-4.907,14.949-4.414c10.729,1.006,22.557-2.678,30.322,4.791,3.641,3.5,6.459,6.717,10.383,9.891,3.026,2.449,6.257,5.323,9.662,7.2s6.685,4.7,7.4,8.526c.815,4.371-1.9,9.137-.045,13.178.8,1.756,2.373,3.073,3.168,4.833,1.612,3.547-.308,7.8.727,11.561.994,3.628,4.535,6.095,5.668,9.682,2.077,6.575-4.66,13.4-2.99,20.092.436,1.735,1.428,3.374,1.34,5.159-.119,2.407-2.13,4.232-3.2,6.389-1.688,3.4-.968,7.5.379,11.045s3.293,6.9,4.045,10.614-.775,9.6-3.841,11.831" transform="translate(66.882 24.298)" fill="#fecaa0"/>
        <path id="Trazado_892741" data-name="Trazado 892741" d="M136.9,38.985a39.754,39.754,0,0,0-11.84-5.242c-7.249-1.982-16.177-2.115-23.006,1.392-4.766,2.436-8.187,6.7-11.108,11.05a16.14,16.14,0,0,0-2.535,4.7,8.159,8.159,0,0,0-.256,1.605,26.8,26.8,0,0,0,.189,4.22,19.152,19.152,0,0,1-1.028-2.716c-.436-1.8-.806-3.6-1.358-5.381a5.007,5.007,0,0,1-.352-1.513,17.767,17.767,0,0,1,.855-3.572c.272-1.235.213-2.559.485-3.769.51-2.31,3.877-4.746,5.736-5.594,3.152-1.439,7.233-2.254,10.515-3.257,2.065-.635,3.547-2.016,5.523-2.88a68.656,68.656,0,0,0,6.391-3.257,19.793,19.793,0,0,1,6.575-1.926c.148.13.312.278.485.436,2.173,1.982,5.069,2.914,7.283,4.806,1.192,1.019,1.432,2.705,2.214,4.137a24.23,24.23,0,0,0,3.727,5.43c.478.444,1.2.766,1.5,1.318l.009.016" transform="translate(106.577 28.437)" fill="#dd9c66"/>
        <path id="Trazado_892742" data-name="Trazado 892742" d="M126.9,26.108c-.519.139-1,.305-1.318.4a9.475,9.475,0,0,0-3.52,2.213,8.094,8.094,0,0,1-2.945,1.991c-1.417.593-2.723,1.439-4.155,1.991a68.188,68.188,0,0,1-8.764,2.442,38.226,38.226,0,0,0-4,1.071c-2.2.8-4.254,1.9-6.394,2.831a6.146,6.146,0,0,1-1.621.55,77.417,77.417,0,0,0-1.744,7.678,20.454,20.454,0,0,0-.864,5.933,26.505,26.505,0,0,0,1.235,7.058c.732,2.346,2.2,4.4,3.439,6.526a28.674,28.674,0,0,1-.123,6.252c-.649,3.358-1.711,6.106-1.4,9.62a47.7,47.7,0,0,0,2.683,10.8c.361,1.078.723,2.164,1.087,3.242a13.756,13.756,0,0,1-2.609-3.785q-4.024-7.543-8.039-15.066c-4.979-9.332-10.1-19.56-7.767-29.721,1.2-5.233,4.254-9.833,6.944-14.491,1.194-2.065,1.827-4.319,2.889-6.344,1.1-2.13,4.081-3.282,6.252-4.27A101.3,101.3,0,0,1,106.5,18.785c1.423.305,2.838.723,4.18,1,1.423.305,2.065.231,3.06,1.309.914.979,1.762,2.312,3.078,2.451,1.522.164,3.118-1.217,4.634-.84a4.539,4.539,0,0,1,1.374.938,23.483,23.483,0,0,0,3.529,2.18c.2.1.37.191.543.281" transform="translate(98.969 23.386)" fill="#dd9c66"/>
        <path id="Trazado_892743" data-name="Trazado 892743" d="M154.82,59.766A154.985,154.985,0,0,1,148.128,84.6a8.607,8.607,0,0,0,.058-1.161c-.038-4.8.139-9.725-.532-14.482-.469-3.374-2.389-6.616-3.8-9.7a19.473,19.473,0,0,1-1.34-4.979c-.24-1.612-.04-3.7-.846-5.15a10.933,10.933,0,0,0-2.108-2.609,17.677,17.677,0,0,0-1.744-1.408l-.009-.016c-.294-.552-1.019-.873-1.5-1.318a24.314,24.314,0,0,1-3.729-5.43c-.781-1.43-1.017-3.118-2.209-4.137-2.214-1.892-5.109-2.822-7.285-4.806l-.485-.436a19.78,19.78,0,0,0-6.573,1.926,68.977,68.977,0,0,1-6.394,3.257c-1.976.864-3.455,2.247-5.52,2.88-3.287,1-7.366,1.818-10.517,3.257-1.859.849-5.224,3.284-5.736,5.6-.269,1.208-.213,2.535-.483,3.767a17.809,17.809,0,0,0-.858,3.572,4.945,4.945,0,0,0,.355,1.513c.55,1.778.92,3.581,1.356,5.383a19.518,19.518,0,0,0,1.028,2.714v.009c.065.649.132,1.309.182,1.958.04.584.074,1.17.074,1.753,0,.33.009.667.025,1.012,0,.1,0,.2.007.3-1.239-2.133-2.705-4.18-3.439-6.526a26.7,26.7,0,0,1-1.23-7.06,20.447,20.447,0,0,1,.86-5.931,77.427,77.427,0,0,1,1.747-7.678,6.045,6.045,0,0,0,1.621-.552c2.139-.929,4.2-2.032,6.391-2.829a38.415,38.415,0,0,1,4-1.071,67.7,67.7,0,0,0,8.762-2.445c1.432-.55,2.741-1.4,4.158-1.991a8.012,8.012,0,0,0,2.943-1.991,9.5,9.5,0,0,1,3.522-2.211c.312-.092.8-.256,1.316-.4-.171-.092-.346-.182-.541-.281a23.783,23.783,0,0,1-3.529-2.18,4.566,4.566,0,0,0-1.374-.938c-1.515-.379-3.111,1-4.636.84-1.313-.141-2.16-1.473-3.076-2.454-1-1.078-1.637-1-3.062-1.307-1.34-.281-2.755-.7-4.18-1,.528-.182,1.062-.346,1.6-.494a35.447,35.447,0,0,1,6.652-1.309,59.411,59.411,0,0,1,13.18.741c5.273.682,10.695,1.423,15.29,3.908,5.848,3.174,9.568,8.762,13.054,14.127,2.429,3.736,4.9,7.579,5.736,11.864.707,3.655.173,7.406-.492,11.067" transform="translate(105.661 22.311)" fill="#efab6a"/>
        <path id="Trazado_892744" data-name="Trazado 892744" d="M193.272,135.566c0,.083-.009.164-.016.247a140.786,140.786,0,0,1-2.247,14.565H191c-2.476,12.448-5.8,37.371-5.94,37.412-16.7,4.788-35.521,4.14-52.659,1.235a101.861,101.861,0,0,1-26-8.122c-5.85-2.8-16.1-3.958-16.1-4.162.343-1.738,1.053-3.423,1.241-5.242a34.46,34.46,0,0,0,.09-5.529c-.123-2.272-.346-4.533-.617-6.8.2-.083.4-.182.6-.247,13.164-3.291,18.925-15.634,28.8-19.749,20.431-8.755,43.462-7.808,66.205-4.609,2.22.314,4.443.651,6.656,1" transform="translate(112.413 164.682)" fill="#ac836b"/>
        <path id="Trazado_892745" data-name="Trazado 892745" d="M134.917,69.578c-7.372,10.54-18.72,13.824-32.156,11.808-4.434-.635-6.869-2.207-8.861-5.918.254-2.09.4-4.137.46-6.236.016-.577.034-1.152.034-1.729,2.007,1.226,4.1,2.355,6.144,3.457.716.377,1.426.757,2.115,1.143.5.272,1.006.552,1.5.831,2.68,1.531,5.6,3.037,8.679,2.79,5.628-.453,9.4-5.5,12.747-9.521a80.116,80.116,0,0,0,5.743-7.792c.148.707.337,1.5.552,2.321a53.715,53.715,0,0,0,3.044,8.845" transform="translate(116.899 72.719)" fill="#966b56"/>
        <path id="Trazado_892746" data-name="Trazado 892746" d="M146.467,72.038a8.607,8.607,0,0,1-.058,1.161v.016c-.1,1.046-.3,2.065-.346,3.127-.074,1.621.108,3.251.034,4.863-.2,4.591-.831,8.591-3.019,12.556-.1.182-.2.361-.305.543-.617,1.053-1.257,2.1-1.933,3.118a80.49,80.49,0,0,1-5.743,7.792c-3.349,4.016-7.119,9.067-12.747,9.521-3.078.247-6-1.259-8.681-2.79-3.109-1.769-6.548-3.464-9.759-5.43-1.176-.716-2.312-1.473-3.4-2.279-3.473-2.584-6.362-5.718-7.783-9.963q-1.323-3.95-2.651-7.893c-.361-1.078-.723-2.162-1.087-3.242a47.686,47.686,0,0,1-2.683-10.8c-.312-3.513.75-6.261,1.4-9.62a28.96,28.96,0,0,0,.123-6.252c-.027-.444-.034-.882-.034-1.309,0-1.241-.132-2.476-.256-3.711a26.911,26.911,0,0,1-.189-4.229,8.186,8.186,0,0,1,.256-1.605,16.214,16.214,0,0,1,2.532-4.7c2.923-4.353,6.344-8.614,11.11-11.05,6.829-3.5,15.755-3.374,23.006-1.39,4.968,1.365,13.007,4.452,15.69,9.256.806,1.448.608,3.538.849,5.15a19.473,19.473,0,0,0,1.34,4.979c1.408,3.085,3.325,6.326,3.794,9.7.673,4.757.494,9.685.534,14.482" transform="translate(107.38 33.712)" fill="#ac836b"/>
        <path id="Trazado_892747" data-name="Trazado 892747" d="M119.124,56.607c.045-.117,0-.238-.186-.366-2.27-1.556-5.19-3.421-8.064-3.152a6.465,6.465,0,0,0-2.382.465c-.539.274-1.082.543-1.616.828a2.45,2.45,0,0,1-1.85-.171,4.1,4.1,0,0,0-1.524-.24,5.178,5.178,0,0,0-1.881.377,11.1,11.1,0,0,0-3.264,2.362c-.37.377-.712.786-1.082,1.165a4.669,4.669,0,0,0-.534.656c-.231.343-.46.687-.7,1.026a.591.591,0,0,0-.139.258c-.011.173.2.186.328.218a4.729,4.729,0,0,0,1.154.067,3.821,3.821,0,0,0,1.715-.534,8.025,8.025,0,0,0,1.542-.884,4.512,4.512,0,0,1,2-.994,10.873,10.873,0,0,1,3.179.207,4.672,4.672,0,0,0,1.915-.128c.9-.287,1.614-1.021,2.483-1.394,1.333-.57,2.16.011,3.376.532a7.3,7.3,0,0,0,3.1.575c.382-.011,2.236-.382,2.429-.871" transform="translate(119.393 66.06)" fill="#9e523b"/>
        <path id="Trazado_892748" data-name="Trazado 892748" d="M117.407,55.754a.346.346,0,0,0-.079-.312c-.3-.321-1.441-.076-1.8,0a9.7,9.7,0,0,0-1.823.622c-1.181.512-2.11,1.437-3.271,1.976a11.366,11.366,0,0,1-5.5,1.32,13.033,13.033,0,0,1-3.473-.718,12.77,12.77,0,0,0-3.111-1.035c-.166-.009-2.5.054-1.832.723a23.412,23.412,0,0,1,2.467,3.745,8.429,8.429,0,0,0,5.781,3.787c2.952.555,6.254.175,8.515-1.8a10.661,10.661,0,0,0,2.636-3.929c.319-.743.319-1.753.6-2.51.254-.669.788-1.4.887-1.87" transform="translate(120.009 68.821)" fill="#9e523b"/>
        <path id="Trazado_892749" data-name="Trazado 892749" d="M135.159,148.557a140.694,140.694,0,0,0,2.247-14.565c.007-.081.016-.164.016-.247,4.295,1.194,9.076,3.177,10.854,6.461,0,0,1.5,4.369-13.117,8.351" transform="translate(168.263 166.503)" fill="#191919"/>
        <path id="Trazado_892750" data-name="Trazado 892750" d="M218.326,203.161q-.384,12.318-.757,24.636c-1.778-3.284-6.557-5.267-10.854-6.461-2.214-.343-4.434-.682-6.656-.994-22.743-3.2-45.774-4.146-66.2,4.609-9.875,4.113-15.634,16.455-28.8,19.746-.2.065-.4.164-.6.247-.29-2.445-.642-4.878-1-7.314q-.714-4.964-1.432-9.907c-1.381-9.545-2.8-19.2-6.483-28.1-2.862-6.937-7.15-13.609-7.354-21.114-.067-2.485.321-5.02-.29-7.431-.815-3.242-3.282-5.76-5.332-8.41s-3.72-5.356-2.822-8.582a5.936,5.936,0,0,0,5.356-.377,15.334,15.334,0,0,0,4.131-3.72,73.722,73.722,0,0,0,15.124-29.48c1.325-5.251,2.047-10.8.748-16.053C103.3,97.148,98.218,92.1,92.96,86.723a24.956,24.956,0,0,0,11.364-5.743c1.883-1.679,5.06-4.674,5.841-7.085.593-1.827,1.646-2.766,1.614-4.7.016.025.031.058.049.083,1.991,3.711,4.427,5.282,8.861,5.915,13.438,2.016,24.784-1.266,32.156-11.808a22.613,22.613,0,0,0,12.269,8.748,13.109,13.109,0,0,0,6.236.312c.732,4.164,5.085,8.293,7.882,11.469,8.344,9.456,16.442,18.029,23.722,28.322,5.2,7.348,10.928,14,13.059,22.793,0,1.892.691,4.057.831,5.989q.249,3.381.321,6.764c.1,4.508-.031,9.027-.377,13.519a55.781,55.781,0,0,1-.815,6.508l.007-.009c-.436,8.353,2.133,20.974,2.4,28.775.081,2.189.007,4.384-.058,6.582" transform="translate(98.97 78.912)" fill="#232323"/>
        <path id="Trazado_892751" data-name="Trazado 892751" d="M134.65,15.9a5.368,5.368,0,0,0-4.476-1.769l-1.131.119c-1.316-1.7-4.263-5.408-5.294-5.85-.88-.377-4.306-1.614-6.569-2.425-1.464-1.293-3.81-3.28-4.384-3.711-.766-.575-3.7-.46-3.7-.46l-13.169.938L92.091,4.379V9.243l7.341,2.407,2.532,4.254.094,4.575v4.607s.691-.123,1.859-.337c3.4-.608,10.861-1.958,17.091-3.078,5.026-.9,9.256-1.652,9.907-1.76,1.729-.287,5.365-1.917,3.736-4.007" transform="translate(114.647 2.239)" fill="#ac836b"/>
        <path id="Trazado_892752" data-name="Trazado 892752" d="M116.943,17.847c.009.543-.164,2.815-.164,2.815l-2.624.467c-2.288.413-4,1.738-5.974,2.963,2.236-2.692,4.977-5.677,5.727-6.681,1.3-1.729-2.732-3.161-7.045-.577-3.915,2.353-5.224,4.22-5.43,4.541a18.123,18.123,0,0,0-.617-7.018c-1.67-4.492-3.875-2.55-5.422-8.567a3.506,3.506,0,0,0-.963-1.652c1.037-.559,2.8-1.457,3.464-1.325.954.2,4.609,1.562,4.609,1.562,2.73,3.578,5.43,3.8,6.959,3.547.9.914,1.778,1.843,2.658,2.781.676.714,1.358,1.439,2.034,2.164,1.331,1.414,2.755,3.026,2.788,4.977" transform="translate(117.56 3.488)" fill="#966b56"/>
        <path id="Trazado_892753" data-name="Trazado 892753" d="M197.8,20.9c-.207.272-.552.691-1,1.217-.148.173-.314.355-.478.552-.37.429-.79.9-1.226,1.4-.281.312-.559.642-.846.972-.092.106-.182.2-.272.312s-.182.213-.272.321c-.4.46-.808.929-1.2,1.4-.141.173-.29.346-.429.51l-.016.009c-1.623,1.949-2.988,3.736-3.17,4.526-.436,1.868-2.016,2.591-13.229,6.9s-22.867,2.88-26.174,3.307c-1.655.216-7.6,2.716-15.865,7.348-4.8,2.692-10.367,6.09-16.341,10.178-1.688,1.161-3.415,2.371-5.159,3.63q-1.828,1.33-3.686,2.739-2.1,1.593-4.238,3.284C82.48,86.76,70,96.361,70,96.361c4.856,8.293,12.286,14.76,20,20.505S105.863,127.8,112.9,134.359c3.661,3.424,7.085,7.258,11.528,9.577a66.846,66.846,0,0,0,8.484,3.21c9.274,3.316,19.089,10.877,25.35,18.489,5.258,5.381,10.336,10.423,12.145,17.73,1.3,5.251.577,10.8-.748,16.053A73.716,73.716,0,0,1,154.533,228.9a15.288,15.288,0,0,1-4.131,3.718,5.943,5.943,0,0,1-5.356.379c-7.067-20.274-18.644-37.528-34.1-50.76-4.533-3.884-9.3-7.48-13.88-11.3-12.688-10.54-23.318-25.17-34.549-37.25C51.589,121.951,40.6,110.127,32.041,96.559c-2.658-4.214-5.134-9.126-4.988-13.948a5.524,5.524,0,0,1,3.161-4.779C37.521,74.3,58.452,62.09,81.326,50.809c22.308-11,47.24-23.318,58.379-28.47,1-.469,1.991-.871,2.97-1.25h-.022a114.393,114.393,0,0,1,26.263-16.1S178.913,0,181.216,0s7.283,2.494,7.958,2.97a7.14,7.14,0,0,1,.9,1.08c1.655,2.189,4.8,6.894,4.566,6.977a5.552,5.552,0,0,1-1.282.386c-1.531.256-4.229.034-6.962-3.547,0,0-3.655-1.365-4.609-1.562-.667-.132-2.427.766-3.464,1.325a3.513,3.513,0,0,1,.963,1.655c1.547,6.014,3.751,4.072,5.422,8.564a18.131,18.131,0,0,1,.617,7.02c.207-.321,1.515-2.189,5.43-4.544,4.313-2.582,8.344-1.152,7.045.577" transform="translate(33.671)" fill="#ac836b"/>
        <path id="Trazado_892754" data-name="Trazado 892754" d="M151.11,38.521a2.006,2.006,0,0,0-1.4-.608c-9.35-.842-19.125,1.67-27.561,5.61a3.794,3.794,0,0,0-1.812,1.54,3.39,3.39,0,0,0-.343.932c-1.446.171-2.9.321-4.344.48a3.353,3.353,0,0,0-.489-.593,3.806,3.806,0,0,0-2.2-.9c-9.24-1.145-19.311-.516-27.947,3.172-2.09.893-1.553,2.29-.2,3.789,5.536,6.135,13,13.672,21.991,11.344a14.1,14.1,0,0,0,4.669-1.971c2.142-1.52,4.674-6.69,4.968-10.825,1.392-.159,2.781-.314,4.169-.487,1.6,3.8,5.529,7.828,8,8.6a14.09,14.09,0,0,0,5.049.433,13.782,13.782,0,0,0,9.368-4.4,59.451,59.451,0,0,0,7.186-10.416,8.628,8.628,0,0,0,1.36-4.281,2.184,2.184,0,0,0-.462-1.414" transform="translate(104.098 46.995)" fill="#232323"/>
        <path id="Trazado_892755" data-name="Trazado 892755" d="M139.565,45.717a17.417,17.417,0,0,0-1.744-1.408l-.009-.016c-.3-.552-1.019-.873-1.5-1.318a24.231,24.231,0,0,1-3.727-5.43c-.781-1.43-1.021-3.118-2.214-4.137-2.214-1.892-5.109-2.822-7.283-4.806l-.485-.436a19.793,19.793,0,0,0-6.575,1.926,68.656,68.656,0,0,1-6.391,3.257c-1.976.864-3.457,2.247-5.523,2.88-3.282,1-7.363,1.818-10.515,3.257-1.859.849-5.224,3.284-5.736,5.6-.272,1.21-.213,2.535-.485,3.767a17.8,17.8,0,0,0-.855,3.572,4.945,4.945,0,0,0,.355,1.513c.55,1.778.92,3.581,1.356,5.383a19.81,19.81,0,0,0,1.028,2.714v.009c.067.649.132,1.309.182,1.958.04.584.074,1.17.074,1.753,0,.33.009.667.025,1.012,0,.1,0,.2.009.3a32.949,32.949,0,0,1-3.439-6.526,26.522,26.522,0,0,1-1.235-7.06,20.45,20.45,0,0,1,.864-5.931,76.788,76.788,0,0,1,1.744-7.678,6.072,6.072,0,0,0,1.621-.552c2.139-.929,4.2-2.032,6.394-2.829a38.075,38.075,0,0,1,4-1.071,67.937,67.937,0,0,0,8.764-2.445c1.43-.55,2.739-1.4,4.153-1.991a8.028,8.028,0,0,0,2.948-1.991,9.452,9.452,0,0,1,3.52-2.211c.312-.092.8-.256,1.318-.4-.173-.092-.346-.182-.543-.281a23.8,23.8,0,0,1-3.531-2.18,4.512,4.512,0,0,0-1.374-.938c-1.513-.379-3.109,1-4.631.84-1.318-.141-2.164-1.473-3.078-2.454-1-1.078-1.637-1-3.06-1.307-1.342-.281-2.757-.7-4.18-1,.525-.182,1.06-.346,1.6-.494a15.938,15.938,0,0,1,3.051.238c1.358.256,2.4,1.275,3.531,2.1a9.692,9.692,0,0,0,2.254,1.43c1.556.561,3.424.173,5.02.025,1.488-.13,3.5-.568,4.739.33,1.275.914,2.362,2.13,3.72,3a15.134,15.134,0,0,1,2.288,1.43c.584.568,1.087,1.417,1.72,2.009,1.432,1.349,3.489,2.328,4.739,3.8.5.6.429.979.608,1.762a11.984,11.984,0,0,0,1.482,3.587,53.62,53.62,0,0,0,3.933,4.952,1.755,1.755,0,0,1,.48,1.145c.065.305.786,1,.6,1.34" transform="translate(105.66 23.112)" fill="#cc8e60"/>
        <path id="Trazado_892756" data-name="Trazado 892756" d="M145.835,219.424c-2.222,8.558-12.646,14.778-19.9,17.856a24.764,24.764,0,0,1-13.651,1.6c-2.8-.388-6.2-1.571-8.778.148-2.93,1.958-4.88,6.277-5.464,9.617-.568,3.291-.148,7.06-1.473,10.172-2.46,5.751-6.977,4.928-11.99,6.162-5.882,1.448-7.348,8.113-6.048,13.355,1.441,5.841,4.575,10.96,5.671,16.94.772,4.238,1.25,8.993-.633,13-1.9,4.041-7.316,8.567-12.055,9.381a13.553,13.553,0,0,0,4.69-3.013c7.069-6.977.51-20.234-4.6-26.248-3.949-4.64-8.138-8.023-6.45-14.5.864-3.284,2.22-5.711,2.056-9.256-.222-4.921-2.247-8.977-4.665-13.142-1.769-3.044-4.872-7.99-1.711-11.173,4.418-4.452,14.5.123,19.91-2.476,5.267-2.535,4.748-6.443,4.806-11.422.074-6.582,4.995-8.582,10.8-7.363,6.838,1.432,16.637,8.145,23.738,6.113,7.572-2.173-5.141-16.251,5.408-17.773,9.552-1.374,14.6,5.989,20.339,12.022" transform="translate(74.037 257.993)" fill="#dd9c66"/>
        <path id="Trazado_892757" data-name="Trazado 892757" d="M134.457,264.408s28.416,63.325,51.422,111.063c0,0-69.595,88.578-93.178,132.866,0,0-2.3,29.334,4.027,43.713,0,0,39.686-48.89,51.766-59.818s64.993-75.349,69.595-79.374,30.484-19.556,24.732-43.713-18.5-70.722-18.5-70.722l-25.776-77.672S187.605,207.926,160,207.926s-41.845,17.906-41.845,17.906Z" transform="translate(114.898 258.853)" fill="#966b56"/>
        <path id="Trazado_892758" data-name="Trazado 892758" d="M82.313,256.974S108.772,330.6,117.4,347.85s10.928,43.713,10.928,48.315-6.326,51.766,0,71.321S161.112,576.2,161.687,588.85c0,0,20.75,3.451,29.644-4.6,0,0-10.663-16.68-13.539-54.067s-6.9-96.628-8.627-102.957,4.6-31.059-1.152-69.02c-5.713-37.712-22.779-142.973-23-144.353-1.363-8.412-27.837-12.39-34.334-12.767-11.669-.678-26.98,2.9-31.992,14.635-5.549,12.987-.893,28.672,3.63,41.255" transform="translate(94.803 250.236)" fill="#ac836b"/>
        <path id="Trazado_892759" data-name="Trazado 892759" d="M209.976,318.764c-3.123-14.293-6.856-27.532-8.526-42.18-1.731-15.156-9.171-29.815-9.907-44.979-.337-6.912-1.83-13.589-2.173-20.485-.593-11.945-3.657-22.519-7.233-33.871-1.369-4.344-9.3-17.773-10.03-17.558,8.181,13.757,11.375,30.549,12,46.3.332,8.349-.067,15.515-4.128,22.849-3.531,6.376-9.182,10.1-13.283,16-4.052,5.83-3.635,13.1-6.239,19.529-3.109,7.675-10.511,11.35-18.076,13.559-8.7,2.541-17.975.341-26.461,3.635-4.463,1.733-7.745,4.3-12.107,4.324,4.321,4.784,4.788,11.27,7.063,17.371,2.476,6.645,6.542,10.452,12.911,13.64,7.469,3.736,11.182,5.747,16.249,12.253,7.143,9.173,14.59,10.8,25.675,12.911,12.792,2.431,37.216,3.04,44.265,16.415,4.6-5.2,2.867-26.587,0-39.711" transform="translate(129.24 198.8)" fill="#dd9c66"/>
        <path id="Trazado_892760" data-name="Trazado 892760" d="M309.216,238.309c-3.529,6.369-9.182,10.089-13.281,16-4.048,5.826-3.637,13.092-6.236,19.526-3.109,7.675-10.515,11.355-18.078,13.559-8.7,2.544-17.977.346-26.461,3.637-4.461,1.729-7.743,4.3-12.1,4.321a12.439,12.439,0,0,1-3.868-.617c-3.653-1.17-6.566-3.762-9.314-6.649-5.743-6.032-10.787-13.4-20.341-12.022-10.549,1.522,2.164,15.6-5.406,17.773-7.1,2.032-16.9-4.683-23.738-6.113-5.81-1.219-10.729.781-10.8,7.363-.058,4.979.46,8.888-4.806,11.422-5.415,2.6-15.494-1.975-19.913,2.476-3.159,3.183-.058,8.129,1.713,11.173,2.418,4.164,4.443,8.221,4.665,13.142.164,3.545-1.194,5.972-2.059,9.256-1.686,6.474,2.5,9.857,6.452,14.5,5.109,6.014,11.667,19.27,4.6,26.248a13.553,13.553,0,0,1-4.69,3.013c-5.464,2.1-11.932.51-14.3-5.974-1.028-2.815-1.2-5.918-2.023-8.8-1.589-5.628-5.406-9.981-11.586-9.144-5.39.734-10.228,3.417-15.5,4.5-6.928,1.432-14.7,2.065-20.793-2.238-11.775-8.3-24.281.626-36.969-.8-10.36-1.167-18-9.036-27.729-10.713-2.568-.435-8.82-3.448-16.646,1.834,2.279-11.635,13.389-14.909,23.861-16.424,10.87-1.562,32.354,1.818,39-11.016,2.689-5.2-1.679-13.274,2.023-17.692,1.877-2.238,8.493-2.912,11.216-3.569,15.3-3.7,28.717-6,39.158-19.1,3.653-4.582,7.067-10.077,8.3-15.872,1.275-6.014.411-12.269,1.834-18.267,2.418-10.185,10.688-16.471,16.152-24.831,6.147-9.382,11.411-19.3,17.064-28.964,5.168-8.836,10.706-17.526,17.412-25.285,4.541-5.258,14.9-13.117,18.768-14.071a4.456,4.456,0,0,0,.956-.352v-.009c3.026-1.515,4.048-6.088,6.968-7.446,0,.207,10.253,1.358,16.1,4.164a101.956,101.956,0,0,0,26,8.12c17.14,2.9,35.957,3.554,52.661-1.235.377.364,3.085,4.7,3.866,6.016,8.187,13.757,11.38,30.551,12.006,46.308.328,8.342-.065,15.51-4.131,22.849" transform="translate(0 189.336)" fill="#efab6a"/>
        <path id="Trazado_892761" data-name="Trazado 892761" d="M192.793,169.152c-18.224,15.2-72.08,5.118-80.7-.065s-24.9-9.545-24.9-9.545v-.009c3.028-1.513,4.05-6.088,6.97-7.446,0,.207,10.253,1.358,16.1,4.164a101.873,101.873,0,0,0,26,8.122c17.138,2.9,35.957,3.554,52.659-1.235.379.361,3.087,4.7,3.868,6.014" transform="translate(108.548 189.336)" fill="#dd9c66"/>
        <path id="Trazado_892762" data-name="Trazado 892762" d="M116.63,395.858c-.265-.263-.528-.51-.783-.741a2.882,2.882,0,0,1,.783.741" transform="translate(144.221 491.892)" fill="#232323"/>
        <path id="Trazado_892763" data-name="Trazado 892763" d="M192.076,449.065c.287,3.019-14.1,8.771-23.293,10.5s-20.712-6.187-26.6-8.484c-5.175-2.025-14.21-16.859-20.916-23.484a.215.215,0,0,0-.034-.04c-.263-.263-.525-.51-.781-.741l-.009-.009a14.668,14.668,0,0,0-1.167-.986l-.009-.009c-.222-.173-.444-.33-.667-.478-6.762-4.449-7.767-17.542-5.035-25.3s2.157-11.077,1.293-19.7,1.035-7.774,1.035-7.774c.6,6.162,15.75,3.01,23.1,1.208,1.738-.427,3.037-.772,3.614-.914,3.019-.723,1.513-3.2,1.513-3.2,1.661-.034,3.661,2.047,4.238,2.88.287.418,3.742,9.018,7.709,18.339.025.058.049.108.065.157,3.958,9.281,8.425,19.23,10.78,22.512,4.739,6.616,12.219,10.212,16.678,15.1s8.2,17.4,8.484,20.422" transform="translate(139.619 460.193)" fill="#191919"/>
        <path id="Trazado_892764" data-name="Trazado 892764" d="M135.276,393.4s-16.251,14.958-18.119,15.815c-1.729.8-2.4,10.4,2.106,15-.222-.173-.442-.328-.664-.476-6.764-4.452-7.767-17.544-5.035-25.3s2.155-11.074,1.291-19.7,1.037-7.776,1.037-7.776c.6,6.162,15.748,3.01,23.1,1.21,0,0-6.162,11.88-3.72,21.228" transform="translate(139.62 461.791)" fill="#232323"/>
        <path id="Trazado_892765" data-name="Trazado 892765" d="M139.179,390.875c-3.2-6.838-13.461-18.02-13.461-18.02a2.023,2.023,0,0,0,1.513-3.2c1.663-.031,3.661,2.05,4.238,2.88.287.42,3.742,9.018,7.709,18.341" transform="translate(156.51 460.192)" fill="#232323"/>
        <path id="Trazado_892766" data-name="Trazado 892766" d="M136.479,397.269l-.018.009c-2.5,1.735-9.386,5.949-15.7,9.774s-18.595,19.937-24.1,26.454-4.47,13.995-6.409,24.355-6.492,13.223-11.29,13.8-9.2-18.981-12.845-36.081.956-28.526,7.085-39.264,4.229-23.969,4.229-23.969h-4.22s-.189-3.062,1.538-15.526,5.554-16.868,10.542-16.368,31.826,2.948,35.849,1.417a20.7,20.7,0,0,1,7.357-1.417s2.041,32.666,3.767,41.866a76.556,76.556,0,0,0,4.214,14.951" transform="translate(80.704 423.79)" fill="#191919"/>
        <path id="Trazado_892767" data-name="Trazado 892767" d="M131.832,397.269l-.018.009c-.566.18-19.944,6.508-21.45,5.752-1.538-.775-6.9-12.657-12.275-23.2s-25.3-7.48-25.3-7.48h-4.22s-.189-3.062,1.538-15.526,5.554-16.868,10.542-16.368c.467.049,1.127.117,1.949.182,7.882.75,30.255,2.624,33.9,1.235a20.7,20.7,0,0,1,7.357-1.417s2.041,32.666,3.767,41.866a76.556,76.556,0,0,0,4.214,14.951" transform="translate(85.351 423.79)" fill="#232323"/>
        <path id="Trazado_892768" data-name="Trazado 892768" d="M82.594,340.634l-.009.009s-10.178,2.936-9.8,31.7h-4.22s-.189-3.062,1.538-15.526,5.554-16.868,10.542-16.368c.467.049,1.125.117,1.949.182" transform="translate(85.351 423.79)" fill="#191919"/>
        <path id="Trazado_892769" data-name="Trazado 892769" d="M131.617,60.733c-2.222,2.362-3.893,5.159-6.131,7.57-2.84,3.053-6.313,6.887-10.345,8.335-3.834,1.381-8.562-.824-12.167-2.155C99.568,73.233,97,71.06,94.1,69.233c.018-.575.034-1.152.034-1.726,2.007,1.226,4.1,2.353,6.147,3.455.649.386,1.365.772,2.115,1.143.5.272,1,.552,1.5.833,2.683,1.529,5.6,3.035,8.679,2.788,5.63-.451,9.4-5.5,12.747-9.521a80.116,80.116,0,0,0,5.743-7.792c.148.709.339,1.5.552,2.321" transform="translate(117.153 72.719)" fill="#cbc1d4"/>
      </g>
    </g>
  </g>
</svg>
