<svg xmlns="http://www.w3.org/2000/svg" xmlns:xlink="http://www.w3.org/1999/xlink" width="85" height="85" viewBox="0 0 85 85">
  <defs>
    <clipPath id="clip-path">
      <rect id="Rectángulo_401826" data-name="Rectángulo 401826" width="58" height="58" transform="translate(194 595)" fill="#fff" stroke="#707070" stroke-width="1"/>
    </clipPath>
    <clipPath id="clip-path-2">
      <path id="path7239" d="M0-58H58V0H0Z"/>
    </clipPath>
  </defs>
  <g id="Grupo_1101438" data-name="Grupo 1101438" transform="translate(-180 -581)">
    <path id="Trazado_887077" data-name="Trazado 887077" d="M85,42.5A42.5,42.5,0,1,1,42.5,0,42.5,42.5,0,0,1,85,42.5" transform="translate(180 581)" fill="#ff494f"/>
    <g id="Enmascarar_grupo_1099820" data-name="Enmascarar grupo 1099820" clip-path="url(#clip-path)">
      <g id="g7233" transform="translate(194 653)">
        <g id="g7235">
          <g id="g7237" clip-path="url(#clip-path-2)">
            <g id="g7243" transform="translate(21 -50.987)">
              <path id="path7245" d="M0,0A8.1,8.1,0,0,1,2.557-5.882,13.815,13.815,0,0,1,4.383,0" fill="none" stroke="#000" stroke-linecap="round" stroke-linejoin="round" stroke-miterlimit="10" stroke-width="1.699"/>
            </g>
            <g id="g7247" transform="translate(53.888 -11.838)">
              <path id="path7249" d="M0,0A37.259,37.259,0,0,1-6.462,3.964H-43.088A37.259,37.259,0,0,1-49.549,0c9.415-9.413,16.787-22.894,16.787-22.894v-3.963c0-2.778-1.968-10.189-1.968-10.189.771-2.172,2.63-2.633,4.535-2.433a16.3,16.3,0,0,1,5.421,1.856s8.1-4.631,9.956.578c0,0-1.969,7.411-1.969,10.189v3.963S-9.415-9.413,0,0" fill="#fee372"/>
            </g>
            <g id="g7251" transform="translate(26.123 -38.694)">
              <path id="path7253" d="M0,0C-.553,2.308-1.993,7.179-1.993,7.179L-3.12,9.42l-2.135,21.4H-15.324a37.259,37.259,0,0,1-6.462-3.964C-12.37,17.444-5,3.963-5,3.963V0c0-2.778-1.968-10.189-1.968-10.189.771-2.172,2.63-2.633,4.535-2.433l0,0C-6.532-6.218.8-3.32,0,0" fill="#eabe32"/>
            </g>
            <g id="g7255" transform="translate(37.101 -34.732)">
              <path id="path7257" d="M0,0H-15.976V-3.963H0" fill="#fb6572"/>
            </g>
            <g id="g7259" transform="translate(25.976 -34.732)">
              <path id="path7261" d="M0,0H-4.851V-3.963H0" fill="#ea394e"/>
            </g>
            <g id="g7263" transform="translate(37.587 -42.451)">
              <path id="path7265" d="M0,0A23.052,23.052,0,0,0-.487,3.756V7.719S6.885,21.2,16.3,30.613a37.259,37.259,0,0,1-6.462,3.964" fill="none" stroke="#000" stroke-linecap="round" stroke-linejoin="round" stroke-miterlimit="10" stroke-width="1.699"/>
            </g>
            <g id="g7267" transform="translate(10.8 -7.874)">
              <path id="path7269" d="M0,0A37.259,37.259,0,0,1-6.462-3.964c9.415-9.413,16.787-22.894,16.787-22.894V-30.82c0-2.778-1.968-10.189-1.968-10.189,1.852-5.209,9.955-.578,9.955-.578s8.1-4.631,9.956.578c0,0-.36,1.356-.773,3.125" fill="none" stroke="#000" stroke-linecap="round" stroke-linejoin="round" stroke-miterlimit="10" stroke-width="1.699"/>
            </g>
            <g id="g7271" transform="translate(23.004 -29.273)">
              <path id="path7273" d="M0,0S-5.638,13.084-12.838,22.22A35.409,35.409,0,0,0,6.109,27.856,35.409,35.409,0,0,0,25.056,22.22C17.857,13.084,12.218,0,12.218,0" fill="#fee372"/>
            </g>
            <g id="g7275" transform="translate(35.222 -29.274)">
              <path id="path7277" d="M0,0S5.638,13.084,12.838,22.22A35.41,35.41,0,0,1-6.109,27.856,34.944,34.944,0,0,1-17.7,25.824" fill="none" stroke="#000" stroke-linecap="round" stroke-linejoin="round" stroke-miterlimit="10" stroke-width="1.699"/>
            </g>
            <g id="g7279" transform="translate(14.374 -4.726)">
              <path id="path7281" d="M0,0A27.981,27.981,0,0,1-4.208-2.328c7.2-9.136,12.838-22.22,12.838-22.22" fill="none" stroke="#000" stroke-linecap="round" stroke-linejoin="round" stroke-miterlimit="10" stroke-width="1.699"/>
            </g>
            <g id="g7283" transform="translate(37.227 -50.987)">
              <path id="path7285" d="M0,0A8.1,8.1,0,0,0-2.557-5.882,13.815,13.815,0,0,0-4.383,0" fill="none" stroke="#000" stroke-linecap="round" stroke-linejoin="round" stroke-miterlimit="10" stroke-width="1.699"/>
            </g>
            <g id="g7287" transform="translate(21.125 -38.694)">
              <path id="path7289" d="M0,0H15.976" fill="none" stroke="#000" stroke-linecap="round" stroke-linejoin="round" stroke-miterlimit="10" stroke-width="1.699"/>
            </g>
            <g id="g7291" transform="translate(21.125 -34.732)">
              <path id="path7293" d="M0,0H15.976" fill="none" stroke="#000" stroke-linecap="round" stroke-linejoin="round" stroke-miterlimit="10" stroke-width="1.699"/>
            </g>
          </g>
        </g>
      </g>
    </g>
  </g>
</svg>
