<svg xmlns="http://www.w3.org/2000/svg" width="82.29" height="76.935" viewBox="0 0 82.29 76.935">
  <g id="Layer_x0020_1" transform="translate(0 -141)">
    <g id="_461245912" transform="translate(0 141)">
      <g id="Grupo_1102445" data-name="Grupo 1102445">
        <g id="Grupo_1102427" data-name="Grupo 1102427" transform="translate(16.952 1.727)">
          <g id="Grupo_1102422" data-name="Grupo 1102422" transform="translate(0 3.643)">
            <path id="Trazado_893213" data-name="Trazado 893213" d="M939.038,473.294h-1.063c-.531,0-1.272-.076-2.069-.076H897.391c-2.525,0-3.607,0-4.138-.854-.531-.873-.076-1.746.8-3.417.342-.607.664-1.329,1.139-2.278.8-1.67,1.67-3.4,2.468-5.068,4.081-8.352,8.371-16.856,7.156-23.671a3.144,3.144,0,0,1,1.272-3.265,2.866,2.866,0,0,0,1.2-2.752,4.463,4.463,0,0,0-1.253-2.866,3.066,3.066,0,0,1-.949-2.62c.266-.987,1.348-1.67,3.74-2.468a1.029,1.029,0,0,1,1.215.531,8.523,8.523,0,0,0,7.213,5.087,8.427,8.427,0,0,0,7.213-5.087,1.029,1.029,0,0,1,1.215-.531c2.411.8,3.474,1.481,3.74,2.468.342,1.006-.342,1.822-.93,2.62a4.7,4.7,0,0,0-1.272,2.866,2.866,2.866,0,0,0,1.2,2.752,3.05,3.05,0,0,1,1.272,3.265c-1.2,6.815,3.018,15.376,7.156,23.595,1.006,2.012,2.012,4.005,2.942,6.017.19.531.474.93.607,1.348.93,1.936,1.329,2.79.8,3.664C940.784,473.161,940.1,473.294,939.038,473.294Zm-41.305-2.069h38.173c.8,0,1.537,0,2.126.057h1.215a15.531,15.531,0,0,0-.74-1.538c-.209-.4-.4-.854-.664-1.329-.873-1.936-1.936-3.948-2.885-5.96-4.271-8.542-8.675-17.369-7.289-24.848.152-.816,0-.949-.589-1.4a4.961,4.961,0,0,1-1.879-4.29,6.789,6.789,0,0,1,1.67-4.138,3.6,3.6,0,0,0,.531-.8,4.489,4.489,0,0,0-1.67-.873,9.569,9.569,0,0,1-17.236,0,4.493,4.493,0,0,0-1.67.873,3.6,3.6,0,0,0,.532.8,6.373,6.373,0,0,1,1.67,4.138,4.962,4.962,0,0,1-1.879,4.29c-.531.456-.721.588-.589,1.4,1.329,7.479-3.075,16.306-7.289,24.848-.8,1.67-1.67,3.417-2.468,5.087-.474.93-.816,1.67-1.139,2.335a12.349,12.349,0,0,0-.664,1.348c.455.057,1.329.057,2.2.057h.531Z" transform="translate(-893.026 -423.92)" fill="#ff494f" fill-rule="evenodd"/>
          </g>
          <g id="Grupo_1102423" data-name="Grupo 1102423" transform="translate(2.695 38.439)">
            <path id="Trazado_893214" data-name="Trazado 893214" d="M1076.989,2264.953h-40.983a1,1,0,1,1,0-1.993h40.983a1,1,0,1,1,0,1.993Zm-2.942-5.941h-35.1a1.006,1.006,0,1,1,0-2.012h35.1a1.038,1.038,0,0,1,1.006,1.005A1,1,0,0,1,1074.046,2259.012Z" transform="translate(-1035 -2257)" fill="#ff494f" fill-rule="evenodd"/>
          </g>
          <g id="Grupo_1102424" data-name="Grupo 1102424" transform="translate(21.677 50.948)">
            <path id="Trazado_893215" data-name="Trazado 893215" d="M2039.024,2935.438a1.009,1.009,0,0,1-1.006-.987v-17.444a1,1,0,1,1,1.993,0v17.444A1,1,0,0,1,2039.024,2935.438Zm-3.018,0a1.021,1.021,0,0,1-1.006-.987v-17.444a1.006,1.006,0,1,1,2.012,0v17.444A1.021,1.021,0,0,1,2036.006,2935.438Z" transform="translate(-2035 -2916)" fill="#ff494f" fill-rule="evenodd"/>
          </g>
          <g id="Grupo_1102425" data-name="Grupo 1102425" transform="translate(6.985 68.393)">
            <path id="Trazado_893216" data-name="Trazado 893216" d="M1294.409,3840.011h-32.421a1.022,1.022,0,0,1-.987-1.006v-3a1.009,1.009,0,0,1,.987-1.006h32.365a1.026,1.026,0,0,1,1.006,1.006v3A.953.953,0,0,1,1294.409,3840.011ZM1262.993,3838h30.353v-1.006h-30.353Z" transform="translate(-1261 -3835)" fill="#ff494f" fill-rule="evenodd"/>
          </g>
          <g id="Grupo_1102426" data-name="Grupo 1102426" transform="translate(9.277)">
            <path id="Trazado_893217" data-name="Trazado 893217" d="M1385.131,250a.924.924,0,0,1-.8-.4,17.043,17.043,0,0,0-1.215-1.614,6.741,6.741,0,0,1-.854-6.625,3.791,3.791,0,0,1,3.607-2.259h.19a.982.982,0,0,1,.816.4l.057.057a6.472,6.472,0,0,1,1.67,4.157,4.891,4.891,0,0,1-1.879,4.271c-.531.475-.665.607-.588,1.063a1.027,1.027,0,0,1-.665,1.006A.616.616,0,0,0,1385.131,250Zm.532-8.96a1.818,1.818,0,0,0-1.538,1.139,4.708,4.708,0,0,0,.607,4.48.8.8,0,0,1,.19.266,4.86,4.86,0,0,1,.607-.531,2.865,2.865,0,0,0,1.2-2.752A4.558,4.558,0,0,0,1385.663,241.036Zm22.532,8.884a.722.722,0,0,1-.342-.057.939.939,0,0,1-.665-1.006c0-.475-.133-.607-.607-1.006a4.937,4.937,0,0,1-1.86-4.271,6.9,6.9,0,0,1,1.671-4.157l.057-.057a.982.982,0,0,1,.816-.4h.19a3.791,3.791,0,0,1,3.607,2.259,6.566,6.566,0,0,1-.873,6.625c-.4.531-.8,1.063-1.12,1.538A1,1,0,0,1,1408.195,249.919Zm-.475-8.884a4.135,4.135,0,0,0-1.006,2.544,2.835,2.835,0,0,0,1.215,2.733,4.943,4.943,0,0,1,.589.531c.076-.057.133-.133.209-.19a4.785,4.785,0,0,0,.607-4.48A2.486,2.486,0,0,0,1407.72,241.036Zm-11.029,2.2a9.963,9.963,0,0,1-6.15-2.468.961.961,0,0,1-.266-1.139,1.081,1.081,0,0,1,.93-.664h.474a5.172,5.172,0,0,0,0-4.024c-.266-.854-.474-1.67.076-2.335a1.716,1.716,0,0,1,1.4-.607h7.137a1.552,1.552,0,0,1,1.4.607c.532.664.266,1.481.076,2.335a5.525,5.525,0,0,0,0,4.024h.456a1,1,0,0,1,.949.664,1.168,1.168,0,0,1-.266,1.139A10.351,10.351,0,0,1,1396.692,243.237Zm-3.474-3a7.992,7.992,0,0,0,3.474.987,7.851,7.851,0,0,0,3.417-.987,7.053,7.053,0,0,1-.342-5.752,3.258,3.258,0,0,0,.133-.4h-6.416a3.222,3.222,0,0,1,.133.4A7.691,7.691,0,0,1,1393.218,240.238Z" transform="translate(-1381.748 -232)" fill="#ff494f" fill-rule="evenodd"/>
          </g>
        </g>
        <g id="Grupo_1102434" data-name="Grupo 1102434">
          <g id="Grupo_1102428" data-name="Grupo 1102428">
            <path id="Trazado_893218" data-name="Trazado 893218" d="M14.445,217.935H1.006A1.039,1.039,0,0,1,0,216.929V142.006A1.039,1.039,0,0,1,1.006,141H14.445a.973.973,0,0,1,.987,1.006v75A.957.957,0,0,1,14.445,217.935ZM2.012,215.923H13.439V143.012H2.012Z" transform="translate(0 -141)" fill="#ff494f" fill-rule="evenodd"/>
          </g>
          <g id="Grupo_1102433" data-name="Grupo 1102433" transform="translate(69.513 0.057)">
            <g id="Grupo_1102429" data-name="Grupo 1102429" transform="translate(0 9.168)">
              <path id="Trazado_893219" data-name="Trazado 893219" d="M3673.693,688.692h-10.687a1.039,1.039,0,0,1-1.006-1.006v-59.68a1.039,1.039,0,0,1,1.006-1.006h10.687a1.025,1.025,0,0,1,1.006,1.006v59.68A.988.988,0,0,1,3673.693,688.692Zm-9.625-2.012h8.694V629.012h-8.694Z" transform="translate(-3662 -627)" fill="#ff494f" fill-rule="evenodd"/>
            </g>
            <g id="Grupo_1102430" data-name="Grupo 1102430" transform="translate(0.039)">
              <path id="Trazado_893220" data-name="Trazado 893220" d="M3665.11,155.181a1.5,1.5,0,0,1-.55-.152.911.911,0,0,1-.323-1.329l5.334-9.225a.994.994,0,0,1,.874-.475,1.165,1.165,0,0,1,.873.475l5.353,9.225a1.022,1.022,0,1,1-1.746,1.063l-4.48-7.688-4.48,7.688A1.271,1.271,0,0,1,3665.11,155.181Z" transform="translate(-3664.068 -144)" fill="#ff494f" fill-rule="evenodd"/>
            </g>
            <g id="Grupo_1102431" data-name="Grupo 1102431" transform="translate(0.076 68.791)">
              <path id="Trazado_893221" data-name="Trazado 893221" d="M3674.618,3776.087h-4.613a4.018,4.018,0,0,1-4-4.005v-3.075a1,1,0,1,1,1.993,0v3.075a2.06,2.06,0,0,0,2.012,1.993h4.613a2.06,2.06,0,0,0,2.012-1.993v-3.075a1,1,0,1,1,1.993,0v3.075A4.018,4.018,0,0,1,3674.618,3776.087Z" transform="translate(-3666 -3768)" fill="#ff494f" fill-rule="evenodd"/>
            </g>
            <g id="Grupo_1102432" data-name="Grupo 1102432" transform="translate(5.353 9.168)">
              <path id="Trazado_893222" data-name="Trazado 893222" d="M3945.007,688.692a1.038,1.038,0,0,1-1.006-1.006v-59.68a1.006,1.006,0,1,1,2.012,0v59.68A1,1,0,0,1,3945.007,688.692Z" transform="translate(-3944 -627)" fill="#ff494f" fill-rule="evenodd"/>
            </g>
          </g>
        </g>
        <g id="Grupo_1102444" data-name="Grupo 1102444" transform="translate(0.209 5.486)">
          <g id="Grupo_1102435" data-name="Grupo 1102435">
            <path id="Trazado_893223" data-name="Trazado 893223" d="M18.08,431.993H11.987a1,1,0,0,1,0-1.993H18.08a1,1,0,1,1,0,1.993Z" transform="translate(-11 -430)" fill="#ff494f" fill-rule="evenodd"/>
          </g>
          <g id="Grupo_1102436" data-name="Grupo 1102436" transform="translate(0 8.01)">
            <path id="Trazado_893224" data-name="Trazado 893224" d="M18.08,854.012H11.987a1.006,1.006,0,0,1,0-2.012H18.08a1.006,1.006,0,0,1,0,2.012Z" transform="translate(-11 -852)" fill="#ff494f" fill-rule="evenodd"/>
          </g>
          <g id="Grupo_1102437" data-name="Grupo 1102437" transform="translate(0 15.964)">
            <path id="Trazado_893225" data-name="Trazado 893225" d="M18.08,1273.012H11.987a1.006,1.006,0,0,1,0-2.012H18.08a1.006,1.006,0,0,1,0,2.012Z" transform="translate(-11 -1271)" fill="#ff494f" fill-rule="evenodd"/>
          </g>
          <g id="Grupo_1102438" data-name="Grupo 1102438" transform="translate(0 23.993)">
            <path id="Trazado_893226" data-name="Trazado 893226" d="M18.08,1695.993H11.987a1,1,0,0,1,0-1.993H18.08a1,1,0,1,1,0,1.993Z" transform="translate(-11 -1694)" fill="#ff494f" fill-rule="evenodd"/>
          </g>
          <g id="Grupo_1102439" data-name="Grupo 1102439" transform="translate(0 31.947)">
            <path id="Trazado_893227" data-name="Trazado 893227" d="M18.08,2115.012H11.987a1.006,1.006,0,0,1,0-2.012H18.08a1.006,1.006,0,0,1,0,2.012Z" transform="translate(-11 -2113)" fill="#ff494f" fill-rule="evenodd"/>
          </g>
          <g id="Grupo_1102440" data-name="Grupo 1102440" transform="translate(0 39.958)">
            <path id="Trazado_893228" data-name="Trazado 893228" d="M18.08,2537.012H11.987a1.006,1.006,0,0,1,0-2.012H18.08a1.006,1.006,0,0,1,0,2.012Z" transform="translate(-11 -2535)" fill="#ff494f" fill-rule="evenodd"/>
          </g>
          <g id="Grupo_1102441" data-name="Grupo 1102441" transform="translate(0 47.987)">
            <path id="Trazado_893229" data-name="Trazado 893229" d="M18.08,2960.012H11.987a1.006,1.006,0,0,1,0-2.012H18.08a1.006,1.006,0,0,1,0,2.012Z" transform="translate(-11 -2958)" fill="#ff494f" fill-rule="evenodd"/>
          </g>
          <g id="Grupo_1102442" data-name="Grupo 1102442" transform="translate(0 56.016)">
            <path id="Trazado_893230" data-name="Trazado 893230" d="M18.08,3382.993H11.987a1,1,0,0,1,0-1.993H18.08a1,1,0,1,1,0,1.993Z" transform="translate(-11 -3381)" fill="#ff494f" fill-rule="evenodd"/>
          </g>
          <g id="Grupo_1102443" data-name="Grupo 1102443" transform="translate(0 63.97)">
            <path id="Trazado_893231" data-name="Trazado 893231" d="M18.08,3801.994H11.987a1,1,0,0,1,0-1.994H18.08a1,1,0,1,1,0,1.994Z" transform="translate(-11 -3800)" fill="#ff494f" fill-rule="evenodd"/>
          </g>
        </g>
      </g>
    </g>
  </g>
</svg>
