<svg xmlns="http://www.w3.org/2000/svg" xmlns:xlink="http://www.w3.org/1999/xlink" width="95" height="95" viewBox="0 0 95 95">
  <defs>
    <clipPath id="clip-path">
      <rect id="Rectángulo_401647" data-name="Rectángulo 401647" width="56.623" height="41.879" fill="#448075"/>
    </clipPath>
  </defs>
  <g id="Grupo_1102037" data-name="Grupo 1102037" transform="translate(11602 11876)">
    <g id="Grupo_1099958" data-name="Grupo 1099958" transform="translate(-26 -10)">
      <g id="Grupo_1099582" data-name="Grupo 1099582" transform="translate(-12507.333 -12200)">
        <g id="Grupo_1099328" data-name="Grupo 1099328" transform="translate(931.818 334.485)">
          <g id="Grupo_1098744" data-name="Grupo 1098744" transform="translate(0 0)">
            <g id="Grupo_1098741" data-name="Grupo 1098741">
              <g id="Rectángulo_400898" data-name="Rectángulo 400898" transform="translate(-0.485 -0.485)" fill="#fff" stroke="#fff" stroke-width="3" opacity="0.859">
                <rect width="95" height="95" rx="47.5" stroke="none"/>
                <rect x="1.5" y="1.5" width="92" height="92" rx="46" fill="none"/>
              </g>
              <g id="Rectángulo_400907" data-name="Rectángulo 400907" transform="translate(-0.485 -0.485)" fill="none" stroke="#fff" stroke-width="3">
                <rect width="95" height="95" rx="47.5" stroke="none"/>
                <rect x="1.5" y="1.5" width="92" height="92" rx="46" fill="none"/>
              </g>
            </g>
          </g>
        </g>
      </g>
    </g>
    <g id="Grupo_1100221" data-name="Grupo 1100221" transform="translate(-11582.593 -11849.439)">
      <g id="Grupo_1100198" data-name="Grupo 1100198" clip-path="url(#clip-path)">
        <path id="Trazado_887082" data-name="Trazado 887082" d="M43.512,23.7c3.6,0,7.008,0,10.414,0,2.055,0,2.694.648,2.7,2.727q0,6.44-.005,12.88c0,1.811-.717,2.552-2.515,2.553-11.112.006-22.224.061-33.335-.033A26.761,26.761,0,0,1,6.058,37.567C3.166,35.674.857,33.282.173,29.716a10.173,10.173,0,0,1-.141-1.881C.02,23.5.1,19.162,0,14.83A11.347,11.347,0,0,1,4.4,5.481,23.138,23.138,0,0,1,15.466.609,32.312,32.312,0,0,1,34.388,2.522a16.634,16.634,0,0,1,7.14,5.446,9.886,9.886,0,0,1,1.989,6c-.022,3.19-.006,6.38-.006,9.732m-20.565.031c1.137-.162,3.407-.354,5.614-.832a17.436,17.436,0,0,0,8.6-4.238c3.084-2.943,3.155-6.582.018-9.465a15.926,15.926,0,0,0-4.394-2.877,27.118,27.118,0,0,0-20.644-.524A18.6,18.6,0,0,0,6.457,9.164c-3.243,2.824-3.212,6.5-.061,9.409a17.85,17.85,0,0,0,4.277,2.834c3.5,1.7,7.278,2.256,12.274,2.322M42.353,27.75H40.821c-6.6,0-13.21.066-19.814-.029A27.323,27.323,0,0,1,5.725,23.3c-.5-.34-.991-.706-1.65-1.176,0,1.964.03,3.718-.009,5.47a6.062,6.062,0,0,0,1.546,4.288C9,35.7,13.561,36.9,18.486,37.618c0-1.595-.013-3.02,0-4.445.017-1.511.753-2.383,1.995-2.407,1.292-.025,2.039.862,2.05,2.458.01,1.5,0,2.994,0,4.5h3.385c.3-2.717.691-3.365,2.008-3.425,1.392-.063,1.856.63,2.268,3.433h3.325c0-1.5-.023-2.923.012-4.343a3.98,3.98,0,0,1,.272-1.585,1.792,1.792,0,0,1,2.113-1,1.978,1.978,0,0,1,1.644,2.1c.031,1.588.008,3.176.008,4.826h4.752a10.859,10.859,0,0,1,.03-9.973M52.474,37.807V27.751c-1.64,0-3.191-.021-4.74.019a1.3,1.3,0,0,0-.835.4,6.985,6.985,0,0,0-.04,9.138,1.317,1.317,0,0,0,.812.472c1.585.045,3.171.022,4.8.022M39.464,23.648l-.071-1.5-1.943,1.5Z" transform="translate(0.001 0)" fill="#448075"/>
        <path id="Trazado_887083" data-name="Trazado 887083" d="M59.781,30.174a10.562,10.562,0,0,1,6.814,2.189,4.973,4.973,0,0,1-.025,8.116c-3.491,2.865-9.919,2.89-13.415.052-2.93-2.379-2.929-5.915.027-8.268a10.606,10.606,0,0,1,6.6-2.09m0,3.762a30.348,30.348,0,0,0-3.916,1.405c-1.141.587-1.085,1.369-.069,2.137,1.921,1.453,6.053,1.476,8.007.045,1.066-.781,1.119-1.627-.07-2.223a30.229,30.229,0,0,0-3.951-1.363" transform="translate(-38.037 -22.522)" fill="#448075"/>
        <path id="Trazado_887084" data-name="Trazado 887084" d="M186.751,125.341a2.12,2.12,0,0,1-2.082-1.953,2.029,2.029,0,0,1,1.919-2.08,1.967,1.967,0,0,1,2.112,1.984,2.02,2.02,0,0,1-1.948,2.048" transform="translate(-137.834 -90.542)" fill="#448075"/>
      </g>
    </g>
  </g>
</svg>
