<svg xmlns="http://www.w3.org/2000/svg" xmlns:xlink="http://www.w3.org/1999/xlink" width="95" height="95" viewBox="0 0 95 95">
  <defs>
    <clipPath id="clip-path">
      <rect id="Rectángulo_401653" data-name="Rectángulo 401653" width="30.917" height="66.55" transform="translate(0 0)" fill="#448075"/>
    </clipPath>
  </defs>
  <g id="Grupo_1102035" data-name="Grupo 1102035" transform="translate(11939 11872)">
    <g id="Grupo_1099580" data-name="Grupo 1099580" transform="translate(-12769.333 -12077)">
      <g id="Grupo_1099329" data-name="Grupo 1099329" transform="translate(830.818 205.485)">
        <g id="Grupo_1098744" data-name="Grupo 1098744" transform="translate(0 0)">
          <g id="Grupo_1098741" data-name="Grupo 1098741">
            <g id="Rectángulo_400898" data-name="Rectángulo 400898" transform="translate(-0.485 -0.485)" fill="#fff" stroke="#fff" stroke-width="3" opacity="0.859">
              <rect width="95" height="95" rx="47.5" stroke="none"/>
              <rect x="1.5" y="1.5" width="92" height="92" rx="46" fill="none"/>
            </g>
            <g id="Rectángulo_400907" data-name="Rectángulo 400907" transform="translate(-0.485 -0.485)" fill="none" stroke="#fff" stroke-width="3">
              <rect width="95" height="95" rx="47.5" stroke="none"/>
              <rect x="1.5" y="1.5" width="92" height="92" rx="46" fill="none"/>
            </g>
          </g>
        </g>
      </g>
    </g>
    <g id="Grupo_1100220" data-name="Grupo 1100220" transform="translate(-11906.791 -11859.447)" clip-path="url(#clip-path)">
      <path id="Trazado_887090" data-name="Trazado 887090" d="M15.4,50.663c-3.213,0-6.427.006-9.639,0-2.754-.006-3.869-1.334-3.577-4.049A27.45,27.45,0,0,1,4.4,38.618c2.826-6.545,3.493-13.231.7-19.932A40.8,40.8,0,0,0,1.335,12.26C.312,10.7-.5,9.161.366,7.3A4.739,4.739,0,0,1,4.841,4.541,5.5,5.5,0,0,0,10.3.682.9.9,0,0,1,11.316,0c2.749.022,5.5.026,8.247,0A.968.968,0,0,1,20.64.756a5.5,5.5,0,0,0,5.4,3.776,4.969,4.969,0,0,1,3.573,1.437,4.267,4.267,0,0,1,.13,6.008A24.115,24.115,0,0,0,24.2,24.953,25.888,25.888,0,0,0,26.343,38.2,28.513,28.513,0,0,1,28.7,46.6c.281,2.743-.8,4.058-3.553,4.066-3.249.009-6.5,0-9.747,0" transform="translate(0 0)" fill="#448075"/>
      <path id="Trazado_887091" data-name="Trazado 887091" d="M29.111,101.716H6.118C5.6,99.2,6.517,98.044,9,98.042q8.558-.009,17.116,0c2.511,0,3.348,1,3,3.675" transform="translate(-2.144 -35.165)" fill="#448075"/>
      <path id="Trazado_887092" data-name="Trazado 887092" d="M24.913,86.153c0,1.068-.022,2.137.006,3.2.019.7-.182,1.048-.965,1.027-3.519-.092-2.822.525-2.89-2.822-.032-1.566.008-3.133-.01-4.7-.006-.607.174-.924.852-.908,3.663.088,2.917-.564,3.006,2.81.012.463,0,.926,0,1.389" transform="translate(-7.551 -29.396)" fill="#448075"/>
    </g>
  </g>
</svg>
