<svg xmlns="http://www.w3.org/2000/svg" xmlns:xlink="http://www.w3.org/1999/xlink" width="95" height="95" viewBox="0 0 95 95">
  <defs>
    <clipPath id="clip-path">
      <rect id="Rectángulo_401654" data-name="Rectángulo 401654" width="57.515" height="55.881" fill="#448075"/>
    </clipPath>
  </defs>
  <g id="Grupo_1102036" data-name="Grupo 1102036" transform="translate(11772 11872)">
    <g id="Grupo_1099581" data-name="Grupo 1099581" transform="translate(-13016.333 -12295)">
      <g id="Grupo_1099329" data-name="Grupo 1099329" transform="translate(1244.818 423.485)">
        <g id="Grupo_1098744" data-name="Grupo 1098744" transform="translate(0 0)">
          <g id="Grupo_1098741" data-name="Grupo 1098741">
            <g id="Rectángulo_400898" data-name="Rectángulo 400898" transform="translate(-0.485 -0.485)" fill="#fff" stroke="#fff" stroke-width="3" opacity="0.859">
              <rect width="95" height="95" rx="47.5" stroke="none"/>
              <rect x="1.5" y="1.5" width="92" height="92" rx="46" fill="none"/>
            </g>
            <g id="Rectángulo_400907" data-name="Rectángulo 400907" transform="translate(-0.485 -0.485)" fill="none" stroke="#fff" stroke-width="3">
              <rect width="95" height="95" rx="47.5" stroke="none"/>
              <rect x="1.5" y="1.5" width="92" height="92" rx="46" fill="none"/>
            </g>
          </g>
        </g>
      </g>
    </g>
    <g id="Grupo_1100223" data-name="Grupo 1100223" transform="translate(-11752.762 -11851.793)">
      <g id="Grupo_1100222" data-name="Grupo 1100222" clip-path="url(#clip-path)">
        <path id="Trazado_887093" data-name="Trazado 887093" d="M36.672,28.672c3.218,3.205,6.314,6.288,9.41,9.373.98.976,1.975,1.937,2.93,2.938a9.582,9.582,0,0,1-.06,13.691c-.336.347-.618.747-.995,1.207L28.786,36.723l-19,19A9.6,9.6,0,0,1,8.538,40.9c3.716-3.789,7.5-7.515,11.26-11.259a10.054,10.054,0,0,1,1.1-.816c-1.493-1.475-2.762-2.784-4.109-4.007-.236-.214-.825-.163-1.211-.07A12.556,12.556,0,1,1,9.761.318a12.432,12.432,0,0,1,15.17,10.424,22.616,22.616,0,0,1-.229,4.872,1.491,1.491,0,0,0,.39,1.483c1.182,1.088,2.295,2.249,3.44,3.376.046.046.134.05.353.126,1.232-1.249,2.537-2.523,3.766-3.868.2-.218.15-.765.064-1.124A12.546,12.546,0,0,1,56.4,7.582,11.928,11.928,0,0,1,54.56,20.511c-3.259,3.958-7.572,5.283-12.572,4.211a1.686,1.686,0,0,0-1.844.537c-1.074,1.141-2.231,2.2-3.472,3.414M47.459,51.149c.337-.614.438-.766.509-.93,1.067-2.478.466-5.042-1.727-7.235q-12.13-12.133-24.3-24.232a2.535,2.535,0,0,1-.769-3.209A8.507,8.507,0,0,0,19.03,6.062a8.7,8.7,0,0,0-9.3-2.215,9.15,9.15,0,1,0,6.364,17.139,1.7,1.7,0,0,1,2.189.454q14.158,14.229,28.371,28.4a7.424,7.424,0,0,1,.809,1.307M31.308,22.893l3.16,3.3c1.344-1.349,2.8-2.643,4.049-4.115a2.676,2.676,0,0,1,3.572-.869,8.914,8.914,0,0,0,9.97-2.918,9.183,9.183,0,1,0-15.526-1.981,1.321,1.321,0,0,1-.336,1.734c-1.7,1.618-3.343,3.3-4.889,4.844M23.15,31.207c-4.267,4.224-8.5,8.329-12.626,12.536A5.734,5.734,0,0,0,9.7,50.566L26.024,34.261,23.15,31.207" transform="translate(0 0)" fill="#448075"/>
        <path id="Trazado_887094" data-name="Trazado 887094" d="M21.1,27.245a6.306,6.306,0,1,1,6.285,6.377A6.308,6.308,0,0,1,21.1,27.245m6.279-2.884a2.919,2.919,0,0,0-2.9,2.932,2.928,2.928,0,1,0,2.9-2.932" transform="translate(-14.842 -14.745)" fill="#448075"/>
        <path id="Trazado_887095" data-name="Trazado 887095" d="M94.536,92.74a1.661,1.661,0,1,1-3.321-.055,1.661,1.661,0,1,1,3.321.055" transform="translate(-64.148 -64.017)" fill="#448075"/>
        <path id="Trazado_887096" data-name="Trazado 887096" d="M142.637,27.279a6.307,6.307,0,1,1-6.353-6.31,6.317,6.317,0,0,1,6.353,6.31m-6.275-2.916a2.927,2.927,0,0,0-2.962,2.874,2.929,2.929,0,1,0,5.858.065,2.921,2.921,0,0,0-2.9-2.939" transform="translate(-91.44 -14.747)" fill="#448075"/>
      </g>
    </g>
  </g>
</svg>
