<svg xmlns="http://www.w3.org/2000/svg" width="400" height="298.034" viewBox="0 0 400 298.034">
  <g id="Grupo_1102534" data-name="Grupo 1102534" transform="translate(-1020 -5837.585)">
    <g id="Grupo_1102533" data-name="Grupo 1102533">
      <g id="Grupo_1102532" data-name="Grupo 1102532">
        <path id="Trazado_893349" data-name="Trazado 893349" d="M10,0H390a10,10,0,0,1,10,10V288.034a10,10,0,0,1-10,10H10a10,10,0,0,1-10-10V10A10,10,0,0,1,10,0Z" transform="translate(1020 5837.585)" fill="#f8f7fd"/>
        <g id="Grupo_1102087" data-name="Grupo 1102087" transform="translate(1084 5859.584)">
          <g id="Grupo_1102224" data-name="Grupo 1102224">
            <path id="Trazado_892587" data-name="Trazado 892587" d="M218.555-.284l.322.316A56.643,56.643,0,0,0,243.2,14.044,55.235,55.235,0,0,0,257.742,16.3c.232,0,.357,0,.358,0l.781-.024-.007.781L256.717,238.52l-49.451-.364-70.878,4.3-85.3,14.694H-.253l.008-.758L1.913,50.69l.749.007.517,0c11.316,0,20.362-3.366,26.886-10.006,5.966-6.071,8.708-13.831,9.958-19.271a48.418,48.418,0,0,0,1.295-10.451L41.3,9.916l68.062,22.442-.316.749C99.757,55.1,94.621,73.976,93.781,89.206c-.686,12.433,1.476,22.521,6.426,29.985,9.019,13.6,24.6,14.656,29.158,14.656.638,0,1-.022,1.005-.023h.014c10.043-.446,17.6-4.4,22.465-11.75,4.268-6.451,6.557-15.607,6.8-27.216a154.392,154.392,0,0,0-3.33-32.506,278.7,278.7,0,0,0-6.9-27.2c-2.129-6.935-3.772-11.349-3.789-11.392l-.276-.738ZM257.367,17.8a57.7,57.7,0,0,1-14.576-2.316A60.834,60.834,0,0,1,230.564,10.5a57.2,57.2,0,0,1-12.412-9.082L147.306,23.977c.554,1.539,1.905,5.39,3.542,10.717a280.286,280.286,0,0,1,6.942,27.349,155.932,155.932,0,0,1,3.362,32.837,73.426,73.426,0,0,1-1.78,15.254A39.617,39.617,0,0,1,154.1,122.9a26.441,26.441,0,0,1-9.387,8.737,32.441,32.441,0,0,1-14.257,3.684c-.062,0-.447.025-1.092.025a42.07,42.07,0,0,1-13.246-2.275,35.516,35.516,0,0,1-8.992-4.593,32.187,32.187,0,0,1-8.17-8.459c-5.133-7.739-7.378-18.134-6.673-30.9A124.366,124.366,0,0,1,96.46,64.535a241.763,241.763,0,0,1,10.888-31.261L42.8,11.991a52.363,52.363,0,0,1-1.318,9.768,48.126,48.126,0,0,1-3.444,10,36.929,36.929,0,0,1-6.906,9.99C24.36,48.639,15.029,52.156,3.4,52.2L1.263,255.646h49.7l85.254-14.686,71.011-4.3h.025l47.981.353Z" transform="translate(-0.234 -0.263)" fill="#12263f"/>
            <path id="Línea_150" data-name="Línea 150" d="M36.881,237.314-.741.117.741-.117l37.622,237.2Z" transform="translate(218.119 0.305)" fill="#12263f"/>
            <path id="Línea_151" data-name="Línea 151" d="M98.307.75H0V-.75H98.307Z" transform="translate(159.008 75.905)" fill="#12263f"/>
            <path id="Línea_153" data-name="Línea 153" d="M254.755.75H0V-.75H254.755Z" transform="translate(2 134.31)" fill="#12263f"/>
            <path id="Línea_154" data-name="Línea 154" d="M.75,103.3H-.75V0H.75Z" transform="translate(208.162 133.846)" fill="#12263f"/>
            <path id="Línea_155" data-name="Línea 155" d="M5.135,107.173-.749.041l1.5-.082L6.633,107.091Z" transform="translate(130.184 134.31)" fill="#12263f"/>
            <path id="Línea_156" data-name="Línea 156" d="M129.7.75H0V-.75H129.7Z" transform="translate(2.001 161.864)" fill="#12263f"/>
            <path id="Línea_157" data-name="Línea 157" d="M.75,94.269H-.75V0H.75Z" transform="translate(50.434 161.864)" fill="#12263f"/>
            <path id="Línea_158" data-name="Línea 158" d="M14.368,40.1-.7.265.7-.265l15.07,39.838Z" transform="translate(181.193 12.063)" fill="#12263f"/>
            <g id="Grupo_1102183" data-name="Grupo 1102183" transform="translate(1.251 17.638)">
              <g id="Grupo_1102184" data-name="Grupo 1102184">
                <path id="Línea_149" data-name="Línea 149" d="M90.5.75H0V-.75H90.5Z" transform="translate(0.8 75.791)" fill="#12263f"/>
              </g>
            </g>
            <path id="Trazado_892611" data-name="Trazado 892611" d="M101.813,140.354l-.117-.042A109.754,109.754,0,0,1,79.29,129.017a151.507,151.507,0,0,1-19.978-15.666,232.324,232.324,0,0,1-32-37.182A323.794,323.794,0,0,1,7.072,43.243C2.492,34.679.025,29.089,0,29.034l.915-.4c.024.055,2.482,5.621,7.047,14.156A322.766,322.766,0,0,0,28.143,75.61c15.938,22.655,41.665,52.084,73.768,63.717a28.862,28.862,0,0,0,7.543-3.027c4.554-2.429,11.993-7.3,21.569-16.694C147.941,103,174.9,68.774,207.281,0l.9.426c-14.352,30.486-28.855,56.8-43.1,78.226C153.674,95.8,142.4,109.87,131.57,120.469a124.663,124.663,0,0,1-12.488,10.81,72.636,72.636,0,0,1-9.283,5.97c-5.032,2.666-7.751,3.073-7.864,3.089Z" transform="translate(28.903 12.24)" fill="#ff494f"/>
          </g>
        </g>
        <path id="Trazado_893350" data-name="Trazado 893350" d="M3.2,0H2.386V-5.418l-1.639.6v-.738l2.329-.875H3.2ZM5.832.549h-.7L7.8-6.4H8.5ZM13.487,0H9.294V-.584l2.215-2.461a5.262,5.262,0,0,0,.679-.907,1.515,1.515,0,0,0,.187-.723,1.148,1.148,0,0,0-.3-.822,1.06,1.06,0,0,0-.809-.321,1.256,1.256,0,0,0-.943.345,1.318,1.318,0,0,0-.336.96H9.171A1.887,1.887,0,0,1,9.74-5.941a2.11,2.11,0,0,1,1.523-.545,2.027,2.027,0,0,1,1.411.468,1.6,1.6,0,0,1,.519,1.246,3.66,3.66,0,0,1-1.2,2.25L10.274-.664h3.212Zm5.08-.576a1.171,1.171,0,0,0,.76-.264.928.928,0,0,0,.36-.659h.769a1.474,1.474,0,0,1-.281.778,1.852,1.852,0,0,1-.692.589,2,2,0,0,1-.916.22A1.959,1.959,0,0,1,17.022-.56a2.582,2.582,0,0,1-.573-1.773V-2.47A2.863,2.863,0,0,1,16.7-3.7a1.941,1.941,0,0,1,.732-.839,2.078,2.078,0,0,1,1.127-.3,1.907,1.907,0,0,1,1.329.479,1.712,1.712,0,0,1,.565,1.244h-.769a1.12,1.12,0,0,0-.349-.758,1.087,1.087,0,0,0-.776-.3,1.138,1.138,0,0,0-.96.446,2.1,2.1,0,0,0-.341,1.29v.154A2.053,2.053,0,0,0,17.6-1.02,1.143,1.143,0,0,0,18.567-.576Zm5.739.105a1.727,1.727,0,0,1-1.393.558,1.478,1.478,0,0,1-1.158-.442,1.912,1.912,0,0,1-.4-1.307V-4.755h.813v3.072q0,1.081.879,1.081A1.217,1.217,0,0,0,24.284-1.3V-4.755H25.1V0h-.773Zm4,.558a2.078,2.078,0,0,1-1.573-.635,2.357,2.357,0,0,1-.606-1.7V-2.4a2.853,2.853,0,0,1,.27-1.263,2.108,2.108,0,0,1,.756-.87A1.9,1.9,0,0,1,28.2-4.843a1.781,1.781,0,0,1,1.441.611,2.645,2.645,0,0,1,.514,1.749v.338H26.938a1.69,1.69,0,0,0,.411,1.136,1.292,1.292,0,0,0,1,.433,1.416,1.416,0,0,0,.729-.176,1.833,1.833,0,0,0,.523-.466l.5.387A2,2,0,0,1,28.305.088Zm-.1-4.263a1.084,1.084,0,0,0-.826.358,1.741,1.741,0,0,0-.413,1h2.382v-.062a1.548,1.548,0,0,0-.334-.96A1.021,1.021,0,0,0,28.2-4.175ZM31.983,0H31.17V-6.75h.813Zm2.184,0h-.813V-6.75h.813Zm1.085-2.421a2.808,2.808,0,0,1,.275-1.257,2.049,2.049,0,0,1,.765-.861,2.081,2.081,0,0,1,1.118-.3,2.005,2.005,0,0,1,1.571.672,2.587,2.587,0,0,1,.6,1.789v.057a2.833,2.833,0,0,1-.266,1.246,2.019,2.019,0,0,1-.76.859,2.105,2.105,0,0,1-1.136.308,2,2,0,0,1-1.567-.672,2.574,2.574,0,0,1-.6-1.78Zm.817.1a2.034,2.034,0,0,0,.367,1.27,1.174,1.174,0,0,0,.982.479,1.167,1.167,0,0,0,.984-.486,2.224,2.224,0,0,0,.365-1.36A2.031,2.031,0,0,0,38.4-3.689a1.181,1.181,0,0,0-.987-.486,1.167,1.167,0,0,0-.971.479A2.208,2.208,0,0,0,36.07-2.325Zm6.561-.092a2.785,2.785,0,0,1,.519-1.76,1.64,1.64,0,0,1,1.358-.666,1.649,1.649,0,0,1,1.323.571V-6.75h.813V0H45.9l-.04-.51a1.656,1.656,0,0,1-1.358.6,1.624,1.624,0,0,1-1.347-.677,2.817,2.817,0,0,1-.521-1.767Zm.813.092a2.109,2.109,0,0,0,.334,1.266A1.08,1.08,0,0,0,44.7-.6,1.186,1.186,0,0,0,45.831-1.3V-3.48a1.2,1.2,0,0,0-1.121-.672,1.085,1.085,0,0,0-.932.461A2.322,2.322,0,0,0,43.444-2.325ZM49.878.088A2.078,2.078,0,0,1,48.3-.547a2.357,2.357,0,0,1-.606-1.7V-2.4a2.853,2.853,0,0,1,.27-1.263,2.108,2.108,0,0,1,.756-.87,1.9,1.9,0,0,1,1.052-.314,1.781,1.781,0,0,1,1.441.611,2.645,2.645,0,0,1,.514,1.749v.338H48.511a1.69,1.69,0,0,0,.411,1.136,1.292,1.292,0,0,0,1,.433,1.416,1.416,0,0,0,.729-.176,1.833,1.833,0,0,0,.523-.466l.5.387A2,2,0,0,1,49.878.088Zm-.1-4.263a1.084,1.084,0,0,0-.826.358,1.741,1.741,0,0,0-.413,1h2.382v-.062a1.548,1.548,0,0,0-.334-.96A1.021,1.021,0,0,0,49.777-4.175ZM53.556,0h-.813V-6.75h.813Zm4.236,0a1.708,1.708,0,0,1-.114-.5,1.814,1.814,0,0,1-1.354.589,1.678,1.678,0,0,1-1.154-.4,1.287,1.287,0,0,1-.45-1.009,1.344,1.344,0,0,1,.565-1.154,2.662,2.662,0,0,1,1.589-.411h.791v-.374a.913.913,0,0,0-.255-.679,1.024,1.024,0,0,0-.751-.253,1.185,1.185,0,0,0-.729.22.647.647,0,0,0-.294.532h-.817a1.122,1.122,0,0,1,.253-.688,1.725,1.725,0,0,1,.686-.525,2.306,2.306,0,0,1,.951-.193,1.88,1.88,0,0,1,1.288.411A1.482,1.482,0,0,1,58.478-3.3v2.188A2.676,2.676,0,0,0,58.645-.07V0ZM56.443-.62a1.429,1.429,0,0,0,.725-.2,1.2,1.2,0,0,0,.5-.514v-.976h-.637q-1.494,0-1.494.875a.74.74,0,0,0,.255.6A.98.98,0,0,0,56.443-.62Zm4.078-4.135.026.6a1.733,1.733,0,0,1,1.424-.686q1.507,0,1.521,1.7V0h-.813V-3.146a1.1,1.1,0,0,0-.235-.76.942.942,0,0,0-.719-.246,1.173,1.173,0,0,0-.694.211,1.432,1.432,0,0,0-.466.554V0h-.813V-4.755Zm5.3-1.151v1.151h.888v.628h-.888v2.952a.66.66,0,0,0,.119.429.5.5,0,0,0,.4.143,1.968,1.968,0,0,0,.387-.053V0a2.371,2.371,0,0,1-.624.087,1.012,1.012,0,0,1-.822-.33,1.416,1.416,0,0,1-.277-.936V-4.126h-.866v-.628h.866V-5.906ZM69.631.088a2.078,2.078,0,0,1-1.573-.635,2.357,2.357,0,0,1-.606-1.7V-2.4a2.853,2.853,0,0,1,.27-1.263,2.108,2.108,0,0,1,.756-.87,1.9,1.9,0,0,1,1.052-.314,1.781,1.781,0,0,1,1.441.611,2.645,2.645,0,0,1,.514,1.749v.338H68.265a1.69,1.69,0,0,0,.411,1.136,1.292,1.292,0,0,0,1,.433A1.416,1.416,0,0,0,70.4-.751a1.833,1.833,0,0,0,.523-.466l.5.387A2,2,0,0,1,69.631.088Zm-.1-4.263a1.084,1.084,0,0,0-.826.358,1.741,1.741,0,0,0-.413,1h2.382v-.062a1.548,1.548,0,0,0-.334-.96A1.021,1.021,0,0,0,69.53-4.175Zm5.194.149a2.436,2.436,0,0,0-.4-.031,1.071,1.071,0,0,0-1.085.681V0h-.813V-4.755h.791l.013.549a1.266,1.266,0,0,1,1.134-.637.831.831,0,0,1,.36.062Zm.444,1.6a2.808,2.808,0,0,1,.275-1.257,2.049,2.049,0,0,1,.765-.861,2.081,2.081,0,0,1,1.118-.3A2.005,2.005,0,0,1,78.9-4.17a2.587,2.587,0,0,1,.6,1.789v.057a2.833,2.833,0,0,1-.266,1.246,2.019,2.019,0,0,1-.76.859,2.105,2.105,0,0,1-1.136.308,2,2,0,0,1-1.567-.672,2.574,2.574,0,0,1-.6-1.78Zm.817.1a2.034,2.034,0,0,0,.367,1.27,1.174,1.174,0,0,0,.982.479,1.167,1.167,0,0,0,.984-.486,2.224,2.224,0,0,0,.365-1.36,2.031,2.031,0,0,0-.371-1.268,1.181,1.181,0,0,0-.987-.486,1.167,1.167,0,0,0-.971.479A2.208,2.208,0,0,0,75.986-2.325Z" transform="translate(1035 5888.584)" fill="#12263f"/>
        <path id="Trazado_893351" data-name="Trazado 893351" d="M3.2,0H2.386V-5.418l-1.639.6v-.738l2.329-.875H3.2ZM5.832.549h-.7L7.8-6.4H8.5ZM13.487,0H9.294V-.584l2.215-2.461a5.262,5.262,0,0,0,.679-.907,1.515,1.515,0,0,0,.187-.723,1.148,1.148,0,0,0-.3-.822,1.06,1.06,0,0,0-.809-.321,1.256,1.256,0,0,0-.943.345,1.318,1.318,0,0,0-.336.96H9.171A1.887,1.887,0,0,1,9.74-5.941a2.11,2.11,0,0,1,1.523-.545,2.027,2.027,0,0,1,1.411.468,1.6,1.6,0,0,1,.519,1.246,3.66,3.66,0,0,1-1.2,2.25L10.274-.664h3.212Zm5.08-.576a1.171,1.171,0,0,0,.76-.264.928.928,0,0,0,.36-.659h.769a1.474,1.474,0,0,1-.281.778,1.852,1.852,0,0,1-.692.589,2,2,0,0,1-.916.22A1.959,1.959,0,0,1,17.022-.56a2.582,2.582,0,0,1-.573-1.773V-2.47A2.863,2.863,0,0,1,16.7-3.7a1.941,1.941,0,0,1,.732-.839,2.078,2.078,0,0,1,1.127-.3,1.907,1.907,0,0,1,1.329.479,1.712,1.712,0,0,1,.565,1.244h-.769a1.12,1.12,0,0,0-.349-.758,1.087,1.087,0,0,0-.776-.3,1.138,1.138,0,0,0-.96.446,2.1,2.1,0,0,0-.341,1.29v.154A2.053,2.053,0,0,0,17.6-1.02,1.143,1.143,0,0,0,18.567-.576Zm5.739.105a1.727,1.727,0,0,1-1.393.558,1.478,1.478,0,0,1-1.158-.442,1.912,1.912,0,0,1-.4-1.307V-4.755h.813v3.072q0,1.081.879,1.081A1.217,1.217,0,0,0,24.284-1.3V-4.755H25.1V0h-.773Zm4,.558a2.078,2.078,0,0,1-1.573-.635,2.357,2.357,0,0,1-.606-1.7V-2.4a2.853,2.853,0,0,1,.27-1.263,2.108,2.108,0,0,1,.756-.87A1.9,1.9,0,0,1,28.2-4.843a1.781,1.781,0,0,1,1.441.611,2.645,2.645,0,0,1,.514,1.749v.338H26.938a1.69,1.69,0,0,0,.411,1.136,1.292,1.292,0,0,0,1,.433,1.416,1.416,0,0,0,.729-.176,1.833,1.833,0,0,0,.523-.466l.5.387A2,2,0,0,1,28.305.088Zm-.1-4.263a1.084,1.084,0,0,0-.826.358,1.741,1.741,0,0,0-.413,1h2.382v-.062a1.548,1.548,0,0,0-.334-.96A1.021,1.021,0,0,0,28.2-4.175ZM31.983,0H31.17V-6.75h.813Zm2.184,0h-.813V-6.75h.813Zm1.085-2.421a2.808,2.808,0,0,1,.275-1.257,2.049,2.049,0,0,1,.765-.861,2.081,2.081,0,0,1,1.118-.3,2.005,2.005,0,0,1,1.571.672,2.587,2.587,0,0,1,.6,1.789v.057a2.833,2.833,0,0,1-.266,1.246,2.019,2.019,0,0,1-.76.859,2.105,2.105,0,0,1-1.136.308,2,2,0,0,1-1.567-.672,2.574,2.574,0,0,1-.6-1.78Zm.817.1a2.034,2.034,0,0,0,.367,1.27,1.174,1.174,0,0,0,.982.479,1.167,1.167,0,0,0,.984-.486,2.224,2.224,0,0,0,.365-1.36A2.031,2.031,0,0,0,38.4-3.689a1.181,1.181,0,0,0-.987-.486,1.167,1.167,0,0,0-.971.479A2.208,2.208,0,0,0,36.07-2.325Zm6.561-.092a2.785,2.785,0,0,1,.519-1.76,1.64,1.64,0,0,1,1.358-.666,1.649,1.649,0,0,1,1.323.571V-6.75h.813V0H45.9l-.04-.51a1.656,1.656,0,0,1-1.358.6,1.624,1.624,0,0,1-1.347-.677,2.817,2.817,0,0,1-.521-1.767Zm.813.092a2.109,2.109,0,0,0,.334,1.266A1.08,1.08,0,0,0,44.7-.6,1.186,1.186,0,0,0,45.831-1.3V-3.48a1.2,1.2,0,0,0-1.121-.672,1.085,1.085,0,0,0-.932.461A2.322,2.322,0,0,0,43.444-2.325ZM49.878.088A2.078,2.078,0,0,1,48.3-.547a2.357,2.357,0,0,1-.606-1.7V-2.4a2.853,2.853,0,0,1,.27-1.263,2.108,2.108,0,0,1,.756-.87,1.9,1.9,0,0,1,1.052-.314,1.781,1.781,0,0,1,1.441.611,2.645,2.645,0,0,1,.514,1.749v.338H48.511a1.69,1.69,0,0,0,.411,1.136,1.292,1.292,0,0,0,1,.433,1.416,1.416,0,0,0,.729-.176,1.833,1.833,0,0,0,.523-.466l.5.387A2,2,0,0,1,49.878.088Zm-.1-4.263a1.084,1.084,0,0,0-.826.358,1.741,1.741,0,0,0-.413,1h2.382v-.062a1.548,1.548,0,0,0-.334-.96A1.021,1.021,0,0,0,49.777-4.175ZM53.556,0h-.813V-6.75h.813Zm4.236,0a1.708,1.708,0,0,1-.114-.5,1.814,1.814,0,0,1-1.354.589,1.678,1.678,0,0,1-1.154-.4,1.287,1.287,0,0,1-.45-1.009,1.344,1.344,0,0,1,.565-1.154,2.662,2.662,0,0,1,1.589-.411h.791v-.374a.913.913,0,0,0-.255-.679,1.024,1.024,0,0,0-.751-.253,1.185,1.185,0,0,0-.729.22.647.647,0,0,0-.294.532h-.817a1.122,1.122,0,0,1,.253-.688,1.725,1.725,0,0,1,.686-.525,2.306,2.306,0,0,1,.951-.193,1.88,1.88,0,0,1,1.288.411A1.482,1.482,0,0,1,58.478-3.3v2.188A2.676,2.676,0,0,0,58.645-.07V0ZM56.443-.62a1.429,1.429,0,0,0,.725-.2,1.2,1.2,0,0,0,.5-.514v-.976h-.637q-1.494,0-1.494.875a.74.74,0,0,0,.255.6A.98.98,0,0,0,56.443-.62Zm4.078-4.135.026.6a1.733,1.733,0,0,1,1.424-.686q1.507,0,1.521,1.7V0h-.813V-3.146a1.1,1.1,0,0,0-.235-.76.942.942,0,0,0-.719-.246,1.173,1.173,0,0,0-.694.211,1.432,1.432,0,0,0-.466.554V0h-.813V-4.755Zm5.3-1.151v1.151h.888v.628h-.888v2.952a.66.66,0,0,0,.119.429.5.5,0,0,0,.4.143,1.968,1.968,0,0,0,.387-.053V0a2.371,2.371,0,0,1-.624.087,1.012,1.012,0,0,1-.822-.33,1.416,1.416,0,0,1-.277-.936V-4.126h-.866v-.628h.866V-5.906ZM69.631.088a2.078,2.078,0,0,1-1.573-.635,2.357,2.357,0,0,1-.606-1.7V-2.4a2.853,2.853,0,0,1,.27-1.263,2.108,2.108,0,0,1,.756-.87,1.9,1.9,0,0,1,1.052-.314,1.781,1.781,0,0,1,1.441.611,2.645,2.645,0,0,1,.514,1.749v.338H68.265a1.69,1.69,0,0,0,.411,1.136,1.292,1.292,0,0,0,1,.433A1.416,1.416,0,0,0,70.4-.751a1.833,1.833,0,0,0,.523-.466l.5.387A2,2,0,0,1,69.631.088Zm-.1-4.263a1.084,1.084,0,0,0-.826.358,1.741,1.741,0,0,0-.413,1h2.382v-.062a1.548,1.548,0,0,0-.334-.96A1.021,1.021,0,0,0,69.53-4.175Zm5.194.149a2.436,2.436,0,0,0-.4-.031,1.071,1.071,0,0,0-1.085.681V0h-.813V-4.755h.791l.013.549a1.266,1.266,0,0,1,1.134-.637.831.831,0,0,1,.36.062Zm.444,1.6a2.808,2.808,0,0,1,.275-1.257,2.049,2.049,0,0,1,.765-.861,2.081,2.081,0,0,1,1.118-.3A2.005,2.005,0,0,1,78.9-4.17a2.587,2.587,0,0,1,.6,1.789v.057a2.833,2.833,0,0,1-.266,1.246,2.019,2.019,0,0,1-.76.859,2.105,2.105,0,0,1-1.136.308,2,2,0,0,1-1.567-.672,2.574,2.574,0,0,1-.6-1.78Zm.817.1a2.034,2.034,0,0,0,.367,1.27,1.174,1.174,0,0,0,.982.479,1.167,1.167,0,0,0,.984-.486,2.224,2.224,0,0,0,.365-1.36,2.031,2.031,0,0,0-.371-1.268,1.181,1.181,0,0,0-.987-.486,1.167,1.167,0,0,0-.971.479A2.208,2.208,0,0,0,75.986-2.325Z" transform="translate(1325 5865.584)" fill="#12263f"/>
        <path id="Trazado_893352" data-name="Trazado 893352" d="M5.449-2.03A2.354,2.354,0,0,1,4.7-.464,2.456,2.456,0,0,1,3.023.088,2.255,2.255,0,0,1,1.206-.725,3.271,3.271,0,0,1,.523-2.9v-.615A3.646,3.646,0,0,1,.842-5.084a2.38,2.38,0,0,1,.9-1.039A2.514,2.514,0,0,1,3.1-6.486a2.312,2.312,0,0,1,1.635.569,2.382,2.382,0,0,1,.716,1.575H4.6a1.838,1.838,0,0,0-.477-1.111A1.443,1.443,0,0,0,3.1-5.8a1.51,1.51,0,0,0-1.268.6,2.746,2.746,0,0,0-.459,1.7v.62a2.823,2.823,0,0,0,.435,1.658A1.406,1.406,0,0,0,3.023-.6,1.624,1.624,0,0,0,4.1-.921a1.768,1.768,0,0,0,.5-1.11Zm3,2.118A2.078,2.078,0,0,1,6.873-.547a2.357,2.357,0,0,1-.606-1.7V-2.4a2.853,2.853,0,0,1,.27-1.263,2.108,2.108,0,0,1,.756-.87,1.9,1.9,0,0,1,1.052-.314,1.781,1.781,0,0,1,1.441.611A2.645,2.645,0,0,1,10.3-2.483v.338H7.08A1.69,1.69,0,0,0,7.49-1.009a1.292,1.292,0,0,0,1,.433A1.416,1.416,0,0,0,9.22-.751a1.833,1.833,0,0,0,.523-.466l.5.387A2,2,0,0,1,8.446.088Zm-.1-4.263a1.084,1.084,0,0,0-.826.358,1.741,1.741,0,0,0-.413,1H9.488v-.062a1.548,1.548,0,0,0-.334-.96A1.021,1.021,0,0,0,8.345-4.175Zm3.665-.58.026.6a1.733,1.733,0,0,1,1.424-.686q1.507,0,1.521,1.7V0h-.813V-3.146a1.1,1.1,0,0,0-.235-.76.942.942,0,0,0-.719-.246,1.173,1.173,0,0,0-.694.211,1.432,1.432,0,0,0-.466.554V0h-.813V-4.755Zm5.3-1.151v1.151H18.2v.628H17.31v2.952a.66.66,0,0,0,.119.429.5.5,0,0,0,.4.143,1.968,1.968,0,0,0,.387-.053V0A2.371,2.371,0,0,1,17.6.088a1.012,1.012,0,0,1-.822-.33,1.416,1.416,0,0,1-.277-.936V-4.126h-.866v-.628H16.5V-5.906Zm4.135,1.881a2.436,2.436,0,0,0-.4-.031,1.071,1.071,0,0,0-1.085.681V0h-.813V-4.755h.791l.013.549a1.266,1.266,0,0,1,1.134-.637.831.831,0,0,1,.36.062Zm.444,1.6a2.808,2.808,0,0,1,.275-1.257,2.049,2.049,0,0,1,.765-.861,2.081,2.081,0,0,1,1.118-.3,2.005,2.005,0,0,1,1.571.672,2.587,2.587,0,0,1,.6,1.789v.057a2.833,2.833,0,0,1-.266,1.246,2.019,2.019,0,0,1-.76.859,2.105,2.105,0,0,1-1.136.308,2,2,0,0,1-1.567-.672,2.574,2.574,0,0,1-.6-1.78Zm.817.1a2.034,2.034,0,0,0,.367,1.27,1.174,1.174,0,0,0,.982.479,1.167,1.167,0,0,0,.984-.486,2.224,2.224,0,0,0,.365-1.36,2.031,2.031,0,0,0-.371-1.268,1.181,1.181,0,0,0-.987-.486,1.167,1.167,0,0,0-.971.479A2.208,2.208,0,0,0,22.707-2.325ZM31.438.088a2.078,2.078,0,0,1-1.573-.635,2.357,2.357,0,0,1-.606-1.7V-2.4a2.853,2.853,0,0,1,.27-1.263,2.108,2.108,0,0,1,.756-.87,1.9,1.9,0,0,1,1.052-.314,1.781,1.781,0,0,1,1.441.611,2.645,2.645,0,0,1,.514,1.749v.338H30.072a1.69,1.69,0,0,0,.411,1.136,1.292,1.292,0,0,0,1,.433,1.416,1.416,0,0,0,.729-.176,1.833,1.833,0,0,0,.523-.466l.5.387A2,2,0,0,1,31.438.088Zm-.1-4.263a1.084,1.084,0,0,0-.826.358,1.741,1.741,0,0,0-.413,1H32.48v-.062a1.548,1.548,0,0,0-.334-.96A1.021,1.021,0,0,0,31.337-4.175ZM37-1.261a.6.6,0,0,0-.248-.512,2.39,2.39,0,0,0-.866-.314,4.093,4.093,0,0,1-.98-.316,1.394,1.394,0,0,1-.536-.439A1.051,1.051,0,0,1,34.2-3.45a1.233,1.233,0,0,1,.494-.989,1.931,1.931,0,0,1,1.263-.4,1.987,1.987,0,0,1,1.312.417,1.326,1.326,0,0,1,.5,1.068h-.817a.734.734,0,0,0-.283-.576,1.062,1.062,0,0,0-.714-.242,1.111,1.111,0,0,0-.694.193.609.609,0,0,0-.25.505.493.493,0,0,0,.233.444,2.866,2.866,0,0,0,.842.286,4.385,4.385,0,0,1,.987.325,1.439,1.439,0,0,1,.56.455,1.118,1.118,0,0,1,.182.648A1.217,1.217,0,0,1,37.305-.3a2.138,2.138,0,0,1-1.323.385,2.394,2.394,0,0,1-1.011-.2,1.644,1.644,0,0,1-.688-.565,1.361,1.361,0,0,1-.248-.784h.813a.842.842,0,0,0,.327.648,1.27,1.27,0,0,0,.806.24,1.311,1.311,0,0,0,.74-.187A.574.574,0,0,0,37-1.261Zm5.889-1.063a2.847,2.847,0,0,1-.5,1.749,1.592,1.592,0,0,1-1.345.664,1.744,1.744,0,0,1-1.362-.549v2.29h-.813V-4.755h.743l.04.527a1.675,1.675,0,0,1,1.38-.615,1.621,1.621,0,0,1,1.356.646,2.878,2.878,0,0,1,.5,1.8Zm-.813-.092a2.1,2.1,0,0,0-.343-1.27,1.1,1.1,0,0,0-.94-.466,1.2,1.2,0,0,0-1.107.655v2.272a1.2,1.2,0,0,0,1.116.65,1.1,1.1,0,0,0,.929-.464A2.293,2.293,0,0,0,42.078-2.417ZM46.859,0a1.708,1.708,0,0,1-.114-.5,1.814,1.814,0,0,1-1.354.589,1.678,1.678,0,0,1-1.154-.4,1.287,1.287,0,0,1-.45-1.009,1.344,1.344,0,0,1,.565-1.154,2.662,2.662,0,0,1,1.589-.411h.791v-.374a.913.913,0,0,0-.255-.679,1.024,1.024,0,0,0-.751-.253,1.185,1.185,0,0,0-.729.22.647.647,0,0,0-.294.532h-.817a1.122,1.122,0,0,1,.253-.688,1.725,1.725,0,0,1,.686-.525,2.306,2.306,0,0,1,.951-.193,1.88,1.88,0,0,1,1.288.411A1.482,1.482,0,0,1,47.544-3.3v2.188A2.676,2.676,0,0,0,47.711-.07V0ZM45.51-.62a1.429,1.429,0,0,0,.725-.2,1.2,1.2,0,0,0,.5-.514v-.976h-.637q-1.494,0-1.494.875a.74.74,0,0,0,.255.6A.98.98,0,0,0,45.51-.62ZM49.7,0h-.813V-6.75H49.7Zm1.1-2.417a2.785,2.785,0,0,1,.519-1.76,1.64,1.64,0,0,1,1.358-.666A1.649,1.649,0,0,1,54-4.271V-6.75h.813V0H54.07l-.04-.51a1.656,1.656,0,0,1-1.358.6,1.624,1.624,0,0,1-1.347-.677,2.817,2.817,0,0,1-.521-1.767Zm.813.092a2.109,2.109,0,0,0,.334,1.266,1.08,1.08,0,0,0,.923.457A1.186,1.186,0,0,0,54-1.3V-3.48a1.2,1.2,0,0,0-1.121-.672,1.085,1.085,0,0,0-.932.461A2.322,2.322,0,0,0,51.618-2.325ZM59.014,0A1.708,1.708,0,0,1,58.9-.5a1.814,1.814,0,0,1-1.354.589,1.678,1.678,0,0,1-1.154-.4,1.287,1.287,0,0,1-.45-1.009,1.344,1.344,0,0,1,.565-1.154A2.662,2.662,0,0,1,58.1-2.883h.791v-.374a.913.913,0,0,0-.255-.679,1.024,1.024,0,0,0-.751-.253,1.185,1.185,0,0,0-.729.22.647.647,0,0,0-.294.532h-.817a1.122,1.122,0,0,1,.253-.688,1.725,1.725,0,0,1,.686-.525,2.306,2.306,0,0,1,.951-.193,1.88,1.88,0,0,1,1.288.411A1.482,1.482,0,0,1,59.7-3.3v2.188A2.676,2.676,0,0,0,59.867-.07V0ZM57.665-.62a1.429,1.429,0,0,0,.725-.2,1.2,1.2,0,0,0,.5-.514v-.976H58.25q-1.494,0-1.494.875a.74.74,0,0,0,.255.6A.98.98,0,0,0,57.665-.62Z" transform="translate(1353 6028.584) rotate(-90)" fill="#12263f"/>
        <path id="Trazado_893353" data-name="Trazado 893353" d="M5.449-2.03A2.354,2.354,0,0,1,4.7-.464,2.456,2.456,0,0,1,3.023.088,2.255,2.255,0,0,1,1.206-.725,3.271,3.271,0,0,1,.523-2.9v-.615A3.646,3.646,0,0,1,.842-5.084a2.38,2.38,0,0,1,.9-1.039A2.514,2.514,0,0,1,3.1-6.486a2.312,2.312,0,0,1,1.635.569,2.382,2.382,0,0,1,.716,1.575H4.6a1.838,1.838,0,0,0-.477-1.111A1.443,1.443,0,0,0,3.1-5.8a1.51,1.51,0,0,0-1.268.6,2.746,2.746,0,0,0-.459,1.7v.62a2.823,2.823,0,0,0,.435,1.658A1.406,1.406,0,0,0,3.023-.6,1.624,1.624,0,0,0,4.1-.921a1.768,1.768,0,0,0,.5-1.11Zm3,2.118A2.078,2.078,0,0,1,6.873-.547a2.357,2.357,0,0,1-.606-1.7V-2.4a2.853,2.853,0,0,1,.27-1.263,2.108,2.108,0,0,1,.756-.87,1.9,1.9,0,0,1,1.052-.314,1.781,1.781,0,0,1,1.441.611A2.645,2.645,0,0,1,10.3-2.483v.338H7.08A1.69,1.69,0,0,0,7.49-1.009a1.292,1.292,0,0,0,1,.433A1.416,1.416,0,0,0,9.22-.751a1.833,1.833,0,0,0,.523-.466l.5.387A2,2,0,0,1,8.446.088Zm-.1-4.263a1.084,1.084,0,0,0-.826.358,1.741,1.741,0,0,0-.413,1H9.488v-.062a1.548,1.548,0,0,0-.334-.96A1.021,1.021,0,0,0,8.345-4.175Zm3.665-.58.026.6a1.733,1.733,0,0,1,1.424-.686q1.507,0,1.521,1.7V0h-.813V-3.146a1.1,1.1,0,0,0-.235-.76.942.942,0,0,0-.719-.246,1.173,1.173,0,0,0-.694.211,1.432,1.432,0,0,0-.466.554V0h-.813V-4.755Zm5.3-1.151v1.151H18.2v.628H17.31v2.952a.66.66,0,0,0,.119.429.5.5,0,0,0,.4.143,1.968,1.968,0,0,0,.387-.053V0A2.371,2.371,0,0,1,17.6.088a1.012,1.012,0,0,1-.822-.33,1.416,1.416,0,0,1-.277-.936V-4.126h-.866v-.628H16.5V-5.906Zm4.135,1.881a2.436,2.436,0,0,0-.4-.031,1.071,1.071,0,0,0-1.085.681V0h-.813V-4.755h.791l.013.549a1.266,1.266,0,0,1,1.134-.637.831.831,0,0,1,.36.062Zm.444,1.6a2.808,2.808,0,0,1,.275-1.257,2.049,2.049,0,0,1,.765-.861,2.081,2.081,0,0,1,1.118-.3,2.005,2.005,0,0,1,1.571.672,2.587,2.587,0,0,1,.6,1.789v.057a2.833,2.833,0,0,1-.266,1.246,2.019,2.019,0,0,1-.76.859,2.105,2.105,0,0,1-1.136.308,2,2,0,0,1-1.567-.672,2.574,2.574,0,0,1-.6-1.78Zm.817.1a2.034,2.034,0,0,0,.367,1.27,1.174,1.174,0,0,0,.982.479,1.167,1.167,0,0,0,.984-.486,2.224,2.224,0,0,0,.365-1.36,2.031,2.031,0,0,0-.371-1.268,1.181,1.181,0,0,0-.987-.486,1.167,1.167,0,0,0-.971.479A2.208,2.208,0,0,0,22.707-2.325ZM29.865,0V-4.126h-.751v-.628h.751v-.488a1.619,1.619,0,0,1,.409-1.182,1.544,1.544,0,0,1,1.156-.417,2.147,2.147,0,0,1,.558.074l-.044.655a2.335,2.335,0,0,0-.439-.04.793.793,0,0,0-.611.231.939.939,0,0,0-.215.663v.5h1.015v.628H30.678V0Zm5.023-4.025a2.436,2.436,0,0,0-.4-.031,1.071,1.071,0,0,0-1.085.681V0H32.59V-4.755h.791l.013.549a1.266,1.266,0,0,1,1.134-.637.831.831,0,0,1,.36.062ZM37.525.088a2.078,2.078,0,0,1-1.573-.635,2.357,2.357,0,0,1-.606-1.7V-2.4a2.853,2.853,0,0,1,.27-1.263,2.108,2.108,0,0,1,.756-.87,1.9,1.9,0,0,1,1.052-.314,1.781,1.781,0,0,1,1.441.611,2.645,2.645,0,0,1,.514,1.749v.338H36.158a1.69,1.69,0,0,0,.411,1.136,1.292,1.292,0,0,0,1,.433A1.416,1.416,0,0,0,38.3-.751a1.833,1.833,0,0,0,.523-.466l.5.387A2,2,0,0,1,37.525.088Zm-.1-4.263a1.084,1.084,0,0,0-.826.358,1.741,1.741,0,0,0-.413,1h2.382v-.062a1.548,1.548,0,0,0-.334-.96A1.021,1.021,0,0,0,37.424-4.175Zm3.665-.58.026.6a1.733,1.733,0,0,1,1.424-.686q1.507,0,1.521,1.7V0h-.813V-3.146a1.1,1.1,0,0,0-.235-.76.942.942,0,0,0-.719-.246,1.173,1.173,0,0,0-.694.211,1.432,1.432,0,0,0-.466.554V0H40.32V-4.755Zm5.3-1.151v1.151h.888v.628h-.888v2.952a.66.66,0,0,0,.119.429.5.5,0,0,0,.4.143A1.968,1.968,0,0,0,47.3-.655V0a2.371,2.371,0,0,1-.624.087,1.012,1.012,0,0,1-.822-.33,1.416,1.416,0,0,1-.277-.936V-4.126H44.71v-.628h.866V-5.906ZM50.2.088a2.078,2.078,0,0,1-1.573-.635,2.357,2.357,0,0,1-.606-1.7V-2.4a2.853,2.853,0,0,1,.27-1.263,2.108,2.108,0,0,1,.756-.87A1.9,1.9,0,0,1,50.1-4.843a1.781,1.781,0,0,1,1.441.611,2.645,2.645,0,0,1,.514,1.749v.338H48.832a1.69,1.69,0,0,0,.411,1.136,1.292,1.292,0,0,0,1,.433,1.416,1.416,0,0,0,.729-.176,1.833,1.833,0,0,0,.523-.466l.5.387A2,2,0,0,1,50.2.088Zm-.1-4.263a1.084,1.084,0,0,0-.826.358,1.741,1.741,0,0,0-.413,1H51.24v-.062a1.548,1.548,0,0,0-.334-.96A1.021,1.021,0,0,0,50.1-4.175Z" transform="translate(1077 6028.584) rotate(-90)" fill="#12263f"/>
        <path id="Trazado_893354" data-name="Trazado 893354" d="M5.247-6.4v4.351A2.041,2.041,0,0,1,4.678-.567,2.293,2.293,0,0,1,3.146.079L2.922.088A2.4,2.4,0,0,1,1.248-.479a2.027,2.027,0,0,1-.633-1.56V-6.4H1.45v4.333A1.463,1.463,0,0,0,1.833-.987,1.469,1.469,0,0,0,2.922-.6a1.479,1.479,0,0,0,1.1-.382A1.461,1.461,0,0,0,4.4-2.061V-6.4Zm5.229,4.074a2.827,2.827,0,0,1-.5,1.751A1.6,1.6,0,0,1,8.631.088,1.658,1.658,0,0,1,7.238-.549L7.2,0H6.451V-6.75h.813v2.518a1.648,1.648,0,0,1,1.358-.611,1.61,1.61,0,0,1,1.36.655A2.912,2.912,0,0,1,10.477-2.4Zm-.813-.092A2.2,2.2,0,0,0,9.343-3.7a1.062,1.062,0,0,0-.923-.453,1.194,1.194,0,0,0-1.156.747v2.057A1.227,1.227,0,0,0,8.429-.6a1.056,1.056,0,0,0,.91-.453A2.336,2.336,0,0,0,9.664-2.417ZM12.384,0h-.813V-4.755h.813ZM11.5-6.016a.485.485,0,0,1,.121-.334.454.454,0,0,1,.358-.136.461.461,0,0,1,.36.136.48.48,0,0,1,.123.334.464.464,0,0,1-.123.33.469.469,0,0,1-.36.132.462.462,0,0,1-.358-.132A.469.469,0,0,1,11.5-6.016Zm4.087,5.44a1.171,1.171,0,0,0,.76-.264.928.928,0,0,0,.36-.659h.769a1.474,1.474,0,0,1-.281.778,1.852,1.852,0,0,1-.692.589,2,2,0,0,1-.916.22A1.959,1.959,0,0,1,14.047-.56a2.582,2.582,0,0,1-.573-1.773V-2.47A2.863,2.863,0,0,1,13.729-3.7a1.941,1.941,0,0,1,.732-.839,2.078,2.078,0,0,1,1.127-.3,1.907,1.907,0,0,1,1.329.479,1.712,1.712,0,0,1,.565,1.244h-.769a1.12,1.12,0,0,0-.349-.758,1.087,1.087,0,0,0-.776-.3,1.138,1.138,0,0,0-.96.446,2.1,2.1,0,0,0-.341,1.29v.154a2.053,2.053,0,0,0,.338,1.266A1.143,1.143,0,0,0,15.592-.576ZM21.331,0a1.708,1.708,0,0,1-.114-.5,1.814,1.814,0,0,1-1.354.589,1.678,1.678,0,0,1-1.154-.4,1.287,1.287,0,0,1-.45-1.009,1.344,1.344,0,0,1,.565-1.154,2.662,2.662,0,0,1,1.589-.411H21.2v-.374a.913.913,0,0,0-.255-.679,1.024,1.024,0,0,0-.751-.253,1.185,1.185,0,0,0-.729.22.647.647,0,0,0-.294.532h-.817a1.122,1.122,0,0,1,.253-.688,1.725,1.725,0,0,1,.686-.525,2.306,2.306,0,0,1,.951-.193,1.88,1.88,0,0,1,1.288.411A1.482,1.482,0,0,1,22.017-3.3v2.188A2.676,2.676,0,0,0,22.184-.07V0ZM19.982-.62a1.429,1.429,0,0,0,.725-.2,1.2,1.2,0,0,0,.5-.514v-.976h-.637q-1.494,0-1.494.875a.74.74,0,0,0,.255.6A.98.98,0,0,0,19.982-.62ZM25.2-.576a1.171,1.171,0,0,0,.76-.264.928.928,0,0,0,.36-.659h.769a1.474,1.474,0,0,1-.281.778,1.852,1.852,0,0,1-.692.589,2,2,0,0,1-.916.22A1.959,1.959,0,0,1,23.654-.56a2.582,2.582,0,0,1-.573-1.773V-2.47A2.863,2.863,0,0,1,23.335-3.7a1.941,1.941,0,0,1,.732-.839,2.078,2.078,0,0,1,1.127-.3,1.907,1.907,0,0,1,1.329.479,1.712,1.712,0,0,1,.565,1.244h-.769a1.12,1.12,0,0,0-.349-.758,1.087,1.087,0,0,0-.776-.3,1.138,1.138,0,0,0-.96.446,2.1,2.1,0,0,0-.341,1.29v.154a2.053,2.053,0,0,0,.338,1.266A1.143,1.143,0,0,0,25.2-.576ZM28.885,0h-.813V-4.755h.813Zm-.879-6.016a.485.485,0,0,1,.121-.334.454.454,0,0,1,.358-.136.461.461,0,0,1,.36.136.48.48,0,0,1,.123.334.464.464,0,0,1-.123.33.469.469,0,0,1-.36.132.462.462,0,0,1-.358-.132A.469.469,0,0,1,28.006-6.016Zm1.964,3.595a2.808,2.808,0,0,1,.275-1.257,2.049,2.049,0,0,1,.765-.861,2.081,2.081,0,0,1,1.118-.3A2.005,2.005,0,0,1,33.7-4.17a2.587,2.587,0,0,1,.6,1.789v.057a2.833,2.833,0,0,1-.266,1.246,2.019,2.019,0,0,1-.76.859,2.105,2.105,0,0,1-1.136.308,2,2,0,0,1-1.567-.672,2.574,2.574,0,0,1-.6-1.78Zm.817.1a2.034,2.034,0,0,0,.367,1.27,1.174,1.174,0,0,0,.982.479,1.167,1.167,0,0,0,.984-.486,2.224,2.224,0,0,0,.365-1.36,2.031,2.031,0,0,0-.371-1.268,1.181,1.181,0,0,0-.987-.486,1.167,1.167,0,0,0-.971.479A2.208,2.208,0,0,0,30.788-2.325ZM32.5-6.741h.984L32.3-5.449l-.655,0Zm3.59,1.986.026.6a1.733,1.733,0,0,1,1.424-.686q1.507,0,1.521,1.7V0h-.813V-3.146a1.1,1.1,0,0,0-.235-.76.942.942,0,0,0-.719-.246,1.173,1.173,0,0,0-.694.211,1.432,1.432,0,0,0-.466.554V0h-.813V-4.755Zm6.227,2.338a2.785,2.785,0,0,1,.519-1.76,1.64,1.64,0,0,1,1.358-.666,1.649,1.649,0,0,1,1.323.571V-6.75h.813V0H45.58l-.04-.51a1.656,1.656,0,0,1-1.358.6,1.624,1.624,0,0,1-1.347-.677,2.817,2.817,0,0,1-.521-1.767Zm.813.092a2.109,2.109,0,0,0,.334,1.266,1.08,1.08,0,0,0,.923.457A1.186,1.186,0,0,0,45.514-1.3V-3.48a1.2,1.2,0,0,0-1.121-.672,1.085,1.085,0,0,0-.932.461A2.322,2.322,0,0,0,43.128-2.325ZM49.562.088a2.078,2.078,0,0,1-1.573-.635,2.357,2.357,0,0,1-.606-1.7V-2.4a2.853,2.853,0,0,1,.27-1.263,2.108,2.108,0,0,1,.756-.87,1.9,1.9,0,0,1,1.052-.314,1.781,1.781,0,0,1,1.441.611,2.645,2.645,0,0,1,.514,1.749v.338H48.195a1.69,1.69,0,0,0,.411,1.136,1.292,1.292,0,0,0,1,.433,1.416,1.416,0,0,0,.729-.176,1.833,1.833,0,0,0,.523-.466l.5.387A2,2,0,0,1,49.562.088Zm-.1-4.263a1.084,1.084,0,0,0-.826.358,1.741,1.741,0,0,0-.413,1H50.6v-.062a1.548,1.548,0,0,0-.334-.96A1.021,1.021,0,0,0,49.46-4.175ZM58.6-2.325a2.847,2.847,0,0,1-.5,1.749A1.592,1.592,0,0,1,56.76.088,1.744,1.744,0,0,1,55.4-.461v2.29h-.813V-4.755h.743l.04.527a1.675,1.675,0,0,1,1.38-.615A1.621,1.621,0,0,1,58.1-4.2a2.878,2.878,0,0,1,.5,1.8Zm-.813-.092a2.1,2.1,0,0,0-.343-1.27,1.1,1.1,0,0,0-.94-.466A1.2,1.2,0,0,0,55.4-3.5v2.272a1.2,1.2,0,0,0,1.116.65,1.1,1.1,0,0,0,.929-.464A2.293,2.293,0,0,0,57.788-2.417ZM60.517,0H59.7V-4.755h.813Zm-.879-6.016a.485.485,0,0,1,.121-.334.454.454,0,0,1,.358-.136.461.461,0,0,1,.36.136.48.48,0,0,1,.123.334.464.464,0,0,1-.123.33.469.469,0,0,1-.36.132.462.462,0,0,1-.358-.132A.469.469,0,0,1,59.638-6.016Zm2.949,1.261.026.6a1.733,1.733,0,0,1,1.424-.686q1.507,0,1.521,1.7V0h-.813V-3.146a1.1,1.1,0,0,0-.235-.76.942.942,0,0,0-.719-.246,1.173,1.173,0,0,0-.694.211,1.432,1.432,0,0,0-.466.554V0h-.813V-4.755ZM67.548-.664H70.33V0H66.555V-.6l2.624-3.485H66.595v-.672h3.6v.576ZM74.18,0a1.708,1.708,0,0,1-.114-.5,1.814,1.814,0,0,1-1.354.589,1.678,1.678,0,0,1-1.154-.4,1.287,1.287,0,0,1-.45-1.009,1.344,1.344,0,0,1,.565-1.154,2.662,2.662,0,0,1,1.589-.411h.791v-.374a.913.913,0,0,0-.255-.679,1.024,1.024,0,0,0-.751-.253,1.185,1.185,0,0,0-.729.22.647.647,0,0,0-.294.532H71.2a1.122,1.122,0,0,1,.253-.688,1.725,1.725,0,0,1,.686-.525,2.306,2.306,0,0,1,.951-.193,1.88,1.88,0,0,1,1.288.411A1.482,1.482,0,0,1,74.865-3.3v2.188A2.676,2.676,0,0,0,75.032-.07V0ZM72.831-.62a1.429,1.429,0,0,0,.725-.2,1.2,1.2,0,0,0,.5-.514v-.976h-.637q-1.494,0-1.494.875a.74.74,0,0,0,.255.6A.98.98,0,0,0,72.831-.62Z" transform="translate(1130 6105.584) rotate(-90)" fill="#12263f"/>
        <path id="Trazado_893355" data-name="Trazado 893355" d="M5.247-6.4v4.351A2.041,2.041,0,0,1,4.678-.567,2.293,2.293,0,0,1,3.146.079L2.922.088A2.4,2.4,0,0,1,1.248-.479a2.027,2.027,0,0,1-.633-1.56V-6.4H1.45v4.333A1.463,1.463,0,0,0,1.833-.987,1.469,1.469,0,0,0,2.922-.6a1.479,1.479,0,0,0,1.1-.382A1.461,1.461,0,0,0,4.4-2.061V-6.4Zm5.229,4.074a2.827,2.827,0,0,1-.5,1.751A1.6,1.6,0,0,1,8.631.088,1.658,1.658,0,0,1,7.238-.549L7.2,0H6.451V-6.75h.813v2.518a1.648,1.648,0,0,1,1.358-.611,1.61,1.61,0,0,1,1.36.655A2.912,2.912,0,0,1,10.477-2.4Zm-.813-.092A2.2,2.2,0,0,0,9.343-3.7a1.062,1.062,0,0,0-.923-.453,1.194,1.194,0,0,0-1.156.747v2.057A1.227,1.227,0,0,0,8.429-.6a1.056,1.056,0,0,0,.91-.453A2.336,2.336,0,0,0,9.664-2.417ZM12.384,0h-.813V-4.755h.813ZM11.5-6.016a.485.485,0,0,1,.121-.334.454.454,0,0,1,.358-.136.461.461,0,0,1,.36.136.48.48,0,0,1,.123.334.464.464,0,0,1-.123.33.469.469,0,0,1-.36.132.462.462,0,0,1-.358-.132A.469.469,0,0,1,11.5-6.016Zm4.087,5.44a1.171,1.171,0,0,0,.76-.264.928.928,0,0,0,.36-.659h.769a1.474,1.474,0,0,1-.281.778,1.852,1.852,0,0,1-.692.589,2,2,0,0,1-.916.22A1.959,1.959,0,0,1,14.047-.56a2.582,2.582,0,0,1-.573-1.773V-2.47A2.863,2.863,0,0,1,13.729-3.7a1.941,1.941,0,0,1,.732-.839,2.078,2.078,0,0,1,1.127-.3,1.907,1.907,0,0,1,1.329.479,1.712,1.712,0,0,1,.565,1.244h-.769a1.12,1.12,0,0,0-.349-.758,1.087,1.087,0,0,0-.776-.3,1.138,1.138,0,0,0-.96.446,2.1,2.1,0,0,0-.341,1.29v.154a2.053,2.053,0,0,0,.338,1.266A1.143,1.143,0,0,0,15.592-.576ZM21.331,0a1.708,1.708,0,0,1-.114-.5,1.814,1.814,0,0,1-1.354.589,1.678,1.678,0,0,1-1.154-.4,1.287,1.287,0,0,1-.45-1.009,1.344,1.344,0,0,1,.565-1.154,2.662,2.662,0,0,1,1.589-.411H21.2v-.374a.913.913,0,0,0-.255-.679,1.024,1.024,0,0,0-.751-.253,1.185,1.185,0,0,0-.729.22.647.647,0,0,0-.294.532h-.817a1.122,1.122,0,0,1,.253-.688,1.725,1.725,0,0,1,.686-.525,2.306,2.306,0,0,1,.951-.193,1.88,1.88,0,0,1,1.288.411A1.482,1.482,0,0,1,22.017-3.3v2.188A2.676,2.676,0,0,0,22.184-.07V0ZM19.982-.62a1.429,1.429,0,0,0,.725-.2,1.2,1.2,0,0,0,.5-.514v-.976h-.637q-1.494,0-1.494.875a.74.74,0,0,0,.255.6A.98.98,0,0,0,19.982-.62ZM25.2-.576a1.171,1.171,0,0,0,.76-.264.928.928,0,0,0,.36-.659h.769a1.474,1.474,0,0,1-.281.778,1.852,1.852,0,0,1-.692.589,2,2,0,0,1-.916.22A1.959,1.959,0,0,1,23.654-.56a2.582,2.582,0,0,1-.573-1.773V-2.47A2.863,2.863,0,0,1,23.335-3.7a1.941,1.941,0,0,1,.732-.839,2.078,2.078,0,0,1,1.127-.3,1.907,1.907,0,0,1,1.329.479,1.712,1.712,0,0,1,.565,1.244h-.769a1.12,1.12,0,0,0-.349-.758,1.087,1.087,0,0,0-.776-.3,1.138,1.138,0,0,0-.96.446,2.1,2.1,0,0,0-.341,1.29v.154a2.053,2.053,0,0,0,.338,1.266A1.143,1.143,0,0,0,25.2-.576ZM28.885,0h-.813V-4.755h.813Zm-.879-6.016a.485.485,0,0,1,.121-.334.454.454,0,0,1,.358-.136.461.461,0,0,1,.36.136.48.48,0,0,1,.123.334.464.464,0,0,1-.123.33.469.469,0,0,1-.36.132.462.462,0,0,1-.358-.132A.469.469,0,0,1,28.006-6.016Zm1.964,3.595a2.808,2.808,0,0,1,.275-1.257,2.049,2.049,0,0,1,.765-.861,2.081,2.081,0,0,1,1.118-.3A2.005,2.005,0,0,1,33.7-4.17a2.587,2.587,0,0,1,.6,1.789v.057a2.833,2.833,0,0,1-.266,1.246,2.019,2.019,0,0,1-.76.859,2.105,2.105,0,0,1-1.136.308,2,2,0,0,1-1.567-.672,2.574,2.574,0,0,1-.6-1.78Zm.817.1a2.034,2.034,0,0,0,.367,1.27,1.174,1.174,0,0,0,.982.479,1.167,1.167,0,0,0,.984-.486,2.224,2.224,0,0,0,.365-1.36,2.031,2.031,0,0,0-.371-1.268,1.181,1.181,0,0,0-.987-.486,1.167,1.167,0,0,0-.971.479A2.208,2.208,0,0,0,30.788-2.325ZM32.5-6.741h.984L32.3-5.449l-.655,0Zm3.59,1.986.026.6a1.733,1.733,0,0,1,1.424-.686q1.507,0,1.521,1.7V0h-.813V-3.146a1.1,1.1,0,0,0-.235-.76.942.942,0,0,0-.719-.246,1.173,1.173,0,0,0-.694.211,1.432,1.432,0,0,0-.466.554V0h-.813V-4.755Zm6.227,2.338a2.785,2.785,0,0,1,.519-1.76,1.64,1.64,0,0,1,1.358-.666,1.649,1.649,0,0,1,1.323.571V-6.75h.813V0H45.58l-.04-.51a1.656,1.656,0,0,1-1.358.6,1.624,1.624,0,0,1-1.347-.677,2.817,2.817,0,0,1-.521-1.767Zm.813.092a2.109,2.109,0,0,0,.334,1.266,1.08,1.08,0,0,0,.923.457A1.186,1.186,0,0,0,45.514-1.3V-3.48a1.2,1.2,0,0,0-1.121-.672,1.085,1.085,0,0,0-.932.461A2.322,2.322,0,0,0,43.128-2.325ZM49.562.088a2.078,2.078,0,0,1-1.573-.635,2.357,2.357,0,0,1-.606-1.7V-2.4a2.853,2.853,0,0,1,.27-1.263,2.108,2.108,0,0,1,.756-.87,1.9,1.9,0,0,1,1.052-.314,1.781,1.781,0,0,1,1.441.611,2.645,2.645,0,0,1,.514,1.749v.338H48.195a1.69,1.69,0,0,0,.411,1.136,1.292,1.292,0,0,0,1,.433,1.416,1.416,0,0,0,.729-.176,1.833,1.833,0,0,0,.523-.466l.5.387A2,2,0,0,1,49.562.088Zm-.1-4.263a1.084,1.084,0,0,0-.826.358,1.741,1.741,0,0,0-.413,1H50.6v-.062a1.548,1.548,0,0,0-.334-.96A1.021,1.021,0,0,0,49.46-4.175ZM58.6-2.325a2.847,2.847,0,0,1-.5,1.749A1.592,1.592,0,0,1,56.76.088,1.744,1.744,0,0,1,55.4-.461v2.29h-.813V-4.755h.743l.04.527a1.675,1.675,0,0,1,1.38-.615A1.621,1.621,0,0,1,58.1-4.2a2.878,2.878,0,0,1,.5,1.8Zm-.813-.092a2.1,2.1,0,0,0-.343-1.27,1.1,1.1,0,0,0-.94-.466A1.2,1.2,0,0,0,55.4-3.5v2.272a1.2,1.2,0,0,0,1.116.65,1.1,1.1,0,0,0,.929-.464A2.293,2.293,0,0,0,57.788-2.417ZM60.517,0H59.7V-4.755h.813Zm-.879-6.016a.485.485,0,0,1,.121-.334.454.454,0,0,1,.358-.136.461.461,0,0,1,.36.136.48.48,0,0,1,.123.334.464.464,0,0,1-.123.33.469.469,0,0,1-.36.132.462.462,0,0,1-.358-.132A.469.469,0,0,1,59.638-6.016Zm2.949,1.261.026.6a1.733,1.733,0,0,1,1.424-.686q1.507,0,1.521,1.7V0h-.813V-3.146a1.1,1.1,0,0,0-.235-.76.942.942,0,0,0-.719-.246,1.173,1.173,0,0,0-.694.211,1.432,1.432,0,0,0-.466.554V0h-.813V-4.755ZM67.548-.664H70.33V0H66.555V-.6l2.624-3.485H66.595v-.672h3.6v.576ZM74.18,0a1.708,1.708,0,0,1-.114-.5,1.814,1.814,0,0,1-1.354.589,1.678,1.678,0,0,1-1.154-.4,1.287,1.287,0,0,1-.45-1.009,1.344,1.344,0,0,1,.565-1.154,2.662,2.662,0,0,1,1.589-.411h.791v-.374a.913.913,0,0,0-.255-.679,1.024,1.024,0,0,0-.751-.253,1.185,1.185,0,0,0-.729.22.647.647,0,0,0-.294.532H71.2a1.122,1.122,0,0,1,.253-.688,1.725,1.725,0,0,1,.686-.525,2.306,2.306,0,0,1,.951-.193,1.88,1.88,0,0,1,1.288.411A1.482,1.482,0,0,1,74.865-3.3v2.188A2.676,2.676,0,0,0,75.032-.07V0ZM72.831-.62a1.429,1.429,0,0,0,.725-.2,1.2,1.2,0,0,0,.5-.514v-.976h-.637q-1.494,0-1.494.875a.74.74,0,0,0,.255.6A.98.98,0,0,0,72.831-.62Z" transform="translate(1286 6082.584) rotate(-90)" fill="#12263f"/>
        <path id="Trazado_893356" data-name="Trazado 893356" d="M5.66,0H4.812V-2.958H1.586V0H.743V-6.4h.844v2.751H4.812V-6.4H5.66ZM6.816-2.421a2.808,2.808,0,0,1,.275-1.257,2.049,2.049,0,0,1,.765-.861,2.081,2.081,0,0,1,1.118-.3,2.005,2.005,0,0,1,1.571.672,2.587,2.587,0,0,1,.6,1.789v.057a2.833,2.833,0,0,1-.266,1.246,2.019,2.019,0,0,1-.76.859A2.105,2.105,0,0,1,8.982.088,2,2,0,0,1,7.416-.584a2.574,2.574,0,0,1-.6-1.78Zm.817.1A2.034,2.034,0,0,0,8-1.055a1.174,1.174,0,0,0,.982.479,1.167,1.167,0,0,0,.984-.486,2.224,2.224,0,0,0,.365-1.36A2.031,2.031,0,0,0,9.96-3.689a1.181,1.181,0,0,0-.987-.486A1.167,1.167,0,0,0,8-3.7,2.208,2.208,0,0,0,7.633-2.325Zm5.3-2.43.022.527a1.756,1.756,0,0,1,1.411-.615,1.359,1.359,0,0,1,1.358.765,1.8,1.8,0,0,1,.617-.554,1.824,1.824,0,0,1,.9-.211q1.564,0,1.591,1.657V0h-.813V-3.138A1.092,1.092,0,0,0,17.78-3.9,1.026,1.026,0,0,0,17-4.153a1.078,1.078,0,0,0-.751.27,1.1,1.1,0,0,0-.347.727V0h-.817V-3.116a.907.907,0,0,0-1.015-1.037,1.088,1.088,0,0,0-1.094.681V0H12.16V-4.755Zm11.149,2.43a2.827,2.827,0,0,1-.5,1.751,1.6,1.6,0,0,1-1.345.661,1.658,1.658,0,0,1-1.393-.637L20.8,0h-.747V-6.75h.813v2.518a1.648,1.648,0,0,1,1.358-.611,1.61,1.61,0,0,1,1.36.655A2.912,2.912,0,0,1,24.078-2.4Zm-.813-.092A2.2,2.2,0,0,0,22.944-3.7a1.062,1.062,0,0,0-.923-.453,1.194,1.194,0,0,0-1.156.747v2.057A1.227,1.227,0,0,0,22.03-.6a1.056,1.056,0,0,0,.91-.453A2.336,2.336,0,0,0,23.265-2.417ZM27.4-4.025a2.436,2.436,0,0,0-.4-.031,1.071,1.071,0,0,0-1.085.681V0H25.1V-4.755h.791l.013.549a1.266,1.266,0,0,1,1.134-.637.831.831,0,0,1,.36.062Zm.444,1.6a2.808,2.808,0,0,1,.275-1.257,2.049,2.049,0,0,1,.765-.861A2.081,2.081,0,0,1,30-4.843a2.005,2.005,0,0,1,1.571.672,2.587,2.587,0,0,1,.6,1.789v.057a2.833,2.833,0,0,1-.266,1.246,2.019,2.019,0,0,1-.76.859A2.105,2.105,0,0,1,30.01.088a2,2,0,0,1-1.567-.672,2.574,2.574,0,0,1-.6-1.78Zm.817.1a2.034,2.034,0,0,0,.367,1.27,1.174,1.174,0,0,0,.982.479,1.167,1.167,0,0,0,.984-.486,2.224,2.224,0,0,0,.365-1.36,2.031,2.031,0,0,0-.371-1.268A1.181,1.181,0,0,0,30-4.175a1.167,1.167,0,0,0-.971.479A2.208,2.208,0,0,0,28.661-2.325Z" transform="translate(1146 5873.584)" fill="#12263f"/>
      </g>
    </g>
  </g>
</svg>
