<svg xmlns="http://www.w3.org/2000/svg" width="470.949" height="138.034" viewBox="0 0 470.949 138.034">
  <g id="Grupo_1102517" data-name="Grupo 1102517" transform="translate(-529.051 -1009)">
    <path id="Trazado_893286" data-name="Trazado 893286" d="M10,0H460.949a10,10,0,0,1,10,10V128.034a10,10,0,0,1-10,10H10a10,10,0,0,1-10-10V10A10,10,0,0,1,10,0Z" transform="translate(529.051 1009)" fill="#fff"/>
    <g id="Grupo_1102044" data-name="Grupo 1102044" transform="translate(-15.313 0.303)">
      <rect id="Rect치ngulo_402126" data-name="Rect치ngulo 402126" width="1.543" height="82.603" transform="translate(811.45 1036.896)" fill="#12263f"/>
      <path id="Trazado_892503" data-name="Trazado 892503" d="M48.962,17.3a39.916,39.916,0,0,1-4.4,10.2l4.4-2.053,4.4,2.053a39.859,39.859,0,0,1-4.4-10.2" transform="translate(763.26 1012.398)" fill="#12263f"/>
      <path id="Trazado_892504" data-name="Trazado 892504" d="M48.962,203.363a39.915,39.915,0,0,0-4.4-10.2l4.4,2.053,4.4-2.053a39.859,39.859,0,0,0-4.4,10.2" transform="translate(763.26 923.334)" fill="#12263f"/>
    </g>
    <g id="Grupo_1102045" data-name="Grupo 1102045" transform="translate(21.688 0.303)">
      <rect id="Rect치ngulo_402126-2" data-name="Rect치ngulo 402126" width="1.543" height="88.603" transform="translate(811.45 1030.896)" fill="#12263f"/>
      <path id="Trazado_892504-2" data-name="Trazado 892504" d="M48.962,203.363a39.915,39.915,0,0,0-4.4-10.2l4.4,2.053,4.4-2.053a39.859,39.859,0,0,0-4.4,10.2" transform="translate(763.26 923.334)" fill="#12263f"/>
    </g>
    <path id="Trazado_893287" data-name="Trazado 893287" d="M8.8,0H7.485V-4.6H2.468V0H1.155V-9.953H2.468v4.279H7.485V-9.953H8.8Zm3.507,0H11.047V-7.4h1.265ZM10.944-9.358a.755.755,0,0,1,.188-.52.706.706,0,0,1,.557-.212.717.717,0,0,1,.561.212.747.747,0,0,1,.191.52.722.722,0,0,1-.191.513.73.73,0,0,1-.561.205.718.718,0,0,1-.557-.205A.73.73,0,0,1,10.944-9.358ZM15.709,0H14.444V-10.5h1.265ZM17.4-3.767a4.369,4.369,0,0,1,.427-1.955,3.187,3.187,0,0,1,1.189-1.34,3.238,3.238,0,0,1,1.74-.472A3.119,3.119,0,0,1,23.2-6.487a4.024,4.024,0,0,1,.933,2.782v.089a4.407,4.407,0,0,1-.414,1.938A3.14,3.14,0,0,1,22.535-.342a3.275,3.275,0,0,1-1.767.479A3.111,3.111,0,0,1,18.331-.909,4,4,0,0,1,17.4-3.678Zm1.271.15a3.164,3.164,0,0,0,.571,1.976A1.827,1.827,0,0,0,20.768-.9,1.816,1.816,0,0,0,22.3-1.651a3.46,3.46,0,0,0,.567-2.116,3.159,3.159,0,0,0-.578-1.972,1.836,1.836,0,0,0-1.535-.755,1.816,1.816,0,0,0-1.511.745A3.434,3.434,0,0,0,18.669-3.616ZM28.875-3.76A4.333,4.333,0,0,1,29.682-6.5a2.551,2.551,0,0,1,2.112-1.036,2.565,2.565,0,0,1,2.058.889V-10.5h1.265V0H33.954l-.062-.793a2.575,2.575,0,0,1-2.112.93,2.526,2.526,0,0,1-2.1-1.053,4.382,4.382,0,0,1-.81-2.748Zm1.265.144a3.281,3.281,0,0,0,.52,1.969,1.68,1.68,0,0,0,1.436.711,1.845,1.845,0,0,0,1.757-1.08v-3.4A1.859,1.859,0,0,0,32.108-6.46a1.687,1.687,0,0,0-1.449.718A3.612,3.612,0,0,0,30.14-3.616ZM40.147.137A3.232,3.232,0,0,1,37.7-.851a3.666,3.666,0,0,1-.943-2.642v-.232a4.438,4.438,0,0,1,.42-1.965,3.28,3.28,0,0,1,1.176-1.354,2.956,2.956,0,0,1,1.637-.489,2.77,2.77,0,0,1,2.242.95,4.114,4.114,0,0,1,.8,2.721v.526H38.021a2.629,2.629,0,0,0,.639,1.767A2.009,2.009,0,0,0,40.216-.9a2.2,2.2,0,0,0,1.135-.273,2.851,2.851,0,0,0,.813-.725l.772.6A3.106,3.106,0,0,1,40.147.137ZM39.99-6.494a1.687,1.687,0,0,0-1.285.557,2.708,2.708,0,0,0-.643,1.562h3.705v-.1a2.409,2.409,0,0,0-.52-1.494A1.588,1.588,0,0,0,39.99-6.494ZM45.869,0H44.6V-10.5h1.265Zm7.205-9.187V-7.4h1.381v.978H53.074v4.593a1.027,1.027,0,0,0,.185.667.777.777,0,0,0,.629.222,3.062,3.062,0,0,0,.6-.082V0a3.688,3.688,0,0,1-.971.136A1.575,1.575,0,0,1,52.24-.376a2.2,2.2,0,0,1-.431-1.456V-6.419H50.463V-7.4H51.81V-9.187ZM59,.137a3.232,3.232,0,0,1-2.447-.988,3.666,3.666,0,0,1-.943-2.642v-.232a4.438,4.438,0,0,1,.42-1.965,3.28,3.28,0,0,1,1.176-1.354,2.956,2.956,0,0,1,1.637-.489,2.77,2.77,0,0,1,2.242.95,4.114,4.114,0,0,1,.8,2.721v.526H56.875a2.629,2.629,0,0,0,.639,1.767A2.009,2.009,0,0,0,59.069-.9,2.2,2.2,0,0,0,60.2-1.169a2.851,2.851,0,0,0,.813-.725l.772.6A3.106,3.106,0,0,1,59,.137Zm-.157-6.631a1.687,1.687,0,0,0-1.285.557,2.708,2.708,0,0,0-.643,1.562h3.705v-.1a2.409,2.409,0,0,0-.52-1.494A1.588,1.588,0,0,0,58.844-6.494Zm5.811-.9V.854q0,2.133-1.935,2.133a2.36,2.36,0,0,1-.772-.122V1.859a2.445,2.445,0,0,0,.574.055.859.859,0,0,0,.646-.229,1.133,1.133,0,0,0,.222-.8V-7.4ZM63.26-9.358a.758.758,0,0,1,.188-.516A.691.691,0,0,1,64-10.09a.717.717,0,0,1,.561.212.747.747,0,0,1,.191.52.722.722,0,0,1-.191.513A.73.73,0,0,1,64-8.641a.707.707,0,0,1-.554-.205A.738.738,0,0,1,63.26-9.358ZM68.065,0H66.8V-7.4h1.265ZM66.7-9.358a.755.755,0,0,1,.188-.52.706.706,0,0,1,.557-.212A.717.717,0,0,1,68-9.878a.747.747,0,0,1,.191.52A.722.722,0,0,1,68-8.846a.73.73,0,0,1-.561.205.718.718,0,0,1-.557-.205A.73.73,0,0,1,66.7-9.358Zm3.083,5.6A4.333,4.333,0,0,1,70.588-6.5,2.551,2.551,0,0,1,72.7-7.533a2.565,2.565,0,0,1,2.058.889V-10.5h1.265V0H74.86L74.8-.793a2.575,2.575,0,0,1-2.112.93,2.526,2.526,0,0,1-2.1-1.053,4.382,4.382,0,0,1-.81-2.748Zm1.265.144a3.281,3.281,0,0,0,.52,1.969A1.68,1.68,0,0,0,73-.937a1.845,1.845,0,0,0,1.757-1.08v-3.4A1.859,1.859,0,0,0,73.015-6.46a1.687,1.687,0,0,0-1.449.718A3.612,3.612,0,0,0,71.046-3.616Zm6.6-.15a4.369,4.369,0,0,1,.427-1.955,3.187,3.187,0,0,1,1.189-1.34,3.238,3.238,0,0,1,1.74-.472A3.119,3.119,0,0,1,83.45-6.487a4.024,4.024,0,0,1,.933,2.782v.089a4.407,4.407,0,0,1-.414,1.938A3.14,3.14,0,0,1,82.787-.342,3.275,3.275,0,0,1,81.02.137,3.111,3.111,0,0,1,78.583-.909a4,4,0,0,1-.933-2.769Zm1.271.15a3.164,3.164,0,0,0,.571,1.976A1.827,1.827,0,0,0,81.02-.9a1.816,1.816,0,0,0,1.531-.755,3.46,3.46,0,0,0,.567-2.116,3.159,3.159,0,0,0-.578-1.972,1.836,1.836,0,0,0-1.535-.755,1.816,1.816,0,0,0-1.511.745A3.434,3.434,0,0,0,78.921-3.616Z" transform="translate(690.738 1084.5)" fill="#12263f"/>
  </g>
</svg>
