<svg xmlns="http://www.w3.org/2000/svg" width="400" height="473.034" viewBox="0 0 400 473.034">
  <g id="Grupo_1102537" data-name="Grupo 1102537" transform="translate(-180 -6851.369)">
    <g id="Grupo_1102536" data-name="Grupo 1102536">
      <g id="Grupo_1102535" data-name="Grupo 1102535">
        <path id="Trazado_893357" data-name="Trazado 893357" d="M10,0H390a10,10,0,0,1,10,10V463.034a10,10,0,0,1-10,10H10a10,10,0,0,1-10-10V10A10,10,0,0,1,10,0Z" transform="translate(180 6851.369)" fill="#f8f7fd"/>
        <path id="Trazado_892614" data-name="Trazado 892614" d="M103.08,28.711s-17,20.667-9.667,32.333c0,0,3.667,31.334,31.667,31.334v144H86.413l-71-14,9-76S63.08,155.044,48.08,85.711c0,0-20.333-30.333,18-85Z" transform="translate(235.494 6884.232)" fill="none" stroke="#12263f" stroke-miterlimit="10" stroke-width="1.5"/>
        <path id="Trazado_892615" data-name="Trazado 892615" d="M3.913,53.711S20.58,59.878,40.746,91.044L76.58,75.878,92.549,59.372,125.08,211.044,48.379,87.122l44.17-27.75-47.62,19" transform="translate(235.494 6884.232)" fill="none" stroke="#12263f" stroke-miterlimit="10" stroke-width="1.5"/>
        <path id="Trazado_892616" data-name="Trazado 892616" d="M125.08,211.044s-42.9-44.511-76.7-123.922" transform="translate(235.494 6884.232)" fill="none" stroke="#12263f" stroke-miterlimit="10" stroke-width="1.5"/>
        <path id="Trazado_893380" data-name="Trazado 893380" d="M0,0H100.667" transform="translate(259.907 7030.61)" fill="none" stroke="#12263f" stroke-width="1.5"/>
        <path id="Trazado_893381" data-name="Trazado 893381" d="M0,90V0" transform="translate(321.907 7030.61)" fill="none" stroke="#12263f" stroke-width="1.5"/>
        <path id="Trazado_892617" data-name="Trazado 892617" d="M263.191,40.044l-38-31.556s-33.778,30-25.333,72.889c0,0,12,52.889,66.444,138.889L250.524,67.6s-1.555-9.778,3.334-13.889Z" transform="translate(235.494 6884.232)" fill="none" stroke="#12263f" stroke-miterlimit="10" stroke-width="1.5"/>
        <path id="Trazado_893383" data-name="Trazado 893383" d="M0,27.1,13.972,0" transform="translate(481.532 7043.618)" fill="none" stroke="#12263f" stroke-width="1.5"/>
        <path id="Trazado_893384" data-name="Trazado 893384" d="M19.385,0,0,33.542" transform="translate(474.053 7023.625)" fill="none" stroke="#12263f" stroke-width="1.5"/>
        <path id="Trazado_893382" data-name="Trazado 893382" d="M0,31.746,28.372,0" transform="translate(463.04 7004.025)" fill="none" stroke="#12263f" stroke-width="1.5"/>
        <path id="Trazado_893377" data-name="Trazado 893377" d="M35.738,0,0,31.2" transform="translate(453.656 6984.495)" fill="none" stroke="#12263f" stroke-width="1.5"/>
        <path id="Trazado_893378" data-name="Trazado 893378" d="M0,28.44,42.122,0" transform="translate(445.551 6967.846)" fill="none" stroke="#12263f" stroke-width="1.5"/>
        <path id="Trazado_892618" data-name="Trazado 892618" d="M199.857,81.378,250.524,67.6l-48.1,22.867" transform="translate(235.494 6884.232)" fill="none" stroke="#12263f" stroke-miterlimit="10" stroke-width="1.5"/>
        <path id="Trazado_892619" data-name="Trazado 892619" d="M83.635,329.378V281.6s-41.778-3.333-75.778,34.667l47.556,26.444L.524,346.489l1.333,26.445L51.635,363.6l-30.889,34,18.222,16.222,23.556-37.111,2,44.667,25.333,6L80.3,382.045h1.555L114.3,418.934l18.666-13.112L96.524,378.489l44.444,4.667,2.667-25.111-41.556,3.111,26-25.334L122.3,296.934l-21.111,65.777-5.445,16.111-12.778,3.334L63.3,376.822l-11.111-13L54.968,343.6S63.413,328.045,83.635,329.378Z" transform="translate(235.494 6866.232)" fill="none" stroke="#12263f" stroke-miterlimit="10" stroke-width="1.5"/>
        <path id="Trazado_892620" data-name="Trazado 892620" d="M255.635,283.378v47.778s-32.444-3.778-30.444,30.889,40.888,18.666,40.888,18.666,16.445,0,27.112-82.444c0,0,42.666,90.222-12.445,120.889,0,0-71.778,33.333-105.333-39.334C175.413,379.822,149.413,283.822,255.635,283.378Z" transform="translate(235.494 6866.232)" fill="none" stroke="#12263f" stroke-miterlimit="10" stroke-width="1.5"/>
        <path id="Trazado_893387" data-name="Trazado 893387" d="M0,0H.573V30.657H0Z" transform="translate(308.922 7157.672)" fill="#12263f"/>
        <path id="Trazado_892503" data-name="Trazado 892503" d="M46.192,17.3a14.814,14.814,0,0,1-1.635,3.784l1.635-.762,1.634.762A14.793,14.793,0,0,1,46.192,17.3" transform="translate(263.017 7137.701)" fill="#12263f"/>
        <path id="Trazado_892504" data-name="Trazado 892504" d="M46.192,196.952a14.814,14.814,0,0,0-1.635-3.784l1.635.762,1.634-.762a14.793,14.793,0,0,0-1.634,3.784" transform="translate(263.017 6994.048)" fill="#12263f"/>
        <path id="Trazado_893388" data-name="Trazado 893388" d="M0,0H.573V30.657H0Z" transform="translate(479.611 7160.672)" fill="#12263f"/>
        <path id="Trazado_892503-2" data-name="Trazado 892503" d="M46.192,17.3a14.814,14.814,0,0,1-1.635,3.784l1.635-.762,1.634.762A14.793,14.793,0,0,1,46.192,17.3" transform="translate(433.706 7140.701)" fill="#12263f"/>
        <path id="Trazado_892504-2" data-name="Trazado 892504" d="M46.192,196.952a14.814,14.814,0,0,0-1.635-3.784l1.635.762,1.634-.762a14.793,14.793,0,0,0-1.634,3.784" transform="translate(433.706 6997.048)" fill="#12263f"/>
        <path id="Trazado_893386" data-name="Trazado 893386" d="M0,0H.573V30.657H0Z" transform="matrix(0.602, -0.799, 0.799, 0.602, 460.994, 6905.947)" fill="#12263f"/>
        <path id="Trazado_892503-3" data-name="Trazado 892503" d="M46.192,17.3a14.814,14.814,0,0,1-1.635,3.784l1.635-.762,1.634.762A14.793,14.793,0,0,1,46.192,17.3" transform="matrix(0.602, -0.799, 0.799, 0.602, 417.417, 6930.59)" fill="#12263f"/>
        <path id="Trazado_892504-3" data-name="Trazado 892504" d="M46.192,196.952a14.814,14.814,0,0,0-1.635-3.784l1.635.762,1.634-.762a14.793,14.793,0,0,0-1.634,3.784" transform="matrix(0.602, -0.799, 0.799, 0.602, 302.691, 6844.138)" fill="#12263f"/>
        <path id="Trazado_893385" data-name="Trazado 893385" d="M0,0H.573V30.657H0Z" transform="matrix(0.602, -0.799, 0.799, 0.602, 302.936, 6893.81)" fill="#12263f"/>
        <path id="Trazado_892503-4" data-name="Trazado 892503" d="M46.192,17.3a14.814,14.814,0,0,1-1.635,3.784l1.635-.762,1.634.762A14.793,14.793,0,0,1,46.192,17.3" transform="matrix(0.602, -0.799, 0.799, 0.602, 259.36, 6918.452)" fill="#12263f"/>
        <path id="Trazado_892504-4" data-name="Trazado 892504" d="M46.192,196.952a14.814,14.814,0,0,0-1.635-3.784l1.635.762,1.634-.762a14.793,14.793,0,0,0-1.634,3.784" transform="matrix(0.602, -0.799, 0.799, 0.602, 144.634, 6832)" fill="#12263f"/>
        <path id="Trazado_893375" data-name="Trazado 893375" d="M5.7,0H4.242V-9.633L1.328-8.562V-9.875L5.469-11.43H5.7Z" transform="translate(211.051 6886)" fill="#12263f"/>
        <path id="Trazado_893363" data-name="Trazado 893363" d="M3.047-6.391H4.133A2.387,2.387,0,0,0,5.742-6.93a1.8,1.8,0,0,0,.586-1.414,1.764,1.764,0,0,0-1.992-2,2.072,2.072,0,0,0-1.5.535,1.873,1.873,0,0,0-.559,1.418H.836a2.9,2.9,0,0,1,.988-2.246,3.6,3.6,0,0,1,2.512-.895,3.558,3.558,0,0,1,2.523.852,3.076,3.076,0,0,1,.914,2.367,2.5,2.5,0,0,1-.48,1.438A2.9,2.9,0,0,1,5.984-5.836a2.8,2.8,0,0,1,1.449.984,2.734,2.734,0,0,1,.512,1.68,3.1,3.1,0,0,1-1,2.43,3.745,3.745,0,0,1-2.6.9A3.844,3.844,0,0,1,1.738-.711,2.877,2.877,0,0,1,.734-3H2.188a1.859,1.859,0,0,0,.586,1.438,2.229,2.229,0,0,0,1.57.539,2.187,2.187,0,0,0,1.6-.547A2.108,2.108,0,0,0,6.5-3.141a1.912,1.912,0,0,0-.609-1.523,2.655,2.655,0,0,0-1.758-.547H3.047Z" transform="translate(211.051 7142)" fill="#12263f"/>
        <path id="Trazado_893379" data-name="Trazado 893379" d="M8.4,0H.945V-1.039L4.883-5.414A9.354,9.354,0,0,0,6.09-7.027a2.693,2.693,0,0,0,.332-1.285,2.041,2.041,0,0,0-.539-1.461,1.885,1.885,0,0,0-1.437-.57A2.232,2.232,0,0,0,2.77-9.73a2.343,2.343,0,0,0-.6,1.707H.727a3.355,3.355,0,0,1,1.012-2.539,3.751,3.751,0,0,1,2.707-.969,3.6,3.6,0,0,1,2.508.832,2.838,2.838,0,0,1,.922,2.215q0,1.68-2.141,4L2.688-1.18H8.4Z" transform="translate(411.051 6886)" fill="#12263f"/>
        <path id="Trazado_893364" data-name="Trazado 893364" d="M7.047-3.82H8.625v1.18H7.047V0H5.594V-2.641H.414v-.852l5.094-7.883H7.047Zm-4.992,0H5.594V-9.4l-.172.313Z" transform="translate(411.051 7142)" fill="#12263f"/>
        <path id="Trazado_893376" data-name="Trazado 893376" d="M2.848,0H2.121V-4.816L.664-4.281v-.656l2.07-.777h.113ZM8.691,0H4.965V-.52L6.934-2.707a4.677,4.677,0,0,0,.6-.807A1.346,1.346,0,0,0,7.7-4.156a1.02,1.02,0,0,0-.27-.73.942.942,0,0,0-.719-.285,1.116,1.116,0,0,0-.838.307,1.171,1.171,0,0,0-.3.854H4.855a1.677,1.677,0,0,1,.506-1.27,1.875,1.875,0,0,1,1.354-.484,1.8,1.8,0,0,1,1.254.416A1.419,1.419,0,0,1,8.43-4.242a3.253,3.253,0,0,1-1.07,2L5.836-.59H8.691Z" transform="translate(321.051 6894)" fill="#12263f" opacity="0.8"/>
        <path id="Trazado_893359" data-name="Trazado 893359" d="M2.848,0H2.121V-4.816L.664-4.281v-.656l2.07-.777h.113ZM8.691,0H4.965V-.52L6.934-2.707a4.677,4.677,0,0,0,.6-.807A1.346,1.346,0,0,0,7.7-4.156a1.02,1.02,0,0,0-.27-.73.942.942,0,0,0-.719-.285,1.116,1.116,0,0,0-.838.307,1.171,1.171,0,0,0-.3.854H4.855a1.677,1.677,0,0,1,.506-1.27,1.875,1.875,0,0,1,1.354-.484,1.8,1.8,0,0,1,1.254.416A1.419,1.419,0,0,1,8.43-4.242a3.253,3.253,0,0,1-1.07,2L5.836-.59H8.691Z" transform="translate(312.051 6970)" fill="#12263f" opacity="0.8"/>
        <path id="Trazado_893360" data-name="Trazado 893360" d="M2.848,0H2.121V-4.816L.664-4.281v-.656l2.07-.777h.113ZM5.055-.379a.453.453,0,0,1,.111-.312A.424.424,0,0,1,5.5-.816a.437.437,0,0,1,.338.125.443.443,0,0,1,.115.313.419.419,0,0,1-.115.3A.445.445,0,0,1,5.5.043a.432.432,0,0,1-.334-.121A.428.428,0,0,1,5.055-.379ZM8.121-3.2h.543a1.193,1.193,0,0,0,.8-.27.9.9,0,0,0,.293-.707.882.882,0,0,0-1-1,1.036,1.036,0,0,0-.748.268.936.936,0,0,0-.279.709H7.016A1.451,1.451,0,0,1,7.51-5.318a1.8,1.8,0,0,1,1.256-.447,1.779,1.779,0,0,1,1.262.426,1.538,1.538,0,0,1,.457,1.184,1.248,1.248,0,0,1-.24.719,1.451,1.451,0,0,1-.654.52,1.4,1.4,0,0,1,.725.492,1.367,1.367,0,0,1,.256.84,1.551,1.551,0,0,1-.5,1.215,1.872,1.872,0,0,1-1.3.449,1.922,1.922,0,0,1-1.3-.434,1.438,1.438,0,0,1-.5-1.145h.727a.93.93,0,0,0,.293.719,1.114,1.114,0,0,0,.785.27,1.093,1.093,0,0,0,.8-.273,1.054,1.054,0,0,0,.277-.785.956.956,0,0,0-.3-.762,1.328,1.328,0,0,0-.879-.273H8.121Z" transform="translate(324.051 7023)" fill="#12263f" opacity="0.8"/>
        <path id="Trazado_893362" data-name="Trazado 893362" d="M.8-2.852l.289-2.836H4.008v.668h-2.3L1.535-3.469a1.835,1.835,0,0,1,.949-.246A1.569,1.569,0,0,1,3.719-3.2a2.013,2.013,0,0,1,.457,1.389A1.943,1.943,0,0,1,3.7-.428,1.73,1.73,0,0,1,2.375.078,1.8,1.8,0,0,1,1.145-.34,1.668,1.668,0,0,1,.6-1.5h.684a1.148,1.148,0,0,0,.348.736,1.081,1.081,0,0,0,.742.248.975.975,0,0,0,.791-.344A1.437,1.437,0,0,0,3.453-1.8a1.319,1.319,0,0,0-.311-.916,1.056,1.056,0,0,0-.826-.346,1.191,1.191,0,0,0-.742.207L1.383-2.7ZM5.055-.379a.453.453,0,0,1,.111-.312A.424.424,0,0,1,5.5-.816a.437.437,0,0,1,.338.125.443.443,0,0,1,.115.313.419.419,0,0,1-.115.3A.445.445,0,0,1,5.5.043a.432.432,0,0,1-.334-.121A.428.428,0,0,1,5.055-.379ZM7.4-2.852l.289-2.836h2.914v.668H8.3L8.133-3.469a1.835,1.835,0,0,1,.949-.246,1.569,1.569,0,0,1,1.234.514,2.013,2.013,0,0,1,.457,1.389A1.943,1.943,0,0,1,10.3-.428,1.73,1.73,0,0,1,8.973.078,1.8,1.8,0,0,1,7.742-.34,1.668,1.668,0,0,1,7.2-1.5h.684A1.148,1.148,0,0,0,8.23-.76a1.081,1.081,0,0,0,.742.248.975.975,0,0,0,.791-.344,1.437,1.437,0,0,0,.287-.949,1.319,1.319,0,0,0-.311-.916,1.056,1.056,0,0,0-.826-.346,1.191,1.191,0,0,0-.742.207L7.98-2.7Z" transform="translate(365.051 7098)" fill="#12263f" opacity="0.8"/>
        <path id="Trazado_893358" data-name="Trazado 893358" d="M4.2,0H.473V-.52L2.441-2.707a4.677,4.677,0,0,0,.6-.807,1.346,1.346,0,0,0,.166-.643,1.02,1.02,0,0,0-.27-.73.942.942,0,0,0-.719-.285,1.116,1.116,0,0,0-.838.307,1.171,1.171,0,0,0-.3.854H.363a1.677,1.677,0,0,1,.506-1.27,1.875,1.875,0,0,1,1.354-.484,1.8,1.8,0,0,1,1.254.416,1.419,1.419,0,0,1,.461,1.107,3.253,3.253,0,0,1-1.07,2L1.344-.59H4.2Z" transform="translate(275.051 6970)" fill="#12263f" opacity="0.8"/>
        <path id="Trazado_893361" data-name="Trazado 893361" d="M4.039-2.426A3.305,3.305,0,0,1,3.605-.539,1.542,1.542,0,0,1,2.25.078,1.553,1.553,0,0,1,.9-.525a3.137,3.137,0,0,1-.453-1.8v-.965A3.232,3.232,0,0,1,.883-5.156a1.554,1.554,0,0,1,1.359-.609,1.568,1.568,0,0,1,1.352.588,3.119,3.119,0,0,1,.445,1.814Zm-.723-.988a2.648,2.648,0,0,0-.258-1.338.887.887,0,0,0-.816-.42.876.876,0,0,0-.809.418,2.585,2.585,0,0,0-.262,1.285v1.156A2.69,2.69,0,0,0,1.439-.951a.886.886,0,0,0,.811.439.874.874,0,0,0,.795-.414,2.593,2.593,0,0,0,.271-1.3ZM5.055-.379a.453.453,0,0,1,.111-.312A.424.424,0,0,1,5.5-.816a.437.437,0,0,1,.338.125.443.443,0,0,1,.115.313.419.419,0,0,1-.115.3A.445.445,0,0,1,5.5.043a.432.432,0,0,1-.334-.121A.428.428,0,0,1,5.055-.379ZM7.4-2.852l.289-2.836h2.914v.668H8.3L8.133-3.469a1.835,1.835,0,0,1,.949-.246,1.569,1.569,0,0,1,1.234.514,2.013,2.013,0,0,1,.457,1.389A1.943,1.943,0,0,1,10.3-.428,1.73,1.73,0,0,1,8.973.078,1.8,1.8,0,0,1,7.742-.34,1.668,1.668,0,0,1,7.2-1.5h.684A1.148,1.148,0,0,0,8.23-.76a1.081,1.081,0,0,0,.742.248.975.975,0,0,0,.791-.344,1.437,1.437,0,0,0,.287-.949,1.319,1.319,0,0,0-.311-.916,1.056,1.056,0,0,0-.826-.346,1.191,1.191,0,0,0-.742.207L7.98-2.7Z" transform="translate(341.051 6914)" fill="#12263f" opacity="0.8"/>
        <path id="Trazado_893370" data-name="Trazado 893370" d="M3.523-1.91h.789v.59H3.523V0H2.8V-1.32H.207v-.426L2.754-5.687h.77Zm-2.5,0H2.8V-4.7l-.086.156Z" transform="translate(489.051 6961)" fill="#12263f" opacity="0.8"/>
        <path id="Trazado_893365" data-name="Trazado 893365" d="M3.523-1.91h.789v.59H3.523V0H2.8V-1.32H.207v-.426L2.754-5.687h.77Zm-2.5,0H2.8V-4.7l-.086.156ZM5.055-.379a.453.453,0,0,1,.111-.312A.424.424,0,0,1,5.5-.816a.437.437,0,0,1,.338.125.443.443,0,0,1,.115.313.419.419,0,0,1-.115.3A.445.445,0,0,1,5.5.043a.432.432,0,0,1-.334-.121A.428.428,0,0,1,5.055-.379ZM7.4-2.852l.289-2.836h2.914v.668H8.3L8.133-3.469a1.835,1.835,0,0,1,.949-.246,1.569,1.569,0,0,1,1.234.514,2.013,2.013,0,0,1,.457,1.389A1.943,1.943,0,0,1,10.3-.428,1.73,1.73,0,0,1,8.973.078,1.8,1.8,0,0,1,7.742-.34,1.668,1.668,0,0,1,7.2-1.5h.684A1.148,1.148,0,0,0,8.23-.76a1.081,1.081,0,0,0,.742.248.975.975,0,0,0,.791-.344,1.437,1.437,0,0,0,.287-.949,1.319,1.319,0,0,0-.311-.916,1.056,1.056,0,0,0-.826-.346,1.191,1.191,0,0,0-.742.207L7.98-2.7Z" transform="translate(426.051 6993)" fill="#12263f" opacity="0.8"/>
        <path id="Trazado_893366" data-name="Trazado 893366" d="M3.523-1.91h.789v.59H3.523V0H2.8V-1.32H.207v-.426L2.754-5.687h.77Zm-2.5,0H2.8V-4.7l-.086.156ZM5.055-.379a.453.453,0,0,1,.111-.312A.424.424,0,0,1,5.5-.816a.437.437,0,0,1,.338.125.443.443,0,0,1,.115.313.419.419,0,0,1-.115.3A.445.445,0,0,1,5.5.043a.432.432,0,0,1-.334-.121A.428.428,0,0,1,5.055-.379ZM7.4-2.852l.289-2.836h2.914v.668H8.3L8.133-3.469a1.835,1.835,0,0,1,.949-.246,1.569,1.569,0,0,1,1.234.514,2.013,2.013,0,0,1,.457,1.389A1.943,1.943,0,0,1,10.3-.428,1.73,1.73,0,0,1,8.973.078,1.8,1.8,0,0,1,7.742-.34,1.668,1.668,0,0,1,7.2-1.5h.684A1.148,1.148,0,0,0,8.23-.76a1.081,1.081,0,0,0,.742.248.975.975,0,0,0,.791-.344,1.437,1.437,0,0,0,.287-.949,1.319,1.319,0,0,0-.311-.916,1.056,1.056,0,0,0-.826-.346,1.191,1.191,0,0,0-.742.207L7.98-2.7Z" transform="translate(435.051 7013)" fill="#12263f" opacity="0.8"/>
        <path id="Trazado_893367" data-name="Trazado 893367" d="M3.523-1.91h.789v.59H3.523V0H2.8V-1.32H.207v-.426L2.754-5.687h.77Zm-2.5,0H2.8V-4.7l-.086.156ZM5.055-.379a.453.453,0,0,1,.111-.312A.424.424,0,0,1,5.5-.816a.437.437,0,0,1,.338.125.443.443,0,0,1,.115.313.419.419,0,0,1-.115.3A.445.445,0,0,1,5.5.043a.432.432,0,0,1-.334-.121A.428.428,0,0,1,5.055-.379ZM7.4-2.852l.289-2.836h2.914v.668H8.3L8.133-3.469a1.835,1.835,0,0,1,.949-.246,1.569,1.569,0,0,1,1.234.514,2.013,2.013,0,0,1,.457,1.389A1.943,1.943,0,0,1,10.3-.428,1.73,1.73,0,0,1,8.973.078,1.8,1.8,0,0,1,7.742-.34,1.668,1.668,0,0,1,7.2-1.5h.684A1.148,1.148,0,0,0,8.23-.76a1.081,1.081,0,0,0,.742.248.975.975,0,0,0,.791-.344,1.437,1.437,0,0,0,.287-.949,1.319,1.319,0,0,0-.311-.916,1.056,1.056,0,0,0-.826-.346,1.191,1.191,0,0,0-.742.207L7.98-2.7Z" transform="translate(443.051 7032)" fill="#12263f" opacity="0.8"/>
        <path id="Trazado_893368" data-name="Trazado 893368" d="M3.523-1.91h.789v.59H3.523V0H2.8V-1.32H.207v-.426L2.754-5.687h.77Zm-2.5,0H2.8V-4.7l-.086.156ZM5.055-.379a.453.453,0,0,1,.111-.312A.424.424,0,0,1,5.5-.816a.437.437,0,0,1,.338.125.443.443,0,0,1,.115.313.419.419,0,0,1-.115.3A.445.445,0,0,1,5.5.043a.432.432,0,0,1-.334-.121A.428.428,0,0,1,5.055-.379ZM7.4-2.852l.289-2.836h2.914v.668H8.3L8.133-3.469a1.835,1.835,0,0,1,.949-.246,1.569,1.569,0,0,1,1.234.514,2.013,2.013,0,0,1,.457,1.389A1.943,1.943,0,0,1,10.3-.428,1.73,1.73,0,0,1,8.973.078,1.8,1.8,0,0,1,7.742-.34,1.668,1.668,0,0,1,7.2-1.5h.684A1.148,1.148,0,0,0,8.23-.76a1.081,1.081,0,0,0,.742.248.975.975,0,0,0,.791-.344,1.437,1.437,0,0,0,.287-.949,1.319,1.319,0,0,0-.311-.916,1.056,1.056,0,0,0-.826-.346,1.191,1.191,0,0,0-.742.207L7.98-2.7Z" transform="translate(454.051 7052)" fill="#12263f" opacity="0.8"/>
        <path id="Trazado_893369" data-name="Trazado 893369" d="M3.523-1.91h.789v.59H3.523V0H2.8V-1.32H.207v-.426L2.754-5.687h.77Zm-2.5,0H2.8V-4.7l-.086.156Z" transform="translate(471.051 7073)" fill="#12263f" opacity="0.8"/>
        <path id="Trazado_893371" data-name="Trazado 893371" d="M3.523-1.91h.789v.59H3.523V0H2.8V-1.32H.207v-.426L2.754-5.687h.77Zm-2.5,0H2.8V-4.7l-.086.156Z" transform="translate(491.051 6980)" fill="#12263f" opacity="0.8"/>
        <path id="Trazado_893372" data-name="Trazado 893372" d="M3.523-1.91h.789v.59H3.523V0H2.8V-1.32H.207v-.426L2.754-5.687h.77Zm-2.5,0H2.8V-4.7l-.086.156Z" transform="translate(493.051 6998)" fill="#12263f" opacity="0.8"/>
        <path id="Trazado_893374" data-name="Trazado 893374" d="M3.523-1.91h.789v.59H3.523V0H2.8V-1.32H.207v-.426L2.754-5.687h.77Zm-2.5,0H2.8V-4.7l-.086.156Z" transform="translate(497.051 7034)" fill="#12263f" opacity="0.8"/>
        <path id="Trazado_893373" data-name="Trazado 893373" d="M3.523-1.91h.789v.59H3.523V0H2.8V-1.32H.207v-.426L2.754-5.687h.77Zm-2.5,0H2.8V-4.7l-.086.156Z" transform="translate(495.051 7016)" fill="#12263f" opacity="0.8"/>
      </g>
    </g>
  </g>
</svg>
