<svg xmlns="http://www.w3.org/2000/svg" xmlns:xlink="http://www.w3.org/1999/xlink" width="505" height="364" viewBox="0 0 505 364">
  <defs>
    <clipPath id="clip-path">
      <rect id="Rectángulo_402442" data-name="Rectángulo 402442" width="407" height="236" fill="none"/>
    </clipPath>
  </defs>
  <g id="Grupo_1102576" data-name="Grupo 1102576" transform="translate(-180.051 -15427)">
    <g id="Grupo_1102575" data-name="Grupo 1102575">
      <g id="Grupo_1102574" data-name="Grupo 1102574">
        <path id="Trazado_894322" data-name="Trazado 894322" d="M20,0H485a20,20,0,0,1,20,20V344a20,20,0,0,1-20,20H20A20,20,0,0,1,0,344V20A20,20,0,0,1,20,0Z" transform="translate(180.051 15427)" fill="#e4def6"/>
        <path id="Imagen_5_upscayl_4x_digital-art-4x" data-name="Imagen 5_upscayl_4x_digital-art-4x" d="M20,0H440a20,20,0,0,1,20,20V290a20,20,0,0,1-20,20H20A20,20,0,0,1,0,290V20A20,20,0,0,1,20,0Z" transform="translate(207.051 15458)" fill="#fff"/>
        <g id="Grupo_1102538" data-name="Grupo 1102538" transform="translate(240.051 15495)" clip-path="url(#clip-path)">
          <path id="Trazado_893893" data-name="Trazado 893893" d="M113.239,255.787h-1.18l-.277-6.319-1.191-.633,1.172-3.963c-.277-.266-5.12.8-5.962.972-11.131,2.335-22.044,5.527-33.44,6.4-5.625.43-11.452.436-17.1.608-2.507.077-5.034-.086-7.54-.013l.59,3.833-1.177-.294a28.94,28.94,0,0,1-.289,4.285c-.059.445.02.731-.451,1.02l-.755-.483.315-4.823H44.774l1.18-3.537-36.3.3L8.771,163.75l-2.176-.037c-2-2.358,1.814-1.073,2.176-1.435-.067-5.949.08-11.91.013-17.862-.195-17.228-1.592-35.389.9-52.466.332-2.274,2.3-12.128,3.8-13.308a.614.614,0,0,1,.594-.141c.375.385-.981,3.021-1.191,3.674C10.345,90.1,9.751,98.836,9.657,107.113l4.721-1.477L12.9,101.216l1.2-.485-.012-11.909H12.9c-.283-.213.863-4.274,1.628-4.719.525-.126.816.73.992,1.071.568,1.106.7,2.384,1.216,3.5l-1.474.143c.153,4.119-.333,8.324.3,12.392.463-.143,1.251-.734,1.188.153a25.324,25.324,0,0,1-1.186,3.24l1.918-1.031-.023-19.492c.268-.4,4.154-.467,5.007-.6C34.084,81.673,39.5,71.469,40.612,60.623c.036-.355.17-1.873-.121-1.892-5.64,1.058-10.574,3.978-15.173,7.253-.595.424-1.244,1.39-1.945,1.6-.545.161-.557-.3-.4-.7A9.681,9.681,0,0,1,25.317,64.8a45.645,45.645,0,0,1,11.852-6.148,14.84,14.84,0,0,1,3.74-.834l.639-3.491,4.108,1.16-.883-3.242c1.636-.011,1.455-1.662,1.477-2.953l1.143.434-.54,2.042,1.172.626-1.481,3.683a130.687,130.687,0,0,1,16.163,4.346c31.621,9.684,63.028,20.293,94.571,30.248.774.244,3.584.678,3.752,1.283l-17.983,58.654c5.318,10.92,11.439,21.42,17.167,32.115,1.21,2.259,2.225,4.632,3.434,6.892,3.515,6.569,7.24,13.038,10.639,19.67-.247,1.172-9.107,5.79-10.678,6.733-7.84,4.7-15.881,9.411-23.317,14.746-2.613,1.875-4.978,4.129-7.718,5.848l-28.317-43.985-.757-.558a5.752,5.752,0,0,0,.131,1.784c1.165,5.311,3.879,11.533,5.393,17.028a243.823,243.823,0,0,1,6.6,32.371c.1,1.323-1.687,1.187-2.68,1.325.323.9,1.5,3.186,1.477,4-.023.929-1.182.644-1.182.721ZM46.248,56.377l-4.129-1.183-.3,2.064,1.3-.028Zm-28.034,46.9C33.164,96.6,41.051,81.908,45.282,66.765c.668-2.391,1.983-6.748,2.155-9.059.051-.686.036-.375-.3-.3-1.551.329-3.249.453-4.821.79l-.351.24c-1.09,5.158-1.695,10.758-4.327,15.438-4.09,7.27-11.106,10.9-19.422,10.823Zm37.773-18,3.469-24.351L49.044,57.593,44.159,74.778l6.818,5.928c1.264.985,2.075,2.532,3.235,3.551.242.213,1.568,1.259,1.775,1.026m18,23.01H79.3c-.231-10.474,1.357-20.776,3.333-31.035.222-1.153,2-8.474,1.663-8.768L60.581,61.1l-.46.731-3.475,24.44c.135.785,4.526,5.071,5.4,6.083,4.169,4.841,7.977,9.986,11.67,15.194a1.243,1.243,0,0,1,.275.742m48.653,8.523c.257-.4-.393-.707-.5-1.072-.092-.325.161-.676.021-1.165-.6-2.081-2.889-5.245-3.965-7.265C110.7,93.212,105.49,78.974,90.485,71.3c-.638-.326-5.037-2.3-5.281-1.949-2.829,13.41-5.683,27.048-5.031,40.871.159,3.36.88,9.737,2.969,12.372.582.735,1.458,1.34,2.059,2.072,1.147,1.4,2.738,4.1,4.22,4.926a32.641,32.641,0,0,0,6.636,2.216,45.516,45.516,0,0,0,10.394.967L104.958,145.9c.109.882,2.613,1.838,3.442,1.918,1.384.134,2.606-1.2,3.754-1.818,2.852-1.54,5.874-2.753,8.766-4.218,1.876-.95,4.733-2.268,6.4-3.338.226-.145.582-.234.649-.534L96.675,79.275l-.4-.478-1.03.88c-.125-.589-1.084-4.745-.15-4.715l3.393,3.094-1.47,0c.561,1.16,1.343,2.246,1.921,3.388,8.531,16.854,17.957,33.388,27.048,49.955a59.7,59.7,0,0,1,2.9,6.1l4.421-2.21c-2.271-4.466-4.767-8.81-7.132-13.225-.429-.8-.774-2.115-1.152-2.683-.434-.652-1.7-.464-1.782-1.612-.053-.035-.922.532-1.142-.184-.277-.9.5-.7.548-.767M103.2,79.384l-3.382-5.909-6.945-2.349c1.78,1.642,4.17,2.574,6.046,4.131,1.506,1.251,2.678,2.969,4.28,4.127M141.867,149.3l17.986-56.755L101.58,73.784,123.119,113.9l1.631.287v1.182l1.473-.294-.548,1.737.561.18-.488,1.623c4.725,9.168,9.882,18.114,14.694,27.231a10.543,10.543,0,0,1,1.424,3.446M18.845,107.958a9.454,9.454,0,0,0,3.046.937c4.394.342,8.931-.27,13.278-.321,5.862-.07,11.734.188,17.591-.116a.755.755,0,0,0,.28-.6c.572-4.5.9-9.048,1.5-13.545.265-1.987,1.071-4.714,1.147-6.554.049-1.174-1.752-2.038-2.48-2.787-.226-.233-.351-.609-.605-.869-2.842-2.906-6.034-5.336-8.86-8.249-.378,0-1.563,3.412-1.864,4.033C38.106,87.63,33.752,94.04,26.914,99.438a53.387,53.387,0,0,1-7.971,5.012Zm53.668.629c.107-.45-.181-.64-.354-.971-1.8-3.427-5.94-8.482-8.5-11.562-2.243-2.7-4.772-5.179-7.077-7.82a183.3,183.3,0,0,0-2.659,20.355c4.962-.12,9.955.151,14.918.012,1.261-.035,2.312-.66,3.673-.014M11.574,251.657c2.153-.255,4.732.188,6.935,0,.215-1.177-.258-2.274-.309-3.378-.229-4.952.2-10.09.019-15.063-.121-.787-1.428-1.091-2.028-1.808-1.963-2.349-.191-4.237,2.038-5.305l-.011-5.865a14.363,14.363,0,0,1-.312-1.753c-.219-9.523.177-19.078.031-28.6-3.925-1.026-3.925-5.514,0-6.54-.1-5.205.063-10.417,0-15.623-.009-.706-.315-1.332-.323-2.037-.07-6.184.069-12.376.028-18.559-3.6-1.5-3.6-5.068,0-6.567.093-8.846-.543-17.615-.3-26.472a3.321,3.321,0,0,1-.053-6.418l.036-2.323-7.39,3.138.308,54.091h1.478c.086-.489-.339-1.3.444-1.188a17.975,17.975,0,0,1,3.007,1.127c.476.275.881.471.98,1.087.1.651-.243.384-.657.519a32.347,32.347,0,0,0-3.631,1.1l-.171-1.151-1.448-.32c.109,15.288-.143,30.592-.015,45.884.075,8.874.49,17.941.618,26.816.075,5.164-.086,10.34-.013,15.5.354.123.63-.282.737-.294m5.752-138.94-.144-3.833c-1.355,1.112-1.564,2.99.144,3.833m65.516,20.353c-1.145-4.358-1.7-9.721-3.4-13.86-.425-1.036-5.538-9.334-6.042-9.6a194.926,194.926,0,0,0-19.777.153l-2.363,23.6Zm-3.54-23.6H75.17l.356.971,4.659,7.288c-.1-2.773-.967-5.482-.883-8.259m-60.5,4.573v19.617H50.381l2.361-23.893-31.579.293c.4,2.417-.5,2.908-2.36,3.984m.884-3.983H18.8v2.36c1,.387,1-2.233.883-2.36m70.237,23.01-2.07-3.093c-2.155-2.082-4.352-3.9-5.75-6.644l1.918,9.737Zm1.918,0H97.3l-4.363-1.1L90.665,131c-.144.287.322,1.032.486,1.284a3.574,3.574,0,0,0,.692.783m-9.034.622-31.545.557c-.287,2.6-.36,5.221-.584,7.824-1.433,16.58-3,33.251-3.844,49.845a86.05,86.05,0,0,0-.3,9.151c.8,12.813,1.805,25.539,2.655,38.35l1.5,12.214c5.291-.169,10.806.3,16.074.037,2.847-.144,6.247-.564,9.1-.929,9.971-1.275,19.636-4.052,29.49-5.92l.457-.428a223.113,223.113,0,0,0-3.3-33.506c-.942-5.263-3.479-12.874-3.756-17.789-.127-2.251.841-5.253.844-7.6-4.41-7.572-9.346-14.863-13.992-22.313a13.593,13.593,0,0,0-1.887-2.53,6.314,6.314,0,0,0,1.685-3.027c.381-1.421,1.066-6.941.516-8.031-.219-.435-.8-.653-.97-1.39a4.28,4.28,0,0,1,.5-2.877Zm7.558-.032H84.319l2.342,11.375c3.47-.063,3.588,3.8.59,4.727a25.1,25.1,0,0,1-1.16,9.562l16.928-8.593c.795-.452,1.244-3.14.8-3.666a22.6,22.6,0,0,0-2.657-1.776c-.425-.316-.884-1-1.209-1.171-.728-.372-2.669.909-3.842-.563s.33-2.519-.124-3.4c-.216-.419-1.225-1.138-1.631-1.633-.719-.878-3.224-4.737-3.989-4.863m15.2,0H92.286c1.4,1.637,3.052,4.778,4.853,5.916.833.527,2.109.155,2.839,1.293.527.821.026,1.586.553,2.4.129.2,3.424,2.659,3.559,2.488Zm-55.186.59H19.1v6.785c2.989.936,3.182,4.65.053,5.655l-.071,36.944c1.181.459,2.033.79,2.316,2.154.658,3.178-2.1,2.75-2.313,4.642-.384,3.476-.052,8.757,0,12.419.1,7.018-.18,14.892.3,21.827.175,2.55,1.058,1.71,2.084,3.227,1.321,1.952-.043,3.554-1.786,4.479.266,1.5-.238,2.971-.3,4.363-.215,4.939.189,9.967.014,14.911H42.413a26.932,26.932,0,0,0,.292-4.871c1.766-27.914,3.2-55.893,5.318-83.771.656-8.64,1.552-17.293,2.059-25.965.051-.88.515-1.818.3-2.8m109.767,51.607-26.1-49.249-.539-.261L129.78,138.1l26.254,49.836Zm-31.284-46.873-1.081.217-19.135,9.781c-1.7,12.191-2.871,24.441-4.21,36.675l2.6,3.923,1.48-.461-.589,1.472,7.643-.558.324,1.149-7.375.737,2.952,5.162h.29c-.149-.713.373-.74.987-.541.741.24,1.483,2.117,1.943,2.76-.027.358-1.546.575-1.039,1.337l6.523,10.6a16.023,16.023,0,0,1,2.536-2.181c2.609-1.885,5.556-3.836,8.258-5.61,7.9-5.19,16.251-9.659,24.156-14.813ZM17.622,141.922c-.889-.038-1.508,1.172-1.5,1.922.011.935.794,1.277,1.354,1.911ZM98.188,143.1c.268-.27-.635-1.371-1.178-1.178l.289,1.037ZM19.1,145.166a1.531,1.531,0,0,0,.145-2.654Zm67.875,3.539a1.183,1.183,0,0,0,1.189-1.041c.216-1.537-1.467-2.118-1.364-1.013Zm19.771-.291-1.768-.593-.3,2.065c.712-.413,2.1-.393,2.064-1.472m-2.322,2.69c-.576,5.944-1.438,11.87-2.11,17.8-.349,3.083-1.006,6.744-1.178,9.735-.139,2.422.434,3.344,1.921,5.163.39.009.645-2.316.712-2.825,1.134-8.613,1.774-17.328,2.677-25.938.177-1.686.715-3.488.449-5.156Zm-.925.553-18,8.851c1.171,2.471,3.356,4.285,5.015,6.343,3.116,3.867,6.14,7.877,9.045,11.9a1.865,1.865,0,0,1,.405.923l.56-1.648Zm-3.541,31.857a6.851,6.851,0,0,0-.156-2.35,33.826,33.826,0,0,0-2.669-3.822c-1.865-2.513-3.9-4.995-5.882-7.393l1.093,2.151c2.359,3.564,4.517,7.271,6.89,10.825.227.34-.085.766.723.589m2.95,4.721c.663-1.966-.551-3.821-2.062-5.015-.841,2.1.713,3.556,2.062,5.015M16.8,185.052a6.039,6.039,0,0,0-.584,1.812c.067.611.847,1.232,1.265,1.661.585.021.546-2.854.411-3.356-.047-.173-.366-.607-.563-.331-.153.105-.417.1-.527.213m2.3,3.182a1.967,1.967,0,0,0,.145-3.244Zm95.321,54.572a288.68,288.68,0,0,0-9.3-40.71c-.719-2.317-2.376-5.738-2.738-7.881-.272-1.609.55-3.37.171-4.6a13.2,13.2,0,0,0-2.3-2.856c.358,2.11-.713,4.312-.6,6.339.247,4.379,2.591,11.316,3.461,16.019a252.344,252.344,0,0,1,3.642,31.463c.07,1.322-.081,2.674-.012,4l7.083-1.182-.3-.587Zm46.918-55.753-4,2.357c-.114,3.7,3.074.02,4.586-.592Zm-57.25,3.542c.662,0,1.338.176,1.765-.442a6.833,6.833,0,0,0-1.619-2.213Zm64.925,20.648c.271.319,3.433-1.734,3.809-2.207l-10.45-19.324-3.658,2.39.017.64c3.178,5.523,5.634,11.474,9.25,16.727l-.148-1.175.738.293Zm-12.132-19.209-.7-1.706c-12.066,6.99-24.364,13.82-35.269,22.554l.612,1.294.585-.105L130.648,208l.172,1.18a25.087,25.087,0,0,1-2.22,1.342,15.022,15.022,0,0,0-2.275,1.9c-.689,1.076-2.989,1.751-3.956,2.828l9.931,18.4,35.53-21.371-2.357-2.067c.148-1.181.858-.351,1.474-.586l-9.15-16.669c-1.428.251-2.532,1.315-3.734,2.018-.4.236-.89.285-1.263.508-.864.519-1.356,1.848-2.671,1.011l-.473,1.156c-4.291,2.2-8.358,4.777-12.412,7.355-1.475.938-2.915,1.826-4.252,2.817a9.495,9.495,0,0,1-1.264.819c-.373.19-.661.256-.782-.2l.487-.984c4.32-2.788,8.59-5.585,12.994-8.251,4.091-2.477,8.33-4.753,12.456-7.169M109.7,199.444a1.106,1.106,0,0,0,1.141-1.265,38.3,38.3,0,0,0-2.2-3.726c-.926-1.341-1.49-2.2-3.37-2.086Zm3.241-1.178h-.589l.444.587Zm10.328,21.828L113.48,202.3c-.963-1.217-1.283-2.975-3.191-2.561l.355.97ZM49.2,251.657l-3.1-38.351-2.509,38.351ZM18.212,231.3l-.145-3.834c-1.824.909-1.849,3.114.145,3.834m1.48-.59.9-1.04a2.16,2.16,0,0,0-.752-1.613Zm113.027,4.425,3.535-2.8c-.276-.121-.817.245-1.081.392-.5.277-3.063,1.7-2.454,2.412" transform="translate(-3.135 -25.682)" fill="#161615"/>
          <path id="Trazado_893894" data-name="Trazado 893894" d="M565.018,239.089a.86.86,0,0,1-.883.442,13.944,13.944,0,0,1-.59-4.72h-1.185l1.184-4.719c-1.117-.366-6.83-1.173-7.252-1.754a.731.731,0,0,1-.142-.458c3.527-14.6,7.107-29.2,12.108-43.372.844-2.391,2.8-6.01,3.187-8.319.492-2.95-.94-6.516-.821-9.521-1.324,1.331-2.743,2.723-3.988,4.123-9.225,10.375-18.046,21.074-27.433,31.282-.428.465-1.556,1.725-2.08,1.777l-55.932-37.344c-.078-.668,1.543-2.286,2.031-2.988,13.337-19.174,27.009-38.123,40.443-57.234.18-.611-.529-2.23-.7-3.034-2.521-11.562-5.007-23.18-7.439-34.747-1.167-5.552-2.169-11.145-3.286-16.705.062-.31.546-.524.837-.627,1.644-.581,4.381-1.046,6.2-1.472,14.624-3.43,29.375-6.4,44.038-9.669,10.315-2.3,20.723-4.33,30.75-7.611l4.188-4.664.712.122c.191,1.593-1.465,2.49-2.361,3.539l.445.153,27.665-5.683c1.766-.935,1.862-2.6,2.287-4.353.855-.228.6.827,1.176.883l8.311-14.26c.1-.721,2-1.245,1.722-.345l-7.668,13.131a17.312,17.312,0,0,1,5.751-1.771c.753-.066,3.527-.158,3.84.3.3.159-.264.59-.3.59H635.4c-.16,0-2.586.948-3.006,1.125-1.046.441-1.975,1.148-3.042,1.532l.882,1.027-3.538,3.1c2.064,1.253,3.6-.25,5.71-.52,2.922,2.5,5.6,4.167,9.516,4.623l13.4.617c-1.225-2.865-2.929-6.623-5.307-8.7-1.032-.9-2.387-1.271-3.25-2.356.017-.271.505-.17.721-.132,3.374.592,7.1,6.728,8.276,9.723a24.108,24.108,0,0,1,1.049,7.21c.311,7.555-.269,15.209-.323,22.714-.126,17.528.245,35.037.591,52.536.4,20.325-.694,41.008.618,61.33l-.052,58.678-.239.351-11.672,1.018c-6.716-.054-13.382.662-20.067.885a271.7,271.7,0,0,1-60.792-4.437c-1.049-.1.286,1.659.491,2.167a8.793,8.793,0,0,1,.532,1.546l-.29.581-.59-.157Zm1.77-124.337v-4.425l.869.011c-.125.37.311.889.311,1.022v4.425a2.177,2.177,0,0,0,1.342.723c1.86.274,7.594-.033,9.081-1.149.581-.435.3-1.278,1.676-1.933,1.567-.743,1.581.373,2.633-.317,13.034-8.554,11.612-31.584,10.031-45.086-1.022-8.724-3.569-17.973-4.369-26.6a5.028,5.028,0,0,1,.1-2.2c5.509-1.8,11.135-3.216,16.7-4.846,5.76-1.689,11.611-3.29,17.342-5.084a23.772,23.772,0,0,0,3.318-1.109c.619-.365-.346-.983-.752-1.043L594.748,33.7l-1.087,1,.571,1.288c-1.448.587-2.744,1.7-4.425,1.478l.883-2.508c.046-.225-.277-.184-.436-.142-10.226,2.735-20.191,9.955-26.707,18.143-7.242,9.1-13.515,19.378-20.667,28.6-.3.382-.719.646-1.018,1.026L542,85.252c-1.517-.389-1.646.844-2.966,1.312l-4.872,6.947a71.658,71.658,0,0,0,10.883,7.135Zm69.645-84.66c-1.048.248-4.282-3.1-4.719-2.656.111,2.285,2.081,2.314,3.891,2.747.291.07.9.474.828-.091m-5.9-2.361h-.883v.586l.884.3Zm-36,57.227h7.82c1.563-1.944,2.447-4.476,3.636-6.691C613.84,63.626,621.937,49.12,630.4,34.825l.15-2.5-1.073-.443c-.609-.775.541-1.568.464-1.929l-2.206-1.22c-5.193,1.446-10.394,2.888-15.576,4.377-.879.252-1.667.478-2.511.721-6.809,1.961-13.586,4.08-20.4,6.025a5.124,5.124,0,0,0,0,1.559c1.4,12.492,4.961,24.882,5.284,37.489Zm36.889-49.706c-.338,1.191.246,3.783,0,5.162-.4-.1-.751.519-1.042.009-.369-.646-.026-1.9-.141-2.664-.278-.341-1.547,2.566-1.715,2.856-7.506,12.96-14.909,25.917-21.945,39.126-.912,1.712-1.7,3.5-2.6,5.214l51.644-.588V34.514c-.837.036-1.129,1.058-1.763,1.63a12.731,12.731,0,0,1-4.29,2.493c-.335-.342-.607-.33-.14-.727.678-.576,2.027-1,2.953-1.768a10.516,10.516,0,0,0,2.65-3.4h-4.873c-4.284-.425-8.371-.273-12.65-.926-.859-.131-1.69-.419-2.545-.551,1.335,3.046,3.618,4.336,6.2,6.058.339.227.766-.085.589.723-2.229-.1-4.483-2.076-5.9-3.69-.386-.44-1.605-2.432-1.927-2.5-.651-.142-1.362,1.909-1.666,2.46-.189.344-.806.814-.839.931m-48.695,1.035L572.986,38.5l-5.311,8.111A55.615,55.615,0,0,1,578.205,38.7Zm-11.508,2.655L513.381,51.927l10.913,53.09,13.854-19.355-.572-.852c.374-.495,1.1-.229.881-1.028l-.88-.446c.315-.6,1.092-.3,1.409-.505.418-.271.312-1.543,1.848-.96,6.63-8.611,13.169-17.4,19.411-26.316,3.805-5.434,7.458-10.988,10.971-16.613m84.4,46.31-52.185.644c-2.782,5.788-6.593,11.4-7.688,17.829-.28,1.646-.243,3.345-.629,4.976l0,7.822,61.09-.885Zm-53.712.591h-7.378c-.167,5.619-.709,11.321-2.725,16.6l-2.147,4.932a66.456,66.456,0,0,0,5.708-8.452c1-1.881,1.779-4.195,2.745-6.105,1.2-2.365,2.72-4.545,3.8-6.973m-34.824,31.267c.376-.345-1.1-1.5-1.378-1.717-7.307-5.774-17.185-11.135-25.159-16.15-2.323-1.461-4.762-3.214-6.958-4.841l-35.25,49.969c2.969,2.45,6.34,4.283,9.523,6.422,13.2,8.868,26.31,17.825,39.721,26.373,1.1.7,4.383,3.6,5.427,3.335l12.008-14.274-.893-.872,1.5-3.1c.97-.184,1.211.471,1.611,1.171l2.733-3.134c-.641-3.887-.979-7.818-1.434-11.732-.3-2.559-.555-5.139-.85-7.7-.774-6.716-1.822-13.443-2.333-20.169l1.442-.33c-.457-.92-1.126-1.815-.854-2.917Zm26.856-.587c-.682-4.264-.018-8.384.512-12.617.035-.281.253-.941-.069-.955a13.832,13.832,0,0,1-1.2,2.044,57.678,57.678,0,0,1-9.135,9.468,4.387,4.387,0,0,1-.675.34l-.054,1.719Zm-14.313,45.723c-1.4-.1-2.87.076-4.279,0-.63,2.152.074,3.953.3,6.043.191,1.762.394,3.54.59,5.31.071.642-.239,2.041.272,2.383l22.447-.166V164.9l2.191-.274.465.422v8.112c.384.165,4.336-1.683,4.13-1.034l-.884,1.327c1.155.026,2.148-.685,3.244,0l-.882-1.474,3.54.884v-7.522c0-.045.315-.694.486-.752l2.465.014v9.44l4.276-1.773c.53.326-.577,1.361-.44,1.476h1.77c-.268-.617-.526-1.012.145-1.467l3.692,1.469v-9l.475-.4,1.7-.025.48.422v8.407a26.86,26.86,0,0,1,3.1-1.18c1.2-.15-.221,1.415-.151,1.473l3.541-.3-.589-1.177,3.54.884V164.6l2.655-.294.3,10.915,2.951,0-2.059-.741-.3-.729c1.323-.492,2.472-1.554,3.982-1.481l.148.588-.884.594h10.624c.226-.882-1.132-.4-.439-1.478l4.275,1.477-.293-56.933-60.8.59c-.441,2.106,1.51,2.7,1.119,4.8-.1.512-.494,1.013-.493,1.536,0,3.3,1.664,7.559,2,10.951a3.523,3.523,0,0,1-.026,1.391c-.105.349-2.758,2.52-3.345,3.145-5.956,6.325-11.923,13.575-17.556,20.21-.537.633-1.211,1.156-1.766,1.774l5.9.443c.054,1.838-.873.94-1.622.884m-3.395-45.131-5.015.734c1.235,1.3,2.726.67,4.092-.038.307-.159.952-.322.923-.7m18,0c-3.42.3-7.446-.388-10.789-.015-.867.1-1.551.892-2.353.881-.481-.006-.822-.425-1.236-.521-1.347-.311-4.276,1.673-5.69,2.162l22.426,14.9-1.525-10.125c-.272-.98-2.754-.823-3.049-3.117a2.5,2.5,0,0,1,2.182-2.423Zm-23.315,2.064c-.073-.4-.934-1.128-1.179-.882a1.026,1.026,0,0,0,.442,1.175Zm1.687.966c-.6.011-2.334.393-2.528,1,.272,5.2,1.135,10.4,1.732,15.588.631,5.482,1.07,11.028,1.792,16.5.067.505.322,2.839.711,2.825,5.647-5.66,11.4-11.242,17.416-16.511,1.487-1.3,3.3-2.33,4.566-3.987l-23.11-15.268a.864.864,0,0,0-.579-.14m-3.458,1.1-2.162.347-.433.38,4.513,37.327c.63-.994,2.228-1.24,2.235-2.5Zm5.314,38.644a1.729,1.729,0,0,0,1.307-.609c1.087-1.042,2.09-2.821,3.114-3.967.418-.468,1.123-.733,1.635-1.316,2.5-2.842,4.661-6.133,7.514-8.713l1.334-1.91c-5.134,4.4-9.833,9.231-14.626,13.992Zm-29.426,20.259c.339.218.827.182,1.2.428,1.305.857,2.646,1.965,3.927,2.885.619.188,2.065-1.01,1.271-1.588L497.29,145.729c-2.287,2.062.1,2.5,1.6,3.416a23.641,23.641,0,0,1,3.325,2.715,1.481,1.481,0,0,1,.928.085c3.793,2.117,8.031,5.643,11.615,7.878,10.277,6.408,20.166,13.813,30.283,20.321m-2.482-1.067c-1.268.563-1.24-.164-2.053-.732-4.7-3.285-9.654-6.281-14.417-9.482-5.057-3.4-10.573-7.728-15.456-10.48-3.788-2.135-7.247-5.077-10.845-7.479a32.55,32.55,0,0,1-4.018-2.492c-.542-.118-2.447,2.655-2.874,3.242-3.433,4.728-6.57,9.7-10.2,14.279l53.588,36.416c.4.088,1.141-.848,1.419-1.187,3.005-3.674,6.325-8.224,9.143-12.1,1.079-1.483,2.111-3.012,3.115-4.548,0-.41-4.639-2.713-4.942-3.171-.137-.207-.057-.559-.063-.811-1.111.756-2.009-.441-2.395-1.456m31.02-19.78c-.965-.144-1.594.785-2.065,1.472l2.065-.3Zm-1.18,2.95h-1.178l.3,1.473Zm-5.849,3.887c-.119.079-1.463,1.764-1.819,2.163-4.189,4.69-7.985,9.765-11.814,14.74a27.041,27.041,0,0,1-2.057,2.369l-7.53,10.76c5.934-6.581,11.585-13.383,17.407-20.061,2.726-3.127,5.776-6.082,8.413-9.29,1.438-1.749,1.538-1.994.888-4.273a10.7,10.7,0,0,0-1.932,1.776c-.3.6.307,1.1.032,1.474-.347.513-1.243.117-1.586.342m8.8,9.976c.33-.39-.724-8.882-.914-10.147a8.906,8.906,0,0,0-.706-2.832l-2.069,2.327,1.338,10.349Zm24.789-9.146a8.5,8.5,0,0,0,0-1.473c-.355-.776-.355,2.249,0,1.473m32.76,6.787a13.319,13.319,0,0,1-3.988.293c-.335.011-.81-.191-.733.293l1.047.293.161.858,2.137.042Zm19.625.293c-3,.4-6.793-.295-9.886,0,.334.427.489,1.221,1.018,1.2l8.267,0,.2-.866.85-.037c.063-1.115-.2-.327-.444-.295m-50.907,1.77h9.444l-.44-1.468a6.658,6.658,0,0,1-3.4.876l.885-1.176-3.393,0,1.032,1.179-4.13-.882Zm15.934-1.769h-.291v.588h.291Zm2.51,0a.148.148,0,0,0,0,.3.148.148,0,0,0,0-.3m22.133,0a.148.148,0,0,0,0,.3.148.148,0,0,0,0-.3m14.314,1.179,0-1.179-3.243.888c-.069.515.67.278,1.029.292.737.029,1.482-.018,2.217,0m-39.842,0a5.768,5.768,0,0,1-2.948-.887l0,1.179c.637-.005,1.281.014,1.922,0,.354-.008,1.1.219,1.029-.293m2.656-.886c-.606-.03-1.108-.122-1.471.441l.29.737.891-.141Zm15.936,0a10.976,10.976,0,0,0-2.138.664c-.315.127-.879.087-.81.513h2.951Zm-12.1.295-2.654.882,2.487.005Zm5.607.592-2.949-.592,0,.883c.637-.014,1.284.029,1.922,0,.36-.016,1.1.224,1.029-.292m6.789,18.877V176.257c-1.425-1.043-3.786-.215-5.446-.134-1.422.07-2.873-.079-4.294-.015l.3,17.261c-.062.788-.665.759-1.334.758-2.558,0-1.362-2.186-1.311-3.7.161-4.76-.148-9.56-.014-14.321h-9.739l.3,18h-2.658l-.293-18-9.446.3c.049,1.223-.065,2.467,0,3.692.2,4.021.721,8.657.307,12.69-.07.685-.313,1.681-1.188,1.613-.537-5.037-.194-10.125-.3-15.193-.007-.358.219-1.1-.3-1.03V194.4c-.343.12-1.181-.133-1.181-.443V176.4H576.527a4.982,4.982,0,0,1-.01,1.012c-4.418,16.977-5.654,33.308-6.774,50.762-.041.641-.406,1.244-.3,1.913,6.445.59,12.875,2.03,19.326,2.66,18.543,1.814,38.09.873,56.662-.3a12.122,12.122,0,0,0,3.542-.295l7.53-.29V175.518l-18.3.295.167,18.014Zm-60.2-17.7-2.617.041c-6.651,16.55-11.353,33.854-15.084,51.28l10.912,2.074a41.469,41.469,0,0,0,.292-4.282c1.077-13.637,2.134-27.76,4.806-41.214.209-1.052,1.99-7.624,1.691-7.9" transform="translate(-250.696 -3.822)" fill="#161615"/>
          <path id="Trazado_893895" data-name="Trazado 893895" d="M349.853,32.462c.1-.013.852-.3.737-.588-5.834-.888-11.429-3-17.115-4.574-1.391-.386-3.244-.573-4.517-1.088-.228-.092-.4-.161-.48-.421L334.524,0c12.16,2.139,24.208,4.87,36.368,7.006a393.33,393.33,0,0,0,50.659,6c2.5.11,5.075-.314,7.516.3.118,3.775-.07,7.569.01,11.348.043,2.028.607,4.312.295,6.462-.148,1.02-1.428,1.866-2.248,2.473a16.5,16.5,0,0,1-12.855,3.214c-3.415-.646-5.889-2.452-8.894-4.015a18.955,18.955,0,0,1-24.831.265l-.445.879c-.927.227-.269-.913-1.282-.548a18.441,18.441,0,0,1-17.6,3.647c-2.674-.78-4.5-2.327-6.883-3.642A34.333,34.333,0,0,0,350.5,35.76a18.574,18.574,0,0,1-20.707-1.826c-.422-.357-1.092-.866-1.036-1.472Zm78.352-1.18V26.267c-5.278-1.075-5.293-7.944,0-8.851l-.3-3.244c-4.494.054-8.974.014-13.432-.291C395,12.55,375.632,9.2,356.432,5.532c-6.934-1.326-13.866-2.758-20.754-4.3l-6.044,24c1.68.394,3.41.678,5.085,1.119,5.065,1.334,10.061,3.262,15.214,4.262a111.014,111.014,0,0,0,17.908,1.569c3.905.1,7.808-.056,11.672-.308V30.1l1.068,1.785,25.2-.308c-.263-2.075.838-2.156.588,0Zm0-11.8c-2.445.56-2.566,4.166,0,4.425Zm-2.658.886h-.291v.588h.291Zm1.771,11.8-19.475.735a15.18,15.18,0,0,0,17.387.862Zm-74.367.588H329.933a17.012,17.012,0,0,0,23.019,0m24.2.592-21.542-.59,1.377,1.129a16.4,16.4,0,0,0,20.166-.538m26.56-.59-21.247.44A16.775,16.775,0,0,0,396.1,36.511a18.732,18.732,0,0,0,7.606-3.752" transform="translate(-171.135)" fill="#161615"/>
          <path id="Trazado_893896" data-name="Trazado 893896" d="M429.7,85.881c.693,1.016-2.99,2.268-3.685,2.347-.786.089-.343-.676-.437-1.181l-.166,0c-7.867.073-15.739-.078-23.606-.01-9.368.081-18.934.523-28.3.617-11.708.118-23.47-.3-35.129.285-1.421.071-2.864-.056-4.284-.006v1.185c-.227.3-4.289-1.054-4.425-1.627-.068-.449.341-.632.674-.8a12.584,12.584,0,0,1,3.6-1.12l0,1.184c3.838-.066,7.685.08,11.522.013,19.331-.337,38.792-.711,58.109-.913,7.331-.076,14.672.088,22,.012l-.144-1.477Z" transform="translate(-171.749 -43.967)" fill="#161615"/>
          <path id="Trazado_893897" data-name="Trazado 893897" d="M193.171,83.847l-.295,1.474,50.939,15.311.409.031.006-.883c1-.533,4.555,2.236,3.83,2.945l-4.722.3-.021-1.456-50.6-15.319c-.572.059-.147,1.383-.866,1.13-.894-.314-2.3-2.11-3-2.275-1.033-.242-2.584.375-3.551.417-.5.022-1.036-.293-1.573-.2l.3-1.471c-1.016-.406-2.156-.474-3.185-.8-1.582-.506-3.424-1.477-4.962-1.828-.914-.209.076,1.429-.852,1.151-1.087-.327-2.264-1.919-3.309-2.442l-.384-.8c.81.068,5.32-.843,5.308.146l-.881,1.03a5.242,5.242,0,0,1,1.26.069c1.644.363,4.247,1.218,5.892,1.78.562.193,1.225.711,1.556.805.255.073.021-1.275.846-1.148L188.157,84c.24.123.383-.154.44-.154Z" transform="translate(-89.264 -41.06)" fill="#161615"/>
          <path id="Trazado_893898" data-name="Trazado 893898" d="M616.135,56.825l-.3-1.181-5.9,1.478.3,1.472-4.576-.781c-.707.313-3.654,2.858-4.275,2.256l.149-1.175-51.5,12.09c-.052.493.549,1.264-.172,1.455A27.815,27.815,0,0,1,546.4,72.1a2.062,2.062,0,0,1-1.089-.677,23.344,23.344,0,0,1,3.689-2.8c.467-.138.469.047.448.445-.026.5-.638,1.159.138,1.029l51.5-12.1-.295-1.473c.368-.363,4.058.547,4.878.467.554-.054,2.684-2.015,3.533-2.232l.6,1.183,5.576-1.456.172-1.5c1.459.653,3.364-.115,4.715,1.033-.384.516-3.79,3.163-4.125,2.8" transform="translate(-284.104 -27.608)" fill="#161615"/>
          <path id="Trazado_893899" data-name="Trazado 893899" d="M482.549,347.633l-.554.786.1.7,47.371,30.96c.048-.359.225-.992.743-.88.264.056,2.883,3.333,2.51,4.128l-4.72-.888.243-1.289L480.924,349.7l-.586,1.177a8.559,8.559,0,0,1-2.805-4.127Z" transform="translate(-248.793 -180.654)" fill="#161615"/>
          <path id="Trazado_893900" data-name="Trazado 893900" d="M298.248,197.637l1.194.166,10.531-33.727c2.317-6.342,4.239-12.837,6.007-19.354l-.884-.879c.093-.593,2.057-2.516,2.629-2.992.3-.247.381-.564.885-.44.02,1.13-.023,2.269,0,3.4.017,1.065.712,1.49-1.19,1.146l-16.476,53.229.827.472c.07.661-2,3.157-2.629,3.553a.613.613,0,0,1-.889-.3Z" transform="translate(-155.386 -73.139)" fill="#161615"/>
          <path id="Trazado_893901" data-name="Trazado 893901" d="M529.13,115.6l-1.179.145,10.327,44.695,1.473-.3a19.47,19.47,0,0,1-.291,3.984c-.209,1.23-.485,1.379-1.309.417-.341-.4-2.34-3.576-1.941-3.812l.883,0-.016-.711c-1.745-6.391-2.662-13.044-4.49-19.408a11.816,11.816,0,0,0-.573-1.788c-.4-.807-1.9-1.713-.506-2.159-.954-6.411-3.252-12.893-4.372-19.219a7.025,7.025,0,0,1-.074-1.549l-1.473.293.591-4.718c.476-.107.6.165.892.434.481.444,2.544,3.274,2.059,3.695" transform="translate(-273.829 -58.063)" fill="#161615"/>
          <path id="Trazado_893902" data-name="Trazado 893902" d="M312.709,397.043l-.148-1.473L277,416.517c-.188.536.911,1.293.3,1.626-1.019.559-3.224.437-4.433.73-.716-.711,2.23-3.9,2.807-4.126.127-.05.3.008.434,0l.285.744.43.118,34.565-20.625-.423-.777c-.107-.223.081-.461.258-.561a36.55,36.55,0,0,1,3.705-.746c1.255,0,1.143.643.563,1.473-.344.493-1.459,1.771-1.9,2.229-.281.29-.4.549-.883.443" transform="translate(-142.106 -204.698)" fill="#161615"/>
          <path id="Trazado_893903" data-name="Trazado 893903" d="M3.865,125.149l-1.451.322.268,16.79,1.481.15c-.3,1.089-1.638,5.652-2.89,3.177C1.228,144.56.266,143.476.032,142.7c-.245-.816.984-.269,1.179-.436L1.176,125.48.048,125.13c-.251-.355.9-3.086,1.14-3.687.148-.365.255-.781.756-.716.48.113,2.094,4.252,1.922,4.422" transform="translate(0 -62.895)" fill="#161615"/>
          <path id="Trazado_893904" data-name="Trazado 893904" d="M327.472,1.2l.554,4.24-.444.415-.711-.1-.233.358c-1.118,4.342-1.8,9.136-3.143,13.381a5.863,5.863,0,0,1-.741,1.325c-.357.709,1.317.248,1.468.88a20.457,20.457,0,0,1-2.578,3.6c-.166.184.041.577-.66.381a14.554,14.554,0,0,1-.592-5.014l1.473.3,3.539-15.631-.884,0c-.437-.26,1.173-2.73,1.481-3.093.2-.234,1.185-1.353,1.47-1.036" transform="translate(-166.905 -0.596)" fill="#161615"/>
          <path id="Trazado_893905" data-name="Trazado 893905" d="M543.314,28.335l1.493,3.97-1.48.15a8.338,8.338,0,0,0,.036,1.594c.119.374,2.138.987-.036,1.062l0,.439c2.034,1.467.173,2.243,0,3.251s.367,1.948.327,2.954c-.025.621-.286,1.037-.321,1.615.059.069,1.544-1.355,1.482-.143a10.952,10.952,0,0,1-1.632,4.268c-.482,0-2.127-3.65-2.219-4.271-.154-1.037,1.424-.085,1.479-.15-.031-1.327.044-2.667.016-4-.024-1.178-.314-2.733-.321-3.821-.006-.8.573-1.855.307-2.8L541.4,32.7c-1.108-.809.125-1.807.517-2.688.364-.818.046-1.931,1.4-1.677" transform="translate(-281.832 -14.743)" fill="#161615"/>
          <path id="Trazado_893906" data-name="Trazado 893906" d="M302.558,60.273v-.884l11.215-.3-.144-1.181c1.608.322,3.4.65,4.567,1.92,0,.707-3.565,1.823-4.285,1.913-1.033.128-.058-1.178.157-1.47Z" transform="translate(-157.631 -30.171)" fill="#161615"/>
          <path id="Trazado_893907" data-name="Trazado 893907" d="M819.829,29.588l.262,4.39c-.334.482-3.92.4-4.706.2-.577-.385-.169-3.44-.253-4.272Zm-1.178,1.179h-2.363v2.362h2.363Z" transform="translate(-424.648 -15.415)" fill="#161615"/>
          <path id="Trazado_893908" data-name="Trazado 893908" d="M442.447,103.489l-.129,4.148c-.352.526-4.809.4-4.9-.2.2-1.256-.44-2.983.456-3.943Zm-1.474.883-2.03.037a2.319,2.319,0,0,0,0,2.29l2.03.036Z" transform="translate(-227.873 -53.917)" fill="#161615"/>
          <path id="Trazado_893909" data-name="Trazado 893909" d="M34.628,95.215c-.265.265-2.276-1.028-2.507-1.468-.787.707-1.256,1.72-2.508,1.468l1.46-2.472c-.489-.758-1.642-1.146-1.46-2.246,1.4-.316,1.39.792,2.237,1.465L34.181,90.5c1.119.81-1.151,1.852-1.013,2.475.547.688,1.459,1.255,1.46,2.245" transform="translate(-15.418 -47.12)" fill="#161615"/>
          <path id="Trazado_893910" data-name="Trazado 893910" d="M401.5,103.434c.232.908-1.574,1.954-1.46,2.473l1.461,1.949c-.952.356-1.64-.76-2.259-.832-.52-.061-1.189.634-1.679.884-.373.191-.7.23-.785-.2l1.2-2.059c0-.753-1.52-1.169-1.2-2.212l2.212,1.2c.614,0,1.5-1.55,2.508-1.2" transform="translate(-206.695 -53.861)" fill="#161615"/>
          <path id="Trazado_893911" data-name="Trazado 893911" d="M419.787,103.459l.024,1.746c.307.271,2.024-.086,1.746.907l-1.77,0c.933,1.881-1.449,2.039-.591,0-.239-.222-1.788.5-1.477-.591l1.35-.276c.434-.624-.406-2.039.717-1.789" transform="translate(-217.609 -53.887)" fill="#161615"/>
          <path id="Trazado_893912" data-name="Trazado 893912" d="M126.83,225.491l2.662,11.635a4.28,4.28,0,0,0-.5,2.877c.169.737.75.954.97,1.39.549,1.09-.136,6.61-.516,8.031a6.305,6.305,0,0,1-1.684,3.027,13.624,13.624,0,0,1,1.887,2.53c4.646,7.449,9.582,14.741,13.992,22.313,0,2.35-.971,5.351-.844,7.6.278,4.915,2.815,12.526,3.756,17.789a223.114,223.114,0,0,1,3.3,33.506l-.457.428c-9.854,1.869-19.519,4.646-29.491,5.92-2.857.365-6.257.786-9.1.929-5.268.266-10.783-.206-16.074-.037l-1.5-12.214c-.85-12.811-1.855-25.537-2.655-38.35a86.185,86.185,0,0,1,.3-9.151c.843-16.594,2.411-33.265,3.844-49.845.225-2.6.3-5.228.585-7.824Z" transform="translate(-47.154 -117.48)" fill="#fff"/>
          <path id="Trazado_893913" data-name="Trazado 893913" d="M64.394,226.656c.217.981-.247,1.919-.3,2.8-.507,8.673-1.4,17.325-2.059,25.966-2.115,27.878-3.552,55.857-5.318,83.77a26.981,26.981,0,0,1-.292,4.871H33.407c.175-4.944-.229-9.972-.014-14.911.061-1.391.565-2.865.3-4.363,1.743-.924,3.107-2.526,1.786-4.479-1.026-1.517-1.909-.677-2.084-3.227-.475-6.936-.193-14.809-.3-21.828-.054-3.662-.386-8.943,0-12.419.209-1.892,2.971-1.464,2.313-4.642-.283-1.365-1.135-1.695-2.316-2.154l.071-36.944c3.129-1.005,2.936-4.72-.053-5.656v-6.785Z" transform="translate(-17.148 -118.087)" fill="#fff"/>
          <path id="Trazado_893914" data-name="Trazado 893914" d="M235.912,236.538l26.261,49.651c-7.905,5.154-16.253,9.623-24.156,14.813-2.7,1.774-5.649,3.725-8.258,5.61a16.023,16.023,0,0,0-2.536,2.181l-6.523-10.6c-.507-.762,1.012-.979,1.039-1.337-.459-.643-1.2-2.52-1.943-2.76-.614-.2-1.136-.172-.987.541h-.29l-2.952-5.162,7.375-.737-.324-1.148-7.643.557.589-1.471-1.48.461-2.6-3.923c1.339-12.235,2.511-24.484,4.21-36.675l19.135-9.781Z" transform="translate(-110.183 -123.235)" fill="#fff"/>
          <path id="Trazado_893915" data-name="Trazado 893915" d="M203.2,138.585c-.045.069-.824-.131-.548.767.221.715,1.09.148,1.142.184.079,1.148,1.349.96,1.783,1.612.377.568.723,1.884,1.152,2.684,2.366,4.414,4.861,8.758,7.133,13.224l-4.421,2.21a59.653,59.653,0,0,0-2.9-6.1c-9.091-16.568-18.517-33.1-27.048-49.955-.578-1.141-1.359-2.228-1.921-3.388l1.471,0-3.393-3.094c-.933-.029.026,4.127.151,4.715l1.03-.881.4.478,31.291,58.634c-.067.3-.423.388-.649.533-1.665,1.071-4.522,2.388-6.4,3.338-2.892,1.464-5.913,2.679-8.765,4.218-1.149.62-2.37,1.952-3.754,1.818-.829-.08-3.333-1.037-3.442-1.918l1.493-13.121a45.576,45.576,0,0,1-10.394-.967,32.669,32.669,0,0,1-6.636-2.217c-1.483-.828-3.073-3.527-4.22-4.926-.6-.732-1.476-1.337-2.058-2.072-2.089-2.635-2.811-9.012-2.969-12.372-.651-13.824,2.2-27.461,5.031-40.872.244-.353,4.643,1.623,5.281,1.949,15,7.673,20.21,21.911,27.717,36.012,1.075,2.02,3.366,5.184,3.965,7.265.14.489-.114.84-.021,1.165.1.365.753.675.5,1.072m-12.352,21.27c-.141-.773-.753-4.241-1.335-4.419-.236-.072-.623-.122-.749.173-.449,1.045-1.49,2.661-1.749,3.516s1.276.246,1.47.437l-.3,4.424-1.472-.589c-.107.823.621,4.2,1.348,4.408a.729.729,0,0,0,.864-.28c.386-.409,1.783-3.528,1.312-3.823l-.885-.17.284-3.5Z" transform="translate(-83.69 -47.453)" fill="#fff"/>
          <path id="Trazado_893916" data-name="Trazado 893916" d="M245.808,175.931a10.536,10.536,0,0,0-1.424-3.445c-4.813-9.117-9.969-18.064-14.694-27.231l.488-1.624-.562-.18.548-1.737-1.473.294v-1.182l-1.631-.288-21.539-40.119,58.273,18.758Z" transform="translate(-107.076 -52.317)" fill="#fff"/>
          <path id="Trazado_893917" data-name="Trazado 893917" d="M15.838,312.619c-.106.012-.382.417-.737.294-.072-5.16.088-10.336.013-15.5-.128-8.875-.544-17.942-.618-26.816-.128-15.292.124-30.6.015-45.884l1.448.32.171,1.151a32.408,32.408,0,0,1,3.631-1.1c.414-.136.762.132.657-.519-.1-.616-.5-.812-.98-1.087a17.975,17.975,0,0,0-3.007-1.127c-.783-.111-.357.7-.444,1.188H14.509L14.2,169.442l7.39-3.138-.036,2.323a3.321,3.321,0,0,0,.053,6.418c-.249,8.857.388,17.626.3,26.472-3.6,1.5-3.6,5.068,0,6.567.04,6.183-.1,12.376-.029,18.559.008.705.314,1.332.323,2.037.067,5.206-.093,10.418,0,15.623-3.925,1.026-3.925,5.514,0,6.54.147,9.525-.25,19.081-.031,28.6a14.455,14.455,0,0,0,.312,1.753l.011,5.865c-2.229,1.068-4,2.957-2.038,5.305.6.717,1.907,1.021,2.028,1.808.177,4.974-.248,10.111-.019,15.063.051,1.1.524,2.2.309,3.378-2.2.188-4.782-.255-6.935,0" transform="translate(-7.399 -86.644)" fill="#fff"/>
          <path id="Trazado_893918" data-name="Trazado 893918" d="M129.058,121.136a1.241,1.241,0,0,0-.275-.742c-3.693-5.207-7.5-10.352-11.67-15.194-.872-1.013-5.263-5.3-5.4-6.083l3.474-24.44.46-.73,23.716,7.386c.337.294-1.441,7.615-1.663,8.769-1.975,10.259-3.564,20.56-3.333,31.035Zm1.771-10.62v5.31l-.878.146-.263.535c1.562,5.7,2.7,4.209,3.8-.53l-1.186-.149-.128-5.033Z" transform="translate(-58.203 -38.526)" fill="#fff"/>
          <path id="Trazado_893919" data-name="Trazado 893919" d="M32.712,179.82c1.859-1.076,2.758-1.567,2.36-3.983l31.579-.293-2.361,23.893H32.712Z" transform="translate(-17.043 -91.457)" fill="#fff"/>
          <path id="Trazado_893920" data-name="Trazado 893920" d="M32.8,136.838l.1-3.509a53.387,53.387,0,0,0,7.971-5.012c6.838-5.4,11.192-11.807,14.963-19.557.3-.62,1.486-4.031,1.864-4.033,2.826,2.914,6.018,5.343,8.86,8.249.255.261.379.637.605.869.728.749,2.529,1.614,2.48,2.787-.076,1.84-.882,4.567-1.147,6.554-.6,4.5-.927,9.047-1.5,13.545a.757.757,0,0,1-.28.605c-5.857.3-11.729.046-17.591.115-4.348.052-8.885.663-13.279.321a9.443,9.443,0,0,1-3.045-.937" transform="translate(-17.087 -54.563)" fill="#fff"/>
          <path id="Trazado_893921" data-name="Trazado 893921" d="M132.057,198.483l-31.577.3,2.363-23.6a194.783,194.783,0,0,1,19.777-.153c.5.261,5.616,8.559,6.042,9.6,1.7,4.14,2.251,9.5,3.4,13.86" transform="translate(-52.35 -91.095)" fill="#fff"/>
          <path id="Trazado_893922" data-name="Trazado 893922" d="M31.48,111.952V93.368c8.317.078,15.333-3.552,19.422-10.822,2.633-4.68,3.237-10.28,4.327-15.439l.351-.24c1.572-.337,3.27-.461,4.821-.79.338-.072.353-.383.3.3-.171,2.311-1.486,6.668-2.155,9.059-4.232,15.143-12.118,29.83-27.069,36.513" transform="translate(-16.401 -34.357)" fill="#fff"/>
          <path id="Trazado_893923" data-name="Trazado 893923" d="M216.263,392.322l-.893,0,.3.587-7.083,1.182c-.069-1.322.082-2.674.012-4a252.363,252.363,0,0,0-3.642-31.463c-.87-4.7-3.215-11.64-3.462-16.019-.114-2.027.957-4.23.6-6.339a13.219,13.219,0,0,1,2.3,2.856c.379,1.231-.443,2.991-.171,4.6.362,2.144,2.019,5.564,2.738,7.881a288.71,288.71,0,0,1,9.3,40.71" transform="translate(-104.975 -175.198)" fill="#fff"/>
          <path id="Trazado_893924" data-name="Trazado 893924" d="M294.761,280.543l-4.114,2.081-26.255-49.836,3.725-1.755.539.261Z" transform="translate(-137.747 -120.367)" fill="#fff"/>
          <path id="Trazado_893925" data-name="Trazado 893925" d="M97.473,94.308c-.207.233-1.533-.813-1.775-1.026-1.16-1.019-1.97-2.566-3.234-3.552L85.645,83.8,90.53,66.618l10.412,3.339Z" transform="translate(-44.621 -34.708)" fill="#fff"/>
          <path id="Trazado_893926" data-name="Trazado 893926" d="M175.534,225.424c.764.126,3.269,3.985,3.988,4.863.405.5,1.415,1.214,1.631,1.633.454.882-1.049,1.928.124,3.4s3.114.191,3.842.562c.325.166.784.855,1.209,1.171a22.446,22.446,0,0,1,2.657,1.776c.445.525,0,3.213-.8,3.665l-16.928,8.593a25.1,25.1,0,0,0,1.16-9.561c3-.925,2.88-4.791-.59-4.727l-2.343-11.375Z" transform="translate(-88.3 -117.445)" fill="#fff"/>
          <path id="Trazado_893927" data-name="Trazado 893927" d="M189.948,262.992l-2.977,26.373-.56,1.648a1.861,1.861,0,0,0-.405-.923c-2.9-4.027-5.929-8.037-9.045-11.9-1.659-2.059-3.844-3.873-5.015-6.343Z" transform="translate(-89.583 -137.018)" fill="#fff"/>
          <path id="Trazado_893928" data-name="Trazado 893928" d="M124.616,150.94c-1.361-.645-2.412-.021-3.673.014-4.963.139-9.956-.132-14.919-.012a183.312,183.312,0,0,1,2.66-20.355c2.3,2.642,4.834,5.122,7.077,7.82,2.561,3.08,6.7,8.134,8.5,11.562.174.331.462.521.355.971" transform="translate(-55.238 -68.035)" fill="#fff"/>
          <path id="Trazado_893929" data-name="Trazado 893929" d="M90.071,430.047H84.464l2.509-38.35Z" transform="translate(-44.005 -204.072)" fill="#fff"/>
          <path id="Trazado_893930" data-name="Trazado 893930" d="M199.4,225.424l-1.478,12.094c-.134.171-3.429-2.29-3.559-2.488-.526-.812-.026-1.575-.553-2.4-.729-1.138-2.006-.766-2.839-1.292-1.8-1.139-3.452-4.28-4.852-5.917Z" transform="translate(-96.967 -117.445)" fill="#fff"/>
          <path id="Trazado_893931" data-name="Trazado 893931" d="M207.862,260.516l2.471-1.217c.266,1.668-.272,3.47-.449,5.156-.9,8.61-1.543,17.324-2.678,25.938-.067.509-.321,2.834-.711,2.825-1.487-1.819-2.06-2.74-1.921-5.163.172-2.991.83-6.652,1.178-9.735.671-5.934,1.534-11.859,2.11-17.8" transform="translate(-106.572 -135.094)" fill="#fff"/>
          <path id="Trazado_893932" data-name="Trazado 893932" d="M281.854,345.433c-4.126,2.416-8.365,4.692-12.456,7.169-4.4,2.666-8.674,5.463-12.994,8.251l-.487.984c.121.455.409.388.782.2a9.495,9.495,0,0,0,1.264-.819c1.337-.991,2.777-1.879,4.252-2.817,4.054-2.578,8.121-5.16,12.412-7.355l.473-1.157c1.315.838,1.808-.491,2.671-1.01.372-.224.858-.272,1.263-.508,1.2-.7,2.305-1.766,3.734-2.018l9.15,16.669c-.616.236-1.326-.595-1.474.586l2.357,2.067-35.53,21.371-9.931-18.4c.966-1.077,3.266-1.752,3.955-2.828a15.056,15.056,0,0,1,2.275-1.9,25.085,25.085,0,0,0,2.22-1.342l-.172-1.18-8.537,6.072-.585.105-.613-1.294c10.905-8.734,23.2-15.564,35.269-22.554Z" transform="translate(-128.104 -179.08)" fill="#fff"/>
          <path id="Trazado_893933" data-name="Trazado 893933" d="M172.684,213.6h-5.9l-1.918-9.737c1.4,2.745,3.6,4.562,5.75,6.644Z" transform="translate(-85.893 -106.213)" fill="#fff"/>
          <path id="Trazado_893934" data-name="Trazado 893934" d="M236.684,383.661l-12.627-19.383-.356-.97c1.908-.414,2.227,1.344,3.191,2.561Z" transform="translate(-116.548 -189.25)" fill="#fff"/>
          <path id="Trazado_893935" data-name="Trazado 893935" d="M154.517,174.926c-.084,2.777.786,5.486.883,8.259l-4.659-7.288-.356-.971Z" transform="translate(-78.35 -91.136)" fill="#fff"/>
          <path id="Trazado_893936" data-name="Trazado 893936" d="M197.678,103.129c-1.6-1.157-2.774-2.875-4.281-4.126-1.876-1.558-4.267-2.49-6.046-4.131L194.3,97.22Z" transform="translate(-97.609 -49.427)" fill="#fff"/>
          <path id="Trazado_893937" data-name="Trazado 893937" d="M192.665,314.745c-.809.177-.5-.25-.724-.589-2.373-3.554-4.531-7.261-6.89-10.826l-1.093-2.15c1.986,2.4,4.017,4.88,5.882,7.392a33.876,33.876,0,0,1,2.669,3.822,6.863,6.863,0,0,1,.156,2.349" transform="translate(-95.841 -156.914)" fill="#fff"/>
          <path id="Trazado_893938" data-name="Trazado 893938" d="M217.658,355.047l-4.431-7.077c1.88-.114,2.444.745,3.37,2.086a38.388,38.388,0,0,1,2.2,3.726,1.106,1.106,0,0,1-1.141,1.265" transform="translate(-111.09 -181.286)" fill="#fff"/>
          <path id="Trazado_893939" data-name="Trazado 893939" d="M325.931,336.889l.59,1.765c-1.513.611-4.7,4.294-4.587.591Z" transform="translate(-167.725 -175.518)" fill="#fff"/>
          <path id="Trazado_893940" data-name="Trazado 893940" d="M205.792,333.9c-1.349-1.459-2.9-2.914-2.062-5.015,1.511,1.194,2.725,3.049,2.062,5.015" transform="translate(-106.019 -171.348)" fill="#fff"/>
          <path id="Trazado_893941" data-name="Trazado 893941" d="M85.193,62.793l-3.127.853-1.3.028.3-2.064Z" transform="translate(-42.08 -32.098)" fill="#fff"/>
          <path id="Trazado_893942" data-name="Trazado 893942" d="M183.884,221.945a3.575,3.575,0,0,1-.692-.783c-.164-.252-.63-1-.486-1.284l2.275.97,4.363,1.1Z" transform="translate(-95.175 -114.556)" fill="#fff"/>
          <path id="Trazado_893943" data-name="Trazado 893943" d="M27.883,332.38c.111-.115.374-.108.527-.213.2-.277.516.157.563.33.136.5.175,3.377-.411,3.356-.417-.43-1.2-1.051-1.265-1.661a6.057,6.057,0,0,1,.585-1.813" transform="translate(-14.221 -173.011)" fill="#fff"/>
          <path id="Trazado_893944" data-name="Trazado 893944" d="M28.614,242.669l-.146,3.833c-.56-.634-1.343-.976-1.354-1.911-.008-.751.611-1.96,1.5-1.922" transform="translate(-14.126 -126.429)" fill="#fff"/>
          <path id="Trazado_893945" data-name="Trazado 893945" d="M29.84,425.1c-1.994-.72-1.968-2.925-.145-3.834Z" transform="translate(-14.763 -219.476)" fill="#fff"/>
          <path id="Trazado_893946" data-name="Trazado 893946" d="M28.3,177.53c-1.709-.843-1.5-2.722-.145-3.834Z" transform="translate(-14.107 -90.495)" fill="#fff"/>
          <path id="Trazado_893947" data-name="Trazado 893947" d="M210.763,341.4l.146-2.655a6.834,6.834,0,0,1,1.619,2.213c-.428.618-1.1.442-1.765.442" transform="translate(-109.807 -176.483)" fill="#fff"/>
          <path id="Trazado_893948" data-name="Trazado 893948" d="M174.836,253.973l-.175-2.054c-.1-1.106,1.58-.525,1.364,1.013a1.183,1.183,0,0,1-1.189,1.041" transform="translate(-90.995 -130.951)" fill="#fff"/>
          <path id="Trazado_893949" data-name="Trazado 893949" d="M214.063,255.577c.034,1.08-1.352,1.059-2.064,1.472l.3-2.065Z" transform="translate(-110.451 -132.846)" fill="#fff"/>
          <path id="Trazado_893950" data-name="Trazado 893950" d="M33.332,335.826l.145-3.244a1.967,1.967,0,0,1-.145,3.244" transform="translate(-17.366 -173.274)" fill="#fff"/>
          <path id="Trazado_893951" data-name="Trazado 893951" d="M270.427,434.2c-.609-.717,1.959-2.135,2.454-2.412.264-.148.805-.513,1.081-.392Z" transform="translate(-140.843 -224.741)" fill="#fff"/>
          <path id="Trazado_893952" data-name="Trazado 893952" d="M33.6,176.154c.114.127.118,2.747-.883,2.36v-2.361Z" transform="translate(-17.044 -91.776)" fill="#fff"/>
          <path id="Trazado_893953" data-name="Trazado 893953" d="M34.564,425.149l.145-2.654a2.161,2.161,0,0,1,.752,1.613Z" transform="translate(-18.008 -220.118)" fill="#fff"/>
          <path id="Trazado_893954" data-name="Trazado 893954" d="M33.332,246.556l.145-2.654a1.531,1.531,0,0,1-.145,2.654" transform="translate(-17.366 -127.072)" fill="#fff"/>
          <path id="Trazado_893955" data-name="Trazado 893955" d="M197.157,243.823l-.889-.141-.289-1.037c.544-.194,1.446.908,1.178,1.178" transform="translate(-102.104 -126.405)" fill="#fff"/>
          <path id="Trazado_893956" data-name="Trazado 893956" d="M228.6,360.3l-.146.588-.444-.587Z" transform="translate(-118.794 -187.712)" fill="#fff"/>
          <path id="Trazado_893957" data-name="Trazado 893957" d="M335.1,363.972l-.442-2.657-.738-.292.148,1.174c-3.616-5.253-6.072-11.2-9.25-16.727l-.017-.639,3.658-2.39,10.45,19.324c-.377.472-3.538,2.525-3.809,2.207" transform="translate(-169.222 -178.41)" fill="#fff"/>
          <path id="Trazado_893958" data-name="Trazado 893958" d="M731.522,377.028l2.822-.277-.167-18.014,18.3-.295v56.345l-7.53.29a12.12,12.12,0,0,1-3.542.295c-18.572,1.177-38.119,2.118-56.662.3-6.451-.631-12.881-2.07-19.326-2.66-.106-.669.259-1.272.3-1.913,1.12-17.454,2.356-33.785,6.774-50.762a5.018,5.018,0,0,0,.01-1.012h22.428v17.552c0,.31.838.563,1.181.443V361.1c.514-.068.288.673.3,1.03.1,5.068-.241,10.156.3,15.193.875.068,1.118-.928,1.188-1.613.414-4.033-.1-8.669-.307-12.69-.062-1.225.051-2.469,0-3.692l9.446-.3.293,18h2.658l-.3-18h9.739c-.134,4.76.175,9.56.014,14.321-.051,1.511-1.247,3.695,1.311,3.7.67,0,1.272.03,1.335-.758l-.3-17.261c1.421-.063,2.873.085,4.294.015,1.66-.081,4.021-.909,5.446.134Z" transform="translate(-346.669 -186.747)" fill="#fff"/>
          <path id="Trazado_893959" data-name="Trazado 893959" d="M681.761,281c.749.056,1.676.954,1.622-.884l-5.9-.443c.555-.618,1.229-1.141,1.766-1.775,5.633-6.634,11.6-13.885,17.556-20.209.588-.625,3.24-2.8,3.345-3.145a3.512,3.512,0,0,0,.027-1.391c-.339-3.392-2-7.648-2-10.951,0-.524.4-1.024.493-1.536.391-2.1-1.561-2.7-1.12-4.8l60.8-.59.293,56.933-4.275-1.478c-.693,1.074.665.6.439,1.479H744.177l.884-.594-.148-.588c-1.51-.073-2.659.989-3.982,1.481l.3.728,2.059.741-2.951,0-.3-10.915-2.655.295v8.259l-3.54-.884.589,1.177-3.541.3c-.07-.058,1.353-1.623.152-1.473a26.776,26.776,0,0,0-3.1,1.18v-8.407l-.48-.422-1.7.025-.475.4v9l-3.692-1.469c-.671.455-.413.849-.145,1.467h-1.77c-.137-.115.97-1.15.44-1.476l-4.276,1.773v-9.44l-2.465-.014c-.171.057-.486.707-.486.751v7.522l-3.54-.884.882,1.474c-1.1-.687-2.09.024-3.244,0l.884-1.327c.206-.65-3.746,1.2-4.13,1.034V283.8l-.465-.422-2.191.275V294.57l-22.447.165c-.512-.342-.2-1.741-.272-2.383-.2-1.77-.4-3.548-.59-5.31-.227-2.09-.931-3.89-.3-6.043,1.408.076,2.874-.1,4.279,0" transform="translate(-352.832 -122.578)" fill="#fff"/>
          <path id="Trazado_893960" data-name="Trazado 893960" d="M585.738,211.805l-1.149.329c-.272,1.1.4,2,.854,2.917l-1.442.33c.511,6.727,1.559,13.453,2.332,20.169.3,2.566.553,5.146.85,7.7.455,3.914.793,7.845,1.434,11.732l-2.733,3.134c-.4-.7-.64-1.356-1.611-1.171l-1.495,3.1.893.872L571.665,275.2c-1.044.262-4.33-2.636-5.427-3.335-13.411-8.548-26.524-17.505-39.721-26.373-3.184-2.139-6.554-3.972-9.523-6.422l35.25-49.969c2.2,1.627,4.635,3.38,6.958,4.841,7.974,5.015,17.852,10.376,25.159,16.15.278.219,1.753,1.372,1.378,1.717" transform="translate(-269.352 -98.519)" fill="#fff"/>
          <path id="Trazado_893961" data-name="Trazado 893961" d="M624.4,136.283l-21.745-14.1a71.683,71.683,0,0,1-10.883-7.135l4.872-6.947c1.321-.468,1.45-1.7,2.966-1.313l-.135-2.665c.3-.379.721-.643,1.017-1.026,7.152-9.226,13.425-19.5,20.667-28.6,6.516-8.188,16.481-15.408,26.707-18.143.159-.042.482-.083.436.142L647.424,59c1.681.221,2.978-.89,4.425-1.478l-.571-1.287,1.086-1,30.314-6.569c.406.059,1.371.677.753,1.043a23.837,23.837,0,0,1-3.318,1.108c-5.731,1.794-11.581,3.4-17.342,5.085-5.56,1.63-11.187,3.042-16.7,4.845a5.035,5.035,0,0,0-.1,2.2c.8,8.633,3.347,17.881,4.369,26.6,1.582,13.5,3,36.532-10.03,45.086-1.052.69-1.066-.426-2.633.317-1.38.654-1.094,1.5-1.676,1.933-1.488,1.115-7.221,1.422-9.081,1.149a2.182,2.182,0,0,1-1.342-.724v-4.425c0-.134-.436-.651-.311-1.022l-.869-.011Z" transform="translate(-308.313 -25.354)" fill="#fff"/>
          <path id="Trazado_893962" data-name="Trazado 893962" d="M764.966,61.286c.033-.117.65-.588.839-.931.3-.551,1.014-2.6,1.666-2.46.321.07,1.541,2.062,1.926,2.5,1.414,1.615,3.669,3.592,5.9,3.69.177-.808-.25-.5-.589-.723-2.578-1.722-4.862-3.012-6.2-6.058.855.132,1.686.42,2.545.551,4.279.653,8.366.5,12.65.925h4.872a10.507,10.507,0,0,1-2.65,3.4c-.926.768-2.275,1.192-2.953,1.768-.466.4-.194.384.141.727a12.739,12.739,0,0,0,4.29-2.493c.634-.572.926-1.594,1.763-1.63V110.4l-51.645.588c.906-1.712,1.691-3.5,2.6-5.213,7.036-13.209,14.439-26.167,21.945-39.126.168-.29,1.437-3.2,1.715-2.856.115.76-.228,2.018.141,2.664.291.51.638-.11,1.041-.009.247-1.38-.337-3.971,0-5.162" transform="translate(-384.245 -29.856)" fill="#fff"/>
          <path id="Trazado_893963" data-name="Trazado 893963" d="M779.535,170l.59,30.386-61.09.885,0-7.822c.386-1.631.349-3.329.629-4.975,1.1-6.433,4.906-12.041,7.688-17.829Z" transform="translate(-374.613 -88.567)" fill="#fff"/>
          <path id="Trazado_893964" data-name="Trazado 893964" d="M606.231,73.317c-3.513,5.625-7.166,11.179-10.971,16.613-6.242,8.913-12.78,17.7-19.411,26.316-1.536-.583-1.43.689-1.848.96-.317.205-1.094-.093-1.409.505l.88.446c.219.8-.506.533-.881,1.028l.572.852-13.853,19.355L548.4,86.3Z" transform="translate(-285.713 -38.198)" fill="#fff"/>
          <path id="Trazado_893965" data-name="Trazado 893965" d="M544.189,332.513c.386,1.015,1.283,2.213,2.394,1.456.006.253-.074.6.064.811.3.458,4.942,2.761,4.942,3.171-1,1.536-2.036,3.065-3.115,4.548-2.818,3.876-6.137,8.426-9.143,12.1-.278.339-1.018,1.275-1.419,1.187L484.324,319.37c3.632-4.576,6.768-9.551,10.2-14.278.427-.588,2.331-3.361,2.874-3.242a32.571,32.571,0,0,0,4.018,2.491c3.6,2.4,7.057,5.344,10.845,7.479,4.883,2.752,10.4,7.081,15.456,10.48,4.763,3.2,9.714,6.2,14.417,9.482.813.568.785,1.295,2.053.731" transform="translate(-252.331 -157.26)" fill="#fff"/>
          <path id="Trazado_893966" data-name="Trazado 893966" d="M712,108.232l0-6.051c-.323-12.607-3.882-25-5.284-37.489a5.126,5.126,0,0,1,0-1.559c6.812-1.945,13.589-4.064,20.4-6.025.844-.243,1.632-.468,2.511-.721,5.182-1.489,10.383-2.932,15.576-4.377l2.206,1.22c.077.361-1.073,1.154-.464,1.929l1.073.443-.15,2.5c-8.464,14.294-16.562,28.8-24.417,43.441-1.188,2.215-2.073,4.747-3.636,6.691Z" transform="translate(-368.167 -27.096)" fill="#fff"/>
          <path id="Trazado_893967" data-name="Trazado 893967" d="M669.289,242.831a.863.863,0,0,1,.579.14l23.11,15.268c-1.263,1.657-3.079,2.684-4.566,3.987-6.014,5.269-11.768,10.851-17.416,16.511-.389.014-.645-2.32-.711-2.825-.722-5.47-1.161-11.016-1.792-16.5-.6-5.183-1.46-10.391-1.733-15.588.195-.6,1.932-.985,2.528-1" transform="translate(-347.38 -126.514)" fill="#fff"/>
          <path id="Trazado_893968" data-name="Trazado 893968" d="M658.51,360.293c.3.273-1.483,6.845-1.691,7.9-2.672,13.454-3.729,27.577-4.806,41.214a41.451,41.451,0,0,1-.292,4.282l-10.912-2.074c3.731-17.426,8.433-34.73,15.084-51.28Z" transform="translate(-333.859 -187.711)" fill="#fff"/>
          <path id="Trazado_893969" data-name="Trazado 893969" d="M695.366,236.367l-.034,1.741a2.5,2.5,0,0,0-2.182,2.422c.295,2.293,2.777,2.137,3.049,3.117l1.525,10.126-22.426-14.9c1.414-.489,4.343-2.473,5.69-2.162.414.1.755.514,1.235.521.8.011,1.486-.785,2.354-.881,3.342-.372,7.369.31,10.789.015" transform="translate(-351.828 -123.079)" fill="#fff"/>
          <path id="Trazado_893970" data-name="Trazado 893970" d="M561.521,330.667c-10.117-6.508-20.007-13.913-30.283-20.321-3.584-2.235-7.822-5.76-11.615-7.878a1.485,1.485,0,0,0-.927-.085,23.741,23.741,0,0,0-3.325-2.715c-1.5-.917-3.883-1.354-1.6-3.415l54.147,36.138c.794.578-.652,1.776-1.271,1.588-1.281-.92-2.622-2.028-3.927-2.885-.375-.246-.863-.21-1.2-.428" transform="translate(-267.181 -154.347)" fill="#fff"/>
          <path id="Trazado_893971" data-name="Trazado 893971" d="M662,245.129l4.153,35.556c-.007,1.258-1.6,1.5-2.235,2.5L659.4,245.856l.434-.379Z" transform="translate(-343.546 -127.711)" fill="#fff"/>
          <path id="Trazado_893972" data-name="Trazado 893972" d="M719.886,171.231c-1.075,2.428-2.6,4.609-3.8,6.973-.967,1.911-1.745,4.224-2.745,6.105a66.587,66.587,0,0,1-5.708,8.452l2.147-4.932c2.015-5.278,2.558-10.98,2.725-16.6Z" transform="translate(-368.676 -89.211)" fill="#fff"/>
          <path id="Trazado_893973" data-name="Trazado 893973" d="M705.02,220.517H694.4l.054-1.719a4.3,4.3,0,0,0,.675-.34,57.676,57.676,0,0,0,9.135-9.468,13.854,13.854,0,0,0,1.2-2.044c.322.014.1.674.069.955-.53,4.232-1.193,8.353-.512,12.617" transform="translate(-361.778 -107.818)" fill="#fff"/>
          <path id="Trazado_893974" data-name="Trazado 893974" d="M673.745,345.561l-2.351-.3-1.337-10.349,2.069-2.327a8.892,8.892,0,0,1,.706,2.832c.19,1.266,1.243,9.757.914,10.147" transform="translate(-349.096 -173.274)" fill="#fff"/>
          <path id="Trazado_893975" data-name="Trazado 893975" d="M676.794,67.774l-4.518,2.413A55.635,55.635,0,0,0,661.747,78.1l5.311-8.111Z" transform="translate(-344.768 -35.31)" fill="#fff"/>
          <path id="Trazado_893976" data-name="Trazado 893976" d="M675.915,307.842l.278-2.522c4.793-4.761,9.491-9.593,14.626-13.992l-1.334,1.91c-2.854,2.579-5.015,5.87-7.515,8.713-.512.582-1.217.848-1.635,1.316-1.024,1.146-2.027,2.924-3.114,3.967a1.728,1.728,0,0,1-1.307.609" transform="translate(-352.149 -151.781)" fill="#fff"/>
          <path id="Trazado_893977" data-name="Trazado 893977" d="M732.593,357.135v-1.474l4.13.882-1.032-1.179,3.393,0-.885,1.176a6.658,6.658,0,0,0,3.4-.876l.44,1.468Z" transform="translate(-381.678 -185.143)" fill="#fff"/>
          <path id="Trazado_893978" data-name="Trazado 893978" d="M828.116,355.039c.243-.032.507-.821.444.295l-.85.037-.2.866-8.268,0c-.529.021-.684-.774-1.017-1.2,3.093-.295,6.883.4,9.886,0" transform="translate(-426.295 -184.818)" fill="#fff"/>
          <path id="Trazado_893979" data-name="Trazado 893979" d="M792.755,354.754l-1.375,1.779-2.138-.041-.161-.858-1.047-.293c-.077-.483.4-.282.733-.293a13.317,13.317,0,0,0,3.987-.293" transform="translate(-410.559 -184.825)" fill="#fff"/>
          <path id="Trazado_893980" data-name="Trazado 893980" d="M674.153,236.514c.029.374-.616.537-.923.7-1.366.707-2.857,1.336-4.092.038Z" transform="translate(-348.618 -123.223)" fill="#fff"/>
          <path id="Trazado_893981" data-name="Trazado 893981" d="M800.156,51.909c.07.565-.536.16-.828.091-1.811-.433-3.781-.461-3.891-2.747.437-.444,3.672,2.9,4.719,2.656" transform="translate(-414.419 -25.64)" fill="#fff"/>
          <path id="Trazado_893982" data-name="Trazado 893982" d="M799.612,355.973l0,1.178h-2.951c-.069-.425.5-.386.81-.512a10.984,10.984,0,0,1,2.139-.665" transform="translate(-415.055 -185.455)" fill="#fff"/>
          <path id="Trazado_893983" data-name="Trazado 893983" d="M843.654,356.546c-.734-.017-1.48.03-2.217,0-.359-.014-1.1.223-1.029-.293l3.242-.887Z" transform="translate(-437.847 -185.145)" fill="#fff"/>
          <path id="Trazado_893984" data-name="Trazado 893984" d="M786.061,357.192c.068.516-.669.277-1.029.292-.639.028-1.286-.015-1.923,0l0-.883Z" transform="translate(-407.997 -185.787)" fill="#fff"/>
          <path id="Trazado_893985" data-name="Trazado 893985" d="M760.8,356.869c.07.512-.675.285-1.029.293-.64.014-1.285-.006-1.922,0l0-1.179a5.764,5.764,0,0,0,2.948.887" transform="translate(-394.837 -185.465)" fill="#fff"/>
          <path id="Trazado_893986" data-name="Trazado 893986" d="M671.817,324.56v1.175l-2.065.3c.47-.687,1.1-1.616,2.065-1.472" transform="translate(-348.938 -169.087)" fill="#fff"/>
          <path id="Trazado_893987" data-name="Trazado 893987" d="M774.679,356.6l-.167.888-2.487-.005Z" transform="translate(-402.222 -185.787)" fill="#fff"/>
          <path id="Trazado_893988" data-name="Trazado 893988" d="M767.958,355.958l-.289,1.037-.891.141-.29-.737c.362-.563.865-.471,1.471-.441" transform="translate(-399.337 -185.44)" fill="#fff"/>
          <path id="Trazado_893989" data-name="Trazado 893989" d="M670.316,330.735l-.882,1.473-.3-1.473Z" transform="translate(-348.618 -172.312)" fill="#fff"/>
          <path id="Trazado_893990" data-name="Trazado 893990" d="M667.21,239.8l-.738.293a1.026,1.026,0,0,1-.442-1.175c.246-.246,1.106.481,1.179.882" transform="translate(-346.987 -124.451)" fill="#fff"/>
          <path id="Trazado_893991" data-name="Trazado 893991" d="M792.006,49.913V50.8l-.884-.3v-.587Z" transform="translate(-412.171 -26.004)" fill="#fff"/>
          <path id="Trazado_893992" data-name="Trazado 893992" d="M729.219,338.842c-.355.776-.355-2.249,0-1.473a8.5,8.5,0,0,1,0,1.473" transform="translate(-379.781 -175.701)" fill="#fff"/>
          <rect id="Rectángulo_402439" data-name="Rectángulo 402439" width="0.291" height="0.588" transform="translate(366.558 170.223)" fill="#fff"/>
          <path id="Trazado_893993" data-name="Trazado 893993" d="M770.943,355.366a.148.148,0,0,1,0,.3.148.148,0,0,1,0-.3" transform="translate(-401.583 -185.144)" fill="#fff"/>
          <path id="Trazado_893994" data-name="Trazado 893994" d="M817.15,355.366a.148.148,0,0,1,0,.3.148.148,0,0,1,0-.3" transform="translate(-425.657 -185.144)" fill="#fff"/>
          <path id="Trazado_893995" data-name="Trazado 893995" d="M634.131,334.943c.343-.226,1.24.171,1.586-.343.274-.378-.331-.876-.032-1.475a10.731,10.731,0,0,1,1.932-1.776c.65,2.28.55,2.524-.888,4.273-2.636,3.208-5.687,6.163-8.413,9.29-5.822,6.678-11.474,13.481-17.407,20.062l7.53-10.76a27.1,27.1,0,0,0,2.057-2.368c3.829-4.974,7.625-10.05,11.814-14.74.356-.4,1.7-2.084,1.819-2.162" transform="translate(-318.282 -172.632)" fill="#fff"/>
          <path id="Trazado_893996" data-name="Trazado 893996" d="M429.464,32.626l-21.839.3c.25-2.156-.851-2.075-.588,0l-25.2.308-1.068-1.784v1.771c-3.863.252-7.767.41-11.672.308a110.964,110.964,0,0,1-17.908-1.569c-5.153-1-10.15-2.928-15.214-4.261-1.675-.441-3.405-.726-5.085-1.119l6.044-24c6.888,1.538,13.82,2.97,20.754,4.3,19.2,3.671,38.57,7.018,58.047,8.35,4.458.3,8.939.344,13.432.29l.3,3.245c-5.294.906-5.279,7.776,0,8.851Z" transform="translate(-172.394 -1.344)" fill="#fff"/>
          <path id="Trazado_893997" data-name="Trazado 893997" d="M354.536,68.386a17.012,17.012,0,0,1-23.019,0Z" transform="translate(-172.719 -35.629)" fill="#fff"/>
          <path id="Trazado_893998" data-name="Trazado 893998" d="M406.661,68.98a16.4,16.4,0,0,1-20.165.538l-1.377-1.129Z" transform="translate(-200.645 -35.631)" fill="#fff"/>
          <path id="Trazado_893999" data-name="Trazado 893999" d="M462.43,68.39a18.731,18.731,0,0,1-7.606,3.752,16.775,16.775,0,0,1-13.641-3.312Z" transform="translate(-229.855 -35.631)" fill="#fff"/>
          <path id="Trazado_894000" data-name="Trazado 894000" d="M513.642,67.158l-2.088,1.6a15.18,15.18,0,0,1-17.387-.863Z" transform="translate(-257.459 -34.989)" fill="#fff"/>
          <path id="Trazado_894001" data-name="Trazado 894001" d="M534.632,40.673V45.1c-2.566-.259-2.444-3.866,0-4.425" transform="translate(-277.562 -21.19)" fill="#fff"/>
          <rect id="Rectángulo_402440" data-name="Rectángulo 402440" width="0.291" height="0.588" transform="translate(254.121 20.369)" fill="#fff"/>
          <rect id="Rectángulo_402441" data-name="Rectángulo 402441" width="2.363" height="2.362" transform="translate(391.639 15.352)" fill="#fff"/>
          <path id="Trazado_894002" data-name="Trazado 894002" d="M442.343,105.333V107.7l-2.03-.036a2.319,2.319,0,0,1,0-2.29Z" transform="translate(-229.243 -54.878)" fill="#fff"/>
          <path id="Trazado_894003" data-name="Trazado 894003" d="M219.2,229.794l-1.21.172-.284,3.5.885.17c.471.295-.926,3.414-1.312,3.823a.729.729,0,0,1-.864.28c-.728-.212-1.455-3.584-1.348-4.408l1.472.589.3-4.424c-.194-.191-1.727.412-1.47-.437s1.3-2.471,1.749-3.516c.126-.295.513-.245.749-.173.582.178,1.194,3.646,1.335,4.419" transform="translate(-112.043 -117.391)" fill="#161615"/>
          <path id="Trazado_894004" data-name="Trazado 894004" d="M150.378,150.292l1.345.278.128,5.033,1.186.149c-1.1,4.738-2.238,6.232-3.8.53l.263-.535.878-.146Z" transform="translate(-77.752 -78.302)" fill="#161615"/>
        </g>
        <path id="Trazado_894323" data-name="Trazado 894323" d="M6.055-2.256A2.616,2.616,0,0,1,5.222-.515,2.728,2.728,0,0,1,3.359.1a2.505,2.505,0,0,1-2.019-.9A3.634,3.634,0,0,1,.581-3.223v-.684A4.051,4.051,0,0,1,.935-5.649a2.644,2.644,0,0,1,1-1.155,2.794,2.794,0,0,1,1.5-.4,2.569,2.569,0,0,1,1.816.632,2.647,2.647,0,0,1,.8,1.75H5.112a2.043,2.043,0,0,0-.53-1.234,1.6,1.6,0,0,0-1.14-.382,1.677,1.677,0,0,0-1.409.665,3.051,3.051,0,0,0-.51,1.891V-3.2a3.136,3.136,0,0,0,.483,1.842,1.562,1.562,0,0,0,1.353.684,1.8,1.8,0,0,0,1.2-.354,1.964,1.964,0,0,0,.554-1.233Zm4.4,1.733A1.919,1.919,0,0,1,8.906.1,1.642,1.642,0,0,1,7.62-.393a2.124,2.124,0,0,1-.447-1.453V-5.283h.9V-1.87q0,1.2.977,1.2A1.352,1.352,0,0,0,10.43-1.44V-5.283h.9V0h-.859ZM14.9.1a2.308,2.308,0,0,1-1.748-.706A2.619,2.619,0,0,1,12.476-2.5v-.166a3.17,3.17,0,0,1,.3-1.4,2.343,2.343,0,0,1,.84-.967,2.112,2.112,0,0,1,1.169-.349,1.979,1.979,0,0,1,1.6.679,2.939,2.939,0,0,1,.571,1.943v.376H13.379a1.878,1.878,0,0,0,.457,1.262,1.435,1.435,0,0,0,1.111.481,1.573,1.573,0,0,0,.811-.2,2.037,2.037,0,0,0,.581-.518l.552.43A2.219,2.219,0,0,1,14.9.1Zm-.112-4.736a1.2,1.2,0,0,0-.918.4,1.934,1.934,0,0,0-.459,1.116h2.646v-.068a1.721,1.721,0,0,0-.371-1.067A1.134,1.134,0,0,0,14.785-4.639ZM18.984,0h-.9V-7.5h.9Zm2.427,0h-.9V-7.5h.9Zm1.206-2.69a3.121,3.121,0,0,1,.305-1.4,2.277,2.277,0,0,1,.85-.957,2.313,2.313,0,0,1,1.243-.337,2.228,2.228,0,0,1,1.746.747,2.874,2.874,0,0,1,.667,1.987v.063a3.148,3.148,0,0,1-.3,1.384,2.243,2.243,0,0,1-.845.955A2.339,2.339,0,0,1,25.024.1a2.222,2.222,0,0,1-1.741-.747,2.86,2.86,0,0,1-.667-1.978Zm.908.107a2.26,2.26,0,0,0,.408,1.411,1.3,1.3,0,0,0,1.091.532,1.3,1.3,0,0,0,1.094-.54,2.472,2.472,0,0,0,.405-1.511A2.256,2.256,0,0,0,26.111-4.1a1.312,1.312,0,0,0-1.1-.54,1.3,1.3,0,0,0-1.079.532A2.453,2.453,0,0,0,23.525-2.583Z" transform="translate(437.051 15520)" fill="#12263f"/>
        <path id="Trazado_894324" data-name="Trazado 894324" d="M5.181-6.6,2.236,0H1.289L4.224-6.367H.376v-.742h4.8Z" transform="translate(387.051 15510)" fill="#12263f"/>
        <path id="Trazado_894325" data-name="Trazado 894325" d="M3.56,0H2.651V-6.021L.83-5.352v-.82l2.588-.972H3.56ZM10.8-6.6,7.852,0H6.9L9.839-6.367H5.991v-.742h4.8Z" transform="translate(527.051 15527)" fill="#12263f"/>
        <path id="Trazado_894326" data-name="Trazado 894326" d="M3.56,0H2.651V-6.021L.83-5.352v-.82l2.588-.972H3.56ZM10.8-6.6,7.852,0H6.9L9.839-6.367H5.991v-.742h4.8Z" transform="translate(366.051 15544)" fill="#12263f"/>
        <path id="Trazado_894327" data-name="Trazado 894327" d="M3.56,0H2.651V-6.021L.83-5.352v-.82l2.588-.972H3.56ZM10.8-6.6,7.852,0H6.9L9.839-6.367H5.991v-.742h4.8ZM11.934-.474a.566.566,0,0,1,.139-.391.53.53,0,0,1,.417-.156.546.546,0,0,1,.422.156.554.554,0,0,1,.144.391.524.524,0,0,1-.144.376.556.556,0,0,1-.422.151A.54.54,0,0,1,12.073-.1.535.535,0,0,1,11.934-.474Zm2.935-3.091.361-3.545h3.643v.835H16l-.215,1.938a2.294,2.294,0,0,1,1.187-.308A1.961,1.961,0,0,1,18.511-4a2.516,2.516,0,0,1,.571,1.736,2.429,2.429,0,0,1-.593,1.731A2.162,2.162,0,0,1,16.831.1a2.247,2.247,0,0,1-1.538-.522,2.085,2.085,0,0,1-.679-1.445h.854a1.435,1.435,0,0,0,.435.92,1.351,1.351,0,0,0,.928.31,1.219,1.219,0,0,0,.989-.43,1.8,1.8,0,0,0,.359-1.187A1.649,1.649,0,0,0,17.791-3.4a1.32,1.32,0,0,0-1.033-.432,1.489,1.489,0,0,0-.928.259l-.239.2Z" transform="translate(396.051 15598)" fill="#12263f"/>
        <path id="Trazado_894328" data-name="Trazado 894328" d="M3.56,0H2.651V-6.021L.83-5.352v-.82l2.588-.972H3.56Zm6.46-2.388h.986v.737H10.02V0H9.111V-1.65H5.874v-.532L9.058-7.109h.962Zm-3.12,0H9.111V-5.874L9-5.679Z" transform="translate(390.051 15709)" fill="#12263f"/>
        <path id="Trazado_894329" data-name="Trazado 894329" d="M3.56,0H2.651V-6.021L.83-5.352v-.82l2.588-.972H3.56ZM9.668-3.125a2.21,2.21,0,0,1-.676.542,1.835,1.835,0,0,1-.862.205,1.894,1.894,0,0,1-1.072-.3,1.968,1.968,0,0,1-.706-.852A2.9,2.9,0,0,1,6.1-4.746,2.96,2.96,0,0,1,6.375-6.03,1.991,1.991,0,0,1,7.144-6.9a2.193,2.193,0,0,1,1.162-.3,1.985,1.985,0,0,1,1.663.789,3.44,3.44,0,0,1,.608,2.151V-4a4.6,4.6,0,0,1-.82,3.03A3.152,3.152,0,0,1,7.28,0H7.1V-.762h.19a2.487,2.487,0,0,0,1.719-.582A2.5,2.5,0,0,0,9.668-3.125Zm-1.392,0A1.4,1.4,0,0,0,9.114-3.4a1.641,1.641,0,0,0,.559-.688v-.361A2.486,2.486,0,0,0,9.287-5.9a1.151,1.151,0,0,0-.977-.557A1.16,1.16,0,0,0,7.354-6a1.883,1.883,0,0,0-.361,1.2,1.96,1.96,0,0,0,.349,1.2A1.105,1.105,0,0,0,8.276-3.125Z" transform="translate(481.051 15689)" fill="#12263f"/>
        <path id="Trazado_894330" data-name="Trazado 894330" d="M3.56,0H2.651V-6.021L.83-5.352v-.82l2.588-.972H3.56ZM6.621-3.564l.361-3.545h3.643v.835H7.749L7.534-4.336a2.294,2.294,0,0,1,1.187-.308A1.961,1.961,0,0,1,10.264-4a2.516,2.516,0,0,1,.571,1.736,2.429,2.429,0,0,1-.593,1.731A2.162,2.162,0,0,1,8.584.1,2.247,2.247,0,0,1,7.046-.425,2.085,2.085,0,0,1,6.367-1.87h.854a1.435,1.435,0,0,0,.435.92,1.351,1.351,0,0,0,.928.31,1.219,1.219,0,0,0,.989-.43,1.8,1.8,0,0,0,.359-1.187A1.649,1.649,0,0,0,9.543-3.4a1.32,1.32,0,0,0-1.033-.432,1.489,1.489,0,0,0-.928.259l-.239.2ZM11.934-.474a.566.566,0,0,1,.139-.391.53.53,0,0,1,.417-.156.546.546,0,0,1,.422.156.554.554,0,0,1,.144.391.524.524,0,0,1-.144.376.556.556,0,0,1-.422.151A.54.54,0,0,1,12.073-.1.535.535,0,0,1,11.934-.474Zm2.935-3.091.361-3.545h3.643v.835H16l-.215,1.938a2.294,2.294,0,0,1,1.187-.308A1.961,1.961,0,0,1,18.511-4a2.516,2.516,0,0,1,.571,1.736,2.429,2.429,0,0,1-.593,1.731A2.162,2.162,0,0,1,16.831.1a2.247,2.247,0,0,1-1.538-.522,2.085,2.085,0,0,1-.679-1.445h.854a1.435,1.435,0,0,0,.435.92,1.351,1.351,0,0,0,.928.31,1.219,1.219,0,0,0,.989-.43,1.8,1.8,0,0,0,.359-1.187A1.649,1.649,0,0,0,17.791-3.4a1.32,1.32,0,0,0-1.033-.432,1.489,1.489,0,0,0-.928.259l-.239.2Z" transform="translate(477.051 15581)" fill="#12263f"/>
        <path id="Trazado_894331" data-name="Trazado 894331" d="M4.4-2.388h.986v.737H4.4V0H3.5V-1.65H.259v-.532L3.442-7.109H4.4Zm-3.12,0H3.5V-5.874l-.107.2ZM6.318-.474a.566.566,0,0,1,.139-.391.53.53,0,0,1,.417-.156A.546.546,0,0,1,7.3-.864a.554.554,0,0,1,.144.391A.524.524,0,0,1,7.3-.1a.556.556,0,0,1-.422.151A.54.54,0,0,1,6.458-.1.535.535,0,0,1,6.318-.474ZM9.253-3.564l.361-3.545h3.643v.835H10.381l-.215,1.938a2.294,2.294,0,0,1,1.187-.308A1.961,1.961,0,0,1,12.9-4a2.516,2.516,0,0,1,.571,1.736,2.429,2.429,0,0,1-.593,1.731A2.162,2.162,0,0,1,11.216.1,2.247,2.247,0,0,1,9.678-.425,2.085,2.085,0,0,1,9-1.87h.854a1.435,1.435,0,0,0,.435.92,1.351,1.351,0,0,0,.928.31,1.219,1.219,0,0,0,.989-.43,1.8,1.8,0,0,0,.359-1.187A1.649,1.649,0,0,0,12.175-3.4a1.32,1.32,0,0,0-1.033-.432,1.489,1.489,0,0,0-.928.259l-.239.2Z" transform="translate(559.051 15517)" fill="#12263f"/>
        <path id="Trazado_894332" data-name="Trazado 894332" d="M4.4-2.388h.986v.737H4.4V0H3.5V-1.65H.259v-.532L3.442-7.109H4.4Zm-3.12,0H3.5V-5.874l-.107.2ZM6.318-.474a.566.566,0,0,1,.139-.391.53.53,0,0,1,.417-.156A.546.546,0,0,1,7.3-.864a.554.554,0,0,1,.144.391A.524.524,0,0,1,7.3-.1a.556.556,0,0,1-.422.151A.54.54,0,0,1,6.458-.1.535.535,0,0,1,6.318-.474ZM9.253-3.564l.361-3.545h3.643v.835H10.381l-.215,1.938a2.294,2.294,0,0,1,1.187-.308A1.961,1.961,0,0,1,12.9-4a2.516,2.516,0,0,1,.571,1.736,2.429,2.429,0,0,1-.593,1.731A2.162,2.162,0,0,1,11.216.1,2.247,2.247,0,0,1,9.678-.425,2.085,2.085,0,0,1,9-1.87h.854a1.435,1.435,0,0,0,.435.92,1.351,1.351,0,0,0,.928.31,1.219,1.219,0,0,0,.989-.43,1.8,1.8,0,0,0,.359-1.187A1.649,1.649,0,0,0,12.175-3.4a1.32,1.32,0,0,0-1.033-.432,1.489,1.489,0,0,0-.928.259l-.239.2Z" transform="translate(327.051 15531)" fill="#12263f"/>
        <path id="Trazado_894333" data-name="Trazado 894333" d="M3.56,0H2.651V-6.021L.83-5.352v-.82l2.588-.972H3.56ZM6.318-.474a.566.566,0,0,1,.139-.391.53.53,0,0,1,.417-.156A.546.546,0,0,1,7.3-.864a.554.554,0,0,1,.144.391A.524.524,0,0,1,7.3-.1a.556.556,0,0,1-.422.151A.54.54,0,0,1,6.458-.1.535.535,0,0,1,6.318-.474ZM9.253-3.564l.361-3.545h3.643v.835H10.381l-.215,1.938a2.294,2.294,0,0,1,1.187-.308A1.961,1.961,0,0,1,12.9-4a2.516,2.516,0,0,1,.571,1.736,2.429,2.429,0,0,1-.593,1.731A2.162,2.162,0,0,1,11.216.1,2.247,2.247,0,0,1,9.678-.425,2.085,2.085,0,0,1,9-1.87h.854a1.435,1.435,0,0,0,.435.92,1.351,1.351,0,0,0,.928.31,1.219,1.219,0,0,0,.989-.43,1.8,1.8,0,0,0,.359-1.187A1.649,1.649,0,0,0,12.175-3.4a1.32,1.32,0,0,0-1.033-.432,1.489,1.489,0,0,0-.928.259l-.239.2Z" transform="translate(584.051 15516)" fill="#12263f"/>
        <path id="Trazado_894334" data-name="Trazado 894334" d="M3.56,0H2.651V-6.021L.83-5.352v-.82l2.588-.972H3.56ZM6.318-.474a.566.566,0,0,1,.139-.391.53.53,0,0,1,.417-.156A.546.546,0,0,1,7.3-.864a.554.554,0,0,1,.144.391A.524.524,0,0,1,7.3-.1a.556.556,0,0,1-.422.151A.54.54,0,0,1,6.458-.1.535.535,0,0,1,6.318-.474ZM9.253-3.564l.361-3.545h3.643v.835H10.381l-.215,1.938a2.294,2.294,0,0,1,1.187-.308A1.961,1.961,0,0,1,12.9-4a2.516,2.516,0,0,1,.571,1.736,2.429,2.429,0,0,1-.593,1.731A2.162,2.162,0,0,1,11.216.1,2.247,2.247,0,0,1,9.678-.425,2.085,2.085,0,0,1,9-1.87h.854a1.435,1.435,0,0,0,.435.92,1.351,1.351,0,0,0,.928.31,1.219,1.219,0,0,0,.989-.43,1.8,1.8,0,0,0,.359-1.187A1.649,1.649,0,0,0,12.175-3.4a1.32,1.32,0,0,0-1.033-.432,1.489,1.489,0,0,0-.928.259l-.239.2Z" transform="translate(303.051 15564)" fill="#12263f"/>
        <path id="Trazado_894335" data-name="Trazado 894335" d="M3.56,0H2.651V-6.021L.83-5.352v-.82l2.588-.972H3.56ZM6.318-.474a.566.566,0,0,1,.139-.391.53.53,0,0,1,.417-.156A.546.546,0,0,1,7.3-.864a.554.554,0,0,1,.144.391A.524.524,0,0,1,7.3-.1a.556.556,0,0,1-.422.151A.54.54,0,0,1,6.458-.1.535.535,0,0,1,6.318-.474ZM9.253-3.564l.361-3.545h3.643v.835H10.381l-.215,1.938a2.294,2.294,0,0,1,1.187-.308A1.961,1.961,0,0,1,12.9-4a2.516,2.516,0,0,1,.571,1.736,2.429,2.429,0,0,1-.593,1.731A2.162,2.162,0,0,1,11.216.1,2.247,2.247,0,0,1,9.678-.425,2.085,2.085,0,0,1,9-1.87h.854a1.435,1.435,0,0,0,.435.92,1.351,1.351,0,0,0,.928.31,1.219,1.219,0,0,0,.989-.43,1.8,1.8,0,0,0,.359-1.187A1.649,1.649,0,0,0,12.175-3.4a1.32,1.32,0,0,0-1.033-.432,1.489,1.489,0,0,0-.928.259l-.239.2Z" transform="translate(276.051 15740)" fill="#12263f"/>
        <path id="Trazado_894336" data-name="Trazado 894336" d="M4.4-2.388h.986v.737H4.4V0H3.5V-1.65H.259v-.532L3.442-7.109H4.4Zm-3.12,0H3.5V-5.874l-.107.2ZM6.621-3.564l.361-3.545h3.643v.835H7.749L7.534-4.336a2.294,2.294,0,0,1,1.187-.308A1.961,1.961,0,0,1,10.264-4a2.516,2.516,0,0,1,.571,1.736,2.429,2.429,0,0,1-.593,1.731A2.162,2.162,0,0,1,8.584.1,2.247,2.247,0,0,1,7.046-.425,2.085,2.085,0,0,1,6.367-1.87h.854a1.435,1.435,0,0,0,.435.92,1.351,1.351,0,0,0,.928.31,1.219,1.219,0,0,0,.989-.43,1.8,1.8,0,0,0,.359-1.187A1.649,1.649,0,0,0,9.543-3.4a1.32,1.32,0,0,0-1.033-.432,1.489,1.489,0,0,0-.928.259l-.239.2Z" transform="translate(357.051 15624)" fill="#12263f"/>
        <path id="Trazado_894337" data-name="Trazado 894337" d="M5.249,0H.591V-.649L3.052-3.384a5.847,5.847,0,0,0,.754-1.008,1.683,1.683,0,0,0,.208-.8,1.276,1.276,0,0,0-.337-.913,1.178,1.178,0,0,0-.9-.356,1.4,1.4,0,0,0-1.047.383,1.464,1.464,0,0,0-.374,1.067h-.9A2.1,2.1,0,0,1,1.086-6.6a2.344,2.344,0,0,1,1.692-.605,2.252,2.252,0,0,1,1.567.52A1.774,1.774,0,0,1,4.922-5.3,4.067,4.067,0,0,1,3.584-2.8L1.68-.737H5.249ZM6.318-.474a.566.566,0,0,1,.139-.391.53.53,0,0,1,.417-.156A.546.546,0,0,1,7.3-.864a.554.554,0,0,1,.144.391A.524.524,0,0,1,7.3-.1a.556.556,0,0,1-.422.151A.54.54,0,0,1,6.458-.1.535.535,0,0,1,6.318-.474ZM9.253-3.564l.361-3.545h3.643v.835H10.381l-.215,1.938a2.294,2.294,0,0,1,1.187-.308A1.961,1.961,0,0,1,12.9-4a2.516,2.516,0,0,1,.571,1.736,2.429,2.429,0,0,1-.593,1.731A2.162,2.162,0,0,1,11.216.1,2.247,2.247,0,0,1,9.678-.425,2.085,2.085,0,0,1,9-1.87h.854a1.435,1.435,0,0,0,.435.92,1.351,1.351,0,0,0,.928.31,1.219,1.219,0,0,0,.989-.43,1.8,1.8,0,0,0,.359-1.187A1.649,1.649,0,0,0,12.175-3.4a1.32,1.32,0,0,0-1.033-.432,1.489,1.489,0,0,0-.928.259l-.239.2Z" transform="translate(348.051 15609)" fill="#12263f"/>
        <path id="Trazado_894338" data-name="Trazado 894338" d="M5.249,0H.591V-.649L3.052-3.384a5.847,5.847,0,0,0,.754-1.008,1.683,1.683,0,0,0,.208-.8,1.276,1.276,0,0,0-.337-.913,1.178,1.178,0,0,0-.9-.356,1.4,1.4,0,0,0-1.047.383,1.464,1.464,0,0,0-.374,1.067h-.9A2.1,2.1,0,0,1,1.086-6.6a2.344,2.344,0,0,1,1.692-.605,2.252,2.252,0,0,1,1.567.52A1.774,1.774,0,0,1,4.922-5.3,4.067,4.067,0,0,1,3.584-2.8L1.68-.737H5.249ZM6.318-.474a.566.566,0,0,1,.139-.391.53.53,0,0,1,.417-.156A.546.546,0,0,1,7.3-.864a.554.554,0,0,1,.144.391A.524.524,0,0,1,7.3-.1a.556.556,0,0,1-.422.151A.54.54,0,0,1,6.458-.1.535.535,0,0,1,6.318-.474ZM9.253-3.564l.361-3.545h3.643v.835H10.381l-.215,1.938a2.294,2.294,0,0,1,1.187-.308A1.961,1.961,0,0,1,12.9-4a2.516,2.516,0,0,1,.571,1.736,2.429,2.429,0,0,1-.593,1.731A2.162,2.162,0,0,1,11.216.1,2.247,2.247,0,0,1,9.678-.425,2.085,2.085,0,0,1,9-1.87h.854a1.435,1.435,0,0,0,.435.92,1.351,1.351,0,0,0,.928.31,1.219,1.219,0,0,0,.989-.43,1.8,1.8,0,0,0,.359-1.187A1.649,1.649,0,0,0,12.175-3.4a1.32,1.32,0,0,0-1.033-.432,1.489,1.489,0,0,0-.928.259l-.239.2Z" transform="translate(546.051 15741)" fill="#12263f"/>
        <path id="Trazado_894339" data-name="Trazado 894339" d="M5.249,0H.591V-.649L3.052-3.384a5.847,5.847,0,0,0,.754-1.008,1.683,1.683,0,0,0,.208-.8,1.276,1.276,0,0,0-.337-.913,1.178,1.178,0,0,0-.9-.356,1.4,1.4,0,0,0-1.047.383,1.464,1.464,0,0,0-.374,1.067h-.9A2.1,2.1,0,0,1,1.086-6.6a2.344,2.344,0,0,1,1.692-.605,2.252,2.252,0,0,1,1.567.52A1.774,1.774,0,0,1,4.922-5.3,4.067,4.067,0,0,1,3.584-2.8L1.68-.737H5.249ZM6.318-.474a.566.566,0,0,1,.139-.391.53.53,0,0,1,.417-.156A.546.546,0,0,1,7.3-.864a.554.554,0,0,1,.144.391A.524.524,0,0,1,7.3-.1a.556.556,0,0,1-.422.151A.54.54,0,0,1,6.458-.1.535.535,0,0,1,6.318-.474ZM9.253-3.564l.361-3.545h3.643v.835H10.381l-.215,1.938a2.294,2.294,0,0,1,1.187-.308A1.961,1.961,0,0,1,12.9-4a2.516,2.516,0,0,1,.571,1.736,2.429,2.429,0,0,1-.593,1.731A2.162,2.162,0,0,1,11.216.1,2.247,2.247,0,0,1,9.678-.425,2.085,2.085,0,0,1,9-1.87h.854a1.435,1.435,0,0,0,.435.92,1.351,1.351,0,0,0,.928.31,1.219,1.219,0,0,0,.989-.43,1.8,1.8,0,0,0,.359-1.187A1.649,1.649,0,0,0,12.175-3.4a1.32,1.32,0,0,0-1.033-.432,1.489,1.489,0,0,0-.928.259l-.239.2Z" transform="translate(228.051 15634)" fill="#12263f"/>
        <path id="Trazado_894340" data-name="Trazado 894340" d="M3.56,0H2.651V-6.021L.83-5.352v-.82l2.588-.972H3.56Z" transform="translate(553.051 15598)" fill="#12263f"/>
        <path id="Trazado_894341" data-name="Trazado 894341" d="M3.56,0H2.651V-6.021L.83-5.352v-.82l2.588-.972H3.56Z" transform="translate(352.051 15663)" fill="#12263f"/>
        <path id="Trazado_894342" data-name="Trazado 894342" d="M3.56,0H2.651V-6.021L.83-5.352v-.82l2.588-.972H3.56Z" transform="translate(571.051 15656)" fill="#12263f"/>
        <path id="Trazado_894343" data-name="Trazado 894343" d="M1.9-3.994h.679a1.492,1.492,0,0,0,1.006-.337,1.126,1.126,0,0,0,.366-.884A1.1,1.1,0,0,0,2.71-6.465a1.3,1.3,0,0,0-.935.334,1.171,1.171,0,0,0-.349.886h-.9a1.814,1.814,0,0,1,.618-1.4,2.25,2.25,0,0,1,1.57-.559,2.224,2.224,0,0,1,1.577.532A1.923,1.923,0,0,1,4.858-5.2a1.561,1.561,0,0,1-.3.9,1.813,1.813,0,0,1-.818.649,1.747,1.747,0,0,1,.906.615,1.709,1.709,0,0,1,.32,1.05A1.939,1.939,0,0,1,4.341-.464,2.34,2.34,0,0,1,2.715.1,2.4,2.4,0,0,1,1.086-.444,1.8,1.8,0,0,1,.459-1.875h.908a1.162,1.162,0,0,0,.366.9,1.393,1.393,0,0,0,.981.337,1.367,1.367,0,0,0,1-.342,1.317,1.317,0,0,0,.347-.981,1.2,1.2,0,0,0-.381-.952,1.659,1.659,0,0,0-1.1-.342H1.9Z" transform="translate(593.051 15659)" fill="#12263f"/>
        <path id="Trazado_894344" data-name="Trazado 894344" d="M1.9-3.994h.679a1.492,1.492,0,0,0,1.006-.337,1.126,1.126,0,0,0,.366-.884A1.1,1.1,0,0,0,2.71-6.465a1.3,1.3,0,0,0-.935.334,1.171,1.171,0,0,0-.349.886h-.9a1.814,1.814,0,0,1,.618-1.4,2.25,2.25,0,0,1,1.57-.559,2.224,2.224,0,0,1,1.577.532A1.923,1.923,0,0,1,4.858-5.2a1.561,1.561,0,0,1-.3.9,1.813,1.813,0,0,1-.818.649,1.747,1.747,0,0,1,.906.615,1.709,1.709,0,0,1,.32,1.05A1.939,1.939,0,0,1,4.341-.464,2.34,2.34,0,0,1,2.715.1,2.4,2.4,0,0,1,1.086-.444,1.8,1.8,0,0,1,.459-1.875h.908a1.162,1.162,0,0,0,.366.9,1.393,1.393,0,0,0,.981.337,1.367,1.367,0,0,0,1-.342,1.317,1.317,0,0,0,.347-.981,1.2,1.2,0,0,0-.381-.952,1.659,1.659,0,0,0-1.1-.342H1.9Z" transform="translate(605.051 15659)" fill="#12263f"/>
        <path id="Trazado_894345" data-name="Trazado 894345" d="M1.9-3.994h.679a1.492,1.492,0,0,0,1.006-.337,1.126,1.126,0,0,0,.366-.884A1.1,1.1,0,0,0,2.71-6.465a1.3,1.3,0,0,0-.935.334,1.171,1.171,0,0,0-.349.886h-.9a1.814,1.814,0,0,1,.618-1.4,2.25,2.25,0,0,1,1.57-.559,2.224,2.224,0,0,1,1.577.532A1.923,1.923,0,0,1,4.858-5.2a1.561,1.561,0,0,1-.3.9,1.813,1.813,0,0,1-.818.649,1.747,1.747,0,0,1,.906.615,1.709,1.709,0,0,1,.32,1.05A1.939,1.939,0,0,1,4.341-.464,2.34,2.34,0,0,1,2.715.1,2.4,2.4,0,0,1,1.086-.444,1.8,1.8,0,0,1,.459-1.875h.908a1.162,1.162,0,0,0,.366.9,1.393,1.393,0,0,0,.981.337,1.367,1.367,0,0,0,1-.342,1.317,1.317,0,0,0,.347-.981,1.2,1.2,0,0,0-.381-.952,1.659,1.659,0,0,0-1.1-.342H1.9Z" transform="translate(617.051 15659)" fill="#12263f"/>
        <path id="Trazado_894346" data-name="Trazado 894346" d="M5.049-3.032A4.131,4.131,0,0,1,4.507-.674,1.928,1.928,0,0,1,2.813.1,1.942,1.942,0,0,1,1.128-.657,3.921,3.921,0,0,1,.562-2.91V-4.116A4.039,4.039,0,0,1,1.1-6.445a1.942,1.942,0,0,1,1.7-.762,1.96,1.96,0,0,1,1.689.735A3.9,3.9,0,0,1,5.049-4.2Zm-.9-1.235A3.31,3.31,0,0,0,3.823-5.94,1.109,1.109,0,0,0,2.8-6.465a1.1,1.1,0,0,0-1.011.522,3.232,3.232,0,0,0-.327,1.606v1.445a3.363,3.363,0,0,0,.334,1.7A1.107,1.107,0,0,0,2.813-.64a1.092,1.092,0,0,0,.994-.518,3.241,3.241,0,0,0,.339-1.631ZM6.318-.474a.566.566,0,0,1,.139-.391.53.53,0,0,1,.417-.156A.546.546,0,0,1,7.3-.864a.554.554,0,0,1,.144.391A.524.524,0,0,1,7.3-.1a.556.556,0,0,1-.422.151A.54.54,0,0,1,6.458-.1.535.535,0,0,1,6.318-.474ZM9.253-3.564l.361-3.545h3.643v.835H10.381l-.215,1.938a2.294,2.294,0,0,1,1.187-.308A1.961,1.961,0,0,1,12.9-4a2.516,2.516,0,0,1,.571,1.736,2.429,2.429,0,0,1-.593,1.731A2.162,2.162,0,0,1,11.216.1,2.247,2.247,0,0,1,9.678-.425,2.085,2.085,0,0,1,9-1.87h.854a1.435,1.435,0,0,0,.435.92,1.351,1.351,0,0,0,.928.31,1.219,1.219,0,0,0,.989-.43,1.8,1.8,0,0,0,.359-1.187A1.649,1.649,0,0,0,12.175-3.4a1.32,1.32,0,0,0-1.033-.432,1.489,1.489,0,0,0-.928.259l-.239.2Z" transform="translate(621.051 15495)" fill="#12263f"/>
        <path id="Trazado_894347" data-name="Trazado 894347" d="M1.006-3.564l.361-3.545H5.01v.835H2.134L1.919-4.336a2.294,2.294,0,0,1,1.187-.308A1.961,1.961,0,0,1,4.648-4,2.516,2.516,0,0,1,5.22-2.266,2.429,2.429,0,0,1,4.626-.535,2.162,2.162,0,0,1,2.969.1,2.247,2.247,0,0,1,1.431-.425,2.085,2.085,0,0,1,.752-1.87h.854a1.435,1.435,0,0,0,.435.92,1.351,1.351,0,0,0,.928.31,1.219,1.219,0,0,0,.989-.43,1.8,1.8,0,0,0,.359-1.187A1.649,1.649,0,0,0,3.928-3.4,1.32,1.32,0,0,0,2.9-3.833a1.489,1.489,0,0,0-.928.259l-.239.2ZM6.318-.474a.566.566,0,0,1,.139-.391.53.53,0,0,1,.417-.156A.546.546,0,0,1,7.3-.864a.554.554,0,0,1,.144.391A.524.524,0,0,1,7.3-.1a.556.556,0,0,1-.422.151A.54.54,0,0,1,6.458-.1.535.535,0,0,1,6.318-.474ZM9.253-3.564l.361-3.545h3.643v.835H10.381l-.215,1.938a2.294,2.294,0,0,1,1.187-.308A1.961,1.961,0,0,1,12.9-4a2.516,2.516,0,0,1,.571,1.736,2.429,2.429,0,0,1-.593,1.731A2.162,2.162,0,0,1,11.216.1,2.247,2.247,0,0,1,9.678-.425,2.085,2.085,0,0,1,9-1.87h.854a1.435,1.435,0,0,0,.435.92,1.351,1.351,0,0,0,.928.31,1.219,1.219,0,0,0,.989-.43,1.8,1.8,0,0,0,.359-1.187A1.649,1.649,0,0,0,12.175-3.4a1.32,1.32,0,0,0-1.033-.432,1.489,1.489,0,0,0-.928.259l-.239.2Z" transform="translate(254.051 15566)" fill="#12263f"/>
        <path id="Trazado_894348" data-name="Trazado 894348" d="M1.006-3.564l.361-3.545H5.01v.835H2.134L1.919-4.336a2.294,2.294,0,0,1,1.187-.308A1.961,1.961,0,0,1,4.648-4,2.516,2.516,0,0,1,5.22-2.266,2.429,2.429,0,0,1,4.626-.535,2.162,2.162,0,0,1,2.969.1,2.247,2.247,0,0,1,1.431-.425,2.085,2.085,0,0,1,.752-1.87h.854a1.435,1.435,0,0,0,.435.92,1.351,1.351,0,0,0,.928.31,1.219,1.219,0,0,0,.989-.43,1.8,1.8,0,0,0,.359-1.187A1.649,1.649,0,0,0,3.928-3.4,1.32,1.32,0,0,0,2.9-3.833a1.489,1.489,0,0,0-.928.259l-.239.2ZM6.318-.474a.566.566,0,0,1,.139-.391.53.53,0,0,1,.417-.156A.546.546,0,0,1,7.3-.864a.554.554,0,0,1,.144.391A.524.524,0,0,1,7.3-.1a.556.556,0,0,1-.422.151A.54.54,0,0,1,6.458-.1.535.535,0,0,1,6.318-.474ZM9.253-3.564l.361-3.545h3.643v.835H10.381l-.215,1.938a2.294,2.294,0,0,1,1.187-.308A1.961,1.961,0,0,1,12.9-4a2.516,2.516,0,0,1,.571,1.736,2.429,2.429,0,0,1-.593,1.731A2.162,2.162,0,0,1,11.216.1,2.247,2.247,0,0,1,9.678-.425,2.085,2.085,0,0,1,9-1.87h.854a1.435,1.435,0,0,0,.435.92,1.351,1.351,0,0,0,.928.31,1.219,1.219,0,0,0,.989-.43,1.8,1.8,0,0,0,.359-1.187A1.649,1.649,0,0,0,12.175-3.4a1.32,1.32,0,0,0-1.033-.432,1.489,1.489,0,0,0-.928.259l-.239.2Z" transform="translate(629.051 15659)" fill="#12263f"/>
        <path id="Trazado_894349" data-name="Trazado 894349" d="M4.136-7.114v.767H3.97a2.378,2.378,0,0,0-1.68.625,2.6,2.6,0,0,0-.723,1.7A1.928,1.928,0,0,1,3.1-4.663a1.844,1.844,0,0,1,1.482.654,2.524,2.524,0,0,1,.554,1.689,2.516,2.516,0,0,1-.6,1.758A2.06,2.06,0,0,1,2.935.1,2.029,2.029,0,0,1,1.279-.686,3.106,3.106,0,0,1,.645-2.705v-.347a4.68,4.68,0,0,1,.837-3A3.075,3.075,0,0,1,3.975-7.114Zm-1.187,3.2a1.441,1.441,0,0,0-.854.278,1.45,1.45,0,0,0-.542.7V-2.6a2.332,2.332,0,0,0,.4,1.416,1.185,1.185,0,0,0,.986.537A1.148,1.148,0,0,0,3.894-1.1a1.864,1.864,0,0,0,.349-1.177,1.865,1.865,0,0,0-.354-1.184A1.135,1.135,0,0,0,2.949-3.911Z" transform="translate(632.051 15534)" fill="#12263f"/>
        <path id="Trazado_894350" data-name="Trazado 894350" d="M4.136-7.114v.767H3.97a2.378,2.378,0,0,0-1.68.625,2.6,2.6,0,0,0-.723,1.7A1.928,1.928,0,0,1,3.1-4.663a1.844,1.844,0,0,1,1.482.654,2.524,2.524,0,0,1,.554,1.689,2.516,2.516,0,0,1-.6,1.758A2.06,2.06,0,0,1,2.935.1,2.029,2.029,0,0,1,1.279-.686,3.106,3.106,0,0,1,.645-2.705v-.347a4.68,4.68,0,0,1,.837-3A3.075,3.075,0,0,1,3.975-7.114Zm-1.187,3.2a1.441,1.441,0,0,0-.854.278,1.45,1.45,0,0,0-.542.7V-2.6a2.332,2.332,0,0,0,.4,1.416,1.185,1.185,0,0,0,.986.537A1.148,1.148,0,0,0,3.894-1.1a1.864,1.864,0,0,0,.349-1.177,1.865,1.865,0,0,0-.354-1.184A1.135,1.135,0,0,0,2.949-3.911Z" transform="translate(232.051 15568)" fill="#12263f"/>
        <path id="Trazado_894351" data-name="Trazado 894351" d="M5.249,0H.591V-.649L3.052-3.384a5.847,5.847,0,0,0,.754-1.008,1.683,1.683,0,0,0,.208-.8,1.276,1.276,0,0,0-.337-.913,1.178,1.178,0,0,0-.9-.356,1.4,1.4,0,0,0-1.047.383,1.464,1.464,0,0,0-.374,1.067h-.9A2.1,2.1,0,0,1,1.086-6.6a2.344,2.344,0,0,1,1.692-.605,2.252,2.252,0,0,1,1.567.52A1.774,1.774,0,0,1,4.922-5.3,4.067,4.067,0,0,1,3.584-2.8L1.68-.737H5.249Z" transform="translate(618.051 15544)" fill="#12263f"/>
        <path id="Trazado_894352" data-name="Trazado 894352" d="M5.249,0H.591V-.649L3.052-3.384a5.847,5.847,0,0,0,.754-1.008,1.683,1.683,0,0,0,.208-.8,1.276,1.276,0,0,0-.337-.913,1.178,1.178,0,0,0-.9-.356,1.4,1.4,0,0,0-1.047.383,1.464,1.464,0,0,0-.374,1.067h-.9A2.1,2.1,0,0,1,1.086-6.6a2.344,2.344,0,0,1,1.692-.605,2.252,2.252,0,0,1,1.567.52A1.774,1.774,0,0,1,4.922-5.3,4.067,4.067,0,0,1,3.584-2.8L1.68-.737H5.249Z" transform="translate(377.051 15528)" fill="#12263f"/>
        <path id="Trazado_894353" data-name="Trazado 894353" d="M5.249,0H.591V-.649L3.052-3.384a5.847,5.847,0,0,0,.754-1.008,1.683,1.683,0,0,0,.208-.8,1.276,1.276,0,0,0-.337-.913,1.178,1.178,0,0,0-.9-.356,1.4,1.4,0,0,0-1.047.383,1.464,1.464,0,0,0-.374,1.067h-.9A2.1,2.1,0,0,1,1.086-6.6a2.344,2.344,0,0,1,1.692-.605,2.252,2.252,0,0,1,1.567.52A1.774,1.774,0,0,1,4.922-5.3,4.067,4.067,0,0,1,3.584-2.8L1.68-.737H5.249Z" transform="translate(280.051 15516)" fill="#12263f"/>
        <path id="Trazado_894354" data-name="Trazado 894354" d="M5.249,0H.591V-.649L3.052-3.384a5.847,5.847,0,0,0,.754-1.008,1.683,1.683,0,0,0,.208-.8,1.276,1.276,0,0,0-.337-.913,1.178,1.178,0,0,0-.9-.356,1.4,1.4,0,0,0-1.047.383,1.464,1.464,0,0,0-.374,1.067h-.9A2.1,2.1,0,0,1,1.086-6.6a2.344,2.344,0,0,1,1.692-.605,2.252,2.252,0,0,1,1.567.52A1.774,1.774,0,0,1,4.922-5.3,4.067,4.067,0,0,1,3.584-2.8L1.68-.737H5.249Z" transform="translate(346.051 15737)" fill="#12263f"/>
        <path id="Trazado_894355" data-name="Trazado 894355" d="M1.006-3.564l.361-3.545H5.01v.835H2.134L1.919-4.336a2.294,2.294,0,0,1,1.187-.308A1.961,1.961,0,0,1,4.648-4,2.516,2.516,0,0,1,5.22-2.266,2.429,2.429,0,0,1,4.626-.535,2.162,2.162,0,0,1,2.969.1,2.247,2.247,0,0,1,1.431-.425,2.085,2.085,0,0,1,.752-1.87h.854a1.435,1.435,0,0,0,.435.92,1.351,1.351,0,0,0,.928.31,1.219,1.219,0,0,0,.989-.43,1.8,1.8,0,0,0,.359-1.187A1.649,1.649,0,0,0,3.928-3.4,1.32,1.32,0,0,0,2.9-3.833a1.489,1.489,0,0,0-.928.259l-.239.2Z" transform="translate(284.051 15541)" fill="#12263f"/>
        <path id="Trazado_894356" data-name="Trazado 894356" d="M1.006-3.564l.361-3.545H5.01v.835H2.134L1.919-4.336a2.294,2.294,0,0,1,1.187-.308A1.961,1.961,0,0,1,4.648-4,2.516,2.516,0,0,1,5.22-2.266,2.429,2.429,0,0,1,4.626-.535,2.162,2.162,0,0,1,2.969.1,2.247,2.247,0,0,1,1.431-.425,2.085,2.085,0,0,1,.752-1.87h.854a1.435,1.435,0,0,0,.435.92,1.351,1.351,0,0,0,.928.31,1.219,1.219,0,0,0,.989-.43,1.8,1.8,0,0,0,.359-1.187A1.649,1.649,0,0,0,3.928-3.4,1.32,1.32,0,0,0,2.9-3.833a1.489,1.489,0,0,0-.928.259l-.239.2Z" transform="translate(504.051 15522)" fill="#12263f"/>
      </g>
    </g>
  </g>
</svg>
