<svg xmlns="http://www.w3.org/2000/svg" width="470.949" height="138.033" viewBox="0 0 470.949 138.033">
  <g id="Grupo_1102518" data-name="Grupo 1102518" transform="translate(6172 10665.203)">
    <path id="Trazado_893288" data-name="Trazado 893288" d="M10,0H460.949a10,10,0,0,1,10,10V128.034a10,10,0,0,1-10,10H10a10,10,0,0,1-10-10V10A10,10,0,0,1,10,0Z" transform="translate(-6172 -10665.203)" fill="#fff"/>
    <path id="Trazado_893289" data-name="Trazado 893289" d="M2.468-3.9V0H1.155V-9.953H4.826a3.688,3.688,0,0,1,2.56.834,2.827,2.827,0,0,1,.926,2.208,2.79,2.79,0,0,1-.906,2.232A3.853,3.853,0,0,1,4.813-3.9Zm0-1.073H4.826a2.358,2.358,0,0,0,1.613-.5A1.815,1.815,0,0,0,7-6.9a1.876,1.876,0,0,0-.561-1.424A2.209,2.209,0,0,0,4.9-8.88H2.468ZM11.163,0H9.9V-7.4h1.265ZM9.8-9.358a.755.755,0,0,1,.188-.52.706.706,0,0,1,.557-.212.717.717,0,0,1,.561.212.747.747,0,0,1,.191.52.722.722,0,0,1-.191.513.73.73,0,0,1-.561.205.718.718,0,0,1-.557-.205A.73.73,0,0,1,9.8-9.358Zm3.083,5.6a4.341,4.341,0,0,1,.8-2.758,2.592,2.592,0,0,1,2.146-1.015,2.59,2.59,0,0,1,2.071.882l.055-.745h1.162V2.844H17.849V-.684a2.654,2.654,0,0,1-2.037.82A2.551,2.551,0,0,1,13.675-.906a4.438,4.438,0,0,1-.8-2.765Zm1.265.144a3.291,3.291,0,0,0,.537,2A1.707,1.707,0,0,0,16.126-.9a1.894,1.894,0,0,0,1.723-1V-5.517a1.9,1.9,0,0,0-1.709-.978,1.72,1.72,0,0,0-1.456.728A3.583,3.583,0,0,0,14.144-3.616ZM25.71-.731a2.686,2.686,0,0,1-2.167.868,2.3,2.3,0,0,1-1.8-.687,2.974,2.974,0,0,1-.625-2.034V-7.4h1.265v4.778q0,1.682,1.367,1.682a1.893,1.893,0,0,0,1.928-1.08V-7.4H26.94V0h-1.2Zm6.221.868a3.232,3.232,0,0,1-2.447-.988,3.666,3.666,0,0,1-.943-2.642v-.232a4.438,4.438,0,0,1,.42-1.965,3.28,3.28,0,0,1,1.176-1.354,2.956,2.956,0,0,1,1.637-.489,2.77,2.77,0,0,1,2.242.95,4.114,4.114,0,0,1,.8,2.721v.526H29.8a2.629,2.629,0,0,0,.639,1.767A2.009,2.009,0,0,0,32-.9a2.2,2.2,0,0,0,1.135-.273,2.851,2.851,0,0,0,.813-.725l.772.6A3.106,3.106,0,0,1,31.931.137Zm-.157-6.631a1.687,1.687,0,0,0-1.285.557,2.708,2.708,0,0,0-.643,1.562h3.705v-.1a2.409,2.409,0,0,0-.52-1.494A1.588,1.588,0,0,0,31.773-6.494Zm6.221-2.693V-7.4h1.381v.978H37.994v4.593a1.027,1.027,0,0,0,.185.667.777.777,0,0,0,.629.222,3.062,3.062,0,0,0,.6-.082V0a3.688,3.688,0,0,1-.971.136A1.575,1.575,0,0,1,37.16-.376a2.2,2.2,0,0,1-.431-1.456V-6.419H35.383V-7.4h1.347V-9.187ZM43.921.137a3.232,3.232,0,0,1-2.447-.988,3.666,3.666,0,0,1-.943-2.642v-.232a4.438,4.438,0,0,1,.42-1.965,3.28,3.28,0,0,1,1.176-1.354,2.956,2.956,0,0,1,1.637-.489,2.77,2.77,0,0,1,2.242.95,4.114,4.114,0,0,1,.8,2.721v.526H41.795a2.629,2.629,0,0,0,.639,1.767A2.009,2.009,0,0,0,43.989-.9a2.2,2.2,0,0,0,1.135-.273,2.851,2.851,0,0,0,.813-.725l.772.6A3.106,3.106,0,0,1,43.921.137Zm-.157-6.631a1.687,1.687,0,0,0-1.285.557,2.708,2.708,0,0,0-.643,1.562h3.705v-.1a2.409,2.409,0,0,0-.52-1.494A1.588,1.588,0,0,0,43.764-6.494Zm8.812,4.532a.931.931,0,0,0-.386-.8,3.718,3.718,0,0,0-1.347-.489,6.367,6.367,0,0,1-1.524-.492,2.169,2.169,0,0,1-.834-.684,1.635,1.635,0,0,1-.27-.943A1.919,1.919,0,0,1,48.983-6.9a3,3,0,0,1,1.965-.629,3.091,3.091,0,0,1,2.041.649,2.063,2.063,0,0,1,.783,1.661H52.5a1.142,1.142,0,0,0-.441-.9,1.652,1.652,0,0,0-1.111-.376,1.729,1.729,0,0,0-1.08.3.947.947,0,0,0-.39.786.767.767,0,0,0,.362.69,4.458,4.458,0,0,0,1.309.444,6.821,6.821,0,0,1,1.535.506,2.239,2.239,0,0,1,.872.708,1.74,1.74,0,0,1,.284,1.008,1.893,1.893,0,0,1-.793,1.589,3.326,3.326,0,0,1-2.058.6,3.725,3.725,0,0,1-1.572-.314,2.557,2.557,0,0,1-1.07-.878,2.117,2.117,0,0,1-.386-1.22h1.265a1.309,1.309,0,0,0,.509,1.008A1.976,1.976,0,0,0,50.989-.9a2.039,2.039,0,0,0,1.152-.291A.893.893,0,0,0,52.575-1.962Z" transform="translate(-6016 -10589.566)" fill="#12263f"/>
    <g id="Grupo_1102054" data-name="Grupo 1102054" transform="translate(803.312 -184.268)">
      <line id="Línea_142" data-name="Línea 142" x2="18" transform="translate(-6731.5 -10428.5)" fill="none" stroke="#12263f" stroke-linecap="round" stroke-width="2"/>
      <line id="Línea_143" data-name="Línea 143" x2="18" transform="translate(-6731.5 -10397.5)" fill="none" stroke="#12263f" stroke-linecap="round" stroke-width="2"/>
      <line id="Línea_144" data-name="Línea 144" x2="18" transform="translate(-6731.5 -10390.5)" fill="none" stroke="#12263f" stroke-linecap="round" stroke-width="2"/>
      <g id="Grupo_1102051" data-name="Grupo 1102051" transform="translate(-87.739 -24.902)">
        <path id="Trazado_892569" data-name="Trazado 892569" d="M0,0,15.28,3.72,19,19,3.72,15.279Z" transform="translate(-6592.436 -10417.033) rotate(45)" fill="#fff"/>
        <path id="Rectángulo_402165_-_Contorno" data-name="Rectángulo 402165 - Contorno" d="M2,2,4.937,14.062,17,17,14.064,4.937,2,2M0,0,15.28,3.72,19,19,3.72,15.279Z" transform="translate(-6592.436 -10417.033) rotate(45)" fill="#12263f"/>
      </g>
      <g id="Grupo_1102052" data-name="Grupo 1102052" transform="translate(-96.546 8.534)">
        <path id="Trazado_892569-2" data-name="Trazado 892569" d="M0,0,15.28,3.72,19,19,3.72,15.279Z" transform="translate(-6592.436 -10417.033) rotate(45)" fill="#fff"/>
        <path id="Rectángulo_402165_-_Contorno-2" data-name="Rectángulo 402165 - Contorno" d="M2,2,4.937,14.062,17,17,14.064,4.937,2,2M0,0,15.28,3.72,19,19,3.72,15.279Z" transform="translate(-6592.436 -10417.033) rotate(45)" fill="#12263f"/>
      </g>
      <g id="Grupo_1102053" data-name="Grupo 1102053" transform="translate(-80.546 8.534)">
        <path id="Trazado_892569-3" data-name="Trazado 892569" d="M0,0,15.28,3.72,19,19,3.72,15.279Z" transform="translate(-6592.436 -10417.033) rotate(45)" fill="#fff"/>
        <path id="Rectángulo_402165_-_Contorno-3" data-name="Rectángulo 402165 - Contorno" d="M2,2,4.937,14.062,17,17,14.064,4.937,2,2M0,0,15.28,3.72,19,19,3.72,15.279Z" transform="translate(-6592.436 -10417.033) rotate(45)" fill="#12263f"/>
      </g>
    </g>
  </g>
</svg>
