<svg xmlns="http://www.w3.org/2000/svg" xmlns:xlink="http://www.w3.org/1999/xlink" width="715" height="361" viewBox="0 0 715 361">
  <defs>
    <clipPath id="clip-path">
      <rect id="Rectángulo_402424" data-name="Rectángulo 402424" width="509.154" height="292.728" fill="none"/>
    </clipPath>
  </defs>
  <g id="Grupo_1102514" data-name="Grupo 1102514" transform="translate(-180.051 -529)">
    <rect id="Rectángulo_402420" data-name="Rectángulo 402420" width="715" height="361" transform="translate(180.051 529)" fill="#f8f7fd"/>
    <g id="Grupo_1102420" data-name="Grupo 1102420">
      <rect id="Rectángulo_402422" data-name="Rectángulo 402422" width="639" height="323" rx="20" transform="translate(218.051 548)" fill="#fff"/>
      <g id="Grupo_1102419" data-name="Grupo 1102419" transform="translate(283.051 563)">
        <g id="Grupo_1102418" data-name="Grupo 1102418" clip-path="url(#clip-path)">
          <path id="Trazado_893052" data-name="Trazado 893052" d="M567.683,272.055l.34-.213a494.967,494.967,0,0,0,1.94-68.165,748.365,748.365,0,0,0-8.9-80.479c-2.821-17.5-5.446-35.679-10.988-52.584-2.417-7.372-3.288-16.01-8.566-21.7-6.748-7.27-16.006-10.3-24.851-14.115-3.268-1.41-17.651-7.351-24.714-11.192l-2.57-1.764c-3.458-4.945-8.037-11.142-11.5-16.087-.643-.919-1.495-2.558-2.477-3.146-1.064-.637-2.86-.515-4.074-.637A217.61,217.61,0,0,0,440.317,1.3c-3.337.14-6.673.349-10,.682-1.216.122-3.011,0-4.075.637-.981.588-1.835,2.227-2.477,3.146-2.361,3.376-5.5,7.284-8.352,11l-.007,0h0c-1.326,1.726-2.6,3.414-3.694,4.982l-3.328,2.326c-9.349,5.3-38.136,18.526-44.022,24.867-5.278,5.686-6.148,14.324-8.565,21.7-5.543,16.9-8.169,35.08-10.989,52.584a748.381,748.381,0,0,0-8.9,80.479,495.083,495.083,0,0,0,1.94,68.165l.383.23a3.763,3.763,0,0,0-1.724-.371c-.331,4.206.3,8.721.462,12.95a3.622,3.622,0,0,0,3.753,4.422c8.127,1.837,16.469,3.588,24.9,3.391a38.234,38.234,0,0,0,6.221-.638c1.714-.325,2.234-.693,2.516-2.405.013-.081.026-.162.038-.242.676-4.127,1.234-8.337,1.516-12.507a1.394,1.394,0,0,0-.618-1.445,1.56,1.56,0,0,0-.873-.017c-1.246.217-2.507.383-3.775.522l3.672-.928c-.239-11.663,6.885-82.279,7.933-96.77-.013,14.96.448,29.929.661,44.882.082,5.84.146,11.681.139,17.522,0,.186,0,.423-.006.694-.046,3.357-.247,12.681,2.158,14.752,2.217,1.908,5.162,2.7,8.008,3.374a227.855,227.855,0,0,0,47.749,5.669c23.838.483,48.311-.138,71.672-5.669,2.847-.674,5.792-1.465,8.009-3.374,2.4-2.069,2.2-11.382,2.158-14.745l.012-.007h-.012c0-.271-.007-.508-.007-.694,0-1.019.011-2.039.012-3.058l.007,0h-.007q.02-7.23.127-14.461c.213-14.981.674-29.978.661-44.966,1.032,14.355,8.176,85.153,7.937,96.832l1.093.589c-.4-.061-.8-.114-1.2-.183a1.56,1.56,0,0,0-.873.017,1.4,1.4,0,0,0-.619,1.445c.283,4.169.84,8.38,1.516,12.507l.039.242c.282,1.712.8,2.081,2.517,2.405a38.239,38.239,0,0,0,6.22.638c8.437.2,16.777-1.553,24.905-3.391a3.621,3.621,0,0,0,3.752-4.422c.164-4.229.793-8.744.463-12.95a3.691,3.691,0,0,0-1.682.354" transform="translate(-61.647 -0.192)" fill="#a7c3d4"/>
          <path id="Trazado_893053" data-name="Trazado 893053" d="M232.728,204.45a741.234,741.234,0,0,0-8.814-79.708c-2.793-17.335-5.394-35.338-10.884-52.081-2.394-7.3-3.255-15.856-8.482-21.488-6.975-7.514-17.089-11.083-26.721-14.595a142.813,142.813,0,0,1-24.452-11.069l-.243-.187a76.858,76.858,0,0,0-8.441-13.69c-.017-.031-.033-.064-.051-.095l0,.033c-1.925-2.565-3.916-5.02-5.842-7.323-17.023-5.4-26.438-4.573-43.913,0-1.926,2.3-3.917,4.758-5.843,7.323l0-.033c-.018.031-.033.064-.051.095A76.251,76.251,0,0,0,80.433,25.59l-.156-.081A142.783,142.783,0,0,1,55.826,36.578c-9.631,3.511-19.745,7.081-26.72,14.595-5.227,5.631-6.089,14.186-8.483,21.488-5.49,16.743-8.09,34.745-10.883,52.081A741.229,741.229,0,0,0,.926,204.45a490.258,490.258,0,0,0,1.921,67.513l.358.22a3.7,3.7,0,0,0-1.686-.36c-.327,4.166.3,8.638.458,12.827a4.875,4.875,0,0,0,1,3.374,4.881,4.881,0,0,0,2.717,1.006c8.051,1.819,16.311,3.554,24.667,3.358a37.87,37.87,0,0,0,6.16-.632c1.7-.322,2.213-.687,2.493-2.383l.039-.24c.669-4.087,1.221-8.257,1.5-12.387a1.382,1.382,0,0,0-.612-1.431,1.554,1.554,0,0,0-.864-.017c-1.348.235-2.713.413-4.088.557l3.986-.958c-.237-11.551,6.82-81.49,7.857-95.844-.012,14.817.444,29.643.655,44.453q.1,7.16.126,14.323h-.006l.006,0c0,1.01.013,2.019.012,3.028,0,.184,0,.419-.007.687h-.011l.011.007c-.046,3.331-.243,12.554,2.137,14.6,2.2,1.89,5.113,2.673,7.933,3.341,16.985,4.022,34.563,5.417,52.051,5.689l0,.056c0-.018,0-.038,0-.056,5.59.087,11.17.059,16.718-.037v0c.738-.012,1.477-.023,2.214-.038a225.65,225.65,0,0,0,47.292-5.615c2.82-.668,5.736-1.45,7.932-3.341,2.574-2.216,2.135-12.828,2.131-15.3-.007-5.785.055-11.57.138-17.354.211-14.81.667-29.636.655-44.453,1.037,14.354,8.093,84.293,7.857,95.844l1.841.7c-.651-.091-1.3-.185-1.943-.3a1.554,1.554,0,0,0-.864.017,1.38,1.38,0,0,0-.612,1.431c.279,4.129.831,8.3,1.5,12.387l.039.24c.28,1.7.8,2.06,2.492,2.383a37.89,37.89,0,0,0,6.161.632c8.355.2,16.616-1.539,24.666-3.358a3.587,3.587,0,0,0,3.717-4.38c.162-4.189.784-8.66.458-12.827a4.612,4.612,0,0,0-2.139.549l.811-.409a490.387,490.387,0,0,0,1.921-67.513" transform="translate(-0.092 -0.092)" fill="#a7c3d4"/>
          <path id="Trazado_893054" data-name="Trazado 893054" d="M111.481,4.706C106,11.261,100.618,18.13,97.042,25.944a43.417,43.417,0,0,0-2.2,5.812,54.352,54.352,0,0,0-1.378,6.426,77.5,77.5,0,0,0-1.1,13.733A58.7,58.7,0,0,0,94.5,67.131a.413.413,0,0,0,.746.1c2.357-4.137,6.548-7.043,10.728-9.122a38.589,38.589,0,0,1,6.708-2.594q.807-.227,1.623-.415.4-.091.793-.171l.261-.052c.056-.011.5-.059.317-.062a1.019,1.019,0,0,1,.113.025,2.224,2.224,0,0,1,.389.241,14.152,14.152,0,0,1,2.069,2.068c1.021,1.162,1.985,2.374,2.933,3.6,2.277,2.938,4.446,5.959,6.582,9,1.841,2.622,3.666,5.258,5.418,7.94.286.438.993.029.705-.412-1.579-2.416-3.218-4.793-4.871-7.159-2.2-3.144-4.431-6.266-6.767-9.31-1-1.3-2.006-2.585-3.071-3.827a18.294,18.294,0,0,0-2.331-2.405,2.676,2.676,0,0,0-.869-.529,1.017,1.017,0,0,0-.437-.027,15.693,15.693,0,0,0-1.585.328,38.5,38.5,0,0,0-6.874,2.344c-4.411,1.966-8.786,4.763-11.645,8.736a15.7,15.7,0,0,0-.9,1.4l.746.1A64.608,64.608,0,0,1,94.016,39.9a50.179,50.179,0,0,1,3.143-12.2,63.974,63.974,0,0,1,6.228-11.143c2.669-3.921,5.63-7.631,8.671-11.268.335-.4-.24-.981-.577-.577" transform="translate(-16.972 -0.84)"/>
          <path id="Trazado_893055" data-name="Trazado 893055" d="M115.63,5.275c-2.567,9.553-1.632,19.671,1.184,29.058a122.428,122.428,0,0,0,5.5,13.986c2.09,4.758,4.224,9.5,6.51,14.168,2.553,5.215,5.3,10.336,8.362,15.273.276.446.983.036.7-.412a222.3,222.3,0,0,1-13.9-27.247c-2.039-4.6-4.162-9.184-5.746-13.966a64.18,64.18,0,0,1-3.093-14.38,46.5,46.5,0,0,1,1.271-16.261.408.408,0,0,0-.787-.217" transform="translate(-20.971 -0.916)"/>
          <path id="Trazado_893056" data-name="Trazado 893056" d="M106.406,13.724a74.994,74.994,0,0,0-7.623,19.1,65.842,65.842,0,0,0-1.772,20.152,61.523,61.523,0,0,0,1.9,11.423.408.408,0,0,0,.787-.217,61.545,61.545,0,0,1-1.867-20.017,68.9,68.9,0,0,1,4.374-19.6,76.1,76.1,0,0,1,4.908-10.429.408.408,0,0,0-.7-.412" transform="translate(-17.798 -2.485)"/>
          <path id="Trazado_893057" data-name="Trazado 893057" d="M164.653,5.283c5.4,6.461,10.686,13.227,14.238,20.914a41.951,41.951,0,0,1,2.19,5.775,53.852,53.852,0,0,1,1.348,6.24,76.324,76.324,0,0,1,1.1,13.608,57.9,57.9,0,0,1-2.107,15.094l.746-.1c-2.387-4.189-6.591-7.179-10.816-9.313a39.784,39.784,0,0,0-6.9-2.72,22.235,22.235,0,0,0-3.28-.771,1.266,1.266,0,0,0-.846.22,10.131,10.131,0,0,0-2.1,1.954c-1.033,1.144-2,2.348-2.947,3.561-2.347,3-4.578,6.093-6.772,9.208-1.8,2.552-3.573,5.122-5.3,7.726q-.193.293-.386.587c-.288.441.419.851.705.412,3.565-5.454,7.327-10.805,11.272-15.99.974-1.279,1.965-2.547,3-3.777a23.649,23.649,0,0,1,2.379-2.548,2.8,2.8,0,0,1,.741-.53,1.019,1.019,0,0,1,.113-.025c-.225,0,.172.035.186.038l.26.051q.464.092.924.2a37.335,37.335,0,0,1,6.812,2.294c4.737,2.11,9.619,5.224,12.247,9.838a.413.413,0,0,0,.746-.1,65.472,65.472,0,0,0,1.3-27.262,50.777,50.777,0,0,0-3.238-12.551,64.808,64.808,0,0,0-6.293-11.253c-2.694-3.951-5.684-7.692-8.749-11.359-.337-.4-.912.176-.577.577" transform="translate(-26.231 -0.84)"/>
          <path id="Trazado_893058" data-name="Trazado 893058" d="M164.294,5.492c2.555,9.508,1.571,19.561-1.264,28.888A125.707,125.707,0,0,1,157.5,48.345c-2.055,4.669-4.154,9.32-6.4,13.9-2.53,5.155-5.251,10.219-8.278,15.1-.278.448.429.858.7.412a224.423,224.423,0,0,0,14.1-27.686,150.885,150.885,0,0,0,5.721-13.986A64.889,64.889,0,0,0,166.4,21.572a47.069,47.069,0,0,0-1.317-16.3.408.408,0,0,0-.787.217" transform="translate(-26.232 -0.916)"/>
          <path id="Trazado_893059" data-name="Trazado 893059" d="M176.643,14.136a74.226,74.226,0,0,1,7.52,18.819,65.106,65.106,0,0,1,1.77,19.933,60.431,60.431,0,0,1-1.875,11.3.409.409,0,0,0,.788.216,62.256,62.256,0,0,0,1.89-20.322,69.686,69.686,0,0,0-4.429-19.811,77.307,77.307,0,0,0-4.96-10.542.408.408,0,0,0-.7.412" transform="translate(-32.448 -2.485)"/>
          <path id="Trazado_893060" data-name="Trazado 893060" d="M116.157,4.551a110.775,110.775,0,0,1,17.6-3.481,55.843,55.843,0,0,1,15.825.8,91.688,91.688,0,0,1,10.268,2.681c.5.159.717-.629.217-.787A75.2,75.2,0,0,0,142.647.129a62.881,62.881,0,0,0-16.126,1.176c-3.558.678-7.079,1.543-10.582,2.459a.408.408,0,0,0,.217.787" transform="translate(-21.251 -0.002)"/>
          <path id="Trazado_893061" data-name="Trazado 893061" d="M115.222,20.206c4.948-3.932,11.179-5.7,17.376-6.354,6.218-.66,12.52-.486,18.49,1.529a35.712,35.712,0,0,1,9.414,4.889c.428.308.835-.4.412-.7a36.442,36.442,0,0,0-17.71-6.693,51.337,51.337,0,0,0-9.757.08,45.116,45.116,0,0,0-9.4,1.78,28.968,28.968,0,0,0-9.407,4.9c-.411.326.17.9.577.577" transform="translate(-21.04 -2.329)"/>
          <path id="Trazado_893062" data-name="Trazado 893062" d="M207.271,58.547a245.606,245.606,0,0,0-12.414,54.783c-1.054,9.678-1.52,19.411-1.666,29.143-.147,9.757.027,19.517.247,29.271.222,9.816.313,19.623.191,29.441-.122,9.793-.37,19.585-.533,29.378-.134,8.054-.162,16.105-.162,24.16a42.81,42.81,0,0,1-.6,8.37,7.481,7.481,0,0,1-1.1,3.025,5.854,5.854,0,0,1-1.74,1.362,14.784,14.784,0,0,1-2.783,1.255,58.141,58.141,0,0,1-6.35,1.62q-3.51.774-7.049,1.414-7.033,1.275-14.143,2.06c-9.451,1.059-18.939,1.458-28.444,1.577-9.431.118-18.87.019-28.288-.528a231.972,231.972,0,0,1-28.2-3.245q-3.452-.629-6.877-1.39a50.239,50.239,0,0,1-6.165-1.619,13.832,13.832,0,0,1-2.819-1.362,4.768,4.768,0,0,1-1.491-1.294,8.717,8.717,0,0,1-1.062-3.195,45.677,45.677,0,0,1-.536-8.306c.007-3.252.032-6.5.009-9.753-.067-9.8-.271-19.6-.465-29.4-.194-9.826-.365-19.654-.3-29.483.065-9.745.419-19.487.518-29.232s.01-19.508-.541-29.246a258.147,258.147,0,0,0-3.135-28.382A245.533,245.533,0,0,0,45.1,71.507q-1.894-6.536-4.148-12.96c-.173-.492-.962-.281-.787.217a246.194,246.194,0,0,1,7.83,27.266A244.392,244.392,0,0,1,52.629,114.1c1.031,9.757,1.472,19.569,1.6,29.378.126,9.825-.063,19.651-.289,29.474q-.339,14.778-.146,29.551c.135,9.895.388,19.787.542,29.683q.114,7.321.158,14.644c.014,2.934-.047,5.869-.017,8.8a36.453,36.453,0,0,0,.782,8.392,6.4,6.4,0,0,0,1.308,2.853,11.611,11.611,0,0,0,4.73,2.642,57.655,57.655,0,0,0,6.324,1.613q3.475.764,6.976,1.389c4.645.833,9.321,1.494,14.011,2.015,9.456,1.052,18.969,1.53,28.48,1.677s19.026.085,28.511-.442a226.8,226.8,0,0,0,28.415-3.307q3.535-.649,7.044-1.431a49.827,49.827,0,0,0,6.266-1.654,15.012,15.012,0,0,0,2.725-1.283,6.837,6.837,0,0,0,1.743-1.375,7.138,7.138,0,0,0,1.235-2.948,38.93,38.93,0,0,0,.725-8.415c.02-2.978-.033-5.955-.018-8.933.05-9.864.247-19.725.445-29.587.2-9.894.383-19.79.338-29.686-.045-9.85-.4-19.7-.513-29.544-.113-9.818-.044-19.644.485-29.45a257.365,257.365,0,0,1,3.1-28.683,245.765,245.765,0,0,1,6.3-27.661q1.905-6.583,4.175-13.053c.175-.5-.614-.71-.787-.217" transform="translate(-7.375 -10.707)"/>
          <path id="Trazado_893063" data-name="Trazado 893063" d="M128.208,74.605q.088,6.45.236,12.9.184,8.71.4,17.421.253,10.5.523,21,.3,11.629.6,23.257.317,12.251.633,24.5.318,12.381.629,24.762.3,11.826.575,23.652.253,10.782.481,21.564.192,9.226.346,18.451c.074,4.677.14,9.355.164,14.033q.007,1.32.008,2.639a.408.408,0,0,0,.816,0c0-4.3-.055-8.6-.115-12.894q-.124-8.71-.305-17.419-.208-10.5-.454-21-.267-11.628-.556-23.256-.3-12.25-.617-24.5-.317-12.381-.639-24.762-.306-11.826-.61-23.654-.277-10.782-.543-21.565-.227-9.227-.434-18.453-.156-7.018-.278-14.037-.022-1.32-.04-2.64a.408.408,0,0,0-.816,0" transform="translate(-23.558 -13.636)"/>
          <path id="Trazado_893064" data-name="Trazado 893064" d="M156.4,73.831c.058,4.3.062,8.606.056,12.909q-.012,8.733-.087,17.467-.08,10.509-.2,21.018-.127,11.7-.278,23.4-.155,12.3-.325,24.6-.169,12.4-.342,24.8-.167,11.9-.328,23.807-.146,10.819-.281,21.639-.114,9.25-.2,18.5-.066,7.025-.095,14.052,0,1.313,0,2.624a.408.408,0,0,0,.816,0c0-4.3.029-8.607.064-12.91q.073-8.733.18-17.468.124-10.509.266-21.018.156-11.7.319-23.4.171-12.3.341-24.6.17-12.4.332-24.8.154-11.9.292-23.807.122-10.819.219-21.638.08-9.25.117-18.5c.016-4.684.02-9.367-.019-14.051q-.011-1.311-.029-2.624a.408.408,0,0,0-.816,0" transform="translate(-28.355 -13.494)"/>
          <circle id="Elipse_11504" data-name="Elipse 11504" cx="3.766" cy="3.766" r="3.766" transform="translate(112.411 98.662) rotate(-76.717)" fill="none" stroke="#000" stroke-miterlimit="10" stroke-width="1"/>
          <circle id="Elipse_11505" data-name="Elipse 11505" cx="3.766" cy="3.766" r="3.766" transform="translate(112.411 138.819) rotate(-76.717)" fill="none" stroke="#000" stroke-miterlimit="10" stroke-width="1"/>
          <circle id="Elipse_11506" data-name="Elipse 11506" cx="3.766" cy="3.766" r="3.766" transform="translate(112.411 178.976) rotate(-76.717)" fill="none" stroke="#000" stroke-miterlimit="10" stroke-width="1"/>
          <circle id="Elipse_11507" data-name="Elipse 11507" cx="3.766" cy="3.766" r="3.766" transform="translate(113.176 212.567)" fill="none" stroke="#000" stroke-miterlimit="10" stroke-width="1"/>
          <circle id="Elipse_11508" data-name="Elipse 11508" cx="3.766" cy="3.766" r="3.766" transform="translate(113.176 252.724)" fill="none" stroke="#000" stroke-miterlimit="10" stroke-width="1"/>
          <path id="Trazado_893065" data-name="Trazado 893065" d="M212.478,212.42a35.02,35.02,0,0,0-1.437,6.756c-.524,3.58-.873,7.186-1.139,10.794a202.37,202.37,0,0,0-.3,26.679,98.226,98.226,0,0,0,1.637,13.729c.1.514.891.3.787-.217-1.688-8.353-1.953-17.015-1.895-25.513a190.567,190.567,0,0,1,1.544-24.165,38.511,38.511,0,0,1,1.59-7.847c.178-.5-.61-.708-.787-.217" transform="translate(-38.458 -38.981)"/>
          <path id="Trazado_893066" data-name="Trazado 893066" d="M212.074,283.755l4.751.552a.41.41,0,0,0,.408-.408.419.419,0,0,0-.408-.408l-4.751-.552a.41.41,0,0,0-.408.408.418.418,0,0,0,.408.408" transform="translate(-38.894 -51.99)"/>
          <path id="Trazado_893067" data-name="Trazado 893067" d="M213.53,212.755c1.533.567,3.145.891,4.678,1.459a.412.412,0,0,0,.5-.286.417.417,0,0,0-.285-.5c-1.533-.567-3.145-.891-4.678-1.458a.411.411,0,0,0-.5.285.417.417,0,0,0,.285.5" transform="translate(-39.181 -38.946)"/>
          <path id="Trazado_893068" data-name="Trazado 893068" d="M218.545,214.034c-1.034,7.38-1.828,14.794-2.27,22.235a205.7,205.7,0,0,0-.167,22.322q.311,6.314,1.082,12.593c.064.514.882.521.816,0A178.789,178.789,0,0,1,216.7,249.03c.006-7.418.42-14.833,1.136-22.215q.611-6.3,1.5-12.564c.072-.514-.714-.736-.786-.217" transform="translate(-39.668 -39.275)"/>
          <path id="Trazado_893069" data-name="Trazado 893069" d="M71.578,212.637a35.022,35.022,0,0,1,1.437,6.756c.52,3.551.859,7.129,1.119,10.707a202.789,202.789,0,0,1,.3,26.408,97.23,97.23,0,0,1-1.617,13.653c-.1.513.683.732.788.217,1.693-8.379,1.977-17.06,1.924-25.585a192.1,192.1,0,0,0-1.56-24.425,38.926,38.926,0,0,0-1.6-7.949c-.176-.491-.966-.279-.787.217" transform="translate(-13.148 -38.981)"/>
          <path id="Trazado_893070" data-name="Trazado 893070" d="M72.416,282.939l-4.751.552a.421.421,0,0,0-.408.408.41.41,0,0,0,.408.408l4.751-.552a.421.421,0,0,0,.408-.408.411.411,0,0,0-.408-.408" transform="translate(-12.358 -51.99)"/>
          <path id="Trazado_893071" data-name="Trazado 893071" d="M70.758,211.969c-1.533.567-3.145.891-4.678,1.459a.419.419,0,0,0-.285.5.412.412,0,0,0,.5.285c1.533-.567,3.145-.891,4.678-1.459a.419.419,0,0,0,.285-.5.412.412,0,0,0-.5-.285" transform="translate(-12.087 -38.946)"/>
          <path id="Trazado_893072" data-name="Trazado 893072" d="M65.633,214.252c1.032,7.373,1.817,14.783,2.252,22.217a205.523,205.523,0,0,1,.15,22.222q-.312,6.263-1.078,12.494c-.064.52.753.514.816,0a179.151,179.151,0,0,0,1.31-22.354c-.014-7.451-.438-14.9-1.166-22.313q-.615-6.257-1.5-12.483c-.073-.518-.859-.3-.787.217" transform="translate(-12.059 -39.275)"/>
          <path id="Trazado_893073" data-name="Trazado 893073" d="M79.979,30.694c-3.787,2.161-7.655,4.173-11.632,5.96-4.077,1.832-8.253,3.435-12.45,4.969-8.043,2.939-16.358,5.813-23.183,11.15a29.992,29.992,0,0,0-4.6,4.347A22.027,22.027,0,0,0,25,62.192a75.972,75.972,0,0,0-3.671,11.8c-.564,2.116-1.24,4.189-1.89,6.279q-1.112,3.567-2.061,7.181c-1.28,4.844-2.37,9.738-3.343,14.652-1.961,9.9-3.482,19.887-5.069,29.854Q6.5,147.443,4.578,163.006,2.669,178.616,1.437,194.3C.74,203.336.2,212.385.057,221.448c-.136,8.6-.022,17.215.274,25.815.287,8.319.738,16.638,1.486,24.928q.239,2.657.529,5.309c.056.516.873.522.816,0-.871-7.933-1.392-15.9-1.76-23.874q-.6-12.94-.584-25.9c.015-8.474.321-16.928.864-25.385q1-15.591,2.751-31.124,1.744-15.677,4.116-31.275c1.5-9.957,3.066-19.916,4.818-29.833a241.581,241.581,0,0,1,6.745-29.256c.644-2.085,1.332-4.15,1.9-6.258.544-2.014,1.041-4.042,1.612-6.05,1.106-3.887,2.511-7.842,5.161-10.967a36.217,36.217,0,0,1,10.02-7.856,86.68,86.68,0,0,1,11.884-5.318c4.195-1.583,8.429-3.056,12.591-4.725,3.854-1.547,7.646-3.245,11.34-5.143,1.947-1,3.867-2.053,5.769-3.138a.408.408,0,0,0-.412-.7" transform="translate(0 -5.63)"/>
          <path id="Trazado_893074" data-name="Trazado 893074" d="M55.012,218.79c-.13,1.84-.286,3.678-.444,5.516q-.351,4.086-.726,8.171-.458,5.049-.925,10.1-.528,5.736-1.056,11.472-.556,6.042-1.1,12.085t-1.077,12.107q-.5,5.767-.982,11.535-.419,5.1-.8,10.2c-.2,2.771-.4,5.544-.551,8.319-.105,1.9-.206,3.8-.22,5.706,0,.311,0,.622,0,.933a.408.408,0,0,0,.816,0c-.033-1.659.047-3.321.128-4.977.126-2.585.3-5.167.477-7.748q.345-4.9.746-9.793.454-5.643.944-11.282.519-6.008,1.06-12.013.545-6.077,1.1-12.151.535-5.848,1.076-11.7.484-5.24.963-10.481.4-4.356.783-8.714c.181-2.071.361-4.142.519-6.215q.042-.538.079-1.076c.037-.524-.78-.522-.816,0" transform="translate(-8.66 -40.131)"/>
          <path id="Trazado_893075" data-name="Trazado 893075" d="M38.775,350.01a3.687,3.687,0,0,1-.463,1.556,1.9,1.9,0,0,1-1.142.642,27.6,27.6,0,0,1-5.4.707,62.487,62.487,0,0,1-11.291-.526c-3.8-.485-7.557-1.227-11.294-2.04q-1.4-.3-2.791-.62a16.858,16.858,0,0,1-2.2-.5c-1.674-.626-1.648-2.577-1.717-4.069-.19-4.116-.747-8.232-.438-12.356l-.408.408a5.167,5.167,0,0,1,2.18.6c.775.321,1.593.546,2.4.792,1.658.508,3.327.957,5.023,1.316a81.05,81.05,0,0,0,20.508,1.6q2.585-.138,5.152-.477c.8-.108,1.6-.245,2.406-.368.438-.068.782-.018.912.444a3.222,3.222,0,0,1,.014,1.1c-.287,3.951-.813,7.878-1.451,11.787-.084.514.7.735.787.217.586-3.59,1.081-7.2,1.388-10.822.091-1.083.561-3.261-1-3.555a2.99,2.99,0,0,0-1.052.073c-.478.08-.955.157-1.434.227-.9.13-1.793.237-2.693.326a76.842,76.842,0,0,1-21.862-1.05,59.239,59.239,0,0,1-5.912-1.437c-.935-.28-1.9-.534-2.8-.9a6.184,6.184,0,0,0-2.556-.692.419.419,0,0,0-.408.408c-.3,3.966.206,7.927.415,11.884.078,1.492-.022,3.228,1.011,4.44A3.468,3.468,0,0,0,4.634,350.2c.9.193,1.8.375,2.7.575,7.869,1.753,15.938,3.339,24.042,2.975q1.75-.078,3.486-.312a17.391,17.391,0,0,0,2.747-.506c1.336-.411,1.741-1.41,1.953-2.705.085-.514-.7-.735-.787-.217" transform="translate(-0.209 -61.079)"/>
          <path id="Trazado_893076" data-name="Trazado 893076" d="M1.7,339.108a75.644,75.644,0,0,0,38.48,3.276c.516-.09.3-.877-.217-.787a74.926,74.926,0,0,1-38.046-3.276c-.5-.177-.709.611-.217.787" transform="translate(-0.261 -62.162)"/>
          <path id="Trazado_893077" data-name="Trazado 893077" d="M187.493,31.4c3.764,2.148,7.607,4.149,11.56,5.928,4.019,1.809,8.131,3.4,12.269,4.919,8.045,2.952,16.436,5.762,23.272,11.105a29.986,29.986,0,0,1,4.6,4.347A21.534,21.534,0,0,1,242.3,62.89c1.672,3.818,2.541,7.931,3.629,11.938.584,2.152,1.3,4.261,1.95,6.393q1.08,3.527,2.006,7.1c1.255,4.818,2.326,9.685,3.285,14.571,1.933,9.847,3.446,19.774,5.02,29.684q2.457,15.475,4.37,31.031,1.9,15.611,3.114,31.3c.679,8.914,1.2,17.839,1.336,26.779.131,8.584.015,17.171-.283,25.75-.287,8.263-.737,16.525-1.481,24.759q-.24,2.657-.529,5.309c-.057.522.76.517.816,0,.873-7.96,1.395-15.958,1.763-23.957q.6-13.059.58-26.14c-.02-8.5-.34-16.98-.89-25.463q-1.017-15.692-2.792-31.323-1.757-15.684-4.138-31.288c-1.514-10.015-3.085-20.033-4.86-30.005a236.716,236.716,0,0,0-6.814-29.233c-.65-2.079-1.315-4.144-1.874-6.251-.536-2.017-1.037-4.045-1.623-6.048-1.131-3.872-2.613-7.745-5.266-10.847a36.875,36.875,0,0,0-9.92-7.8A85.267,85.267,0,0,0,217.88,43.8c-4.217-1.6-8.48-3.076-12.671-4.746-3.923-1.564-7.778-3.286-11.534-5.217-1.948-1-3.868-2.053-5.769-3.138a.408.408,0,0,0-.412.7" transform="translate(-34.416 -5.63)"/>
          <path id="Trazado_893078" data-name="Trazado 893078" d="M228.239,218.79c.13,1.84.286,3.678.445,5.516q.351,4.086.726,8.171.458,5.049.925,10.1.529,5.736,1.056,11.472.556,6.042,1.1,12.085t1.077,12.107q.5,5.767.982,11.535.419,5.1.8,10.2c.2,2.771.4,5.544.551,8.319.105,1.9.206,3.8.22,5.706,0,.311,0,.622,0,.933a.408.408,0,0,0,.816,0c.033-1.659-.047-3.321-.128-4.977-.126-2.585-.3-5.167-.477-7.748q-.345-4.9-.746-9.793-.454-5.643-.944-11.282-.519-6.008-1.06-12.013-.545-6.077-1.1-12.151-.535-5.848-1.076-11.7-.484-5.24-.963-10.481-.4-4.356-.783-8.714c-.181-2.071-.361-4.142-.519-6.215q-.042-.538-.079-1.076c-.037-.521-.853-.525-.816,0" transform="translate(-41.939 -40.131)"/>
          <path id="Trazado_893079" data-name="Trazado 893079" d="M237.473,350.227a2.918,2.918,0,0,0,1.565,2.563,9.34,9.34,0,0,0,2.138.5q1.485.241,2.987.365a59.2,59.2,0,0,0,12.192-.425c4-.5,7.962-1.277,11.9-2.137.994-.216,1.988-.442,2.981-.664a9.151,9.151,0,0,0,2.261-.6c1.433-.734,1.755-2.35,1.834-3.818.237-4.382.8-8.815.475-13.205a.418.418,0,0,0-.408-.408,5.043,5.043,0,0,0-2.179.534,26,26,0,0,1-2.52.857c-1.721.528-3.453.995-5.214,1.364a77.927,77.927,0,0,1-10.9,1.477,76.572,76.572,0,0,1-10.957-.035c-1.806-.14-3.608-.355-5.395-.657-.67-.113-1.386-.245-1.881.334a2.352,2.352,0,0,0-.377,1.753c.289,4.089.834,8.156,1.495,12.2.084.517.871.3.787-.217-.569-3.485-1.049-6.986-1.35-10.506a8.013,8.013,0,0,1-.1-2.32.636.636,0,0,1,.808-.524c.455.055.908.151,1.362.22q2.462.375,4.949.555a78.541,78.541,0,0,0,20.617-1.258c1.9-.367,3.771-.818,5.624-1.371.887-.264,1.789-.516,2.659-.834a6.808,6.808,0,0,1,2.576-.755l-.408-.408a80.694,80.694,0,0,1-.365,11.029c-.051.827-.068,1.656-.129,2.482a4.133,4.133,0,0,1-.621,2.144,3.03,3.03,0,0,1-2.069,1.022c-.843.157-1.678.358-2.516.544-7.431,1.652-14.987,3.1-22.634,2.936a35.281,35.281,0,0,1-6.357-.66,2.654,2.654,0,0,1-1.482-.621,3.247,3.247,0,0,1-.559-1.676c-.085-.517-.872-.3-.787.217" transform="translate(-43.358 -61.079)"/>
          <path id="Trazado_893080" data-name="Trazado 893080" d="M236.639,342.469a71.652,71.652,0,0,0,30.429-.923,77.712,77.712,0,0,0,8.33-2.529c.49-.179.278-.968-.217-.787a74.408,74.408,0,0,1-29.817,4.521,64.969,64.969,0,0,1-8.508-1.069c-.513-.1-.733.686-.217.787" transform="translate(-43.429 -62.145)"/>
          <path id="Trazado_893081" data-name="Trazado 893081" d="M195.945,116.805a2.829,2.829,0,1,1-2.828-2.828A2.828,2.828,0,0,1,195.945,116.805Z" transform="translate(-34.966 -20.943)" fill="none" stroke="#000" stroke-miterlimit="10" stroke-width="1"/>
          <path id="Trazado_893082" data-name="Trazado 893082" d="M165.66,120.019l1.087,23.075q.136,2.9.273,5.795a26.329,26.329,0,0,0,.415,5.227,5.15,5.15,0,0,0,2.776,3.233c1.588.868,3.245,1.626,4.865,2.431l5.2,2.583a34.33,34.33,0,0,0,4.845,2.231c3.5,1.1,6.793-.835,9.819-2.4q2.414-1.248,4.777-2.595a24.323,24.323,0,0,0,4.332-2.741,6.257,6.257,0,0,0,1.78-4.1c.244-1.876.451-3.756.676-5.634q1.363-11.377,2.731-22.752.169-1.412.337-2.822c.062-.521-.755-.517-.816,0q-1.3,10.931-2.623,21.862-.326,2.711-.65,5.421a40.464,40.464,0,0,1-.71,5.224,4.316,4.316,0,0,1-1.119,2.051,9.819,9.819,0,0,1-1.919,1.366q-2.29,1.371-4.635,2.65-2.3,1.254-4.651,2.417a12.367,12.367,0,0,1-4.9,1.589,10.259,10.259,0,0,1-4.849-1.475l-4.928-2.448-5.02-2.493c-1.326-.659-3.01-1.255-3.925-2.487-.987-1.329-.842-3.249-.917-4.815q-.129-2.745-.258-5.489-.523-11.079-1.045-22.16-.064-1.371-.129-2.744c-.024-.523-.841-.526-.816,0" transform="translate(-30.44 -21.981)"/>
          <path id="Trazado_893083" data-name="Trazado 893083" d="M162.551,105.786c-.111,2.927-.525,5.941-.1,8.858a2.371,2.371,0,0,0,.983,1.838,13.858,13.858,0,0,0,2.036,1.056,146.532,146.532,0,0,0,15.657,5.757c1.97.634,3.956,1.3,5.981,1.749a3.547,3.547,0,0,0,1.338.1c.666-.1,1.323-.264,1.976-.425,5.156-1.274,10.249-2.858,15.313-4.453,2.029-.639,4.064-1.274,6.061-2.009a5.179,5.179,0,0,0,1.26-.534c.656-.479.584-1.581.568-2.29q-.049-2.115-.1-4.23-.049-2.014-.1-4.028a.408.408,0,0,0-.816,0q.1,4.028.193,8.056a3.87,3.87,0,0,1-.189,1.775c-.069.149.091-.023-.05.062a2.043,2.043,0,0,1-.446.2c-1.724.684-3.51,1.228-5.275,1.793-5.066,1.619-10.163,3.175-15.306,4.532-.834.22-1.671.437-2.515.618-.263.056-.527.113-.793.149.109-.015-.108.012-.151.013a2.082,2.082,0,0,1-.226-.009c.059,0-.119-.02-.212-.038-.142-.027-.284-.058-.425-.091-.358-.082-.715-.175-1.07-.273-1-.272-2-.571-2.987-.878-5.262-1.631-10.507-3.422-15.6-5.525-.908-.375-1.812-.762-2.689-1.2-.3-.152-.6-.309-.888-.489a1.345,1.345,0,0,1-.441-.341c.051.063-.063-.109-.078-.144a2.3,2.3,0,0,1-.085-.253,5.347,5.347,0,0,1-.148-.769,18.127,18.127,0,0,1-.11-2.147c-.011-1.587.072-3.174.162-4.757.031-.555.066-1.11.087-1.666.02-.526-.8-.525-.816,0" transform="translate(-29.816 -19.366)"/>
          <path id="Trazado_893084" data-name="Trazado 893084" d="M165.486,105.562q-.1,2.792-.2,5.582c-.026.726-.215,1.671.255,2.3a3.257,3.257,0,0,0,1.441.837q2.238.964,4.524,1.8c4.5,1.659,9.087,3.106,13.645,4.6l2.534.834a2.4,2.4,0,0,0,.783.189,6.037,6.037,0,0,0,1.168-.18c1.426-.3,2.832-.7,4.234-1.094,3.849-1.083,7.673-2.259,11.5-3.423,1.4-.427,2.8-.858,4.212-1.266.456-.132,1.24-.217,1.537-.6a1.372,1.372,0,0,0,.18-.9c-.007-.473-.017-.946-.025-1.419l-.051-2.838-.051-2.838a.408.408,0,0,0-.816,0q.048,2.686.1,5.373.012.659.024,1.317c.006.34.094.716-.266.883a3.8,3.8,0,0,1-.542.15c-1.249.355-2.491.738-3.734,1.115-3.651,1.108-7.3,2.23-10.966,3.285-1.526.44-3.056.875-4.6,1.251-.489.119-.981.235-1.477.319a3.57,3.57,0,0,1-.394.048.751.751,0,0,1-.135,0c-.039,0,.113.023.035,0-.166-.041-.329-.109-.491-.162-4.82-1.589-9.661-3.125-14.448-4.815-1.539-.544-3.07-1.111-4.582-1.726-.771-.313-1.584-.6-2.324-.98a.905.905,0,0,1-.486-.981c.008-.463.033-.926.049-1.388q.047-1.3.092-2.592.049-1.346.1-2.691c.019-.526-.8-.525-.816,0" transform="translate(-30.361 -19.325)"/>
          <path id="Trazado_893085" data-name="Trazado 893085" d="M89.4,116.805a2.829,2.829,0,1,0,2.828-2.828A2.828,2.828,0,0,0,89.4,116.805Z" transform="translate(-16.427 -20.943)" fill="none" stroke="#000" stroke-miterlimit="10" stroke-width="1"/>
          <path id="Trazado_893086" data-name="Trazado 893086" d="M110.253,120.019q-.522,11.081-1.044,22.16-.13,2.744-.259,5.489c-.083,1.772-.075,3.577-.282,5.339a4.578,4.578,0,0,1-.764,2.22,5.231,5.231,0,0,1-1.729,1.377c-1.546.858-3.169,1.592-4.752,2.379L96.5,161.432a44.446,44.446,0,0,1-4.767,2.261,7.284,7.284,0,0,1-5.055-.095,38.093,38.093,0,0,1-4.733-2.242q-2.369-1.23-4.687-2.556-1.137-.651-2.262-1.324a9.843,9.843,0,0,1-1.919-1.366c-1.213-1.2-1.314-2.959-1.5-4.556q-.324-2.716-.65-5.431-1.31-10.925-2.623-21.849-.162-1.36-.324-2.721c-.062-.515-.879-.522-.816,0q1.357,11.383,2.731,22.764l.686,5.727a19.65,19.65,0,0,0,.853,5.022,6.919,6.919,0,0,0,3.238,3.166q2.334,1.395,4.722,2.692c1.615.877,3.247,1.729,4.9,2.53a12.428,12.428,0,0,0,4.9,1.5,10.14,10.14,0,0,0,4.765-1.342c1.721-.843,3.434-1.7,5.151-2.557l5.111-2.539a13,13,0,0,0,4.091-2.485,6.587,6.587,0,0,0,1.275-4.29q.141-2.9.273-5.795l1.087-23.075q.066-1.423.134-2.846c.024-.525-.792-.524-.816,0" transform="translate(-12.339 -21.981)"/>
          <path id="Trazado_893087" data-name="Trazado 893087" d="M111.68,105.786c.051,1.363.155,2.724.207,4.087a25.245,25.245,0,0,1-.09,4.64,3.889,3.889,0,0,1-.165.74.982.982,0,0,1-.17.32,2.062,2.062,0,0,1-.5.358,20.378,20.378,0,0,1-2.306,1.132,158.506,158.506,0,0,1-15.738,5.7,47.854,47.854,0,0,1-5.5,1.562,2.349,2.349,0,0,1-1-.038c-.8-.153-1.59-.358-2.378-.561-5.216-1.348-10.379-2.934-15.51-4.568C66.672,118.57,64.808,118,63,117.293c-.248-.1-.246-.105-.487-.209-.093-.04-.107-.1-.048-.018a2.583,2.583,0,0,1-.229-1.57c.044-2.214-.007-4.428-.022-6.641-.007-1.023-.009-2.046.015-3.069a.408.408,0,0,0-.816,0c-.052,2.286,0,4.574.019,6.861.007,1.1-.03,2.21-.019,3.313.006.589.07,1.424.614,1.787a6.7,6.7,0,0,0,1.419.58c.907.328,1.824.633,2.74.935,5.314,1.745,10.677,3.37,16.074,4.838.986.269,1.974.531,2.969.765a9.038,9.038,0,0,0,1.74.322,5.842,5.842,0,0,0,1.548-.28c.979-.248,1.949-.536,2.916-.831,5.506-1.675,10.993-3.548,16.313-5.749.977-.4,1.953-.817,2.9-1.3a4.72,4.72,0,0,0,1.455-.947,2.675,2.675,0,0,0,.484-1.353,16.054,16.054,0,0,0,.158-2.168c.029-1.67-.058-3.34-.152-5.007-.033-.589-.071-1.179-.093-1.77-.02-.523-.837-.526-.816,0" transform="translate(-11.281 -19.366)"/>
          <path id="Trazado_893088" data-name="Trazado 893088" d="M109.938,105.562l.2,5.482c.016.453.062.918.043,1.371-.021.511-.253.7-.7.891q-.628.267-1.256.532c-1.5.633-3.024,1.214-4.557,1.766-4.761,1.716-9.593,3.241-14.4,4.823l-1.219.4a2.03,2.03,0,0,1-.227.072s.111-.01.028-.007a2.343,2.343,0,0,1-.338-.023c-.485-.069-.965-.184-1.441-.3-1.578-.376-3.141-.822-4.7-1.27-3.79-1.09-7.558-2.25-11.331-3.4-1.236-.375-2.469-.757-3.713-1.1-.359-.1-.576-.155-.57-.617.009-.66.009-1.319.007-1.979,0-1.486-.022-2.973-.024-4.459,0-.669,0-1.337.012-2.006a.408.408,0,0,0-.816,0c-.025,1.478-.01,2.957,0,4.435.006.781.011,1.561.012,2.342,0,.689-.06,1.4-.011,2.086.06.819.877.9,1.513,1.082.608.174,1.215.356,1.82.538,3.8,1.143,7.594,2.319,11.4,3.435,1.772.519,3.547,1.033,5.337,1.49.6.153,1.193.3,1.8.42a4.041,4.041,0,0,0,1.081.135,8.263,8.263,0,0,0,1.779-.553l2.516-.828q2.138-.7,4.277-1.408c2.2-.727,4.4-1.456,6.585-2.228,1.645-.581,3.279-1.19,4.891-1.855q.583-.24,1.161-.489a4.262,4.262,0,0,0,1.518-.8c.537-.575.369-1.49.344-2.2q-.051-1.446-.1-2.891l-.1-2.89c-.019-.524-.835-.526-.816,0" transform="translate(-11.929 -19.325)"/>
          <path id="Trazado_893089" data-name="Trazado 893089" d="M57.916,291.51a32.529,32.529,0,0,0,11.84,4.59c2.241.453,4.51.773,6.767,1.134,2.374.38,4.749.752,7.132,1.074,4.806.651,9.646,1.066,14.479,1.454s9.689.7,14.541.908c9.788.427,19.579.325,29.374.2,4.4-.058,8.8-.153,13.2-.47s8.75-.8,13.093-1.459a133.6,133.6,0,0,0,25.358-6.262q1.491-.539,2.965-1.122c.483-.19.273-.98-.216-.787a127.336,127.336,0,0,1-24.967,6.838,166.233,166.233,0,0,1-25.951,2.4c-9.667.148-19.344.314-29.009,0-9.634-.318-19.275-.983-28.859-2.017-4.82-.52-9.6-1.331-14.386-2.092a41.468,41.468,0,0,1-12.187-3.474,24.914,24.914,0,0,1-2.756-1.611c-.437-.295-.846.412-.412.7" transform="translate(-10.608 -53.423)"/>
          <path id="Trazado_893090" data-name="Trazado 893090" d="M57.916,296.067a33.622,33.622,0,0,0,11.806,4.725c4.611.993,9.343,1.566,14.023,2.127,9.633,1.155,19.337,1.89,29.03,2.311,9.788.424,19.58.319,29.374.191,4.4-.058,8.793-.156,13.184-.476q6.526-.474,13-1.453a133.53,133.53,0,0,0,25.358-6.262q1.491-.539,2.965-1.122c.483-.19.273-.98-.216-.787a127.28,127.28,0,0,1-24.876,6.822,166.258,166.258,0,0,1-25.866,2.415c-9.657.157-19.327.318-28.982,0-9.639-.312-19.268-1.009-28.861-2q-7.274-.752-14.5-1.927A41.368,41.368,0,0,1,61.1,297a26.656,26.656,0,0,1-2.767-1.633c-.437-.295-.846.412-.412.7" transform="translate(-10.608 -54.26)"/>
          <path id="Trazado_893091" data-name="Trazado 893091" d="M52.925,106.072q14.381-.377,28.766-.584,14.281-.2,28.563-.217t28.586.175q14.271.189,28.539.588,14.363.4,28.72,1.024,1.779.077,3.558.158c.525.024.524-.793,0-.816q-14.372-.649-28.751-1.079-14.275-.426-28.555-.64t-28.586-.224q-14.273-.011-28.546.17-14.368.18-28.734.54l-3.56.091a.408.408,0,0,0,0,.816" transform="translate(-9.653 -19.194)"/>
          <path id="Trazado_893092" data-name="Trazado 893092" d="M53.133,101.264q14.378-.691,28.768-1.039t28.757-.348q14.323,0,28.645.34t28.636,1.024q14.375.687,28.731,1.717,1.777.127,3.553.26c.524.038.522-.778,0-.816q-14.355-1.073-28.731-1.8-14.361-.728-28.737-1.113-14.319-.382-28.644-.422t-28.654.264q-14.388.3-28.766.953-1.78.08-3.559.166c-.523.025-.526.842,0,.816" transform="translate(-9.691 -18.202)"/>
          <path id="Trazado_893093" data-name="Trazado 893093" d="M80.77,169.6q1.33,10.189,2.323,20.419.994,10.279,1.645,20.587.644,10.255.946,20.529.3,10.321.26,20.65-.044,10.276-.433,20.547-.049,1.309-.1,2.617c-.021.526.8.524.816,0q.431-10.266.521-20.544.088-10.326-.171-20.651-.258-10.274-.86-20.534-.6-10.309-1.556-20.593Q83.209,182.4,81.919,172.2q-.164-1.3-.333-2.6c-.068-.513-.884-.52-.816,0" transform="translate(-14.841 -31.094)"/>
          <path id="Trazado_893094" data-name="Trazado 893094" d="M76.857,167.093Q78.2,177.4,79.244,187.745q1.052,10.488,1.782,21.005.736,10.614,1.127,21.249.386,10.542.407,21.092.016,10.414-.362,20.826-.048,1.287-.1,2.574c-.022.525.794.524.816,0q.436-10.384.461-20.778.033-10.537-.313-21.07-.344-10.634-1.041-21.253-.688-10.53-1.7-21.034-1-10.372-2.313-20.708-.163-1.278-.33-2.556c-.067-.513-.884-.52-.816,0" transform="translate(-14.122 -30.632)"/>
          <path id="Trazado_893095" data-name="Trazado 893095" d="M115.392,164.761q.18,10.794.144,21.591-.038,10.836-.292,21.669-.257,10.913-.74,21.82-.48,10.831-1.189,21.65-.709,10.787-1.659,21.555-.116,1.319-.238,2.637c-.047.523.769.52.816,0q.982-10.75,1.717-21.522.74-10.809,1.246-21.633.512-10.9.8-21.818.283-10.839.346-21.682.064-10.81-.09-21.62-.018-1.324-.041-2.648a.408.408,0,0,0-.816,0" transform="translate(-20.473 -30.203)"/>
          <path id="Trazado_893096" data-name="Trazado 893096" d="M111.844,166.275q.179,10.735.141,21.472-.039,10.689-.3,21.375-.26,10.737-.745,21.467-.484,10.678-1.194,21.343-.714,10.713-1.662,21.409-.116,1.311-.236,2.623c-.048.522.769.519.816,0q.976-10.692,1.719-21.4.74-10.663,1.25-21.34.514-10.728.8-21.465.287-10.685.351-21.374.066-10.737-.087-21.474-.018-1.316-.041-2.632a.408.408,0,0,0-.816,0" transform="translate(-19.817 -30.481)"/>
          <path id="Trazado_893097" data-name="Trazado 893097" d="M204.516,168.619q-1.341,10.264-2.33,20.57-.994,10.359-1.64,20.748Q199.9,220.3,199.6,230.67q-.3,10.408-.259,20.822.044,10.361.435,20.715.049,1.283.1,2.565c.022.523.838.526.816,0q-.435-10.342-.522-20.7-.087-10.407.173-20.813.258-10.375.86-20.737.6-10.394,1.553-20.765.946-10.317,2.245-20.6.16-1.273.327-2.546c.068-.519-.749-.514-.816,0" transform="translate(-36.628 -30.913)"/>
          <path id="Trazado_893098" data-name="Trazado 893098" d="M208.3,167.093q-1.342,10.27-2.388,20.576-1.058,10.452-1.8,20.933-.733,10.463-1.128,20.947-.391,10.452-.415,20.913-.02,10.418.36,20.832.047,1.261.1,2.523c.022.523.838.527.816,0q-.433-10.345-.458-20.7-.031-10.5.323-21t1.044-20.95q.692-10.441,1.708-20.857,1.01-10.373,2.327-20.713.159-1.253.323-2.505c.068-.519-.749-.514-.816,0" transform="translate(-37.224 -30.632)"/>
          <path id="Trazado_893099" data-name="Trazado 893099" d="M170.132,165.13q-.18,10.816-.144,21.634.038,10.885.293,21.765.257,10.972.74,21.936.48,10.882,1.189,21.751.705,10.763,1.651,21.509.12,1.355.244,2.712c.047.519.864.524.816,0q-.983-10.772-1.717-21.564-.741-10.858-1.246-21.73-.512-10.962-.8-21.933-.283-10.89-.346-21.782-.064-10.787.088-21.573.02-1.361.042-2.723a.408.408,0,0,0-.816,0" transform="translate(-31.235 -30.27)"/>
          <path id="Trazado_893100" data-name="Trazado 893100" d="M174.47,167.091q-.179,10.737-.207,21.474-.022,10.69.14,21.379.168,10.739.554,21.473.391,10.679,1.03,21.347.649,10.716,1.582,21.411.115,1.311.235,2.622c.047.519.864.524.816,0q-.976-10.69-1.654-21.4-.68-10.664-1.093-21.344-.422-10.732-.611-21.47-.192-10.689-.187-21.379,0-10.739.168-21.476.02-1.316.042-2.632a.408.408,0,0,0-.816,0" transform="translate(-32.02 -30.631)"/>
          <path id="Trazado_893101" data-name="Trazado 893101" d="M238.179,352.507l4.405.25c.525.03.522-.786,0-.816l-4.405-.25c-.525-.029-.523.787,0,.816" transform="translate(-43.693 -64.624)"/>
          <path id="Trazado_893102" data-name="Trazado 893102" d="M237.629,349.279a86.338,86.338,0,0,0,8.923.244.408.408,0,0,0,0-.816,86.338,86.338,0,0,1-8.923-.244c-.524-.042-.521.775,0,.816" transform="translate(-43.593 -64.03)"/>
          <path id="Trazado_893103" data-name="Trazado 893103" d="M278.429,346.922l4.072-.766a.408.408,0,1,0-.217-.787l-4.072.766a.412.412,0,0,0-.285.5.417.417,0,0,0,.5.285" transform="translate(-51.067 -63.46)"/>
          <path id="Trazado_893104" data-name="Trazado 893104" d="M280.529,349.37l2.259-.238a.418.418,0,0,0,.408-.408.413.413,0,0,0-.408-.408l-2.259.238a.418.418,0,0,0-.408.408.413.413,0,0,0,.408.408" transform="translate(-51.473 -64.003)"/>
          <path id="Trazado_893105" data-name="Trazado 893105" d="M41.212,352.885a29.187,29.187,0,0,0,5.306-.166.421.421,0,0,0,.408-.408.41.41,0,0,0-.408-.408,29.184,29.184,0,0,1-5.306.166c-.525-.031-.523.785,0,.816" transform="translate(-7.5 -64.662)"/>
          <path id="Trazado_893106" data-name="Trazado 893106" d="M44.392,350.553H47.1a.408.408,0,0,0,0-.816H44.392a.408.408,0,0,0,0,.816" transform="translate(-8.082 -64.265)"/>
          <path id="Trazado_893107" data-name="Trazado 893107" d="M2.343,346.954l6.212,1.029c.514.085.735-.7.217-.787L2.56,346.168c-.514-.086-.735.7-.217.787" transform="translate(-0.376 -63.608)"/>
          <path id="Trazado_893108" data-name="Trazado 893108" d="M2.334,344.363l3.836.705a.42.42,0,0,0,.5-.286.411.411,0,0,0-.285-.5l-3.836-.7a.419.419,0,0,0-.5.285.411.411,0,0,0,.285.5" transform="translate(-0.374 -63.131)"/>
          <path id="Trazado_893109" data-name="Trazado 893109" d="M228.954,196.277q3.2-12.784,7.438-25.276,1.211-3.565,2.505-7.1c.181-.494-.607-.707-.787-.216q-4.526,12.376-8.031,25.094-1,3.629-1.912,7.283a.408.408,0,0,0,.787.217" transform="translate(-41.923 -30.026)"/>
          <path id="Trazado_893110" data-name="Trazado 893110" d="M229.738,188.483a164.172,164.172,0,0,1,5.349-29.407q1.134-4.075,2.476-8.087c.167-.5-.621-.713-.787-.217a164.771,164.771,0,0,0-6.891,29.3q-.588,4.195-.963,8.415c-.047.523.77.52.816,0" transform="translate(-42.064 -27.653)"/>
          <path id="Trazado_893111" data-name="Trazado 893111" d="M48.463,169.978a74.686,74.686,0,0,1,6.088,19.783q.469,2.916.7,5.864c.042.52.859.525.816,0a75.386,75.386,0,0,0-4.588-20.593q-1.048-2.777-2.31-5.466c-.222-.475-.926-.061-.7.411" transform="translate(-8.897 -31.119)"/>
          <path id="Trazado_893112" data-name="Trazado 893112" d="M38.229,166.83a82.733,82.733,0,0,1,13.191,23.26,62.114,62.114,0,0,1,2.063,7.118c.115.512.9.3.786-.217a73.81,73.81,0,0,0-11.018-24.64c-1.4-2.09-2.89-4.12-4.445-6.1-.325-.412-.9.169-.577.577" transform="translate(-7.007 -30.523)"/>
          <path id="Trazado_893113" data-name="Trazado 893113" d="M205.4,45.244a189.313,189.313,0,0,1,18.693,7.678c.472.224.886-.479.412-.7a191.327,191.327,0,0,0-18.888-7.76c-.5-.174-.711.615-.217.787" transform="translate(-37.691 -8.165)"/>
          <path id="Trazado_893114" data-name="Trazado 893114" d="M231.378,56.3l5.288,2.375a.422.422,0,0,0,.558-.147.411.411,0,0,0-.146-.558L231.79,55.6a.421.421,0,0,0-.558.146.41.41,0,0,0,.146.558" transform="translate(-42.479 -10.208)"/>
          <path id="Trazado_893115" data-name="Trazado 893115" d="M160.606,11.311l5.574,1.507a.409.409,0,0,0,.216-.788l-5.573-1.506a.408.408,0,0,0-.217.787" transform="translate(-29.458 -1.931)"/>
          <path id="Trazado_893116" data-name="Trazado 893116" d="M165.764,9.5l3.465.754a.418.418,0,0,0,.5-.285.413.413,0,0,0-.286-.5l-3.464-.754a.417.417,0,0,0-.5.285.412.412,0,0,0,.285.5" transform="translate(-30.405 -1.599)"/>
          <path id="Trazado_893117" data-name="Trazado 893117" d="M115.454,14.978a31.79,31.79,0,0,1,7.941-2.694c.514-.1.3-.889-.217-.787a32.54,32.54,0,0,0-8.136,2.776c-.47.233-.057.937.412.7" transform="translate(-21.101 -2.111)"/>
          <path id="Trazado_893118" data-name="Trazado 893118" d="M118.732,10.215,124,8.706a.408.408,0,0,0-.217-.787l-5.272,1.509a.408.408,0,0,0,.217.787" transform="translate(-21.725 -1.452)"/>
          <path id="Trazado_893119" data-name="Trazado 893119" d="M185.408,55.032q-.238,3.963-.769,7.9c-.07.514.717.736.787.217q.55-4.043.8-8.118c.032-.525-.785-.523-.816,0" transform="translate(-33.927 -10.04)"/>
          <path id="Trazado_893120" data-name="Trazado 893120" d="M184.241,67.666l-.3,1.356a.408.408,0,1,0,.787.217l.3-1.356a.408.408,0,0,0-.787-.217" transform="translate(-33.797 -12.379)"/>
          <path id="Trazado_893121" data-name="Trazado 893121" d="M195.538,169.294a40.4,40.4,0,0,0,7.442-3.583c.446-.275.038-.981-.411-.705a39.433,39.433,0,0,1-7.247,3.5c-.49.177-.278.966.217.787" transform="translate(-35.839 -30.309)"/>
          <path id="Trazado_893122" data-name="Trazado 893122" d="M207.046,163.808l2.255-1.214a.412.412,0,0,0,.146-.558.418.418,0,0,0-.558-.147l-2.255,1.215a.412.412,0,0,0-.146.558.417.417,0,0,0,.558.146" transform="translate(-37.932 -29.738)"/>
          <path id="Trazado_893123" data-name="Trazado 893123" d="M193.117,116.9a1.062,1.062,0,0,0,.115-.023c-.026.01-.1.011-.027,0l.059,0a1.44,1.44,0,0,1,.222.007c.033,0,.082.023-.027,0l.047.008c.038.007.077.016.114.026s.075.021.112.034l.055.02c.047.016-.1-.044-.021-.009a1.816,1.816,0,0,1,.2.106c.033.02.065.044.1.066s-.08-.067-.018-.013l.036.03a1.664,1.664,0,0,1,.162.168c.035.042-.013-.014-.02-.027.009.016.023.032.033.048a1.238,1.238,0,0,1,.068.11.413.413,0,0,0,.558.146.417.417,0,0,0,.147-.558,1.962,1.962,0,0,0-2.126-.924.411.411,0,0,0-.285.5.417.417,0,0,0,.5.285" transform="translate(-35.39 -21.326)"/>
          <path id="Trazado_893124" data-name="Trazado 893124" d="M143.29,116.164c.032-.009.064-.016.1-.023s.119-.02.044-.009-.006,0,.011,0l.044,0c.033,0,.066,0,.1,0s.066,0,.1.006a.325.325,0,0,1,.044,0s-.105-.016-.043,0a1.581,1.581,0,0,1,.193.045c.029.008.056.018.084.028s.078.032.013,0-.011,0,0,0a1.6,1.6,0,0,1,.165.089l.082.055c.042.028-.068-.055-.03-.024l.042.036a1.516,1.516,0,0,1,.14.14.41.41,0,0,0,.577,0,.418.418,0,0,0,0-.577,1.888,1.888,0,0,0-1.88-.555.408.408,0,0,0,.217.787" transform="translate(-26.234 -21.189)"/>
          <path id="Trazado_893125" data-name="Trazado 893125" d="M143.292,165.257c.046-.014.092-.025.139-.035.014,0,.107-.021.035-.007s.007,0,.023,0a1.376,1.376,0,0,1,.142,0,.559.559,0,0,0,.141.01l-.044-.007.038.007.064.013a1.364,1.364,0,0,1,.137.037l.062.02c.022.008.082.049.036.012s0,0,.023.011l.07.035c.038.02.076.042.113.065l.065.042.032.023c.024.018.014.01-.031-.024,0,0,.19.175.207.194s.028.034.042.05c.034.035-.05-.072-.008-.011.027.039.054.078.078.118s.045.083.066.126c.041.081-.029-.087,0,0,.008.024.018.049.025.073a.409.409,0,0,0,.788-.217,2.046,2.046,0,0,0-2.459-1.316.408.408,0,0,0,.217.787" transform="translate(-26.235 -30.208)"/>
          <path id="Trazado_893126" data-name="Trazado 893126" d="M143.36,213.977a1.591,1.591,0,0,1,.233,0c.08.007-.1-.02-.025,0l.052.01c.038.008.076.018.113.029s.074.024.111.038c.077.029-.029-.014-.029-.013l.058.027a1.612,1.612,0,0,1,.2.12c.013.009.066.049.01.006s0,0,.009.008c.033.027.064.056.095.085s.05.051.073.078l.041.048c.047.055-.055-.079-.012-.015a1.646,1.646,0,0,1,.115.189c.008.016.016.032.023.048.034.069-.033-.088-.008-.02.015.04.028.08.039.121a.408.408,0,1,0,.788-.216,1.9,1.9,0,0,0-1.886-1.362.408.408,0,0,0,0,.816" transform="translate(-26.268 -39.168)"/>
          <path id="Trazado_893127" data-name="Trazado 893127" d="M143.453,263.188c.051.015.1.033.151.051.07.025-.058-.027-.012-.006l.073.033a2.028,2.028,0,0,1,.251.147l.054.038c.071.049-.06-.051,0,0,.041.034.081.069.119.105a2.219,2.219,0,0,1,.2.214c.047.058-.035-.05-.007-.009.015.022.031.043.046.065.028.04.053.082.078.123s.047.085.069.128l.033.072c.023.046-.032-.082,0-.012a2.195,2.195,0,0,1,.088.278c.012.051.015.107.03.156l-.007-.056c0,.018,0,.035.006.053s0,.053.007.079a.408.408,0,0,0,.816,0,2.522,2.522,0,0,0-1.772-2.247.411.411,0,0,0-.5.285.417.417,0,0,0,.285.5" transform="translate(-26.305 -48.214)"/>
          <path id="Trazado_893128" data-name="Trazado 893128" d="M142.818,312.432l.056-.028c.064-.032-.094.033-.022.01.033-.01.064-.021.1-.029l.06-.014c.038-.007.094,0-.028,0,.033,0,.068-.007.1-.007a1.224,1.224,0,0,1,.122,0c.018,0,.082.01.007,0s-.011,0,.007,0a1.468,1.468,0,0,1,.228.063c.064.022-.011,0-.031-.014a.5.5,0,0,0,.056.026c.033.017.066.036.1.056s.061.045.094.064l-.051-.039.031.027.038.033c.027.026.053.053.078.081s.047.082-.013-.019c.009.014.02.027.029.041.021.031.04.064.058.1a.583.583,0,0,0,.027.055l-.025-.06.015.038a.408.408,0,1,0,.787-.217,1.6,1.6,0,0,0-.955-.948,1.555,1.555,0,0,0-1.276.074.411.411,0,0,0-.146.558.417.417,0,0,0,.558.146" transform="translate(-26.13 -57.248)"/>
          <path id="Trazado_893129" data-name="Trazado 893129" d="M212.488,311.123a108.709,108.709,0,0,0,11.925-2.771.408.408,0,0,0-.217-.787,108.652,108.652,0,0,1-11.925,2.771c-.517.09-.3.876.217.787" transform="translate(-38.951 -56.512)"/>
          <path id="Trazado_893130" data-name="Trazado 893130" d="M218.5,306.715l7.3-1.448c.515-.1.3-.889-.217-.787l-7.3,1.448c-.515.1-.3.889.217.787" transform="translate(-40.056 -55.947)"/>
          <path id="Trazado_893131" data-name="Trazado 893131" d="M58.57,305.97a32.975,32.975,0,0,0,17.278,5.546c.526.016.525-.8,0-.816a32.175,32.175,0,0,1-16.865-5.434c-.438-.294-.846.413-.412.7" transform="translate(-10.728 -56.08)"/>
          <path id="Trazado_893132" data-name="Trazado 893132" d="M58.709,301.242a51.03,51.03,0,0,0,10.581,3.992.408.408,0,0,0,.217-.787,50.121,50.121,0,0,1-10.387-3.91c-.467-.238-.881.465-.411.7" transform="translate(-10.75 -55.215)"/>
          <path id="Trazado_893133" data-name="Trazado 893133" d="M277.073,305.2l5.875-.234c.524-.021.526-.837,0-.816l-5.875.234c-.523.021-.526.837,0,.816" transform="translate(-50.84 -55.889)"/>
          <path id="Trazado_893134" data-name="Trazado 893134" d="M280.535,302.383h3.276a.408.408,0,0,0,0-.816h-3.276a.408.408,0,0,0,0,.816" transform="translate(-51.476 -55.413)"/>
          <path id="Trazado_893135" data-name="Trazado 893135" d="M234.719,287.741l5.2-.465c.519-.046.524-.864,0-.816l-5.2.465c-.519.047-.524.864,0,.816" transform="translate(-43.058 -52.637)"/>
          <path id="Trazado_893136" data-name="Trazado 893136" d="M235.27,291.133l5.991-.647c.517-.056.522-.873,0-.816l-5.991.647c-.517.056-.522.873,0,.816" transform="translate(-43.16 -53.227)"/>
          <path id="Trazado_893137" data-name="Trazado 893137" d="M40.751,296.839l7.381.273c.526.02.526-.8,0-.816l-7.381-.273c-.526-.02-.526.8,0,.816" transform="translate(-7.416 -54.395)"/>
          <path id="Trazado_893138" data-name="Trazado 893138" d="M44.627,294.338l4.218.032a.408.408,0,0,0,0-.816l-4.218-.032a.408.408,0,0,0,0,.816" transform="translate(-8.128 -53.935)"/>
          <path id="Trazado_893139" data-name="Trazado 893139" d="M.772,280.061a23.978,23.978,0,0,0,5.684.286c.521-.037.525-.853,0-.816a23.052,23.052,0,0,1-5.467-.256c-.514-.087-.735.7-.217.787" transform="translate(-0.088 -51.316)"/>
          <path id="Trazado_893140" data-name="Trazado 893140" d="M.512,277.3l3.915.325a.411.411,0,0,0,.408-.408.416.416,0,0,0-.408-.408l-3.915-.325a.408.408,0,0,0,0,.816" transform="translate(-0.019 -50.805)"/>
          <path id="Trazado_893141" data-name="Trazado 893141" d="M258.41,99.555l2.654,10.86c.125.51.913.294.788-.217q-1.328-5.43-2.655-10.86c-.124-.51-.912-.294-.787.217" transform="translate(-47.481 -18.2)"/>
          <path id="Trazado_893142" data-name="Trazado 893142" d="M263.023,117.572q.708,3.156,1.415,6.314c.114.513.9.3.787-.217l-1.415-6.314c-.114-.513-.9-.3-.787.217" transform="translate(-48.329 -21.51)"/>
          <path id="Trazado_893143" data-name="Trazado 893143" d="M44.838,58.8a112.655,112.655,0,0,1,13.367-6.476c.481-.2.271-.984-.216-.787a114.241,114.241,0,0,0-13.563,6.559.408.408,0,0,0,.412.7" transform="translate(-8.127 -9.464)"/>
          <path id="Trazado_893144" data-name="Trazado 893144" d="M65.148,50.674,69.217,49.1a.419.419,0,0,0,.285-.5.411.411,0,0,0-.5-.285l-4.069,1.578a.42.42,0,0,0-.285.5.411.411,0,0,0,.5.285" transform="translate(-11.876 -8.873)"/>
          <path id="Trazado_893145" data-name="Trazado 893145" d="M104.009,166.25l6.05-3.283c.462-.251.051-.956-.411-.7l-6.051,3.283c-.462.251-.05.955.412.7" transform="translate(-18.999 -29.806)"/>
          <path id="Trazado_893146" data-name="Trazado 893146" d="M113.471,161.172l1.256-.714a.411.411,0,0,0,.146-.558.416.416,0,0,0-.558-.146l-.826.448a.412.412,0,0,0-.147.558.418.418,0,0,0,.559.147l.826-.449q-.206-.353-.412-.7l-1.256.714a.408.408,0,0,0,.412.7" transform="translate(-20.738 -29.345)"/>
          <path id="Trazado_893147" data-name="Trazado 893147" d="M505.54,23.959c-4.336-3.046-9.516-4.569-14.7-5.366A130.506,130.506,0,0,0,474.8,17.476c-6.553-.19-13.115-.189-19.663.142-2.275.115-4.538.26-6.793.591-2.229.326-4.443.769-6.632,1.3a63.945,63.945,0,0,0-7.592,2.3,28.534,28.534,0,0,0-6.273,3.126c-.428.3-.02,1.006.412.7,3.564-2.486,7.935-3.846,12.094-4.948a65.137,65.137,0,0,1,12.658-2.141c6.443-.4,12.9-.461,19.357-.322,5.435.117,10.915.229,16.318.884,5.777.7,11.619,2.161,16.442,5.548.431.3.839-.4.412-.7" transform="translate(-78.584 -3.188)"/>
          <path id="Trazado_893148" data-name="Trazado 893148" d="M503.451,18.51c-8.241-4.348-18.02-4.147-27.085-4.427-5.4-.167-10.814-.206-16.219-.041a108.738,108.738,0,0,0-13.183,1.029A56.085,56.085,0,0,0,433.1,18.777c-.48.208-.065.912.412.7a53.5,53.5,0,0,1,12.29-3.4,96.174,96.174,0,0,1,12.523-1.16c5.268-.207,10.543-.212,15.814-.086,4.72.114,9.467.2,14.173.6,5.068.438,10.19,1.383,14.728,3.778.464.245.877-.459.412-.705" transform="translate(-79.543 -2.561)"/>
          <path id="Trazado_893149" data-name="Trazado 893149" d="M506.793,21.545c-3.64-5.2-7.429-10.3-11.081-15.5a32.466,32.466,0,0,0-2.221-3.183,4.591,4.591,0,0,0-3.383-1.3C486.684,1.352,483.27,1,479.843.822,472.5.435,465.135.475,457.787.774c-1.8.073-3.608.165-5.409.285-1.776.118-3.546.318-5.32.441a9.47,9.47,0,0,0-3.841.6,7.548,7.548,0,0,0-2.385,2.825c-1.634,2.551-3.582,4.929-5.439,7.318-1.921,2.473-3.861,4.933-5.713,7.459q-.633.863-1.248,1.739c-.3.431.406.84.705.412,3.468-4.949,7.383-9.565,10.945-14.444.774-1.059,1.467-2.164,2.215-3.239a4.089,4.089,0,0,1,1.331-1.366,4.867,4.867,0,0,1,1.89-.411c3.32-.24,6.636-.535,9.961-.7,7.108-.358,14.237-.456,21.349-.192q5.338.2,10.659.7a23.7,23.7,0,0,1,4.13.406c1.264.355,1.928,1.642,2.588,2.676,1.588,2.487,3.407,4.848,5.132,7.241,1.848,2.562,3.7,5.12,5.528,7.7q.613.867,1.224,1.737c.3.427,1.006.02.7-.412" transform="translate(-78.711 -0.099)"/>
          <path id="Trazado_893150" data-name="Trazado 893150" d="M410.734,26.7a7.728,7.728,0,0,1-1.271.9c-.755.469-1.53.9-2.309,1.331-2.311,1.269-4.66,2.468-7.008,3.665-6.184,3.154-12.4,6.253-18.519,9.522-2.951,1.575-5.884,3.186-8.761,4.893a66.706,66.706,0,0,0-6.656,4.376,18.625,18.625,0,0,0-2.118,1.841,20.656,20.656,0,0,0-3.714,5.611c-2.045,4.389-2.979,9.175-4.285,13.809-.725,2.575-1.606,5.1-2.354,7.674q-1.206,4.143-2.217,8.34c-1.38,5.683-2.53,11.42-3.567,17.175s-1.954,11.5-2.873,17.26c-.948,5.944-1.9,11.887-2.777,17.843-1.761,12-3.281,24.039-4.491,36.108-1.166,11.619-2.114,23.283-2.56,34.954-.368,9.635-.331,19.288-.086,28.925.251,9.824.722,19.65,1.58,29.44q.272,3.1.607,6.184c.056.516.873.522.816,0-1.022-9.313-1.579-18.679-1.944-28.038-.386-9.935-.534-19.886-.345-29.828.2-10.819.949-21.629,1.884-32.408q1.579-18.219,4.082-36.342c1.61-11.807,3.487-23.577,5.426-35.333a290.734,290.734,0,0,1,7.252-34.064c.749-2.569,1.629-5.1,2.355-7.674.668-2.374,1.239-4.773,1.91-7.145,1.214-4.29,2.791-8.784,5.988-12.028a30.164,30.164,0,0,1,5.227-3.957c2.581-1.666,5.25-3.2,7.936-4.686,6.159-3.414,12.449-6.59,18.729-9.774,2.7-1.366,5.394-2.73,8.072-4.131,1.785-.935,3.588-1.863,5.293-2.94a7.928,7.928,0,0,0,1.276-.929c.38-.364-.2-.941-.577-.577" transform="translate(-61.553 -4.885)"/>
          <path id="Trazado_893151" data-name="Trazado 893151" d="M390.531,217.438c-.131,1.859-.289,3.715-.449,5.571q-.355,4.127-.733,8.252-.463,5.1-.935,10.2-.53,5.764-1.061,11.528-.563,6.132-1.118,12.263-.552,6.113-1.088,12.227-.507,5.795-.987,11.594-.426,5.175-.812,10.356c-.2,2.786-.4,5.573-.553,8.362-.107,1.921-.208,3.845-.223,5.77,0,.318,0,.635,0,.953a.408.408,0,0,0,.816,0c-.033-1.675.048-3.355.13-5.027.127-2.61.3-5.218.482-7.825q.348-4.948.753-9.891.457-5.67.949-11.337.527-6.1,1.076-12.19.55-6.135,1.113-12.271.539-5.877,1.082-11.756.491-5.317.977-10.637.4-4.378.787-8.759c.184-2.094.366-4.188.526-6.284q.042-.549.081-1.1c.037-.524-.78-.522-.816,0" transform="translate(-70.298 -39.882)"/>
          <path id="Trazado_893152" data-name="Trazado 893152" d="M374.137,349.927a3.721,3.721,0,0,1-.468,1.571,1.924,1.924,0,0,1-1.156.65,27.684,27.684,0,0,1-5.392.711,62.9,62.9,0,0,1-11.476-.53c-3.836-.491-7.634-1.242-11.412-2.063q-1.35-.294-2.7-.6a15.286,15.286,0,0,1-2.385-.546c-1.628-.66-1.6-2.6-1.665-4.08-.191-4.158-.755-8.317-.442-12.483l-.408.408a5.073,5.073,0,0,1,2.161.586c.749.313,1.536.533,2.312.772,1.626.5,3.263.953,4.927,1.311a81.763,81.763,0,0,0,20.879,1.684q2.583-.133,5.152-.464c.837-.109,1.669-.244,2.5-.378.429-.069.838-.108,1,.371a2.453,2.453,0,0,1,.046.979c-.287,4.056-.825,8.089-1.48,12.1-.084.514.7.735.787.217.6-3.657,1.1-7.332,1.41-11.025.091-1.09.53-3.258-1.073-3.494a3.891,3.891,0,0,0-1.195.113q-.716.12-1.435.222-1.391.2-2.791.328a77.722,77.722,0,0,1-22.024-1.121,60.156,60.156,0,0,1-5.94-1.463c-.931-.281-1.889-.535-2.788-.908a5.76,5.76,0,0,0-2.453-.647.418.418,0,0,0-.408.408c-.3,3.946.193,7.887.409,11.824.085,1.553-.047,3.391,1.029,4.655a3.491,3.491,0,0,0,2,1.077c.9.194,1.81.376,2.712.577,7.971,1.776,16.146,3.385,24.355,3q1.661-.077,3.313-.293a18.77,18.77,0,0,0,2.855-.513,2.58,2.58,0,0,0,1.4-.871,4.147,4.147,0,0,0,.627-1.873c.085-.514-.7-.735-.787-.217" transform="translate(-61.765 -61.032)"/>
          <path id="Trazado_893153" data-name="Trazado 893153" d="M375.69,341.52A71.413,71.413,0,0,1,345.06,340.5a78.532,78.532,0,0,1-8.067-2.469c-.494-.18-.707.608-.217.788a75.73,75.73,0,0,0,30.48,4.585,67.181,67.181,0,0,0,8.651-1.1c.515-.1.3-.886-.217-.787" transform="translate(-61.832 -62.109)"/>
          <circle id="Elipse_11509" data-name="Elipse 11509" cx="2.755" cy="2.755" r="2.755" transform="translate(279.044 281.02)" fill="none" stroke="#000" stroke-miterlimit="10" stroke-width="1"/>
          <path id="Trazado_893154" data-name="Trazado 893154" d="M352.942,343q.147,5.027.339,10.054c.02.523.837.526.816,0q-.191-5.026-.339-10.054c-.015-.524-.832-.526-.816,0" transform="translate(-64.854 -62.954)"/>
          <path id="Trazado_893155" data-name="Trazado 893155" d="M357.645,343.829q.148,5.178.346,10.354c.02.524.836.526.816,0q-.2-5.175-.346-10.354c-.015-.524-.832-.526-.816,0" transform="translate(-65.718 -63.107)"/>
          <path id="Trazado_893156" data-name="Trazado 893156" d="M522.437,26.077a11.483,11.483,0,0,0,2.077,1.473c1.1.661,2.241,1.261,3.385,1.844,2.928,1.49,5.918,2.861,8.916,4.2,5.115,2.29,10.278,4.477,15.442,6.655,4.387,1.851,8.842,3.574,13.053,5.815,4.174,2.222,8.367,5.041,11.277,8.832,2.778,3.618,4.094,8.1,5.248,12.447.589,2.219,1.135,4.449,1.8,6.648.776,2.565,1.623,5.1,2.352,7.685a298.251,298.251,0,0,1,6.825,32.494c1.853,11.223,3.649,22.458,5.21,33.726q2.4,17.315,4.024,34.727c.976,10.631,1.784,21.3,2.1,31.972.273,9.313.207,18.636-.06,27.948s-.734,18.606-1.555,27.876q-.261,2.948-.582,5.891c-.057.522.76.517.816,0,.979-8.924,1.529-17.9,1.9-26.864.392-9.55.558-19.114.43-28.672-.134-10.055-.739-20.094-1.538-30.118q-1.392-17.479-3.66-34.875c-1.464-11.386-3.226-22.724-5.036-34.058-1.756-11-3.542-22-6.146-32.834q-.976-4.058-2.118-8.071c-.72-2.514-1.564-4.987-2.3-7.495-1.311-4.444-2.179-9.036-3.944-13.337a23.955,23.955,0,0,0-3.209-5.7A28.49,28.49,0,0,0,572,49.352a57.54,57.54,0,0,0-12.382-6.892c-5.831-2.529-11.724-4.913-17.554-7.442-3.152-1.367-6.295-2.759-9.406-4.218a86,86,0,0,1-7.7-3.937,10.687,10.687,0,0,1-1.943-1.364c-.38-.363-.957.213-.577.577" transform="translate(-95.976 -4.664)"/>
          <path id="Trazado_893157" data-name="Trazado 893157" d="M565.437,217.41c.131,1.859.289,3.715.449,5.571q.355,4.127.733,8.252.463,5.1.935,10.2.53,5.764,1.061,11.528.563,6.132,1.118,12.263.552,6.113,1.088,12.227.507,5.795.987,11.594.426,5.175.812,10.356c.2,2.786.4,5.573.553,8.362.107,1.921.208,3.845.223,5.77,0,.318,0,.635,0,.953a.408.408,0,0,0,.816,0c.033-1.675-.048-3.355-.13-5.027-.127-2.61-.3-5.218-.482-7.825q-.348-4.948-.753-9.891-.457-5.67-.949-11.337-.526-6.1-1.076-12.19-.55-6.135-1.113-12.271-.539-5.877-1.082-11.756-.491-5.317-.977-10.637-.4-4.378-.787-8.759c-.184-2.094-.366-4.188-.526-6.284q-.042-.549-.081-1.1c-.037-.521-.853-.525-.816,0" transform="translate(-103.9 -39.877)"/>
          <path id="Trazado_893158" data-name="Trazado 893158" d="M574.76,350.116a2.943,2.943,0,0,0,1.577,2.585,9.576,9.576,0,0,0,2.227.516q1.407.227,2.828.347a59.379,59.379,0,0,0,12.352-.409c4.043-.5,8.042-1.284,12.021-2.151,1-.218,1.992-.442,2.987-.664a9.765,9.765,0,0,0,2.378-.625c1.473-.755,1.778-2.425,1.854-3.929.224-4.4.806-8.845.476-13.256a.419.419,0,0,0-.408-.408,4.852,4.852,0,0,0-2.1.5,25.452,25.452,0,0,1-2.41.836c-1.718.532-3.448,1.012-5.208,1.388a78.606,78.606,0,0,1-11.176,1.544,77.719,77.719,0,0,1-10.952-.009c-1.839-.137-3.673-.349-5.493-.651-.678-.113-1.446-.324-2,.214a2.092,2.092,0,0,0-.474,1.66,124.525,124.525,0,0,0,1.522,12.516c.084.518.871.3.787-.217-.58-3.552-1.068-7.121-1.371-10.708q-.054-.645-.1-1.292a2.724,2.724,0,0,1,.038-1.078c.149-.433.5-.451.909-.388.446.069.89.15,1.336.217q2.559.386,5.143.565a79.481,79.481,0,0,0,20.781-1.325q2.863-.562,5.652-1.4c.885-.265,1.792-.509,2.654-.845a6.17,6.17,0,0,1,2.463-.709l-.408-.408a80.614,80.614,0,0,1-.365,11.068c-.053.857-.07,1.717-.135,2.574a4.154,4.154,0,0,1-.627,2.167,3.075,3.075,0,0,1-2.092,1.033c-.879.163-1.748.375-2.622.568-7.476,1.66-15.079,3.114-22.773,2.947a36.3,36.3,0,0,1-6.351-.653,2.791,2.791,0,0,1-1.566-.642,3.267,3.267,0,0,1-.566-1.694c-.085-.517-.871-.3-.787.217" transform="translate(-105.332 -61.027)"/>
          <path id="Trazado_893159" data-name="Trazado 893159" d="M573.915,342.279a72.344,72.344,0,0,0,30.878-.97,78.459,78.459,0,0,0,8.254-2.515c.489-.179.278-.967-.217-.787a75.172,75.172,0,0,1-30.067,4.568,65.573,65.573,0,0,1-8.63-1.082c-.513-.1-.733.686-.217.787" transform="translate(-105.404 -62.104)"/>
          <circle id="Elipse_11510" data-name="Elipse 11510" cx="2.755" cy="2.755" r="2.755" transform="translate(498.033 280.997)" fill="none" stroke="#000" stroke-miterlimit="10" stroke-width="1"/>
          <path id="Trazado_893160" data-name="Trazado 893160" d="M604.741,342.97q-.147,5.027-.339,10.054c-.02.526.8.525.816,0q.191-5.026.339-10.054a.408.408,0,0,0-.816,0" transform="translate(-111.06 -62.949)"/>
          <path id="Trazado_893161" data-name="Trazado 893161" d="M600.036,343.8q-.148,5.178-.346,10.354c-.02.526.8.525.816,0q.2-5.175.346-10.354a.408.408,0,0,0-.816,0" transform="translate(-110.194 -63.102)"/>
          <path id="Trazado_893162" data-name="Trazado 893162" d="M375.535,55.863A248.507,248.507,0,0,1,383.442,83.4a246.705,246.705,0,0,1,4.672,28.25c1.046,9.855,1.493,19.766,1.621,29.674.128,9.892-.06,19.785-.287,29.675q-.342,14.918-.153,29.83c.135,9.953.388,19.9.545,29.858q.119,7.534.164,15.069c.014,2.958-.047,5.917-.018,8.875a37.239,37.239,0,0,0,.778,8.433,6.694,6.694,0,0,0,1.289,2.883,7.839,7.839,0,0,0,1.955,1.448,16.274,16.274,0,0,0,2.862,1.266,58.841,58.841,0,0,0,6.389,1.631q3.515.775,7.058,1.417,7.15,1.3,14.379,2.1c9.594,1.082,19.227,1.492,28.876,1.614,9.575.12,19.159.02,28.721-.539a235.862,235.862,0,0,0,28.552-3.3q3.5-.638,6.983-1.41a48.856,48.856,0,0,0,6.365-1.689,15.006,15.006,0,0,0,2.741-1.31,6.576,6.576,0,0,0,1.727-1.393,7.439,7.439,0,0,0,1.218-2.974,39.618,39.618,0,0,0,.721-8.456c.02-3.071-.033-6.141-.017-9.213.052-9.966.253-19.929.452-29.892s.384-19.907.336-29.861c-.047-9.913-.406-19.823-.518-29.735s-.043-19.845.492-29.751A259.667,259.667,0,0,1,534.5,96.836,248.081,248.081,0,0,1,540.845,69q1.918-6.626,4.2-13.138c.175-.5-.614-.71-.787-.217a248.095,248.095,0,0,0-12.536,55.323c-1.06,9.744-1.53,19.544-1.679,29.342-.149,9.824.024,19.65.245,29.472.223,9.875.321,19.742.2,29.619-.122,9.92-.372,19.837-.538,29.756-.137,8.187-.166,16.371-.167,24.558a43.522,43.522,0,0,1-.594,8.408,7.877,7.877,0,0,1-1.087,3.049,5.618,5.618,0,0,1-1.724,1.384,14.808,14.808,0,0,1-2.883,1.311,57.7,57.7,0,0,1-6.363,1.624q-3.478.764-6.986,1.393c-4.708.846-9.447,1.517-14.2,2.041-9.471,1.046-19,1.523-28.522,1.67-9.543.148-19.117.087-28.648-.436a227.169,227.169,0,0,1-28.825-3.351q-3.491-.645-6.957-1.417a49.291,49.291,0,0,1-6.387-1.695,13.691,13.691,0,0,1-2.757-1.363,4.684,4.684,0,0,1-1.451-1.284,8.945,8.945,0,0,1-1.066-3.248,46.489,46.489,0,0,1-.534-8.393c.009-3.3.032-6.6.008-9.9-.069-9.9-.275-19.79-.471-29.684-.2-9.918-.367-19.839-.3-29.76.068-9.877.426-19.749.523-29.626.1-9.818,0-19.642-.555-29.446a260.08,260.08,0,0,0-3.165-28.566,247.956,247.956,0,0,0-6.314-27.643q-1.917-6.626-4.2-13.138c-.172-.492-.962-.281-.787.217" transform="translate(-69.001 -10.174)"/>
          <path id="Trazado_893163" data-name="Trazado 893163" d="M533.244,290.152a32.463,32.463,0,0,1-11.964,4.592c-2.277.451-4.581.777-6.873,1.144-2.4.383-4.8.757-7.2,1.078-4.842.646-9.721,1.055-14.59,1.44q-7.332.58-14.68.9c-9.753.414-19.507.307-29.263.179-4.427-.058-8.846-.154-13.264-.473q-6.594-.475-13.139-1.464a134.742,134.742,0,0,1-25.513-6.315q-1.49-.54-2.963-1.122c-.489-.193-.7.6-.217.787a128.7,128.7,0,0,0,25.393,6.936,169.348,169.348,0,0,0,26.241,2.423c9.824.149,19.659.318,29.481-.011,9.855-.33,19.73-.992,29.53-2.095,4.809-.542,9.581-1.351,14.359-2.11a41.761,41.761,0,0,0,12.328-3.574,25.115,25.115,0,0,0,2.75-1.611c.433-.291.025-1-.412-.7" transform="translate(-72.27 -53.303)"/>
          <path id="Trazado_893164" data-name="Trazado 893164" d="M533.244,294.753a33.607,33.607,0,0,1-12.016,4.75c-4.677.979-9.465,1.565-14.208,2.123-9.688,1.14-19.442,1.875-29.188,2.285s-19.506.3-29.263.173a190.362,190.362,0,0,1-26.393-1.949,134.7,134.7,0,0,1-25.422-6.3q-1.49-.54-2.963-1.122c-.489-.193-.7.6-.217.787a128.7,128.7,0,0,0,25.393,6.936,169.249,169.249,0,0,0,26.241,2.423c9.79.149,19.592.318,29.38-.007,9.829-.327,19.651-1.038,29.431-2.072q7.261-.768,14.47-1.948a41.814,41.814,0,0,0,12.4-3.741,26.807,26.807,0,0,0,2.761-1.632c.433-.291.025-1-.412-.7" transform="translate(-72.27 -54.148)"/>
          <path id="Trazado_893165" data-name="Trazado 893165" d="M381.1,69.756c10.008-1.16,20.2-.066,30.138,1.26,10.57,1.41,21.071,3.325,31.675,4.486a126.882,126.882,0,0,0,14.771.838,161.427,161.427,0,0,0,17.331-1.1c10.4-1.2,20.659-3.311,30.992-4.961A148.417,148.417,0,0,1,538.045,68.2q2.118.122,4.231.323c.522.049.519-.768,0-.816A137.486,137.486,0,0,0,509.7,68.894c-10.308,1.491-20.508,3.654-30.832,5.046a145.657,145.657,0,0,1-32.435,1.1c-10.552-.944-20.994-2.831-31.475-4.324-10.079-1.436-20.352-2.739-30.55-2.072q-1.658.109-3.307.3c-.516.06-.522.877,0,.816" transform="translate(-69.957 -12.35)"/>
          <path id="Trazado_893166" data-name="Trazado 893166" d="M379.238,64.868c9.905-1.148,20.005-.145,29.856,1.067,10.632,1.309,21.2,3.113,31.85,4.3a140.14,140.14,0,0,0,14.4.978,158.756,158.756,0,0,0,17.737-.911c10.864-1.137,21.578-3.276,32.358-4.983,10.96-1.735,22.019-2.84,33.124-2.213q2.216.125,4.426.335c.523.049.52-.767,0-.816a142.03,142.03,0,0,0-33.536,1.266c-10.76,1.548-21.414,3.761-32.2,5.115a172.858,172.858,0,0,1-17.618,1.357,129.153,129.153,0,0,1-14.995-.564c-10.573-.989-21.055-2.768-31.577-4.166-10.073-1.338-20.331-2.546-30.506-1.876q-1.66.11-3.314.3c-.516.06-.522.877,0,.816" transform="translate(-69.614 -11.416)"/>
          <path id="Trazado_893167" data-name="Trazado 893167" d="M393.225,70.3q4.062,17.789,7.218,35.768,3.143,17.919,5.374,35.98,2.223,18.011,3.536,36.119t1.708,36.25q.4,18.193-.131,36.39-.065,2.23-.144,4.46c-.019.525.8.525.816,0q.642-18.236.356-36.488t-1.5-36.458q-1.207-18.107-3.326-36.139-2.125-18.077-5.161-36.032t-6.978-35.714q-.484-2.178-.981-4.354c-.117-.512-.9-.3-.787.217" transform="translate(-72.254 -12.824)"/>
          <path id="Trazado_893168" data-name="Trazado 893168" d="M397.76,70.3q4.062,17.789,7.218,35.768,3.143,17.919,5.374,35.98,2.224,18.011,3.536,36.119t1.708,36.25q.4,18.193-.131,36.39-.065,2.23-.144,4.46c-.019.525.8.525.816,0q.642-18.236.356-36.488t-1.5-36.458q-1.207-18.107-3.326-36.139-2.125-18.077-5.161-36.032t-6.978-35.714q-.484-2.178-.981-4.354c-.117-.512-.9-.3-.787.217" transform="translate(-73.087 -12.824)"/>
          <path id="Trazado_893169" data-name="Trazado 893169" d="M558.364,67.944q-4.086,17.888-7.29,35.963-3.2,18.053-5.518,36.249-2.341,18.371-3.765,36.841-1.409,18.329-1.884,36.712-.468,18.357.047,36.722.064,2.222.142,4.444c.018.523.834.526.816,0q-.645-18.334-.288-36.683.349-18.369,1.652-36.7,1.3-18.375,3.517-36.668t5.331-36.471q3.087-18.008,7.05-35.853.481-2.171.977-4.338c.117-.512-.67-.73-.787-.217" transform="translate(-99.167 -12.431)"/>
          <path id="Trazado_893170" data-name="Trazado 893170" d="M553.7,67.944q-4.1,17.941-7.274,36.076-3.19,18.181-5.477,36.506-2.318,18.522-3.714,37.145-1.382,18.462-1.838,36.979-.447,18.424.072,36.856.062,2.189.14,4.378c.019.524.835.526.816,0q-.644-18.341-.307-36.7.332-18.5,1.606-36.957Q539,163.651,541.2,145.156q2.189-18.428,5.291-36.734,3.066-18.078,7.034-35.988.475-2.138.962-4.273c.117-.512-.67-.73-.787-.217" transform="translate(-98.341 -12.431)"/>
          <circle id="Elipse_11511" data-name="Elipse 11511" cx="2.755" cy="2.755" r="2.755" transform="translate(332.935 250.379)" fill="none" stroke="#000" stroke-miterlimit="10" stroke-width="1"/>
          <path id="Trazado_893171" data-name="Trazado 893171" d="M399.569,301.765l1.408,2.95c.225.472.436.954.688,1.412a3.118,3.118,0,0,1,.5,1.155c.01.113.023.036-.023.113a1.248,1.248,0,0,1-.264.255,8.79,8.79,0,0,1-.721.542,13.65,13.65,0,0,0-1.357.98c-.39.354.189.93.577.578a18.344,18.344,0,0,1,1.531-1.1c.415-.305,1.046-.692,1.073-1.268a2.5,2.5,0,0,0-.38-1.249c-.249-.469-.494-.935-.722-1.415l-1.61-3.371c-.226-.473-.93-.06-.7.412" transform="translate(-73.413 -55.336)"/>
          <path id="Trazado_893172" data-name="Trazado 893172" d="M393.8,300.569l4.825,1.129c.511.12.729-.667.217-.787l-4.825-1.129c-.511-.12-.729.667-.217.787" transform="translate(-72.308 -55.083)"/>
          <path id="Trazado_893173" data-name="Trazado 893173" d="M394.423,309.8a16.485,16.485,0,0,0,4.586,1.507.421.421,0,0,0,.5-.286.412.412,0,0,0-.286-.5,15.764,15.764,0,0,1-4.39-1.424.418.418,0,0,0-.558.146.411.411,0,0,0,.146.558" transform="translate(-72.439 -56.788)"/>
          <circle id="Elipse_11512" data-name="Elipse 11512" cx="2.755" cy="2.755" r="2.755" transform="translate(442.542 250.379)" fill="none" stroke="#000" stroke-miterlimit="10" stroke-width="1"/>
          <path id="Trazado_893174" data-name="Trazado 893174" d="M555.215,302.908a46.971,46.971,0,0,1-1.934,4.513.42.42,0,0,0,.146.558c1.122.669,2.12,1.526,3.238,2.2a.408.408,0,0,0,.412-.7c-1.118-.676-2.115-1.532-3.239-2.2q.075.279.148.558A48.976,48.976,0,0,0,556,303.125c.155-.5-.633-.718-.787-.217" transform="translate(-101.658 -55.607)"/>
          <path id="Trazado_893175" data-name="Trazado 893175" d="M556.366,302.771l6.587-2.1c.5-.159.286-.948-.217-.787l-6.587,2.1c-.5.159-.286.948.217.787" transform="translate(-102.141 -55.099)"/>
          <path id="Trazado_893176" data-name="Trazado 893176" d="M557.711,311.381l4.915-1.636c.5-.165.283-.953-.217-.787l-4.915,1.636c-.5.165-.283.953.217.787" transform="translate(-102.388 -56.767)"/>
          <path id="Trazado_893177" data-name="Trazado 893177" d="M373.055,352.676a49.744,49.744,0,0,0,7.931-.436c.518-.069.3-.856-.217-.787a48.451,48.451,0,0,1-7.714.406.408.408,0,0,0,0,.816" transform="translate(-68.477 -64.579)"/>
          <path id="Trazado_893178" data-name="Trazado 893178" d="M377.112,350.023l5.12-.2c.523-.02.526-.837,0-.816l-5.12.2c-.523.02-.526.837,0,.816" transform="translate(-69.223 -64.131)"/>
          <path id="Trazado_893179" data-name="Trazado 893179" d="M575.422,352.575l7.231.441c.525.032.523-.784,0-.816l-7.231-.441c-.525-.032-.522.784,0,.816" transform="translate(-105.662 -64.636)"/>
          <path id="Trazado_893180" data-name="Trazado 893180" d="M575.23,349.1l5.121.61a.411.411,0,0,0,.408-.408.418.418,0,0,0-.408-.408l-5.121-.61a.41.41,0,0,0-.408.408.418.418,0,0,0,.408.408" transform="translate(-105.624 -63.997)"/>
          <path id="Trazado_893181" data-name="Trazado 893181" d="M509.165,319.61a125.5,125.5,0,0,0,18.478-1.436c.517-.079.3-.866-.217-.788a124,124,0,0,1-18.261,1.407.408.408,0,0,0,0,.816" transform="translate(-93.487 -58.319)"/>
          <path id="Trazado_893182" data-name="Trazado 893182" d="M535.48,317.385l3.767-.6a.411.411,0,0,0,.285-.5.417.417,0,0,0-.5-.285l-3.767.6a.41.41,0,0,0-.285.5.418.418,0,0,0,.5.285" transform="translate(-98.301 -58.064)"/>
          <path id="Trazado_893183" data-name="Trazado 893183" d="M544.894,309.39c.033-.009.068-.017.1-.024l.042-.007c-.121.025-.068.009-.036.007a1.247,1.247,0,0,1,.2,0l.052,0c.07.007-.016-.007-.036,0a.352.352,0,0,1,.1.02,1.986,1.986,0,0,1,.191.06c.046.016-.084-.038-.039-.017l.047.022c.032.015.063.032.093.049s.054.033.08.051l.042.029c.055.039-.061-.051-.025-.019a1.524,1.524,0,0,1,.144.137c.012.013.023.027.034.04.031.033-.063-.087-.019-.024.02.029.04.057.059.087a.408.408,0,1,0,.7-.412,1.789,1.789,0,0,0-1.956-.78.408.408,0,1,0,.217.787" transform="translate(-100.03 -56.696)"/>
          <path id="Trazado_893184" data-name="Trazado 893184" d="M410.871,309.436c.036-.008.073-.016.109-.02l-.109.015a1.149,1.149,0,0,1,.295,0l-.109-.015a1.3,1.3,0,0,1,.3.083l-.1-.042a1.382,1.382,0,0,1,.2.1l.046.031c.014.011.062.047,0,0s0,0,.009.009l.041.038c.024.024.048.048.07.073l.036.042c-.084-.1-.038-.05-.02-.024a1.121,1.121,0,0,1,.106.194c-.013-.033-.027-.065-.041-.1,0,.011.01.024.014.035a.444.444,0,0,0,.188.244.418.418,0,0,0,.314.041.413.413,0,0,0,.285-.5,1.6,1.6,0,0,0-1.858-1,.411.411,0,0,0-.285.5.417.417,0,0,0,.5.285" transform="translate(-75.403 -56.707)"/>
          <path id="Trazado_893185" data-name="Trazado 893185" d="M613.2,346.923a.45.45,0,0,1,.051-.046l-.083.064a.574.574,0,0,1,.114-.067l-.1.042a.565.565,0,0,1,.137-.036l-.109.014a.671.671,0,0,1,.167,0l-.109-.015a.759.759,0,0,1,.185.051l-.1-.041a.749.749,0,0,1,.166.1l-.082-.064a.667.667,0,0,1,.11.109l-.064-.082a.567.567,0,0,1,.072.122l-.041-.1a.565.565,0,0,1,.032.116l-.015-.109a.431.431,0,0,1,0,.079.408.408,0,1,0,.816,0,.907.907,0,0,0-.122-.46,1.091,1.091,0,0,0-.327-.34,1.107,1.107,0,0,0-.843-.164.88.88,0,0,0-.443.247.408.408,0,0,0,.577.577" transform="translate(-112.549 -63.592)"/>
          <path id="Trazado_893186" data-name="Trazado 893186" d="M344.431,347.017c.055-.045-.06.042-.018.015l.038-.026a.984.984,0,0,1,.089-.053c.02-.011.12-.056.056-.029s-.008,0,0,0l.055-.018c.067-.021.136-.028.2-.047-.013,0-.1.01-.039.007l.058,0c.034,0,.069,0,.1,0l.092,0c.083.006-.076-.013-.028,0l.046.007a1.409,1.409,0,0,1,.2.055c.062.023,0,0-.022-.011l.042.02a.992.992,0,0,1,.092.049c.029.017.058.037.087.056.045.03-.018-.011-.028-.022.015.016.037.031.053.046a.408.408,0,1,0,.577-.577,1.712,1.712,0,0,0-2.241-.043.409.409,0,0,0,0,.577.42.42,0,0,0,.577,0" transform="translate(-63.162 -63.586)"/>
          <path id="Trazado_893187" data-name="Trazado 893187" d="M572.286,290.752l4.067-.221c.522-.029.526-.845,0-.816l-4.067.221c-.522.029-.526.845,0,.816" transform="translate(-105.086 -53.235)"/>
          <path id="Trazado_893188" data-name="Trazado 893188" d="M572.838,294.5l5.651-.182c.524-.016.526-.833,0-.816l-5.651.182c-.524.017-.526.833,0,.816" transform="translate(-105.187 -53.932)"/>
          <path id="Trazado_893189" data-name="Trazado 893189" d="M617.13,321.208h3.164a.408.408,0,0,0,0-.816H617.13a.408.408,0,0,0,0,.816" transform="translate(-113.326 -58.872)"/>
          <path id="Trazado_893190" data-name="Trazado 893190" d="M615.608,318.723l4.52-.092a.408.408,0,0,0,0-.816l-4.52.092a.408.408,0,0,0,0,.816" transform="translate(-113.046 -58.399)"/>
          <path id="Trazado_893191" data-name="Trazado 893191" d="M617.406,225.093l2.6-.3a.418.418,0,0,0,.408-.408c-.009-.2-.181-.434-.408-.408l-2.6.3a.418.418,0,0,0-.408.408c.009.2.181.434.408.408" transform="translate(-113.374 -41.155)"/>
          <path id="Trazado_893192" data-name="Trazado 893192" d="M615.886,227.472l3.953-.354a.419.419,0,0,0,.408-.408.411.411,0,0,0-.408-.408l-3.953.354a.419.419,0,0,0-.408.408.411.411,0,0,0,.408.408" transform="translate(-113.095 -41.583)"/>
          <path id="Trazado_893193" data-name="Trazado 893193" d="M378.083,313.619l4.4.282c.524.033.522-.783,0-.816l-4.4-.282c-.525-.033-.522.783,0,.816" transform="translate(-69.401 -57.478)"/>
          <path id="Trazado_893194" data-name="Trazado 893194" d="M380.3,311.194l3.164.227a.411.411,0,0,0,.408-.408.416.416,0,0,0-.408-.408l-3.164-.227a.408.408,0,0,0,0,.816" transform="translate(-69.805 -57.032)"/>
          <path id="Trazado_893195" data-name="Trazado 893195" d="M335.728,291.605l6.439.125a.408.408,0,0,0,0-.816l-6.439-.125a.408.408,0,0,0,0,.816" transform="translate(-61.618 -53.433)"/>
          <path id="Trazado_893196" data-name="Trazado 893196" d="M335.864,287.98l2.823.135a.408.408,0,0,0,0-.816l-2.823-.135a.408.408,0,1,0,0,.816" transform="translate(-61.64 -52.767)"/>
          <path id="Trazado_893197" data-name="Trazado 893197" d="M339.879,203.421l2.712-.087a.408.408,0,1,0,0-.816l-2.712.086a.408.408,0,1,0,0,.816" transform="translate(-62.378 -37.213)"/>
          <path id="Trazado_893198" data-name="Trazado 893198" d="M340.3,200.759l5.423.091a.408.408,0,0,0,0-.816l-5.423-.091a.408.408,0,0,0,0,.816" transform="translate(-62.458 -36.74)"/>
          <path id="Trazado_893199" data-name="Trazado 893199" d="M388.878,225.977h2.712a.408.408,0,0,0,0-.816h-2.712a.408.408,0,1,0,0,.816" transform="translate(-71.382 -41.374)"/>
          <path id="Trazado_893200" data-name="Trazado 893200" d="M530.347,35.921l20.112,8.041,5.759,2.3c.487.2.7-.594.217-.787l-20.112-8.041-5.759-2.3c-.488-.2-.7.594-.217.787" transform="translate(-97.402 -6.45)"/>
          <path id="Trazado_893201" data-name="Trazado 893201" d="M565.291,50.143l5.878,2.479a.41.41,0,0,0,.5-.285.417.417,0,0,0-.285-.5l-5.878-2.479a.41.41,0,0,0-.5.285.418.418,0,0,0,.285.5" transform="translate(-103.818 -9.065)"/>
          <path id="Trazado_893202" data-name="Trazado 893202" d="M364.551,214.219a18.169,18.169,0,0,0,13.881-2.271c.443-.28.034-.987-.411-.705a17.336,17.336,0,0,1-13.253,2.189c-.51-.124-.728.663-.217.787" transform="translate(-66.933 -38.804)"/>
          <path id="Trazado_893203" data-name="Trazado 893203" d="M377.225,210.65a11.954,11.954,0,0,0,5.15-3.5c.34-.4-.235-.977-.577-.577a11.146,11.146,0,0,1-4.79,3.287c-.493.171-.281.96.217.787" transform="translate(-69.224 -37.934)"/>
          <path id="Trazado_893204" data-name="Trazado 893204" d="M573.238,207.771a15.578,15.578,0,0,0,11.548,6.6c.524.039.522-.777,0-.816a14.7,14.7,0,0,1-10.844-6.191c-.3-.428-1.006-.02-.7.412" transform="translate(-105.32 -38.069)"/>
          <path id="Trazado_893205" data-name="Trazado 893205" d="M583.45,211.45a12.394,12.394,0,0,0,6.759,1.184c.517-.057.522-.873,0-.816a11.622,11.622,0,0,1-6.347-1.073c-.471-.229-.886.475-.412.7" transform="translate(-107.171 -38.717)"/>
          <path id="Trazado_893206" data-name="Trazado 893206" d="M488.957,6.21a69.159,69.159,0,0,1,12.328.8c.514.081.735-.706.217-.787a70.379,70.379,0,0,0-12.545-.826.408.408,0,0,0,0,.816" transform="translate(-89.774 -0.987)"/>
          <path id="Trazado_893207" data-name="Trazado 893207" d="M477.883,6.171l4.746.226c.525.024.523-.792,0-.816l-4.746-.226c-.525-.025-.524.791,0,.816" transform="translate(-87.739 -0.984)"/>
          <path id="Trazado_893208" data-name="Trazado 893208" d="M423.946,135.755a131.073,131.073,0,0,0,16.443,23.214,132.427,132.427,0,0,0,20.975,19.1,129.852,129.852,0,0,0,13.51,8.649c.46.255.872-.449.412-.705a130.078,130.078,0,0,1-23.1-16.385,131.47,131.47,0,0,1-18.993-20.9,129.739,129.739,0,0,1-8.543-13.383c-.255-.459-.96-.048-.7.412" transform="translate(-77.891 -24.833)"/>
          <path id="Trazado_893209" data-name="Trazado 893209" d="M418.063,140.017A98.845,98.845,0,0,0,432.8,161.453q2.487,2.755,5.179,5.316c.38.362.958-.215.577-.578a97.991,97.991,0,0,1-16.226-20.175q-1.9-3.137-3.56-6.412c-.238-.469-.942-.056-.7.412" transform="translate(-76.811 -25.615)"/>
          <path id="Trazado_893210" data-name="Trazado 893210" d="M481.537,282.934a80.608,80.608,0,0,0,19.3-13.289q2.43-2.26,4.667-4.72c.353-.388-.223-.966-.577-.577a79.8,79.8,0,0,1-17.973,14.713q-2.849,1.7-5.833,3.169c-.471.231-.059.935.412.7" transform="translate(-88.369 -48.551)"/>
          <path id="Trazado_893211" data-name="Trazado 893211" d="M476.073,292.216a57.027,57.027,0,0,0,12.583-6.5c.43-.3.023-1-.412-.705a56.143,56.143,0,0,1-12.388,6.417c-.489.18-.278.969.217.787" transform="translate(-87.388 -52.358)"/>
        </g>
      </g>
    </g>
  </g>
</svg>
