<svg xmlns="http://www.w3.org/2000/svg" width="470.949" height="138.033" viewBox="0 0 470.949 138.033">
  <g id="Grupo_1102522" data-name="Grupo 1102522" transform="translate(6172 8986)">
    <path id="Trazado_893296" data-name="Trazado 893296" d="M10,0H460.949a10,10,0,0,1,10,10V128.034a10,10,0,0,1-10,10H10a10,10,0,0,1-10-10V10A10,10,0,0,1,10,0Z" transform="translate(-6172 -8986)" fill="#fff"/>
    <path id="Trazado_893297" data-name="Trazado 893297" d="M2.468-3.9V0H1.155V-9.953H4.826a3.688,3.688,0,0,1,2.56.834,2.827,2.827,0,0,1,.926,2.208,2.79,2.79,0,0,1-.906,2.232A3.853,3.853,0,0,1,4.813-3.9Zm0-1.073H4.826a2.358,2.358,0,0,0,1.613-.5A1.815,1.815,0,0,0,7-6.9a1.876,1.876,0,0,0-.561-1.424A2.209,2.209,0,0,0,4.9-8.88H2.468ZM11.163,0H9.9V-7.4h1.265ZM9.8-9.358a.755.755,0,0,1,.188-.52.706.706,0,0,1,.557-.212.717.717,0,0,1,.561.212.747.747,0,0,1,.191.52.722.722,0,0,1-.191.513.73.73,0,0,1-.561.205.718.718,0,0,1-.557-.205A.73.73,0,0,1,9.8-9.358ZM14.383-7.4l.041.93a2.7,2.7,0,0,1,2.215-1.066q2.345,0,2.365,2.646V0H17.739V-4.895a1.7,1.7,0,0,0-.366-1.183,1.466,1.466,0,0,0-1.118-.383,1.825,1.825,0,0,0-1.08.328,2.228,2.228,0,0,0-.725.861V0H13.187V-7.4ZM22.1-1.032h4.327V0H20.556V-.93l4.081-5.421h-4.02V-7.4h5.605v.9ZM32.416,0a2.657,2.657,0,0,1-.178-.779,2.822,2.822,0,0,1-2.105.916,2.611,2.611,0,0,1-1.794-.619,2,2,0,0,1-.7-1.569,2.091,2.091,0,0,1,.878-1.794,4.142,4.142,0,0,1,2.471-.639h1.23v-.581a1.42,1.42,0,0,0-.4-1.056,1.593,1.593,0,0,0-1.169-.393,1.844,1.844,0,0,0-1.135.342,1.007,1.007,0,0,0-.458.827H27.788a1.745,1.745,0,0,1,.393-1.07,2.683,2.683,0,0,1,1.066-.817,3.588,3.588,0,0,1,1.48-.3,2.924,2.924,0,0,1,2,.639,2.306,2.306,0,0,1,.752,1.76v3.4a4.162,4.162,0,0,0,.26,1.62V0Zm-2.1-.964a2.223,2.223,0,0,0,1.128-.308,1.861,1.861,0,0,0,.772-.8V-3.589h-.991q-2.324,0-2.324,1.36a1.151,1.151,0,0,0,.4.93A1.524,1.524,0,0,0,30.317-.964Zm9.454-1a.931.931,0,0,0-.386-.8,3.718,3.718,0,0,0-1.347-.489,6.367,6.367,0,0,1-1.524-.492,2.169,2.169,0,0,1-.834-.684,1.635,1.635,0,0,1-.27-.943A1.919,1.919,0,0,1,36.179-6.9a3,3,0,0,1,1.965-.629,3.091,3.091,0,0,1,2.041.649,2.063,2.063,0,0,1,.783,1.661H39.7a1.142,1.142,0,0,0-.441-.9,1.652,1.652,0,0,0-1.111-.376,1.729,1.729,0,0,0-1.08.3.947.947,0,0,0-.39.786.767.767,0,0,0,.362.69,4.458,4.458,0,0,0,1.309.444,6.821,6.821,0,0,1,1.535.506,2.239,2.239,0,0,1,.872.708,1.74,1.74,0,0,1,.284,1.008,1.893,1.893,0,0,1-.793,1.589,3.326,3.326,0,0,1-2.058.6,3.725,3.725,0,0,1-1.572-.314,2.557,2.557,0,0,1-1.07-.878,2.117,2.117,0,0,1-.386-1.22h1.265a1.309,1.309,0,0,0,.509,1.008A1.976,1.976,0,0,0,38.186-.9a2.039,2.039,0,0,0,1.152-.291A.893.893,0,0,0,39.771-1.962Z" transform="translate(-5997 -8911.833)" fill="#12263f"/>
    <path id="Trazado_893298" data-name="Trazado 893298" d="M0,0V73" transform="translate(-5930.551 -8953)" fill="none" stroke="#12263f" stroke-width="2"/>
    <path id="Trazado_892583" data-name="Trazado 892583" d="M-6669.667-8688.667l50.167-16-50.167-15.666" transform="translate(739.116 -211.5)" fill="none" stroke="#12263f" stroke-width="2"/>
    <path id="Trazado_893299" data-name="Trazado 893299" d="M0,0H50" transform="translate(-5930.551 -8916)" fill="none" stroke="#12263f" stroke-width="2" stroke-dasharray="4"/>
    <g id="Trazado_893300" data-name="Trazado 893300" transform="translate(-5885.051 -8920.5)" fill="#fff">
      <path d="M 5 9 C 2.794389963150024 9 1 7.205609798431396 1 5 C 1 2.794389963150024 2.794389963150024 1 5 1 C 7.205609798431396 1 9 2.794389963150024 9 5 C 9 7.205609798431396 7.205609798431396 9 5 9 Z" stroke="none"/>
      <path d="M 5 2 C 3.345789909362793 2 2 3.345789909362793 2 5 C 2 6.654210090637207 3.345789909362793 8 5 8 C 6.654210090637207 8 8 6.654210090637207 8 5 C 8 3.345789909362793 6.654210090637207 2 5 2 M 5 0 C 7.761420249938965 0 10 2.238580226898193 10 5 C 10 7.761420249938965 7.761420249938965 10 5 10 C 2.238580226898193 10 0 7.761420249938965 0 5 C 0 2.238580226898193 2.238580226898193 0 5 0 Z" stroke="none" fill="#12263f"/>
    </g>
  </g>
</svg>
