<svg xmlns="http://www.w3.org/2000/svg" xmlns:xlink="http://www.w3.org/1999/xlink" width="41.952" height="41.952" viewBox="0 0 41.952 41.952">
  <defs>
    <clipPath id="clip-path">
      <rect id="Rectángulo_401826" data-name="Rectángulo 401826" width="28.913" height="28.063" fill="#fffea7" stroke="#707070" stroke-width="1"/>
    </clipPath>
  </defs>
  <g id="Grupo_1102129" data-name="Grupo 1102129" transform="translate(-180 -581)">
    <path id="Trazado_887077" data-name="Trazado 887077" d="M41.952,20.976A20.976,20.976,0,1,1,20.976,0,20.976,20.976,0,0,1,41.952,20.976" transform="translate(180 581)" fill="#ff494f"/>
    <g id="Enmascarar_grupo_1099841" data-name="Enmascarar grupo 1099841" transform="translate(186.803 588.086)" clip-path="url(#clip-path)">
      <path id="vestido_1_" data-name="vestido (1)" d="M10.7.514l-.241,2.41a.468.468,0,0,1-.931-.092L9.77.421A.468.468,0,1,1,10.7.514Zm9.248,2.318L19.708.421a.468.468,0,0,0-.931.094l.241,2.41a.468.468,0,0,0,.931-.092Zm.58,10.194c1.27-2.9,1.43-6.039-.495-8.571a.468.468,0,0,0-.391-.184L18.8,4.3a1.862,1.862,0,0,0-1.588,1.01,2.747,2.747,0,0,1-4.943,0A1.861,1.861,0,0,0,10.68,4.3l-.845-.033a.466.466,0,0,0-.391.184c-1.921,2.527-1.772,5.669-.485,8.594a.466.466,0,0,0,.314.265,22.654,22.654,0,0,0,10.943-.022.466.466,0,0,0,.313-.265Zm3.5,12.619a19.039,19.039,0,0,1-13.672,1.9.467.467,0,0,1-.287-.7,22.224,22.224,0,0,0,2.427-5.416.468.468,0,1,0-.9-.265A21.287,21.287,0,0,1,8.987,26.8a.469.469,0,0,1-.547.186,19.282,19.282,0,0,1-2.987-1.34,1.4,1.4,0,0,1-.435-2.07,24.521,24.521,0,0,0,4.259-8.837.467.467,0,0,1,.549-.339,23.591,23.591,0,0,0,9.815-.015.467.467,0,0,1,.551.341,24.6,24.6,0,0,0,4.27,8.851,1.4,1.4,0,0,1-.436,2.068Zm-7.642-6.737A23.081,23.081,0,0,0,18.24,24.7a.468.468,0,0,0,.845-.4A22.14,22.14,0,0,1,17.3,18.742a.468.468,0,0,0-.92.166Zm-3.827.8a.468.468,0,0,0,.458-.376q.043-.214.08-.419a.468.468,0,0,0-.92-.166c-.024.131-.049.265-.077.4a.468.468,0,0,0,.459.559Z" transform="translate(-0.283 0)" fill="#fffea7"/>
    </g>
  </g>
</svg>
