<svg xmlns="http://www.w3.org/2000/svg" width="73" height="73" viewBox="0 0 73 73">
  <g id="Grupo_1102382" data-name="Grupo 1102382" transform="translate(-842.051 -19002)">
    <circle id="Elipse_11502" data-name="Elipse 11502" cx="36.5" cy="36.5" r="36.5" transform="translate(842.051 19002)" fill="#ff494f"/>
    <g id="top-corto" transform="translate(854.385 19014.334)">
      <path id="Trazado_892736" data-name="Trazado 892736" d="M43.375,51.97H4.955a.708.708,0,0,1-.688-.542L.019,33.824a.708.708,0,0,1,.33-.777,9.352,9.352,0,0,0,4.606-8.038V8.868a.708.708,0,0,1,.354-.613l7.174-4.142a.708.708,0,0,1,.708,1.226L6.371,9.277V25.009a10.777,10.777,0,0,1-4.856,8.981l4,16.565h37.3l4-16.565a10.776,10.776,0,0,1-4.856-8.981V23.462a.708.708,0,1,1,1.416,0v1.547a9.352,9.352,0,0,0,4.606,8.038.708.708,0,0,1,.33.777l-4.248,17.6A.708.708,0,0,1,43.375,51.97Z" transform="translate(0 -3.638)" fill="#ffedee"/>
      <path id="Trazado_892737" data-name="Trazado 892737" d="M376.381,21.338a.708.708,0,0,1-.708-.708V9.277l-6.82-3.938a.708.708,0,1,1,.708-1.226l7.174,4.142a.708.708,0,0,1,.354.613V20.63A.708.708,0,0,1,376.381,21.338Z" transform="translate(-333.714 -3.638)" fill="#ffedee"/>
      <path id="Línea_156" data-name="Línea 156" d="M35.728-6.084H-6.792A.708.708,0,0,1-7.5-6.792.708.708,0,0,1-6.792-7.5h42.52a.708.708,0,0,1,.708.708A.708.708,0,0,1,35.728-6.084Z" transform="translate(9.697 45.92)" fill="#ffedee"/>
      <path id="Trazado_892738" data-name="Trazado 892738" d="M126.952,17.7A13.467,13.467,0,0,1,113.5,4.248V3.54A3.544,3.544,0,0,1,117.04,0h19.823a3.544,3.544,0,0,1,3.54,3.54v.708A13.467,13.467,0,0,1,126.952,17.7ZM117.04,1.416a2.126,2.126,0,0,0-2.124,2.124v.708a12.036,12.036,0,1,0,24.071,0V3.54a2.126,2.126,0,0,0-2.124-2.124Z" transform="translate(-102.786)" fill="#ffedee"/>
      <path id="Trazado_892739" data-name="Trazado 892739" d="M154.12,42.036a10.521,10.521,0,0,1-6.357-2.118.708.708,0,1,1,.849-1.133,9.115,9.115,0,0,0,5.508,1.835,9.214,9.214,0,0,0,9.2-9.2H144.916a9.115,9.115,0,0,0,1.835,5.508.708.708,0,0,1-1.133.849,10.521,10.521,0,0,1-2.118-6.357v-.708a.708.708,0,0,1,.708-.708h19.823a.708.708,0,0,1,.708.708v.708A10.632,10.632,0,0,1,154.12,42.036Z" transform="translate(-129.954 -27.168)" fill="#ffedee"/>
      <path id="Trazado_892740" data-name="Trazado 892740" d="M8.059,61.294A.708.708,0,0,1,7.7,59.975a13.693,13.693,0,0,0,6.744-11.77V31.285a.708.708,0,0,1,1.416,0v16.92A15.114,15.114,0,0,1,8.416,61.2.7.7,0,0,1,8.059,61.294Z" transform="translate(-6.657 -27.691)" fill="#ffedee"/>
      <path id="Trazado_892741" data-name="Trazado 892741" d="M422.3,61.294a.7.7,0,0,1-.357-.1A15.114,15.114,0,0,1,414.5,48.205V31.285a.708.708,0,0,1,1.416,0v16.92a13.692,13.692,0,0,0,6.744,11.77.708.708,0,0,1-.359,1.319Z" transform="translate(-375.373 -27.691)" fill="#ffedee"/>
    </g>
  </g>
</svg>
