<svg xmlns="http://www.w3.org/2000/svg" width="85" height="85" viewBox="0 0 85 85">
  <g id="Grupo_1102392" data-name="Grupo 1102392" transform="translate(-842.051 -19001.949)">
    <circle id="Elipse_11502" data-name="Elipse 11502" cx="42.5" cy="42.5" r="42.5" transform="translate(842.051 19001.949)" fill="#bdadea"/>
    <g id="top-corto" transform="translate(856.404 19016.354)">
      <path id="Trazado_892736" data-name="Trazado 892736" d="M50.475,59.819H5.767a.824.824,0,0,1-.8-.631L.022,38.7a.824.824,0,0,1,.384-.9,10.883,10.883,0,0,0,5.36-9.354V9.662a.824.824,0,0,1,.412-.713l8.349-4.82a.824.824,0,0,1,.824,1.427L7.414,10.137V28.445A12.541,12.541,0,0,1,1.764,38.9L6.415,58.171H49.827L54.478,38.9a12.54,12.54,0,0,1-5.65-10.451v-1.8a.824.824,0,1,1,1.648,0v1.8a10.882,10.882,0,0,0,5.36,9.354.824.824,0,0,1,.384.9L51.276,59.189A.824.824,0,0,1,50.475,59.819Z" transform="translate(0.001 -3.576)" fill="#72688d"/>
      <path id="Trazado_892737" data-name="Trazado 892737" d="M377.671,24.173a.824.824,0,0,1-.824-.824V10.137l-7.937-4.582a.824.824,0,1,1,.824-1.427l8.349,4.82a.824.824,0,0,1,.412.713V23.349A.824.824,0,0,1,377.671,24.173Z" transform="translate(-328.019 -3.576)" fill="#72688d"/>
      <path id="Línea_156" data-name="Línea 156" d="M42.8-5.852H-6.676A.824.824,0,0,1-7.5-6.676.824.824,0,0,1-6.676-7.5H42.8a.824.824,0,0,1,.824.824A.824.824,0,0,1,42.8-5.852Z" transform="translate(10.058 52.209)" fill="#72688d"/>
      <path id="Trazado_892738" data-name="Trazado 892738" d="M129.154,20.6A15.671,15.671,0,0,1,113.5,4.943V4.119A4.124,4.124,0,0,1,117.619,0h23.068a4.124,4.124,0,0,1,4.119,4.119v.824A15.671,15.671,0,0,1,129.154,20.6ZM117.619,1.648a2.474,2.474,0,0,0-2.472,2.472v.824a14.006,14.006,0,1,0,28.012,0V4.119a2.474,2.474,0,0,0-2.472-2.472Z" transform="translate(-101.032)" fill="#72688d"/>
      <path id="Trazado_892739" data-name="Trazado 892739" d="M155.858,44.006a12.243,12.243,0,0,1-7.4-2.465.824.824,0,1,1,.988-1.318,10.607,10.607,0,0,0,6.41,2.135,10.722,10.722,0,0,0,10.71-10.71H145.148a10.607,10.607,0,0,0,2.135,6.41.824.824,0,1,1-1.318.988,12.243,12.243,0,0,1-2.465-7.4v-.824a.824.824,0,0,1,.824-.824h23.068a.824.824,0,0,1,.824.824v.824A12.372,12.372,0,0,1,155.858,44.006Z" transform="translate(-127.737 -26.705)" fill="#72688d"/>
      <path id="Trazado_892740" data-name="Trazado 892740" d="M8.175,66.322a.824.824,0,0,1-.417-1.535,15.934,15.934,0,0,0,7.848-13.7V31.4a.824.824,0,1,1,1.648,0v19.69A17.588,17.588,0,0,1,8.59,66.209.82.82,0,0,1,8.175,66.322Z" transform="translate(-6.542 -27.218)" fill="#72688d"/>
      <path id="Trazado_892741" data-name="Trazado 892741" d="M423.578,66.322a.82.82,0,0,1-.416-.113A17.588,17.588,0,0,1,414.5,51.091V31.4a.824.824,0,0,1,1.648,0v19.69A15.934,15.934,0,0,0,424,64.787a.824.824,0,0,1-.417,1.535Z" transform="translate(-368.967 -27.218)" fill="#72688d"/>
    </g>
  </g>
</svg>
