<svg id="pdf" xmlns="http://www.w3.org/2000/svg" width="74.655" height="74.655" viewBox="0 0 74.655 74.655">
  <path id="Trazado_876475" data-name="Trazado 876475" d="M74.56,39.991c.062-.88.1-1.768.1-2.663A37.328,37.328,0,1,0,27.385,73.314Z" fill="#992c30"/>
  <path id="Trazado_876476" data-name="Trazado 876476" d="M176.29,106.543l-28.63-28.63L119.1,129.847l10.019,10.019a37.352,37.352,0,0,0,47.175-33.323Z" transform="translate(-101.73 -66.552)" fill="#85080e"/>
  <path id="Trazado_876477" data-name="Trazado 876477" d="M142.314,115.241l-3.3-37.328H119.1v34.082Z" transform="translate(-101.73 -66.552)" fill="#fff"/>
  <path id="Trazado_876478" data-name="Trazado 876478" d="M275.715,111.995V89.274L267.6,86.028l-3.246-8.115h-8.644l.052,37.328Z" transform="translate(-218.426 -66.552)" fill="#e8e6e6"/>
  <path id="Trazado_876479" data-name="Trazado 876479" d="M314.991,89.274V77.913l11.361,11.361Z" transform="translate(-269.062 -66.552)" fill="#fff"/>
  <rect id="Rectángulo_401412" data-name="Rectángulo 401412" width="39.924" height="17.852" transform="translate(17.366 45.442)" fill="#fc0f1a"/>
  <g id="Grupo_1099561" data-name="Grupo 1099561" transform="translate(26.507 50.507)">
    <path id="Trazado_876480" data-name="Trazado 876480" d="M185.155,346.387c1.975,0,3.112.971,3.112,2.692,0,1.81-1.137,2.858-3.112,2.858h-1.4v2.174h-1.964v-7.724Zm-1.4,4.006h1.3c.861,0,1.357-.43,1.357-1.247s-.5-1.214-1.357-1.214h-1.3Z" transform="translate(-181.789 -346.387)" fill="#fff"/>
    <path id="Trazado_876481" data-name="Trazado 876481" d="M238.469,346.387a3.8,3.8,0,0,1,4.1,3.862c0,2.284-1.7,3.862-4.182,3.862h-3.244v-7.724Zm-1.357,6.157h1.4a2.087,2.087,0,0,0,2.063-2.284,2.142,2.142,0,0,0-2.152-2.306h-1.313v4.59Z" transform="translate(-227.367 -346.387)" fill="#fff"/>
    <path id="Trazado_876482" data-name="Trazado 876482" d="M297.056,347.933v1.788h3.465v1.545h-3.465v2.847h-1.964v-7.724h5.727v1.545h-3.763Z" transform="translate(-278.571 -346.388)" fill="#fff"/>
  </g>
</svg>
