<svg id="surface1" xmlns="http://www.w3.org/2000/svg" width="74.949" height="74.949" viewBox="0 0 74.949 74.949">
  <path id="Trazado_891826" data-name="Trazado 891826" d="M74.949,37.475A37.475,37.475,0,1,1,37.475,0,37.474,37.474,0,0,1,74.949,37.475Zm0,0" fill="#ffda00"/>
  <path id="Trazado_891827" data-name="Trazado 891827" d="M145.627,131.7l-11.27-11.269L131.01,126.4l-16.193-16.194L88.732,113.24,82.8,145.883l23.072,23.072c.755.046,1.515.071,2.282.071A37.474,37.474,0,0,0,145.627,131.7Zm0,0" transform="translate(-70.68 -94.078)" fill="#ffb600"/>
  <path id="Trazado_891828" data-name="Trazado 891828" d="M115.216,119.66H112v-5.17a4.284,4.284,0,0,1,4.279-4.279h7.016v3.22h-7.016a1.06,1.06,0,0,0-1.059,1.059Zm0,0" transform="translate(-95.601 -94.078)" fill="#4b5568"/>
  <path id="Trazado_891829" data-name="Trazado 891829" d="M351.547,213.859h7.264v14.527h-7.264Zm0,0" transform="translate(-300.086 -182.553)" fill="#323750"/>
  <path id="Trazado_891830" data-name="Trazado 891830" d="M351.547,255.309h7.264v8.459h-7.264Zm0,0" transform="translate(-300.086 -217.936)" fill="#282d3f"/>
  <path id="Trazado_891831" data-name="Trazado 891831" d="M392.643,204.459l-7.264-4.952V184.979l7.264-4.952Zm0,0" transform="translate(-328.965 -153.674)" fill="#4b5568"/>
  <path id="Trazado_891832" data-name="Trazado 891832" d="M385.379,255.309v8.459l7.264,4.952V255.309Zm0,0" transform="translate(-328.965 -217.936)" fill="#323750"/>
  <path id="Trazado_891833" data-name="Trazado 891833" d="M109.481,191.4H79.275A6.275,6.275,0,0,1,73,185.12V167.13a6.275,6.275,0,0,1,6.275-6.275h30.206a6.275,6.275,0,0,1,6.275,6.275v17.99A6.275,6.275,0,0,1,109.481,191.4Zm0,0" transform="translate(-62.314 -137.308)" fill="#4b5568"/>
  <path id="Trazado_891834" data-name="Trazado 891834" d="M73,255.309v10.438a6.275,6.275,0,0,0,6.275,6.275h30.206a6.275,6.275,0,0,0,6.275-6.275V255.309Zm0,0" transform="translate(-62.314 -217.936)" fill="#323750"/>
  <path id="Trazado_891835" data-name="Trazado 891835" d="M107.395,198.82h32.687V212.8H107.395Zm0,0" transform="translate(-91.674 -169.716)" fill="#626c7c"/>
  <path id="Trazado_891836" data-name="Trazado 891836" d="M107.395,255.309h32.687v5.708H107.395Zm0,0" transform="translate(-91.674 -217.936)" fill="#4b5568"/>
  <path id="Trazado_891837" data-name="Trazado 891837" d="M180.545,106.448H165.9a3.056,3.056,0,0,1,0-6.112h14.645a3.056,3.056,0,1,1,0,6.112Zm0,0" transform="translate(-139.006 -85.648)" fill="#323750"/>
  <path id="Trazado_891838" data-name="Trazado 891838" d="M127.508,211.6a2.256,2.256,0,1,1-2.256-2.256A2.257,2.257,0,0,1,127.508,211.6Zm0,0" transform="translate(-104.991 -178.703)" fill="#fa5d0f"/>
</svg>
